<?xml version="1.0" encoding="UTF-8" standalone="no"?>
<!DOCTYPE svg  PUBLIC '-//W3C//DTD SVG 1.1//EN'  'http://www.w3.org/Graphics/SVG/1.1/DTD/svg11.dtd'>
<svg xmlns="http://www.w3.org/2000/svg">
<defs>
<font id="HelveticaLTStd-Roman" horiz-adv-x="556">
<font-face underline-position="-50" font-weight="400" descent="-200" panose-1="2 11 5 4 2 2 2 2 2 4" units-per-em="1000" unicode-range="U+0020-25CA" bbox="-166 -225 1000 931" x-height="523" underline-thickness="50" font-family="HelveticaLTStd" ascent="800" cap-height="718"/>
<missing-glyph horiz-adv-x="1000"/>
<glyph glyph-name=".notdef" horiz-adv-x="1000"/>
<glyph glyph-name=".null" horiz-adv-x="0"/>
<glyph glyph-name="nonmarkingreturn" horiz-adv-x="333"/>
<glyph glyph-name="space" horiz-adv-x="278" unicode=" "/>
<glyph glyph-name="exclam" horiz-adv-x="278" unicode="!" d="M163 171h-49l-24 310v237h97v-237zM187 102v-102h-97v102h97z"/>
<glyph glyph-name="quotedbl" horiz-adv-x="355" unicode='&quot;' d="M212 463v255h73v-255h-73zM70 463v255h73v-255h-73z"/>
<glyph glyph-name="numbersign" d="M350 415h-124l-20 -142h125zM388 210l-29 -210h-66l29 210h-125l-29 -210h-66l29 210h-103l9 63h103l19 142h-103l9 63h103l29 210h67l-29 -210h124l29 210h67l-29 -210h103l-9 -63h-103l-20 -142h103l-9 -63h-103z" unicode="#"/>
<glyph glyph-name="dollar" d="M503 521h-85q-6 47 -30.5 76t-87.5 41v-239q34 -10 49.5 -15t42 -14t39 -16.5t30.5 -19t26 -24t17 -29.5t12.5 -38t3.5 -47q0 -60 -22 -104.5t-57.5 -67t-71 -33t-69.5 -10.5v-96h-47v96q-103 6 -162 58.5t-59 173.5h88q5 -81 32 -114t101 -45v265q-46 11 -76.5 22.5 t-64 33t-50 57t-16.5 84.5q0 82 59.5 138.5t147.5 56.5v64h47v-64q24 -2 45.5 -6t51 -17t51 -32t37.5 -54t18 -81zM300 308v-254q63 0 97.5 36.5t34.5 89.5q0 40 -22.5 70.5t-55.5 40.5zM253 409v229q-55 0 -87 -34t-32 -82q0 -49 34 -76.5t85 -36.5z" unicode="$"/>
<glyph glyph-name="percent" horiz-adv-x="889" unicode="%" d="M669 703l-396 -722h-54l395 722h55zM579 164q0 -45 29.5 -73t70.5 -28q43 0 72 29.5t29 71.5t-29 70.5t-71 28.5t-71.5 -29t-29.5 -70zM509 164q0 71 50 120t121 49q70 0 120 -49.5t50 -119.5q0 -71 -50 -121t-120 -50q-71 0 -121 49.5t-50 121.5zM109 526 q0 -45 29.5 -73t70.5 -28q43 0 72 29.5t29 71.5t-29 70.5t-71 28.5t-71.5 -29t-29.5 -70zM39 526q0 71 50 120t121 49q70 0 120 -49.5t50 -119.5q0 -71 -50 -121t-120 -50q-71 0 -121 49.5t-50 121.5z"/>
<glyph glyph-name="ampersand" horiz-adv-x="667" unicode="&amp;" d="M517 155l128 -155h-114l-67 82q-42 -48 -89 -72.5t-120 -24.5q-63 0 -108 21t-65.5 53.5t-29 60.5t-8.5 53q0 76 32.5 123.5t129.5 102.5q-44 54 -60 85t-16 74q0 66 45.5 113t124.5 47t120 -44t41 -104q0 -36 -11.5 -66t-34.5 -54t-39 -36.5t-44 -31.5l131 -156 q19 51 29 112h83q-7 -90 -58 -183zM286 439q26 18 41.5 31t32 39t16.5 54q0 43 -24 61t-53 18q-26 0 -44 -8.5t-26 -22t-11 -25t-3 -22.5q0 -54 71 -125zM417 141l-162 198q-67 -43 -95 -74.5t-28 -84.5q0 -41 25 -70t52.5 -39t51.5 -10q98 0 156 80z"/>
<glyph glyph-name="quotesingle" horiz-adv-x="191" unicode="&apos;" d="M59 463v255h73v-255h-73z"/>
<glyph glyph-name="parenleft" horiz-adv-x="333" unicode="(" d="M237 733h61q-40 -76 -58.5 -114.5t-40 -100.5t-29.5 -128t-8 -153q0 -113 32.5 -208t104.5 -236h-59q-89 134 -130.5 236.5t-41.5 231.5q0 127 42 239t127 233z"/>
<glyph glyph-name="parenright" horiz-adv-x="333" unicode=")" d="M96 -207h-61q40 76 58.5 114.5t40 100.5t29.5 128t8 153q0 113 -32.5 208t-104.5 236h59q89 -134 130.5 -236.5t41.5 -231.5q0 -127 -42 -239t-127 -233z"/>
<glyph glyph-name="asterisk" horiz-adv-x="389" unicode="*" d="M39 591l20 55l105 -38v110h60v-110l105 38l20 -55l-108 -34l67 -92l-49 -34l-65 94l-65 -94l-49 34l67 92z"/>
<glyph glyph-name="plus" horiz-adv-x="584" unicode="+" d="M256 289v216h73v-216h216v-73h-216v-216h-73v216h-217v73h217z"/>
<glyph glyph-name="comma" horiz-adv-x="278" unicode="," d="M87 0v106h104v-98q0 -38 -9.5 -67.5t-21 -45t-28.5 -25.5t-26 -13t-19 -4v46q53 5 53 101h-53z"/>
<glyph glyph-name="hyphen" horiz-adv-x="333" unicode="-" d="M289 322v-90h-245v90h245z"/>
<glyph glyph-name="period" horiz-adv-x="278" unicode="." d="M191 106v-106h-104v106h104z"/>
<glyph glyph-name="slash" horiz-adv-x="278" unicode="/" d="M295 737l-245 -756h-67l246 756h66z"/>
<glyph glyph-name="zero" d="M519 342q0 -49 -5.5 -94t-21.5 -95.5t-41.5 -87t-70 -60.5t-102.5 -24t-102.5 24t-70 60.5t-41.5 87t-21.5 95.5t-5.5 94t5.5 94t21.5 95.5t41.5 87t70 60.5t102.5 24t102.5 -24t70 -60.5t41.5 -87t21.5 -95.5t5.5 -94zM425 342q0 282 -147 282t-147 -282t147 -282 t147 282z" unicode="0"/>
<glyph glyph-name="one" d="M359 703v-703h-94v499h-164v70q39 3 61.5 6t45.5 11t36.5 22.5t25.5 37.5t20 57h69z" unicode="1"/>
<glyph glyph-name="two" d="M132 451h-88q0 65 18.5 113.5t44.5 74.5t62 41t63 19t55 4q94 0 157 -57t63 -153q0 -45 -13.5 -81t-42.5 -64t-57 -46.5t-75 -43.5l-73 -40q-110 -61 -121 -135h382v-83h-481q4 103 46 168.5t119 110.5l93 54q38 22 53.5 32t37.5 30.5t30 44.5t8 57q0 50 -34 88.5 t-105 38.5q-38 0 -65.5 -14.5t-41 -31.5t-22 -46t-10.5 -43t-3 -38z" unicode="2"/>
<glyph glyph-name="three" d="M224 324v76q30 -2 46 -2q58 0 96 27t38 88q0 41 -30 76t-100 35q-36 0 -62 -12t-39 -26.5t-21.5 -39t-10.5 -38t-4 -35.5h-86q0 34 5.5 64t21 61.5t40 53.5t66 36.5t94.5 14.5q100 0 158.5 -51.5t58.5 -133.5q0 -61 -27.5 -97.5t-62.5 -47.5v-2q117 -38 117 -164 q0 -95 -63.5 -160.5t-189.5 -65.5q-71 0 -130 31q-94 49 -105 203h91q1 -30 6.5 -53t20 -48.5t46 -39.5t77.5 -14q68 0 110.5 37.5t42.5 98.5q0 129 -164 129q-6 0 -20 -0.5t-20 -0.5z" unicode="3"/>
<glyph glyph-name="four" d="M330 566l-224 -319h226v319h-2zM523 171h-103v-171h-88v171h-307v86l322 446h73v-456h103v-76z" unicode="4"/>
<glyph glyph-name="five" d="M177 602l-30 -193q57 44 136 44q92 0 161.5 -61t69.5 -164q0 -28 -5 -56t-21.5 -64t-43 -63t-74.5 -45.5t-111 -18.5q-38 0 -72.5 8.5t-68.5 29t-57 60.5t-29 96h91q6 -59 46.5 -88.5t102.5 -29.5q67 0 107.5 46.5t40.5 114.5q0 73 -44 114.5t-112 41.5q-79 0 -130 -67 l-76 4l53 377h364v-86h-298z" unicode="5"/>
<glyph glyph-name="six" d="M141 216q0 -63 38 -109.5t110 -46.5q63 0 100.5 44.5t37.5 116.5q0 57 -34 102.5t-108 45.5q-70 0 -107 -43.5t-37 -109.5zM503 516h-86q-19 108 -121 108q-48 0 -83.5 -29t-52 -74t-24 -84t-7.5 -73l2 -2q50 86 167 86q35 0 71 -12t70.5 -36t56.5 -69.5t22 -105.5 q0 -103 -67 -176q-31 -34 -70 -51t-108 -17q-47 0 -97 24t-84 78q-54 85 -54 244q0 65 12 125t39 119.5t80.5 95.5t128.5 36q33 0 65.5 -9.5t63.5 -30t52 -58.5t24 -89z" unicode="6"/>
<glyph glyph-name="seven" d="M37 602v86h486v-77q-32 -33 -68.5 -84t-82 -128.5t-83 -183t-55.5 -215.5h-97q18 141 100.5 311t186.5 291h-387z" unicode="7"/>
<glyph glyph-name="eight" d="M276 406q56 0 90.5 32t34.5 81q0 40 -31 72.5t-100 32.5q-63 0 -90 -33.5t-27 -76.5q0 -48 36.5 -78t86.5 -30zM277 330q-70 0 -107.5 -38.5t-37.5 -91.5q0 -24 6.5 -46t22 -44.5t47 -36t74.5 -13.5q141 0 141 133q0 68 -41 102.5t-105 34.5zM492 522q0 -35 -9 -62.5 t-25.5 -44.5t-27.5 -24.5t-28 -16.5q64 -27 89.5 -74t25.5 -97q0 -93 -60.5 -157.5t-177.5 -64.5q-100 0 -169 54q-72 57 -72 167q0 123 119 171q-95 36 -95 137q0 31 10 61.5t32.5 61.5t67 50.5t103.5 19.5q108 0 162.5 -55t54.5 -126z" unicode="8"/>
<glyph glyph-name="nine" d="M276 314q21 0 41 6t43 21.5t37 49.5t14 83q0 65 -35.5 107.5t-106.5 42.5q-61 0 -98.5 -43.5t-37.5 -114.5q0 -152 143 -152zM263 235q-99 0 -160 61.5t-61 165.5q0 102 60 171.5t166 69.5q64 0 111.5 -24t72.5 -57.5t39.5 -81.5t18.5 -84.5t4 -78.5q0 -22 -1.5 -46 t-7 -65t-15.5 -77t-29.5 -75.5t-45 -67.5t-66 -46.5t-90.5 -18.5q-58 0 -101.5 19.5t-65.5 50t-32 60t-10 58.5h88q4 -54 35 -84.5t84 -30.5q72 0 112 63t57 200l-2 2q-19 -39 -64.5 -61.5t-96.5 -22.5z" unicode="9"/>
<glyph glyph-name="colon" horiz-adv-x="278" unicode=":" d="M191 516v-106h-104v106h104zM191 106v-106h-104v106h104z"/>
<glyph glyph-name="semicolon" horiz-adv-x="278" unicode=";" d="M191 410h-104v106h104v-106zM87 0v106h104v-98q0 -38 -9.5 -67.5t-21 -45t-28.5 -25.5t-26 -13t-19 -4v46q53 5 53 101h-53z"/>
<glyph glyph-name="less" horiz-adv-x="584" unicode="&lt;" d="M536 91v-80l-488 207v70l488 207v-80l-390 -162z"/>
<glyph glyph-name="equal" horiz-adv-x="584" unicode="=" d="M545 188v-73h-506v73h506zM545 390v-73h-506v73h506z"/>
<glyph glyph-name="greater" horiz-adv-x="584" unicode="&gt;" d="M48 415v80l488 -207v-70l-488 -207v80l390 162z"/>
<glyph glyph-name="question" d="M318 102v-102h-97v102h97zM144 493h-88q2 45 5.5 69t21.5 58.5t52 60.5q59 46 145 46q89 0 150.5 -52t61.5 -144q0 -47 -20 -80t-74 -85q-37 -36 -51.5 -53t-25 -46.5t-10.5 -73.5v-10h-88q0 80 18.5 117.5t76.5 97.5q53 55 66.5 76.5t13.5 62.5q0 18 -5.5 36t-18 36.5 t-38 30t-59.5 11.5q-133 0 -133 -158z" unicode="?"/>
<glyph glyph-name="at" horiz-adv-x="1015" unicode="@" d="M642 494l20 62h68q-14 -53 -38.5 -135.5t-38 -130.5t-13.5 -60q0 -29 21 -29q51 0 96.5 68t45.5 148q0 117 -81 187.5t-198 70.5q-132 0 -218 -92.5t-86 -227.5q0 -133 90 -222.5t221 -89.5q70 0 135 30.5t108 83.5h67q-49 -82 -132.5 -129t-179.5 -47q-161 0 -271.5 110 t-110.5 270q0 156 111 266t266 110q142 0 243 -89t101 -223q0 -64 -24.5 -121t-61.5 -92t-78 -55.5t-75 -20.5q-27 0 -45 16t-19 47l-2 -1q-58 -62 -120 -62q-63 0 -105 47t-42 113q0 107 65.5 191.5t165.5 84.5q79 0 115 -78zM611 408q0 37 -24.5 64.5t-57.5 27.5 q-63 0 -107 -63.5t-44 -131.5q0 -43 23.5 -70t60.5 -27q60 0 104.5 67t44.5 133z"/>
<glyph glyph-name="A" horiz-adv-x="667" unicode="A" d="M219 295h223l-106 316h-2zM477 209h-288l-75 -209h-100l270 718h110l260 -718h-106z"/>
<glyph glyph-name="B" horiz-adv-x="667" unicode="B" d="M171 335v-252h207q74 0 113 35t39 96q0 121 -168 121h-191zM74 0v718h316q96 0 149.5 -51.5t53.5 -129.5q0 -105 -96 -150q26 -11 41.5 -19.5t39.5 -28t36.5 -52t12.5 -75.5q0 -91 -64.5 -151.5t-179.5 -60.5h-309zM171 635v-221h175q74 0 112 26.5t38 89.5 q0 52 -35 78.5t-114 26.5h-176z"/>
<glyph glyph-name="C" horiz-adv-x="722" unicode="C" d="M674 502h-94q-10 45 -32.5 76t-53 46t-58 21t-57.5 6q-102 0 -168.5 -74.5t-66.5 -210.5q0 -299 238 -299q28 0 55 8t58 27.5t55.5 61t36.5 100.5h94q-8 -56 -27.5 -101t-42.5 -74t-53.5 -50t-56.5 -32t-55.5 -17t-46 -7.5t-32.5 -1.5q-64 0 -120 21.5t-102.5 65.5 t-73.5 119.5t-27 175.5q0 168 90 271t245 103q131 0 207.5 -68.5t87.5 -166.5z"/>
<glyph glyph-name="D" horiz-adv-x="722" unicode="D" d="M178 635v-552h188q96 0 152 73t56 207q0 133 -57 202.5t-158 69.5h-181zM81 0v718h291q139 0 220.5 -96t81.5 -253q0 -51 -9 -100.5t-31 -99t-56 -86.5t-88 -60t-122 -23h-287z"/>
<glyph glyph-name="E" horiz-adv-x="667" unicode="E" d="M616 86v-86h-530v718h523v-86h-426v-220h393v-86h-393v-240h433z"/>
<glyph glyph-name="F" horiz-adv-x="611" unicode="F" d="M183 326v-326h-97v718h497v-86h-400v-220h352v-86h-352z"/>
<glyph glyph-name="G" horiz-adv-x="778" unicode="G" d="M389 301v83h315v-384h-63l-23 93q-37 -51 -100.5 -81.5t-136.5 -30.5q-137 0 -220 81q-51 48 -78 110.5t-31 101t-4 91.5q0 68 21 132.5t61 119t107 87.5t151 33q110 0 199.5 -62t104.5 -175h-94q-14 58 -52.5 94t-77.5 46.5t-85 10.5q-101 0 -168 -77.5t-67 -213.5 q0 -59 11 -108.5t36.5 -93.5t74 -69t117.5 -25q89 0 147 46q79 63 79 191h-224z"/>
<glyph glyph-name="H" horiz-adv-x="722" unicode="H" d="M549 421v297h97v-718h-97v335h-375v-335h-97v718h97v-297h375z"/>
<glyph glyph-name="I" horiz-adv-x="278" unicode="I" d="M188 718v-718h-97v718h97z"/>
<glyph glyph-name="J" horiz-adv-x="500" unicode="J" d="M17 231h91v-50q0 -117 108 -117q115 0 115 124v530h97v-524q0 -60 -18 -103.5t-49.5 -66.5t-66 -33t-73.5 -10q-59 0 -101.5 18t-63.5 47t-30 57t-9 57v71z"/>
<glyph glyph-name="K" horiz-adv-x="667" unicode="K" d="M173 252v-252h-97v718h97v-348l348 348h134l-299 -290l307 -428h-126l-251 360z"/>
<glyph glyph-name="L" d="M173 718v-632h364v-86h-461v718h97z" unicode="L"/>
<glyph glyph-name="M" horiz-adv-x="833" unicode="M" d="M761 0h-94v424q0 5 1 72.5t1 106.5h-2l-202 -603h-96l-202 602h-2q0 -39 1 -106t1 -72v-424h-94v718h139l205 -607h2l204 607h138v-718z"/>
<glyph glyph-name="N" horiz-adv-x="722" unicode="N" d="M552 138v580h94v-718h-109l-365 580h-2v-580h-94v718h115l359 -580h2z"/>
<glyph glyph-name="O" horiz-adv-x="778" unicode="O" d="M739 359q0 -50 -10.5 -99.5t-36 -100.5t-64 -90t-100.5 -63.5t-139 -24.5t-139 24.5t-100.5 63.5t-64 90t-36 100.5t-10.5 99.5t10.5 99.5t36 100.5t64 90t100.5 63.5t139 24.5t139 -24.5t100.5 -63.5t64 -90t36 -100.5t10.5 -99.5zM639 359q0 129 -67.5 210.5 t-182.5 81.5t-182.5 -81.5t-67.5 -210.5t67.5 -210.5t182.5 -81.5t182.5 81.5t67.5 210.5z"/>
<glyph glyph-name="P" horiz-adv-x="667" unicode="P" d="M183 303v-303h-97v718h323q98 0 155.5 -56.5t57.5 -145.5q0 -54 -19.5 -100t-69.5 -79.5t-124 -33.5h-226zM183 635v-249h193q146 0 146 129q0 120 -142 120h-197z"/>
<glyph glyph-name="Q" horiz-adv-x="778" unicode="Q" d="M733 2l-49 -58l-110 85q-75 -48 -185 -48q-77 0 -139 24.5t-100.5 63.5t-64 90t-36 100.5t-10.5 99.5t10.5 99.5t36 100.5t64 90t100.5 63.5t139 24.5t139 -24.5t100.5 -63.5t64 -90t36 -100.5t10.5 -99.5q0 -76 -25.5 -151.5t-78.5 -129.5zM420 148l49 60l91 -71 q79 79 79 222q0 129 -67.5 210.5t-182.5 81.5t-182.5 -81.5t-67.5 -210.5t67.5 -210.5t182.5 -81.5q60 0 106 23z"/>
<glyph glyph-name="R" horiz-adv-x="722" unicode="R" d="M185 635v-244h225q30 0 53.5 5t45.5 17t34.5 38t12.5 64q0 120 -129 120h-242zM185 308v-308h-97v718h332q48 0 87.5 -9t74.5 -30t54.5 -60t19.5 -94q0 -49 -17 -86t-35.5 -53t-47.5 -33q20 -8 31 -14.5t25 -21t21.5 -39t8.5 -60.5l6 -130q1 -31 7.5 -45.5t28.5 -26.5 v-16h-119q-17 53 -17 180q0 26 -4 45.5t-16 40t-39.5 31.5t-68.5 11h-235z"/>
<glyph glyph-name="S" horiz-adv-x="667" unicode="S" d="M600 508h-91q-3 76 -55 111t-123 35q-27 0 -52 -5t-52 -17t-43.5 -39t-16.5 -65q0 -71 85 -91l205 -47q163 -39 163 -192q0 -61 -26 -105.5t-69 -67.5t-89.5 -33.5t-96.5 -10.5q-141 0 -217 69q-42 38 -57.5 81.5t-15.5 100.5h91q0 -89 58.5 -128.5t139.5 -39.5 q31 0 59.5 5t59.5 16.5t50 37.5t19 62q0 55 -31.5 80.5t-121.5 46.5l-147 34q-153 36 -153 169q0 93 62.5 157.5t184.5 64.5q72 0 125 -17t81 -40.5t45.5 -57.5t22 -59t6.5 -55z"/>
<glyph glyph-name="T" horiz-adv-x="611" unicode="T" d="M14 632v86h583v-86h-243v-632h-97v632h-243z"/>
<glyph glyph-name="U" horiz-adv-x="722" unicode="U" d="M547 718h97v-466q0 -117 -74 -194t-215 -77q-136 0 -206 74.5t-70 183.5v479h97v-452q0 -56 16 -96.5t43 -62t57.5 -31t65.5 -9.5q36 0 67.5 9.5t60 30.5t45 61t16.5 96v454z"/>
<glyph glyph-name="V" horiz-adv-x="667" unicode="V" d="M335 106l203 612h109l-262 -718h-103l-262 718h108l205 -612h2z"/>
<glyph glyph-name="W" horiz-adv-x="944" unicode="W" d="M471 595l-166 -595h-102l-187 718h105l134 -584h2l161 584h106l161 -584h2l134 584h107l-189 -718h-102l-164 595h-2z"/>
<glyph glyph-name="X" horiz-adv-x="667" unicode="X" d="M396 368l252 -368h-120l-193 295l-199 -295h-117l257 368l-241 350h122l182 -275l182 275h116z"/>
<glyph glyph-name="Y" horiz-adv-x="667" unicode="Y" d="M382 289v-289h-97v289l-271 429h113l206 -345l206 345h114z"/>
<glyph glyph-name="Z" horiz-adv-x="611" unicode="Z" d="M588 86v-86h-565v81l440 551h-407v86h532v-84l-442 -548h442z"/>
<glyph glyph-name="bracketleft" horiz-adv-x="278" unicode="[" d="M142 651v-776h108v-71h-187v918h187v-71h-108z"/>
<glyph glyph-name="backslash" horiz-adv-x="278" unicode="\" d="M228 -19l-245 756h66l246 -756h-67z"/>
<glyph glyph-name="bracketright" horiz-adv-x="278" unicode="]" d="M136 -125v776h-108v71h187v-918h-187v71h108z"/>
<glyph glyph-name="asciicircum" horiz-adv-x="469" unicode="^" d="M483 264h-77l-171 344l-171 -344h-78l213 424h72z"/>
<glyph glyph-name="underscore" d="M556 -125h-556v50h556v-50z" unicode="_"/>
<glyph glyph-name="grave" horiz-adv-x="333" unicode="`" d="M144 593l-130 141h108l89 -141h-67z"/>
<glyph glyph-name="a" d="M384 181v86q-22 -17 -145 -33q-21 -3 -36.5 -7t-35 -12.5t-30 -25.5t-10.5 -40q0 -91 95 -91q63 0 112.5 36t49.5 87zM143 364h-81q6 174 216 174q17 0 36.5 -2t49.5 -11t52.5 -23.5t39 -43t16.5 -66.5v-301q0 -31 29 -31q9 0 29 4v-64q-38 -10 -48 -10q-53 0 -71.5 21.5 t-21.5 58.5q-78 -85 -189 -85q-72 0 -118 42t-46 109q0 17 2.5 32.5t12 38.5t25.5 40.5t46.5 32.5t72.5 20l145 18q46 4 46 62q0 85 -123 85q-35 0 -59.5 -9.5t-36.5 -27t-16.5 -31t-7.5 -33.5z" unicode="a"/>
<glyph glyph-name="b" d="M426 263q0 196 -143 196q-141 0 -141 -222q0 -93 44.5 -134.5t98.5 -41.5q69 0 105 55.5t36 146.5zM141 0h-83v718h88v-261h2q55 79 151 81q101 0 159.5 -73.5t58.5 -187.5q0 -51 -11.5 -99t-36 -93t-72 -72.5t-110.5 -27.5q-94 0 -144 80h-2v-65z" unicode="b"/>
<glyph glyph-name="c" horiz-adv-x="500" unicode="c" d="M477 347h-85q-18 112 -124 112q-75 0 -109.5 -58t-34.5 -139q0 -201 143 -201q45 0 79.5 32.5t45.5 91.5h85q-4 -35 -16.5 -67t-35.5 -63.5t-65 -50.5t-96 -19q-108 0 -171 73t-63 189q0 129 63.5 210t187.5 81q94 0 142 -56t54 -135z"/>
<glyph glyph-name="d" d="M126 263q0 -91 36 -146.5t105 -55.5q54 0 98.5 41.5t44.5 134.5q0 222 -141 222q-143 0 -143 -196zM499 718v-718h-83v72h-2q-47 -87 -149 -87q-63 0 -110.5 27.5t-72 72.5t-36 93t-11.5 99q0 114 58.5 187.5t159.5 73.5q43 0 78.5 -18t48 -32.5t29.5 -38.5l2 7v262h88z " unicode="d"/>
<glyph glyph-name="e" d="M134 303h291q-10 156 -146 156q-60 0 -102.5 -47t-42.5 -109zM421 164h88q-3 -28 -26.5 -71t-66.5 -72q-54 -36 -142 -36q-108 0 -171 73t-63 189q0 129 63.5 210t187.5 81q111 0 168 -81.5t57 -223.5h-382q0 -83 38.5 -127.5t113.5 -44.5q57 0 94.5 34.5t40.5 68.5z" unicode="e"/>
<glyph glyph-name="f" horiz-adv-x="278" unicode="f" d="M262 450h-88v-450h-88v450h-72v73h72v90q0 115 136 115q12 0 40 -2v-79q-22 2 -36 2q-28 0 -40 -14.5t-12 -46.5v-65h88v-73z"/>
<glyph glyph-name="g" d="M499 523v-480q0 -23 -0.5 -38.5t-5.5 -46t-13.5 -51.5t-26.5 -46.5t-43 -42t-64.5 -27.5t-89.5 -11q-22 0 -43 2.5t-49 12.5t-48.5 26t-37.5 45.5t-22 69.5h88q16 -83 118 -83q42 0 71.5 13t44 30t22.5 45t9.5 45.5t1.5 43.5v7v22h-2v-4q-44 -70 -139 -70 q-63 0 -110.5 27.5t-72 72.5t-36 93t-11.5 99q0 114 58.5 187.5t159.5 73.5q43 0 78.5 -18t48 -32.5t29.5 -38.5h2v74h83zM131 263q0 -91 36 -146.5t105 -55.5q54 0 98.5 41.5t44.5 134.5q0 222 -141 222q-143 0 -143 -196z" unicode="g"/>
<glyph glyph-name="h" d="M491 356v-356h-88v342q0 58 -22.5 87.5t-81.5 29.5q-62 0 -104 -41.5t-42 -132.5v-285h-88v718h88v-265h2q64 85 153 85q26 0 50 -4.5t49 -17t43 -32t29.5 -52.5t11.5 -76z" unicode="h"/>
<glyph glyph-name="i" horiz-adv-x="222" unicode="i" d="M155 618h-88v100h88v-100zM155 523v-523h-88v523h88z"/>
<glyph glyph-name="j" horiz-adv-x="222" unicode="j" d="M155 718v-100h-88v100h88zM155 523v-600q0 -18 -1.5 -31.5t-8.5 -34t-20.5 -34t-40 -23.5t-63.5 -10q-18 0 -37 3v76h18q41 0 53 10.5t12 53.5v590h88z"/>
<glyph glyph-name="k" horiz-adv-x="500" unicode="k" d="M289 328l212 -328h-113l-163 264l-73 -66v-198h-85v718h85v-416l225 221h112z"/>
<glyph glyph-name="l" horiz-adv-x="222" unicode="l" d="M155 718v-718h-88v718h88z"/>
<glyph glyph-name="m" horiz-adv-x="833" unicode="m" d="M65 0v523h83v-74h2q60 89 158 89q33 0 58.5 -8.5t41.5 -24.5t23 -26t16 -26q27 30 44 45t47.5 27.5t68.5 12.5q25 0 49.5 -7.5t51.5 -25t44 -54.5t17 -89v-362h-88v338q0 58 -22 89.5t-75 31.5t-88 -42.5t-35 -97.5v-319h-88v362q0 40 -19 68.5t-63 28.5 q-22 0 -43.5 -7.5t-44 -25.5t-36.5 -54.5t-14 -86.5v-285h-88z"/>
<glyph glyph-name="n" d="M491 356v-356h-88v322q0 71 -25 104t-87 33q-22 0 -43.5 -7.5t-44 -25.5t-36.5 -54.5t-14 -86.5v-285h-88v523h83v-74h2q60 89 158 89q26 0 50 -4.5t49 -17t43 -32t29.5 -52.5t11.5 -76z" unicode="n"/>
<glyph glyph-name="o" d="M126 262q0 -31 6.5 -61.5t22 -64t47.5 -54t76 -20.5t76 20.5t47.5 54t22 64t6.5 61.5t-6.5 61.5t-22 64t-47.5 54t-76 20.5t-76 -20.5t-47.5 -54t-22 -64t-6.5 -61.5zM35 262q0 112 63 194t180 82t180 -82t63 -194t-63 -194t-180 -82t-180 82t-63 194z" unicode="o"/>
<glyph glyph-name="p" d="M58 -207v730h83v-74h2q17 24 29.5 38.5t48 32.5t78.5 18q101 0 159.5 -73.5t58.5 -187.5q0 -51 -11.5 -99t-36 -93t-72 -72.5t-110.5 -27.5q-95 0 -139 70h-2v-262h-88zM142 237q0 -93 44.5 -134.5t98.5 -41.5q69 0 105 55.5t36 146.5q0 196 -143 196q-141 0 -141 -222z " unicode="p"/>
<glyph glyph-name="q" d="M410 237q0 222 -141 222q-143 0 -143 -196q0 -91 36 -146.5t105 -55.5q54 0 98.5 41.5t44.5 134.5zM494 523v-730h-88v262h-2q-44 -70 -139 -70q-63 0 -110.5 27.5t-72 72.5t-36 93t-11.5 99q0 114 58.5 187.5t159.5 73.5q43 0 78.5 -18t48 -32.5t29.5 -38.5h2v74h83z " unicode="q"/>
<glyph glyph-name="r" horiz-adv-x="333" unicode="r" d="M165 304v-304h-88v523h83v-87h2q59 102 147 102q13 0 23 -3v-91h-33q-60 0 -97 -40.5t-37 -99.5z"/>
<glyph glyph-name="s" horiz-adv-x="500" unicode="s" d="M447 374h-85q-3 88 -124 88q-19 0 -39.5 -4t-42.5 -22t-22 -48t19.5 -43t75.5 -27l88 -22q81 -20 114 -52t33 -86q0 -79 -58 -126t-149 -47q-59 0 -102.5 13.5t-65.5 32t-35.5 46.5t-17 47t-4.5 44h85q1 -20 6 -35t18 -33.5t42 -28.5t73 -10q51 0 85.5 21t34.5 62 q0 30 -22 45t-82 30l-102 25q-121 30 -121 127q0 81 57 124t141 43q53 0 92.5 -15t59 -35t31.5 -45.5t14.5 -41t2.5 -27.5z"/>
<glyph glyph-name="t" horiz-adv-x="278" unicode="t" d="M257 450h-84v-340q0 -41 53 -41h31v-69q-13 -1 -28.5 -3t-24.5 -3t-13 -1q-60 0 -83 29.5t-23 82.5v345h-71v73h71v146h88v-146h84v-73z"/>
<glyph glyph-name="u" d="M489 0h-83v76l-2 2q-29 -48 -67 -70.5t-99 -22.5q-69 0 -119.5 38.5t-50.5 123.5v376h88v-347q0 -115 101 -115q40 0 69 16t45 43t23 55.5t7 59.5v288h88v-523z" unicode="u"/>
<glyph glyph-name="v" horiz-adv-x="500" unicode="v" d="M248 97l148 426h96l-199 -523h-94l-191 523h102l136 -426h2z"/>
<glyph glyph-name="w" horiz-adv-x="722" unicode="w" d="M358 405l-102 -405h-91l-151 523h96l100 -411h2l101 411h98l102 -411h2l106 411h88l-152 -523h-91l-106 405h-2z"/>
<glyph glyph-name="x" horiz-adv-x="500" unicode="x" d="M306 269l184 -269h-112l-130 197l-126 -197h-111l184 269l-175 254h113l121 -184l121 184h108z"/>
<glyph glyph-name="y" horiz-adv-x="500" unicode="y" d="M252 97l140 426h97q-132 -371 -188 -513q-24 -61 -36 -91t-29 -60.5t-26.5 -41t-28.5 -20t-36 -10.5t-49 -1q-9 0 -37 8v80q25 -9 53 -9q33 0 46.5 18.5t46.5 102.5l-194 537h100l139 -426h2z"/>
<glyph glyph-name="z" horiz-adv-x="500" unicode="z" d="M460 451l-312 -378h321v-73h-438v69l315 381h-291v73h405v-72z"/>
<glyph glyph-name="braceleft" horiz-adv-x="334" unicode="{" d="M42 234v60q35 0 58 36t23 91v172q0 59 30.5 94t71.5 35h67v-65h-44q-46 0 -46 -82v-170q-4 -64 -33.5 -99t-54.5 -41v-2q10 -3 22 -11t27 -23.5t26 -44t13 -64.5v-169q0 -82 46 -82h44v-65h-67q-41 0 -71.5 35t-30.5 94v171q0 56 -23 93t-58 37z"/>
<glyph glyph-name="bar" horiz-adv-x="260" unicode="|" d="M94 -19v756h73v-756h-73z"/>
<glyph glyph-name="braceright" horiz-adv-x="334" unicode="}" d="M292 294v-60q-35 0 -58 -37t-23 -93v-171q0 -59 -30.5 -94t-71.5 -35h-67v65h44q46 0 46 82v169q2 36 13 64.5t26 44t27 23.5t22 11v2q-25 6 -54.5 41t-33.5 99v170q0 82 -46 82h-44v65h67q41 0 71.5 -35t30.5 -94v-172q0 -55 23 -91t58 -36z"/>
<glyph glyph-name="asciitilde" horiz-adv-x="584" unicode="~" d="M487 326l36 -56q-54 -86 -125 -86q-42 0 -102 33q-62 35 -115 35q-51 0 -84 -72l-36 56q45 86 125 86q39 0 111 -32q78 -36 102 -36q19 0 36.5 12t27 24.5t24.5 35.5z"/>
<glyph glyph-name="uni00A0" horiz-adv-x="278" unicode=" "/>
<glyph glyph-name="exclamdown" horiz-adv-x="333" unicode="¡" d="M142 352h49l24 -310v-237h-97v237zM118 421v102h97v-102h-97z"/>
<glyph glyph-name="cent" d="M509 345h-82q-20 84 -68 102l-110 -386q13 -4 35 -4q53 0 90 27t54 99h85q-4 -31 -17 -63t-37.5 -65t-69 -53.5t-102.5 -20.5q-16 0 -60 7l-31 -103h-41l34 114q-62 30 -100 92t-38 154q0 140 64.5 216.5t181.5 76.5q28 0 43 -6l26 91h39l-25 -100q40 -11 80.5 -54.5 t48.5 -123.5zM212 78l108 381q-8 3 -29 3q-68 0 -110 -54t-42 -163q0 -54 20.5 -100.5t52.5 -66.5z" unicode="¢"/>
<glyph glyph-name="sterling" d="M204 380h167v-63h-138q9 -34 9 -66q0 -45 -30.5 -95.5t-89.5 -89.5l1 -1q65 37 131 37q34 0 92 -17.5t76 -17.5q19 0 41.5 9.5t34.5 21.5l41 -66q-63 -48 -127 -48q-28 0 -99 22.5t-110 22.5q-53 0 -117 -40l-49 69q68 45 95 97t27 90q0 29 -19 72h-107v63h69 q-43 88 -43 134q0 34 12 67.5t38.5 65.5t77 51.5t119.5 19.5q106 0 160.5 -63t54.5 -150v-15h-88v9q0 63 -38 103t-99 40q-73 0 -108 -41t-35 -82q0 -46 51 -139z" unicode="£"/>
<glyph glyph-name="currency" d="M106 351q0 -73 50.5 -126t121.5 -53t121.5 53t50.5 126q0 71 -50.5 124t-121.5 53t-121.5 -53t-50.5 -124zM480 603l48 -48l-55 -54q50 -57 50 -150q0 -89 -50 -151l54 -56l-45 -45l-55 58q-59 -55 -149 -55t-149 55l-55 -58l-45 45l54 56q-50 62 -50 151q0 93 50 150 l-55 54l48 48l57 -56q59 51 145 51t145 -51z" unicode="¤"/>
<glyph glyph-name="yen" d="M42 327v57h154l-193 304h100l175 -295l175 295h100l-193 -304h155v-57h-193v-85h193v-57h-193v-185h-88v185h-192v57h192v85h-192z" unicode="¥"/>
<glyph glyph-name="brokenbar" horiz-adv-x="260" unicode="¦" d="M94 460v277h73v-277h-73zM94 -19v294h73v-294h-73z"/>
<glyph glyph-name="section" d="M367 321l-174 107q-67 -34 -67 -97q0 -57 45 -85l189 -122q34 23 51.5 44.5t17.5 56.5q0 58 -62 96zM460 554h-85q-1 15 -2 24t-7 27t-15.5 28.5t-29 19t-45.5 8.5q-35 0 -63.5 -20t-28.5 -61q0 -46 73 -90l146 -86q53 -31 81 -67t28 -93t-28 -93.5t-75 -66.5 q52 -55 52 -114q0 -73 -56 -117t-125 -44q-89 0 -143 46.5t-54 141.5h88q0 -112 97 -112q17 0 32.5 3t33.5 11t28.5 26t10.5 43q0 43 -55 79l-210 140q-65 43 -65 122q0 59 25 94t75 64q-26 29 -36.5 50t-10.5 50q0 65 45 117.5t135 52.5q33 0 63 -8t58.5 -27.5t45.5 -57 t17 -90.5z" unicode="§"/>
<glyph glyph-name="dieresis" horiz-adv-x="333" unicode="¨" d="M293 706v-102h-91v102h91zM131 706v-102h-91v102h91z"/>
<glyph glyph-name="copyright" horiz-adv-x="737" unicode="©" d="M501 289h68q-14 -74 -65 -117.5t-121 -43.5q-100 0 -161.5 66.5t-61.5 166.5q0 102 59.5 166.5t159.5 64.5q74 0 126.5 -41.5t62.5 -115.5h-67q-9 42 -41.5 66.5t-79.5 24.5q-68 0 -106 -46t-38 -118q0 -70 40.5 -119t106.5 -49q47 0 79 26.5t39 68.5zM62 360 q0 -136 88.5 -226t219.5 -90q129 0 217.5 90t88.5 226q0 134 -88.5 224t-217.5 90q-130 0 -219 -90t-89 -224zM370 -19q-158 0 -271 108.5t-113 270.5q0 161 113 269t271 108q157 0 269.5 -108.5t112.5 -268.5q0 -162 -112.5 -270.5t-269.5 -108.5z"/>
<glyph glyph-name="ordfeminine" horiz-adv-x="370" unicode="ª" d="M35 352h296v-48h-296v48zM145 457q42 0 73.5 21.5t29.5 52.5v39q-10 -10 -92 -20q-69 -7 -69 -43q0 -50 58 -50zM346 454v-44q-25 -5 -32 -5q-34 0 -46 13t-14 38q-51 -51 -123 -51q-47 0 -77 25.5t-30 65.5q0 89 112 102l88 10q24 4 24 38q0 39 -76 39q-70 0 -77 -53 h-54q4 105 141 105q15 0 32 -2.5t41 -10.5t39 -27.5t15 -47.5v-178q0 -19 18 -19q5 0 19 2z"/>
<glyph glyph-name="guillemotleft" d="M459 196v-88l-157 123v92l157 123v-88l-105 -81zM254 196v-88l-157 123v92l157 123v-88l-105 -81z" unicode="«"/>
<glyph glyph-name="logicalnot" horiz-adv-x="584" unicode="¬" d="M472 108v209h-433v73h506v-282h-73z"/>
<glyph glyph-name="uni00AD" horiz-adv-x="333" unicode="­" d="M289 322v-90h-245v90h245z"/>
<glyph glyph-name="registered" horiz-adv-x="737" unicode="®" d="M290 386h79q25 0 40.5 2t32.5 8.5t25 21.5t8 39q0 64 -95 64h-90v-135zM290 330v-189h-66v436h166q78 0 116 -30t38 -94q0 -106 -113 -120l124 -192h-74l-115 189h-76zM62 360q0 -136 88.5 -226t219.5 -90q129 0 217.5 90t88.5 226q0 134 -88.5 224t-217.5 90 q-130 0 -219 -90t-89 -224zM370 -19q-158 0 -271 108.5t-113 270.5q0 161 113 269t271 108q157 0 269.5 -108.5t112.5 -268.5q0 -162 -112.5 -270.5t-269.5 -108.5z"/>
<glyph glyph-name="macron" horiz-adv-x="333" unicode="¯" d="M323 684v-57h-313v57h313z"/>
<glyph glyph-name="degree" horiz-adv-x="400" unicode="°" d="M346 557q0 -62 -42 -104t-104 -42t-104 42t-42 104t42 104t104 42t104 -42t42 -104zM200 660q-39 0 -68.5 -31.5t-29.5 -71.5t29.5 -71.5t68.5 -31.5t68.5 31.5t29.5 71.5t-29.5 71.5t-68.5 31.5z"/>
<glyph glyph-name="plusminus" horiz-adv-x="584" unicode="±" d="M39 0v73h506v-73h-506zM256 345v161h73v-161h216v-73h-216v-161h-73v161h-217v73h217z"/>
<glyph glyph-name="twosuperior" horiz-adv-x="333" unicode="²" d="M79 552h-60q0 39 12 68t29 44.5t40.5 24.5t41 11.5t35.5 2.5q63 0 104.5 -34.5t41.5 -91.5q0 -52 -29.5 -82t-89.5 -60l-45 -23q-55 -29 -80 -70h244v-61h-319q5 112 104 167l60 33q28 15 36.5 20.5t24 18t20 26t4.5 33.5v6q0 25 -20 42.5t-64 17.5q-83 0 -90 -93z"/>
<glyph glyph-name="threesuperior" horiz-adv-x="333" unicode="³" d="M5 410h68q1 -16 4 -28t11.5 -25.5t26 -21t44.5 -7.5q96 0 96 71q0 20 -7.5 34.5t-17 21.5t-26 11t-26.5 4.5t-26 0.5h-23v51h27q82 0 82 67q0 56 -80 56q-76 0 -81 -80h-61q0 56 34.5 97t116.5 41q65 0 103 -31t38 -80q0 -37 -18 -59t-41 -28v-2q76 -20 76 -97 q0 -57 -41.5 -96.5t-125.5 -39.5q-46 0 -84 19q-61 29 -69 121z"/>
<glyph glyph-name="acute" horiz-adv-x="333" unicode="´" d="M319 734l-130 -141h-67l89 141h108z"/>
<glyph glyph-name="mu" horiz-adv-x="578" unicode="µ" d="M489 0h-83v76l-2 2q-29 -48 -67 -70.5t-99 -22.5q-54 0 -80 34h-2v-226h-88v354v376h88v-347q0 -115 101 -115q40 0 69 16t45 43t23 55.5t7 59.5v288h88v-523z"/>
<glyph glyph-name="paragraph" horiz-adv-x="537" unicode="¶" d="M232 -173v517q-95 0 -154.5 52.5t-59.5 131.5q0 96 61 143t170 47h248v-891h-73v831h-119v-831h-73z"/>
<glyph glyph-name="periodcentered" horiz-adv-x="278" unicode="·" d="M140 315q24 0 43 -18.5t19 -44.5q0 -25 -18.5 -43.5t-44.5 -18.5q-25 0 -43.5 18.5t-18.5 43.5q0 27 19 45t44 18z"/>
<glyph glyph-name="cedilla" horiz-adv-x="333" unicode="¸" d="M79 -86l64 86h47l-46 -62q22 4 31 4q44 0 64 -23t20 -52q0 -40 -32 -66t-86 -26q-44 0 -96 22l17 40q38 -15 65 -15q56 0 56 42q0 20 -16 29.5t-32 9.5q-11 0 -39 -8z"/>
<glyph glyph-name="onesuperior" horiz-adv-x="333" unicode="¹" d="M151 577h-108v46q61 4 85.5 18t37.5 62h56v-422h-71v296z"/>
<glyph glyph-name="ordmasculine" horiz-adv-x="365" unicode="º" d="M35 352h296v-48h-296v48zM274 571q0 18 -3.5 35.5t-12 36.5t-28 30.5t-47.5 11.5t-47.5 -11.5t-28 -30.5t-12 -36.5t-3.5 -35.5t3.5 -35.5t12 -36.5t28 -30.5t47.5 -11.5t47.5 11.5t28 30.5t12 36.5t3.5 35.5zM341 571q0 -89 -46 -127.5t-112 -38.5t-112 38.5t-46 127.5 t46 127.5t112 38.5t112 -38.5t46 -127.5z"/>
<glyph glyph-name="guillemotright" d="M459 231l-157 -123v88l105 81l-105 81v88l157 -123v-92zM254 231l-157 -123v88l105 81l-105 81v88l157 -123v-92z" unicode="»"/>
<glyph glyph-name="onequarter" horiz-adv-x="834" unicode="¼" d="M181 580h-108v43q61 4 85.5 18t37.5 62h53v-422h-68v299zM653 703l-442 -722h-57l442 722h57zM625 152v187h-2l-142 -187h144zM419 94v60l206 268h64v-270h67v-58h-67v-94h-64v94h-206z"/>
<glyph glyph-name="onehalf" horiz-adv-x="834" unicode="½" d="M529 271h-60q0 39 12 68t29 44.5t40.5 24.5t41 11.5t35.5 2.5q63 0 104.5 -34.5t41.5 -91.5q0 -52 -29.5 -82t-89.5 -60l-45 -23q-55 -29 -80 -70h244v-61h-319q5 112 104 167l60 33q28 15 36.5 20.5t24 18t20 26t4.5 33.5v6q0 25 -20 42.5t-64 17.5q-83 0 -90 -93z M151 577h-108v46q61 4 85.5 18t37.5 62h56v-422h-71v296zM617 703l-442 -722h-57l442 722h57z"/>
<glyph glyph-name="threequarters" horiz-adv-x="834" unicode="¾" d="M45 410h68q1 -16 4 -28t11.5 -25.5t26 -21t44.5 -7.5q96 0 96 71q0 20 -7.5 34.5t-17 21.5t-26 11t-26.5 4.5t-26 0.5h-23v51h27q82 0 82 67q0 56 -80 56q-76 0 -81 -80h-61q0 56 34.5 97t116.5 41q65 0 103 -31t38 -80q0 -37 -18 -59t-41 -28v-2q76 -20 76 -97 q0 -57 -41.5 -96.5t-125.5 -39.5q-46 0 -84 19q-61 29 -69 121zM712 703l-442 -722h-57l442 722h57zM677 339l-142 -187h144v187h-2zM473 94v60l206 268h64v-270h67v-58h-67v-94h-64v94h-206z"/>
<glyph glyph-name="questiondown" horiz-adv-x="611" unicode="¿" d="M265 423v102h97v-102h-97zM439 33h88q-2 -45 -5.5 -69t-21.5 -58.5t-52 -60.5q-59 -46 -145 -46q-89 0 -150.5 52t-61.5 144q0 47 20 80t74 85q37 36 51.5 53t25 46.5t10.5 73.5v10h88q0 -80 -18.5 -117.5t-76.5 -97.5q-53 -55 -66.5 -76.5t-13.5 -62.5q0 -18 5.5 -36 t18 -36.5t38 -30t59.5 -11.5q133 0 133 158z"/>
<glyph glyph-name="Agrave" horiz-adv-x="667" unicode="À" d="M311 788l-130 141h108l89 -141h-67zM219 295h223l-106 316h-2zM477 209h-288l-75 -209h-100l270 718h110l260 -718h-106z"/>
<glyph glyph-name="Aacute" horiz-adv-x="667" unicode="Á" d="M486 929l-130 -141h-67l89 141h108zM219 295h223l-106 316h-2zM477 209h-288l-75 -209h-100l270 718h110l260 -718h-106z"/>
<glyph glyph-name="Acircumflex" horiz-adv-x="667" unicode="Â" d="M333 881l-66 -93h-79l99 141h93l99 -141h-80zM219 295h223l-106 316h-2zM477 209h-288l-75 -209h-100l270 718h110l260 -718h-106z"/>
<glyph glyph-name="Atilde" horiz-adv-x="667" unicode="Ã" d="M454 917h50q-5 -47 -32 -78t-68 -31q-20 0 -59 13l-26 9q-44 15 -61 15q-33 0 -47 -44h-48q15 107 104 107q29 0 68 -15l22 -9q31 -13 47 -13q18 0 29.5 8.5t14.5 16.5t6 21zM219 295h223l-106 316h-2zM477 209h-288l-75 -209h-100l270 718h110l260 -718h-106z"/>
<glyph glyph-name="Adieresis" horiz-adv-x="667" unicode="Ä" d="M460 901v-102h-91v102h91zM298 901v-102h-91v102h91zM219 295h223l-106 316h-2zM477 209h-288l-75 -209h-100l270 718h110l260 -718h-106z"/>
<glyph glyph-name="Aring" horiz-adv-x="667" unicode="Å" d="M282 839q0 -22 15 -37t37 -15t37 15t15 37t-15 37t-37 15t-37 -15t-15 -37zM334 931q40 0 66 -26t26 -66t-26 -66t-66 -26t-66 26t-26 66t26 66t66 26zM219 295h223l-106 316h-2zM477 209h-288l-75 -209h-100l270 718h110l260 -718h-106z"/>
<glyph glyph-name="AE" horiz-adv-x="1000" unicode="Æ" d="M457 295v337h-97l-133 -337h230zM192 209l-79 -209h-105l292 718h644v-86h-390v-220h356v-86h-356v-240h397v-86h-494v209h-265z"/>
<glyph glyph-name="Ccedilla" horiz-adv-x="722" unicode="Ç" d="M265 -203l17 40q38 -15 65 -15q56 0 56 42q0 20 -16 29.5t-32 9.5q-11 0 -39 -8l-17 19l51 69q-61 2 -114 24.5t-97 66.5t-69.5 118.5t-25.5 170.5q0 168 90 271t245 103q131 0 207.5 -68.5t87.5 -166.5h-94q-10 45 -32.5 76t-53 46t-58 21t-57.5 6q-102 0 -168.5 -74.5 t-66.5 -210.5q0 -299 238 -299q28 0 55 8t58 27.5t55.5 61t36.5 100.5h94q-10 -67 -36 -118.5t-56 -80.5t-68.5 -48t-66.5 -25.5t-57 -8.5l-33 -45q22 4 31 4q44 0 64 -23t20 -52q0 -40 -32 -66t-86 -26q-44 0 -96 22z"/>
<glyph glyph-name="Egrave" horiz-adv-x="667" unicode="È" d="M311 788l-130 141h108l89 -141h-67zM616 86v-86h-530v718h523v-86h-426v-220h393v-86h-393v-240h433z"/>
<glyph glyph-name="Eacute" horiz-adv-x="667" unicode="É" d="M486 929l-130 -141h-67l89 141h108zM616 86v-86h-530v718h523v-86h-426v-220h393v-86h-393v-240h433z"/>
<glyph glyph-name="Ecircumflex" horiz-adv-x="667" unicode="Ê" d="M333 881l-66 -93h-79l99 141h93l99 -141h-80zM616 86v-86h-530v718h523v-86h-426v-220h393v-86h-393v-240h433z"/>
<glyph glyph-name="Edieresis" horiz-adv-x="667" unicode="Ë" d="M460 901v-102h-91v102h91zM298 901v-102h-91v102h91zM616 86v-86h-530v718h523v-86h-426v-220h393v-86h-393v-240h433z"/>
<glyph glyph-name="Igrave" horiz-adv-x="278" unicode="Ì" d="M117 788l-130 141h108l89 -141h-67zM188 718v-718h-97v718h97z"/>
<glyph glyph-name="Iacute" horiz-adv-x="278" unicode="Í" d="M292 929l-130 -141h-67l89 141h108zM188 718v-718h-97v718h97z"/>
<glyph glyph-name="Icircumflex" horiz-adv-x="278" unicode="Î" d="M139 881l-66 -93h-79l99 141h93l99 -141h-80zM188 718v-718h-97v718h97z"/>
<glyph glyph-name="Idieresis" horiz-adv-x="278" unicode="Ï" d="M266 901v-102h-91v102h91zM104 901v-102h-91v102h91zM188 718v-718h-97v718h97z"/>
<glyph glyph-name="Eth" horiz-adv-x="722" unicode="Ð" d="M0 326v86h81v306h291q139 0 220.5 -96t81.5 -253q0 -19 -1.5 -40t-8.5 -59t-18.5 -72t-35 -71.5t-54.5 -64.5t-79.5 -44.5t-108.5 -17.5h-287v326h-81zM370 412v-86h-192v-243h188q96 0 152 73t56 207q0 133 -57 202.5t-158 69.5h-181v-223h192z"/>
<glyph glyph-name="Ntilde" horiz-adv-x="722" unicode="Ñ" d="M492 917h50q-5 -47 -32 -78t-68 -31q-20 0 -59 13l-26 9q-44 15 -61 15q-33 0 -47 -44h-48q15 107 104 107q29 0 68 -15l22 -9q31 -13 47 -13q18 0 29.5 8.5t14.5 16.5t6 21zM552 138v580h94v-718h-109l-365 580h-2v-580h-94v718h115l359 -580h2z"/>
<glyph glyph-name="Ograve" horiz-adv-x="778" unicode="Ò" d="M367 788l-130 141h108l89 -141h-67zM739 359q0 -50 -10.5 -99.5t-36 -100.5t-64 -90t-100.5 -63.5t-139 -24.5t-139 24.5t-100.5 63.5t-64 90t-36 100.5t-10.5 99.5t10.5 99.5t36 100.5t64 90t100.5 63.5t139 24.5t139 -24.5t100.5 -63.5t64 -90t36 -100.5t10.5 -99.5z M639 359q0 129 -67.5 210.5t-182.5 81.5t-182.5 -81.5t-67.5 -210.5t67.5 -210.5t182.5 -81.5t182.5 81.5t67.5 210.5z"/>
<glyph glyph-name="Oacute" horiz-adv-x="778" unicode="Ó" d="M542 929l-130 -141h-67l89 141h108zM739 359q0 -50 -10.5 -99.5t-36 -100.5t-64 -90t-100.5 -63.5t-139 -24.5t-139 24.5t-100.5 63.5t-64 90t-36 100.5t-10.5 99.5t10.5 99.5t36 100.5t64 90t100.5 63.5t139 24.5t139 -24.5t100.5 -63.5t64 -90t36 -100.5t10.5 -99.5z M639 359q0 129 -67.5 210.5t-182.5 81.5t-182.5 -81.5t-67.5 -210.5t67.5 -210.5t182.5 -81.5t182.5 81.5t67.5 210.5z"/>
<glyph glyph-name="Ocircumflex" horiz-adv-x="778" unicode="Ô" d="M389 881l-66 -93h-79l99 141h93l99 -141h-80zM739 359q0 -50 -10.5 -99.5t-36 -100.5t-64 -90t-100.5 -63.5t-139 -24.5t-139 24.5t-100.5 63.5t-64 90t-36 100.5t-10.5 99.5t10.5 99.5t36 100.5t64 90t100.5 63.5t139 24.5t139 -24.5t100.5 -63.5t64 -90t36 -100.5 t10.5 -99.5zM639 359q0 129 -67.5 210.5t-182.5 81.5t-182.5 -81.5t-67.5 -210.5t67.5 -210.5t182.5 -81.5t182.5 81.5t67.5 210.5z"/>
<glyph glyph-name="Otilde" horiz-adv-x="778" unicode="Õ" d="M510 917h50q-5 -47 -32 -78t-68 -31q-20 0 -59 13l-26 9q-44 15 -61 15q-33 0 -47 -44h-48q15 107 104 107q29 0 68 -15l22 -9q31 -13 47 -13q18 0 29.5 8.5t14.5 16.5t6 21zM739 359q0 -50 -10.5 -99.5t-36 -100.5t-64 -90t-100.5 -63.5t-139 -24.5t-139 24.5 t-100.5 63.5t-64 90t-36 100.5t-10.5 99.5t10.5 99.5t36 100.5t64 90t100.5 63.5t139 24.5t139 -24.5t100.5 -63.5t64 -90t36 -100.5t10.5 -99.5zM639 359q0 129 -67.5 210.5t-182.5 81.5t-182.5 -81.5t-67.5 -210.5t67.5 -210.5t182.5 -81.5t182.5 81.5t67.5 210.5z"/>
<glyph glyph-name="Odieresis" horiz-adv-x="778" unicode="Ö" d="M516 901v-102h-91v102h91zM354 901v-102h-91v102h91zM739 359q0 -50 -10.5 -99.5t-36 -100.5t-64 -90t-100.5 -63.5t-139 -24.5t-139 24.5t-100.5 63.5t-64 90t-36 100.5t-10.5 99.5t10.5 99.5t36 100.5t64 90t100.5 63.5t139 24.5t139 -24.5t100.5 -63.5t64 -90 t36 -100.5t10.5 -99.5zM639 359q0 129 -67.5 210.5t-182.5 81.5t-182.5 -81.5t-67.5 -210.5t67.5 -210.5t182.5 -81.5t182.5 81.5t67.5 210.5z"/>
<glyph glyph-name="multiply" horiz-adv-x="584" unicode="×" d="M241 253l-202 202l52 51l201 -201l202 201l51 -51l-201 -202l201 -202l-51 -51l-202 201l-202 -201l-51 51z"/>
<glyph glyph-name="Oslash" horiz-adv-x="778" unicode="Ø" d="M740 707l-83 -91q82 -105 82 -257q0 -50 -10.5 -99.5t-36 -100.5t-64 -90t-100.5 -63.5t-139 -24.5q-146 0 -236 87l-80 -87l-32 28l83 90q-85 106 -85 260q0 50 10.5 99.5t36 100.5t64 90t100.5 63.5t139 24.5q150 0 239 -89l81 89zM190 171l374 407q-67 73 -175 73 q-115 0 -182.5 -81.5t-67.5 -210.5q0 -109 51 -188zM590 543l-373 -405q66 -71 172 -71q115 0 182.5 81.5t67.5 210.5q0 111 -49 184z"/>
<glyph glyph-name="Ugrave" horiz-adv-x="722" unicode="Ù" d="M339 788l-130 141h108l89 -141h-67zM547 718h97v-466q0 -117 -74 -194t-215 -77q-136 0 -206 74.5t-70 183.5v479h97v-452q0 -56 16 -96.5t43 -62t57.5 -31t65.5 -9.5q36 0 67.5 9.5t60 30.5t45 61t16.5 96v454z"/>
<glyph glyph-name="Uacute" horiz-adv-x="722" unicode="Ú" d="M514 929l-130 -141h-67l89 141h108zM547 718h97v-466q0 -117 -74 -194t-215 -77q-136 0 -206 74.5t-70 183.5v479h97v-452q0 -56 16 -96.5t43 -62t57.5 -31t65.5 -9.5q36 0 67.5 9.5t60 30.5t45 61t16.5 96v454z"/>
<glyph glyph-name="Ucircumflex" horiz-adv-x="722" unicode="Û" d="M361 881l-66 -93h-79l99 141h93l99 -141h-80zM547 718h97v-466q0 -117 -74 -194t-215 -77q-136 0 -206 74.5t-70 183.5v479h97v-452q0 -56 16 -96.5t43 -62t57.5 -31t65.5 -9.5q36 0 67.5 9.5t60 30.5t45 61t16.5 96v454z"/>
<glyph glyph-name="Udieresis" horiz-adv-x="722" unicode="Ü" d="M488 901v-102h-91v102h91zM326 901v-102h-91v102h91zM547 718h97v-466q0 -117 -74 -194t-215 -77q-136 0 -206 74.5t-70 183.5v479h97v-452q0 -56 16 -96.5t43 -62t57.5 -31t65.5 -9.5q36 0 67.5 9.5t60 30.5t45 61t16.5 96v454z"/>
<glyph glyph-name="Yacute" horiz-adv-x="667" unicode="Ý" d="M486 929l-130 -141h-67l89 141h108zM382 289v-289h-97v289l-271 429h113l206 -345l206 345h114z"/>
<glyph glyph-name="Thorn" horiz-adv-x="667" unicode="Þ" d="M86 0v718h97v-119h226q98 0 155.5 -56.5t57.5 -145.5q0 -54 -19.5 -100t-69.5 -79.5t-124 -33.5h-226v-184h-97zM183 516v-249h193q146 0 146 129q0 120 -142 120h-197z"/>
<glyph glyph-name="germandbls" horiz-adv-x="611" unicode="ß" d="M67 0v532q0 89 60.5 142.5t170.5 53.5t174.5 -49t64.5 -131q0 -34 -8.5 -61t-25 -45t-25 -25t-23.5 -17q52 -14 84 -63.5t32 -98.5q0 -127 -69 -190t-183 -63q-20 0 -53 7v75q22 -3 44 -3q170 0 170 150q0 140 -170 140q-23 0 -39 -4v79q18 -2 23 -2q155 0 155 113 q0 50 -39.5 81t-112.5 31q-80 0 -111 -36t-31 -106v-510h-88z"/>
<glyph glyph-name="agrave" d="M256 593l-130 141h108l89 -141h-67zM384 181v86q-22 -17 -145 -33q-21 -3 -36.5 -7t-35 -12.5t-30 -25.5t-10.5 -40q0 -91 95 -91q63 0 112.5 36t49.5 87zM143 364h-81q6 174 216 174q17 0 36.5 -2t49.5 -11t52.5 -23.5t39 -43t16.5 -66.5v-301q0 -31 29 -31q9 0 29 4 v-64q-38 -10 -48 -10q-53 0 -71.5 21.5t-21.5 58.5q-78 -85 -189 -85q-72 0 -118 42t-46 109q0 17 2.5 32.5t12 38.5t25.5 40.5t46.5 32.5t72.5 20l145 18q46 4 46 62q0 85 -123 85q-35 0 -59.5 -9.5t-36.5 -27t-16.5 -31t-7.5 -33.5z" unicode="à"/>
<glyph glyph-name="aacute" d="M431 734l-130 -141h-67l89 141h108zM384 181v86q-22 -17 -145 -33q-21 -3 -36.5 -7t-35 -12.5t-30 -25.5t-10.5 -40q0 -91 95 -91q63 0 112.5 36t49.5 87zM143 364h-81q6 174 216 174q17 0 36.5 -2t49.5 -11t52.5 -23.5t39 -43t16.5 -66.5v-301q0 -31 29 -31q9 0 29 4 v-64q-38 -10 -48 -10q-53 0 -71.5 21.5t-21.5 58.5q-78 -85 -189 -85q-72 0 -118 42t-46 109q0 17 2.5 32.5t12 38.5t25.5 40.5t46.5 32.5t72.5 20l145 18q46 4 46 62q0 85 -123 85q-35 0 -59.5 -9.5t-36.5 -27t-16.5 -31t-7.5 -33.5z" unicode="á"/>
<glyph glyph-name="acircumflex" d="M278 686l-66 -93h-79l99 141h93l99 -141h-80zM384 181v86q-22 -17 -145 -33q-21 -3 -36.5 -7t-35 -12.5t-30 -25.5t-10.5 -40q0 -91 95 -91q63 0 112.5 36t49.5 87zM143 364h-81q6 174 216 174q17 0 36.5 -2t49.5 -11t52.5 -23.5t39 -43t16.5 -66.5v-301q0 -31 29 -31 q9 0 29 4v-64q-38 -10 -48 -10q-53 0 -71.5 21.5t-21.5 58.5q-78 -85 -189 -85q-72 0 -118 42t-46 109q0 17 2.5 32.5t12 38.5t25.5 40.5t46.5 32.5t72.5 20l145 18q46 4 46 62q0 85 -123 85q-35 0 -59.5 -9.5t-36.5 -27t-16.5 -31t-7.5 -33.5z" unicode="â"/>
<glyph glyph-name="atilde" d="M389 722h50q-5 -47 -32 -78t-68 -31q-20 0 -59 13l-26 9q-44 15 -61 15q-33 0 -47 -44h-48q15 107 104 107q29 0 68 -15l22 -9q31 -13 47 -13q18 0 29.5 8.5t14.5 16.5t6 21zM384 181v86q-22 -17 -145 -33q-21 -3 -36.5 -7t-35 -12.5t-30 -25.5t-10.5 -40q0 -91 95 -91 q63 0 112.5 36t49.5 87zM143 364h-81q6 174 216 174q17 0 36.5 -2t49.5 -11t52.5 -23.5t39 -43t16.5 -66.5v-301q0 -31 29 -31q9 0 29 4v-64q-38 -10 -48 -10q-53 0 -71.5 21.5t-21.5 58.5q-78 -85 -189 -85q-72 0 -118 42t-46 109q0 17 2.5 32.5t12 38.5t25.5 40.5 t46.5 32.5t72.5 20l145 18q46 4 46 62q0 85 -123 85q-35 0 -59.5 -9.5t-36.5 -27t-16.5 -31t-7.5 -33.5z" unicode="ã"/>
<glyph glyph-name="adieresis" d="M405 706v-102h-91v102h91zM243 706v-102h-91v102h91zM384 181v86q-22 -17 -145 -33q-21 -3 -36.5 -7t-35 -12.5t-30 -25.5t-10.5 -40q0 -91 95 -91q63 0 112.5 36t49.5 87zM143 364h-81q6 174 216 174q17 0 36.5 -2t49.5 -11t52.5 -23.5t39 -43t16.5 -66.5v-301 q0 -31 29 -31q9 0 29 4v-64q-38 -10 -48 -10q-53 0 -71.5 21.5t-21.5 58.5q-78 -85 -189 -85q-72 0 -118 42t-46 109q0 17 2.5 32.5t12 38.5t25.5 40.5t46.5 32.5t72.5 20l145 18q46 4 46 62q0 85 -123 85q-35 0 -59.5 -9.5t-36.5 -27t-16.5 -31t-7.5 -33.5z" unicode="ä"/>
<glyph glyph-name="aring" d="M227 664q0 -22 15 -37t37 -15t37 15t15 37t-15 37t-37 15t-37 -15t-15 -37zM279 756q40 0 66 -26t26 -66t-26 -66t-66 -26t-66 26t-26 66t26 66t66 26zM384 181v86q-22 -17 -145 -33q-21 -3 -36.5 -7t-35 -12.5t-30 -25.5t-10.5 -40q0 -91 95 -91q63 0 112.5 36t49.5 87z M143 364h-81q6 174 216 174q17 0 36.5 -2t49.5 -11t52.5 -23.5t39 -43t16.5 -66.5v-301q0 -31 29 -31q9 0 29 4v-64q-38 -10 -48 -10q-53 0 -71.5 21.5t-21.5 58.5q-78 -85 -189 -85q-72 0 -118 42t-46 109q0 17 2.5 32.5t12 38.5t25.5 40.5t46.5 32.5t72.5 20l145 18 q46 4 46 62q0 85 -123 85q-35 0 -59.5 -9.5t-36.5 -27t-16.5 -31t-7.5 -33.5z" unicode="å"/>
<glyph glyph-name="ae" horiz-adv-x="889" unicode="æ" d="M384 181v86q-22 -17 -145 -33q-21 -3 -36.5 -7t-35 -12.5t-30 -25.5t-10.5 -40q0 -91 95 -91q63 0 112.5 36t49.5 87zM752 164h88q-3 -28 -26.5 -71t-66.5 -72q-54 -36 -142 -36q-131 0 -192 109q-72 -109 -213 -109q-72 0 -118 42t-46 109q0 17 2.5 32.5t12 38.5 t25.5 40.5t46.5 32.5t72.5 20l145 18q46 4 46 62q0 85 -123 85q-35 0 -59.5 -9.5t-36.5 -27t-16.5 -31t-7.5 -33.5h-81q6 174 216 174q47 0 81.5 -12t49.5 -24t39 -38q40 39 67 52q45 22 107 22q111 0 168 -81.5t57 -223.5h-382q0 -83 38.5 -127.5t113.5 -44.5 q57 0 94.5 34.5t40.5 68.5zM465 303h291q-10 156 -146 156q-60 0 -102.5 -47t-42.5 -109z"/>
<glyph glyph-name="ccedilla" horiz-adv-x="500" unicode="ç" d="M155 -203l17 40q38 -15 65 -15q56 0 56 42q0 20 -16 29.5t-32 9.5q-11 0 -39 -8l-17 19l54 73q-99 7 -156 79t-57 181q0 129 63.5 210t187.5 81q94 0 142 -56t54 -135h-85q-18 112 -124 112q-75 0 -109.5 -58t-34.5 -139q0 -201 143 -201q45 0 79.5 32.5t45.5 91.5h85 q-3 -32 -14 -62.5t-32 -60.5t-57 -50t-83 -24l-37 -50q22 4 31 4q44 0 64 -23t20 -52q0 -40 -32 -66t-86 -26q-44 0 -96 22z"/>
<glyph glyph-name="egrave" d="M256 593l-130 141h108l89 -141h-67zM134 303h291q-10 156 -146 156q-60 0 -102.5 -47t-42.5 -109zM421 164h88q-3 -28 -26.5 -71t-66.5 -72q-54 -36 -142 -36q-108 0 -171 73t-63 189q0 129 63.5 210t187.5 81q111 0 168 -81.5t57 -223.5h-382q0 -83 38.5 -127.5 t113.5 -44.5q57 0 94.5 34.5t40.5 68.5z" unicode="è"/>
<glyph glyph-name="eacute" d="M431 734l-130 -141h-67l89 141h108zM134 303h291q-10 156 -146 156q-60 0 -102.5 -47t-42.5 -109zM421 164h88q-3 -28 -26.5 -71t-66.5 -72q-54 -36 -142 -36q-108 0 -171 73t-63 189q0 129 63.5 210t187.5 81q111 0 168 -81.5t57 -223.5h-382q0 -83 38.5 -127.5 t113.5 -44.5q57 0 94.5 34.5t40.5 68.5z" unicode="é"/>
<glyph glyph-name="ecircumflex" d="M278 686l-66 -93h-79l99 141h93l99 -141h-80zM134 303h291q-10 156 -146 156q-60 0 -102.5 -47t-42.5 -109zM421 164h88q-3 -28 -26.5 -71t-66.5 -72q-54 -36 -142 -36q-108 0 -171 73t-63 189q0 129 63.5 210t187.5 81q111 0 168 -81.5t57 -223.5h-382 q0 -83 38.5 -127.5t113.5 -44.5q57 0 94.5 34.5t40.5 68.5z" unicode="ê"/>
<glyph glyph-name="edieresis" d="M405 706v-102h-91v102h91zM243 706v-102h-91v102h91zM134 303h291q-10 156 -146 156q-60 0 -102.5 -47t-42.5 -109zM421 164h88q-3 -28 -26.5 -71t-66.5 -72q-54 -36 -142 -36q-108 0 -171 73t-63 189q0 129 63.5 210t187.5 81q111 0 168 -81.5t57 -223.5h-382 q0 -83 38.5 -127.5t113.5 -44.5q57 0 94.5 34.5t40.5 68.5z" unicode="ë"/>
<glyph glyph-name="igrave" horiz-adv-x="278" unicode="ì" d="M117 593l-130 141h108l89 -141h-67zM183 523v-523h-88v523h88z"/>
<glyph glyph-name="iacute" horiz-adv-x="278" unicode="í" d="M292 734l-130 -141h-67l89 141h108zM183 523v-523h-88v523h88z"/>
<glyph glyph-name="icircumflex" horiz-adv-x="278" unicode="î" d="M139 686l-66 -93h-79l99 141h93l99 -141h-80zM183 523v-523h-88v523h88z"/>
<glyph glyph-name="idieresis" horiz-adv-x="278" unicode="ï" d="M266 706v-102h-91v102h91zM104 706v-102h-91v102h91zM183 523v-523h-88v523h88z"/>
<glyph glyph-name="eth" d="M469 697l-107 -51q77 -71 118.5 -161.5t41.5 -186.5q0 -86 -22 -149.5t-58 -97.5t-75 -50t-81 -16q-63 0 -112.5 23t-79 62t-44.5 86t-15 98q0 107 61.5 188t167.5 81q82 0 133 -55l2 2q-31 77 -111 142l-124 -62l-42 42l118 57q-41 32 -89 52l74 36q52 -20 91 -51 l106 51zM126 254q0 -19 3.5 -41.5t13.5 -50t26 -49.5t44.5 -37t64.5 -15t64.5 15t44.5 37t26 49.5t13.5 50t3.5 41.5t-3.5 41.5t-13.5 50t-26 49.5t-44.5 37t-64.5 15t-64.5 -15t-44.5 -37t-26 -49.5t-13.5 -50t-3.5 -41.5z" unicode="ð"/>
<glyph glyph-name="ntilde" d="M389 722h50q-5 -47 -32 -78t-68 -31q-20 0 -59 13l-26 9q-44 15 -61 15q-33 0 -47 -44h-48q15 107 104 107q29 0 68 -15l22 -9q31 -13 47 -13q18 0 29.5 8.5t14.5 16.5t6 21zM491 356v-356h-88v322q0 71 -25 104t-87 33q-22 0 -43.5 -7.5t-44 -25.5t-36.5 -54.5 t-14 -86.5v-285h-88v523h83v-74h2q60 89 158 89q26 0 50 -4.5t49 -17t43 -32t29.5 -52.5t11.5 -76z" unicode="ñ"/>
<glyph glyph-name="ograve" d="M256 593l-130 141h108l89 -141h-67zM126 262q0 -31 6.5 -61.5t22 -64t47.5 -54t76 -20.5t76 20.5t47.5 54t22 64t6.5 61.5t-6.5 61.5t-22 64t-47.5 54t-76 20.5t-76 -20.5t-47.5 -54t-22 -64t-6.5 -61.5zM35 262q0 112 63 194t180 82t180 -82t63 -194t-63 -194t-180 -82 t-180 82t-63 194z" unicode="ò"/>
<glyph glyph-name="oacute" d="M431 734l-130 -141h-67l89 141h108zM126 262q0 -31 6.5 -61.5t22 -64t47.5 -54t76 -20.5t76 20.5t47.5 54t22 64t6.5 61.5t-6.5 61.5t-22 64t-47.5 54t-76 20.5t-76 -20.5t-47.5 -54t-22 -64t-6.5 -61.5zM35 262q0 112 63 194t180 82t180 -82t63 -194t-63 -194t-180 -82 t-180 82t-63 194z" unicode="ó"/>
<glyph glyph-name="ocircumflex" d="M278 686l-66 -93h-79l99 141h93l99 -141h-80zM126 262q0 -31 6.5 -61.5t22 -64t47.5 -54t76 -20.5t76 20.5t47.5 54t22 64t6.5 61.5t-6.5 61.5t-22 64t-47.5 54t-76 20.5t-76 -20.5t-47.5 -54t-22 -64t-6.5 -61.5zM35 262q0 112 63 194t180 82t180 -82t63 -194t-63 -194 t-180 -82t-180 82t-63 194z" unicode="ô"/>
<glyph glyph-name="otilde" d="M399 722h50q-5 -47 -32 -78t-68 -31q-20 0 -59 13l-26 9q-44 15 -61 15q-33 0 -47 -44h-48q15 107 104 107q29 0 68 -15l22 -9q31 -13 47 -13q18 0 29.5 8.5t14.5 16.5t6 21zM126 262q0 -31 6.5 -61.5t22 -64t47.5 -54t76 -20.5t76 20.5t47.5 54t22 64t6.5 61.5 t-6.5 61.5t-22 64t-47.5 54t-76 20.5t-76 -20.5t-47.5 -54t-22 -64t-6.5 -61.5zM35 262q0 112 63 194t180 82t180 -82t63 -194t-63 -194t-180 -82t-180 82t-63 194z" unicode="õ"/>
<glyph glyph-name="odieresis" d="M405 706v-102h-91v102h91zM243 706v-102h-91v102h91zM126 262q0 -31 6.5 -61.5t22 -64t47.5 -54t76 -20.5t76 20.5t47.5 54t22 64t6.5 61.5t-6.5 61.5t-22 64t-47.5 54t-76 20.5t-76 -20.5t-47.5 -54t-22 -64t-6.5 -61.5zM35 262q0 112 63 194t180 82t180 -82t63 -194 t-63 -194t-180 -82t-180 82t-63 194z" unicode="ö"/>
<glyph glyph-name="divide" horiz-adv-x="584" unicode="÷" d="M224 49q0 28 20.5 48t47.5 20q28 0 48 -20t20 -48q0 -26 -20.5 -47t-47.5 -21t-47.5 20t-20.5 48zM224 456q0 28 20.5 48t47.5 20q28 0 48 -20t20 -48q0 -26 -20.5 -47t-47.5 -21t-47.5 20t-20.5 48zM545 216h-506v73h506v-73z"/>
<glyph glyph-name="oslash" horiz-adv-x="611" unicode="ø" d="M408 373l-234 -265q37 -46 104 -46q44 0 76 20.5t47.5 54t22 64t6.5 61.5q0 63 -22 111zM151 143l236 267q-40 52 -109 52q-44 0 -76 -20.5t-47.5 -54t-22 -64t-6.5 -61.5q0 -66 25 -119zM537 519l-69 -78q53 -74 53 -179q0 -112 -63 -194t-180 -82q-97 0 -159 60 l-60 -68l-31 26l64 72q-57 76 -57 186q0 112 63 194t180 82q101 0 164 -65l64 72z"/>
<glyph glyph-name="ugrave" d="M256 593l-130 141h108l89 -141h-67zM489 0h-83v76l-2 2q-29 -48 -67 -70.5t-99 -22.5q-69 0 -119.5 38.5t-50.5 123.5v376h88v-347q0 -115 101 -115q40 0 69 16t45 43t23 55.5t7 59.5v288h88v-523z" unicode="ù"/>
<glyph glyph-name="uacute" d="M431 734l-130 -141h-67l89 141h108zM489 0h-83v76l-2 2q-29 -48 -67 -70.5t-99 -22.5q-69 0 -119.5 38.5t-50.5 123.5v376h88v-347q0 -115 101 -115q40 0 69 16t45 43t23 55.5t7 59.5v288h88v-523z" unicode="ú"/>
<glyph glyph-name="ucircumflex" d="M278 686l-66 -93h-79l99 141h93l99 -141h-80zM489 0h-83v76l-2 2q-29 -48 -67 -70.5t-99 -22.5q-69 0 -119.5 38.5t-50.5 123.5v376h88v-347q0 -115 101 -115q40 0 69 16t45 43t23 55.5t7 59.5v288h88v-523z" unicode="û"/>
<glyph glyph-name="udieresis" d="M405 706v-102h-91v102h91zM243 706v-102h-91v102h91zM489 0h-83v76l-2 2q-29 -48 -67 -70.5t-99 -22.5q-69 0 -119.5 38.5t-50.5 123.5v376h88v-347q0 -115 101 -115q40 0 69 16t45 43t23 55.5t7 59.5v288h88v-523z" unicode="ü"/>
<glyph glyph-name="yacute" horiz-adv-x="500" unicode="ý" d="M403 734l-130 -141h-67l89 141h108zM252 97l140 426h97q-132 -371 -188 -513q-24 -61 -36 -91t-29 -60.5t-26.5 -41t-28.5 -20t-36 -10.5t-49 -1q-9 0 -37 8v80q25 -9 53 -9q33 0 46.5 18.5t46.5 102.5l-194 537h100l139 -426h2z"/>
<glyph glyph-name="thorn" d="M58 -207v925h88v-267h2q10 16 18.5 26.5t27 26.5t45.5 25t60 9q101 0 159.5 -73.5t58.5 -187.5q0 -51 -11.5 -99t-36 -93t-72 -72.5t-110.5 -27.5q-95 0 -139 70h-2v-262h-88zM142 237q0 -93 44.5 -134.5t98.5 -41.5q69 0 105 55.5t36 146.5q0 196 -143 196 q-141 0 -141 -222z" unicode="þ"/>
<glyph glyph-name="OE" horiz-adv-x="1000" unicode="Œ" d="M523 645v73h440v-86h-349v-220h333v-86h-333v-240h351v-86h-443v75h-2q-23 -30 -38.5 -45.5t-56 -32t-96.5 -16.5q-138 0 -215.5 104t-77.5 270q0 47 7.5 94t28.5 100.5t54 94t89 67t128 26.5q123 0 178 -92h2zM517 230v262q0 74 -48 118t-125 44q-55 0 -95.5 -24.5 t-61.5 -58t-33 -81t-15 -81t-3 -70.5q0 -87 25 -150q27 -65 71 -95t125 -30q59 0 109.5 42t50.5 124z"/>
<glyph glyph-name="oe" horiz-adv-x="944" unicode="œ" d="M126 262q0 -31 6.5 -61.5t22 -64t47.5 -54t76 -20.5t76 20.5t47.5 54t22 64t6.5 61.5t-6.5 61.5t-22 64t-47.5 54t-76 20.5t-76 -20.5t-47.5 -54t-22 -64t-6.5 -61.5zM807 164h88q-3 -28 -26.5 -71t-66.5 -72q-54 -36 -142 -36q-125 0 -194 101q-52 -100 -182 -100h-6 q-117 0 -180 82t-63 194t63 194t180 82q133 -2 196 -106q69 106 203 106q111 0 168 -81.5t57 -223.5h-383q0 -83 39 -127.5t114 -44.5q57 0 94.5 34.5t40.5 68.5zM519 303h292q-10 156 -146 156q-60 0 -103 -47t-43 -109z"/>
<glyph glyph-name="Scaron" horiz-adv-x="667" unicode="Š" d="M267 929l66 -93l66 93h80l-99 -141h-93l-99 141h79zM600 508h-91q-3 76 -55 111t-123 35q-27 0 -52 -5t-52 -17t-43.5 -39t-16.5 -65q0 -71 85 -91l205 -47q163 -39 163 -192q0 -61 -26 -105.5t-69 -67.5t-89.5 -33.5t-96.5 -10.5q-141 0 -217 69q-42 38 -57.5 81.5 t-15.5 100.5h91q0 -89 58.5 -128.5t139.5 -39.5q31 0 59.5 5t59.5 16.5t50 37.5t19 62q0 55 -31.5 80.5t-121.5 46.5l-147 34q-153 36 -153 169q0 93 62.5 157.5t184.5 64.5q72 0 125 -17t81 -40.5t45.5 -57.5t22 -59t6.5 -55z"/>
<glyph glyph-name="scaron" horiz-adv-x="500" unicode="š" d="M184 734l66 -93l66 93h80l-99 -141h-93l-99 141h79zM447 374h-85q-3 88 -124 88q-19 0 -39.5 -4t-42.5 -22t-22 -48t19.5 -43t75.5 -27l88 -22q81 -20 114 -52t33 -86q0 -79 -58 -126t-149 -47q-59 0 -102.5 13.5t-65.5 32t-35.5 46.5t-17 47t-4.5 44h85q1 -20 6 -35 t18 -33.5t42 -28.5t73 -10q51 0 85.5 21t34.5 62q0 30 -22 45t-82 30l-102 25q-121 30 -121 127q0 81 57 124t141 43q53 0 92.5 -15t59 -35t31.5 -45.5t14.5 -41t2.5 -27.5z"/>
<glyph glyph-name="Ydieresis" horiz-adv-x="667" unicode="Ÿ" d="M460 901v-102h-91v102h91zM298 901v-102h-91v102h91zM382 289v-289h-97v289l-271 429h113l206 -345l206 345h114z"/>
<glyph glyph-name="circumflex" horiz-adv-x="333" unicode="ˆ" d="M166 686l-66 -93h-79l99 141h93l99 -141h-80z"/>
<glyph glyph-name="tilde" horiz-adv-x="333" unicode="˜" d="M287 722h50q-5 -47 -32 -78t-68 -31q-20 0 -59 13l-26 9q-44 15 -61 15q-33 0 -47 -44h-48q15 107 104 107q29 0 68 -15l22 -9q31 -13 47 -13q18 0 29.5 8.5t14.5 16.5t6 21z"/>
<glyph glyph-name="uni03BC" horiz-adv-x="578" unicode="μ" d="M489 0h-83v76l-2 2q-29 -48 -67 -70.5t-99 -22.5q-54 0 -80 34h-2v-226h-88v354v376h88v-347q0 -115 101 -115q40 0 69 16t45 43t23 55.5t7 59.5v288h88v-523z"/>
<glyph glyph-name="pi" horiz-adv-x="575" unicode="π" d="M549 447h-79v-300q0 -93 14 -147h-81q-17 29 -17 141v306h-173q-5 -106 -25.5 -243t-46.5 -204h-82q26 78 46.5 210.5t24.5 236.5q-74 0 -110 -12l-12 55q41 28 147 28h402z"/>
<glyph glyph-name="endash" d="M556 313v-73h-556v73h556z" unicode="–"/>
<glyph glyph-name="emdash" horiz-adv-x="1000" unicode="—" d="M1000 313v-73h-1000v73h1000z"/>
<glyph glyph-name="quoteleft" horiz-adv-x="222" unicode="‘" d="M169 576v-106h-104v98q0 133 104 157v-47q-53 -8 -53 -102h53z"/>
<glyph glyph-name="quotesinglbase" horiz-adv-x="222" unicode="‚" d="M53 0v106h104v-98q0 -133 -104 -157v47q53 8 53 102h-53z"/>
<glyph glyph-name="quotedblleft" horiz-adv-x="333" unicode="“" d="M142 576v-106h-104v98q0 133 104 157v-47q-53 -8 -53 -102h53zM307 576v-106h-104v98q0 133 104 157v-47q-53 -8 -53 -102h53z"/>
<glyph glyph-name="quotedblright" horiz-adv-x="333" unicode="”" d="M191 612v106h104v-98q0 -133 -104 -157v47q53 8 53 102h-53zM26 612v106h104v-98q0 -133 -104 -157v47q53 8 53 102h-53z"/>
<glyph glyph-name="dagger" d="M326 431v-590h-94v590h-189v76h189v211h94v-211h188v-76h-188z" unicode="†"/>
<glyph glyph-name="daggerdbl" d="M326 439v-320h188v-76h-188v-202h-94v202h-189v76h189v320h-189v76h189v203h94v-203h188v-76h-188z" unicode="‡"/>
<glyph glyph-name="ellipsis" horiz-adv-x="1000" unicode="…" d="M885 106v-106h-104v106h104zM552 106v-106h-104v106h104zM219 106v-106h-104v106h104z"/>
<glyph glyph-name="perthousand" horiz-adv-x="1000" unicode="‰" d="M544 703l-397 -722h-55l397 722h55zM745 149q0 -39 27 -66t66 -27q38 0 65.5 27.5t27.5 65.5q0 39 -27.5 66t-65.5 27q-39 0 -66 -27.5t-27 -65.5zM682 149q0 65 45.5 110.5t110.5 45.5q64 0 110 -45.5t46 -110.5t-45.5 -110.5t-110.5 -45.5t-110.5 45t-45.5 111z M382 149q0 -39 27 -66t66 -27q38 0 65.5 27.5t27.5 65.5q0 39 -27.5 66t-65.5 27q-39 0 -66 -27.5t-27 -65.5zM319 149q0 65 45.5 110.5t110.5 45.5t110.5 -45.5t45.5 -110.5t-45.5 -110.5t-110.5 -45.5t-110.5 45t-45.5 111zM70 539q0 -39 27 -66t66 -27q38 0 65.5 27.5 t27.5 65.5q0 39 -27.5 66t-65.5 27q-39 0 -66 -27.5t-27 -65.5zM7 539q0 65 45.5 110.5t110.5 45.5t110.5 -45.5t45.5 -110.5t-45.5 -110.5t-110.5 -45.5t-110.5 45t-45.5 111z"/>
<glyph glyph-name="guilsinglleft" horiz-adv-x="333" unicode="‹" d="M245 196v-88l-157 123v92l157 123v-88l-105 -81z"/>
<glyph glyph-name="guilsinglright" horiz-adv-x="333" unicode="›" d="M88 108v88l105 81l-105 81v88l157 -123v-92z"/>
<glyph glyph-name="fraction" horiz-adv-x="167" unicode="⁄" d="M333 703l-442 -722h-57l442 722h57z"/>
<glyph glyph-name="Euro" d="M541 628l-32 -94q-46 90 -161 90q-71 0 -109.5 -53t-44.5 -127h285l-24 -72h-264v-71h239l-24 -72h-209q5 -75 46.5 -122t99.5 -47q51 0 101 24t65 47v-99q-7 -6 -25.5 -16.5t-57 -22.5t-76.5 -12q-106 0 -168.5 63t-78.5 185h-79l25 72h48v71h-72l25 72h51 q12 124 76 191.5t177 67.5q63 0 112.5 -21t74.5 -54z" unicode="€"/>
<glyph glyph-name="trademark" horiz-adv-x="1000" unicode="™" d="M373 718v-60h-127v-352h-73v352h-127v60h327zM557 718l118 -303l116 303h112v-412h-73v335h-2l-129 -335h-50l-129 335h-2v-335h-73v412h112z"/>
<glyph glyph-name="partialdiff" d="M256 355q-73 0 -104.5 -43.5t-31.5 -104.5q0 -75 35.5 -110t92.5 -35q73 0 110 62t37 155v12q-20 22 -57.5 43t-81.5 21zM102 574l-51 62q27 20 47 32t55 23t73 11q76 0 133.5 -36t91.5 -97q47 -85 47 -222q0 -35 -3 -68t-11.5 -77.5t-26.5 -80.5t-44.5 -68.5t-70 -50.5 t-99.5 -18t-100 21t-69 56t-37.5 73.5t-12.5 78.5q0 94 59.5 157t156.5 63q103 0 156 -67v16q0 45 -7 83t-24 75t-51 60t-82 27q-40 0 -75 -16.5t-55 -36.5z" unicode="∂"/>
<glyph glyph-name="product" horiz-adv-x="702" unicode="∏" d="M675 620h-108v-716h-82v716h-269v-716h-82v716h-108v75h649v-75z"/>
<glyph glyph-name="summation" horiz-adv-x="553" unicode="∑" d="M531 -96h-508v55l264 340l-253 338v58h482v-71h-367v-4l233 -309l-253 -325v-3h402v-79z"/>
<glyph glyph-name="minus" horiz-adv-x="584" unicode="−" d="M545 216h-506v73h506v-73z"/>
<glyph glyph-name="radical" horiz-adv-x="514" unicode="√" d="M69 75l-33 87l115 66l100 -264l120 738h90l-152 -908h-84l-117 304z"/>
<glyph glyph-name="infinity" horiz-adv-x="815" unicode="∞" d="M352 259q-22 25 -49 45q-45 38 -83 38q-30 0 -52 -22t-22 -60q0 -37 21.5 -58t55.5 -21q60 0 129 78zM463 259q72 -79 131 -79q27 0 51 19t24 61q0 41 -23 62t-54 21q-52 0 -129 -84zM408 198q-27 -28 -41 -41t-38.5 -31.5t-50 -26.5t-54.5 -8q-72 0 -118.5 47t-46.5 124 q0 80 47.5 125t114.5 45q42 0 81 -20.5t58 -40t48 -53.5q29 34 51 55.5t59 40.5t77 19q64 0 112.5 -44t48.5 -127q0 -75 -44.5 -123.5t-117.5 -48.5q-52 0 -95 27.5t-91 80.5z"/>
<glyph glyph-name="approxequal" horiz-adv-x="600" unicode="≈" d="M105 68l-36 70q46 87 125 87q44 0 116 -35t97 -35q19 0 37.5 13.5t27 25t23.5 34.5l36 -70q-20 -28 -34 -44t-38.5 -29.5t-52.5 -13.5q-41 0 -105 35t-112 35q-52 0 -84 -73zM105 278l-36 70q46 87 125 87q44 0 116 -35t97 -35q19 0 37.5 13.5t27 25t23.5 34.5l36 -70 q-20 -28 -34 -44t-38.5 -29.5t-52.5 -13.5q-41 0 -105 35t-112 35q-52 0 -84 -73z"/>
<glyph glyph-name="notequal" horiz-adv-x="600" unicode="≠" d="M47 106v84h172l65 126h-237v84h280l55 106h96l-55 -106h130v-84h-173l-65 -126h238v-84h-281l-54 -106h-96l54 106h-129z"/>
<glyph glyph-name="lessequal" horiz-adv-x="600" unicode="≤" d="M553 36v-84h-506v84h506zM553 168v-84l-506 188v84l506 188v-84l-393 -146z"/>
<glyph glyph-name="greaterequal" horiz-adv-x="600" unicode="≥" d="M47 -48v84h506v-84h-506zM47 84v84l393 146l-393 146v84l506 -188v-84z"/>
<glyph glyph-name="lozenge" horiz-adv-x="575" unicode="◊" d="M445 345l-138 273q-13 31 -19 53h-3q-6 -23 -19 -53l-137 -269l139 -275q15 -36 17 -51h4q7 32 18 50zM520 347l-201 -393h-67l-198 393l201 394h67z"/>
</font>
</defs>
</svg>
