<?xml version="1.0" encoding="UTF-8" standalone="no"?>
<!DOCTYPE svg  PUBLIC '-//W3C//DTD SVG 1.1//EN'  'http://www.w3.org/Graphics/SVG/1.1/DTD/svg11.dtd'>
<svg xmlns="http://www.w3.org/2000/svg">
<defs>
<font id="HelveticaLTStd-Bold" horiz-adv-x="556">
<font-face underline-position="-50" font-weight="700" descent="-200" panose-1="2 11 7 4 2 2 2 3 2 4" units-per-em="1000" unicode-range="U+0020-25CA" bbox="-170 -228 1003 962" x-height="532" underline-thickness="50" font-family="HelveticaLTStd" ascent="800" cap-height="718"/>
<missing-glyph horiz-adv-x="1000"/>
<glyph glyph-name=".notdef" horiz-adv-x="1000"/>
<glyph glyph-name=".null" horiz-adv-x="0"/>
<glyph glyph-name="nonmarkingreturn" horiz-adv-x="333"/>
<glyph glyph-name="space" horiz-adv-x="278" unicode=" "/>
<glyph glyph-name="exclam" horiz-adv-x="333" unicode="!" d="M244 535l-40 -336h-74l-40 336v183h154v-183zM240 141v-141h-146v141h146z"/>
<glyph glyph-name="quotedbl" horiz-adv-x="474" unicode='&quot;' d="M98 447v271h98v-271h-98zM278 447v271h98v-271h-98z"/>
<glyph glyph-name="numbersign" d="M335 409h-97l-17 -120h97zM509 289l-12 -90h-97l-28 -199h-94l28 199h-97l-28 -199h-94l28 199h-97l12 90h97l17 120h-97l12 90h97l28 199h94l-28 -199h97l28 199h94l-28 -199h97l-12 -90h-97l-17 -120h97z" unicode="#"/>
<glyph glyph-name="dollar" d="M301 282v-193q33 2 60.5 24.5t27.5 73.5q0 71 -88 95zM255 431v173q-41 -2 -62.5 -26t-21.5 -52q0 -76 84 -95zM512 501h-129q-4 62 -25 82.5t-57 20.5v-187q127 -40 167 -79q55 -52 55 -140q0 -50 -20 -95t-72 -80.5t-130 -39.5v-98h-46v98q-120 10 -172.5 64.5 t-52.5 167.5h131q5 -60 23 -88t71 -38v210q-35 9 -60 17.5t-55.5 25t-49.5 36.5t-32 52t-13 72q0 87 54.5 147t155.5 61v65h46v-65q29 -3 50.5 -7.5t52 -18.5t51 -35t37 -59t20.5 -89z" unicode="$"/>
<glyph glyph-name="percent" horiz-adv-x="889" unicode="%" d="M600 170q0 -33 23.5 -56t55.5 -23t55.5 23t23.5 56t-23.5 56t-55.5 23t-55.5 -23t-23.5 -56zM497 170q0 76 53.5 129t128.5 53q74 0 128 -53.5t54 -128.5t-53.5 -128.5t-128.5 -53.5t-128.5 53t-53.5 129zM678 710l-398 -729h-74l398 729h74zM28 528q0 76 53.5 129 t128.5 53q74 0 128 -53.5t54 -128.5t-53.5 -128.5t-128.5 -53.5t-128.5 53t-53.5 129zM131 528q0 -33 23.5 -56t55.5 -23t55.5 23t23.5 56t-23.5 56t-55.5 23t-55.5 -23t-23.5 -56z"/>
<glyph glyph-name="ampersand" horiz-adv-x="722" unicode="&amp;" d="M411 149l-132 165q-50 -37 -67.5 -58.5t-17.5 -61.5q0 -31 25.5 -63t80.5 -32q56 0 111 50zM571 157l130 -157h-169l-49 61q-80 -80 -205 -80q-99 0 -161.5 60.5t-62.5 143.5q0 60 28 109.5t110 99.5l15 9q-65 74 -65 150q0 73 53.5 119t137.5 46q67 0 121.5 -43 t54.5 -123q0 -101 -119 -171l102 -126q31 48 37 118h124q-7 -70 -25.5 -118.5t-56.5 -97.5zM388 553q0 29 -16.5 44t-43.5 15q-25 0 -41.5 -15.5t-16.5 -42.5q0 -33 52 -90q66 42 66 89z"/>
<glyph glyph-name="quotesingle" horiz-adv-x="238" unicode="&apos;" d="M70 447v271h98v-271h-98z"/>
<glyph glyph-name="parenleft" horiz-adv-x="333" unicode="(" d="M314 -208h-103q-176 237 -176 469q0 238 176 473h103q-66 -112 -100.5 -221t-34.5 -252q0 -141 35 -248.5t100 -220.5z"/>
<glyph glyph-name="parenright" horiz-adv-x="333" unicode=")" d="M19 734h103q176 -237 176 -469q0 -238 -176 -473h-103q66 112 100.5 221t34.5 252q0 141 -35 248.5t-100 220.5z"/>
<glyph glyph-name="asterisk" horiz-adv-x="389" unicode="*" d="M338 633l24 -73l-105 -32l69 -97l-63 -44l-68 91l-69 -91l-63 44l68 97l-104 32l23 73l102 -34v119h85v-119z"/>
<glyph glyph-name="plus" horiz-adv-x="584" unicode="+" d="M236 309v197h112v-197h196v-112h-196v-197h-112v197h-196v112h196z"/>
<glyph glyph-name="comma" horiz-adv-x="278" unicode="," d="M214 146v-126q0 -86 -39 -128.5t-110 -59.5h-1v53q24 8 38.5 17t29 34t16.5 64h-84v146h150z"/>
<glyph glyph-name="hyphen" horiz-adv-x="333" unicode="-" d="M306 345v-130h-279v130h279z"/>
<glyph glyph-name="period" horiz-adv-x="278" unicode="." d="M214 146v-146h-150v146h150z"/>
<glyph glyph-name="slash" horiz-adv-x="278" unicode="/" d="M311 737l-227 -756h-117l227 756h117z"/>
<glyph glyph-name="zero" d="M176 346q0 -140 21.5 -196.5t80.5 -56.5t80.5 56.5t21.5 196.5t-21.5 196t-80.5 56t-80.5 -56t-21.5 -196zM32 346q0 186 60.5 275t185.5 89t185.5 -89t60.5 -275q0 -187 -60.5 -276t-185.5 -89t-185.5 89t-60.5 276z" unicode="0"/>
<glyph glyph-name="one" d="M69 489v98h20q91 0 131 37t43 86h115v-710h-140v489h-169z" unicode="1"/>
<glyph glyph-name="two" d="M170 459h-136q0 66 18.5 114.5t44.5 74t61 40.5t59 18.5t49 3.5q106 0 175 -59.5t69 -164.5q0 -43 -12.5 -79.5t-36.5 -65t-45.5 -46.5t-53.5 -40q-116 -81 -137 -102q-15 -15 -22 -29h308v-124h-485q2 33 4 51.5t12 50.5t26 57t47.5 58t75.5 65q50 36 69.5 51t47.5 39 t37.5 39t17 35.5t7.5 44.5q0 40 -25.5 70.5t-72.5 30.5q-28 0 -48 -9.5t-30 -21.5t-15.5 -33t-7 -34.5t-1.5 -34.5z" unicode="2"/>
<glyph glyph-name="three" d="M213 311v100h22q17 0 29 1t30.5 6.5t30 15t20.5 28.5t9 45q0 12 -3.5 25.5t-12 29.5t-27.5 26t-46 10q-96 0 -96 -116h-130q0 104 59.5 166t175.5 62q38 0 74.5 -10.5t70.5 -32t54.5 -62t20.5 -93.5q0 -50 -25 -84.5t-60 -50.5v-2q13 -4 28 -12.5t34.5 -26.5t32 -51 t12.5 -75q0 -101 -67.5 -165t-174.5 -64q-27 0 -52 3t-63 17t-65 37.5t-47 70t-20 109.5h137l-1 -1q0 -19 3.5 -36.5t13 -39t32 -35t55.5 -13.5q45 0 75 30.5t30 86.5q0 34 -14.5 56t-42 31t-49 11.5t-53.5 2.5z" unicode="3"/>
<glyph glyph-name="four" d="M526 266v-109h-79v-157h-140v157h-280v121l261 432h159v-444h79zM130 266h177q0 76 0.5 146.5t1.5 112t1 46.5h-2z" unicode="4"/>
<glyph glyph-name="five" d="M199 580l-25 -154q56 39 127 39q51 0 98 -22t82 -76t35 -131q0 -32 -6.5 -64t-24.5 -67.5t-45.5 -62t-74.5 -44t-107 -17.5q-91 0 -158.5 54t-72.5 155h140q10 -97 99 -97q49 0 77.5 37.5t28.5 95.5q0 53 -26 90t-78 37q-66 0 -94 -51l-125 6l49 390h390v-118h-289z" unicode="5"/>
<glyph glyph-name="six" d="M380 228q0 61 -31 90t-71 29q-45 0 -76 -30t-31 -92q0 -58 30.5 -95t80.5 -37q42 0 70 33.5t28 101.5zM506 530h-139q-7 68 -82 68q-106 0 -117 -196l2 -2q43 59 133 59q103 0 160 -65.5t57 -153.5q0 -116 -64.5 -187.5t-167.5 -71.5q-62 0 -109 20.5t-74.5 53.5 t-44.5 81.5t-23 96t-6 105.5q0 41 2.5 75t11 80.5t26.5 82t46 67.5t73.5 49.5t104.5 17.5q31 0 76.5 -11.5t68.5 -34.5q31 -30 44 -55t22 -79z" unicode="6"/>
<glyph glyph-name="seven" d="M528 698v-108q-35 -38 -68.5 -83t-78.5 -121.5t-75.5 -177.5t-36.5 -208h-144q5 99 36 198t75 174t78 122.5t64 79.5h-353l3 124h500z" unicode="7"/>
<glyph glyph-name="eight" d="M380 205q0 44 -25.5 77.5t-78.5 33.5q-42 0 -71 -28t-29 -82q0 -51 27.5 -82t75.5 -31q50 0 75.5 34.5t25.5 77.5zM524 211q0 -29 -7.5 -58.5t-25.5 -61t-45 -55.5t-70.5 -39.5t-97.5 -15.5q-65 0 -115 19.5t-77.5 52.5t-40.5 69t-13 75q0 130 108 180q-86 43 -86 139 q0 89 62.5 141.5t158.5 52.5q106 0 165.5 -53.5t59.5 -131.5q0 -100 -82 -143q54 -27 80 -66t26 -105zM279 422q40 0 63.5 24.5t23.5 63.5q0 40 -23.5 64t-58.5 24q-46 0 -71 -24t-25 -64q0 -34 24.5 -61t66.5 -27z" unicode="8"/>
<glyph glyph-name="nine" d="M44 164h139v-1q11 -70 82 -70q49 0 82.5 47.5t34.5 150.5l-2 2q-40 -60 -135 -60q-98 0 -156.5 64.5t-58.5 157.5q0 126 66.5 190.5t175.5 64.5q250 0 250 -365q0 -99 -22 -172t-59.5 -113.5t-81.5 -59.5t-95 -19q-91 0 -151 49.5t-69 133.5zM170 475q0 -130 105 -130 q41 0 72 30t31 89q0 62 -27 96.5t-80 34.5q-38 0 -69.5 -26.5t-31.5 -93.5z" unicode="9"/>
<glyph glyph-name="colon" horiz-adv-x="333" unicode=":" d="M242 512v-146h-150v146h150zM242 146v-146h-150v146h150z"/>
<glyph glyph-name="semicolon" horiz-adv-x="333" unicode=";" d="M242 512v-146h-150v146h150zM242 146v-126q0 -86 -39 -128.5t-110 -59.5h-1v53q24 8 38.5 17t29 34t16.5 64h-84v146h150z"/>
<glyph glyph-name="less" horiz-adv-x="584" unicode="&lt;" d="M546 100v-108l-508 216v90l508 216v-108l-363 -153z"/>
<glyph glyph-name="equal" horiz-adv-x="584" unicode="=" d="M544 199v-112h-504v112h504zM544 419v-112h-504v112h504z"/>
<glyph glyph-name="greater" horiz-adv-x="584" unicode="&gt;" d="M38 100l363 153l-363 153v108l508 -216v-90l-508 -216v108z"/>
<glyph glyph-name="question" horiz-adv-x="611" unicode="?" d="M384 141v-141h-146v141h146zM374 208h-132q0 77 18 117t84 86q62 43 62 99q0 53 -29 76t-68 23q-32 0 -54 -10.5t-32.5 -30t-15 -36t-6.5 -38.5v-1h-141q0 50 14.5 91t38.5 67t55.5 43.5t64.5 25t67 7.5q24 0 50 -3t65.5 -16t68.5 -34t50.5 -63t21.5 -97q0 -57 -29 -98 t-92 -86q-35 -25 -48 -48t-13 -74z"/>
<glyph glyph-name="at" horiz-adv-x="975" unicode="@" d="M611 493l13 53h88l-58 -255q-7 -28 -7 -42q0 -21 15 -21q43 0 78 49.5t35 126.5q0 119 -76.5 186t-196.5 67q-127 0 -206 -85.5t-79 -214.5q0 -132 84 -214t215 -82q122 0 210 81h89q-52 -77 -131.5 -119t-173.5 -42q-164 0 -278 108t-114 270q0 159 113 268.5t273 109.5 q91 0 171 -37.5t130.5 -109.5t50.5 -162q0 -61 -20 -112.5t-50 -83.5t-65.5 -54.5t-66 -31.5t-53.5 -9t-39.5 13.5t-17.5 39.5l-2 1q-48 -54 -105 -54q-65 0 -113 51.5t-48 122.5q0 98 60.5 172.5t153.5 74.5q81 0 121 -65zM581 376q0 37 -22.5 61t-57.5 24q-49 0 -83 -42.5 t-34 -92.5q0 -40 21 -64.5t57 -24.5q51 0 85 43t34 96z"/>
<glyph glyph-name="A" horiz-adv-x="722" unicode="A" d="M360 556l-92 -284h183l-89 284h-2zM228 148l-50 -148h-158l256 718h173l253 -718h-163l-46 148h-265z"/>
<glyph glyph-name="B" horiz-adv-x="722" unicode="B" d="M220 594v-157h176q47 0 76.5 19.5t29.5 60.5q0 42 -28 59.5t-82 17.5h-172zM220 316v-192h184q115 0 115 105q0 44 -31.5 65.5t-76.5 21.5h-191zM76 0v718h349q62 0 108 -18t69 -47t33.5 -58.5t10.5 -60.5q0 -36 -8.5 -63.5t-25 -44t-27 -24t-27.5 -15.5 q111 -42 111 -174q0 -88 -62 -148q-35 -35 -80 -50t-147 -15h-304z"/>
<glyph glyph-name="C" horiz-adv-x="722" unicode="C" d="M684 483h-150q-5 19 -9 30.5t-16.5 31.5t-27.5 31.5t-43 21t-63 9.5q-30 0 -58.5 -11.5t-57 -37.5t-45.5 -78t-17 -124q0 -68 17.5 -121.5t58.5 -88.5t102 -35q63 0 104.5 34.5t54.5 100.5h150q-23 -122 -102.5 -193.5t-209.5 -71.5q-148 0 -238 98t-90 279 q0 182 92.5 280.5t237.5 98.5q77 0 137.5 -24.5t96 -63.5t54.5 -81t22 -85z"/>
<glyph glyph-name="D" horiz-adv-x="722" unicode="D" d="M223 594v-470h146q58 0 96 37t52.5 88.5t14.5 115.5q0 61 -11.5 105t-27.5 67.5t-40.5 37t-43 16.5t-42.5 3h-144zM76 0v718h317q69 0 123 -23t85 -58t50.5 -82.5t26.5 -90.5t7 -88q0 -50 -8 -98.5t-29 -100t-53.5 -90t-86 -63t-121.5 -24.5h-311z"/>
<glyph glyph-name="E" horiz-adv-x="667" unicode="E" d="M604 718v-127h-381v-151h350v-127h-350v-186h398v-127h-545v718h528z"/>
<glyph glyph-name="F" horiz-adv-x="611" unicode="F" d="M226 302v-302h-150v718h511v-127h-361v-162h316v-127h-316z"/>
<glyph glyph-name="G" horiz-adv-x="778" unicode="G" d="M413 266v121h300v-387h-100l-15 90q-21 -24 -34.5 -37t-41 -33t-65 -29.5t-83.5 -9.5q-66 0 -124.5 24t-105 69t-73.5 118.5t-27 164.5q0 75 21 142t62.5 121t110 85.5t155.5 31.5h2q78 0 140 -23.5t97.5 -61t55 -77.5t22.5 -80h-150q0 31 -43.5 74.5t-113.5 43.5 q-88 0 -147 -64t-59 -194q0 -70 18 -120.5t49 -77t66 -38t76 -11.5q13 0 28 2.5t38.5 12t43 25t37.5 46.5t27 72h-167z"/>
<glyph glyph-name="H" horiz-adv-x="722" unicode="H" d="M501 322h-280v-322h-150v718h150v-272h280v272h150v-718h-150v322z"/>
<glyph glyph-name="I" horiz-adv-x="278" unicode="I" d="M214 718v-718h-150v718h150z"/>
<glyph glyph-name="J" d="M484 718v-510q0 -226 -223 -226q-50 0 -88.5 9.5t-63.5 23t-42.5 39t-26 45.5t-13 56t-5 56.5t-0.5 59.5h140q0 -94 16 -131t72 -37q53 0 68.5 27t15.5 78v510h150z" unicode="J"/>
<glyph glyph-name="K" horiz-adv-x="722" unicode="K" d="M237 243v-243h-150v718h150v-292l274 292h194l-293 -294l310 -424h-193l-222 315z"/>
<glyph glyph-name="L" horiz-adv-x="611" unicode="L" d="M226 718v-588h357v-130h-507v718h150z"/>
<glyph glyph-name="M" horiz-adv-x="833" unicode="M" d="M765 718v-718h-140v600h-2l-134 -600h-147l-131 600h-2v-600h-140v718h219l130 -566h2l128 566h217z"/>
<glyph glyph-name="N" horiz-adv-x="722" unicode="N" d="M514 218v500h140v-718h-150l-293 512h-2v-512h-140v718h158l285 -500h2z"/>
<glyph glyph-name="O" horiz-adv-x="778" unicode="O" d="M194 359q0 -71 18.5 -123t49 -78.5t62 -38t65.5 -11.5t65.5 11.5t62 38t49 78.5t18.5 123t-18.5 123t-49 78.5t-62 38t-65.5 11.5t-65.5 -11.5t-62 -38t-49 -78.5t-18.5 -123zM44 359q0 69 14.5 126.5t37 96t54.5 67.5t63 45.5t66 26.5t60.5 13t49.5 3t49.5 -3t60.5 -13 t66 -26.5t63 -45.5t54.5 -67.5t37 -96t14.5 -126.5t-14.5 -126.5t-37 -96t-54.5 -67.5t-63 -45.5t-66 -26.5t-60.5 -13t-49.5 -3t-49.5 3t-60.5 13t-66 26.5t-63 45.5t-54.5 67.5t-37 96t-14.5 126.5z"/>
<glyph glyph-name="P" horiz-adv-x="667" unicode="P" d="M226 383h139q39 0 64 12t34.5 33.5t11.5 34.5t2 32q0 52 -31 75.5t-101 23.5h-119v-211zM226 259v-259h-150v718h328q104 0 163.5 -62t59.5 -168q0 -23 -5 -49t-20.5 -59.5t-39.5 -59t-66.5 -43.5t-97.5 -18h-172z"/>
<glyph glyph-name="Q" horiz-adv-x="778" unicode="Q" d="M737 29l-79 -81l-85 81q-82 -48 -184 -48q-24 0 -49.5 3t-60.5 13t-66 26.5t-63 45.5t-54.5 67.5t-37 96t-14.5 126.5t14.5 126.5t37 96t54.5 67.5t63 45.5t66 26.5t60.5 13t49.5 3t49.5 -3t60.5 -13t66 -26.5t63 -45.5t54.5 -67.5t37 -96t14.5 -126.5q0 -161 -75 -256z M398 195l77 81l76 -71q33 61 33 154q0 71 -18.5 123t-49 78.5t-62 38t-65.5 11.5t-65.5 -11.5t-62 -38t-49 -78.5t-18.5 -123t18.5 -123t49 -78.5t62 -38t65.5 -11.5q44 0 81 19z"/>
<glyph glyph-name="R" horiz-adv-x="722" unicode="R" d="M223 402h176q60 0 88 23t28 75q0 37 -23 65.5t-82 28.5h-187v-192zM76 0v718h363q54 0 96.5 -15.5t66 -38t38.5 -51.5t20 -52.5t5 -45.5q0 -60 -29.5 -106.5t-81.5 -64.5q51 -22 71 -55.5t20 -126.5q0 -85 4.5 -109.5t27.5 -33.5v-19h-166q-16 54 -16 145q0 42 -2.5 63.5 t-14 40.5t-35.5 25.5t-65 6.5h-155v-281h-147z"/>
<glyph glyph-name="S" horiz-adv-x="667" unicode="S" d="M39 221h144q0 -18 6 -35.5t20.5 -37t47 -31.5t78.5 -12q150 0 150 93q0 38 -30.5 55.5t-99.5 33.5l-77 18q-46 11 -69.5 17.5t-59.5 23t-53.5 36t-31.5 54t-14 80.5q0 27 6 54t24.5 58t47.5 54.5t80 39t118 15.5q78 0 135.5 -23t87 -60.5t43.5 -74.5t14 -74h-144 q-2 18 -7 31.5t-18.5 33.5t-44.5 31.5t-77 11.5q-50 0 -87.5 -20.5t-37.5 -65.5q0 -20 7 -34t20.5 -22t23.5 -11.5t25 -7.5l175 -43q42 -10 71.5 -22.5t58 -34t43.5 -56t15 -80.5q0 -51 -16 -92t-43.5 -65t-57.5 -41t-65 -24.5t-58 -10t-43 -2.5q-75 0 -132 17t-89.5 41.5 t-52.5 58.5t-26.5 63.5t-6.5 59.5z"/>
<glyph glyph-name="T" horiz-adv-x="611" unicode="T" d="M381 591v-591h-150v591h-217v127h584v-127h-217z"/>
<glyph glyph-name="U" horiz-adv-x="722" unicode="U" d="M651 718v-467q0 -138 -77 -204t-218 -66q-150 0 -228 87q-53 60 -56 174v476h153v-466q0 -71 36 -107.5t92 -36.5q145 0 145 137v473h153z"/>
<glyph glyph-name="V" horiz-adv-x="667" unicode="V" d="M336 174l156 544h156l-244 -718h-143l-242 718h161l154 -544h2z"/>
<glyph glyph-name="W" horiz-adv-x="944" unicode="W" d="M219 0l-203 718h160q95 -407 114 -525h2q36 207 100 525h159q86 -405 107 -525h2q20 112 117 525h152l-202 -718h-144q-79 375 -111 560h-2q-18 -114 -111 -560h-140z"/>
<glyph glyph-name="X" horiz-adv-x="667" unicode="X" d="M419 373l234 -373h-183l-136 245l-145 -245h-175l232 367l-219 351h179l128 -232l131 232h173z"/>
<glyph glyph-name="Y" horiz-adv-x="667" unicode="Y" d="M413 269v-269h-150v271l-248 447h177l149 -312l142 312h170z"/>
<glyph glyph-name="Z" horiz-adv-x="611" unicode="Z" d="M586 127v-127h-561v127l371 464h-361v127h549v-118l-376 -473h378z"/>
<glyph glyph-name="bracketleft" horiz-adv-x="333" unicode="[" d="M185 626v-726h124v-96h-246v918h246v-96h-124z"/>
<glyph glyph-name="backslash" horiz-adv-x="278" unicode="\" d="M194 -19l-227 756h117l227 -756h-117z"/>
<glyph glyph-name="bracketright" horiz-adv-x="333" unicode="]" d="M148 -100v726h-124v96h246v-918h-246v96h124z"/>
<glyph glyph-name="asciicircum" horiz-adv-x="584" unicode="^" d="M171 323h-109l180 375h100l180 -375h-110l-120 263z"/>
<glyph glyph-name="underscore" d="M0 -75h556v-50h-556v50z" unicode="_"/>
<glyph glyph-name="grave" horiz-adv-x="333" unicode="`" d="M124 604l-147 146h154l94 -146h-101z"/>
<glyph glyph-name="a" d="M359 191v68q-23 -18 -95 -29q-47 -8 -71 -24t-24 -56q0 -33 20 -48.5t45 -15.5q49 0 87 29t38 76zM496 392v-288q0 -72 31 -83v-21h-151q-10 30 -13 63q-22 -22 -38.5 -35.5t-53 -27.5t-80.5 -14q-67 0 -114.5 39t-47.5 116q0 75 42 117.5t113 52.5l126 19q49 7 49 42 q0 27 -17 42t-34 17.5t-41 2.5q-25 0 -42 -7t-26 -19t-12.5 -23t-5.5 -25h-135q6 58 27.5 97t57.5 57.5t71 25t82 6.5q33 0 65.5 -6t68 -21.5t57 -48t21.5 -78.5z" unicode="a"/>
<glyph glyph-name="b" horiz-adv-x="611" unicode="b" d="M201 718v-255h2q54 83 154 83q94 0 157.5 -71.5t63.5 -202.5q0 -120 -56.5 -203t-167.5 -83q-108 0 -154 81h-2v-67h-137v718h140zM434 262q0 71 -28.5 117t-90.5 46q-120 0 -120 -171q0 -65 30.5 -109t93.5 -44q42 0 69.5 28.5t36.5 62.5t9 70z"/>
<glyph glyph-name="c" d="M381 194h142q-2 -27 -13.5 -57t-36 -66.5t-75 -60.5t-118.5 -24q-71 0 -122 25t-76.5 66.5t-36.5 84t-11 89.5q0 136 63 215.5t192 79.5q36 0 71 -9t72 -30t62 -63.5t30 -101.5h-142q-6 34 -26 60t-60 26h-7q-41 0 -67.5 -26t-35 -58t-8.5 -70q0 -31 2.5 -53t11.5 -53.5 t33 -49t61 -17.5q47 0 71 32.5t24 60.5z" unicode="c"/>
<glyph glyph-name="d" horiz-adv-x="611" unicode="d" d="M178 262q0 -36 9 -70t36.5 -62.5t69.5 -28.5q63 0 93.5 44t30.5 109q0 171 -120 171q-62 0 -90.5 -46t-28.5 -117zM551 718v-718h-137v67h-2q-46 -81 -154 -81q-111 0 -167.5 83t-56.5 203q0 131 63.5 202.5t157.5 71.5q100 0 154 -83h2v255h140z"/>
<glyph glyph-name="e" d="M167 319h217q-5 59 -36.5 85.5t-71.5 26.5q-96 0 -109 -112zM378 156h144q-26 -89 -91 -129.5t-143 -40.5q-265 0 -265 291q0 26 4 53.5t19.5 68.5t41 71.5t75 53t115.5 22.5q35 0 67 -7t66.5 -26.5t59.5 -51t41 -85t16 -123.5v-25h-365q2 -19 3.5 -30t9.5 -32.5t20 -34 t36 -23t56 -10.5q31 0 56.5 15.5t33.5 42.5z" unicode="e"/>
<glyph glyph-name="f" horiz-adv-x="333" unicode="f" d="M227 432v-432h-140v432h-77v100h77v43q0 152 156 152q48 0 72 -2v-113h-39q-34 0 -41.5 -11.5t-7.5 -47.5v-21h91v-100h-91z"/>
<glyph glyph-name="g" horiz-adv-x="611" unicode="g" d="M184 263q0 -60 27 -104t84 -44q65 0 92 44.5t27 109.5q0 67 -32 111.5t-88 44.5q-46 0 -78 -38.5t-32 -123.5zM419 532h134v-504q0 -30 -2 -50.5t-9.5 -53t-25 -54.5t-46 -43.5t-76 -32.5t-110.5 -11q-92 0 -160 40.5t-72 119.5h152q4 -17 10 -27t28 -18.5t60 -8.5 q57 0 84 29t27 93v64l-2 2q-21 -37 -53 -58.5t-89 -21.5q-101 0 -165 70.5t-64 204.5q0 131 63.5 202.5t157.5 71.5q111 0 156 -93h2v79z"/>
<glyph glyph-name="h" horiz-adv-x="611" unicode="h" d="M546 368v-368h-140v323q0 16 -1 26.5t-5.5 27t-13.5 26.5t-27.5 17.5t-43.5 7.5q-48 0 -79 -32t-31 -91v-305h-140v718h140v-255h2q14 35 56.5 59t97.5 24q81 0 133 -46.5t52 -131.5z"/>
<glyph glyph-name="i" horiz-adv-x="278" unicode="i" d="M209 725v-130h-140v130h140zM69 532h140v-532h-140v532z"/>
<glyph glyph-name="j" horiz-adv-x="278" unicode="j" d="M209 725v-130h-140v130h140zM209 532v-588q0 -97 -40.5 -127.5t-130.5 -30.5h-35v112h25q8 0 13 1t12.5 5t11.5 15t4 28v585h140z"/>
<glyph glyph-name="k" d="M209 168v-168h-140v718h140v-388l176 202h172l-188 -206l193 -326h-168l-127 228z" unicode="k"/>
<glyph glyph-name="l" horiz-adv-x="278" unicode="l" d="M209 718v-718h-140v718h140z"/>
<glyph glyph-name="m" horiz-adv-x="889" unicode="m" d="M826 368v-368h-140v323q0 105 -76 105q-95 0 -95 -109v-319h-140v320q0 19 -0.5 29.5t-5 27.5t-12.5 26.5t-25 17t-41 7.5q-87 0 -87 -104v-324h-140v532h134v-78h2q47 92 151 92q55 0 87 -20t61 -65q15 22 26.5 35.5t44 31.5t71.5 18q81 0 133 -46.5t52 -131.5z"/>
<glyph glyph-name="n" horiz-adv-x="611" unicode="n" d="M546 368v-368h-140v323q0 16 -1 26.5t-5.5 27t-13.5 26.5t-27.5 17.5t-43.5 7.5q-48 0 -79 -32t-31 -91v-305h-140v532h134v-78h2q55 92 160 92q81 0 133 -46.5t52 -131.5z"/>
<glyph glyph-name="o" horiz-adv-x="611" unicode="o" d="M434 266q0 29 -5 54.5t-18 51.5t-40 41t-65 15t-65 -15t-40 -41t-18 -51.5t-5 -54.5t5 -54.5t18 -51.5t40 -41t65 -15t65 15t40 41t18 51.5t5 54.5zM578 266q0 -136 -78 -208t-194 -72t-194 72t-78 208t78 208t194 72t194 -72t78 -208z"/>
<glyph glyph-name="p" horiz-adv-x="611" unicode="p" d="M196 532v-77h2q25 41 60.5 66t98.5 25q94 0 157.5 -71.5t63.5 -202.5q0 -120 -56.5 -203t-167.5 -83q-102 0 -150 82h-2v-275h-140v739h134zM196 254q0 -65 30.5 -109t92.5 -44q42 0 69.5 28.5t36.5 62.5t9 70q0 71 -28.5 117t-90.5 46q-119 0 -119 -171z"/>
<glyph glyph-name="q" horiz-adv-x="611" unicode="q" d="M178 256q0 -152 120 -152q52 0 84.5 40.5t32.5 118.5q0 51 -14 86.5t-36 50t-38.5 20t-31.5 5.5q-49 0 -83 -38.5t-34 -130.5zM418 532h134v-739h-140v273h-2q-43 -80 -151 -80q-48 0 -87.5 17.5t-64.5 45t-42 63.5t-24 71.5t-7 71.5q0 78 23 141.5t77 106.5t133 43 q96 0 149 -93h2v79z"/>
<glyph glyph-name="r" horiz-adv-x="389" unicode="r" d="M64 0v532h134v-92h2q18 34 32 53t44 36t70 17q9 0 27 -2v-142q-12 2 -40 2q-129 0 -129 -127v-277h-140z"/>
<glyph glyph-name="s" d="M503 370h-137q-4 21 -10 34t-27 24.5t-57 11.5q-86 0 -86 -52q0 -23 34.5 -36t83 -22t97.5 -23t83.5 -49t34.5 -89q0 -55 -24 -93.5t-62.5 -56.5t-74 -25.5t-72.5 -7.5q-49 0 -91 9t-80 29t-61 57.5t-24 88.5h144q0 -78 116 -78q48 0 68.5 17.5t20.5 37.5q0 24 -34 37.5 t-82.5 22t-97 22.5t-82.5 49t-34 90q0 32 11 61.5t34 56.5t67 43.5t103 16.5q226 0 239 -176z" unicode="s"/>
<glyph glyph-name="t" horiz-adv-x="333" unicode="t" d="M222 676v-144h87v-100h-87v-289q0 -26 9 -34.5t49 -8.5q9 0 29 2v-106q-44 -2 -66 -2h-18q-84 0 -113.5 28.5t-29.5 86.5v323h-72v100h72v144h140z"/>
<glyph glyph-name="u" horiz-adv-x="611" unicode="u" d="M545 532v-532h-134v75h-2q-50 -89 -162 -89q-83 0 -132 49t-49 147v350h140v-330q0 -98 91 -98q42 0 75 28.5t33 92.5v307h140z"/>
<glyph glyph-name="v" d="M543 532l-192 -532h-147l-191 532h156l110 -392h2l113 392h149z" unicode="v"/>
<glyph glyph-name="w" horiz-adv-x="778" unicode="w" d="M769 532l-153 -532h-144l-83 388h-2l-83 -388h-144l-150 532h149l83 -382h2l75 382h141l80 -382h2l83 382h144z"/>
<glyph glyph-name="x" d="M360 271l181 -271h-173l-92 160l-92 -160h-169l181 271l-174 261h170l90 -155l88 155h165z" unicode="x"/>
<glyph glyph-name="y" d="M539 532l-183 -523q-27 -82 -42.5 -119.5t-39.5 -64.5t-49.5 -33t-74.5 -6q-23 0 -63 2v112q12 -2 27 -2q43 0 63 14.5t29 65.5l-196 554h156l114 -392h2l109 392h148z" unicode="y"/>
<glyph glyph-name="z" horiz-adv-x="500" unicode="z" d="M470 417l-269 -302h279v-115h-460v109l273 311h-254v112h431v-115z"/>
<glyph glyph-name="braceleft" horiz-adv-x="389" unicode="{" d="M365 -108v-88h-83q-54 0 -97 36t-43 101v200q0 41 -31.5 58.5t-62.5 17.5v92q31 0 62.5 17.5t31.5 58.5v200q0 65 43 101t97 36h83v-88h-45q-56 0 -56 -66v-196q-7 -56 -42.5 -80.5t-71.5 -27.5v-2q36 -3 71.5 -27.5t42.5 -80.5v-196q0 -66 56 -66h45z"/>
<glyph glyph-name="bar" horiz-adv-x="280" unicode="|" d="M84 775h112v-1000h-112v1000z"/>
<glyph glyph-name="braceright" horiz-adv-x="389" unicode="}" d="M341 309v-92q-31 0 -62.5 -17.5t-31.5 -58.5v-200q0 -65 -43 -101t-97 -36h-83v88h45q56 0 56 66v196q7 56 42.5 80.5t71.5 27.5v2q-36 3 -71.5 27.5t-42.5 80.5v196q0 66 -56 66h-45v88h83q54 0 97 -36t43 -101v-200q0 -41 31.5 -58.5t62.5 -17.5z"/>
<glyph glyph-name="asciitilde" horiz-adv-x="584" unicode="~" d="M487 343l36 -90q-20 -27 -33 -42t-38 -29.5t-54 -14.5q-42 0 -102 33q-64 36 -115 36t-84 -73l-36 90q45 86 125 86q39 0 111 -32q8 -3 27 -12t28.5 -13t23.5 -8t23 -4q19 0 36.5 12.5t26.5 24.5t25 36z"/>
<glyph glyph-name="uni00A0" horiz-adv-x="278" unicode=" "/>
<glyph glyph-name="exclamdown" horiz-adv-x="333" unicode="¡" d="M90 -3l40 336h74l40 -336v-183h-154v183zM94 391v141h146v-141h-146z"/>
<glyph glyph-name="cent" d="M524 342h-142q-9 46 -34 68l-87 -305q9 -4 25 -4q47 0 71 32.5t24 60.5h142q-2 -27 -13.5 -57t-36 -66.5t-75 -60.5t-118.5 -24q-30 0 -51 4l-31 -108h-52l34 120q-54 20 -88.5 64t-46 89t-11.5 96q0 136 63 215.5t192 79.5q21 0 45 -3l24 85h52l-28 -98 q130 -44 142 -188zM216 129l85 299h-12q-41 0 -67.5 -26t-35 -58t-8.5 -70q0 -107 38 -145z" unicode="¢"/>
<glyph glyph-name="sterling" d="M376 381v-60h-119q5 -30 5 -53q0 -61 -43 -111q-14 -18 -59 -54l2 -2q66 26 113 26q35 0 71 -11q42 -14 53 -14q47 0 101 36l41 -109q-74 -45 -152 -45q-47 0 -97 18q-63 22 -97 22q-31 0 -109 -35l-54 97q24 9 67.5 54.5t43.5 91.5q0 45 -23 89h-92v60h58 q-25 55 -33 80.5t-8 61.5q0 30 13 61.5t39 62.5t75 51t112 20q43 0 81.5 -10.5t75.5 -35t60 -72t24 -113.5h-131q-9 61 -30.5 90t-80.5 29q-51 0 -74.5 -30t-23.5 -62q0 -27 48 -133h143z" unicode="£"/>
<glyph glyph-name="currency" d="M-3 142l98 98q-31 51 -31 117t31 115l-98 98l66 66l98 -98q54 33 117 33q67 0 117 -33l98 98l66 -66l-98 -98q33 -50 33 -115q0 -67 -33 -117l98 -98l-66 -66l-98 98q-50 -33 -117 -33q-63 0 -117 33l-98 -98zM278 244q46 0 75 32.5t29 80.5t-29 79.5t-75 31.5t-74 -31.5 t-28 -79.5t28 -80.5t74 -32.5z" unicode="¤"/>
<glyph glyph-name="yen" d="M549 405v-60h-165l-38 -75h203v-60h-204v-210h-127v210h-203v60h203l-40 75h-163v60h131l-155 293h150l144 -294l138 294h142l-150 -293h134z" unicode="¥"/>
<glyph glyph-name="brokenbar" horiz-adv-x="280" unicode="¦" d="M84 -150v350h112v-350h-112zM84 350v350h112v-350h-112z"/>
<glyph glyph-name="section" d="M341 309l-146 74q-21 -7 -32 -26t-11 -32q0 -38 46 -62l157 -84q43 24 43 66q0 35 -57 64zM240 512l162 -81q58 -29 89 -65t31 -98q0 -27 -24 -70t-71 -64q62 -51 62 -128q0 -90 -63.5 -140t-152.5 -50q-50 0 -89.5 15t-61.5 36.5t-36 49t-18.5 48t-4.5 38.5h132 q9 -81 88 -81q40 0 56 23.5t16 47.5t-14 38t-45 30l-153 78q-57 29 -83 64t-26 97q0 80 93 132q-52 47 -52 116q0 73 54.5 126t147.5 53q82 0 140 -42.5t62 -140.5h-127q-5 77 -78 77q-33 0 -52.5 -17.5t-19.5 -38.5q0 -34 38 -53z" unicode="§"/>
<glyph glyph-name="dieresis" horiz-adv-x="333" unicode="¨" d="M327 729v-115h-126v115h126zM132 729v-115h-126v115h126z"/>
<glyph glyph-name="copyright" horiz-adv-x="737" unicode="©" d="M473 303h90q-12 -74 -62 -115.5t-117 -41.5q-93 0 -150.5 62t-57.5 155q0 95 56 155.5t150 60.5q70 0 117.5 -39.5t59.5 -113.5h-86q-6 33 -31.5 49.5t-59.5 16.5q-48 0 -75.5 -34.5t-27.5 -92.5q0 -56 29.5 -94t75.5 -38q38 0 62 18t27 52zM640 360q0 128 -79 209 t-192 81q-115 0 -193 -81t-78 -209t77.5 -209.5t191.5 -81.5h2v-1q113 0 192 82t79 210zM749 360q0 -115 -53.5 -203t-139 -132t-187.5 -44t-187.5 44t-139 132t-53.5 203q0 172 111.5 274.5t268.5 102.5t268.5 -102.5t111.5 -274.5z"/>
<glyph glyph-name="ordfeminine" horiz-adv-x="370" unicode="ª" d="M238 525v40q-17 -11 -62 -17q-29 -4 -44.5 -14.5t-15.5 -34.5q0 -19 12.5 -28t28.5 -9q32 0 56.5 17.5t24.5 45.5zM326 644v-173q0 -43 21 -49v-13h-98q-6 17 -8 38q-48 -46 -112 -46q-44 0 -75.5 23.5t-31.5 69.5q0 45 28 71.5t74 32.5l82 11q32 5 32 23q0 34 -60 34 q-49 0 -56 -41h-87q7 66 48 89t106 23q22 0 43 -3.5t43.5 -13t36.5 -29t14 -47.5z"/>
<glyph glyph-name="guillemotleft" d="M468 368l-100 -88l100 -88v-116l-167 144v120l167 144v-116zM255 368l-100 -88l100 -88v-116l-167 144v120l167 144v-116z" unicode="«"/>
<glyph glyph-name="logicalnot" horiz-adv-x="584" unicode="¬" d="M432 108v199h-392v112h504v-311h-112z"/>
<glyph glyph-name="uni00AD" horiz-adv-x="333" unicode="­" d="M306 345v-130h-279v130h279z"/>
<glyph glyph-name="registered" horiz-adv-x="737" unicode="®" d="M639 359q0 128 -79 209t-191 81q-115 0 -193 -81t-78 -209t77.5 -209t191.5 -81h2v-1q112 0 191 81.5t79 209.5zM748 359q0 -87 -31 -159.5t-83.5 -119.5t-121 -73t-143.5 -26q-102 0 -187.5 43.5t-139 131.5t-53.5 203t53.5 203t139 131.5t187.5 43.5q75 0 143.5 -26 t121 -73t83.5 -119.5t31 -159.5zM306 396h77q32 0 47 10.5t15 42.5q0 45 -78 45h-61v-98zM306 327v-171h-87v407h152q83 0 125 -28t42 -95q0 -99 -98 -106l104 -178h-103l-94 171h-41z"/>
<glyph glyph-name="macron" horiz-adv-x="333" unicode="¯" d="M339 678v-74h-345v74h345z"/>
<glyph glyph-name="degree" horiz-adv-x="400" unicode="°" d="M113 569q0 -36 25.5 -61.5t61.5 -25.5t61.5 25.5t25.5 61.5t-25.5 61.5t-61.5 25.5t-61.5 -25.5t-25.5 -61.5zM57 569q0 59 42 101t101 42t101 -42t42 -101t-42 -101t-101 -42t-101 42t-42 101z"/>
<glyph glyph-name="plusminus" horiz-adv-x="584" unicode="±" d="M40 0v112h504v-112h-504zM236 381v125h112v-125h196v-112h-196v-126h-112v126h-196v112h196z"/>
<glyph glyph-name="twosuperior" horiz-adv-x="333" unicode="²" d="M102 558h-88q0 49 17 82t44 46.5t48 18.5t42 5q68 0 113 -36t45 -99q0 -86 -88 -139q-77 -47 -97 -71h186v-82h-315q1 23 4.5 39.5t13.5 39.5t31.5 45.5t53.5 44.5q50 34 69 48.5t33 34.5t14 43v3l1 2q0 17 -16 32.5t-44 15.5q-22 0 -37 -7.5t-20.5 -21t-7 -22 t-2.5 -22.5z"/>
<glyph glyph-name="threesuperior" horiz-adv-x="333" unicode="³" d="M101 573h-85q0 62 39 99.5t114 37.5q56 0 99.5 -29t43.5 -90q0 -31 -16.5 -52t-38.5 -30v-2q12 -3 25.5 -11t28.5 -31.5t15 -56.5q0 -60 -43.5 -98.5t-113.5 -38.5q-23 0 -44.5 4t-51 16.5t-47.5 44t-18 77.5h89q0 -67 67 -67q64 0 64 62q0 20 -8.5 33t-25.5 18 t-30.5 6.5t-34.5 1.5v64h15q15 0 23.5 1t22 5.5t20.5 16t7 30.5q0 51 -54 51q-62 0 -62 -62z"/>
<glyph glyph-name="acute" horiz-adv-x="333" unicode="´" d="M356 750l-147 -146h-101l94 146h154z"/>
<glyph glyph-name="mu" horiz-adv-x="611" unicode="µ" d="M546 0h-134v75h-2q-39 -89 -113 -89q-64 0 -92 57v-250h-140v739h140v-310q0 -118 92 -118q43 0 76 32.5t33 108.5v287h140v-532z"/>
<glyph glyph-name="paragraph" d="M214 -191v538q-106 0 -164 46t-58 127q0 100 64.5 140t179.5 40h303v-891h-112v806h-101v-806h-112z" unicode="¶"/>
<glyph glyph-name="periodcentered" horiz-adv-x="278" unicode="·" d="M58 253q0 34 23.5 57.5t57.5 23.5t57.5 -23.5t23.5 -57.5t-23 -57.5t-58 -23.5t-58 23.5t-23 57.5z"/>
<glyph glyph-name="cedilla" horiz-adv-x="333" unicode="¸" d="M52 -84l57 84h57l-38 -55q16 4 30 4q30 0 58.5 -18t28.5 -60q0 -44 -34.5 -71.5t-89.5 -27.5q-46 0 -115 25l22 48q52 -16 77 -16q17 0 32 10.5t15 28.5q0 16 -11.5 26t-27.5 10q-14 0 -40 -8z"/>
<glyph glyph-name="onesuperior" horiz-adv-x="333" unicode="¹" d="M26 574v62h13q59 0 85 22t28 52h85v-427h-101v291h-110z"/>
<glyph glyph-name="ordmasculine" horiz-adv-x="365" unicode="º" d="M262 569q0 41 -21 68.5t-58 27.5t-58 -27.5t-21 -68.5t21 -68.5t58 -27.5t58 27.5t21 68.5zM360 569q0 -66 -44.5 -117t-132.5 -51t-132.5 51t-44.5 117t44.5 117t132.5 51t132.5 -51t44.5 -117z"/>
<glyph glyph-name="guillemotright" d="M188 280l-100 88v116l167 -144v-120l-167 -144v116zM401 280l-100 88v116l167 -144v-120l-167 -144v116z" unicode="»"/>
<glyph glyph-name="onequarter" horiz-adv-x="834" unicode="¼" d="M26 574v62h13q59 0 85 22t28 52h85v-427h-101v291h-110zM136 -19l428 729h78l-427 -729h-79zM716 424v-265h50v-69h-50v-90h-95v90h-183v74l170 260h108zM510 157h115q0 45 0.5 87.5t1 67.5t0.5 28h-2z"/>
<glyph glyph-name="onehalf" horiz-adv-x="834" unicode="½" d="M572 275h-88q0 49 17 82t44 46.5t48 18.5t42 5q68 0 113 -36t45 -99q0 -86 -88 -139q-77 -47 -97 -71h186v-82h-315q1 23 4.5 39.5t13.5 39.5t31.5 45.5t53.5 44.5q50 34 69 48.5t33 34.5t14 43v3l1 2q0 17 -16 32.5t-44 15.5q-22 0 -37 -7.5t-20.5 -21t-7 -22 t-2.5 -22.5zM26 574v62h13q59 0 85 22t28 52h85v-427h-101v291h-110zM136 -19l428 729h78l-427 -729h-79z"/>
<glyph glyph-name="threequarters" horiz-adv-x="834" unicode="¾" d="M542 159h112q0 45 0.5 86.5t1 65.5t0.5 25h-2zM641 424h108v-265h50v-69h-50v-90h-95v90h-183v74zM109 573h-85q0 62 39 99.5t114 37.5q56 0 99.5 -29t43.5 -90q0 -31 -16.5 -52t-38.5 -30v-2q12 -3 25.5 -11t28.5 -31.5t15 -56.5q0 -60 -43.5 -98.5t-113.5 -38.5 q-23 0 -44.5 4t-51 16.5t-47.5 44t-18 77.5h89q0 -67 67 -67q64 0 64 62q0 20 -8.5 33t-25.5 18t-30.5 6.5t-34.5 1.5v64h15q15 0 23.5 1t22 5.5t20.5 16t7 30.5q0 51 -54 51q-62 0 -62 -62zM608 710h78l-427 -729h-79z"/>
<glyph glyph-name="questiondown" horiz-adv-x="611" unicode="¿" d="M227 391v141h146v-141h-146zM237 324h132q0 -77 -18 -117t-84 -86q-62 -43 -62 -99q0 -53 29 -76t68 -23q32 0 54 10.5t32.5 30t15 36t6.5 38.5v1h141q0 -50 -14.5 -91t-38.5 -67t-55.5 -43.5t-64.5 -25t-67 -7.5q-24 0 -50 3t-65.5 16t-68.5 34t-50.5 63t-21.5 97 q0 57 29 98t92 86q35 25 48 48t13 74z"/>
<glyph glyph-name="Agrave" horiz-adv-x="722" unicode="À" d="M319 790l-147 146h154l94 -146h-101zM360 556l-92 -284h183l-89 284h-2zM228 148l-50 -148h-158l256 718h173l253 -718h-163l-46 148h-265z"/>
<glyph glyph-name="Aacute" horiz-adv-x="722" unicode="Á" d="M551 936l-147 -146h-101l94 146h154zM360 556l-92 -284h183l-89 284h-2zM228 148l-50 -148h-158l256 718h173l253 -718h-163l-46 148h-265z"/>
<glyph glyph-name="Acircumflex" horiz-adv-x="722" unicode="Â" d="M424 936l114 -146h-113l-64 82l-63 -82h-113l114 146h125zM360 556l-92 -284h183l-89 284h-2zM228 148l-50 -148h-158l256 718h173l253 -718h-163l-46 148h-265z"/>
<glyph glyph-name="Atilde" horiz-adv-x="722" unicode="Ã" d="M480 923h65q-2 -12 -5 -24t-11.5 -30.5t-19.5 -32t-30 -23.5t-43 -10q-28 0 -76 16q-64 20 -71 20q-23 0 -33.5 -14.5t-13.5 -28.5h-64q10 48 29 76q34 47 92 47q22 0 72 -19q44 -17 62 -17q38 0 47 40zM360 556l-92 -284h183l-89 284h-2zM228 148l-50 -148h-158l256 718 h173l253 -718h-163l-46 148h-265z"/>
<glyph glyph-name="Adieresis" horiz-adv-x="722" unicode="Ä" d="M522 915v-115h-126v115h126zM327 915v-115h-126v115h126zM360 556l-92 -284h183l-89 284h-2zM228 148l-50 -148h-158l256 718h173l253 -718h-163l-46 148h-265z"/>
<glyph glyph-name="Aring" horiz-adv-x="722" unicode="Å" d="M414 858q0 22 -15 37t-37 15t-37 -15t-15 -37t15 -37t37 -15t37 15t15 37zM470 858q0 -45 -34 -74.5t-74 -29.5t-74 29.5t-34 74.5t34 74.5t74 29.5t74 -29.5t34 -74.5zM360 556l-92 -284h183l-89 284h-2zM228 148l-50 -148h-158l256 718h173l253 -718h-163l-46 148h-265 z"/>
<glyph glyph-name="AE" horiz-adv-x="1000" unicode="Æ" d="M253 271h176v320h-65zM576 313v-186h378v-127h-525v153h-215l-52 -153h-157l262 718h680v-127h-371v-151h334v-127h-334z"/>
<glyph glyph-name="Ccedilla" horiz-adv-x="722" unicode="Ç" d="M534 246h150q-23 -118 -97 -188.5t-197 -75.5l-26 -37q16 4 30 4q30 0 58.5 -18t28.5 -60q0 -44 -34.5 -71.5t-89.5 -27.5q-46 0 -115 25l22 48q52 -16 77 -16q17 0 32 10.5t15 28.5q0 16 -11.5 26t-27.5 10q-14 0 -40 -8l-21 20l44 67q-131 13 -209.5 110t-78.5 265 q0 182 92.5 280.5t237.5 98.5q77 0 137.5 -24.5t96 -63.5t54.5 -81t22 -85h-150q-5 19 -9 30.5t-16.5 31.5t-27.5 31.5t-43 21t-63 9.5q-30 0 -58.5 -11.5t-57 -37.5t-45.5 -78t-17 -124q0 -68 17.5 -121.5t58.5 -88.5t102 -35q63 0 104.5 34.5t54.5 100.5z"/>
<glyph glyph-name="Egrave" horiz-adv-x="667" unicode="È" d="M291 790l-147 146h154l94 -146h-101zM604 718v-127h-381v-151h350v-127h-350v-186h398v-127h-545v718h528z"/>
<glyph glyph-name="Eacute" horiz-adv-x="667" unicode="É" d="M523 936l-147 -146h-101l94 146h154zM604 718v-127h-381v-151h350v-127h-350v-186h398v-127h-545v718h528z"/>
<glyph glyph-name="Ecircumflex" horiz-adv-x="667" unicode="Ê" d="M396 936l114 -146h-113l-64 82l-63 -82h-113l114 146h125zM604 718v-127h-381v-151h350v-127h-350v-186h398v-127h-545v718h528z"/>
<glyph glyph-name="Edieresis" horiz-adv-x="667" unicode="Ë" d="M494 915v-115h-126v115h126zM299 915v-115h-126v115h126zM604 718v-127h-381v-151h350v-127h-350v-186h398v-127h-545v718h528z"/>
<glyph glyph-name="Igrave" horiz-adv-x="278" unicode="Ì" d="M97 790l-147 146h154l94 -146h-101zM214 718v-718h-150v718h150z"/>
<glyph glyph-name="Iacute" horiz-adv-x="278" unicode="Í" d="M329 936l-147 -146h-101l94 146h154zM214 718v-718h-150v718h150z"/>
<glyph glyph-name="Icircumflex" horiz-adv-x="278" unicode="Î" d="M202 936l114 -146h-113l-64 82l-63 -82h-113l114 146h125zM214 718v-718h-150v718h150z"/>
<glyph glyph-name="Idieresis" horiz-adv-x="278" unicode="Ï" d="M300 915v-115h-126v115h126zM105 915v-115h-126v115h126zM214 718v-718h-150v718h150z"/>
<glyph glyph-name="Eth" horiz-adv-x="722" unicode="Ð" d="M223 594v-154h166v-124h-166v-192h146q58 0 96 37t52.5 88.5t14.5 115.5q0 61 -11.5 105t-27.5 67.5t-40.5 37t-43 16.5t-42.5 3h-144zM76 316h-81v124h81v278h317q69 0 123 -23t85 -58t50.5 -82.5t26.5 -90.5t7 -88q0 -50 -8 -98.5t-29 -100t-53.5 -90t-86 -63 t-121.5 -24.5h-311v316z"/>
<glyph glyph-name="Ntilde" horiz-adv-x="722" unicode="Ñ" d="M480 923h65q-2 -12 -5 -24t-11.5 -30.5t-19.5 -32t-30 -23.5t-43 -10q-28 0 -76 16q-64 20 -71 20q-23 0 -33.5 -14.5t-13.5 -28.5h-64q10 48 29 76q34 47 92 47q22 0 72 -19q44 -17 62 -17q38 0 47 40zM514 218v500h140v-718h-150l-293 512h-2v-512h-140v718h158 l285 -500h2z"/>
<glyph glyph-name="Ograve" horiz-adv-x="778" unicode="Ò" d="M347 790l-147 146h154l94 -146h-101zM194 359q0 -71 18.5 -123t49 -78.5t62 -38t65.5 -11.5t65.5 11.5t62 38t49 78.5t18.5 123t-18.5 123t-49 78.5t-62 38t-65.5 11.5t-65.5 -11.5t-62 -38t-49 -78.5t-18.5 -123zM44 359q0 69 14.5 126.5t37 96t54.5 67.5t63 45.5 t66 26.5t60.5 13t49.5 3t49.5 -3t60.5 -13t66 -26.5t63 -45.5t54.5 -67.5t37 -96t14.5 -126.5t-14.5 -126.5t-37 -96t-54.5 -67.5t-63 -45.5t-66 -26.5t-60.5 -13t-49.5 -3t-49.5 3t-60.5 13t-66 26.5t-63 45.5t-54.5 67.5t-37 96t-14.5 126.5z"/>
<glyph glyph-name="Oacute" horiz-adv-x="778" unicode="Ó" d="M579 936l-147 -146h-101l94 146h154zM194 359q0 -71 18.5 -123t49 -78.5t62 -38t65.5 -11.5t65.5 11.5t62 38t49 78.5t18.5 123t-18.5 123t-49 78.5t-62 38t-65.5 11.5t-65.5 -11.5t-62 -38t-49 -78.5t-18.5 -123zM44 359q0 69 14.5 126.5t37 96t54.5 67.5t63 45.5 t66 26.5t60.5 13t49.5 3t49.5 -3t60.5 -13t66 -26.5t63 -45.5t54.5 -67.5t37 -96t14.5 -126.5t-14.5 -126.5t-37 -96t-54.5 -67.5t-63 -45.5t-66 -26.5t-60.5 -13t-49.5 -3t-49.5 3t-60.5 13t-66 26.5t-63 45.5t-54.5 67.5t-37 96t-14.5 126.5z"/>
<glyph glyph-name="Ocircumflex" horiz-adv-x="778" unicode="Ô" d="M452 936l114 -146h-113l-64 82l-63 -82h-113l114 146h125zM194 359q0 -71 18.5 -123t49 -78.5t62 -38t65.5 -11.5t65.5 11.5t62 38t49 78.5t18.5 123t-18.5 123t-49 78.5t-62 38t-65.5 11.5t-65.5 -11.5t-62 -38t-49 -78.5t-18.5 -123zM44 359q0 69 14.5 126.5t37 96 t54.5 67.5t63 45.5t66 26.5t60.5 13t49.5 3t49.5 -3t60.5 -13t66 -26.5t63 -45.5t54.5 -67.5t37 -96t14.5 -126.5t-14.5 -126.5t-37 -96t-54.5 -67.5t-63 -45.5t-66 -26.5t-60.5 -13t-49.5 -3t-49.5 3t-60.5 13t-66 26.5t-63 45.5t-54.5 67.5t-37 96t-14.5 126.5z"/>
<glyph glyph-name="Otilde" horiz-adv-x="778" unicode="Õ" d="M508 923h65q-2 -12 -5 -24t-11.5 -30.5t-19.5 -32t-30 -23.5t-43 -10q-28 0 -76 16q-64 20 -71 20q-23 0 -33.5 -14.5t-13.5 -28.5h-64q10 48 29 76q34 47 92 47q22 0 72 -19q44 -17 62 -17q38 0 47 40zM194 359q0 -71 18.5 -123t49 -78.5t62 -38t65.5 -11.5t65.5 11.5 t62 38t49 78.5t18.5 123t-18.5 123t-49 78.5t-62 38t-65.5 11.5t-65.5 -11.5t-62 -38t-49 -78.5t-18.5 -123zM44 359q0 69 14.5 126.5t37 96t54.5 67.5t63 45.5t66 26.5t60.5 13t49.5 3t49.5 -3t60.5 -13t66 -26.5t63 -45.5t54.5 -67.5t37 -96t14.5 -126.5t-14.5 -126.5 t-37 -96t-54.5 -67.5t-63 -45.5t-66 -26.5t-60.5 -13t-49.5 -3t-49.5 3t-60.5 13t-66 26.5t-63 45.5t-54.5 67.5t-37 96t-14.5 126.5z"/>
<glyph glyph-name="Odieresis" horiz-adv-x="778" unicode="Ö" d="M550 915v-115h-126v115h126zM355 915v-115h-126v115h126zM194 359q0 -71 18.5 -123t49 -78.5t62 -38t65.5 -11.5t65.5 11.5t62 38t49 78.5t18.5 123t-18.5 123t-49 78.5t-62 38t-65.5 11.5t-65.5 -11.5t-62 -38t-49 -78.5t-18.5 -123zM44 359q0 69 14.5 126.5t37 96 t54.5 67.5t63 45.5t66 26.5t60.5 13t49.5 3t49.5 -3t60.5 -13t66 -26.5t63 -45.5t54.5 -67.5t37 -96t14.5 -126.5t-14.5 -126.5t-37 -96t-54.5 -67.5t-63 -45.5t-66 -26.5t-60.5 -13t-49.5 -3t-49.5 3t-60.5 13t-66 26.5t-63 45.5t-54.5 67.5t-37 96t-14.5 126.5z"/>
<glyph glyph-name="multiply" horiz-adv-x="584" unicode="×" d="M213 253l-173 173l79 79l173 -173l173 173l79 -79l-173 -173l174 -173l-80 -79l-173 173l-172 -173l-80 79z"/>
<glyph glyph-name="Oslash" horiz-adv-x="778" unicode="Ø" d="M556 501l-304 -333q53 -60 137 -60q34 0 65.5 11.5t62 38t49 78.5t18.5 123q0 89 -28 142zM221 218l304 333q-54 59 -136 59q-34 0 -65.5 -11.5t-62 -38t-49 -78.5t-18.5 -123q0 -85 27 -141zM744 707l-84 -92q74 -96 74 -256q0 -69 -14.5 -126.5t-37 -96t-54.5 -67.5 t-63 -45.5t-66 -26.5t-60.5 -13t-49.5 -3q-139 0 -232 82l-82 -90l-42 38l85 93q-74 95 -74 255q0 69 14.5 126.5t37 96t54.5 67.5t63 45.5t66 26.5t60.5 13t49.5 3q137 0 232 -81l81 89z"/>
<glyph glyph-name="Ugrave" horiz-adv-x="722" unicode="Ù" d="M319 790l-147 146h154l94 -146h-101zM651 718v-467q0 -138 -77 -204t-218 -66q-150 0 -228 87q-53 60 -56 174v476h153v-466q0 -71 36 -107.5t92 -36.5q145 0 145 137v473h153z"/>
<glyph glyph-name="Uacute" horiz-adv-x="722" unicode="Ú" d="M551 936l-147 -146h-101l94 146h154zM651 718v-467q0 -138 -77 -204t-218 -66q-150 0 -228 87q-53 60 -56 174v476h153v-466q0 -71 36 -107.5t92 -36.5q145 0 145 137v473h153z"/>
<glyph glyph-name="Ucircumflex" horiz-adv-x="722" unicode="Û" d="M424 936l114 -146h-113l-64 82l-63 -82h-113l114 146h125zM651 718v-467q0 -138 -77 -204t-218 -66q-150 0 -228 87q-53 60 -56 174v476h153v-466q0 -71 36 -107.5t92 -36.5q145 0 145 137v473h153z"/>
<glyph glyph-name="Udieresis" horiz-adv-x="722" unicode="Ü" d="M522 915v-115h-126v115h126zM327 915v-115h-126v115h126zM651 718v-467q0 -138 -77 -204t-218 -66q-150 0 -228 87q-53 60 -56 174v476h153v-466q0 -71 36 -107.5t92 -36.5q145 0 145 137v473h153z"/>
<glyph glyph-name="Yacute" horiz-adv-x="667" unicode="Ý" d="M523 936l-147 -146h-101l94 146h154zM413 269v-269h-150v271l-248 447h177l149 -312l142 312h170z"/>
<glyph glyph-name="Thorn" horiz-adv-x="667" unicode="Þ" d="M226 283h139q39 0 64 12t34.5 33.5t11.5 34.5t2 32q0 53 -31.5 77t-100.5 24h-119v-213zM76 0v718h150v-98h178q104 0 163.5 -63t59.5 -169q0 -23 -5 -49t-20.5 -59.5t-39.5 -59t-66.5 -43.5t-97.5 -18h-172v-159h-150z"/>
<glyph glyph-name="germandbls" horiz-adv-x="611" unicode="ß" d="M279 -8v110q10 -1 29 -1q131 0 131 124q0 32 -10.5 55t-24 35t-38 19.5t-39.5 9t-41 3.5v97q22 1 33 2t29 5.5t27 13.5t16 25.5t7 40.5q0 88 -101 88q-34 0 -61 -21t-27 -68v-530h-140v539q0 81 59.5 136.5t173.5 55.5q27 0 51.5 -2.5t60.5 -14t61.5 -31.5t44 -58 t18.5 -90q0 -43 -21 -76t-52 -48q37 -17 62 -40t35 -50t13.5 -47t3.5 -45q0 -45 -13 -86.5t-40 -77.5t-76.5 -57.5t-115.5 -21.5q-19 0 -55 6z"/>
<glyph glyph-name="agrave" d="M236 604l-147 146h154l94 -146h-101zM359 191v68q-23 -18 -95 -29q-47 -8 -71 -24t-24 -56q0 -33 20 -48.5t45 -15.5q49 0 87 29t38 76zM496 392v-288q0 -72 31 -83v-21h-151q-10 30 -13 63q-22 -22 -38.5 -35.5t-53 -27.5t-80.5 -14q-67 0 -114.5 39t-47.5 116 q0 75 42 117.5t113 52.5l126 19q49 7 49 42q0 27 -17 42t-34 17.5t-41 2.5q-25 0 -42 -7t-26 -19t-12.5 -23t-5.5 -25h-135q6 58 27.5 97t57.5 57.5t71 25t82 6.5q33 0 65.5 -6t68 -21.5t57 -48t21.5 -78.5z" unicode="à"/>
<glyph glyph-name="aacute" d="M468 750l-147 -146h-101l94 146h154zM359 191v68q-23 -18 -95 -29q-47 -8 -71 -24t-24 -56q0 -33 20 -48.5t45 -15.5q49 0 87 29t38 76zM496 392v-288q0 -72 31 -83v-21h-151q-10 30 -13 63q-22 -22 -38.5 -35.5t-53 -27.5t-80.5 -14q-67 0 -114.5 39t-47.5 116 q0 75 42 117.5t113 52.5l126 19q49 7 49 42q0 27 -17 42t-34 17.5t-41 2.5q-25 0 -42 -7t-26 -19t-12.5 -23t-5.5 -25h-135q6 58 27.5 97t57.5 57.5t71 25t82 6.5q33 0 65.5 -6t68 -21.5t57 -48t21.5 -78.5z" unicode="á"/>
<glyph glyph-name="acircumflex" d="M341 750l114 -146h-113l-64 82l-63 -82h-113l114 146h125zM359 191v68q-23 -18 -95 -29q-47 -8 -71 -24t-24 -56q0 -33 20 -48.5t45 -15.5q49 0 87 29t38 76zM496 392v-288q0 -72 31 -83v-21h-151q-10 30 -13 63q-22 -22 -38.5 -35.5t-53 -27.5t-80.5 -14 q-67 0 -114.5 39t-47.5 116q0 75 42 117.5t113 52.5l126 19q49 7 49 42q0 27 -17 42t-34 17.5t-41 2.5q-25 0 -42 -7t-26 -19t-12.5 -23t-5.5 -25h-135q6 58 27.5 97t57.5 57.5t71 25t82 6.5q33 0 65.5 -6t68 -21.5t57 -48t21.5 -78.5z" unicode="â"/>
<glyph glyph-name="atilde" d="M397 737h65q-2 -12 -5 -24t-11.5 -30.5t-19.5 -32t-30 -23.5t-43 -10q-28 0 -76 16q-64 20 -71 20q-23 0 -33.5 -14.5t-13.5 -28.5h-64q10 48 29 76q34 47 92 47q22 0 72 -19q44 -17 62 -17q38 0 47 40zM359 191v68q-23 -18 -95 -29q-47 -8 -71 -24t-24 -56 q0 -33 20 -48.5t45 -15.5q49 0 87 29t38 76zM496 392v-288q0 -72 31 -83v-21h-151q-10 30 -13 63q-22 -22 -38.5 -35.5t-53 -27.5t-80.5 -14q-67 0 -114.5 39t-47.5 116q0 75 42 117.5t113 52.5l126 19q49 7 49 42q0 27 -17 42t-34 17.5t-41 2.5q-25 0 -42 -7t-26 -19 t-12.5 -23t-5.5 -25h-135q6 58 27.5 97t57.5 57.5t71 25t82 6.5q33 0 65.5 -6t68 -21.5t57 -48t21.5 -78.5z" unicode="ã"/>
<glyph glyph-name="adieresis" d="M439 729v-115h-126v115h126zM244 729v-115h-126v115h126zM359 191v68q-23 -18 -95 -29q-47 -8 -71 -24t-24 -56q0 -33 20 -48.5t45 -15.5q49 0 87 29t38 76zM496 392v-288q0 -72 31 -83v-21h-151q-10 30 -13 63q-22 -22 -38.5 -35.5t-53 -27.5t-80.5 -14q-67 0 -114.5 39 t-47.5 116q0 75 42 117.5t113 52.5l126 19q49 7 49 42q0 27 -17 42t-34 17.5t-41 2.5q-25 0 -42 -7t-26 -19t-12.5 -23t-5.5 -25h-135q6 58 27.5 97t57.5 57.5t71 25t82 6.5q33 0 65.5 -6t68 -21.5t57 -48t21.5 -78.5z" unicode="ä"/>
<glyph glyph-name="aring" d="M331 672q0 22 -15 37t-37 15t-37 -15t-15 -37t15 -37t37 -15t37 15t15 37zM387 672q0 -45 -34 -74.5t-74 -29.5t-74 29.5t-34 74.5t34 74.5t74 29.5t74 -29.5t34 -74.5zM359 191v68q-23 -18 -95 -29q-47 -8 -71 -24t-24 -56q0 -33 20 -48.5t45 -15.5q49 0 87 29t38 76z M496 392v-288q0 -72 31 -83v-21h-151q-10 30 -13 63q-22 -22 -38.5 -35.5t-53 -27.5t-80.5 -14q-67 0 -114.5 39t-47.5 116q0 75 42 117.5t113 52.5l126 19q49 7 49 42q0 27 -17 42t-34 17.5t-41 2.5q-25 0 -42 -7t-26 -19t-12.5 -23t-5.5 -25h-135q6 58 27.5 97t57.5 57.5 t71 25t82 6.5q33 0 65.5 -6t68 -21.5t57 -48t21.5 -78.5z" unicode="å"/>
<glyph glyph-name="ae" horiz-adv-x="889" unicode="æ" d="M497 319h217q-5 59 -36.5 85.5t-71.5 26.5q-96 0 -109 -112zM364 188v67q-21 -18 -104 -30q-48 -7 -69.5 -21.5t-21.5 -55.5q0 -30 21 -46t58 -16q42 0 79 30.5t37 71.5zM708 156h144q-26 -89 -91 -129.5t-143 -40.5h-7q-58 0 -99.5 15.5t-57 30t-35.5 40.5 q-25 -40 -79.5 -63t-121.5 -23q-34 0 -63 6.5t-59.5 22.5t-48.5 50t-18 84q0 55 32 97.5t103 54.5l131 22q48 8 60 17t12 35q0 11 -2 18t-10 18t-30 17t-56 6q-27 0 -45 -8t-26 -21t-10.5 -23.5t-2.5 -22.5h-137q14 187 240 187q97 0 164 -59q22 17 36.5 26.5t48 20.5 t71.5 12q35 0 67 -7t66.5 -26.5t59.5 -51t41 -85t16 -123.5v-25h-365q2 -19 3.5 -30t9.5 -32.5t20 -34t36 -23t56 -10.5q31 0 56.5 15.5t33.5 42.5z"/>
<glyph glyph-name="ccedilla" d="M161 -203l22 48q52 -16 77 -16q17 0 32 10.5t15 28.5q0 16 -11.5 26t-27.5 10q-14 0 -40 -8l-21 20l47 71q-63 5 -108.5 31t-68.5 66.5t-33 81t-10 85.5q0 136 63 215.5t192 79.5q36 0 71 -9t72 -30t62 -63.5t30 -101.5h-142q-6 34 -26 60t-60 26h-7q-41 0 -67.5 -26 t-35 -58t-8.5 -70q0 -31 2.5 -53t11.5 -53.5t33 -49t61 -17.5q47 0 71 32.5t24 60.5h142q-2 -25 -12 -53t-31.5 -62.5t-65 -59.5t-101.5 -31l-30 -43q16 4 30 4q30 0 58.5 -18t28.5 -60q0 -44 -34.5 -71.5t-89.5 -27.5q-46 0 -115 25z" unicode="ç"/>
<glyph glyph-name="egrave" d="M236 604l-147 146h154l94 -146h-101zM167 319h217q-5 59 -36.5 85.5t-71.5 26.5q-96 0 -109 -112zM378 156h144q-26 -89 -91 -129.5t-143 -40.5q-265 0 -265 291q0 26 4 53.5t19.5 68.5t41 71.5t75 53t115.5 22.5q35 0 67 -7t66.5 -26.5t59.5 -51t41 -85t16 -123.5v-25 h-365q2 -19 3.5 -30t9.5 -32.5t20 -34t36 -23t56 -10.5q31 0 56.5 15.5t33.5 42.5z" unicode="è"/>
<glyph glyph-name="eacute" d="M468 750l-147 -146h-101l94 146h154zM167 319h217q-5 59 -36.5 85.5t-71.5 26.5q-96 0 -109 -112zM378 156h144q-26 -89 -91 -129.5t-143 -40.5q-265 0 -265 291q0 26 4 53.5t19.5 68.5t41 71.5t75 53t115.5 22.5q35 0 67 -7t66.5 -26.5t59.5 -51t41 -85t16 -123.5v-25 h-365q2 -19 3.5 -30t9.5 -32.5t20 -34t36 -23t56 -10.5q31 0 56.5 15.5t33.5 42.5z" unicode="é"/>
<glyph glyph-name="ecircumflex" d="M341 750l114 -146h-113l-64 82l-63 -82h-113l114 146h125zM167 319h217q-5 59 -36.5 85.5t-71.5 26.5q-96 0 -109 -112zM378 156h144q-26 -89 -91 -129.5t-143 -40.5q-265 0 -265 291q0 26 4 53.5t19.5 68.5t41 71.5t75 53t115.5 22.5q35 0 67 -7t66.5 -26.5t59.5 -51 t41 -85t16 -123.5v-25h-365q2 -19 3.5 -30t9.5 -32.5t20 -34t36 -23t56 -10.5q31 0 56.5 15.5t33.5 42.5z" unicode="ê"/>
<glyph glyph-name="edieresis" d="M439 729v-115h-126v115h126zM244 729v-115h-126v115h126zM167 319h217q-5 59 -36.5 85.5t-71.5 26.5q-96 0 -109 -112zM378 156h144q-26 -89 -91 -129.5t-143 -40.5q-265 0 -265 291q0 26 4 53.5t19.5 68.5t41 71.5t75 53t115.5 22.5q35 0 67 -7t66.5 -26.5t59.5 -51 t41 -85t16 -123.5v-25h-365q2 -19 3.5 -30t9.5 -32.5t20 -34t36 -23t56 -10.5q31 0 56.5 15.5t33.5 42.5z" unicode="ë"/>
<glyph glyph-name="igrave" horiz-adv-x="278" unicode="ì" d="M97 604l-147 146h154l94 -146h-101zM69 532h140v-532h-140v532z"/>
<glyph glyph-name="iacute" horiz-adv-x="278" unicode="í" d="M329 750l-147 -146h-101l94 146h154zM69 532h140v-532h-140v532z"/>
<glyph glyph-name="icircumflex" horiz-adv-x="278" unicode="î" d="M202 750l114 -146h-113l-64 82l-63 -82h-113l114 146h125zM69 532h140v-532h-140v532z"/>
<glyph glyph-name="idieresis" horiz-adv-x="278" unicode="ï" d="M300 729v-115h-126v115h126zM105 729v-115h-126v115h126zM69 532h140v-532h-140v532z"/>
<glyph glyph-name="eth" horiz-adv-x="611" unicode="ð" d="M524 685l-101 -44q68 -64 111.5 -153t43.5 -193q0 -81 -24 -143t-64 -97t-85.5 -52t-95.5 -17q-52 0 -99 15t-87.5 46.5t-64.5 87.5t-24 130q0 112 69 185t178 73q79 0 123 -55l2 2q-28 61 -97 121l-108 -47l-63 52l108 47q-41 30 -73 45l108 49q42 -17 79 -44l102 44z M306 405q-37 0 -64.5 -16.5t-40 -42t-18 -46.5t-5.5 -39q0 -76 34.5 -116.5t94.5 -40.5q41 0 69.5 19t39.5 49t14.5 51t3.5 42q0 18 -5 38.5t-17.5 45t-40 40.5t-65.5 16z"/>
<glyph glyph-name="ntilde" horiz-adv-x="611" unicode="ñ" d="M424 737h65q-2 -12 -5 -24t-11.5 -30.5t-19.5 -32t-30 -23.5t-43 -10q-28 0 -76 16q-64 20 -71 20q-23 0 -33.5 -14.5t-13.5 -28.5h-64q10 48 29 76q34 47 92 47q22 0 72 -19q44 -17 62 -17q38 0 47 40zM546 368v-368h-140v323q0 16 -1 26.5t-5.5 27t-13.5 26.5 t-27.5 17.5t-43.5 7.5q-48 0 -79 -32t-31 -91v-305h-140v532h134v-78h2q55 92 160 92q81 0 133 -46.5t52 -131.5z"/>
<glyph glyph-name="ograve" horiz-adv-x="611" unicode="ò" d="M263 604l-147 146h154l94 -146h-101zM434 266q0 29 -5 54.5t-18 51.5t-40 41t-65 15t-65 -15t-40 -41t-18 -51.5t-5 -54.5t5 -54.5t18 -51.5t40 -41t65 -15t65 15t40 41t18 51.5t5 54.5zM578 266q0 -136 -78 -208t-194 -72t-194 72t-78 208t78 208t194 72t194 -72 t78 -208z"/>
<glyph glyph-name="oacute" horiz-adv-x="611" unicode="ó" d="M495 750l-147 -146h-101l94 146h154zM434 266q0 29 -5 54.5t-18 51.5t-40 41t-65 15t-65 -15t-40 -41t-18 -51.5t-5 -54.5t5 -54.5t18 -51.5t40 -41t65 -15t65 15t40 41t18 51.5t5 54.5zM578 266q0 -136 -78 -208t-194 -72t-194 72t-78 208t78 208t194 72t194 -72 t78 -208z"/>
<glyph glyph-name="ocircumflex" horiz-adv-x="611" unicode="ô" d="M368 750l114 -146h-113l-64 82l-63 -82h-113l114 146h125zM434 266q0 29 -5 54.5t-18 51.5t-40 41t-65 15t-65 -15t-40 -41t-18 -51.5t-5 -54.5t5 -54.5t18 -51.5t40 -41t65 -15t65 15t40 41t18 51.5t5 54.5zM578 266q0 -136 -78 -208t-194 -72t-194 72t-78 208t78 208 t194 72t194 -72t78 -208z"/>
<glyph glyph-name="otilde" horiz-adv-x="611" unicode="õ" d="M424 737h65q-2 -12 -5 -24t-11.5 -30.5t-19.5 -32t-30 -23.5t-43 -10q-28 0 -76 16q-64 20 -71 20q-23 0 -33.5 -14.5t-13.5 -28.5h-64q10 48 29 76q34 47 92 47q22 0 72 -19q44 -17 62 -17q38 0 47 40zM434 266q0 29 -5 54.5t-18 51.5t-40 41t-65 15t-65 -15t-40 -41 t-18 -51.5t-5 -54.5t5 -54.5t18 -51.5t40 -41t65 -15t65 15t40 41t18 51.5t5 54.5zM578 266q0 -136 -78 -208t-194 -72t-194 72t-78 208t78 208t194 72t194 -72t78 -208z"/>
<glyph glyph-name="odieresis" horiz-adv-x="611" unicode="ö" d="M466 729v-115h-126v115h126zM271 729v-115h-126v115h126zM434 266q0 29 -5 54.5t-18 51.5t-40 41t-65 15t-65 -15t-40 -41t-18 -51.5t-5 -54.5t5 -54.5t18 -51.5t40 -41t65 -15t65 15t40 41t18 51.5t5 54.5zM578 266q0 -136 -78 -208t-194 -72t-194 72t-78 208t78 208 t194 72t194 -72t78 -208z"/>
<glyph glyph-name="divide" horiz-adv-x="584" unicode="÷" d="M204 46q0 37 26.5 63t62.5 26q35 0 61.5 -26.5t26.5 -62.5q0 -33 -26.5 -60.5t-60.5 -27.5q-37 0 -63.5 26t-26.5 62zM204 459q0 37 26.5 63t62.5 26q35 0 61.5 -26.5t26.5 -62.5q0 -33 -26.5 -60.5t-60.5 -27.5q-37 0 -63.5 26t-26.5 62zM544 197h-504v112h504v-112z "/>
<glyph glyph-name="oslash" horiz-adv-x="611" unicode="ø" d="M589 528l-71 -74q60 -73 60 -188q0 -136 -78 -208t-194 -72q-106 0 -177 58l-69 -73l-38 29l73 77q-61 74 -61 189q0 136 78 208t194 72q105 0 179 -59l69 73zM193 179l203 214q-33 35 -90 35q-38 0 -65 -15t-40 -41t-18 -51.5t-5 -54.5q0 -51 15 -87zM420 351l-202 -213 q31 -34 88 -34q38 0 65 15t40 41t18 51.5t5 54.5q0 52 -14 85z"/>
<glyph glyph-name="ugrave" horiz-adv-x="611" unicode="ù" d="M263 604l-147 146h154l94 -146h-101zM545 532v-532h-134v75h-2q-50 -89 -162 -89q-83 0 -132 49t-49 147v350h140v-330q0 -98 91 -98q42 0 75 28.5t33 92.5v307h140z"/>
<glyph glyph-name="uacute" horiz-adv-x="611" unicode="ú" d="M495 750l-147 -146h-101l94 146h154zM545 532v-532h-134v75h-2q-50 -89 -162 -89q-83 0 -132 49t-49 147v350h140v-330q0 -98 91 -98q42 0 75 28.5t33 92.5v307h140z"/>
<glyph glyph-name="ucircumflex" horiz-adv-x="611" unicode="û" d="M368 750l114 -146h-113l-64 82l-63 -82h-113l114 146h125zM545 532v-532h-134v75h-2q-50 -89 -162 -89q-83 0 -132 49t-49 147v350h140v-330q0 -98 91 -98q42 0 75 28.5t33 92.5v307h140z"/>
<glyph glyph-name="udieresis" horiz-adv-x="611" unicode="ü" d="M466 729v-115h-126v115h126zM271 729v-115h-126v115h126zM545 532v-532h-134v75h-2q-50 -89 -162 -89q-83 0 -132 49t-49 147v350h140v-330q0 -98 91 -98q42 0 75 28.5t33 92.5v307h140z"/>
<glyph glyph-name="yacute" d="M468 750l-147 -146h-101l94 146h154zM539 532l-183 -523q-27 -82 -42.5 -119.5t-39.5 -64.5t-49.5 -33t-74.5 -6q-23 0 -63 2v112q12 -2 27 -2q43 0 63 14.5t29 65.5l-196 554h156l114 -392h2l109 392h148z" unicode="ý"/>
<glyph glyph-name="thorn" horiz-adv-x="611" unicode="þ" d="M202 68v-276h-140v926h140v-254h2q53 82 153 82q94 0 157.5 -71.5t63.5 -202.5q0 -120 -56.5 -203t-167.5 -83q-102 0 -150 82h-2zM196 254q0 -65 30.5 -109t92.5 -44q42 0 69.5 28.5t36.5 62.5t9 70q0 71 -28.5 117t-90.5 46q-119 0 -119 -171z"/>
<glyph glyph-name="OE" horiz-adv-x="1000" unicode="Œ" d="M481 196v325q0 48 -39.5 70t-84.5 22q-88 0 -130.5 -72.5t-42.5 -189.5q0 -43 9.5 -84t28 -78.5t52 -60.5t77.5 -23q59 0 94.5 28.5t35.5 62.5zM628 591v-151h310v-127h-310v-186h333v-127h-470v50q-33 -37 -66.5 -53t-92.5 -16q-39 0 -77 10t-78 37t-70.5 68t-50 109 t-19.5 154q0 71 16 134.5t49 120t93.5 90t140.5 33.5q42 0 76 -11.5t48 -22t31 -27.5v42h470v-127h-333z"/>
<glyph glyph-name="oe" horiz-adv-x="944" unicode="œ" d="M551 319h217q-5 59 -36.5 85.5t-71.5 26.5q-96 0 -109 -112zM434 266q0 29 -5 54.5t-18 51.5t-40 41t-65 15t-65 -15t-40 -41t-18 -51.5t-5 -54.5t5 -54.5t18 -51.5t40 -41t65 -15t65 15t40 41t18 51.5t5 54.5zM762 156h144q-26 -89 -91 -129.5t-143 -40.5 q-55 0 -96.5 13.5t-58 26t-37.5 34.5q-60 -74 -174 -74q-116 0 -194 72t-78 208t78 208t194 72q54 0 104 -22.5t79 -57.5q24 25 41.5 39t53 27.5t78.5 13.5q35 0 67 -7t66.5 -26.5t59.5 -51t41 -85t16 -123.5v-25h-365q2 -19 3.5 -30t9.5 -32.5t20 -34t36 -23t56 -10.5 q31 0 56.5 15.5t33.5 42.5z"/>
<glyph glyph-name="Scaron" horiz-adv-x="667" unicode="Š" d="M510 936l-114 -146h-125l-114 146h113l63 -82l64 82h113zM39 221h144q0 -18 6 -35.5t20.5 -37t47 -31.5t78.5 -12q150 0 150 93q0 38 -30.5 55.5t-99.5 33.5l-77 18q-46 11 -69.5 17.5t-59.5 23t-53.5 36t-31.5 54t-14 80.5q0 27 6 54t24.5 58t47.5 54.5t80 39t118 15.5 q78 0 135.5 -23t87 -60.5t43.5 -74.5t14 -74h-144q-2 18 -7 31.5t-18.5 33.5t-44.5 31.5t-77 11.5q-50 0 -87.5 -20.5t-37.5 -65.5q0 -20 7 -34t20.5 -22t23.5 -11.5t25 -7.5l175 -43q42 -10 71.5 -22.5t58 -34t43.5 -56t15 -80.5q0 -51 -16 -92t-43.5 -65t-57.5 -41 t-65 -24.5t-58 -10t-43 -2.5q-75 0 -132 17t-89.5 41.5t-52.5 58.5t-26.5 63.5t-6.5 59.5z"/>
<glyph glyph-name="scaron" d="M455 750l-114 -146h-125l-114 146h113l63 -82l64 82h113zM503 370h-137q-4 21 -10 34t-27 24.5t-57 11.5q-86 0 -86 -52q0 -23 34.5 -36t83 -22t97.5 -23t83.5 -49t34.5 -89q0 -55 -24 -93.5t-62.5 -56.5t-74 -25.5t-72.5 -7.5q-49 0 -91 9t-80 29t-61 57.5t-24 88.5h144 q0 -78 116 -78q48 0 68.5 17.5t20.5 37.5q0 24 -34 37.5t-82.5 22t-97 22.5t-82.5 49t-34 90q0 32 11 61.5t34 56.5t67 43.5t103 16.5q226 0 239 -176z" unicode="š"/>
<glyph glyph-name="Ydieresis" horiz-adv-x="667" unicode="Ÿ" d="M494 915v-115h-126v115h126zM299 915v-115h-126v115h126zM413 269v-269h-150v271l-248 447h177l149 -312l142 312h170z"/>
<glyph glyph-name="circumflex" horiz-adv-x="333" unicode="ˆ" d="M229 750l114 -146h-113l-64 82l-63 -82h-113l114 146h125z"/>
<glyph glyph-name="tilde" horiz-adv-x="333" unicode="˜" d="M285 737h65q-2 -12 -5 -24t-11.5 -30.5t-19.5 -32t-30 -23.5t-43 -10q-28 0 -76 16q-64 20 -71 20q-23 0 -33.5 -14.5t-13.5 -28.5h-64q10 48 29 76q34 47 92 47q22 0 72 -19q44 -17 62 -17q38 0 47 40z"/>
<glyph glyph-name="uni03BC" horiz-adv-x="611" unicode="μ" d="M546 0h-134v75h-2q-39 -89 -113 -89q-64 0 -92 57v-250h-140v739h140v-310q0 -118 92 -118q43 0 76 32.5t33 108.5v287h140v-532z"/>
<glyph glyph-name="pi" horiz-adv-x="597" unicode="π" d="M574 421h-71v-272q0 -91 13 -149h-120q-17 32 -17 143v278h-139q-4 -94 -22.5 -221t-42.5 -200h-120q25 85 42.5 209.5t19.5 211.5q-68 0 -98 -10l-14 83q43 34 162 34h417z"/>
<glyph glyph-name="endash" d="M556 333v-106h-556v106h556z" unicode="–"/>
<glyph glyph-name="emdash" horiz-adv-x="1000" unicode="—" d="M1000 333v-106h-1000v106h1000z"/>
<glyph glyph-name="quoteleft" horiz-adv-x="278" unicode="‘" d="M209 581v-127h-140v102q0 142 137 171v-51q-31 -10 -48 -26.5t-21 -31t-5 -37.5h77z"/>
<glyph glyph-name="quotesinglbase" horiz-adv-x="278" unicode="‚" d="M69 0v127h140v-102q0 -142 -137 -171v51q31 10 48 26.5t21 31t5 37.5h-77z"/>
<glyph glyph-name="quotedblleft" horiz-adv-x="500" unicode="“" d="M436 581v-127h-140v102q0 142 137 171v-51q-31 -10 -48 -26.5t-21 -31t-5 -37.5h77zM204 581v-127h-140v102q0 142 137 171v-51q-31 -10 -48 -26.5t-21 -31t-5 -37.5h77z"/>
<glyph glyph-name="quotedblright" horiz-adv-x="500" unicode="”" d="M296 591v127h140v-102q0 -142 -137 -171v51q31 10 48 26.5t21 31t5 37.5h-77zM64 591v127h140v-102q0 -142 -137 -171v51q31 10 48 26.5t21 31t5 37.5h-77z"/>
<glyph glyph-name="dagger" d="M520 499v-112h-175v-558h-134v558h-175v112h175v219h134v-219h175z" unicode="†"/>
<glyph glyph-name="daggerdbl" d="M520 509v-112h-176v-239h176v-112h-176v-217h-134v217h-174v112h174v239h-174v112h174v209h134v-209h176z" unicode="‡"/>
<glyph glyph-name="ellipsis" horiz-adv-x="1000" unicode="…" d="M908 146v-146h-150v146h150zM575 146v-146h-150v146h150zM242 146v-146h-150v146h150z"/>
<glyph glyph-name="perthousand" horiz-adv-x="1000" unicode="‰" d="M781 149q0 -26 18 -43.5t43 -17.5t43 17.5t18 43.5t-18 43.5t-43 17.5t-43 -17.5t-18 -43.5zM681 149q0 66 47 113.5t114 47.5q66 0 113.5 -47.5t47.5 -113.5t-47 -113.5t-114 -47.5t-114 47t-47 114zM416 149q0 -26 18 -43.5t43 -17.5t43 17.5t18 43.5t-18 43.5 t-43 17.5t-43 -17.5t-18 -43.5zM316 149q0 66 47 113.5t114 47.5q66 0 113.5 -47.5t47.5 -113.5t-47 -113.5t-114 -47.5t-114 47t-47 114zM80 -19l398 729h74l-398 -729h-74zM-3 549q0 66 47 113.5t114 47.5q66 0 113.5 -47.5t47.5 -113.5t-47 -113.5t-114 -47.5t-114 47 t-47 114zM97 549q0 -26 18 -43.5t43 -17.5t43 17.5t18 43.5t-18 43.5t-43 17.5t-43 -17.5t-18 -43.5z"/>
<glyph glyph-name="guilsinglleft" horiz-adv-x="333" unicode="‹" d="M250 484v-116l-100 -88l100 -88v-116l-167 144v120z"/>
<glyph glyph-name="guilsinglright" horiz-adv-x="333" unicode="›" d="M183 280l-100 88v116l167 -144v-120l-167 -144v116z"/>
<glyph glyph-name="fraction" horiz-adv-x="167" unicode="⁄" d="M336 710l-427 -729h-79l428 729h78z"/>
<glyph glyph-name="Euro" d="M563 621l-46 -112q-7 14 -31 38q-49 51 -123 51q-96 0 -119 -136h253l-40 -95h-221v-48h202l-40 -95h-152q7 -54 35 -92.5t82 -38.5q92 0 154 53v-128q-57 -37 -154 -37q-104 0 -172 60.5t-89 182.5h-90l40 95h41q0 5 -0.5 14t-0.5 13v21h-80l39 95h50q18 119 85 183.5 t177 64.5q69 0 123 -27.5t77 -61.5z" unicode="€"/>
<glyph glyph-name="trademark" horiz-adv-x="1000" unicode="™" d="M385 718v-85h-115v-327h-112v327h-114v85h341zM616 718l94 -250l93 250h153v-412h-106v281h-2l-98 -281h-81l-98 281h-2v-281h-106v412h153z"/>
<glyph glyph-name="partialdiff" d="M248 74q61 0 94.5 59.5t33.5 135.5v10q-55 64 -120 64q-59 0 -88 -42t-29 -94q0 -66 33 -99.5t76 -33.5zM111 561l-60 75q27 20 47 32t55 23t73 11q74 0 129 -31.5t85 -85t44 -115t14 -131.5q0 -41 -4 -79.5t-19.5 -91.5t-41 -91t-75 -65.5t-115.5 -27.5q-56 0 -100 21 t-69 56t-37.5 73.5t-12.5 78.5q0 94 59.5 157t156.5 63q37 0 77.5 -13t59.5 -42v9q0 35 -6.5 69.5t-21 71t-45 59t-72.5 22.5q-60 0 -121 -48z" unicode="∂"/>
<glyph glyph-name="product" horiz-adv-x="718" unicode="∏" d="M692 590h-101v-687h-123v687h-219v-687h-123v687h-101v112h667v-112z"/>
<glyph glyph-name="summation" horiz-adv-x="555" unicode="∑" d="M536 -97h-513v80l242 320l-233 313v86h488v-105h-322v-3l206 -270l-228 -303v-3h360v-115z"/>
<glyph glyph-name="minus" horiz-adv-x="584" unicode="−" d="M544 197h-504v112h504v-112z"/>
<glyph glyph-name="radical" d="M43 68l-42 85l149 64l129 -257l164 754h112l-208 -920h-101l-152 297z" unicode="√"/>
<glyph glyph-name="infinity" horiz-adv-x="815" unicode="∞" d="M350 259q-34 34 -51 47q-47 39 -87 39q-31 0 -54 -23t-23 -62t22.5 -60.5t57.5 -21.5q63 0 135 81zM465 259q75 -82 137 -82q29 0 53.5 19.5t24.5 63.5q0 42 -24 64t-56 22q-55 0 -135 -87zM408 322q46 56 90.5 88t103.5 32q66 0 117 -45.5t51 -133.5q0 -80 -46.5 -131 t-122.5 -51q-54 0 -98.5 28.5t-94.5 83.5q-36 -38 -56 -56t-58 -36.5t-78 -18.5q-75 0 -123 49.5t-48 130.5q0 85 49.5 132t118.5 47q34 0 63.5 -10t55 -31.5t39.5 -36t37 -41.5z"/>
<glyph glyph-name="approxequal" horiz-adv-x="600" unicode="≈" d="M495 456l36 -97q-20 -27 -33 -42t-38 -29.5t-54 -14.5q-40 0 -103.5 33.5t-102.5 33.5q-63 0 -95 -72l-36 98q45 86 125 86q41 0 113.5 -33.5t99.5 -33.5q19 0 36 11.5t27 24t25 35.5zM495 236l36 -97q-20 -27 -33 -42t-38 -29.5t-54 -14.5q-40 0 -103.5 33.5 t-102.5 33.5q-63 0 -95 -72l-36 98q45 86 125 86q41 0 113.5 -33.5t99.5 -33.5q19 0 36 11.5t27 24t25 35.5z"/>
<glyph glyph-name="notequal" horiz-adv-x="600" unicode="≠" d="M47 87v112h165l66 108h-231v112h300l53 87h112l-53 -87h94v-112h-163l-66 -108h229v-112h-298l-54 -87h-112l54 87h-96z"/>
<glyph glyph-name="lessequal" horiz-adv-x="600" unicode="≤" d="M553 215v-104l-506 182v84l506 186v-104l-350 -123v-2zM553 55v-112h-506v112h506z"/>
<glyph glyph-name="greaterequal" horiz-adv-x="600" unicode="≥" d="M47 111v104l350 119v2l-350 123v104l506 -186v-84zM47 -57v112h506v-112h-506z"/>
<glyph glyph-name="lozenge" horiz-adv-x="590" unicode="◊" d="M430 348l-114 241q-14 37 -19 61h-3q-7 -27 -19 -61l-116 -236l116 -245q11 -32 17 -57h4q12 41 18 55zM540 351l-198 -400h-99l-193 400l198 400h99z"/>
</font>
</defs>
</svg>
