<svg width="26" height="32" viewBox="0 0 26 32" fill="none" xmlns="http://www.w3.org/2000/svg"><g clip-path="url(#a)"><path d="M22.162 19.573a1.304 1.304 0 0 1-.87-1.13 68.563 68.563 0 0 0-.853-5.544 48.132 48.132 0 0 0-2.696-9.13 5.014 5.014 0 0 0-1.216-1.807A5.052 5.052 0 0 0 14.654.836c-.32-.113-.651-.182-.978-.264h-1.4c-.063.109-.183.074-.265.095a5.043 5.043 0 0 0-2.269 1.075 5.001 5.001 0 0 0-1.462 2.033c-1.934 4.67-2.956 9.562-3.54 14.555a1.38 1.38 0 0 1-.906 1.264 6.241 6.241 0 0 0-2.096 1.465 6.17 6.17 0 0 0-.95 7.15 6.213 6.213 0 0 0 1.643 1.954 6.255 6.255 0 0 0 4.853 1.258 6.264 6.264 0 0 0 2.393-.91.314.314 0 0 1 .44.029 4.614 4.614 0 0 0 5.811 0 .333.333 0 0 1 .468 0 5.964 5.964 0 0 0 4.515.916c2.977-.578 4.897-2.798 5.083-5.808a6.086 6.086 0 0 0-.927-3.655 6.142 6.142 0 0 0-2.906-2.42zm-2.677 9.37a3.612 3.612 0 0 1-1.572-.528c-.218-.13-.148-.204 0-.314a2.451 2.451 0 0 1 1.578-.436 1.225 1.225 0 0 0 1.19-.742 1.282 1.282 0 0 0-.522-1.677 1.302 1.302 0 0 0-.618-.171c-1.907-.055-3.4.689-4.419 2.315-.106.172-.202.349-.308.528a2.073 2.073 0 0 1-1.807 1.045 2.089 2.089 0 0 1-1.808-1.045c-.44-.744-.91-1.449-1.638-1.956a4.892 4.892 0 0 0-3.1-.877 1.303 1.303 0 0 0-.912.423 1.287 1.287 0 0 0-.333.945c.013.337.16.655.41.885.248.229.579.35.918.337a2.476 2.476 0 0 1 1.474.373c.318.219.324.243 0 .425a3.484 3.484 0 0 1-3.564.016c-1.225-.687-1.79-1.788-1.814-3.348.013-.684.23-1.35.624-1.91a3.468 3.468 0 0 1 1.588-1.242c1.567-.676 2.321-1.848 2.512-3.514.532-4.723 1.528-9.346 3.355-13.763.184-.456.502-.846.911-1.121a2.488 2.488 0 0 1 2.774 0c.41.275.727.665.912 1.12a45.805 45.805 0 0 1 2.576 8.713c.364 1.848.592 3.715.866 5.576.08.65.338 1.267.746 1.782.407.516.948.91 1.564 1.143 1.14.478 1.926 1.286 2.21 2.48.605 2.584-1.312 4.72-3.793 4.538z" fill="#8BDFD9"/></g><defs><clipPath id="a"><path fill="#fff" transform="translate(0 .562)" d="M0 0h26v31H0z"/></clipPath></defs></svg>