<svg width="32" height="33" viewBox="0 0 32 33" fill="none" xmlns="http://www.w3.org/2000/svg"><g clip-path="url(#a)" fill="#8BDFD9"><path d="M31.985 18.21c-.03-.38-.01-.77-.167-1.132-.406-.924-1.055-1.613-1.984-2.018-.301-.13-.411-.334-.411-.655 0-.592.029-1.182-.046-1.776-.344-2.711-1.592-4.918-3.69-6.645-1.228-1.01-2.618-1.727-4.123-2.228-.396-.132-.421-.183-.338-.59.141-.694.25-1.392.21-2.105-.03-.523-.265-.81-.781-.905-.517-.095-1.01.025-1.475.296-.988.574-2.03 1.008-3.175 1.154-.88.111-1.764.083-2.648.083a3.837 3.837 0 0 0-.684.035 4.282 4.282 0 0 0-2.942 1.973 1.41 1.41 0 0 1-.637.57C7.52 4.956 6.14 5.912 4.999 7.21a10.034 10.034 0 0 0-2.044 3.645 9.645 9.645 0 0 0-.417 3.45c.02.397-.098.668-.486.797a3.857 3.857 0 0 0-1.758 1.661c-.201.358-.19.752-.291 1.129v1.31c.038.118.06.24.065.363.036.31.09.61.264.88.595.931 1.391 1.594 2.486 1.836.334.074.5.243.623.564.667 1.821 1.618 3.486 2.91 4.937 1.312 1.472 2.831 2.686 4.662 3.467.842.36 1.69.694 2.617.772.388.033.78.042 1.168.106h2.309c.083-.06.182-.022.272-.03.663-.06 1.329-.07 1.978-.265a14.337 14.337 0 0 0 2.532-1.043c1.507-.791 2.753-1.9 3.86-3.17 1.251-1.435 2.16-3.078 2.81-4.864.092-.25.243-.397.5-.448a3.68 3.68 0 0 0 1.876-.998c.487-.476.902-1.012.996-1.715a6.6 6.6 0 0 0 .054-1.384zm-5.38-.263c-.054 2.525-.878 4.803-2.312 6.86-1.375 1.973-3.149 3.466-5.47 4.187-3.177.987-6.112.407-8.72-1.62-2.587-2.008-4.056-4.703-4.619-7.911-.207-1.187-.124-2.385-.152-3.579.03-1.018-.048-2.039.083-3.054.279-2.126 1.339-3.768 3.075-4.99.304-.215.634-.395.95-.594.113-.07.19-.088.266.063.808 1.617 3.045 2.586 5.172 1.995 1.884-.525 3.518-1.419 4.726-2.994a.239.239 0 0 1 .293-.096c2.16.636 4.094 1.623 5.44 3.515.903 1.272 1.275 2.71 1.276 4.255.006 1.32.02 2.642-.009 3.963z"/><path d="M18.154 21.744c-.318.25-.623.516-.98.713-.623.343-1.267.438-1.948.2-.541-.189-.97-.547-1.41-.899a1.305 1.305 0 0 0-1.824.145c-.461.5-.494 1.305 0 1.782 1.11 1.07 2.406 1.76 3.99 1.787 1.573-.027 2.861-.713 3.967-1.77.501-.482.478-1.303.009-1.808a1.316 1.316 0 0 0-1.804-.15zM13.319 16.176c.033-1.446-1.15-2.677-2.607-2.711-1.423-.035-2.693 1.145-2.722 2.53-.033 1.557 1.114 2.794 2.618 2.822a2.68 2.68 0 0 0 2.71-2.64zM21.42 13.468c-1.468-.073-2.712 1.085-2.78 2.598-.065 1.435 1.102 2.687 2.564 2.753 1.4.062 2.697-1.093 2.76-2.458.073-1.558-1.031-2.819-2.544-2.893z"/></g><defs><clipPath id="a"><path fill="#fff" transform="translate(0 .123)" d="M0 0h32v32H0z"/></clipPath></defs></svg>