<svg width="27" height="34" viewBox="0 0 27 34" fill="none" xmlns="http://www.w3.org/2000/svg"><g clip-path="url(#a)" fill="#8BDFD9"><path d="M12.06.788c-.64.333-.81.897-.737 1.57.18 1.691.91 3.067 2.283 4.063.52.377 1.133.567 1.712.823 1.044.461 2.126.84 3.129 1.394 3.22 1.786 5.2 4.521 5.834 8.2.422 2.475.09 4.878-1.037 7.14a11.335 11.335 0 0 1-1.705 2.505c-.869.971-1.834 1.823-3.01 2.362-2.264 1.033-4.448.842-6.503-.603-.476-.335-.892-.75-1.421-1.014-2.114-1.051-4.73.163-5.316 2.478a43.13 43.13 0 0 0-.507 2.195c-.134.689.248 1.303.878 1.464.3.071.617.021.883-.14.265-.16.46-.419.542-.721.193-.66.32-1.335.474-2.004.154-.668.562-1.033 1.2-1.174.491-.106.885.115 1.241.422 1.063.92 2.26 1.582 3.615 1.914 2.726.668 5.222.125 7.498-1.53a13.777 13.777 0 0 0 4.247-4.995 13.475 13.475 0 0 0 1.391-4.693c.299-2.836-.137-5.544-1.437-8.087a13.578 13.578 0 0 0-5.17-5.564c-1.048-.633-2.186-1.061-3.302-1.542-.456-.196-.92-.38-1.368-.59-1.081-.506-1.668-1.378-1.746-2.59-.036-.568-.253-1.012-.76-1.28-.091-.048-.205-.087-.159-.233h-.632c.047.124-.032.186-.118.23z"/><path d="M11.172 2.47c.013.128.031.258.056.382.371 1.925 1.369 3.369 3.156 4.177 1.014.46 2.058.87 3.083 1.316 4.798 2.08 7.496 7.006 6.67 12.246-.528 3.36-2.247 5.943-5.053 7.769-1.292.842-2.718 1.112-4.234.894-1.269-.183-2.345-.769-3.319-1.6a3.935 3.935 0 0 0-1.82-.897 3.896 3.896 0 0 0-2.016.134 3.96 3.96 0 0 0-1.69 1.13 4.065 4.065 0 0 0-.923 1.831c-.136.595-.28 1.186-.418 1.78-.065.283-.123.565-.05.862.157.623.666 1.053 1.268 1.066.66.014 1.19-.369 1.36-1.02.18-.69.326-1.396.497-2.09.138-.558.5-.876 1.054-.973.46-.081.809.132 1.145.417 2.205 1.87 4.735 2.553 7.55 2.039 1.926-.35 3.542-1.352 4.949-2.689 3.69-3.507 5.17-7.837 4.339-12.896-.726-4.415-3.12-7.712-6.946-9.904-1.36-.775-2.846-1.276-4.274-1.904-1.014-.446-1.587-1.25-1.66-2.35-.054-.8-.334-1.354-1.089-1.622-.046.148.068.186.159.233.512.269.727.713.76 1.28.078 1.213.665 2.085 1.746 2.591.449.21.912.394 1.368.59 1.116.48 2.254.909 3.303 1.542a13.576 13.576 0 0 1 5.173 5.553c1.298 2.543 1.734 5.254 1.437 8.087a13.478 13.478 0 0 1-1.393 4.694 13.776 13.776 0 0 1-4.25 4.987c-2.276 1.655-4.771 2.198-7.498 1.53-1.352-.33-2.551-.994-3.614-1.913-.356-.308-.75-.529-1.242-.423-.637.137-1.048.517-1.2 1.175-.15.658-.28 1.344-.474 2.003a1.216 1.216 0 0 1-.542.722c-.266.161-.582.21-.882.14-.63-.158-1.015-.776-.879-1.465.143-.737.32-1.464.507-2.194.586-2.315 3.207-3.531 5.316-2.478.53.264.946.679 1.422 1.014 2.054 1.447 4.238 1.642 6.503.603 1.175-.54 2.14-1.391 3.01-2.362a11.332 11.332 0 0 0 1.704-2.506c1.128-2.262 1.46-4.665 1.037-7.14-.63-3.678-2.61-6.413-5.834-8.2-1.002-.554-2.084-.932-3.129-1.393-.579-.258-1.192-.446-1.712-.823-1.371-.996-2.1-2.372-2.283-4.063-.072-.673.097-1.238.737-1.57.084-.045.169-.106.115-.227-.89.478-1.102.879-1 1.915z"/><path d="M7.579.825c-.502.297-.687.762-.69 1.326 0 1.206-.031 2.406.008 3.608.056 1.75.74 3.2 2.15 4.245.314.233.44.491.443.888.018 2.214-.301 4.363-1.14 6.418a14.219 14.219 0 0 1-2.381 3.888c-.627.733-1.36 1.342-2.066 1.98a11.123 11.123 0 0 0-2.736 3.864 11.7 11.7 0 0 0-.986 5.107c.021.575.308 1.003.815 1.176.469.16.96 0 1.3-.42.163-.2.206-.434.237-.688.08-.67.049-1.35.176-2.017.349-1.828 1.1-3.44 2.39-4.777.768-.796 1.64-1.479 2.39-2.297a16.31 16.31 0 0 0 2.198-3.056c1.138-2.016 1.77-4.207 2.064-6.51.064-.51.08-1.026.134-1.538.055-.511.043-.506.539-.661.423-.13.733-.373.86-.82.176-.612-.07-1.185-.656-1.472-.427-.208-.87-.386-1.312-.56-.913-.362-1.587-.965-1.885-1.942a3.262 3.262 0 0 1-.133-.953c0-1.17-.008-2.341 0-3.511.006-.57-.202-.997-.69-1.28-.097-.055-.225-.1-.17-.259h-.696c.06.158-.067.205-.163.261z"/><path d="M6.73 2.389c.039 1.115-.011 2.233.015 3.35.044 1.88.813 3.39 2.322 4.486a.558.558 0 0 1 .26.502c.025.998-.034 1.997-.176 2.985-.531 3.593-2.113 6.592-4.87 8.922-1.968 1.665-3.27 3.755-3.909 6.27-.287 1.138-.438 2.299-.344 3.472.067.84.93 1.378 1.72 1.12.622-.198.959-.689.965-1.456.025-3.066 1.193-5.555 3.54-7.492 1.403-1.16 2.532-2.575 3.446-4.164 1.513-2.63 2.219-5.489 2.335-8.515.007-.194.021-.288.259-.316.302-.028.586-.16.804-.373.22-.214.36-.498.4-.804.076-.662-.237-1.206-.864-1.49-.453-.201-.911-.39-1.367-.581-1.199-.504-1.81-1.426-1.812-2.742v-3.64c0-.583-.287-.99-.793-1.249-.072-.038-.17-.026-.217-.113-.055.16.072.205.169.258.489.283.697.71.69 1.28-.01 1.17 0 2.34 0 3.511-.006.323.036.646.125.957.298.976.972 1.58 1.885 1.941.443.172.885.352 1.312.56.587.287.832.862.657 1.473-.128.447-.442.69-.86.82-.496.154-.485.156-.54.66-.054.506-.07 1.028-.134 1.54-.29 2.301-.93 4.492-2.061 6.515a16.313 16.313 0 0 1-2.199 3.057c-.75.818-1.622 1.5-2.39 2.297-1.292 1.336-2.04 2.948-2.389 4.776-.127.668-.097 1.347-.177 2.017-.03.252-.073.486-.236.689-.339.42-.831.58-1.3.42-.508-.173-.794-.603-.815-1.176a11.7 11.7 0 0 1 .986-5.107 11.124 11.124 0 0 1 2.735-3.866c.706-.644 1.438-1.253 2.067-1.981a14.216 14.216 0 0 0 2.38-3.893c.84-2.055 1.158-4.204 1.14-6.418 0-.396-.128-.655-.442-.887-1.41-1.045-2.094-2.498-2.15-4.246-.04-1.206-.01-2.405-.007-3.608 0-.564.186-1.033.689-1.325.095-.056.223-.103.169-.264C6.942.903 6.7 1.54 6.73 2.39zM12.128 25.396c.508.232 1.032.43 1.556.62.591.232 1.223.34 1.856.32.347.015.695-.018 1.034-.096 1.415-.28 2.47-1.091 3.254-2.3.729-1.126 1.136-2.384 1.451-3.678.185-.758.399-1.517.31-2.313-.199-1.798-1.612-3.137-3.46-3.291-1.667-.139-3.272 1.019-3.75 2.694-.126.445-.148.907-.236 1.359-.234 1.195-.757 2.115-1.983 2.55-.901.32-1.353 1.087-1.361 2.052-.008.966.458 1.68 1.33 2.083z"/></g><defs><clipPath id="a"><path fill="#fff" transform="translate(0 .562)" d="M0 0h27v33H0z"/></clipPath></defs></svg>