<svg width="368" height="324" viewBox="0 0 368 324" fill="none" xmlns="http://www.w3.org/2000/svg"><path d="M217.977 165.731a16.333 16.333 0 0 1-11.608-4.804 16.376 16.376 0 0 1 0-23.144L339.593 4.813a16.337 16.337 0 0 1 23.144 0 16.329 16.329 0 0 1 4.804 11.573 16.328 16.328 0 0 1-4.804 11.572L229.513 160.927a16.412 16.412 0 0 1-11.536 4.804zM164.814 323.444a16.337 16.337 0 0 1-16.375-16.375v-81.296a54.844 54.844 0 0 0-15.466-32.423C113.577 174.463 9.902 68.496 5.608 63.983a16.339 16.339 0 0 1 .255-23.144 16.338 16.338 0 0 1 23.144.255c1.055 1.092 107.823 110.189 126.928 128.821a87.33 87.33 0 0 1 25.473 54.767c.018.206.018.413 0 .618v81.769a16.386 16.386 0 0 1-4.873 11.657 16.386 16.386 0 0 1-11.721 4.718z" fill="#DCF5F4"/></svg>