<svg width="284" height="153" viewBox="0 0 284 153" fill="none" xmlns="http://www.w3.org/2000/svg"><path d="M124.689 152.15c-16.012 0-33.916-5.931-51.383-23.399C38.19 93.635 5.694 61.466 5.366 61.139a16.375 16.375 0 0 1 5.317-26.702 16.374 16.374 0 0 1 17.864 3.558c.327.29 32.75 32.532 68.012 67.685 27.111 27.111 50.946 7.278 55.386 3.02L255.948 5.316a16.374 16.374 0 0 1 23.144 0 16.35 16.35 0 0 1 4.822 11.59 16.349 16.349 0 0 1-4.822 11.59l-104.148 103.53a76.415 76.415 0 0 1-50.255 20.124z" fill="#DCF5F4"/></svg>