<svg width="170" height="50" viewBox="0 0 170 50" fill="none" xmlns="http://www.w3.org/2000/svg"><path d="M24.524 0a24.528 24.528 0 1 0 24.532 24.528A24.555 24.555 0 0 0 24.526 0zm2.574 45.486v-7.543-.065a9.097 9.097 0 0 0-2.653-5.685c-1.99-1.941-13.111-13.305-13.221-13.419a1.705 1.705 0 0 0-2.441 2.384c.458.47 11.261 11.508 13.266 13.48.9.913 1.468 2.1 1.615 3.373v7.63A21.113 21.113 0 1 1 38.826 9.063l-10.564 10.5c-.28.276-2.832 2.604-5.758-.319-3.661-3.665-7.054-7.02-7.088-7.054a1.705 1.705 0 1 0-2.37 2.403c.035.034 3.412 3.385 7.078 7.043 1.82 1.82 3.684 2.441 5.352 2.441a7.903 7.903 0 0 0 5.22-2.119l10.476-10.397a21.169 21.169 0 0 1 2.297 3.654L29.725 28.823a1.706 1.706 0 0 0 2.4 2.422L44.81 18.683a21.095 21.095 0 0 1-17.713 26.8v.003z" fill="#1AA89F"/><path d="M113.591 25.326v8.715a.909.909 0 0 0 .913.91h2.276a.908.908 0 0 0 .91-.91v-8.715c0-2.907 2.557-5.601 5.821-6.14.253-.039.683-.064 1.116-.082a.906.906 0 0 0 .874-.907V15.92a.914.914 0 0 0-.581-.852.91.91 0 0 0-.358-.062c-.575.013-1.149.059-1.719.137-5.272.87-9.252 5.244-9.252 10.184zM81.481 15.146a13.934 13.934 0 0 0-1.524-.13v-.026H78.82v.025a13.97 13.97 0 0 0-1.52.13c-1.969.326-3.323 1.127-4.255 2.167-.932-1.047-2.286-1.849-4.254-2.167a13.968 13.968 0 0 0-1.52-.13v-.025h-1.138v.025c-.51.016-1.019.06-1.524.13-6.298 1.033-6.298 6.985-6.298 10.181v8.714a.91.91 0 0 0 .91.91h2.275a.91.91 0 0 0 .913-.91v-8.714c0-4.45.614-5.778 2.868-6.14.48-.055.962-.087 1.445-.093.466.006.93.037 1.394.094 2.253.36 2.889 1.686 2.889 6.139v8.714a.91.91 0 0 0 .91.91H74.2a.91.91 0 0 0 .913-.91v-8.714c0-4.45.614-5.778 2.868-6.14.487-.056.976-.086 1.466-.09.464.004.927.034 1.387.09 2.253.362 2.867 1.687 2.867 6.14v8.714a.911.911 0 0 0 .914.91h2.275a.91.91 0 0 0 .91-.91v-8.714c-.018-3.196-.018-9.148-6.32-10.18zM100.534 30.826a5.862 5.862 0 0 1-5.374-3.539h15.049a9.971 9.971 0 0 0-5.57-11.404 9.967 9.967 0 1 0 1.283 17.45.901.901 0 0 0 .13-1.394l-1.661-1.665a.918.918 0 0 0-1.084-.148 5.778 5.778 0 0 1-2.773.7zm0-11.7a5.864 5.864 0 0 1 5.569 4.062H94.965a5.854 5.854 0 0 1 5.569-4.063zM137.082 15.027a9.946 9.946 0 0 0-9.838 8.392 9.949 9.949 0 0 0 15.689 9.596v1.026a.913.913 0 0 0 .91.91h2.279a.91.91 0 0 0 .91-.91v-9.516a9.968 9.968 0 0 0-9.95-9.498zm0 15.8a5.85 5.85 0 0 1-4.137-9.988 5.854 5.854 0 0 1 6.376-1.268 5.852 5.852 0 0 1 3.612 5.405 5.857 5.857 0 0 1-5.851 5.85zM160.767 15.048a9.959 9.959 0 0 0-10.647 9.473v15.85a.909.909 0 0 0 .91.91h2.261a.908.908 0 0 0 .91-.91v-7.356a9.94 9.94 0 0 0 14.573-3.245 9.937 9.937 0 0 0 1.205-5.422 9.993 9.993 0 0 0-9.212-9.3zm-.723 15.775a5.85 5.85 0 0 1-4.137-9.988 5.854 5.854 0 0 1 6.376-1.268 5.852 5.852 0 0 1 3.612 5.405 5.858 5.858 0 0 1-5.836 5.854l-.015-.003z" fill="#1F2656"/></svg>