<?xml version="1.0" standalone="no"?>
<!DOCTYPE svg PUBLIC "-//W3C//DTD SVG 1.1//EN" "http://www.w3.org/Graphics/SVG/1.1/DTD/svg11.dtd" >
<svg xmlns="http://www.w3.org/2000/svg" xmlns:xlink="http://www.w3.org/1999/xlink" version="1.1">
<metadata>
Created by FontForge 20141024 at Mon Dec 21 08:16:52 2015
 By Jimmy Warting
(c) Copyright 2015 by Andy Pang. All Rights Reserved
</metadata>
<defs>
<font id="UNIArquitectaBook" horiz-adv-x="915" >
  <font-face 
    font-family="UNI Arquitecta"
    font-weight="400"
    font-stretch="normal"
    units-per-em="2048"
    panose-1="2 0 0 0 0 0 0 0 0 0"
    ascent="1536"
    descent="-512"
    x-height="709"
    cap-height="1229"
    bbox="-326 -500 2126 1871"
    underline-thickness="102"
    underline-position="-103"
    unicode-range="U+000D-FB02"
  />
<missing-glyph horiz-adv-x="319" 
 />
    <glyph glyph-name=".notdef" horiz-adv-x="319" 
 />
    <glyph glyph-name="space" unicode=" " horiz-adv-x="319" 
 />
    <glyph glyph-name="exclam" unicode="!" horiz-adv-x="481" 
d="M311 1161l-30 -835h-84l-33 835v68h147v-68zM152 74q0 18 7 34t19 28t28 19t34 7q19 0 35.5 -7t28.5 -19t19 -28t7 -34q0 -38 -26 -64t-64 -26q-18 0 -34 7t-28 19t-19 28.5t-7 35.5z" />
    <glyph glyph-name="quotedbl" unicode="&#x22;" horiz-adv-x="584" 
d="M184 948h-71v23l34 405h117v-22zM418 948h-72v23l35 405h115v-22z" />
    <glyph glyph-name="numbersign" unicode="#" horiz-adv-x="1307" 
d="M981 856h252l-16 -80h-254l-84 -364h241l-16 -78h-242l-76 -334h-84l76 334h-364l-76 -334h-86l76 334h-254l18 78h252l84 364h-242l17 80h243l78 338h84l-76 -338h365l76 338h86zM430 412h365l84 364h-365z" />
    <glyph glyph-name="dollar" unicode="$" horiz-adv-x="1090" 
d="M162 203q40 -35 95 -61q48 -23 117.5 -41.5t162.5 -18.5q91 0 157 16.5t108.5 46.5t62.5 72.5t20 93.5q0 52 -20.5 90t-64 69t-111 56.5t-161.5 51.5q-103 30 -182.5 61.5t-134 72t-83 93.5t-28.5 125q0 73 29 131.5t82.5 99.5t129.5 64.5t171 27.5v185h94v-185
q96 -5 165 -23t115 -38q53 -23 89 -51l-64 -97q-38 28 -92 50q-46 19 -113.5 35t-156.5 16q-69 0 -129 -14t-105 -41t-70.5 -67t-25.5 -93q0 -45 21 -79t64.5 -61.5t110.5 -51.5t160 -50q111 -31 192 -66t133.5 -79t78 -100.5t25.5 -129.5q0 -68 -23 -126.5t-72 -103.5
t-124 -73.5t-179 -36.5v-182h-94v180q-107 3 -184.5 25.5t-129.5 48.5q-61 30 -102 68z" />
    <glyph glyph-name="percent" unicode="%" horiz-adv-x="1372" 
d="M348 1255q65 0 115 -24.5t84 -66.5t51.5 -98t17.5 -118q0 -60 -17.5 -115.5t-51.5 -98t-84 -68t-115 -25.5t-115 25.5t-84 68t-51.5 98t-17.5 115.5q0 62 17.5 118t51.5 98t84 66.5t115 24.5zM348 1159q-40 0 -70 -16t-50.5 -44.5t-31 -67t-10.5 -83.5q0 -44 10.5 -82.5
t31 -67t50.5 -45t70 -16.5t70.5 16.5t50.5 45t30.5 67t10.5 82.5q0 45 -10.5 83.5t-30.5 67t-50.5 44.5t-70.5 16zM1204 1167l-960 -1155l-78 66l958 1155zM1024 598q64 0 114.5 -25t85 -67t52.5 -98t18 -117t-18 -116.5t-52.5 -98t-85 -67.5t-114.5 -25q-65 0 -115.5 25
t-85 67.5t-52 98t-17.5 116.5t17.5 117t52 98t85 67t115.5 25zM1024 504q-40 0 -70.5 -16.5t-51.5 -45t-31.5 -67.5t-10.5 -84q0 -43 10.5 -81t31.5 -66.5t51.5 -45t70.5 -16.5q39 0 69 16.5t50 45t30.5 66.5t10.5 81q0 45 -10.5 84t-30.5 67.5t-50 45t-69 16.5z" />
    <glyph glyph-name="ampersand" unicode="&#x26;" horiz-adv-x="1249" 
d="M119 322q0 69 24 122t64 94.5t92.5 73.5t108.5 60l-17 16q-30 30 -55 61.5t-43.5 66t-28.5 74t-10 85.5q0 64 23 116t63.5 88.5t96.5 56t122 19.5q80 0 140 -22.5t100 -60.5t60 -88t20 -105q0 -65 -25 -114.5t-66.5 -89.5t-95 -72t-110.5 -60l370 -358q39 72 55.5 154
t16.5 159v43h115v-41q0 -48 -6 -98t-19 -100.5t-34 -100t-50 -94.5l199 -191v-16h-131l-131 127q-66 -69 -162.5 -111.5t-229.5 -42.5q-107 0 -192 25.5t-143.5 71.5t-89.5 110t-31 142zM575 76q110 0 187.5 33.5t130.5 89.5l-408 397q-49 -26 -93 -53t-77 -59.5t-52 -71.5
t-19 -88q0 -53 24 -98.5t68 -78.5t104.5 -52t134.5 -19zM367 967q0 -42 12.5 -78t32 -66.5t43.5 -56.5t47 -49q51 24 98.5 49.5t84 55.5t58 66.5t21.5 84.5q0 34 -10 67.5t-33.5 59t-62.5 41.5t-97 16q-41 0 -76.5 -13t-61.5 -37.5t-41 -60t-15 -79.5z" />
    <glyph glyph-name="quotesingle" unicode="'" horiz-adv-x="350" 
d="M184 948h-71v23l34 405h117v-22z" />
    <glyph glyph-name="parenleft" unicode="(" horiz-adv-x="635" 
d="M606 1309q-22 -15 -61 -44.5t-84.5 -75t-93 -108.5t-85.5 -144.5t-62.5 -183.5t-24.5 -225q0 -124 24.5 -226t62.5 -184t85.5 -144.5t93 -108.5t84.5 -75t61 -44l-57 -82q-27 16 -72.5 49t-98 84t-106.5 120.5t-97.5 160t-71 202.5t-27.5 248t27.5 248.5t71 203t97.5 160
t106.5 120t98 82.5t72.5 49l57 -82v0z" />
    <glyph glyph-name="parenright" unicode=")" horiz-adv-x="635" 
d="M88 1391q27 -17 72.5 -49t98 -82.5t106.5 -120t97.5 -160t71 -203t27.5 -248.5q0 -135 -27.5 -247.5t-71 -203t-97.5 -160t-106.5 -120.5t-98 -84t-72.5 -49l-57 82q22 15 61 44t84.5 75t93 108.5t85.5 144.5t62.5 184t24.5 226q0 123 -24.5 225t-62.5 183.5t-85.5 144.5
t-93 108.5t-84.5 75t-61 44.5z" />
    <glyph glyph-name="asterisk" unicode="*" horiz-adv-x="862" 
d="M459 1276h-53l-27 158v59h108v-59zM537 1180l-17 51l144 74l55 18l33 -102l-56 -19zM168 1202l-57 19l34 102l56 -18l143 -74l-18 -51zM350 1114l43 -31l-69 -147l-35 -47l-86 59l33 49zM631 997l33 -49l-86 -59l-35 47l-70 147l43 29z" />
    <glyph glyph-name="plus" unicode="+" horiz-adv-x="991" 
d="M549 664h338v-97h-338v-329h-103v329h-342v97h342v340h103v-340z" />
    <glyph glyph-name="comma" unicode="," horiz-adv-x="268" 
d="M47 68q0 37 24.5 61.5t61.5 24.5t62.5 -25t25.5 -63q0 -35 -7 -56.5t-21 -46.5l-87 -156h-86l78 138q8 15 17 24l8 8v7q-34 5 -55 27.5t-21 56.5z" />
    <glyph glyph-name="hyphen" unicode="-" horiz-adv-x="813" 
d="M117 653h579v-98h-579v98z" />
    <glyph glyph-name="period" unicode="." horiz-adv-x="270" 
d="M47 70q0 37 25.5 62.5t62.5 25.5t61.5 -25.5t24.5 -62.5q0 -18 -6.5 -33.5t-18 -27t-27.5 -18.5t-34 -7t-34 7t-28 18.5t-19 27t-7 33.5z" />
    <glyph glyph-name="slash" unicode="/" horiz-adv-x="707" 
d="M186 -360h-118l452 1800h119z" />
    <glyph glyph-name="zero" unicode="0" horiz-adv-x="1270" 
d="M635 -29q-125 0 -224.5 50t-168.5 137t-105.5 203.5t-36.5 250.5q0 135 36.5 252t105.5 204t168.5 137t224.5 50q126 0 225 -50t168 -137t105 -204t36 -252q0 -134 -36 -250.5t-105 -203.5t-168 -137t-225 -50zM635 82q101 0 179 42.5t130.5 114.5t79.5 168.5t27 204.5
q0 109 -27 206t-79.5 169.5t-130.5 115t-179 42.5t-179 -42.5t-130.5 -115t-79.5 -169.5t-27 -206q0 -108 27 -204.5t79.5 -168.5t130.5 -114.5t179 -42.5z" />
    <glyph glyph-name="one" unicode="1" horiz-adv-x="643" 
d="M47 1229h399v-1229h-116v1120h-283v109z" />
    <glyph glyph-name="two" unicode="2" horiz-adv-x="1034" 
d="M96 29l559 604q36 39 62 70.5t42.5 60.5t24 58t7.5 63q0 56 -21 103.5t-60 82.5t-94.5 54.5t-123.5 19.5q-78 0 -140.5 -23t-106.5 -51.5t-69 -53t-26 -26.5l-68 90q45 48 107 87q26 16 58 31.5t69.5 28t81 20t91.5 7.5q102 0 180 -27t131 -76t80 -116t27 -147
q0 -43 -8 -79.5t-25.5 -72t-44.5 -71.5t-65 -78l-438 -479h612v-109h-842v29z" />
    <glyph glyph-name="three" unicode="3" horiz-adv-x="1047" 
d="M358 612v43l373 465h-606v109h805v-29l-398 -491h39q82 0 151.5 -25t119.5 -72.5t78 -115.5t28 -154q0 -80 -30 -148t-86.5 -117.5t-137.5 -77.5t-182 -28q-65 0 -122.5 13t-106 32t-86 41.5t-64 41.5t-41 32t-14.5 14l59 91q47 -44 105 -77q50 -29 117.5 -53t148.5 -24
q72 0 131 19t101.5 53.5t65.5 82.5t23 105q0 62 -20.5 112t-58 85t-90.5 54t-119 19h-183z" />
    <glyph glyph-name="four" unicode="4" horiz-adv-x="1098" 
d="M55 387l727 842h90v-821h142v-109h-142v-299h-116v299h-701v88zM211 408h545v628l-518 -602q-5 -3 -9.5 -6t-8.5 -5q-4 -3 -9 -5v-10z" />
    <glyph glyph-name="five" unicode="5" horiz-adv-x="1034" 
d="M313 1120l-18 -409q40 9 92 15.5t117 6.5q108 0 191 -26.5t138.5 -74.5t84 -116t28.5 -151q0 -95 -30 -168t-86.5 -122.5t-137.5 -75.5t-182 -26q-99 0 -178.5 27t-136.5 60q-67 38 -119 87l63 91q47 -44 105 -78q50 -29 117.5 -53.5t148.5 -24.5q70 0 128 18.5t100 54.5
t65.5 88.5t23.5 121.5q0 60 -23 109t-65 83.5t-102 53t-133 18.5q-70 0 -125.5 -7.5t-94 -17t-59 -17.5t-20.5 -9l-29 22l29 629h682v-109h-574z" />
    <glyph glyph-name="six" unicode="6" horiz-adv-x="1032" 
d="M106 365q0 53 9 99t24 87.5t35 79.5t43 74l340 524h141l-305 -467q-11 -17 -21 -29.5t-18 -20.5q-10 -10 -18 -16v-10q40 28 90.5 43.5t112.5 15.5q98 0 177.5 -29t135.5 -80t86.5 -120.5t30.5 -150.5q0 -91 -32.5 -163.5t-89.5 -123.5t-135.5 -78t-170.5 -27
q-96 0 -176 28t-137.5 79t-89.5 123.5t-32 161.5zM539 637q-62 0 -117 -17t-97.5 -51t-69 -85t-30.5 -119q0 -62 24 -114t66.5 -89.5t100.5 -58.5t125 -21q68 0 125 21t98 58.5t63.5 89t22.5 111.5q0 59 -21.5 109.5t-62 87t-98 57.5t-129.5 21z" />
    <glyph glyph-name="seven" unicode="7" horiz-adv-x="926" 
d="M76 1229h831v-29l-573 -1200h-141l538 1120h-655v109z" />
    <glyph glyph-name="eight" unicode="8" horiz-adv-x="1100" 
d="M551 -29q-105 0 -186.5 28.5t-138 78t-86 115t-29.5 139.5q0 111 59 192.5t162 124.5q-85 44 -129.5 116.5t-44.5 162.5q0 69 26.5 128.5t77 104t123.5 69.5t166 25q92 0 164.5 -25t123 -69.5t77 -104t26.5 -128.5q0 -90 -45 -162.5t-129 -116.5q103 -43 162 -124.5
t59 -192.5q0 -74 -29.5 -139.5t-86 -115t-138 -78t-184.5 -28.5zM551 82q74 0 133 20t100.5 54.5t63.5 79.5t22 96q0 60 -23.5 109t-66 84t-101 54t-128.5 19q-71 0 -130 -19t-102 -54t-66.5 -84t-23.5 -109q0 -51 22.5 -96t64 -79.5t101 -54.5t134.5 -20zM551 694
q64 0 114.5 17.5t85.5 49t53.5 74t18.5 93.5q0 45 -18.5 85t-53.5 69t-85.5 46t-114.5 17q-65 0 -116 -17t-86 -46t-54 -69t-19 -85q0 -51 19 -93.5t54 -74t86 -49t116 -17.5z" />
    <glyph glyph-name="nine" unicode="9" horiz-adv-x="1032" 
d="M926 862q0 -52 -8.5 -98t-23.5 -87t-35.5 -79t-43.5 -74l-338 -524h-141l311 477q8 12 16 22t16 18q9 9 17 15v7q-40 -26 -90 -42t-110 -16q-99 0 -179.5 29.5t-136.5 81t-86.5 121.5t-30.5 151q0 90 32.5 162.5t90 123t136.5 78t172 27.5q96 0 175.5 -27.5t136.5 -79
t88.5 -124t31.5 -162.5zM496 592q59 0 115 16.5t100 50.5t71 85t27 120q0 62 -24.5 114t-67 89.5t-100 58.5t-123.5 21q-69 0 -126.5 -21t-99 -58.5t-64 -89t-22.5 -112.5q0 -59 22 -109t62.5 -87t99 -57.5t130.5 -20.5z" />
    <glyph glyph-name="colon" unicode=":" horiz-adv-x="399" 
d="M113 633q0 18 6.5 34t18 28t27.5 19t34 7t34 -7t27.5 -19t18 -28t6.5 -34t-6.5 -33.5t-18 -27t-27.5 -18.5t-34 -7t-34 7t-27.5 18.5t-18 27t-6.5 33.5zM113 70q0 37 24.5 62.5t61.5 25.5t61.5 -25.5t24.5 -62.5q0 -18 -6.5 -33.5t-18 -27t-27.5 -18.5t-34 -7t-34 7
t-27.5 18.5t-18 27t-6.5 33.5z" />
    <glyph glyph-name="semicolon" unicode=";" horiz-adv-x="449" 
d="M143 68q0 37 24.5 61.5t61.5 24.5q38 0 64 -25t26 -63q0 -35 -8 -56.5t-20 -46.5l-88 -156h-86l78 138q8 15 17 24q4 4 9 8v7q-34 3 -56 26.5t-22 57.5zM145 633q0 18 7 34t19 28t28 19t34 7t33.5 -7t27.5 -19t18.5 -28t6.5 -34t-6.5 -33.5t-18.5 -27t-27.5 -18.5
t-33.5 -7t-34 7t-28 18.5t-19 27t-7 33.5z" />
    <glyph glyph-name="less" unicode="&#x3c;" horiz-adv-x="762" 
d="M82 565v47l493 475l70 -71l-444 -428l444 -426l-70 -72z" />
    <glyph glyph-name="equal" unicode="=" horiz-adv-x="1026" 
d="M156 842h716v-97h-716v97zM156 451h716v-97h-716v97z" />
    <glyph glyph-name="greater" unicode="&#x3e;" horiz-adv-x="762" 
d="M186 90l-69 72l444 426l-444 428l69 71l494 -475v-47z" />
    <glyph glyph-name="question" unicode="?" horiz-adv-x="770" 
d="M80 1182q32 20 75 36q37 14 90.5 25.5t125.5 11.5t129 -21t96.5 -57.5t60.5 -86t21 -107.5q0 -70 -21 -122t-53 -94t-69.5 -79.5t-71 -79t-57 -91.5t-27.5 -118l-4 -75h-82v88q0 69 19.5 121t49.5 94.5t64 79t64 75t49.5 82.5t19.5 101q0 41 -15 76t-42 60.5t-65.5 39.5
t-86.5 14q-57 0 -99 -10t-71 -22q-33 -14 -57 -31zM250 70q0 37 25.5 62.5t62.5 25.5q18 0 33.5 -7t27 -19t18.5 -28t7 -34t-7 -33.5t-18.5 -27t-27 -18.5t-33.5 -7t-34 7t-28 18.5t-19 27t-7 33.5z" />
    <glyph glyph-name="at" unicode="@" horiz-adv-x="1884" 
d="M938 -500q-134 0 -249.5 31.5t-210 88.5t-168 137t-123 176.5t-75.5 207t-26 228.5q0 120 26.5 231.5t77.5 208.5t125 177t169.5 137t210.5 88.5t249 31.5q135 0 249.5 -30.5t207.5 -84.5t164 -127.5t119.5 -159t73 -179t24.5 -187.5q0 -108 -22 -199.5t-66 -159
t-110 -105.5t-154 -38q-70 0 -116 22.5t-73 51.5t-38 57.5t-11 40.5h-8q-4 -9 -20 -35.5t-50 -54t-89.5 -49.5t-137.5 -22q-76 0 -142.5 26.5t-115.5 75t-77 116.5t-28 152q0 85 28 154t76.5 117t115 74t143.5 26q73 0 124 -18.5t85.5 -44t53.5 -52t28 -43.5l20 142h80v-478
q0 -75 40 -117t116 -42q61 0 107 30t76.5 82.5t46 124t15.5 154.5q0 91 -22.5 177t-66 162t-107 140t-145 110t-180.5 71.5t-214 25.5q-113 0 -213 -27t-184.5 -76t-152 -119.5t-114 -156.5t-71.5 -187t-25 -212q0 -165 54 -307t153 -246.5t238 -164t309 -59.5q97 0 169 13
t121 29q57 18 99 42l41 -86q-43 -26 -105 -46q-54 -17 -134.5 -31.5t-190.5 -14.5zM1171 356q0 64 -21 114.5t-57.5 85.5t-85.5 53t-104 18t-103 -19.5t-83 -54.5t-55.5 -85.5t-20.5 -111.5t20.5 -112t55.5 -87.5t83 -56.5t103 -20t104 18.5t85.5 54t57.5 87t21 116.5z" />
    <glyph glyph-name="A" unicode="A" horiz-adv-x="1243" 
d="M606 1229h29l600 -1229h-133l-117 233h-727l-117 -233h-131zM629 991h-17l-286 -624l-13 -23h617l-12 23z" />
    <glyph glyph-name="B" unicode="B" horiz-adv-x="1298" 
d="M1192 336q0 -89 -34 -152.5t-94 -104t-143 -60t-180 -19.5h-559v1229h529q100 0 181 -20t138.5 -61.5t89 -104t31.5 -146.5q0 -51 -14.5 -94.5t-40.5 -77.5t-62.5 -59.5t-81.5 -40.5v-11q52 -14 96.5 -37.5t76 -58t49.5 -80t18 -102.5zM299 563v-454h444q69 0 129 13
t104.5 41t70.5 72.5t26 106.5q0 54 -24 94.5t-66 68t-98.5 42t-120.5 16.5h-465zM1030 893q0 62 -23.5 105.5t-65.5 70.5t-101 39t-129 12h-412v-446h426q70 1 126 16t96 42.5t61.5 67.5t21.5 93z" />
    <glyph glyph-name="C" unicode="C" horiz-adv-x="1214" 
d="M1155 133q-43 -46 -105 -81q-53 -31 -132.5 -56t-186.5 -25q-141 0 -258.5 49.5t-202 136t-131.5 203.5t-47 252q0 137 47 254.5t131.5 204t202 135.5t258.5 49q107 0 186.5 -25t132.5 -55q62 -35 105 -79l-68 -90q-40 38 -93 69q-45 26 -110.5 48t-150.5 22
q-117 0 -213 -42.5t-164.5 -115t-106.5 -169.5t-38 -206q0 -108 38 -204.5t106.5 -168.5t164.5 -114.5t213 -42.5q85 0 150.5 21.5t110.5 47.5q53 31 93 70z" />
    <glyph glyph-name="D" unicode="D" horiz-adv-x="1348" 
d="M1251 614q0 -143 -48.5 -256.5t-135.5 -193t-208 -122t-265 -42.5h-412v1229h412q144 0 265 -42.5t208 -122t135.5 -193.5t48.5 -257zM299 1120v-1011h291q115 0 214.5 34.5t172.5 99.5t114.5 158.5t41.5 212.5t-42 213t-115 159t-172.5 99.5t-213.5 34.5h-291z" />
    <glyph glyph-name="E" unicode="E" horiz-adv-x="1153" 
d="M979 551h-680v-442h772v-109h-889v1229h889v-109h-772v-461h680v-108z" />
    <glyph glyph-name="F" unicode="F" horiz-adv-x="1137" 
d="M182 1229h889v-109h-772v-461h684v-108h-684v-551h-117v1229z" />
    <glyph glyph-name="G" unicode="G" horiz-adv-x="1382" 
d="M1178 551h-488v108h604v-75q0 -141 -39 -254t-112.5 -193t-179 -123t-238.5 -43q-146 0 -263 49.5t-199.5 136t-126.5 203.5t-44 252q0 137 45 254.5t128.5 204t201.5 135.5t264 49q116 0 201.5 -25.5t141.5 -56.5q65 -36 110 -81l-68 -88q-3 3 -29 25t-74.5 48t-119 47
t-162.5 21q-122 0 -218.5 -42.5t-163.5 -115t-102.5 -169.5t-35.5 -206q0 -108 34.5 -204.5t100.5 -168.5t161.5 -114.5t217.5 -42.5q101 0 184.5 32t143 91.5t92.5 144t33 189.5v12z" />
    <glyph glyph-name="H" unicode="H" horiz-adv-x="1372" 
d="M1190 0h-117v551h-774v-551h-117v1229h117v-570h774v570h117v-1229z" />
    <glyph glyph-name="I" unicode="I" horiz-adv-x="483" 
d="M299 0h-117v1229h117v-1229z" />
    <glyph glyph-name="J" unicode="J" 
d="M109 156q28 -20 63 -36q30 -14 71.5 -25t92.5 -11q69 0 123.5 18.5t92 57.5t57.5 101t20 149v819h116v-842q0 -104 -27 -182t-78.5 -130t-125.5 -78t-168 -26q-71 0 -125 14t-91.5 31.5t-57.5 32.5t-21 17z" />
    <glyph glyph-name="K" unicode="K" horiz-adv-x="1200" 
d="M299 520l723 709h137v-23l-495 -487l495 -696v-23h-131l-453 633l-276 -273v-360h-117v1229h117v-709z" />
    <glyph glyph-name="L" unicode="L" horiz-adv-x="1057" 
d="M182 0v1229h117v-1120h733v-109h-850z" />
    <glyph glyph-name="M" unicode="M" horiz-adv-x="1550" 
d="M1251 969l-458 -508h-37l-457 502v-963h-117v1229h37l557 -615l559 615h31v-1229h-115v969z" />
    <glyph glyph-name="N" unicode="N" horiz-adv-x="1425" 
d="M1241 0h-37l-905 979v-979h-117v1229h37l905 -977v977h117v-1229z" />
    <glyph glyph-name="O" unicode="O" horiz-adv-x="1450" 
d="M725 -29q-144 0 -261 49.5t-199.5 136t-127.5 203.5t-45 252q0 137 45 254.5t127.5 204t199.5 135.5t261 49t261 -49t199 -135.5t126.5 -204t44.5 -254.5q0 -135 -44.5 -252t-126.5 -203.5t-199 -136t-261 -49.5zM725 82q120 0 215 42.5t161.5 114.5t102 168.5
t35.5 204.5q0 109 -35.5 206t-102 169.5t-161.5 115t-215 42.5q-121 0 -216.5 -42.5t-161.5 -115t-101 -169.5t-35 -206q0 -108 35 -204.5t101 -168.5t161.5 -114.5t216.5 -42.5z" />
    <glyph glyph-name="P" unicode="P" horiz-adv-x="1227" 
d="M182 1229h492q114 0 204.5 -26t152.5 -77t95 -127t33 -176q0 -104 -34 -183t-98 -132t-154.5 -80t-204.5 -27h-369v-401h-117v1229zM1042 819q0 78 -26.5 134.5t-75.5 93.5t-117 55t-151 18h-373v-610h373q84 0 152 17.5t116.5 55t75 96t26.5 140.5z" />
    <glyph glyph-name="Q" unicode="Q" horiz-adv-x="1450" 
d="M725 -29q-144 0 -261 49.5t-199.5 136t-127.5 203.5t-45 252q0 137 45 254.5t127.5 204t199.5 135.5t261 49t261 -49t199 -135.5t126.5 -204t44.5 -254.5q0 -87 -19 -167.5t-54.5 -150t-87.5 -127t-118 -99.5l107 -158v-21h-125l-84 127q-56 -21 -118.5 -33t-131.5 -12z
M721 426h121l172 -262q54 36 95.5 84.5t70.5 106t44 122.5t15 135q0 109 -35.5 206t-102 169.5t-161.5 115t-215 42.5q-121 0 -216.5 -42.5t-161.5 -115t-101 -169.5t-35 -206q0 -108 35 -204.5t101 -168.5t161.5 -114.5t216.5 -42.5q102 0 186 31l-190 290v23z" />
    <glyph glyph-name="R" unicode="R" horiz-adv-x="1276" 
d="M182 1229h490q115 0 205.5 -26t153 -77t95.5 -127t33 -176q0 -78 -22 -141t-61.5 -111t-95.5 -80.5t-124 -50.5v-8l332 -403v-29h-125l-346 418h-418v-418h-117v1229zM1040 819q0 78 -26.5 134.5t-74.5 93.5t-116 55t-151 18h-373v-594h393q75 0 138.5 17t110 53t73 91.5
t26.5 131.5z" />
    <glyph glyph-name="S" unicode="S" horiz-adv-x="1087" 
d="M160 203q40 -35 95 -61q48 -23 117.5 -41.5t162.5 -18.5q91 0 157 16.5t108.5 46.5t62.5 72.5t20 93.5q0 52 -20.5 90t-64 69t-111 56.5t-161.5 51.5q-103 30 -182.5 61.5t-134 72t-83 93.5t-28.5 125q0 78 32 138.5t90.5 102t141.5 63t185 21.5q111 0 191 -18t133 -39
q62 -26 102 -57l-64 -97q-38 28 -92 50q-46 19 -113.5 35t-156.5 16q-69 0 -129.5 -14t-105 -41t-70 -67t-25.5 -93q0 -45 21 -79t64.5 -61.5t110.5 -51.5t160 -50q111 -31 192 -66t133.5 -79t77.5 -100.5t25 -129.5t-27 -135.5t-83.5 -108.5t-144 -72t-209.5 -26
q-114 0 -196.5 22t-137.5 49q-64 31 -109 71z" />
    <glyph glyph-name="T" unicode="T" horiz-adv-x="1061" 
d="M35 1229h993v-109h-440v-1120h-115v1120h-438v109z" />
    <glyph glyph-name="U" unicode="U" horiz-adv-x="1346" 
d="M672 -29q-121 0 -215.5 39t-159.5 110t-99 170.5t-34 221.5v717h117v-717q0 -95 25 -174t74 -136t122 -88.5t170 -31.5q98 0 172 31.5t123 88.5t73.5 136t24.5 174v717h115v-717q0 -122 -33.5 -221.5t-98.5 -170.5t-159.5 -110t-216.5 -39z" />
    <glyph glyph-name="V" unicode="V" horiz-adv-x="1243" 
d="M819 649l283 580h129l-596 -1229h-29l-596 1229h129l287 -580l188 -424h15z" />
    <glyph glyph-name="W" unicode="W" horiz-adv-x="1657" 
d="M784 1229h90l265 -946l16 -82h8l21 82l319 946h123l-426 -1229h-100l-264 942l-7 35h-6l-6 -35l-266 -942h-96l-426 1229h123l321 -946l19 -82h8l18 82z" />
    <glyph glyph-name="X" unicode="X" horiz-adv-x="1114" 
d="M639 631l442 -631h-141l-336 479l-47 86l-49 -86l-334 -479h-137l436 631l-420 598h142l323 -461l39 -76l43 76l322 461h139z" />
    <glyph glyph-name="Y" unicode="Y" horiz-adv-x="1106" 
d="M956 1229h136l-482 -758v-471h-116v471l-480 758h138l364 -580l31 -63h16l33 63z" />
    <glyph glyph-name="Z" unicode="Z" horiz-adv-x="1096" 
d="M63 29l787 1091h-766v109h958v-29l-778 -1091h758v-109h-959v29z" />
    <glyph glyph-name="bracketleft" unicode="[" horiz-adv-x="643" 
d="M164 1380h428v-98h-316v-1507h316v-99h-428v1704z" />
    <glyph glyph-name="backslash" unicode="\" horiz-adv-x="707" 
d="M68 1440h118l453 -1800h-119z" />
    <glyph glyph-name="bracketright" unicode="]" horiz-adv-x="643" 
d="M51 -225h314v1507h-314v98h426v-1704h-426v99z" />
    <glyph glyph-name="asciicircum" unicode="^" horiz-adv-x="831" 
d="M416 1270l-209 -271h-80v25l250 344h78l250 -344v-25h-80z" />
    <glyph glyph-name="underscore" unicode="_" horiz-adv-x="1001" 
d="M98 -41h797v-98h-797v98z" />
    <glyph glyph-name="grave" unicode="`" horiz-adv-x="520" 
d="M129 1159v23h143l99 -301v-23h-72z" />
    <glyph glyph-name="a" unicode="a" horiz-adv-x="864" 
d="M61 211q0 45 19 84.5t58.5 69t99.5 46.5t141 17q55 0 97 -8t72.5 -19.5t50 -23.5t30.5 -21h10v52q0 51 -14 91.5t-44 69t-78 43.5t-116 15q-51 0 -89.5 -9t-66.5 -20q-33 -13 -57 -29l-43 88q27 19 67 34q35 13 87 23.5t125 10.5q92 0 156.5 -25.5t105.5 -70t59.5 -105
t18.5 -131.5v-393h-82l-13 92h-8q-6 -9 -24 -27t-51.5 -36t-84.5 -31.5t-122 -13.5q-78 0 -135.5 18t-95 49t-55.5 72.5t-18 87.5zM176 211q0 -29 12.5 -55t38.5 -45t66 -30t94 -11t99.5 14.5t78.5 36t51.5 47t18.5 47.5q0 29 -19.5 53.5t-53 42t-79 27.5t-96.5 10
q-105 0 -158 -37.5t-53 -99.5z" />
    <glyph glyph-name="b" unicode="b" horiz-adv-x="958" 
d="M129 1368h115v-780h4q21 38 58 68q32 26 85 47.5t135 21.5q75 0 139.5 -27t112.5 -75.5t75.5 -117t27.5 -151.5q0 -84 -27.5 -152t-75.5 -116.5t-113.5 -75t-140.5 -26.5q-43 0 -78 6.5t-63.5 17t-51 24t-39.5 27.5q-40 33 -61 76h-4l-16 -135h-82v1368zM238 354
q0 -65 21.5 -115.5t57.5 -85t84.5 -53t102.5 -18.5q55 0 103 20t83 56t55.5 86t20.5 110q0 61 -20.5 111t-55.5 86t-83 56t-103 20q-54 0 -102.5 -18.5t-84.5 -53.5t-57.5 -86t-21.5 -115z" />
    <glyph glyph-name="d" unicode="d" horiz-adv-x="958" 
d="M715 596v772h114v-1368h-79l-17 129h-6q-23 -41 -63 -73q-34 -27 -90 -49.5t-140 -22.5q-74 0 -139.5 26.5t-114 75t-76.5 116.5t-28 152q0 83 27.5 151.5t75.5 117t113 75.5t140 27q80 0 134 -20.5t86 -44.5q38 -28 59 -64h4zM723 354q0 64 -21.5 115t-58 86t-85.5 53.5
t-103 18.5q-56 0 -103.5 -20t-83 -56t-55.5 -86t-20 -111q0 -60 20 -110t55.5 -86t83 -56t103.5 -20q54 0 103 18.5t85.5 53t58 85t21.5 115.5z" />
    <glyph glyph-name="e" unicode="e" horiz-adv-x="852" 
d="M735 61q-29 -22 -68 -40q-34 -15 -82.5 -27t-113.5 -12q-87 0 -160 26.5t-125 75.5t-81 117t-29 151t27 151.5t75 118t115 76.5t147 27q83 0 147.5 -26.5t108.5 -73.5t67 -111t23 -139v-39h-596q3 -63 26.5 -111t62 -81t88.5 -49.5t106 -16.5q53 0 93.5 9.5t69.5 21.5
q33 14 58 32zM438 631q-46 0 -86 -13.5t-71.5 -40t-53 -65t-30.5 -88.5h477q-6 44 -24 82t-48 65.5t-71.5 43.5t-92.5 16z" />
    <glyph glyph-name="f" unicode="f" horiz-adv-x="629" 
d="M317 616v-616h-114v616h-172v93h172v317q0 172 75.5 255t215.5 83q32 0 58.5 -5.5t45.5 -12.5t30 -12.5l13 -6.5l-35 -96q-15 7 -31 13q-14 5 -31.5 9t-35.5 4q-96 0 -143.5 -54.5t-47.5 -176.5v-317h277v-93h-277z" />
    <glyph glyph-name="g" unicode="g" horiz-adv-x="827" 
d="M432 -485q-92 0 -162 19.5t-118 54.5t-72.5 83.5t-24.5 106.5q0 69 37.5 123.5t116.5 85.5v8q-79 25 -110 65.5t-31 94.5q0 51 27 90t87 67q-21 31 -33 67.5t-12 78.5q0 57 20.5 105t58.5 83.5t90.5 55.5t117.5 20q10 0 31 -0.5t49 -1.5t59.5 -2.5t63.5 -2.5
q74 -4 161 -7v-86h-145v-9q19 -11 34 -32q13 -18 23.5 -48.5t10.5 -78.5q0 -50 -20 -95.5t-57.5 -80.5t-90.5 -55.5t-119 -20.5q-54 0 -99.5 13t-80.5 38q-38 -16 -56 -37.5t-18 -50.5q0 -25 12 -45.5t42 -35t80.5 -22.5t127.5 -8q95 0 166.5 -18.5t119 -53t71.5 -83
t24 -109.5q0 -59 -25 -109.5t-74 -87.5t-120 -58t-162 -21zM432 -39q-65 0 -115 -14.5t-83.5 -38.5t-50.5 -56t-17 -67q0 -37 17 -69t50.5 -56t83.5 -37.5t115 -13.5q66 0 116 13t84 36.5t51 56t17 70.5q0 37 -17 69t-51 56t-84 37.5t-116 13.5zM424 629q-45 0 -80 -13
t-59 -35.5t-36.5 -53.5t-12.5 -66q0 -36 12.5 -67t36.5 -53.5t59 -35t80 -12.5t80.5 12.5t60 35t37 53.5t12.5 67q0 35 -12.5 66t-37 53.5t-60 35.5t-80.5 13z" />
    <glyph glyph-name="h" unicode="h" horiz-adv-x="932" 
d="M129 1368h115v-747h4q14 18 37 36.5t55 33.5t72 24.5t88 9.5q75 0 133.5 -24t99 -67t61.5 -103t21 -132v-399h-115v385q0 52 -14 96.5t-42 76.5t-70.5 50.5t-98.5 18.5q-59 0 -101.5 -19t-70.5 -48t-42.5 -63t-16.5 -65v-432h-115v1368z" />
    <glyph glyph-name="i" unicode="i" horiz-adv-x="381" 
d="M190 869q-32 0 -54.5 21.5t-22.5 55.5t22.5 57t54.5 23q35 0 57.5 -23t22.5 -57t-22.5 -55.5t-57.5 -21.5zM133 709h115v-709h-115v709z" />
    <glyph glyph-name="j" unicode="j" horiz-adv-x="371" 
d="M-53 -289q12 -7 25 -12q11 -5 25.5 -8.5t31.5 -3.5q52 0 75 30.5t23 96.5v895h117v-899q0 -112 -45.5 -167t-147.5 -55q-29 0 -53 5t-41 12q-20 8 -35 18zM190 869q-32 0 -54.5 21.5t-22.5 55.5t22.5 57t54.5 23q35 0 57.5 -23t22.5 -57t-22.5 -55.5t-57.5 -21.5z" />
    <glyph glyph-name="k" unicode="k" horiz-adv-x="786" 
d="M719 709l-354 -347l409 -362h-162l-366 332h-4v-332h-115v1368h115v-985h4l334 326h139z" />
    <glyph glyph-name="l" unicode="l" horiz-adv-x="381" 
d="M133 1368h115v-1368h-115v1368z" />
    <glyph glyph-name="m" unicode="m" horiz-adv-x="1503" 
d="M815 0h-115v414q0 46 -14 85t-42 67.5t-70.5 44.5t-98.5 16q-59 0 -102 -19t-72 -48t-43 -63t-14 -65v-432h-115v709h80l14 -115h6q16 22 39 45.5t55 42.5t75.5 31t101.5 12q103 0 174 -39.5t106 -107.5h6q15 21 36.5 47t55.5 48t81.5 37t113.5 15q75 0 133 -24t98 -67
t61 -103t21 -132v-399h-114v385q0 52 -14 96.5t-41.5 76.5t-69.5 50.5t-98 18.5q-62 0 -106 -21t-72.5 -53t-42 -69.5t-13.5 -71.5v-412z" />
    <glyph glyph-name="n" unicode="n" horiz-adv-x="932" 
d="M244 0h-115v709h80l14 -115h6q14 21 35.5 44t54 42.5t77 32t104.5 12.5q75 0 133.5 -24t99 -67t61.5 -103t21 -132v-399h-115v385q0 52 -14 96.5t-42 76.5t-70.5 50.5t-98.5 18.5q-62 0 -105.5 -21t-71.5 -52t-41 -67t-13 -67v-420z" />
    <glyph glyph-name="o" unicode="o" 
d="M840 350q0 -84 -30 -152t-82 -115.5t-122 -73t-149 -25.5t-148.5 25.5t-121 73t-81.5 115.5t-30 152q0 85 30 154.5t81.5 118.5t121 75.5t148.5 26.5t149 -26.5t122 -75.5t82 -118.5t30 -154.5zM457 78q54 0 103 18.5t86 54t59 86t22 115.5q0 64 -22 115.5t-59 88t-86 56
t-103 19.5t-102.5 -19.5t-85 -56t-58 -88t-21.5 -115.5q0 -65 21.5 -115.5t58 -86t85 -54t102.5 -18.5z" />
    <glyph glyph-name="p" unicode="p" horiz-adv-x="958" 
d="M244 113v-506h-115v1102h80l16 -123h11q22 38 62 69q34 26 88.5 48t137.5 22q75 0 140.5 -26.5t113.5 -75t75.5 -117t27.5 -152.5q0 -83 -27.5 -151t-75.5 -117t-112.5 -75.5t-139.5 -26.5q-82 0 -135 20t-85 44q-37 28 -58 65h-4zM238 354q0 -65 21.5 -115.5t57.5 -85
t84.5 -53t102.5 -18.5q55 0 103 20t83 56t55.5 86t20.5 110t-20.5 110t-55.5 86.5t-83 56.5t-103 20q-54 0 -102.5 -18.5t-84.5 -53.5t-57.5 -86t-21.5 -115z" />
    <glyph glyph-name="q" unicode="q" horiz-adv-x="958" 
d="M829 -393h-114v514h-4q-20 -39 -58 -69q-32 -26 -86 -47t-135 -21q-75 0 -140 26.5t-113 75.5t-75.5 117t-27.5 151q0 84 28 152.5t76.5 117t114 75t139.5 26.5q43 0 78 -6.5t63.5 -17t50.5 -24.5t39 -28q39 -33 60 -76h8l15 136h81v-1102zM723 354q0 64 -21.5 115
t-58 86t-85.5 53.5t-103 18.5q-56 0 -103.5 -20t-83 -56.5t-55.5 -86.5t-20 -110t20 -110t55.5 -86t83 -56t103.5 -20q54 0 103 18.5t85.5 53t58 85t21.5 115.5z" />
    <glyph glyph-name="r" unicode="r" horiz-adv-x="573" 
d="M526 592q-12 6 -26 11q-12 4 -29.5 7.5t-38.5 3.5q-40 0 -72.5 -15.5t-56.5 -41t-39.5 -60t-19.5 -71.5v-426h-115v709h80l14 -115h4q8 12 22.5 32t39.5 39.5t61.5 33.5t87.5 14q30 0 53 -5t40 -10q19 -6 34 -14z" />
    <glyph glyph-name="s" unicode="s" horiz-adv-x="768" 
d="M119 145q32 -19 72 -34q35 -13 83 -23t107 -10q102 0 154.5 29.5t52.5 80.5q0 31 -21.5 52t-57.5 35.5t-81.5 25.5t-92.5 22.5t-92.5 26.5t-81.5 38t-57.5 55.5t-21.5 80.5q0 43 18 80t54.5 64t93 42t133.5 15q72 0 126 -9t91 -20q43 -12 74 -28l-43 -95q-26 16 -61 29
q-30 11 -74.5 20t-102.5 9q-94 0 -146 -23t-52 -82q0 -30 21.5 -49.5t57 -33t81 -23t93 -20.5t93 -26t81 -38.5t57 -58t21.5 -84.5q0 -43 -17.5 -81t-56 -66.5t-98.5 -45t-145 -16.5q-80 0 -138 12t-96 27q-45 18 -75 40z" />
    <glyph glyph-name="t" unicode="t" horiz-adv-x="631" 
d="M174 709v213h115v-213h291v-95h-291v-319q0 -113 44 -163t134 -50q20 0 38 4.5t32 10.5q16 7 30 16l39 -82q-18 -13 -42 -24q-20 -9 -48.5 -16t-64.5 -7q-137 0 -207 76.5t-70 232.5v321h-145v95h145z" />
    <glyph glyph-name="u" unicode="u" horiz-adv-x="924" 
d="M682 709h115v-709h-76l-21 113h-6q-4 -8 -20 -29t-47.5 -43.5t-81.5 -39.5t-121 -17q-75 0 -132 24t-96 66.5t-59 102.5t-20 132v400h114v-385q0 -53 13 -97t40 -76.5t68 -50.5t97 -18q61 0 105 21t72.5 52t42 67t13.5 67v420z" />
    <glyph glyph-name="v" unicode="v" horiz-adv-x="829" 
d="M455 0h-80l-350 709h129l245 -525q5 -9 8 -20.5t5 -28.5h6q2 17 5.5 28.5t8.5 20.5l246 525h127z" />
    <glyph glyph-name="w" unicode="w" horiz-adv-x="1186" 
d="M37 709h121l188 -525q5 -12 8.5 -26t3.5 -23h11q0 9 4.5 23t7.5 26l168 525h96l166 -525q5 -12 7.5 -26t2.5 -23h13q0 9 3.5 23t8.5 26l190 525h113l-279 -709h-96l-168 524q-3 10 -6.5 21t-3.5 22h-6q0 -11 -3.5 -22t-6.5 -21l-168 -524h-97z" />
    <glyph glyph-name="x" unicode="x" horiz-adv-x="786" 
d="M324 369l-271 340h133l205 -269h4l207 269h129l-270 -340l293 -369h-131l-228 299h-4l-229 -299h-129z" />
    <glyph glyph-name="y" unicode="y" horiz-adv-x="829" 
d="M274 -393h-120l208 424l-331 678h127l248 -525q6 -12 9 -26t3 -23h6q0 9 3 23t9 26l246 525h119z" />
    <glyph glyph-name="z" unicode="z" horiz-adv-x="762" 
d="M535 612h-467v97h626v-54l-469 -559h469v-96h-628v57z" />
    <glyph glyph-name="braceleft" unicode="{" horiz-adv-x="506" 
d="M72 575q26 0 48.5 11t39.5 32t27 52.5t10 72.5v486q0 96 48 150t154 63l17 -99q-27 -4 -46 -11.5t-30.5 -22t-17 -37.5t-5.5 -58v-481q0 -78 -27 -131t-81 -70v-16q54 -17 81 -69t27 -130v-481q0 -34 5.5 -57t17 -37.5t30.5 -22.5t46 -12l-17 -98q-106 9 -154 63t-48 150
v487q0 82 -36.5 124t-88.5 42h-25v100h25z" />
    <glyph glyph-name="bar" unicode="|" horiz-adv-x="436" 
d="M272 -311h-108v1689h108v-1689z" />
    <glyph glyph-name="braceright" unicode="}" horiz-adv-x="506" 
d="M432 475q-25 0 -47.5 -10.5t-40 -31.5t-27.5 -52t-10 -72v-487q0 -95 -47.5 -149.5t-155.5 -63.5l-16 98q27 4 45.5 12t30.5 22.5t17 37.5t5 57v481q0 78 27.5 130t83.5 69v16q-56 17 -83.5 70t-27.5 131v481q0 35 -5 58t-17 37.5t-30.5 22t-45.5 11.5l16 99
q108 -9 155.5 -63.5t47.5 -149.5v-486q0 -41 10 -72.5t27.5 -52.5t40 -32t47.5 -11h27v-100h-27z" />
    <glyph glyph-name="asciitilde" unicode="~" horiz-adv-x="926" 
d="M612 623q38 0 66.5 6t47.5 14q22 9 36 21l41 -72q-18 -18 -45 -32q-23 -12 -59 -22t-87 -10q-39 0 -74.5 8.5t-71.5 19t-74 19.5t-81 9q-38 0 -65.5 -7t-46.5 -15q-22 -10 -37 -21l-39 71q18 18 44 32q23 12 58 22t86 10q39 0 75.5 -8.5t72.5 -18t73.5 -18t79.5 -8.5z
" />
    <glyph glyph-name="Adieresis" unicode="&#xc4;" horiz-adv-x="1243" 
d="M350 1464q0 16 6.5 30.5t17.5 25.5t25.5 17.5t30.5 6.5t30.5 -6.5t25.5 -17.5t17.5 -25.5t6.5 -30.5t-6.5 -30.5t-17.5 -25.5t-25.5 -17.5t-30.5 -6.5t-30.5 6.5t-25.5 17.5t-17.5 25.5t-6.5 30.5zM715 1464q0 16 6.5 30.5t17.5 25.5t25.5 17.5t30.5 6.5t30.5 -6.5
t25 -17.5t17 -25.5t6.5 -30.5t-6.5 -30.5t-17 -25.5t-25 -17.5t-30.5 -6.5t-30.5 6.5t-25.5 17.5t-17.5 25.5t-6.5 30.5zM606 1229h29l600 -1229h-133l-117 233h-727l-117 -233h-131zM629 991h-17l-286 -624l-13 -23h617l-12 23z" />
    <glyph glyph-name="Aring" unicode="&#xc5;" horiz-adv-x="1245" 
d="M594 1202q-35 4 -64 19.5t-50.5 39.5t-33.5 55t-12 66q0 39 14 72t39 57t58.5 38t72.5 14q40 0 74 -14t58.5 -38t38.5 -57t14 -72q0 -35 -11.5 -65.5t-32.5 -54t-49.5 -38.5t-62.5 -20l588 -1204h-133l-117 233h-727l-117 -233h-131zM629 991h-17l-286 -624l-13 -23h617
l-12 23zM723 1382q0 48 -27.5 76.5t-77.5 28.5q-48 0 -76 -28.5t-28 -76.5q0 -46 28 -75t76 -29q50 0 77.5 29t27.5 75z" />
    <glyph glyph-name="Ccedilla" unicode="&#xc7;" horiz-adv-x="1214" 
d="M649 -88l33 61q-131 9 -239.5 62t-186.5 138t-121 197.5t-43 241.5q0 137 47 254.5t131.5 204t202 135.5t258.5 49q107 0 186.5 -25t132.5 -55q62 -35 105 -79l-68 -90q-40 38 -93 69q-45 26 -110.5 48t-150.5 22q-117 0 -213 -42.5t-164.5 -115t-106.5 -169.5t-38 -206
q0 -108 38 -204.5t106.5 -168.5t164.5 -114.5t213 -42.5q85 0 150.5 21.5t110.5 47.5q53 31 93 70l68 -88q-41 -44 -100 -78q-50 -29 -125.5 -55t-175.5 -29l-17 -32q29 0 55 -7.5t45.5 -23.5t30.5 -40t11 -58q0 -62 -43 -101t-121 -39q-37 0 -63.5 8t-43.5 19
q-20 11 -35 27l29 53q13 -12 31 -22q15 -8 35.5 -14.5t46.5 -6.5q45 0 69.5 20t24.5 58q0 35 -26 54t-64 19q-11 0 -18.5 -1t-12.5 -3q-6 -2 -10 -4z" />
    <glyph glyph-name="Eacute" unicode="&#xc9;" horiz-adv-x="1153" 
d="M979 551h-680v-442h772v-109h-889v1229h889v-109h-772v-461h680v-108zM655 1352h-48v15l66 200h95v-15z" />
    <glyph glyph-name="Ntilde" unicode="&#xd1;" horiz-adv-x="1425" 
d="M1241 0h-37l-905 979v-979h-117v1229h37l905 -977v977h117v-1229zM844 1364q-42 0 -77.5 16t-67.5 35t-61.5 35t-59.5 16q-22 0 -36 -6t-23 -16.5t-15 -24t-10 -28.5l-9 -27l-82 8l11 45q5 27 15.5 52t28.5 44.5t44.5 31t64.5 11.5q41 0 76 -15.5t66.5 -34.5t61.5 -34.5
t60 -15.5q43 0 61 22.5t26 53.5l6 24l82 -8l-9 -43q-5 -27 -16 -52.5t-29 -45t-44.5 -31.5t-63.5 -12z" />
    <glyph glyph-name="Odieresis" unicode="&#xd6;" horiz-adv-x="1450" 
d="M463 1442q0 16 6.5 30.5t17.5 25.5t25.5 17.5t30.5 6.5t30.5 -6.5t25.5 -17.5t17.5 -25.5t6.5 -30.5t-6.5 -30.5t-17.5 -25.5t-25.5 -17.5t-30.5 -6.5t-30.5 6.5t-25.5 17.5t-17.5 25.5t-6.5 30.5zM827 1442q0 16 6.5 30.5t17.5 25.5t25.5 17.5t30.5 6.5t30.5 -6.5
t25.5 -17.5t17.5 -25.5t6.5 -30.5t-6.5 -30.5t-17.5 -25.5t-25.5 -17.5t-30.5 -6.5t-30.5 6.5t-25.5 17.5t-17.5 25.5t-6.5 30.5zM725 -29q-144 0 -261 49.5t-199.5 136t-127.5 203.5t-45 252q0 137 45 254.5t127.5 204t199.5 135.5t261 49t261 -49t199 -135.5t126.5 -204
t44.5 -254.5q0 -135 -44.5 -252t-126.5 -203.5t-199 -136t-261 -49.5zM725 82q120 0 215 42.5t161.5 114.5t102 168.5t35.5 204.5q0 109 -35.5 206t-102 169.5t-161.5 115t-215 42.5q-121 0 -216.5 -42.5t-161.5 -115t-101 -169.5t-35 -206q0 -108 35 -204.5t101 -168.5
t161.5 -114.5t216.5 -42.5z" />
    <glyph glyph-name="Udieresis" unicode="&#xdc;" horiz-adv-x="1346" 
d="M412 1446q0 16 6.5 30.5t17.5 25.5t25.5 17.5t30.5 6.5t30.5 -6.5t25 -17.5t17 -25.5t6.5 -30.5t-6.5 -30.5t-17 -25.5t-25 -17.5t-30.5 -6.5t-30.5 6.5t-25.5 17.5t-17.5 25.5t-6.5 30.5zM776 1446q0 16 6.5 30.5t17.5 25.5t25.5 17.5t30.5 6.5t30.5 -6.5t25.5 -17.5
t17.5 -25.5t6.5 -30.5t-6.5 -30.5t-17.5 -25.5t-25.5 -17.5t-30.5 -6.5t-30.5 6.5t-25.5 17.5t-17.5 25.5t-6.5 30.5zM672 -29q-121 0 -215.5 39t-159.5 110t-99 170.5t-34 221.5v717h117v-717q0 -95 25 -174t74 -136t122 -88.5t170 -31.5q98 0 172 31.5t123 88.5t73.5 136
t24.5 174v717h115v-717q0 -122 -33.5 -221.5t-98.5 -170.5t-159.5 -110t-216.5 -39z" />
    <glyph glyph-name="aacute" unicode="&#xe1;" horiz-adv-x="864" 
d="M61 211q0 45 19 84.5t58.5 69t99.5 46.5t141 17q55 0 97 -8t72.5 -19.5t50 -23.5t30.5 -21h10v52q0 51 -14 91.5t-44 69t-78 43.5t-116 15q-51 0 -89.5 -9t-66.5 -20q-33 -13 -57 -29l-43 88q27 19 67 34q35 13 87 23.5t125 10.5q92 0 156.5 -25.5t105.5 -70t59.5 -105
t18.5 -131.5v-393h-82l-13 92h-8q-6 -9 -24 -27t-51.5 -36t-84.5 -31.5t-122 -13.5q-78 0 -135.5 18t-95 49t-55.5 72.5t-18 87.5zM176 211q0 -29 12.5 -55t38.5 -45t66 -30t94 -11t99.5 14.5t78.5 36t51.5 47t18.5 47.5q0 29 -19.5 53.5t-53 42t-79 27.5t-96.5 10
q-105 0 -158 -37.5t-53 -99.5zM437 858h-48v15l66 200h95v-15z" />
    <glyph glyph-name="agrave" unicode="&#xe0;" horiz-adv-x="864" 
d="M61 211q0 45 19 84.5t58.5 69t99.5 46.5t141 17q55 0 97 -8t72.5 -19.5t50 -23.5t30.5 -21h10v52q0 51 -14 91.5t-44 69t-78 43.5t-116 15q-51 0 -89.5 -9t-66.5 -20q-33 -13 -57 -29l-43 88q27 19 67 34q35 13 87 23.5t125 10.5q92 0 156.5 -25.5t105.5 -70t59.5 -105
t18.5 -131.5v-393h-82l-13 92h-8q-6 -9 -24 -27t-51.5 -36t-84.5 -31.5t-122 -13.5q-78 0 -135.5 18t-95 49t-55.5 72.5t-18 87.5zM176 211q0 -29 12.5 -55t38.5 -45t66 -30t94 -11t99.5 14.5t78.5 36t51.5 47t18.5 47.5q0 29 -19.5 53.5t-53 42t-79 27.5t-96.5 10
q-105 0 -158 -37.5t-53 -99.5zM272 1058v16h95l66 -200v-16h-48z" />
    <glyph glyph-name="acircumflex" unicode="&#xe2;" horiz-adv-x="864" 
d="M61 211q0 45 19 84.5t58.5 69t99.5 46.5t141 17q55 0 97 -8t72.5 -19.5t50 -23.5t30.5 -21h10v52q0 51 -14 91.5t-44 69t-78 43.5t-116 15q-51 0 -89.5 -9t-66.5 -20q-33 -13 -57 -29l-43 88q27 19 67 34q35 13 87 23.5t125 10.5q92 0 156.5 -25.5t105.5 -70t59.5 -105
t18.5 -131.5v-393h-82l-13 92h-8q-6 -9 -24 -27t-51.5 -36t-84.5 -31.5t-122 -13.5q-78 0 -135.5 18t-95 49t-55.5 72.5t-18 87.5zM176 211q0 -29 12.5 -55t38.5 -45t66 -30t94 -11t99.5 14.5t78.5 36t51.5 47t18.5 47.5q0 29 -19.5 53.5t-53 42t-79 27.5t-96.5 10
q-105 0 -158 -37.5t-53 -99.5zM413 981l-120 -123h-51v14l133 176h75l133 -176v-14h-52z" />
    <glyph glyph-name="adieresis" unicode="&#xe4;" horiz-adv-x="864" 
d="M61 211q0 45 19 84.5t58.5 69t99.5 46.5t141 17q55 0 97 -8t72.5 -19.5t50 -23.5t30.5 -21h10v52q0 51 -14 91.5t-44 69t-78 43.5t-116 15q-51 0 -89.5 -9t-66.5 -20q-33 -13 -57 -29l-43 88q27 19 67 34q35 13 87 23.5t125 10.5q92 0 156.5 -25.5t105.5 -70t59.5 -105
t18.5 -131.5v-393h-82l-13 92h-8q-6 -9 -24 -27t-51.5 -36t-84.5 -31.5t-122 -13.5q-78 0 -135.5 18t-95 49t-55.5 72.5t-18 87.5zM176 211q0 -29 12.5 -55t38.5 -45t66 -30t94 -11t99.5 14.5t78.5 36t51.5 47t18.5 47.5q0 29 -19.5 53.5t-53 42t-79 27.5t-96.5 10
q-105 0 -158 -37.5t-53 -99.5zM147 989q0 16 6.5 30.5t17.5 25.5t25.5 17.5t30.5 6.5t30.5 -6.5t25.5 -17.5t17.5 -25.5t6.5 -30.5t-6.5 -30.5t-17.5 -25.5t-25.5 -17.5t-30.5 -6.5t-30.5 6.5t-25.5 17.5t-17.5 25.5t-6.5 30.5zM512 989q0 16 6.5 30.5t17.5 25.5t25.5 17.5
t30.5 6.5t30.5 -6.5t25.5 -17.5t17.5 -25.5t6.5 -30.5t-6.5 -30.5t-17.5 -25.5t-25.5 -17.5t-30.5 -6.5t-30.5 6.5t-25.5 17.5t-17.5 25.5t-6.5 30.5z" />
    <glyph glyph-name="atilde" unicode="&#xe3;" horiz-adv-x="864" 
d="M61 211q0 45 19 84.5t58.5 69t99.5 46.5t141 17q55 0 97 -8t72.5 -19.5t50 -23.5t30.5 -21h10v52q0 51 -14 91.5t-44 69t-78 43.5t-116 15q-51 0 -89.5 -9t-66.5 -20q-33 -13 -57 -29l-43 88q27 19 67 34q35 13 87 23.5t125 10.5q92 0 156.5 -25.5t105.5 -70t59.5 -105
t18.5 -131.5v-393h-82l-13 92h-8q-6 -9 -24 -27t-51.5 -36t-84.5 -31.5t-122 -13.5q-78 0 -135.5 18t-95 49t-55.5 72.5t-18 87.5zM176 211q0 -29 12.5 -55t38.5 -45t66 -30t94 -11t99.5 14.5t78.5 36t51.5 47t18.5 47.5q0 29 -19.5 53.5t-53 42t-79 27.5t-96.5 10
q-105 0 -158 -37.5t-53 -99.5zM516 856q-29 0 -54 11.5t-47.5 25t-43.5 25t-42 11.5q-30 0 -41.5 -16.5t-17.5 -37.5l-6 -19l-57 6l6 32q4 19 11 37t20 31.5t31.5 21.5t45.5 8q28 0 53 -11t47.5 -24t43.5 -24t42 -11q30 0 43 15t18 38l4 17l57 -5l-5 -30q-4 -20 -11.5 -38
t-20 -32t-31.5 -22.5t-45 -8.5z" />
    <glyph glyph-name="aring" unicode="&#xe5;" horiz-adv-x="864" 
d="M61 211q0 45 19 84.5t58.5 69t99.5 46.5t141 17q55 0 97 -8t72.5 -19.5t50 -23.5t30.5 -21h10v52q0 51 -14 91.5t-44 69t-78 43.5t-116 15q-51 0 -89.5 -9t-66.5 -20q-33 -13 -57 -29l-43 88q27 19 67 34q35 13 87 23.5t125 10.5q92 0 156.5 -25.5t105.5 -70t59.5 -105
t18.5 -131.5v-393h-82l-13 92h-8q-6 -9 -24 -27t-51.5 -36t-84.5 -31.5t-122 -13.5q-78 0 -135.5 18t-95 49t-55.5 72.5t-18 87.5zM176 211q0 -29 12.5 -55t38.5 -45t66 -30t94 -11t99.5 14.5t78.5 36t51.5 47t18.5 47.5q0 29 -19.5 53.5t-53 42t-79 27.5t-96.5 10
q-105 0 -158 -37.5t-53 -99.5zM430 887q-39 0 -72.5 14t-58.5 38t-39 57t-14 71t14 71t39 57t58.5 38t72.5 14q40 0 74 -14t58.5 -38t38 -57t13.5 -71t-13.5 -71t-38 -57t-58.5 -38t-74 -14zM535 1067q0 48 -27.5 76t-77.5 28q-48 0 -76 -28t-28 -76q0 -46 28 -75t76 -29
q50 0 77.5 29t27.5 75z" />
    <glyph glyph-name="ccedilla" unicode="&#xe7;" horiz-adv-x="748" 
d="M362 -88l39 76q-71 8 -131 37.5t-103 77t-67 110.5t-24 139q0 83 29 151.5t80.5 118t122 76.5t153.5 27q56 0 99 -10t72 -21q34 -13 60 -30l-35 -89q-22 15 -51 26q-25 10 -60 18t-79 8q-56 0 -105.5 -19.5t-87 -55t-59.5 -86.5t-22 -114q0 -64 22 -114t59.5 -84.5
t87 -53t105.5 -18.5q44 0 79 7.5t60 17.5q29 11 51 26l33 -88q-23 -16 -56 -29q-28 -11 -68 -20.5t-93 -11.5l-22 -45q29 0 54.5 -7.5t45 -23.5t30.5 -40t11 -58q0 -62 -43 -101t-121 -39q-36 0 -63 8t-44 19q-20 11 -34 27l28 53q13 -12 31 -22q15 -8 35.5 -14.5t46.5 -6.5
q45 0 69.5 20t24.5 58q0 35 -26 54t-64 19q-10 0 -17.5 -1t-12.5 -3q-6 -2 -11 -4z" />
    <glyph glyph-name="eacute" unicode="&#xe9;" horiz-adv-x="852" 
d="M735 61q-29 -22 -68 -40q-34 -15 -82.5 -27t-113.5 -12q-87 0 -160 26.5t-125 75.5t-81 117t-29 151t27 151.5t75 118t115 76.5t147 27q83 0 147.5 -26.5t108.5 -73.5t67 -111t23 -139v-39h-596q3 -63 26.5 -111t62 -81t88.5 -49.5t106 -16.5q53 0 93.5 9.5t69.5 21.5
q33 14 58 32zM438 631q-46 0 -86 -13.5t-71.5 -40t-53 -65t-30.5 -88.5h477q-6 44 -24 82t-48 65.5t-71.5 43.5t-92.5 16zM470 858h-48v15l66 200h95v-15z" />
    <glyph glyph-name="egrave" unicode="&#xe8;" horiz-adv-x="852" 
d="M735 61q-29 -22 -68 -40q-34 -15 -82.5 -27t-113.5 -12q-87 0 -160 26.5t-125 75.5t-81 117t-29 151t27 151.5t75 118t115 76.5t147 27q83 0 147.5 -26.5t108.5 -73.5t67 -111t23 -139v-39h-596q3 -63 26.5 -111t62 -81t88.5 -49.5t106 -16.5q53 0 93.5 9.5t69.5 21.5
q33 14 58 32zM438 631q-46 0 -86 -13.5t-71.5 -40t-53 -65t-30.5 -88.5h477q-6 44 -24 82t-48 65.5t-71.5 43.5t-92.5 16zM291 1058v16h95l66 -200v-16h-48z" />
    <glyph glyph-name="ecircumflex" unicode="&#xea;" horiz-adv-x="852" 
d="M735 61q-29 -22 -68 -40q-34 -15 -82.5 -27t-113.5 -12q-87 0 -160 26.5t-125 75.5t-81 117t-29 151t27 151.5t75 118t115 76.5t147 27q83 0 147.5 -26.5t108.5 -73.5t67 -111t23 -139v-39h-596q3 -63 26.5 -111t62 -81t88.5 -49.5t106 -16.5q53 0 93.5 9.5t69.5 21.5
q33 14 58 32zM438 631q-46 0 -86 -13.5t-71.5 -40t-53 -65t-30.5 -88.5h477q-6 44 -24 82t-48 65.5t-71.5 43.5t-92.5 16zM438 981l-120 -123h-51v14l133 176h75l133 -176v-14h-52z" />
    <glyph glyph-name="edieresis" unicode="&#xeb;" horiz-adv-x="852" 
d="M184 989q0 16 6.5 30.5t17.5 25.5t25.5 17.5t30.5 6.5t30.5 -6.5t25.5 -17.5t17.5 -25.5t6.5 -30.5t-6.5 -30.5t-17.5 -25.5t-25.5 -17.5t-30.5 -6.5t-30.5 6.5t-25.5 17.5t-17.5 25.5t-6.5 30.5zM549 989q0 16 6.5 30.5t17.5 25.5t25.5 17.5t30.5 6.5t30.5 -6.5
t25.5 -17.5t17.5 -25.5t6.5 -30.5t-6.5 -30.5t-17.5 -25.5t-25.5 -17.5t-30.5 -6.5t-30.5 6.5t-25.5 17.5t-17.5 25.5t-6.5 30.5zM735 61q-29 -22 -68 -40q-34 -15 -82.5 -27t-113.5 -12q-87 0 -160 26.5t-125 75.5t-81 117t-29 151t27 151.5t75 118t115 76.5t147 27
q83 0 147.5 -26.5t108.5 -73.5t67 -111t23 -139v-39h-596q3 -63 26.5 -111t62 -81t88.5 -49.5t106 -16.5q53 0 93.5 9.5t69.5 21.5q33 14 58 32zM438 631q-46 0 -86 -13.5t-71.5 -40t-53 -65t-30.5 -88.5h477q-6 44 -24 82t-48 65.5t-71.5 43.5t-92.5 16z" />
    <glyph glyph-name="iacute" unicode="&#xed;" horiz-adv-x="381" 
d="M133 709h115v-709h-115v709zM225 858h-48v15l66 200h95v-15z" />
    <glyph glyph-name="igrave" unicode="&#xec;" horiz-adv-x="381" 
d="M133 709h115v-709h-115v709zM61 1058v16h95l66 -200v-16h-48z" />
    <glyph glyph-name="icircumflex" unicode="&#xee;" horiz-adv-x="381" 
d="M193 1085l-218 -227h-73v23l225 301h129l225 -301v-23h-73zM133 709h115v-709h-115v709z" />
    <glyph glyph-name="idieresis" unicode="&#xef;" horiz-adv-x="381" 
d="M-68 989q0 16 6.5 30.5t17.5 25.5t25.5 17.5t30.5 6.5t30.5 -6.5t25.5 -17.5t17.5 -25.5t6.5 -30.5t-6.5 -30.5t-17.5 -25.5t-25.5 -17.5t-30.5 -6.5t-30.5 6.5t-25.5 17.5t-17.5 25.5t-6.5 30.5zM297 989q0 16 6.5 30.5t17.5 25.5t25.5 17.5t30.5 6.5t30.5 -6.5
t25.5 -17.5t17.5 -25.5t6.5 -30.5t-6.5 -30.5t-17.5 -25.5t-25.5 -17.5t-30.5 -6.5t-30.5 6.5t-25.5 17.5t-17.5 25.5t-6.5 30.5zM133 709h115v-709h-115v709z" />
    <glyph glyph-name="ntilde" unicode="&#xf1;" horiz-adv-x="932" 
d="M244 0h-115v709h80l14 -115h6q14 21 35.5 44t54 42.5t77 32t104.5 12.5q75 0 133.5 -24t99 -67t61.5 -103t21 -132v-399h-115v385q0 52 -14 96.5t-42 76.5t-70.5 50.5t-98.5 18.5q-62 0 -105.5 -21t-71.5 -52t-41 -67t-13 -67v-420zM557 856q-29 0 -54 11.5t-47.5 25
t-43.5 25t-42 11.5q-30 0 -41.5 -16.5t-17.5 -37.5l-6 -19l-57 6l6 32q4 19 11 37t20 31.5t31.5 21.5t45.5 8q28 0 53 -11t47.5 -24t43.5 -24t42 -11q30 0 43 15t18 38l4 17l57 -5l-5 -30q-4 -20 -11.5 -38t-20 -32t-31.5 -22.5t-45 -8.5z" />
    <glyph glyph-name="oacute" unicode="&#xf3;" 
d="M840 350q0 -84 -30 -152t-82 -115.5t-122 -73t-149 -25.5t-148.5 25.5t-121 73t-81.5 115.5t-30 152q0 85 30 154.5t81.5 118.5t121 75.5t148.5 26.5t149 -26.5t122 -75.5t82 -118.5t30 -154.5zM457 78q54 0 103 18.5t86 54t59 86t22 115.5q0 64 -22 115.5t-59 88t-86 56
t-103 19.5t-102.5 -19.5t-85 -56t-58 -88t-21.5 -115.5q0 -65 21.5 -115.5t58 -86t85 -54t102.5 -18.5zM478 858h-48v15l66 200h95v-15z" />
    <glyph glyph-name="ograve" unicode="&#xf2;" 
d="M840 350q0 -84 -30 -152t-82 -115.5t-122 -73t-149 -25.5t-148.5 25.5t-121 73t-81.5 115.5t-30 152q0 85 30 154.5t81.5 118.5t121 75.5t148.5 26.5t149 -26.5t122 -75.5t82 -118.5t30 -154.5zM457 78q54 0 103 18.5t86 54t59 86t22 115.5q0 64 -22 115.5t-59 88t-86 56
t-103 19.5t-102.5 -19.5t-85 -56t-58 -88t-21.5 -115.5q0 -65 21.5 -115.5t58 -86t85 -54t102.5 -18.5zM272 1058v16h95l66 -200v-16h-48z" />
    <glyph glyph-name="ocircumflex" unicode="&#xf4;" 
d="M840 350q0 -84 -30 -152t-82 -115.5t-122 -73t-149 -25.5t-148.5 25.5t-121 73t-81.5 115.5t-30 152q0 85 30 154.5t81.5 118.5t121 75.5t148.5 26.5t149 -26.5t122 -75.5t82 -118.5t30 -154.5zM457 78q54 0 103 18.5t86 54t59 86t22 115.5q0 64 -22 115.5t-59 88t-86 56
t-103 19.5t-102.5 -19.5t-85 -56t-58 -88t-21.5 -115.5q0 -65 21.5 -115.5t58 -86t85 -54t102.5 -18.5zM458 981l-120 -123h-51v14l133 176h75l133 -176v-14h-52z" />
    <glyph glyph-name="odieresis" unicode="&#xf6;" 
d="M195 989q0 16 6.5 30.5t17 25.5t25 17.5t30.5 6.5t30.5 -6.5t25.5 -17.5t17.5 -25.5t6.5 -30.5t-6.5 -30.5t-17.5 -25.5t-25.5 -17.5t-30.5 -6.5t-30.5 6.5t-25 17.5t-17 25.5t-6.5 30.5zM559 989q0 16 6.5 30.5t17.5 25.5t25.5 17.5t30.5 6.5t30.5 -6.5t25.5 -17.5
t17.5 -25.5t6.5 -30.5t-6.5 -30.5t-17.5 -25.5t-25.5 -17.5t-30.5 -6.5t-30.5 6.5t-25.5 17.5t-17.5 25.5t-6.5 30.5zM840 350q0 -84 -30 -152t-82 -115.5t-122 -73t-149 -25.5t-148.5 25.5t-121 73t-81.5 115.5t-30 152q0 85 30 154.5t81.5 118.5t121 75.5t148.5 26.5
t149 -26.5t122 -75.5t82 -118.5t30 -154.5zM457 78q54 0 103 18.5t86 54t59 86t22 115.5q0 64 -22 115.5t-59 88t-86 56t-103 19.5t-102.5 -19.5t-85 -56t-58 -88t-21.5 -115.5q0 -65 21.5 -115.5t58 -86t85 -54t102.5 -18.5z" />
    <glyph glyph-name="otilde" unicode="&#xf5;" 
d="M840 350q0 -84 -30 -152t-82 -115.5t-122 -73t-149 -25.5t-148.5 25.5t-121 73t-81.5 115.5t-30 152q0 85 30 154.5t81.5 118.5t121 75.5t148.5 26.5t149 -26.5t122 -75.5t82 -118.5t30 -154.5zM457 78q54 0 103 18.5t86 54t59 86t22 115.5q0 64 -22 115.5t-59 88t-86 56
t-103 19.5t-102.5 -19.5t-85 -56t-58 -88t-21.5 -115.5q0 -65 21.5 -115.5t58 -86t85 -54t102.5 -18.5zM576 857q-29 0 -54 11.5t-47.5 25t-43.5 25t-42 11.5q-30 0 -41.5 -16.5t-17.5 -37.5l-6 -19l-57 6l6 32q4 19 11 37t20 31.5t31.5 21.5t45.5 8q28 0 53 -11t47.5 -24
t43.5 -24t42 -11q30 0 43 15t18 38l4 17l57 -5l-5 -30q-4 -20 -11.5 -38t-20 -32t-31.5 -22.5t-45 -8.5z" />
    <glyph glyph-name="uacute" unicode="&#xfa;" horiz-adv-x="924" 
d="M682 709h115v-709h-76l-21 113h-6q-4 -8 -20 -29t-47.5 -43.5t-81.5 -39.5t-121 -17q-75 0 -132 24t-96 66.5t-59 102.5t-20 132v400h114v-385q0 -53 13 -97t40 -76.5t68 -50.5t97 -18q61 0 105 21t72.5 52t42 67t13.5 67v420zM489 858h-48v15l66 200h95v-15z" />
    <glyph glyph-name="ugrave" unicode="&#xf9;" horiz-adv-x="924" 
d="M682 709h115v-709h-76l-21 113h-6q-4 -8 -20 -29t-47.5 -43.5t-81.5 -39.5t-121 -17q-75 0 -132 24t-96 66.5t-59 102.5t-20 132v400h114v-385q0 -53 13 -97t40 -76.5t68 -50.5t97 -18q61 0 105 21t72.5 52t42 67t13.5 67v420zM320 1058v16h95l66 -200v-16h-48z" />
    <glyph glyph-name="ucircumflex" unicode="&#xfb;" horiz-adv-x="924" 
d="M465 1085l-217 -227h-74v23l225 301h129l226 -301v-23h-74zM682 709h115v-709h-76l-21 113h-6q-4 -8 -20 -29t-47.5 -43.5t-81.5 -39.5t-121 -17q-75 0 -132 24t-96 66.5t-59 102.5t-20 132v400h114v-385q0 -53 13 -97t40 -76.5t68 -50.5t97 -18q61 0 105 21t72.5 52
t42 67t13.5 67v420z" />
    <glyph glyph-name="udieresis" unicode="&#xfc;" horiz-adv-x="924" 
d="M197 989q0 16 6.5 30.5t17 25.5t25 17.5t30.5 6.5t30.5 -6.5t25.5 -17.5t17.5 -25.5t6.5 -30.5t-6.5 -30.5t-17.5 -25.5t-25.5 -17.5t-30.5 -6.5t-30.5 6.5t-25 17.5t-17 25.5t-6.5 30.5zM561 989q0 16 6.5 30.5t17.5 25.5t25.5 17.5t30.5 6.5t30.5 -6.5t25.5 -17.5
t17.5 -25.5t6.5 -30.5t-6.5 -30.5t-17.5 -25.5t-25.5 -17.5t-30.5 -6.5t-30.5 6.5t-25.5 17.5t-17.5 25.5t-6.5 30.5zM682 709h115v-709h-76l-21 113h-6q-4 -8 -20 -29t-47.5 -43.5t-81.5 -39.5t-121 -17q-75 0 -132 24t-96 66.5t-59 102.5t-20 132v400h114v-385
q0 -53 13 -97t40 -76.5t68 -50.5t97 -18q61 0 105 21t72.5 52t42 67t13.5 67v420z" />
    <glyph glyph-name="dagger" unicode="&#x2020;" horiz-adv-x="864" 
d="M70 707h313v522h100v-522h312v-99h-312l-14 -1001h-72l-14 1001h-313v99z" />
    <glyph glyph-name="degree" unicode="&#xb0;" horiz-adv-x="647" 
d="M324 1376q54 0 98 -17t75.5 -47t48.5 -70.5t17 -86.5t-17 -86t-48.5 -69.5t-75.5 -46.5t-98 -17t-98.5 17t-76 46.5t-48.5 69.5t-17 86t17 86.5t48.5 70.5t76 47t98.5 17zM324 1307q-38 0 -68.5 -12t-51.5 -32.5t-32.5 -48.5t-11.5 -59t11.5 -57.5t32.5 -46.5t51.5 -31.5
t68.5 -11.5q37 0 67 11.5t51.5 31.5t33 46.5t11.5 57.5t-11.5 59t-33 48.5t-51.5 32.5t-67 12z" />
    <glyph glyph-name="cent" unicode="&#xa2;" horiz-adv-x="846" 
d="M428 -12q-71 9 -130 39t-102.5 77t-67.5 110t-24 138t24 138t66.5 111t101.5 79t130 41v172h86v-168q52 -2 93 -12.5t70 -21.5q33 -13 58 -29l-41 -91q-24 16 -54 28q-26 11 -61.5 19.5t-78.5 8.5q-56 0 -106 -19.5t-88 -55t-60.5 -86.5t-22.5 -114q0 -64 22.5 -114
t60.5 -84.5t88 -53t106 -18.5q43 0 78.5 8t61.5 18q30 11 54 27l41 -88q-25 -16 -58 -29q-29 -11 -69.5 -21.5t-91.5 -12.5v-164h-86v168z" />
    <glyph glyph-name="sterling" unicode="&#xa3;" horiz-adv-x="1047" 
d="M924 10h-787v105l23 11.5t45 36.5t43.5 69.5t19.5 109.5q0 34 -10.5 71.5t-26.5 78.5h-131v94h95q-20 52 -35 109.5t-15 123.5q0 75 27.5 150.5t84.5 136t144 98t207 37.5q91 0 154 -20t105 -43q48 -27 79 -62l-65 -84q-25 27 -64 49q-33 18 -83.5 33.5t-119.5 15.5
q-90 0 -155 -28.5t-106.5 -74t-61 -102t-19.5 -112.5q0 -65 15 -120.5t35 -106.5h514v-94h-478q14 -38 23.5 -74.5t9.5 -73.5q0 -43 -8 -78t-21.5 -63.5t-31 -50t-35.5 -37.5h629v-105z" />
    <glyph glyph-name="section" unicode="&#xa7;" horiz-adv-x="1083" 
d="M150 -168q43 -38 102 -68q50 -26 122 -46.5t165 -20.5q87 0 149 19t101 50.5t57 72t18 83.5q0 50 -16.5 88t-55 71t-101.5 63t-156 65q-81 30 -140.5 57.5t-98.5 59t-58 69t-19 88.5q0 34 8 60.5t20 46.5t26.5 34t27.5 23q-91 50 -140.5 115.5t-49.5 159.5q0 71 27 132
t82.5 105.5t139 70t197.5 25.5q110 0 189.5 -20t131.5 -44q61 -28 101 -63l-66 -96q-37 32 -90 58q-45 22 -111.5 40.5t-154.5 18.5q-81 0 -140.5 -17t-98.5 -46.5t-57.5 -70t-18.5 -87.5q0 -91 70.5 -154t211.5 -110q83 -28 149.5 -57t113.5 -63.5t72.5 -76.5t25.5 -96
q0 -34 -7 -61t-18 -48t-23.5 -37t-23.5 -26q91 -54 136.5 -120t45.5 -157q0 -65 -25 -125t-79 -106.5t-140 -74.5t-208 -28q-117 0 -203 24t-143 53q-67 33 -113 77zM485 571q-23 7 -44.5 14t-41.5 15q-7 -3 -18 -10t-21.5 -20t-18 -33t-7.5 -48q0 -27 13 -50.5t42.5 -45.5
t76 -44t112.5 -46q37 -14 70.5 -26.5t64.5 -26.5q5 4 14 13.5t17.5 24t15 34t6.5 45.5q0 63 -67 114.5t-214 89.5z" />
    <glyph glyph-name="bullet" unicode="&#x2022;" horiz-adv-x="604" 
d="M164 354q0 28 10.5 53t29.5 44t44.5 30t54.5 11q28 0 52.5 -11t43 -30t29 -44t10.5 -53t-10.5 -53t-29 -43.5t-43 -29.5t-52.5 -11q-29 0 -54.5 11t-44.5 29.5t-29.5 43.5t-10.5 53z" />
    <glyph glyph-name="paragraph" unicode="&#xb6;" horiz-adv-x="1020" 
d="M707 225h-160q-111 0 -200.5 25.5t-151.5 77t-95.5 128.5t-33.5 179q0 98 32 172.5t93.5 124.5t150 75t201.5 25h280v-1390h-116v583z" />
    <glyph glyph-name="germandbls" unicode="&#xdf;" horiz-adv-x="946" 
d="M657 616h-413v-616h-115v948q0 167 73 255.5t234 88.5q29 0 54.5 -5t44.5 -11q22 -7 40 -16l-34 -97q-14 7 -30 12q-14 5 -31.5 9t-37.5 4q-97 0 -147.5 -54.5t-50.5 -177.5v-245h602v-25l-266 -324q64 -4 118.5 -22t94.5 -52.5t63 -85.5t23 -120q0 -68 -25 -123
t-71 -93.5t-109.5 -59.5t-141.5 -21q-55 0 -95.5 6t-68.5 14q-33 9 -55 21l27 84q23 -9 52 -16q25 -6 60 -10.5t80 -4.5q49 0 90.5 15t71 42t46 65t16.5 83q0 48 -17.5 85.5t-49 63t-75.5 39t-96 13.5h-92v47z" />
    <glyph glyph-name="registered" unicode="&#xae;" horiz-adv-x="1167" 
d="M1069 778q0 -97 -33.5 -183t-96 -151t-152.5 -103t-203 -38q-114 0 -203.5 38t-152 103.5t-95.5 151.5t-33 182q0 97 33 183.5t95.5 151.5t152 102.5t203.5 37.5q113 0 203 -37.5t152.5 -102.5t96 -151.5t33.5 -183.5zM987 778q0 85 -28.5 158.5t-81 127.5t-127 85
t-166.5 31t-167 -30t-127.5 -84t-81 -127.5t-28.5 -160.5q0 -84 28.5 -156.5t81 -126.5t127.5 -85t167 -31t166.5 30.5t127 84.5t81 127t28.5 157zM592 993q40 0 74.5 -10t59 -28.5t38.5 -46.5t14 -64q0 -51 -24 -83.5t-62 -49.5l90 -115v-16h-67l-90 114q-11 -2 -20.5 -2
h-18.5h-115v-112h-68v413h189zM471 932v-180h117q25 0 47 5t38.5 16t26 28.5t9.5 42.5q0 45 -32 66.5t-85 21.5h-121z" />
    <glyph glyph-name="copyright" unicode="&#xa9;" horiz-adv-x="1481" 
d="M739 1237q150 0 269 -49.5t201.5 -134.5t126.5 -199t44 -242t-44 -241t-126.5 -197.5t-201.5 -134t-269 -49.5q-149 0 -267.5 49.5t-201.5 134t-127.5 197.5t-44.5 241t44.5 242t127.5 199t201.5 134.5t267.5 49.5zM739 1163q-131 0 -234.5 -43.5t-176.5 -118.5
t-111.5 -175t-38.5 -214q0 -113 38.5 -213t111.5 -174.5t176.5 -118t234.5 -43.5q132 0 236.5 43.5t177 118t111.5 174.5t39 213q0 114 -39 214t-111.5 175t-177 118.5t-236.5 43.5zM926 811q-17 15 -43 27q-22 11 -54 19.5t-75 8.5q-60 0 -107.5 -19.5t-80.5 -53.5
t-50.5 -80t-17.5 -99q0 -52 17.5 -97.5t50.5 -79t80.5 -53t107.5 -19.5q42 0 74 8t54 19q26 12 44 28l47 -60q-21 -21 -53 -38q-27 -14 -69.5 -25.5t-100.5 -11.5q-80 0 -143 25.5t-107 70t-67 104.5t-23 129t23 129.5t67 105.5t107 71t143 26q58 0 100.5 -12t69.5 -26
q32 -17 53 -38z" />
    <glyph glyph-name="trademark" unicode="&#x2122;" horiz-adv-x="1518" 
d="M725 575v654h31l286 -271q26 23 65.5 59.5t81 75.5t80.5 75.5t64 60.5h29v-654h-84v498l-221 -211h-27l-221 211v-498h-84zM590 1153h-215v-578h-86v578h-213v76h514v-76z" />
    <glyph glyph-name="acute" unicode="&#xb4;" horiz-adv-x="506" 
d="M186 858h-71v23l98 301h143v-23z" />
    <glyph glyph-name="dieresis" unicode="&#xa8;" horiz-adv-x="815" 
d="M145 989q0 16 6.5 30.5t17.5 25.5t25.5 17.5t30.5 6.5t30.5 -6.5t25.5 -17.5t17.5 -25.5t6.5 -30.5t-6.5 -30.5t-17.5 -25.5t-25.5 -17.5t-30.5 -6.5t-30.5 6.5t-25.5 17.5t-17.5 25.5t-6.5 30.5zM510 989q0 16 6.5 30.5t17.5 25.5t25.5 17.5t30.5 6.5t30.5 -6.5
t25.5 -17.5t17.5 -25.5t6.5 -30.5t-6.5 -30.5t-17.5 -25.5t-25.5 -17.5t-30.5 -6.5t-30.5 6.5t-25.5 17.5t-17.5 25.5t-6.5 30.5z" />
    <glyph glyph-name="notequal" unicode="&#x2260;" horiz-adv-x="973" 
d="M127 864h408l92 240l88 -33l-80 -207h211v-98h-248l-139 -367h387v-98h-426l-88 -233l-88 32l75 201h-192v98h231l140 367h-371v98z" />
    <glyph glyph-name="AE" unicode="&#xc6;" horiz-adv-x="1855" 
d="M872 1229h902v-109h-773v-461h678v-108h-678v-442h773v-109h-889v233h-600l-164 -233h-141zM362 344h523v696h-15z" />
    <glyph glyph-name="Oslash" unicode="&#xd8;" horiz-adv-x="1446" 
d="M725 -29q-133 0 -242 41t-190 115l-127 -125l-68 70l129 127q-65 83 -100 188t-35 225q0 137 45 254.5t127.5 204t199.5 135.5t261 49q131 0 238 -40.5t188 -112.5l113 110l67 -69l-112 -111q66 -85 101.5 -191.5t35.5 -228.5q0 -135 -44.5 -252t-126.5 -203.5t-199 -136
t-261 -49.5zM725 82q120 0 215 42.5t161.5 114.5t102 168.5t35.5 204.5q0 96 -27 181.5t-79 154.5l-756 -739q65 -60 152.5 -93.5t195.5 -33.5zM211 612q0 -94 25.5 -178t76.5 -153l754 739q-65 59 -151 92t-191 33q-121 0 -216.5 -42.5t-161.5 -115t-101 -169.5t-35 -206z
" />
    <glyph glyph-name="infinity" unicode="&#x221e;" horiz-adv-x="1655" 
d="M467 242q-81 0 -145.5 27.5t-109.5 75t-69 110t-24 131.5q0 68 24 130.5t69 110t109.5 75.5t145.5 28q66 0 119 -22t96.5 -59t78.5 -85.5t66 -101.5q30 53 65.5 101.5t79 85.5t97 59t119.5 22q72 0 135.5 -24.5t110.5 -69.5t74.5 -108.5t27.5 -141.5q0 -68 -23 -130
t-67.5 -109.5t-109 -76t-148.5 -28.5q-67 0 -120.5 21.5t-97 58t-79 84.5t-66.5 100q-31 -52 -66 -100t-78 -84.5t-95.5 -58t-118.5 -21.5zM1182 836q-55 0 -99 -20.5t-80.5 -55t-66 -79.5t-55.5 -93q27 -49 57.5 -94.5t66.5 -80.5t79.5 -56t97.5 -21q61 0 108.5 20.5t80 55
t49 79.5t16.5 95q0 56 -19.5 102t-54 79t-80.5 51t-100 18zM473 336q54 0 97.5 20.5t79.5 55t66 79.5t56 93q-27 49 -57 94.5t-66 80.5t-79 56t-97 21q-62 0 -109 -21t-79.5 -55.5t-49 -80t-16.5 -93.5q0 -50 16.5 -95t49 -79.5t79.5 -55t109 -20.5z" />
    <glyph glyph-name="plusminus" unicode="&#xb1;" horiz-adv-x="1145" 
d="M528 338v362h-385v99h385v370h99v-370h374v-99h-374v-362h-99zM1001 90h-858v98h858v-98z" />
    <glyph glyph-name="lessequal" unicode="&#x2264;" horiz-adv-x="840" 
d="M561 428l-393 360v27l393 371l70 -72l-334 -313l334 -299zM717 186h-586v99h586v-99z" />
    <glyph glyph-name="greaterequal" unicode="&#x2265;" horiz-adv-x="840" 
d="M209 502l334 299l-334 313l70 72l393 -371v-27l-393 -360zM121 285h586v-99h-586v99z" />
    <glyph glyph-name="yen" unicode="&#xa5;" horiz-adv-x="1212" 
d="M1010 1229h135l-424 -666h309v-96h-366v-178h366v-94h-366v-195h-117v195h-371v94h371v178h-371v96h311l-419 666h137l364 -580l31 -63h16l33 63z" />
    <glyph glyph-name="mu" unicode="&#xb5;" horiz-adv-x="1016" 
d="M162 -393v1102h114v-385q0 -53 13 -97t40 -76.5t68 -50.5t97 -18q61 0 105 21t72.5 52t42 67t13.5 67v420h115v-709h-76l-21 113h-6q-4 -8 -20 -29t-47.5 -43.5t-81.5 -39.5t-121 -17q-60 0 -107.5 14.5t-85.5 42.5v-434h-114z" />
    <glyph glyph-name="partialdiff" unicode="&#x2202;" horiz-adv-x="989" 
d="M330 1208v21h108l363 -563q27 -43 47.5 -80.5t34 -74t20 -76t6.5 -87.5q0 -85 -31.5 -154.5t-87 -118.5t-132 -75.5t-166.5 -26.5t-166.5 26.5t-132.5 75.5t-87.5 118.5t-31.5 154.5q0 78 30 145.5t85.5 117t132.5 78t172 28.5q49 0 92 -8.5t82 -22.5v2q-9 9 -18 20
q-8 10 -17.5 22.5t-18.5 27.5zM492 72q63 0 118 20.5t96 57t65 87t24 111.5q0 64 -24.5 115t-65.5 86t-96 53.5t-115 18.5q-65 0 -120.5 -21t-96 -58t-64 -86.5t-23.5 -107.5q0 -61 24 -111.5t65 -87t96 -57t117 -20.5z" />
    <glyph glyph-name="summation" unicode="&#x2211;" horiz-adv-x="950" 
d="M850 1229v-103h-612l401 -485v-53l-397 -486h608v-102h-758v102l418 500v23l-418 501v103h758z" />
    <glyph glyph-name="product" unicode="&#x220f;" horiz-adv-x="1401" 
d="M1202 0h-117v1126h-770v-1126h-116v1229h1003v-1229z" />
    <glyph glyph-name="pi" unicode="&#x3c0;" horiz-adv-x="977" 
d="M938 709v-97h-141v-612h-115v612h-387v-612h-113v612h-141v97h897z" />
    <glyph glyph-name="integral" unicode="&#x222b;" horiz-adv-x="627" 
d="M256 1104q0 111 47.5 168t151.5 57q31 0 56 -6t44 -14q21 -9 39 -19l-35 -88q-13 7 -27 12q-12 5 -28 9t-33 4q-53 0 -76.5 -31t-23.5 -102v-1102q0 -112 -47 -168.5t-150 -56.5q-32 0 -57.5 5.5t-43.5 13.5q-21 8 -38 19l35 89q12 -8 26 -13q12 -5 27.5 -8.5t32.5 -3.5
q52 0 76 31t24 102v1102z" />
    <glyph glyph-name="ordfeminine" unicode="&#xaa;" horiz-adv-x="840" 
d="M82 756q0 49 21 88.5t59.5 67t94 42.5t124.5 15q54 0 93.5 -7t68 -17.5t46.5 -24t29 -25.5v41q0 56 -11.5 99.5t-38.5 73.5t-71.5 46t-111.5 16q-42 0 -80.5 -7t-67.5 -15.5t-47.5 -16t-21.5 -8.5l-31 80q37 15 80 26q37 10 84 18.5t98 8.5q90 0 151 -23t98.5 -65.5
t54 -102.5t16.5 -134v-371h-72l-16 76h-8q-17 -19 -38 -36t-51.5 -29.5t-73 -19.5t-100.5 -7q-61 0 -112 15t-88 42.5t-57.5 66.5t-20.5 87zM180 760q0 -66 55 -102.5t148 -36.5q55 0 98.5 12t74 32.5t46.5 46t16 52.5q0 28 -16.5 52.5t-45.5 43t-70 29t-89 10.5
q-103 0 -160 -37t-57 -102z" />
    <glyph glyph-name="ordmasculine" unicode="&#xba;" horiz-adv-x="874" 
d="M436 1255q77 0 142 -25t112.5 -71t74 -111.5t26.5 -146.5q0 -79 -26.5 -143.5t-74 -110t-112.5 -70t-142 -24.5q-76 0 -140.5 24.5t-111.5 70t-73.5 110t-26.5 143.5q0 81 26.5 146.5t73.5 111.5t111.5 71t140.5 25zM436 1167q-56 0 -102.5 -18.5t-80.5 -53t-52.5 -84
t-18.5 -110.5q0 -59 18.5 -107.5t52.5 -83t80.5 -53t102.5 -18.5q58 0 105 18.5t80.5 53t52 83t18.5 107.5q0 61 -18.5 110.5t-52 84t-80.5 53t-105 18.5z" />
    <glyph glyph-name="Omega" unicode="&#x3a9;" horiz-adv-x="1526" 
d="M113 102h321q-75 37 -134 93.5t-99.5 125.5t-62 147t-21.5 159q0 82 19 160.5t55.5 148.5t91.5 128.5t126.5 101t160.5 66t194 23.5q104 0 192.5 -23.5t160.5 -66t126.5 -101t91.5 -128.5t55.5 -148.5t18.5 -160.5q0 -81 -21.5 -159t-63 -147t-100.5 -125.5t-134 -93.5
h325v-102h-577v104q98 4 181.5 48.5t144.5 115.5t95.5 161.5t34.5 186.5q0 105 -35.5 201t-103 169t-166 116t-225.5 43q-128 0 -226.5 -43t-166.5 -116t-103 -169t-35 -201q0 -96 34.5 -186.5t95.5 -161.5t145 -115.5t182 -48.5v-104h-577v102z" />
    <glyph glyph-name="ae" unicode="&#xe6;" horiz-adv-x="1421" 
d="M1305 59q-29 -22 -69 -39q-34 -14 -83.5 -26t-114.5 -12q-106 0 -190.5 40t-136.5 111q-44 -65 -127 -107t-209 -42q-81 0 -140.5 18.5t-98 49.5t-57 72.5t-18.5 86.5q0 46 19.5 85.5t57.5 68t94 45t130 16.5q61 0 107 -9t78.5 -21t51.5 -24.5t28 -19.5h8v47
q0 52 -13 94.5t-42.5 73t-77 47.5t-115.5 17q-51 0 -90.5 -8.5t-68.5 -19.5q-33 -12 -60 -28l-39 87q32 17 75 31q36 12 88 22t118 10q117 0 189 -39.5t110 -107.5q48 69 125 108t174 39q83 0 147.5 -25.5t108.5 -72t67 -110.5t23 -142v-37h-596q2 -64 25 -113t61 -82
t88 -50t106 -17q54 0 96 9.5t71 20.5q33 13 59 31zM172 211q0 -62 50.5 -100.5t162.5 -38.5q51 0 96.5 12t79.5 31.5t54 45t20 52.5q0 29 -21 53t-56 41.5t-80 27t-93 9.5q-112 0 -162.5 -36.5t-50.5 -96.5zM1006 631q-94 0 -159.5 -54t-82.5 -157h477q-4 44 -21 82.5
t-46.5 67t-71.5 45t-96 16.5z" />
    <glyph glyph-name="oslash" unicode="&#xf8;" 
d="M842 350q0 -84 -30 -152t-82 -115.5t-122 -73t-149 -25.5q-73 0 -136 19.5t-112 59.5l-82 -81l-47 49l80 80q-40 46 -62 105.5t-22 133.5q0 85 30 154.5t81.5 118.5t121 75.5t148.5 26.5q68 0 128 -19.5t109 -56.5l86 86l47 -49l-84 -82q45 -48 71 -111.5t26 -142.5z
M459 78q54 0 103 18.5t86 54t59 86t22 115.5q0 53 -15.5 98t-41.5 80l-389 -391q35 -29 80 -45t96 -16zM193 352q0 -49 12.5 -90.5t34.5 -75.5l385 387q-34 28 -77 43t-89 15q-54 0 -102.5 -19.5t-84.5 -56t-57.5 -88t-21.5 -115.5z" />
    <glyph glyph-name="questiondown" unicode="&#xbf;" horiz-adv-x="770" 
d="M690 55q-32 -20 -75 -36q-37 -14 -91 -24.5t-125 -10.5q-72 0 -128.5 20.5t-96 56.5t-60 85.5t-20.5 107.5q0 71 21 123t52.5 94.5t69 80t70.5 79t56.5 91.5t27.5 118l4 75h84v-90q0 -68 -20 -120t-49.5 -94t-64.5 -78.5t-64.5 -75t-49.5 -82.5t-20 -101q0 -41 14.5 -76
t41.5 -60.5t66 -39.5t87 -14q57 0 99.5 9.5t71.5 21.5q33 14 58 32zM520 1169q0 -37 -25.5 -62.5t-62.5 -25.5t-61.5 25.5t-24.5 62.5q0 36 24.5 61t61.5 25t62.5 -25t25.5 -61z" />
    <glyph glyph-name="exclamdown" unicode="&#xa1;" horiz-adv-x="477" 
d="M311 0h-147v68l31 835h84l32 -835v-68zM150 1155q0 19 7 35.5t19 28.5t28.5 19t35.5 7q18 0 34.5 -7t29 -19t19.5 -28.5t7 -35.5q0 -37 -26.5 -62.5t-63.5 -25.5q-38 0 -64 25.5t-26 62.5z" />
    <glyph glyph-name="logicalnot" unicode="&#xac;" horiz-adv-x="1120" 
d="M70 711h874v-711h-98v612h-776v99z" />
    <glyph glyph-name="radical" unicode="&#x221a;" horiz-adv-x="1288" 
d="M473 -393h-35l-418 817h132l266 -545q1 -3 6.5 -16t11.5 -28t10.5 -27.5t4.5 -14.5h14q0 2 4.5 14.5t9.5 27.5t10 28t7 16l667 1350h131z" />
    <glyph glyph-name="florin" unicode="&#x192;" horiz-adv-x="690" 
d="M231 616h-172v93h172v317q0 172 75.5 255t215.5 83q32 0 58.5 -5.5t45.5 -12.5t30.5 -12.5t13.5 -6.5l-35 -96q-14 7 -31 13q-14 5 -32 9t-35 4q-96 0 -143.5 -54.5t-47.5 -176.5v-317h293v-93h-293v-802q0 -111 -47 -168.5t-152 -57.5q-31 0 -56 5.5t-44 13.5
q-22 9 -39 20l37 88q12 -7 26 -12q12 -5 27.5 -8.5t32.5 -3.5q53 0 76.5 31t23.5 102v792z" />
    <glyph glyph-name="approxequal" unicode="&#x2248;" horiz-adv-x="946" 
d="M623 369q-45 0 -83.5 15.5t-72.5 34.5t-65 34.5t-62 15.5q-23 0 -38 -6.5t-25 -17t-16.5 -24t-10.5 -28.5l-6 -24l-97 8l9 51q6 28 18.5 53.5t32.5 45t49.5 31t69.5 11.5q43 0 80.5 -16t71.5 -35t66 -35t64 -16q23 0 38.5 6.5t25.5 17t15.5 24t10.5 28.5l7 26l96 -8
l-10 -53q-6 -28 -18 -53t-32 -44t-49 -30.5t-69 -11.5zM623 754q-45 0 -83.5 16t-72.5 35t-65 35t-62 16q-23 0 -38 -6.5t-25 -17t-16.5 -24t-10.5 -28.5l-6 -26l-97 8l9 53q6 28 18.5 53t32.5 44t49.5 30.5t69.5 11.5q43 0 80.5 -15.5t71.5 -34.5t66 -34.5t64 -15.5
q23 0 38.5 6.5t25.5 17t15.5 24t10.5 28.5l7 24l96 -8l-10 -51q-6 -28 -18 -53.5t-32 -45t-49 -31t-69 -11.5z" />
    <glyph glyph-name="Delta" unicode="&#x2206;" horiz-adv-x="1307" 
d="M55 27l584 1202h29l583 -1202v-27h-1196v27zM1085 102q-25 54 -59 126t-72.5 154.5t-79.5 170t-80 171t-74.5 159.5t-62.5 135h-12l-426 -916h866z" />
    <glyph glyph-name="guillemotleft" unicode="&#xab;" horiz-adv-x="825" 
d="M86 371l217 317h103v-16l-216 -314v-10l216 -317v-17h-103l-217 318v39zM420 371l217 317h100v-16l-215 -314v-10l215 -317v-17h-100l-217 318v39z" />
    <glyph glyph-name="guillemotright" unicode="&#xbb;" horiz-adv-x="825" 
d="M408 332l-218 -318h-102v17l215 317v10l-215 314v16h102l218 -317v-39zM739 332l-217 -318h-100v17l213 317v10l-213 314v16h100l217 -317v-39z" />
    <glyph glyph-name="ellipsis" unicode="&#x2026;" horiz-adv-x="891" 
d="M49 74q0 38 26 64t66 26q18 0 34.5 -7t29 -19t19.5 -28.5t7 -35.5q0 -41 -26.5 -66.5t-63.5 -25.5q-40 0 -66 25.5t-26 66.5zM354 74q0 19 7 35.5t19.5 28.5t29 19t34.5 7q41 0 67 -26t26 -64q0 -41 -26 -66.5t-67 -25.5q-37 0 -63.5 25.5t-26.5 66.5zM662 74
q0 38 25.5 64t64.5 26q40 0 66 -26t26 -64q0 -41 -26 -66.5t-66 -25.5q-39 0 -64.5 25.5t-25.5 66.5z" />
    <glyph glyph-name="Agrave" unicode="&#xc0;" horiz-adv-x="1243" 
d="M606 1229h29l600 -1229h-133l-117 233h-727l-117 -233h-131zM629 991h-17l-286 -624l-13 -23h617l-12 23zM487 1552v16h95l66 -200v-16h-48z" />
    <glyph glyph-name="Atilde" unicode="&#xc3;" horiz-adv-x="1243" 
d="M606 1229h29l600 -1229h-133l-117 233h-727l-117 -233h-131zM629 991h-17l-286 -624l-13 -23h617l-12 23zM729 1350q-29 0 -54 11.5t-47.5 25t-43.5 25t-42 11.5q-30 0 -41.5 -16.5t-17.5 -37.5l-6 -19l-57 6l6 32q4 19 11 37t20 31.5t31.5 21.5t45.5 8q28 0 53 -11
t47.5 -24t43.5 -24t42 -11q30 0 43 15t18 38l4 17l57 -5l-5 -30q-4 -20 -11.5 -38t-20 -32t-31.5 -22.5t-45 -8.5z" />
    <glyph glyph-name="Otilde" unicode="&#xd5;" horiz-adv-x="1450" 
d="M725 -29q-144 0 -261 49.5t-199.5 136t-127.5 203.5t-45 252q0 137 45 254.5t127.5 204t199.5 135.5t261 49t261 -49t199 -135.5t126.5 -204t44.5 -254.5q0 -135 -44.5 -252t-126.5 -203.5t-199 -136t-261 -49.5zM725 82q120 0 215 42.5t161.5 114.5t102 168.5
t35.5 204.5q0 109 -35.5 206t-102 169.5t-161.5 115t-215 42.5q-121 0 -216.5 -42.5t-161.5 -115t-101 -169.5t-35 -206q0 -108 35 -204.5t101 -168.5t161.5 -114.5t216.5 -42.5zM830 1351q-29 0 -54 11.5t-47.5 25t-43.5 25t-42 11.5q-30 0 -41.5 -16.5t-17.5 -37.5l-6 -19
l-57 6l6 32q4 19 11 37t20 31.5t31.5 21.5t45.5 8q28 0 53 -11t47.5 -24t43.5 -24t42 -11q30 0 43 15t18 38l4 17l57 -5l-5 -30q-4 -20 -11.5 -38t-20 -32t-31.5 -22.5t-45 -8.5z" />
    <glyph glyph-name="OE" unicode="&#x152;" horiz-adv-x="2208" 
d="M723 -29q-144 0 -261 49.5t-199.5 136t-127.5 203.5t-45 252q0 137 45 254.5t127.5 204t199.5 135.5t261 49q171 0 301.5 -68t212.5 -183v225h889v-109h-772v-461h680v-108h-680v-442h772v-109h-889v223q-41 -57 -94.5 -103.5t-118.5 -79.5t-140.5 -51t-160.5 -18z
M723 82q120 0 215 42.5t161.5 114.5t102 168.5t35.5 204.5q0 109 -35.5 206t-102 169.5t-161.5 115t-215 42.5q-121 0 -216.5 -42.5t-161.5 -115t-101 -169.5t-35 -206q0 -108 35 -204.5t101 -168.5t161.5 -114.5t216.5 -42.5z" />
    <glyph glyph-name="oe" unicode="&#x153;" horiz-adv-x="1505" 
d="M1386 61q-29 -22 -68 -40q-34 -15 -82.5 -27t-113.5 -12q-114 0 -201.5 43.5t-138.5 121.5q-51 -78 -136.5 -120.5t-188.5 -42.5q-79 0 -148.5 25.5t-121 73t-81.5 115.5t-30 152q0 85 30 154.5t81.5 118.5t121 75.5t148.5 26.5q102 0 187 -43.5t136 -124.5
q48 79 128 123.5t184 44.5q83 0 147.5 -26.5t108.5 -73.5t67 -111t23 -139v-39h-596q2 -63 25.5 -111t62 -81t88.5 -49.5t106 -16.5q54 0 94.5 9.5t69.5 21.5q33 14 58 32zM457 78q54 0 103 18.5t86 54t59 86t22 115.5q0 64 -22 115.5t-59 88t-86 56t-103 19.5t-102.5 -19.5
t-85 -56t-58 -88t-21.5 -115.5q0 -65 21.5 -115.5t58 -86t85 -54t102.5 -18.5zM1090 631q-46 0 -86.5 -13.5t-72 -40t-53 -65t-30.5 -88.5h477q-5 44 -23 82t-48 65.5t-71.5 43.5t-92.5 16z" />
    <glyph glyph-name="endash" unicode="&#x2013;" horiz-adv-x="936" 
d="M117 639h704v-98h-704v98z" />
    <glyph glyph-name="emdash" unicode="&#x2014;" horiz-adv-x="1493" 
d="M117 639h1261v-98h-1261v98z" />
    <glyph glyph-name="quotedblleft" unicode="&#x201c;" horiz-adv-x="690" 
d="M262 1116q0 -37 -24.5 -61.5t-61.5 -24.5t-62.5 25t-25.5 63q0 34 7.5 56t21.5 47l86 155h86l-78 -137q-10 -18 -17 -25q-4 -5 -8 -8v-6q34 -5 55 -27.5t21 -56.5zM573 1116q0 -37 -24 -61.5t-62 -24.5q-37 0 -62.5 25t-25.5 63q0 34 7.5 56t21.5 47l86 155h86l-78 -137
q-5 -8 -9.5 -14.5t-7.5 -10.5q-4 -5 -7 -8v-6q34 -5 54.5 -27.5t20.5 -56.5z" />
    <glyph glyph-name="quotedblright" unicode="&#x201d;" horiz-adv-x="692" 
d="M117 1257q0 38 24.5 62t61.5 24t62.5 -24.5t25.5 -63.5q0 -34 -7.5 -55.5t-21.5 -46.5l-86 -156h-86l78 138q8 15 17 24l8 8v7q-35 5 -55.5 27t-20.5 56zM432 1257q0 38 24.5 62t61.5 24t62.5 -24.5t25.5 -63.5q0 -34 -7 -55.5t-21 -46.5l-86 -156h-86l77 138q8 15 17 24
l8 8v7q-34 5 -55 27t-21 56z" />
    <glyph glyph-name="quoteleft" unicode="&#x2018;" horiz-adv-x="377" 
d="M262 1116q0 -37 -24.5 -61.5t-61.5 -24.5t-62.5 25t-25.5 63q0 34 7.5 56t21.5 47l86 155h86l-78 -137q-10 -18 -17 -25q-4 -5 -8 -8v-6q34 -5 55 -27.5t21 -56.5z" />
    <glyph glyph-name="quoteright" unicode="&#x2019;" horiz-adv-x="377" 
d="M125 1257q0 38 24.5 62t61.5 24t62.5 -24.5t25.5 -63.5q0 -34 -7.5 -55.5t-21.5 -46.5l-86 -156h-86l78 138q8 15 17 24l8 8v7q-34 5 -55 27t-21 56z" />
    <glyph glyph-name="divide" unicode="&#xf7;" horiz-adv-x="1044" 
d="M432 317q0 39 26.5 65t63.5 26t63.5 -26t26.5 -65q0 -37 -26.5 -62.5t-63.5 -25.5t-63.5 25.5t-26.5 62.5zM432 907q0 37 26.5 62.5t63.5 25.5t63.5 -25.5t26.5 -62.5q0 -19 -7 -35.5t-19.5 -28.5t-29 -19t-34.5 -7t-34.5 7t-29 19t-19.5 28.5t-7 35.5zM131 655h782v-98
h-782v98z" />
    <glyph glyph-name="lozenge" unicode="&#x25ca;" horiz-adv-x="924" 
d="M844 614l-346 -614h-72l-346 614l346 615h72zM451 172h20l238 440l-238 445h-20l-240 -445z" />
    <glyph glyph-name="ydieresis" unicode="&#xff;" horiz-adv-x="829" 
d="M274 -393h-120l208 424l-331 678h127l248 -525q6 -12 9 -26t3 -23h6q0 9 3 23t9 26l246 525h119zM160 989q0 16 6.5 30.5t17.5 25.5t25.5 17.5t30.5 6.5t30.5 -6.5t25 -17.5t17 -25.5t6.5 -30.5t-6.5 -30.5t-17 -25.5t-25 -17.5t-30.5 -6.5t-30.5 6.5t-25.5 17.5
t-17.5 25.5t-6.5 30.5zM524 989q0 16 6.5 30.5t17.5 25.5t25.5 17.5t30.5 6.5t30.5 -6.5t25.5 -17.5t17.5 -25.5t6.5 -30.5t-6.5 -30.5t-17.5 -25.5t-25.5 -17.5t-30.5 -6.5t-30.5 6.5t-25.5 17.5t-17.5 25.5t-6.5 30.5z" />
    <glyph glyph-name="Ydieresis" unicode="&#x178;" horiz-adv-x="1106" 
d="M293 1444q0 16 6.5 30.5t17.5 25.5t25.5 17.5t30.5 6.5t30.5 -6.5t25.5 -17.5t17.5 -25.5t6.5 -30.5t-6.5 -30.5t-17.5 -25.5t-25.5 -17.5t-30.5 -6.5t-30.5 6.5t-25.5 17.5t-17.5 25.5t-6.5 30.5zM657 1444q0 16 6.5 30.5t17.5 25.5t25.5 17.5t30.5 6.5t30.5 -6.5
t25.5 -17.5t17.5 -25.5t6.5 -30.5t-6.5 -30.5t-17.5 -25.5t-25.5 -17.5t-30.5 -6.5t-30.5 6.5t-25.5 17.5t-17.5 25.5t-6.5 30.5zM956 1229h136l-482 -758v-471h-116v471l-480 758h138l364 -580l31 -63h16l33 63z" />
    <glyph glyph-name="fraction" unicode="&#x2044;" horiz-adv-x="369" 
d="M-326 70l961 1155l63 -51l-960 -1156z" />
    <glyph glyph-name="Euro" unicode="&#x20ac;" horiz-adv-x="1233" 
d="M862 420h-483q19 -70 53.5 -129t85.5 -102t117.5 -67t150.5 -24q69 0 122 18.5t88 41.5q41 26 71 61l68 -86q-35 -41 -85 -73q-44 -27 -109.5 -49.5t-156.5 -22.5q-112 0 -200.5 33t-153.5 91.5t-108 137t-64 170.5h-168v94h150q-3 25 -3.5 49.5t-0.5 50.5q0 23 1 47.5
t3 47.5h-150v96h166q21 92 63.5 172t108 139t154.5 93t202 34q91 0 157 -23t110 -50q51 -32 86 -72l-70 -86q-30 33 -71 59q-35 22 -88 40.5t-122 18.5q-84 0 -151.5 -24.5t-118.5 -67.5t-85.5 -103t-53.5 -130h485v-96h-504q-3 -23 -3.5 -47.5t-0.5 -47.5q0 -51 6 -100h502
v-94z" />
    <glyph glyph-name="guilsinglleft" unicode="&#x2039;" horiz-adv-x="494" 
d="M86 371l217 317h103v-16l-216 -314v-10l216 -317v-17h-103l-217 318v39z" />
    <glyph glyph-name="guilsinglright" unicode="&#x203a;" horiz-adv-x="494" 
d="M408 332l-218 -318h-102v17l215 317v10l-215 314v16h102l218 -317v-39z" />
    <glyph glyph-name="fi" unicode="&#xfb01;" horiz-adv-x="1073" 
d="M883 1004q-32 0 -55 21.5t-23 55.5t23 57t55 23q34 0 57 -23t23 -57t-23 -55.5t-57 -21.5zM825 709h115v-709h-115v709zM317 616v-616h-114v616h-172v93h172v317q0 172 75.5 255t215.5 83q32 0 58.5 -5.5t45.5 -12.5t30 -12.5l13 -6.5l-35 -96q-15 7 -31 13
q-14 5 -31.5 9t-35.5 4q-96 0 -143.5 -54.5t-47.5 -176.5v-317h277v-93h-277z" />
    <glyph glyph-name="fl" unicode="&#xfb02;" horiz-adv-x="1055" 
d="M807 1368h115v-1368h-115v1368zM317 616v-616h-114v616h-172v93h172v317q0 172 75.5 255t215.5 83q32 0 58.5 -5.5t45.5 -12.5t30 -12.5l13 -6.5l-35 -96q-15 7 -31 13q-14 5 -31.5 9t-35.5 4q-96 0 -143.5 -54.5t-47.5 -176.5v-317h277v-93h-277z" />
    <glyph glyph-name="daggerdbl" unicode="&#x2021;" horiz-adv-x="932" 
d="M104 852h314v377h98v-377h313v-98h-313v-498h313v-98h-313l-12 -551h-74l-12 551h-314v98h314v498h-314v98z" />
    <glyph glyph-name="periodcentered" unicode="&#xb7;" horiz-adv-x="285" 
d="M53 737q0 37 26.5 62.5t63.5 25.5q38 0 63 -25.5t25 -62.5t-25 -63.5t-63 -26.5q-37 0 -63.5 26.5t-26.5 63.5z" />
    <glyph glyph-name="quotesinglbase" unicode="&#x201a;" horiz-adv-x="268" 
d="M47 68q0 37 24.5 61.5t61.5 24.5t62.5 -25t25.5 -63q0 -35 -7 -56.5t-21 -46.5l-87 -156h-86l78 138q8 15 17 24l8 8v7q-34 5 -55 27.5t-21 56.5z" />
    <glyph glyph-name="quotedblbase" unicode="&#x201e;" horiz-adv-x="590" 
d="M47 68q0 37 24.5 61.5t61.5 24.5t62.5 -25t25.5 -63q0 -35 -7 -56.5t-21 -46.5l-87 -156h-86l78 138q8 15 17 24l8 8v7q-34 5 -55 27.5t-21 56.5zM369 68q0 37 24.5 61.5t61.5 24.5t62.5 -25t25.5 -63q0 -35 -7.5 -56.5t-21.5 -46.5l-86 -156h-86l78 138q10 18 16 24l8 8
v7q-34 5 -54.5 27.5t-20.5 56.5z" />
    <glyph glyph-name="perthousand" unicode="&#x2030;" horiz-adv-x="2019" 
d="M348 1255q65 0 115 -24.5t84 -66.5t51.5 -98t17.5 -118q0 -60 -17.5 -115.5t-51.5 -98t-84 -68t-115 -25.5t-115 25.5t-84 68t-51.5 98t-17.5 115.5q0 62 17.5 118t51.5 98t84 66.5t115 24.5zM348 737q40 0 70.5 16.5t50.5 45t30.5 67t10.5 82.5q0 45 -10.5 83.5
t-30.5 67t-50.5 44.5t-70.5 16t-70 -16t-50.5 -44.5t-31 -67t-10.5 -83.5q0 -44 10.5 -82.5t31 -67t50.5 -45t70 -16.5zM1204 1167l-960 -1155l-78 66l958 1155zM1024 598q64 0 114.5 -25t85 -67t52.5 -98t18 -117t-18 -116.5t-52.5 -98t-85 -67.5t-114.5 -25
q-65 0 -115.5 25t-85 67.5t-52 98t-17.5 116.5t17.5 117t52 98t85 67t115.5 25zM1024 504q-40 0 -70.5 -16.5t-51.5 -45t-31.5 -67.5t-10.5 -84q0 -43 10.5 -81t31.5 -66.5t51.5 -45t70.5 -16.5q39 0 69 16.5t50 45t30.5 66.5t10.5 81q0 45 -10.5 84t-30.5 67.5t-50 45
t-69 16.5zM1679 504q-39 0 -69 -16.5t-50.5 -45t-31 -67.5t-10.5 -84q0 -43 10.5 -81t31 -66.5t50.5 -45t69 -16.5t69.5 16.5t51 45t31 66.5t10.5 81q0 45 -10.5 84t-31 67.5t-51 45t-69.5 16.5zM1679 598q64 0 114.5 -25t85.5 -67t53 -98t18 -117t-18 -116.5t-53 -98
t-85.5 -67.5t-114.5 -25q-65 0 -115 25t-84.5 67.5t-52.5 98t-18 116.5t18 117t52.5 98t84.5 67t115 25z" />
    <glyph glyph-name="Acircumflex" unicode="&#xc2;" horiz-adv-x="1243" 
d="M606 1229h29l600 -1229h-133l-117 233h-727l-117 -233h-131zM629 991h-17l-286 -624l-13 -23h617l-12 23zM616 1468l-120 -123h-51v14l133 176h75l133 -176v-14h-52z" />
    <glyph glyph-name="Ecircumflex" unicode="&#xca;" horiz-adv-x="1153" 
d="M979 551h-680v-442h772v-109h-889v1229h889v-109h-772v-461h680v-108zM646 1468l-120 -123h-51v14l133 176h75l133 -176v-14h-52z" />
    <glyph glyph-name="Aacute" unicode="&#xc1;" horiz-adv-x="1243" 
d="M606 1229h29l600 -1229h-133l-117 233h-727l-117 -233h-131zM629 991h-17l-286 -624l-13 -23h617l-12 23zM655 1352h-48v15l66 200h95v-15z" />
    <glyph glyph-name="Edieresis" unicode="&#xcb;" horiz-adv-x="1153" 
d="M377 1444q0 16 6.5 30.5t17.5 25.5t25.5 17.5t30.5 6.5t30.5 -6.5t25.5 -17.5t17.5 -25.5t6.5 -30.5t-6.5 -30.5t-17.5 -25.5t-25.5 -17.5t-30.5 -6.5t-30.5 6.5t-25.5 17.5t-17.5 25.5t-6.5 30.5zM741 1444q0 16 6.5 30.5t17.5 25.5t25.5 17.5t30.5 6.5t30.5 -6.5
t25.5 -17.5t17.5 -25.5t6.5 -30.5t-6.5 -30.5t-17.5 -25.5t-25.5 -17.5t-30.5 -6.5t-30.5 6.5t-25.5 17.5t-17.5 25.5t-6.5 30.5zM979 551h-680v-442h772v-109h-889v1229h889v-109h-772v-461h680v-108z" />
    <glyph glyph-name="Egrave" unicode="&#xc8;" horiz-adv-x="1153" 
d="M979 551h-680v-442h772v-109h-889v1229h889v-109h-772v-461h680v-108zM494 1552v16h95l66 -200v-16h-48z" />
    <glyph glyph-name="Iacute" unicode="&#xcd;" horiz-adv-x="483" 
d="M299 0h-117v1229h117v-1229zM261 1352h-48v15l66 200h95v-15z" />
    <glyph glyph-name="Icircumflex" unicode="&#xce;" horiz-adv-x="483" 
d="M246 1534l-217 -227h-74v22l225 301h129l226 -301v-22h-74zM299 2h-117v1229h117v-1229z" />
    <glyph glyph-name="Idieresis" unicode="&#xcf;" horiz-adv-x="483" 
d="M-16 1444q0 16 6.5 30.5t17 25.5t25 17.5t30.5 6.5t30.5 -6.5t25.5 -17.5t17.5 -25.5t6.5 -30.5t-6.5 -30.5t-17.5 -25.5t-25.5 -17.5t-30.5 -6.5t-30.5 6.5t-25 17.5t-17 25.5t-6.5 30.5zM348 1444q0 16 6.5 30.5t17.5 25.5t25.5 17.5t30.5 6.5t30.5 -6.5t25.5 -17.5
t17.5 -25.5t6.5 -30.5t-6.5 -30.5t-17.5 -25.5t-25.5 -17.5t-30.5 -6.5t-30.5 6.5t-25.5 17.5t-17.5 25.5t-6.5 30.5zM299 0h-117v1229h117v-1229z" />
    <glyph glyph-name="Igrave" unicode="&#xcc;" horiz-adv-x="483" 
d="M299 0h-117v1229h117v-1229zM104 1552v16h95l66 -200v-16h-48z" />
    <glyph glyph-name="Oacute" unicode="&#xd3;" horiz-adv-x="1450" 
d="M725 -29q-144 0 -261 49.5t-199.5 136t-127.5 203.5t-45 252q0 137 45 254.5t127.5 204t199.5 135.5t261 49t261 -49t199 -135.5t126.5 -204t44.5 -254.5q0 -135 -44.5 -252t-126.5 -203.5t-199 -136t-261 -49.5zM725 82q120 0 215 42.5t161.5 114.5t102 168.5
t35.5 204.5q0 109 -35.5 206t-102 169.5t-161.5 115t-215 42.5q-121 0 -216.5 -42.5t-161.5 -115t-101 -169.5t-35 -206q0 -108 35 -204.5t101 -168.5t161.5 -114.5t216.5 -42.5zM751 1352h-48v15l66 200h95v-15z" />
    <glyph glyph-name="Ocircumflex" unicode="&#xd4;" horiz-adv-x="1450" 
d="M725 -29q-144 0 -261 49.5t-199.5 136t-127.5 203.5t-45 252q0 137 45 254.5t127.5 204t199.5 135.5t261 49t261 -49t199 -135.5t126.5 -204t44.5 -254.5q0 -135 -44.5 -252t-126.5 -203.5t-199 -136t-261 -49.5zM725 82q120 0 215 42.5t161.5 114.5t102 168.5
t35.5 204.5q0 109 -35.5 206t-102 169.5t-161.5 115t-215 42.5q-121 0 -216.5 -42.5t-161.5 -115t-101 -169.5t-35 -206q0 -108 35 -204.5t101 -168.5t161.5 -114.5t216.5 -42.5zM728 1468l-120 -123h-51v14l133 176h75l133 -176v-14h-52z" />
    <glyph glyph-name="Ograve" unicode="&#xd2;" horiz-adv-x="1450" 
d="M725 -29q-144 0 -261 49.5t-199.5 136t-127.5 203.5t-45 252q0 137 45 254.5t127.5 204t199.5 135.5t261 49t261 -49t199 -135.5t126.5 -204t44.5 -254.5q0 -135 -44.5 -252t-126.5 -203.5t-199 -136t-261 -49.5zM725 82q120 0 215 42.5t161.5 114.5t102 168.5
t35.5 204.5q0 109 -35.5 206t-102 169.5t-161.5 115t-215 42.5q-121 0 -216.5 -42.5t-161.5 -115t-101 -169.5t-35 -206q0 -108 35 -204.5t101 -168.5t161.5 -114.5t216.5 -42.5zM593 1552v16h95l66 -200v-16h-48z" />
    <glyph glyph-name="Uacute" unicode="&#xda;" horiz-adv-x="1346" 
d="M672 -29q-121 0 -215.5 39t-159.5 110t-99 170.5t-34 221.5v717h117v-717q0 -95 25 -174t74 -136t122 -88.5t170 -31.5q98 0 172 31.5t123 88.5t73.5 136t24.5 174v717h115v-717q0 -122 -33.5 -221.5t-98.5 -170.5t-159.5 -110t-216.5 -39zM708 1336h-48v15l66 200h95
v-15z" />
    <glyph glyph-name="Ucircumflex" unicode="&#xdb;" horiz-adv-x="1346" 
d="M674 1534l-217 -227h-74v22l225 301h129l226 -301v-22h-74zM672 -29q-121 0 -215.5 39t-159.5 110t-99 170.5t-34 221.5v717h117v-717q0 -95 25 -174t74 -136t122 -88.5t170 -31.5q98 0 172 31.5t123 88.5t73.5 136t24.5 174v717h115v-717q0 -122 -33.5 -221.5
t-98.5 -170.5t-159.5 -110t-216.5 -39z" />
    <glyph glyph-name="Ugrave" unicode="&#xd9;" horiz-adv-x="1346" 
d="M672 -29q-121 0 -215.5 39t-159.5 110t-99 170.5t-34 221.5v717h117v-717q0 -95 25 -174t74 -136t122 -88.5t170 -31.5q98 0 172 31.5t123 88.5t73.5 136t24.5 174v717h115v-717q0 -122 -33.5 -221.5t-98.5 -170.5t-159.5 -110t-216.5 -39zM552 1552v16h95l66 -200v-16
h-48z" />
    <glyph glyph-name="dotlessi" unicode="&#x131;" horiz-adv-x="383" 
d="M133 709h115v-709h-115v709z" />
    <glyph glyph-name="circumflex" unicode="&#x2c6;" horiz-adv-x="674" 
d="M346 1085l-217 -227h-74v23l226 301h129l225 -301v-23h-74z" />
    <glyph glyph-name="tilde" unicode="&#x2dc;" horiz-adv-x="881" 
d="M569 911q-41 0 -76.5 16t-67.5 35.5t-62 35.5t-60 16q-21 0 -35.5 -6.5t-23.5 -17t-15 -24t-10 -28.5l-8 -27l-82 9l10 45q6 27 16.5 52t28.5 44.5t44.5 31t64.5 11.5q40 0 75 -15.5t66.5 -34.5t61.5 -34.5t61 -15.5q43 0 60.5 22t25.5 53l6 25l82 -8l-8 -43
q-5 -28 -16 -53.5t-29 -45t-45 -31.5t-64 -12z" />
    <glyph glyph-name="macron" unicode="&#xaf;" horiz-adv-x="967" 
d="M227 989h533v-78h-533v78z" />
    <glyph glyph-name="breve" unicode="&#x2d8;" horiz-adv-x="717" 
d="M614 1194q0 -60 -20 -110t-55 -86t-83 -56t-104 -20t-103.5 20t-82.5 56t-54.5 86t-19.5 110h92q0 -41 12.5 -74t35 -56.5t53 -36.5t67.5 -13q37 -1 68 12t53 36.5t34.5 57t12.5 74.5h94z" />
    <glyph glyph-name="dotaccent" unicode="&#x2d9;" horiz-adv-x="618" 
d="M209 1061q0 43 28 71.5t70 28.5q44 0 71.5 -28.5t27.5 -71.5t-27.5 -70.5t-71.5 -27.5q-42 0 -70 27.5t-28 70.5z" />
    <glyph glyph-name="ring" unicode="&#x2da;" horiz-adv-x="551" 
d="M293 887q-39 0 -73 14t-58.5 38t-38.5 57t-14 71t14 71t38.5 57t58.5 38t73 14q40 0 73.5 -14t58 -38t38.5 -57t14 -71t-14 -71t-38.5 -57t-58 -38t-73.5 -14zM397 1067q0 48 -27.5 76t-76.5 28q-48 0 -76.5 -28t-28.5 -76q0 -46 28.5 -75t76.5 -29q49 0 76.5 29t27.5 75
z" />
    <glyph glyph-name="cedilla" unicode="&#xb8;" horiz-adv-x="442" 
d="M141 -88l49 92h74l-35 -65q29 0 55 -7.5t45.5 -23.5t30.5 -40t11 -58q0 -62 -43 -101t-121 -39q-36 0 -63 8t-44 19q-20 11 -34 27l28 53q13 -12 31 -22q15 -8 35.5 -14.5t46.5 -6.5q45 0 69.5 20t24.5 58q0 35 -26 54t-64 19q-11 0 -18.5 -1t-12.5 -3q-6 -2 -10 -4z" />
    <glyph glyph-name="hungarumlaut" unicode="&#x2dd;" horiz-adv-x="850" 
d="M186 858h-71v23l98 301h131v-23zM510 858h-72v23l97 301h133v-23z" />
    <glyph glyph-name="ogonek" unicode="&#x2db;" horiz-adv-x="412" 
d="M342 -231q-13 -13 -31 -24q-16 -9 -38.5 -16.5t-51.5 -7.5q-69 0 -107 36.5t-38 99.5q0 26 8 48t21.5 40t30 32.5t34.5 25.5q41 26 94 42l15 -45q-36 -14 -64 -32q-24 -17 -43.5 -41t-19.5 -58q0 -37 19.5 -57.5t57.5 -20.5q17 0 30.5 4.5t23.5 9.5q11 6 20 15z" />
    <glyph glyph-name="caron" unicode="&#x2c7;" horiz-adv-x="698" 
d="M561 1182h74v-23l-225 -301h-129l-226 301v23h74l217 -228z" />
    <glyph glyph-name="Dslash" unicode="&#x110;" horiz-adv-x="1364" 
d="M41 662h158v567h411q144 0 265 -42.5t208.5 -122t136 -193.5t48.5 -257t-48.5 -256.5t-136 -193t-208.5 -122t-265 -42.5h-411v567h-158v95zM315 1120v-458h281v-95h-281v-458h291q115 0 214.5 34.5t172.5 99.5t114.5 158.5t41.5 212.5t-42 213t-115 159t-172.5 99.5
t-213.5 34.5h-291z" />
    <glyph glyph-name="dcroat" unicode="&#x111;" horiz-adv-x="958" 
d="M418 1030h297v338h114v-338h109v-82h-109v-948h-79l-17 129h-6q-23 -41 -63 -73q-34 -27 -90 -49.5t-140 -22.5q-74 0 -139.5 26.5t-114 75t-76.5 116.5t-28 152q0 83 27.5 151.5t75.5 117t113 75.5t140 27q80 0 134 -20.5t86 -44.5q38 -28 59 -64h4v352h-297v82z
M723 354q0 64 -21.5 115t-58 86t-85.5 53.5t-103 18.5q-56 0 -103.5 -20t-83 -56t-55.5 -86t-20 -111q0 -60 20 -110t55.5 -86t83 -56t103.5 -20q54 0 103 18.5t85.5 53t58 85t21.5 115.5z" />
    <glyph glyph-name="Ccaron" unicode="&#x10c;" horiz-adv-x="1214" 
d="M918 1661h73v-23l-225 -301h-129l-225 301v23h73l217 -227zM1155 133q-43 -46 -105 -81q-53 -31 -132.5 -56t-186.5 -25q-141 0 -258.5 49.5t-202 136t-131.5 203.5t-47 252q0 137 47 254.5t131.5 204t202 135.5t258.5 49q107 0 186.5 -25t132.5 -55q62 -35 105 -79
l-68 -90q-40 38 -93 69q-45 26 -110.5 48t-150.5 22q-117 0 -213 -42.5t-164.5 -115t-106.5 -169.5t-38 -206q0 -108 38 -204.5t106.5 -168.5t164.5 -114.5t213 -42.5q85 0 150.5 21.5t110.5 47.5q53 31 93 70z" />
    <glyph glyph-name="ccaron" unicode="&#x10d;" horiz-adv-x="748" 
d="M659 1182h74v-23l-225 -301h-129l-225 301v23h73l217 -228zM461 -16q-83 0 -153.5 26.5t-122 74.5t-80.5 116t-29 151t29 151.5t80.5 118t122 76.5t153.5 27q56 0 99 -10t72 -21q34 -13 60 -30l-35 -89q-22 15 -51 26q-25 10 -60 18t-79 8q-56 0 -105.5 -19.5t-87 -55
t-59.5 -86.5t-22 -114q0 -64 22 -114t59.5 -84.5t87 -53t105.5 -18.5q44 0 79 7.5t60 17.5q29 11 51 26l33 -88q-25 -18 -59 -31q-29 -11 -71.5 -20.5t-98.5 -9.5z" />
    <glyph glyph-name=".notdef.131" unicode="&#x102;" horiz-adv-x="1243" 
d="M606 1229h29l600 -1229h-133l-117 233h-727l-117 -233h-131zM629 991h-17l-286 -624l-13 -23h617l-12 23zM810 1548q0 -43 -14.5 -79t-39.5 -62t-60 -40.5t-75 -14.5t-74.5 14.5t-59.5 40.5t-39 62t-14 79h67q0 -60 33.5 -95t86.5 -35q54 -1 87.5 34.5t33.5 95.5h68z" />
    <glyph glyph-name=".notdef.064" unicode="&#x103;" horiz-adv-x="864" 
d="M61 211q0 45 19 84.5t58.5 69t99.5 46.5t141 17q55 0 97 -8t72.5 -19.5t50 -23.5t30.5 -21h10v52q0 51 -14 91.5t-44 69t-78 43.5t-116 15q-51 0 -89.5 -9t-66.5 -20q-33 -13 -57 -29l-43 88q27 19 67 34q35 13 87 23.5t125 10.5q92 0 156.5 -25.5t105.5 -70t59.5 -105
t18.5 -131.5v-393h-82l-13 92h-8q-6 -9 -24 -27t-51.5 -36t-84.5 -31.5t-122 -13.5q-78 0 -135.5 18t-95 49t-55.5 72.5t-18 87.5zM176 211q0 -29 12.5 -55t38.5 -45t66 -30t94 -11t99.5 14.5t78.5 36t51.5 47t18.5 47.5q0 29 -19.5 53.5t-53 42t-79 27.5t-96.5 10
q-105 0 -158 -37.5t-53 -99.5zM617 1053q0 -43 -14.5 -79t-39.5 -62t-60 -40.5t-75 -14.5t-74.5 14.5t-59.5 40.5t-39 62t-14 79h67q0 -60 33.5 -95t86.5 -35q54 -1 87.5 34.5t33.5 95.5h68z" />
    <glyph glyph-name=".notdef.034" unicode="&#x168;" horiz-adv-x="1346" 
d="M672 -29q-121 0 -215.5 39t-159.5 110t-99 170.5t-34 221.5v717h117v-717q0 -95 25 -174t74 -136t122 -88.5t170 -31.5q98 0 172 31.5t123 88.5t73.5 136t24.5 174v717h115v-717q0 -122 -33.5 -221.5t-98.5 -170.5t-159.5 -110t-216.5 -39zM804 1351q-29 0 -54 11.5
t-47.5 25t-43.5 25t-42 11.5q-30 0 -41.5 -16.5t-17.5 -37.5l-6 -19l-57 6l6 32q4 19 11 37t20 31.5t31.5 21.5t45.5 8q28 0 53 -11t47.5 -24t43.5 -24t42 -11q30 0 43 15t18 38l4 17l57 -5l-5 -30q-4 -20 -11.5 -38t-20 -32t-31.5 -22.5t-45 -8.5z" />
    <glyph glyph-name=".notdef.100" unicode="&#x169;" horiz-adv-x="924" 
d="M682 709h115v-709h-76l-21 113h-6q-4 -8 -20 -29t-47.5 -43.5t-81.5 -39.5t-121 -17q-75 0 -132 24t-96 66.5t-59 102.5t-20 132v400h114v-385q0 -53 13 -97t40 -76.5t68 -50.5t97 -18q61 0 105 21t72.5 52t42 67t13.5 67v420zM563 857q-29 0 -54 11.5t-47.5 25t-43.5 25
t-42 11.5q-30 0 -41.5 -16.5t-17.5 -37.5l-6 -19l-57 6l6 32q4 19 11 37t20 31.5t31.5 21.5t45.5 8q28 0 53 -11t47.5 -24t43.5 -24t42 -11q30 0 43 15t18 38l4 17l57 -5l-5 -30q-4 -20 -11.5 -38t-20 -32t-31.5 -22.5t-45 -8.5z" />
    <glyph glyph-name=".notdef.018" unicode="&#x128;" horiz-adv-x="483" 
d="M299 0h-117v1229h117v-1229zM339 1351q-29 0 -54 11.5t-47.5 25t-43.5 25t-42 11.5q-30 0 -41.5 -16.5t-17.5 -37.5l-6 -19l-57 6l6 32q4 19 11 37t20 31.5t31.5 21.5t45.5 8q28 0 53 -11t47.5 -24t43.5 -24t42 -11q30 0 43 15t18 38l4 17l57 -5l-5 -30q-4 -20 -11.5 -38
t-20 -32t-31.5 -22.5t-45 -8.5z" />
    <glyph glyph-name=".notdef.084" unicode="&#x129;" horiz-adv-x="381" 
d="M133 709h115v-709h-115v709zM301 857q-29 0 -54 11.5t-47.5 25t-43.5 25t-42 11.5q-30 0 -41.5 -16.5t-17.5 -37.5l-6 -19l-57 6l6 32q4 19 11 37t20 31.5t31.5 21.5t45.5 8q28 0 53 -11t47.5 -24t43.5 -24t42 -11q30 0 43 15t18 38l4 17l57 -5l-5 -30q-4 -20 -11.5 -38
t-20 -32t-31.5 -22.5t-45 -8.5z" />
    <glyph glyph-name=".notdef.049" unicode="&#xdd;" horiz-adv-x="1106" 
d="M956 1229h136l-482 -758v-471h-116v471l-480 758h138l364 -580l31 -63h16l33 63zM575 1352h-48v15l66 200h95v-15z" />
    <glyph glyph-name=".notdef.115" unicode="&#xfd;" horiz-adv-x="829" 
d="M274 -393h-120l208 424l-331 678h127l248 -525q6 -12 9 -26t3 -23h6q0 9 3 23t9 26l246 525h119zM464 858h-48v15l66 200h95v-15z" />
    <glyph glyph-name=".notdef.017" unicode="&#x1ec8;" horiz-adv-x="483" 
d="M299 0h-117v1229h117v-1229zM167 1575q10 17 24 31q12 12 30.5 22t43.5 10q51 0 78 -30.5t22 -81.5q-3 -29 -19.5 -51.5t-35 -42.5t-34 -39t-15.5 -41h-35q-3 27 9 49t27.5 42t29 40t13.5 41q0 23 -12.5 39.5t-37.5 16.5q-17 0 -27.5 -6t-18.5 -13q-9 -8 -14 -18z" />
    <glyph glyph-name=".notdef.083" unicode="&#x1ec9;" horiz-adv-x="381" 
d="M133 709h115v-709h-115v709zM115 1081q10 17 24 31q12 12 30.5 22t43.5 10q51 0 78 -30.5t22 -81.5q-3 -29 -19.5 -51.5t-35 -42.5t-34 -39t-15.5 -41h-35q-3 27 9 49t27.5 42t29 40t13.5 41q0 23 -12.5 39.5t-37.5 16.5q-17 0 -27.5 -6t-18.5 -13q-9 -8 -14 -18z" />
    <glyph glyph-name=".notdef.057" unicode="&#x1ea1;" horiz-adv-x="864" 
d="M61 211q0 45 19 84.5t58.5 69t99.5 46.5t141 17q55 0 97 -8t72.5 -19.5t50 -23.5t30.5 -21h10v52q0 51 -14 91.5t-44 69t-78 43.5t-116 15q-51 0 -89.5 -9t-66.5 -20q-33 -13 -57 -29l-43 88q27 19 67 34q35 13 87 23.5t125 10.5q92 0 156.5 -25.5t105.5 -70t59.5 -105
t18.5 -131.5v-393h-82l-13 92h-8q-6 -9 -24 -27t-51.5 -36t-84.5 -31.5t-122 -13.5q-78 0 -135.5 18t-95 49t-55.5 72.5t-18 87.5zM176 211q0 -29 12.5 -55t38.5 -45t66 -30t94 -11t99.5 14.5t78.5 36t51.5 47t18.5 47.5q0 29 -19.5 53.5t-53 42t-79 27.5t-96.5 10
q-105 0 -158 -37.5t-53 -99.5zM411 -250q-22 0 -37 14.5t-15 36.5q0 23 15 38t37 15t37 -15t15 -38q0 -22 -15 -36.5t-37 -14.5z" />
    <glyph glyph-name="c" unicode="c" horiz-adv-x="748" 
d="M461 -16q-83 0 -153.5 26.5t-122 74.5t-80.5 116t-29 151t29 151.5t80.5 118t122 76.5t153.5 27q56 0 99 -10t72 -21q34 -13 60 -30l-35 -89q-22 15 -51 26q-25 10 -60 18t-79 8q-56 0 -105.5 -19.5t-87 -55t-59.5 -86.5t-22 -114q0 -64 22 -114t59.5 -84.5t87 -53
t105.5 -18.5q44 0 79 7.5t60 17.5q29 11 51 26l33 -88q-25 -18 -59 -31q-29 -11 -71.5 -20.5t-98.5 -9.5z" />
    <glyph glyph-name=".notdef.124" unicode="&#x1ea0;" horiz-adv-x="1243" 
d="M606 1229h29l600 -1229h-133l-117 233h-727l-117 -233h-131zM629 991h-17l-286 -624l-13 -23h617l-12 23zM623 -250q-22 0 -37 14.5t-15 36.5q0 23 15 38t37 15t37 -15t15 -38q0 -22 -15 -36.5t-37 -14.5z" />
    <glyph glyph-name=".notdef.122" unicode="&#x1ea2;" horiz-adv-x="1243" 
d="M606 1229h29l600 -1229h-133l-117 233h-727l-117 -233h-131zM629 991h-17l-286 -624l-13 -23h617l-12 23zM542 1575q10 17 24 31q12 12 30.5 22t43.5 10q51 0 78 -30.5t22 -81.5q-3 -29 -19.5 -51.5t-35 -42.5t-34 -39t-15.5 -41h-35q-3 27 9 49t27.5 42t29 40t13.5 41
q0 23 -12.5 39.5t-37.5 16.5q-17 0 -27.5 -6t-18.5 -13q-9 -8 -14 -18z" />
    <glyph glyph-name=".notdef.055" unicode="&#x1ea3;" horiz-adv-x="864" 
d="M61 211q0 45 19 84.5t58.5 69t99.5 46.5t141 17q55 0 97 -8t72.5 -19.5t50 -23.5t30.5 -21h10v52q0 51 -14 91.5t-44 69t-78 43.5t-116 15q-51 0 -89.5 -9t-66.5 -20q-33 -13 -57 -29l-43 88q27 19 67 34q35 13 87 23.5t125 10.5q92 0 156.5 -25.5t105.5 -70t59.5 -105
t18.5 -131.5v-393h-82l-13 92h-8q-6 -9 -24 -27t-51.5 -36t-84.5 -31.5t-122 -13.5q-78 0 -135.5 18t-95 49t-55.5 72.5t-18 87.5zM176 211q0 -29 12.5 -55t38.5 -45t66 -30t94 -11t99.5 14.5t78.5 36t51.5 47t18.5 47.5q0 29 -19.5 53.5t-53 42t-79 27.5t-96.5 10
q-105 0 -158 -37.5t-53 -99.5zM346 1072q10 17 24 31q12 12 30.5 22t43.5 10q51 0 78 -30.5t22 -81.5q-3 -29 -19.5 -51.5t-35 -42.5t-34 -39t-15.5 -41h-35q-3 27 9 49t27.5 42t29 40t13.5 41q0 23 -12.5 39.5t-37.5 16.5q-17 0 -27.5 -6t-18.5 -13q-9 -8 -14 -18z" />
    <glyph glyph-name=".notdef.060" unicode="&#x1ea5;" horiz-adv-x="864" 
d="M61 211q0 45 19 84.5t58.5 69t99.5 46.5t141 17q55 0 97 -8t72.5 -19.5t50 -23.5t30.5 -21h10v52q0 51 -14 91.5t-44 69t-78 43.5t-116 15q-51 0 -89.5 -9t-66.5 -20q-33 -13 -57 -29l-43 88q27 19 67 34q35 13 87 23.5t125 10.5q92 0 156.5 -25.5t105.5 -70t59.5 -105
t18.5 -131.5v-393h-82l-13 92h-8q-6 -9 -24 -27t-51.5 -36t-84.5 -31.5t-122 -13.5q-78 0 -135.5 18t-95 49t-55.5 72.5t-18 87.5zM176 211q0 -29 12.5 -55t38.5 -45t66 -30t94 -11t99.5 14.5t78.5 36t51.5 47t18.5 47.5q0 29 -19.5 53.5t-53 42t-79 27.5t-96.5 10
q-105 0 -158 -37.5t-53 -99.5zM413 981l-120 -123h-51v14l133 176h75l133 -176v-14h-52zM629 994h-48v15l66 200h95v-15z" />
    <glyph glyph-name=".notdef.127" unicode="&#x1ea4;" horiz-adv-x="1243" 
d="M606 1229h29l600 -1229h-133l-117 233h-727l-117 -233h-131zM629 991h-17l-286 -624l-13 -23h617l-12 23zM623 1469l-120 -123h-51v14l133 176h75l133 -176v-14h-52zM839 1482h-48v15l66 200h95v-15z" />
    <glyph glyph-name=".notdef.019" unicode="&#x1eca;" horiz-adv-x="483" 
d="M299 0h-117v1229h117v-1229zM240 -250q-22 0 -37 14.5t-15 36.5q0 23 15 38t37 15t37 -15t15 -38q0 -22 -15 -36.5t-37 -14.5z" />
    <glyph glyph-name=".notdef.085" unicode="&#x1ecb;" horiz-adv-x="381" 
d="M133 709h115v-709h-115v709zM190 869q-32 0 -54.5 21.5t-22.5 55.5t22.5 57t54.5 23q35 0 57.5 -23t22.5 -57t-22.5 -55.5t-57.5 -21.5zM202 -250q-22 0 -37 14.5t-15 36.5q0 23 15 38t37 15t37 -15t15 -38q0 -22 -15 -36.5t-37 -14.5z" />
    <glyph glyph-name=".notdef.024" unicode="&#x1ecc;" horiz-adv-x="1450" 
d="M725 -29q-144 0 -261 49.5t-199.5 136t-127.5 203.5t-45 252q0 137 45 254.5t127.5 204t199.5 135.5t261 49t261 -49t199 -135.5t126.5 -204t44.5 -254.5q0 -135 -44.5 -252t-126.5 -203.5t-199 -136t-261 -49.5zM725 82q120 0 215 42.5t161.5 114.5t102 168.5
t35.5 204.5q0 109 -35.5 206t-102 169.5t-161.5 115t-215 42.5q-121 0 -216.5 -42.5t-161.5 -115t-101 -169.5t-35 -206q0 -108 35 -204.5t101 -168.5t161.5 -114.5t216.5 -42.5zM724 -250q-22 0 -37 14.5t-15 36.5q0 23 15 38t37 15t37 -15t15 -38q0 -22 -15 -36.5
t-37 -14.5z" />
    <glyph glyph-name=".notdef.090" unicode="&#x1ecd;" 
d="M840 350q0 -84 -30 -152t-82 -115.5t-122 -73t-149 -25.5t-148.5 25.5t-121 73t-81.5 115.5t-30 152q0 85 30 154.5t81.5 118.5t121 75.5t148.5 26.5t149 -26.5t122 -75.5t82 -118.5t30 -154.5zM457 78q54 0 103 18.5t86 54t59 86t22 115.5q0 64 -22 115.5t-59 88t-86 56
t-103 19.5t-102.5 -19.5t-85 -56t-58 -88t-21.5 -115.5q0 -65 21.5 -115.5t58 -86t85 -54t102.5 -18.5zM464 -250q-22 0 -37 14.5t-15 36.5q0 23 15 38t37 15t37 -15t15 -38q0 -22 -15 -36.5t-37 -14.5z" />
    <glyph glyph-name=".notdef.061" unicode="&#x1ea9;" horiz-adv-x="864" 
d="M61 211q0 45 19 84.5t58.5 69t99.5 46.5t141 17q55 0 97 -8t72.5 -19.5t50 -23.5t30.5 -21h10v52q0 51 -14 91.5t-44 69t-78 43.5t-116 15q-51 0 -89.5 -9t-66.5 -20q-33 -13 -57 -29l-43 88q27 19 67 34q35 13 87 23.5t125 10.5q92 0 156.5 -25.5t105.5 -70t59.5 -105
t18.5 -131.5v-393h-82l-13 92h-8q-6 -9 -24 -27t-51.5 -36t-84.5 -31.5t-122 -13.5q-78 0 -135.5 18t-95 49t-55.5 72.5t-18 87.5zM176 211q0 -29 12.5 -55t38.5 -45t66 -30t94 -11t99.5 14.5t78.5 36t51.5 47t18.5 47.5q0 29 -19.5 53.5t-53 42t-79 27.5t-96.5 10
q-105 0 -158 -37.5t-53 -99.5zM413 981l-120 -123h-51v14l133 176h75l133 -176v-14h-52zM491 1208q10 17 24 31q12 12 30.5 22t43.5 10q51 0 78 -30.5t22 -81.5q-3 -29 -19.5 -51.5t-35 -42.5t-34 -39t-15.5 -41h-35q-3 27 9 49t27.5 42t29 40t13.5 41q0 23 -12.5 39.5
t-37.5 16.5q-17 0 -27.5 -6t-18.5 -13q-9 -8 -14 -18z" />
    <glyph glyph-name=".notdef.059" unicode="&#x1ea7;" horiz-adv-x="864" 
d="M61 211q0 45 19 84.5t58.5 69t99.5 46.5t141 17q55 0 97 -8t72.5 -19.5t50 -23.5t30.5 -21h10v52q0 51 -14 91.5t-44 69t-78 43.5t-116 15q-51 0 -89.5 -9t-66.5 -20q-33 -13 -57 -29l-43 88q27 19 67 34q35 13 87 23.5t125 10.5q92 0 156.5 -25.5t105.5 -70t59.5 -105
t18.5 -131.5v-393h-82l-13 92h-8q-6 -9 -24 -27t-51.5 -36t-84.5 -31.5t-122 -13.5q-78 0 -135.5 18t-95 49t-55.5 72.5t-18 87.5zM176 211q0 -29 12.5 -55t38.5 -45t66 -30t94 -11t99.5 14.5t78.5 36t51.5 47t18.5 47.5q0 29 -19.5 53.5t-53 42t-79 27.5t-96.5 10
q-105 0 -158 -37.5t-53 -99.5zM413 981l-120 -123h-51v14l133 176h75l133 -176v-14h-52zM472 1185v16h95l66 -200v-16h-48z" />
    <glyph glyph-name=".notdef.062" unicode="&#x1eab;" horiz-adv-x="864" 
d="M61 211q0 45 19 84.5t58.5 69t99.5 46.5t141 17q55 0 97 -8t72.5 -19.5t50 -23.5t30.5 -21h10v52q0 51 -14 91.5t-44 69t-78 43.5t-116 15q-51 0 -89.5 -9t-66.5 -20q-33 -13 -57 -29l-43 88q27 19 67 34q35 13 87 23.5t125 10.5q92 0 156.5 -25.5t105.5 -70t59.5 -105
t18.5 -131.5v-393h-82l-13 92h-8q-6 -9 -24 -27t-51.5 -36t-84.5 -31.5t-122 -13.5q-78 0 -135.5 18t-95 49t-55.5 72.5t-18 87.5zM176 211q0 -29 12.5 -55t38.5 -45t66 -30t94 -11t99.5 14.5t78.5 36t51.5 47t18.5 47.5q0 29 -19.5 53.5t-53 42t-79 27.5t-96.5 10
q-105 0 -158 -37.5t-53 -99.5zM413 981l-120 -123h-51v14l133 176h75l133 -176v-14h-52zM516 1103q-29 0 -54 11.5t-47.5 25t-43.5 25t-42 11.5q-30 0 -41.5 -16.5t-17.5 -37.5l-6 -19l-57 6l6 32q4 19 11 37t20 31.5t31.5 21.5t45.5 8q28 0 53 -11t47.5 -24t43.5 -24
t42 -11q30 0 43 15t18 38l4 17l57 -5l-5 -30q-4 -20 -11.5 -38t-20 -32t-31.5 -22.5t-45 -8.5z" />
    <glyph glyph-name=".notdef.063" unicode="&#x1ead;" horiz-adv-x="864" 
d="M61 211q0 45 19 84.5t58.5 69t99.5 46.5t141 17q55 0 97 -8t72.5 -19.5t50 -23.5t30.5 -21h10v52q0 51 -14 91.5t-44 69t-78 43.5t-116 15q-51 0 -89.5 -9t-66.5 -20q-33 -13 -57 -29l-43 88q27 19 67 34q35 13 87 23.5t125 10.5q92 0 156.5 -25.5t105.5 -70t59.5 -105
t18.5 -131.5v-393h-82l-13 92h-8q-6 -9 -24 -27t-51.5 -36t-84.5 -31.5t-122 -13.5q-78 0 -135.5 18t-95 49t-55.5 72.5t-18 87.5zM176 211q0 -29 12.5 -55t38.5 -45t66 -30t94 -11t99.5 14.5t78.5 36t51.5 47t18.5 47.5q0 29 -19.5 53.5t-53 42t-79 27.5t-96.5 10
q-105 0 -158 -37.5t-53 -99.5zM413 981l-120 -123h-51v14l133 176h75l133 -176v-14h-52zM411 -250q-22 0 -37 14.5t-15 36.5q0 23 15 38t37 15t37 -15t15 -38q0 -22 -15 -36.5t-37 -14.5z" />
    <glyph glyph-name=".notdef.036" unicode="&#x1af;" horiz-adv-x="1346" 
d="M1166 1327q0 30 20 50t51 20q30 0 48.5 -20.5t23.5 -51.5q6 -35 -7 -61.5t-27 -44.5l-95 -118v-589q0 -122 -33.5 -221.5t-98.5 -170.5t-159.5 -110t-216.5 -39q-121 0 -215.5 39t-159.5 110t-99 170.5t-34 221.5v717h117v-717q0 -95 25 -174t74 -136t122 -88.5
t170 -31.5q98 0 172 31.5t123 88.5t73.5 136t24.5 174v717h115v-53l28 50q7 13 14 20l6 6v6q-28 4 -45 22.5t-17 46.5z" />
    <glyph glyph-name=".notdef.102" unicode="&#x1b0;" horiz-adv-x="924" 
d="M783 787q0 26 17 42.5t43 16.5q25 0 40 -17t20 -43q5 -29 -5.5 -51t-23.5 -37l-77 -97v-601h-76l-21 113h-6q-4 -8 -20 -29t-47.5 -43.5t-81.5 -39.5t-121 -17q-75 0 -132 24t-96 66.5t-59 102.5t-20 132v400h114v-385q0 -53 13 -97t40 -76.5t68 -50.5t97 -18
q61 0 105 21t72.5 52t42 67t13.5 67v420h115v-43l21 37q3 5 6.5 9.5t5.5 7.5q3 4 6 5v5q-23 3 -38 18.5t-15 38.5z" />
    <glyph glyph-name=".notdef.042" unicode="&#x1a0;" horiz-adv-x="1450" 
d="M1122 1327q0 30 20 50t51 20q30 0 48.5 -20.5t23.5 -51.5q6 -35 -7 -61.5t-27 -44.5l-88 -109q102 -88 157.5 -216t55.5 -282q0 -135 -44.5 -252t-126.5 -203.5t-199 -136t-261 -49.5t-261 49.5t-199.5 136t-127.5 203.5t-45 252q0 137 45 254.5t127.5 204t199.5 135.5
t261 49q115 0 212.5 -31.5t174.5 -88.5l52 91q7 13 14 20l6 6v6q-28 4 -45 22.5t-17 46.5zM725 82q120 0 215 42.5t161.5 114.5t102 168.5t35.5 204.5q0 109 -35.5 206t-102 169.5t-161.5 115t-215 42.5q-121 0 -216.5 -42.5t-161.5 -115t-101 -169.5t-35 -206
q0 -108 35 -204.5t101 -168.5t161.5 -114.5t216.5 -42.5z" />
    <glyph glyph-name=".notdef.108" unicode="&#x1a1;" 
d="M712 787q0 26 17 42.5t43 16.5q25 0 40 -17t20 -43q5 -29 -5.5 -51t-23.5 -37l-67 -84q48 -49 76 -115.5t28 -148.5q0 -84 -30 -152t-82 -115.5t-122 -73t-149 -25.5t-148.5 25.5t-121 73t-81.5 115.5t-30 152q0 85 30 154.5t81.5 118.5t121 75.5t148.5 26.5
q73 0 137.5 -22.5t115.5 -64.5l37 65q3 5 6.5 9.5t5.5 7.5q3 4 6 5v5q-23 3 -38 18.5t-15 38.5zM457 78q54 0 103 18.5t86 54t59 86t22 115.5q0 64 -22 115.5t-59 88t-86 56t-103 19.5t-102.5 -19.5t-85 -56t-58 -88t-21.5 -115.5q0 -65 21.5 -115.5t58 -86t85 -54
t102.5 -18.5z" />
    <glyph glyph-name=".notdef.038" unicode="&#x1ee8;" horiz-adv-x="1346" 
d="M1166 1327q0 30 20 50t51 20q30 0 48.5 -20.5t23.5 -51.5q6 -35 -7 -61.5t-27 -44.5l-95 -118v-589q0 -122 -33.5 -221.5t-98.5 -170.5t-159.5 -110t-216.5 -39q-121 0 -215.5 39t-159.5 110t-99 170.5t-34 221.5v717h117v-717q0 -95 25 -174t74 -136t122 -88.5
t170 -31.5q98 0 172 31.5t123 88.5t73.5 136t24.5 174v717h115v-53l28 50q7 13 14 20l6 6v6q-28 4 -45 22.5t-17 46.5zM703 1352h-48v15l66 200h95v-15z" />
    <glyph glyph-name=".notdef.104" unicode="&#x1ee9;" horiz-adv-x="924" 
d="M783 787q0 26 17 42.5t43 16.5q25 0 40 -17t20 -43q5 -29 -5.5 -51t-23.5 -37l-77 -97v-601h-76l-21 113h-6q-4 -8 -20 -29t-47.5 -43.5t-81.5 -39.5t-121 -17q-75 0 -132 24t-96 66.5t-59 102.5t-20 132v400h114v-385q0 -53 13 -97t40 -76.5t68 -50.5t97 -18
q61 0 105 21t72.5 52t42 67t13.5 67v420h115v-43l21 37q3 5 6.5 9.5t5.5 7.5q3 4 6 5v5q-23 3 -38 18.5t-15 38.5zM472 858h-48v15l66 200h95v-15z" />
    <glyph glyph-name=".notdef.037" unicode="&#x1eea;" horiz-adv-x="1346" 
d="M1166 1327q0 30 20 50t51 20q30 0 48.5 -20.5t23.5 -51.5q6 -35 -7 -61.5t-27 -44.5l-95 -118v-589q0 -122 -33.5 -221.5t-98.5 -170.5t-159.5 -110t-216.5 -39q-121 0 -215.5 39t-159.5 110t-99 170.5t-34 221.5v717h117v-717q0 -95 25 -174t74 -136t122 -88.5
t170 -31.5q98 0 172 31.5t123 88.5t73.5 136t24.5 174v717h115v-53l28 50q7 13 14 20l6 6v6q-28 4 -45 22.5t-17 46.5zM535 1552v16h95l66 -200v-16h-48z" />
    <glyph glyph-name=".notdef.103" unicode="&#x1eeb;" horiz-adv-x="924" 
d="M783 787q0 26 17 42.5t43 16.5q25 0 40 -17t20 -43q5 -29 -5.5 -51t-23.5 -37l-77 -97v-601h-76l-21 113h-6q-4 -8 -20 -29t-47.5 -43.5t-81.5 -39.5t-121 -17q-75 0 -132 24t-96 66.5t-59 102.5t-20 132v400h114v-385q0 -53 13 -97t40 -76.5t68 -50.5t97 -18
q61 0 105 21t72.5 52t42 67t13.5 67v420h115v-43l21 37q3 5 6.5 9.5t5.5 7.5q3 4 6 5v5q-23 3 -38 18.5t-15 38.5zM303 1058v16h95l66 -200v-16h-48z" />
    <glyph glyph-name=".notdef.039" unicode="&#x1eec;" horiz-adv-x="1346" 
d="M1166 1327q0 30 20 50t51 20q30 0 48.5 -20.5t23.5 -51.5q6 -35 -7 -61.5t-27 -44.5l-95 -118v-589q0 -122 -33.5 -221.5t-98.5 -170.5t-159.5 -110t-216.5 -39q-121 0 -215.5 39t-159.5 110t-99 170.5t-34 221.5v717h117v-717q0 -95 25 -174t74 -136t122 -88.5
t170 -31.5q98 0 172 31.5t123 88.5t73.5 136t24.5 174v717h115v-53l28 50q7 13 14 20l6 6v6q-28 4 -45 22.5t-17 46.5zM594 1575q10 17 24 31q12 12 30.5 22t43.5 10q51 0 78 -30.5t22 -81.5q-3 -29 -19.5 -51.5t-35 -42.5t-34 -39t-15.5 -41h-35q-3 27 9 49t27.5 42t29 40
t13.5 41q0 23 -12.5 39.5t-37.5 16.5q-17 0 -27.5 -6t-18.5 -13q-9 -8 -14 -18z" />
    <glyph glyph-name=".notdef.105" unicode="&#x1eed;" horiz-adv-x="924" 
d="M783 787q0 26 17 42.5t43 16.5q25 0 40 -17t20 -43q5 -29 -5.5 -51t-23.5 -37l-77 -97v-601h-76l-21 113h-6q-4 -8 -20 -29t-47.5 -43.5t-81.5 -39.5t-121 -17q-75 0 -132 24t-96 66.5t-59 102.5t-20 132v400h114v-385q0 -53 13 -97t40 -76.5t68 -50.5t97 -18
q61 0 105 21t72.5 52t42 67t13.5 67v420h115v-43l21 37q3 5 6.5 9.5t5.5 7.5q3 4 6 5v5q-23 3 -38 18.5t-15 38.5zM382 1080q10 17 24 31q12 12 30.5 22t43.5 10q51 0 78 -30.5t22 -81.5q-3 -29 -19.5 -51.5t-35 -42.5t-34 -39t-15.5 -41h-35q-3 27 9 49t27.5 42t29 40
t13.5 41q0 23 -12.5 39.5t-37.5 16.5q-17 0 -27.5 -6t-18.5 -13q-9 -8 -14 -18z" />
    <glyph glyph-name=".notdef.040" unicode="&#x1eee;" horiz-adv-x="1346" 
d="M1166 1327q0 30 20 50t51 20q30 0 48.5 -20.5t23.5 -51.5q6 -35 -7 -61.5t-27 -44.5l-95 -118v-589q0 -122 -33.5 -221.5t-98.5 -170.5t-159.5 -110t-216.5 -39q-121 0 -215.5 39t-159.5 110t-99 170.5t-34 221.5v717h117v-717q0 -95 25 -174t74 -136t122 -88.5
t170 -31.5q98 0 172 31.5t123 88.5t73.5 136t24.5 174v717h115v-53l28 50q7 13 14 20l6 6v6q-28 4 -45 22.5t-17 46.5zM771 1351q-29 0 -54 11.5t-47.5 25t-43.5 25t-42 11.5q-30 0 -41.5 -16.5t-17.5 -37.5l-6 -19l-57 6l6 32q4 19 11 37t20 31.5t31.5 21.5t45.5 8
q28 0 53 -11t47.5 -24t43.5 -24t42 -11q30 0 43 15t18 38l4 17l57 -5l-5 -30q-4 -20 -11.5 -38t-20 -32t-31.5 -22.5t-45 -8.5z" />
    <glyph glyph-name=".notdef.106" unicode="&#x1eef;" horiz-adv-x="924" 
d="M783 787q0 26 17 42.5t43 16.5q25 0 40 -17t20 -43q5 -29 -5.5 -51t-23.5 -37l-77 -97v-601h-76l-21 113h-6q-4 -8 -20 -29t-47.5 -43.5t-81.5 -39.5t-121 -17q-75 0 -132 24t-96 66.5t-59 102.5t-20 132v400h114v-385q0 -53 13 -97t40 -76.5t68 -50.5t97 -18
q61 0 105 21t72.5 52t42 67t13.5 67v420h115v-43l21 37q3 5 6.5 9.5t5.5 7.5q3 4 6 5v5q-23 3 -38 18.5t-15 38.5zM563 856q-29 0 -54 11.5t-47.5 25t-43.5 25t-42 11.5q-30 0 -41.5 -16.5t-17.5 -37.5l-6 -19l-57 6l6 32q4 19 11 37t20 31.5t31.5 21.5t45.5 8q28 0 53 -11
t47.5 -24t43.5 -24t42 -11q30 0 43 15t18 38l4 17l57 -5l-5 -30q-4 -20 -11.5 -38t-20 -32t-31.5 -22.5t-45 -8.5z" />
    <glyph glyph-name=".notdef.041" unicode="&#x1ef0;" horiz-adv-x="1346" 
d="M1166 1327q0 30 20 50t51 20q30 0 48.5 -20.5t23.5 -51.5q6 -35 -7 -61.5t-27 -44.5l-95 -118v-589q0 -122 -33.5 -221.5t-98.5 -170.5t-159.5 -110t-216.5 -39q-121 0 -215.5 39t-159.5 110t-99 170.5t-34 221.5v717h117v-717q0 -95 25 -174t74 -136t122 -88.5
t170 -31.5q98 0 172 31.5t123 88.5t73.5 136t24.5 174v717h115v-53l28 50q7 13 14 20l6 6v6q-28 4 -45 22.5t-17 46.5zM675 -250q-22 0 -37 14.5t-15 36.5q0 23 15 38t37 15t37 -15t15 -38q0 -22 -15 -36.5t-37 -14.5z" />
    <glyph glyph-name=".notdef.107" unicode="&#x1ef1;" horiz-adv-x="924" 
d="M783 787q0 26 17 42.5t43 16.5q25 0 40 -17t20 -43q5 -29 -5.5 -51t-23.5 -37l-77 -97v-601h-76l-21 113h-6q-4 -8 -20 -29t-47.5 -43.5t-81.5 -39.5t-121 -17q-75 0 -132 24t-96 66.5t-59 102.5t-20 132v400h114v-385q0 -53 13 -97t40 -76.5t68 -50.5t97 -18
q61 0 105 21t72.5 52t42 67t13.5 67v420h115v-43l21 37q3 5 6.5 9.5t5.5 7.5q3 4 6 5v5q-23 3 -38 18.5t-15 38.5zM456 -250q-22 0 -37 14.5t-15 36.5q0 23 15 38t37 15t37 -15t15 -38q0 -22 -15 -36.5t-37 -14.5z" />
    <glyph glyph-name=".notdef.048" unicode="&#x1ef2;" horiz-adv-x="1106" 
d="M956 1229h136l-482 -758v-471h-116v471l-480 758h138l364 -580l31 -63h16l33 63zM419 1552v16h95l66 -200v-16h-48z" />
    <glyph glyph-name=".notdef.114" unicode="&#x1ef3;" horiz-adv-x="829" 
d="M274 -393h-120l208 424l-331 678h127l248 -525q6 -12 9 -26t3 -23h6q0 9 3 23t9 26l246 525h119zM272 1058v16h95l66 -200v-16h-48z" />
    <glyph glyph-name=".notdef.052" unicode="&#x1ef4;" horiz-adv-x="1106" 
d="M956 1229h136l-482 -758v-471h-116v471l-480 758h138l364 -580l31 -63h16l33 63zM563 -250q-22 0 -37 14.5t-15 36.5q0 23 15 38t37 15t37 -15t15 -38q0 -22 -15 -36.5t-37 -14.5z" />
    <glyph glyph-name=".notdef.118" unicode="&#x1ef5;" horiz-adv-x="829" 
d="M274 -393h-120l208 424l-331 678h127l248 -525q6 -12 9 -26t3 -23h6q0 9 3 23t9 26l246 525h119zM636 -250q-22 0 -37 14.5t-15 36.5q0 23 15 38t37 15t37 -15t15 -38q0 -22 -15 -36.5t-37 -14.5z" />
    <glyph glyph-name=".notdef.050" unicode="&#x1ef6;" horiz-adv-x="1106" 
d="M956 1229h136l-482 -758v-471h-116v471l-480 758h138l364 -580l31 -63h16l33 63zM461 1575q10 17 24 31q12 12 30.5 22t43.5 10q51 0 78 -30.5t22 -81.5q-3 -29 -19.5 -51.5t-35 -42.5t-34 -39t-15.5 -41h-35q-3 27 9 49t27.5 42t29 40t13.5 41q0 23 -12.5 39.5
t-37.5 16.5q-17 0 -27.5 -6t-18.5 -13q-9 -8 -14 -18z" />
    <glyph glyph-name=".notdef.116" unicode="&#x1ef7;" horiz-adv-x="829" 
d="M274 -393h-120l208 424l-331 678h127l248 -525q6 -12 9 -26t3 -23h6q0 9 3 23t9 26l246 525h119zM346 1072q10 17 24 31q12 12 30.5 22t43.5 10q51 0 78 -30.5t22 -81.5q-3 -29 -19.5 -51.5t-35 -42.5t-34 -39t-15.5 -41h-35q-3 27 9 49t27.5 42t29 40t13.5 41
q0 23 -12.5 39.5t-37.5 16.5q-17 0 -27.5 -6t-18.5 -13q-9 -8 -14 -18z" />
    <glyph glyph-name=".notdef.051" unicode="&#x1ef8;" horiz-adv-x="1106" 
d="M956 1229h136l-482 -758v-471h-116v471l-480 758h138l364 -580l31 -63h16l33 63zM646 1351q-29 0 -54 11.5t-47.5 25t-43.5 25t-42 11.5q-30 0 -41.5 -16.5t-17.5 -37.5l-6 -19l-57 6l6 32q4 19 11 37t20 31.5t31.5 21.5t45.5 8q28 0 53 -11t47.5 -24t43.5 -24t42 -11
q30 0 43 15t18 38l4 17l57 -5l-5 -30q-4 -20 -11.5 -38t-20 -32t-31.5 -22.5t-45 -8.5z" />
    <glyph glyph-name=".notdef.117" unicode="&#x1ef9;" horiz-adv-x="829" 
d="M274 -393h-120l208 424l-331 678h127l248 -525q6 -12 9 -26t3 -23h6q0 9 3 23t9 26l246 525h119zM522 857q-29 0 -54 11.5t-47.5 25t-43.5 25t-42 11.5q-30 0 -41.5 -16.5t-17.5 -37.5l-6 -19l-57 6l6 32q4 19 11 37t20 31.5t31.5 21.5t45.5 8q28 0 53 -11t47.5 -24
t43.5 -24t42 -11q30 0 43 15t18 38l4 17l57 -5l-5 -30q-4 -20 -11.5 -38t-20 -32t-31.5 -22.5t-45 -8.5z" />
    <glyph glyph-name=".notdef.022" unicode="&#x1ece;" horiz-adv-x="1450" 
d="M725 -29q-144 0 -261 49.5t-199.5 136t-127.5 203.5t-45 252q0 137 45 254.5t127.5 204t199.5 135.5t261 49t261 -49t199 -135.5t126.5 -204t44.5 -254.5q0 -135 -44.5 -252t-126.5 -203.5t-199 -136t-261 -49.5zM725 82q120 0 215 42.5t161.5 114.5t102 168.5
t35.5 204.5q0 109 -35.5 206t-102 169.5t-161.5 115t-215 42.5q-121 0 -216.5 -42.5t-161.5 -115t-101 -169.5t-35 -206q0 -108 35 -204.5t101 -168.5t161.5 -114.5t216.5 -42.5zM650 1575q10 17 24 31q12 12 30.5 22t43.5 10q51 0 78 -30.5t22 -81.5q-3 -29 -19.5 -51.5
t-35 -42.5t-34 -39t-15.5 -41h-35q-3 27 9 49t27.5 42t29 40t13.5 41q0 23 -12.5 39.5t-37.5 16.5q-17 0 -27.5 -6t-18.5 -13q-9 -8 -14 -18z" />
    <glyph glyph-name=".notdef.088" unicode="&#x1ecf;" 
d="M840 350q0 -84 -30 -152t-82 -115.5t-122 -73t-149 -25.5t-148.5 25.5t-121 73t-81.5 115.5t-30 152q0 85 30 154.5t81.5 118.5t121 75.5t148.5 26.5t149 -26.5t122 -75.5t82 -118.5t30 -154.5zM457 78q54 0 103 18.5t86 54t59 86t22 115.5q0 64 -22 115.5t-59 88t-86 56
t-103 19.5t-102.5 -19.5t-85 -56t-58 -88t-21.5 -115.5q0 -65 21.5 -115.5t58 -86t85 -54t102.5 -18.5zM387 1080q10 17 24 31q12 12 30.5 22t43.5 10q51 0 78 -30.5t22 -81.5q-3 -29 -19.5 -51.5t-35 -42.5t-34 -39t-15.5 -41h-35q-3 27 9 49t27.5 42t29 40t13.5 41
q0 23 -12.5 39.5t-37.5 16.5q-17 0 -27.5 -6t-18.5 -13q-9 -8 -14 -18z" />
    <glyph glyph-name=".notdef.027" unicode="&#x1ed0;" horiz-adv-x="1450" 
d="M725 -29q-144 0 -261 49.5t-199.5 136t-127.5 203.5t-45 252q0 137 45 254.5t127.5 204t199.5 135.5t261 49t261 -49t199 -135.5t126.5 -204t44.5 -254.5q0 -135 -44.5 -252t-126.5 -203.5t-199 -136t-261 -49.5zM725 82q120 0 215 42.5t161.5 114.5t102 168.5
t35.5 204.5q0 109 -35.5 206t-102 169.5t-161.5 115t-215 42.5q-121 0 -216.5 -42.5t-161.5 -115t-101 -169.5t-35 -206q0 -108 35 -204.5t101 -168.5t161.5 -114.5t216.5 -42.5zM729 1469l-120 -123h-51v14l133 176h75l133 -176v-14h-52zM945 1482h-48v15l66 200h95v-15z
" />
    <glyph glyph-name=".notdef.093" unicode="&#x1ed1;" 
d="M840 350q0 -84 -30 -152t-82 -115.5t-122 -73t-149 -25.5t-148.5 25.5t-121 73t-81.5 115.5t-30 152q0 85 30 154.5t81.5 118.5t121 75.5t148.5 26.5t149 -26.5t122 -75.5t82 -118.5t30 -154.5zM457 78q54 0 103 18.5t86 54t59 86t22 115.5q0 64 -22 115.5t-59 88t-86 56
t-103 19.5t-102.5 -19.5t-85 -56t-58 -88t-21.5 -115.5q0 -65 21.5 -115.5t58 -86t85 -54t102.5 -18.5zM464 981l-120 -123h-51v14l133 176h75l133 -176v-14h-52zM680 994h-48v15l66 200h95v-15z" />
    <glyph glyph-name=".notdef.026" unicode="&#x1ed2;" horiz-adv-x="1450" 
d="M725 -29q-144 0 -261 49.5t-199.5 136t-127.5 203.5t-45 252q0 137 45 254.5t127.5 204t199.5 135.5t261 49t261 -49t199 -135.5t126.5 -204t44.5 -254.5q0 -135 -44.5 -252t-126.5 -203.5t-199 -136t-261 -49.5zM725 82q120 0 215 42.5t161.5 114.5t102 168.5
t35.5 204.5q0 109 -35.5 206t-102 169.5t-161.5 115t-215 42.5q-121 0 -216.5 -42.5t-161.5 -115t-101 -169.5t-35 -206q0 -108 35 -204.5t101 -168.5t161.5 -114.5t216.5 -42.5zM721 1469l-120 -123h-51v14l133 176h75l133 -176v-14h-52zM780 1673v16h95l66 -200v-16h-48z
" />
    <glyph glyph-name=".notdef.092" unicode="&#x1ed3;" 
d="M840 350q0 -84 -30 -152t-82 -115.5t-122 -73t-149 -25.5t-148.5 25.5t-121 73t-81.5 115.5t-30 152q0 85 30 154.5t81.5 118.5t121 75.5t148.5 26.5t149 -26.5t122 -75.5t82 -118.5t30 -154.5zM457 78q54 0 103 18.5t86 54t59 86t22 115.5q0 64 -22 115.5t-59 88t-86 56
t-103 19.5t-102.5 -19.5t-85 -56t-58 -88t-21.5 -115.5q0 -65 21.5 -115.5t58 -86t85 -54t102.5 -18.5zM472 981l-120 -123h-51v14l133 176h75l133 -176v-14h-52zM531 1185v16h95l66 -200v-16h-48z" />
    <glyph glyph-name=".notdef.028" unicode="&#x1ed4;" horiz-adv-x="1450" 
d="M725 -29q-144 0 -261 49.5t-199.5 136t-127.5 203.5t-45 252q0 137 45 254.5t127.5 204t199.5 135.5t261 49t261 -49t199 -135.5t126.5 -204t44.5 -254.5q0 -135 -44.5 -252t-126.5 -203.5t-199 -136t-261 -49.5zM725 82q120 0 215 42.5t161.5 114.5t102 168.5
t35.5 204.5q0 109 -35.5 206t-102 169.5t-161.5 115t-215 42.5q-121 0 -216.5 -42.5t-161.5 -115t-101 -169.5t-35 -206q0 -108 35 -204.5t101 -168.5t161.5 -114.5t216.5 -42.5zM746 1469l-120 -123h-51v14l133 176h75l133 -176v-14h-52zM824 1696q10 17 24 31
q12 12 30.5 22t43.5 10q51 0 78 -30.5t22 -81.5q-3 -29 -19.5 -51.5t-35 -42.5t-34 -39t-15.5 -41h-35q-3 27 9 49t27.5 42t29 40t13.5 41q0 23 -12.5 39.5t-37.5 16.5q-17 0 -27.5 -6t-18.5 -13q-9 -8 -14 -18z" />
    <glyph glyph-name=".notdef.094" unicode="&#x1ed5;" 
d="M840 350q0 -84 -30 -152t-82 -115.5t-122 -73t-149 -25.5t-148.5 25.5t-121 73t-81.5 115.5t-30 152q0 85 30 154.5t81.5 118.5t121 75.5t148.5 26.5t149 -26.5t122 -75.5t82 -118.5t30 -154.5zM457 78q54 0 103 18.5t86 54t59 86t22 115.5q0 64 -22 115.5t-59 88t-86 56
t-103 19.5t-102.5 -19.5t-85 -56t-58 -88t-21.5 -115.5q0 -65 21.5 -115.5t58 -86t85 -54t102.5 -18.5zM472 981l-120 -123h-51v14l133 176h75l133 -176v-14h-52zM550 1208q10 17 24 31q12 12 30.5 22t43.5 10q51 0 78 -30.5t22 -81.5q-3 -29 -19.5 -51.5t-35 -42.5t-34 -39
t-15.5 -41h-35q-3 27 9 49t27.5 42t29 40t13.5 41q0 23 -12.5 39.5t-37.5 16.5q-17 0 -27.5 -6t-18.5 -13q-9 -8 -14 -18z" />
    <glyph glyph-name=".notdef.029" unicode="&#x1ed6;" horiz-adv-x="1450" 
d="M725 -29q-144 0 -261 49.5t-199.5 136t-127.5 203.5t-45 252q0 137 45 254.5t127.5 204t199.5 135.5t261 49t261 -49t199 -135.5t126.5 -204t44.5 -254.5q0 -135 -44.5 -252t-126.5 -203.5t-199 -136t-261 -49.5zM725 82q120 0 215 42.5t161.5 114.5t102 168.5
t35.5 204.5q0 109 -35.5 206t-102 169.5t-161.5 115t-215 42.5q-121 0 -216.5 -42.5t-161.5 -115t-101 -169.5t-35 -206q0 -108 35 -204.5t101 -168.5t161.5 -114.5t216.5 -42.5zM721 1469l-120 -123h-51v14l133 176h75l133 -176v-14h-52zM824 1591q-29 0 -54 11.5t-47.5 25
t-43.5 25t-42 11.5q-30 0 -41.5 -16.5t-17.5 -37.5l-6 -19l-57 6l6 32q4 19 11 37t20 31.5t31.5 21.5t45.5 8q28 0 53 -11t47.5 -24t43.5 -24t42 -11q30 0 43 15t18 38l4 17l57 -5l-5 -30q-4 -20 -11.5 -38t-20 -32t-31.5 -22.5t-45 -8.5z" />
    <glyph glyph-name=".notdef.095" unicode="&#x1ed7;" 
d="M840 350q0 -84 -30 -152t-82 -115.5t-122 -73t-149 -25.5t-148.5 25.5t-121 73t-81.5 115.5t-30 152q0 85 30 154.5t81.5 118.5t121 75.5t148.5 26.5t149 -26.5t122 -75.5t82 -118.5t30 -154.5zM457 78q54 0 103 18.5t86 54t59 86t22 115.5q0 64 -22 115.5t-59 88t-86 56
t-103 19.5t-102.5 -19.5t-85 -56t-58 -88t-21.5 -115.5q0 -65 21.5 -115.5t58 -86t85 -54t102.5 -18.5zM456 981l-120 -123h-51v14l133 176h75l133 -176v-14h-52zM559 1103q-29 0 -54 11.5t-47.5 25t-43.5 25t-42 11.5q-30 0 -41.5 -16.5t-17.5 -37.5l-6 -19l-57 6l6 32
q4 19 11 37t20 31.5t31.5 21.5t45.5 8q28 0 53 -11t47.5 -24t43.5 -24t42 -11q30 0 43 15t18 38l4 17l57 -5l-5 -30q-4 -20 -11.5 -38t-20 -32t-31.5 -22.5t-45 -8.5z" />
    <glyph glyph-name=".notdef.030" unicode="&#x1ed8;" horiz-adv-x="1450" 
d="M725 -29q-144 0 -261 49.5t-199.5 136t-127.5 203.5t-45 252q0 137 45 254.5t127.5 204t199.5 135.5t261 49t261 -49t199 -135.5t126.5 -204t44.5 -254.5q0 -135 -44.5 -252t-126.5 -203.5t-199 -136t-261 -49.5zM725 82q120 0 215 42.5t161.5 114.5t102 168.5
t35.5 204.5q0 109 -35.5 206t-102 169.5t-161.5 115t-215 42.5q-121 0 -216.5 -42.5t-161.5 -115t-101 -169.5t-35 -206q0 -108 35 -204.5t101 -168.5t161.5 -114.5t216.5 -42.5zM733 -250q-22 0 -37 14.5t-15 36.5q0 23 15 38t37 15t37 -15t15 -38q0 -22 -15 -36.5
t-37 -14.5zM721 1468l-120 -123h-51v14l133 176h75l133 -176v-14h-52z" />
    <glyph glyph-name=".notdef.096" unicode="&#x1ed9;" 
d="M840 350q0 -84 -30 -152t-82 -115.5t-122 -73t-149 -25.5t-148.5 25.5t-121 73t-81.5 115.5t-30 152q0 85 30 154.5t81.5 118.5t121 75.5t148.5 26.5t149 -26.5t122 -75.5t82 -118.5t30 -154.5zM457 78q54 0 103 18.5t86 54t59 86t22 115.5q0 64 -22 115.5t-59 88t-86 56
t-103 19.5t-102.5 -19.5t-85 -56t-58 -88t-21.5 -115.5q0 -65 21.5 -115.5t58 -86t85 -54t102.5 -18.5zM452 981l-120 -123h-51v14l133 176h75l133 -176v-14h-52zM464 -250q-22 0 -37 14.5t-15 36.5q0 23 15 38t37 15t37 -15t15 -38q0 -22 -15 -36.5t-37 -14.5z" />
    <glyph glyph-name=".notdef.008" unicode="&#x1eb8;" horiz-adv-x="1153" 
d="M979 551h-680v-442h772v-109h-889v1229h889v-109h-772v-461h680v-108zM630 -250q-22 0 -37 14.5t-15 36.5q0 23 15 38t37 15t37 -15t15 -38q0 -22 -15 -36.5t-37 -14.5z" />
    <glyph glyph-name=".notdef.074" unicode="&#x1eb9;" horiz-adv-x="852" 
d="M735 61q-29 -22 -68 -40q-34 -15 -82.5 -27t-113.5 -12q-87 0 -160 26.5t-125 75.5t-81 117t-29 151t27 151.5t75 118t115 76.5t147 27q83 0 147.5 -26.5t108.5 -73.5t67 -111t23 -139v-39h-596q3 -63 26.5 -111t62 -81t88.5 -49.5t106 -16.5q53 0 93.5 9.5t69.5 21.5
q33 14 58 32zM438 631q-46 0 -86 -13.5t-71.5 -40t-53 -65t-30.5 -88.5h477q-6 44 -24 82t-48 65.5t-71.5 43.5t-92.5 16zM447 -250q-22 0 -37 14.5t-15 36.5q0 23 15 38t37 15t37 -15t15 -38q0 -22 -15 -36.5t-37 -14.5z" />
    <glyph glyph-name=".notdef.006" unicode="&#x1eba;" horiz-adv-x="1153" 
d="M979 551h-680v-442h772v-109h-889v1229h889v-109h-772v-461h680v-108zM556 1575q10 17 24 31q12 12 30.5 22t43.5 10q51 0 78 -30.5t22 -81.5q-3 -29 -19.5 -51.5t-35 -42.5t-34 -39t-15.5 -41h-35q-3 27 9 49t27.5 42t29 40t13.5 41q0 23 -12.5 39.5t-37.5 16.5
q-17 0 -27.5 -6t-18.5 -13q-9 -8 -14 -18z" />
    <glyph glyph-name=".notdef.072" unicode="&#x1ebb;" horiz-adv-x="852" 
d="M735 61q-29 -22 -68 -40q-34 -15 -82.5 -27t-113.5 -12q-87 0 -160 26.5t-125 75.5t-81 117t-29 151t27 151.5t75 118t115 76.5t147 27q83 0 147.5 -26.5t108.5 -73.5t67 -111t23 -139v-39h-596q3 -63 26.5 -111t62 -81t88.5 -49.5t106 -16.5q53 0 93.5 9.5t69.5 21.5
q33 14 58 32zM438 631q-46 0 -86 -13.5t-71.5 -40t-53 -65t-30.5 -88.5h477q-6 44 -24 82t-48 65.5t-71.5 43.5t-92.5 16zM346 1080q10 17 24 31q12 12 30.5 22t43.5 10q51 0 78 -30.5t22 -81.5q-3 -29 -19.5 -51.5t-35 -42.5t-34 -39t-15.5 -41h-35q-3 27 9 49t27.5 42
t29 40t13.5 41q0 23 -12.5 39.5t-37.5 16.5q-17 0 -27.5 -6t-18.5 -13q-9 -8 -14 -18z" />
    <glyph glyph-name=".notdef.007" unicode="&#x1ebc;" horiz-adv-x="1153" 
d="M979 551h-680v-442h772v-109h-889v1229h889v-109h-772v-461h680v-108zM729 1351q-29 0 -54 11.5t-47.5 25t-43.5 25t-42 11.5q-30 0 -41.5 -16.5t-17.5 -37.5l-6 -19l-57 6l6 32q4 19 11 37t20 31.5t31.5 21.5t45.5 8q28 0 53 -11t47.5 -24t43.5 -24t42 -11q30 0 43 15
t18 38l4 17l57 -5l-5 -30q-4 -20 -11.5 -38t-20 -32t-31.5 -22.5t-45 -8.5z" />
    <glyph glyph-name=".notdef.073" unicode="&#x1ebd;" horiz-adv-x="852" 
d="M735 61q-29 -22 -68 -40q-34 -15 -82.5 -27t-113.5 -12q-87 0 -160 26.5t-125 75.5t-81 117t-29 151t27 151.5t75 118t115 76.5t147 27q83 0 147.5 -26.5t108.5 -73.5t67 -111t23 -139v-39h-596q3 -63 26.5 -111t62 -81t88.5 -49.5t106 -16.5q53 0 93.5 9.5t69.5 21.5
q33 14 58 32zM438 631q-46 0 -86 -13.5t-71.5 -40t-53 -65t-30.5 -88.5h477q-6 44 -24 82t-48 65.5t-71.5 43.5t-92.5 16zM563 856q-29 0 -54 11.5t-47.5 25t-43.5 25t-42 11.5q-30 0 -41.5 -16.5t-17.5 -37.5l-6 -19l-57 6l6 32q4 19 11 37t20 31.5t31.5 21.5t45.5 8
q28 0 53 -11t47.5 -24t43.5 -24t42 -11q30 0 43 15t18 38l4 17l57 -5l-5 -30q-4 -20 -11.5 -38t-20 -32t-31.5 -22.5t-45 -8.5z" />
    <glyph glyph-name=".notdef.011" unicode="&#x1ebe;" horiz-adv-x="1153" 
d="M979 551h-680v-442h772v-109h-889v1229h889v-109h-772v-461h680v-108zM644 1469l-120 -123h-51v14l133 176h75l133 -176v-14h-52zM860 1482h-48v15l66 200h95v-15z" />
    <glyph glyph-name=".notdef.077" unicode="&#x1ebf;" horiz-adv-x="852" 
d="M735 61q-29 -22 -68 -40q-34 -15 -82.5 -27t-113.5 -12q-87 0 -160 26.5t-125 75.5t-81 117t-29 151t27 151.5t75 118t115 76.5t147 27q83 0 147.5 -26.5t108.5 -73.5t67 -111t23 -139v-39h-596q3 -63 26.5 -111t62 -81t88.5 -49.5t106 -16.5q53 0 93.5 9.5t69.5 21.5
q33 14 58 32zM438 631q-46 0 -86 -13.5t-71.5 -40t-53 -65t-30.5 -88.5h477q-6 44 -24 82t-48 65.5t-71.5 43.5t-92.5 16zM447 981l-120 -123h-51v14l133 176h75l133 -176v-14h-52zM663 994h-48v15l66 200h95v-15z" />
    <glyph glyph-name=".notdef.010" unicode="&#x1ec0;" horiz-adv-x="1153" 
d="M979 551h-680v-442h772v-109h-889v1229h889v-109h-772v-461h680v-108zM623 1469l-120 -123h-51v14l133 176h75l133 -176v-14h-52zM682 1673v16h95l66 -200v-16h-48z" />
    <glyph glyph-name=".notdef.076" unicode="&#x1ec1;" horiz-adv-x="852" 
d="M735 61q-29 -22 -68 -40q-34 -15 -82.5 -27t-113.5 -12q-87 0 -160 26.5t-125 75.5t-81 117t-29 151t27 151.5t75 118t115 76.5t147 27q83 0 147.5 -26.5t108.5 -73.5t67 -111t23 -139v-39h-596q3 -63 26.5 -111t62 -81t88.5 -49.5t106 -16.5q53 0 93.5 9.5t69.5 21.5
q33 14 58 32zM438 631q-46 0 -86 -13.5t-71.5 -40t-53 -65t-30.5 -88.5h477q-6 44 -24 82t-48 65.5t-71.5 43.5t-92.5 16zM439 981l-120 -123h-51v14l133 176h75l133 -176v-14h-52zM498 1185v16h95l66 -200v-16h-48z" />
    <glyph glyph-name=".notdef.012" unicode="&#x1ec2;" horiz-adv-x="1153" 
d="M979 551h-680v-442h772v-109h-889v1229h889v-109h-772v-461h680v-108zM617 1469l-120 -123h-51v14l133 176h75l133 -176v-14h-52zM695 1696q10 17 24 31q12 12 30.5 22t43.5 10q51 0 78 -30.5t22 -81.5q-3 -29 -19.5 -51.5t-35 -42.5t-34 -39t-15.5 -41h-35q-3 27 9 49
t27.5 42t29 40t13.5 41q0 23 -12.5 39.5t-37.5 16.5q-17 0 -27.5 -6t-18.5 -13q-9 -8 -14 -18z" />
    <glyph glyph-name=".notdef.078" unicode="&#x1ec3;" horiz-adv-x="852" 
d="M735 61q-29 -22 -68 -40q-34 -15 -82.5 -27t-113.5 -12q-87 0 -160 26.5t-125 75.5t-81 117t-29 151t27 151.5t75 118t115 76.5t147 27q83 0 147.5 -26.5t108.5 -73.5t67 -111t23 -139v-39h-596q3 -63 26.5 -111t62 -81t88.5 -49.5t106 -16.5q53 0 93.5 9.5t69.5 21.5
q33 14 58 32zM438 631q-46 0 -86 -13.5t-71.5 -40t-53 -65t-30.5 -88.5h477q-6 44 -24 82t-48 65.5t-71.5 43.5t-92.5 16zM447 981l-120 -123h-51v14l133 176h75l133 -176v-14h-52zM525 1208q10 17 24 31q12 12 30.5 22t43.5 10q51 0 78 -30.5t22 -81.5q-3 -29 -19.5 -51.5
t-35 -42.5t-34 -39t-15.5 -41h-35q-3 27 9 49t27.5 42t29 40t13.5 41q0 23 -12.5 39.5t-37.5 16.5q-17 0 -27.5 -6t-18.5 -13q-9 -8 -14 -18z" />
    <glyph glyph-name=".notdef.013" unicode="&#x1ec4;" horiz-adv-x="1153" 
d="M979 551h-680v-442h772v-109h-889v1229h889v-109h-772v-461h680v-108zM617 1469l-120 -123h-51v14l133 176h75l133 -176v-14h-52zM720 1591q-29 0 -54 11.5t-47.5 25t-43.5 25t-42 11.5q-30 0 -41.5 -16.5t-17.5 -37.5l-6 -19l-57 6l6 32q4 19 11 37t20 31.5t31.5 21.5
t45.5 8q28 0 53 -11t47.5 -24t43.5 -24t42 -11q30 0 43 15t18 38l4 17l57 -5l-5 -30q-4 -20 -11.5 -38t-20 -32t-31.5 -22.5t-45 -8.5z" />
    <glyph glyph-name=".notdef.079" unicode="&#x1ec5;" horiz-adv-x="852" 
d="M735 61q-29 -22 -68 -40q-34 -15 -82.5 -27t-113.5 -12q-87 0 -160 26.5t-125 75.5t-81 117t-29 151t27 151.5t75 118t115 76.5t147 27q83 0 147.5 -26.5t108.5 -73.5t67 -111t23 -139v-39h-596q3 -63 26.5 -111t62 -81t88.5 -49.5t106 -16.5q53 0 93.5 9.5t69.5 21.5
q33 14 58 32zM438 631q-46 0 -86 -13.5t-71.5 -40t-53 -65t-30.5 -88.5h477q-6 44 -24 82t-48 65.5t-71.5 43.5t-92.5 16zM439 981l-120 -123h-51v14l133 176h75l133 -176v-14h-52zM542 1103q-29 0 -54 11.5t-47.5 25t-43.5 25t-42 11.5q-30 0 -41.5 -16.5t-17.5 -37.5
l-6 -19l-57 6l6 32q4 19 11 37t20 31.5t31.5 21.5t45.5 8q28 0 53 -11t47.5 -24t43.5 -24t42 -11q30 0 43 15t18 38l4 17l57 -5l-5 -30q-4 -20 -11.5 -38t-20 -32t-31.5 -22.5t-45 -8.5z" />
    <glyph glyph-name=".notdef.014" unicode="&#x1ec6;" horiz-adv-x="1153" 
d="M979 551h-680v-442h772v-109h-889v1229h889v-109h-772v-461h680v-108zM647 -250q-22 0 -37 14.5t-15 36.5q0 23 15 38t37 15t37 -15t15 -38q0 -22 -15 -36.5t-37 -14.5zM646 1468l-120 -123h-51v14l133 176h75l133 -176v-14h-52z" />
    <glyph glyph-name=".notdef.080" unicode="&#x1ec7;" horiz-adv-x="852" 
d="M735 61q-29 -22 -68 -40q-34 -15 -82.5 -27t-113.5 -12q-87 0 -160 26.5t-125 75.5t-81 117t-29 151t27 151.5t75 118t115 76.5t147 27q83 0 147.5 -26.5t108.5 -73.5t67 -111t23 -139v-39h-596q3 -63 26.5 -111t62 -81t88.5 -49.5t106 -16.5q53 0 93.5 9.5t69.5 21.5
q33 14 58 32zM438 631q-46 0 -86 -13.5t-71.5 -40t-53 -65t-30.5 -88.5h477q-6 44 -24 82t-48 65.5t-71.5 43.5t-92.5 16zM435 981l-120 -123h-51v14l133 176h75l133 -176v-14h-52zM447 -286q-22 0 -37 14.5t-15 36.5q0 23 15 38t37 15t37 -15t15 -38q0 -22 -15 -36.5
t-37 -14.5z" />
    <glyph glyph-name=".notdef.035" unicode="&#x1ee4;" horiz-adv-x="1346" 
d="M672 -29q-121 0 -215.5 39t-159.5 110t-99 170.5t-34 221.5v717h117v-717q0 -95 25 -174t74 -136t122 -88.5t170 -31.5q98 0 172 31.5t123 88.5t73.5 136t24.5 174v717h115v-717q0 -122 -33.5 -221.5t-98.5 -170.5t-159.5 -110t-216.5 -39zM681 -250q-22 0 -37 14.5
t-15 36.5q0 23 15 38t37 15t37 -15t15 -38q0 -22 -15 -36.5t-37 -14.5z" />
    <glyph glyph-name=".notdef.101" unicode="&#x1ee5;" horiz-adv-x="924" 
d="M682 709h115v-709h-76l-21 113h-6q-4 -8 -20 -29t-47.5 -43.5t-81.5 -39.5t-121 -17q-75 0 -132 24t-96 66.5t-59 102.5t-20 132v400h114v-385q0 -53 13 -97t40 -76.5t68 -50.5t97 -18q61 0 105 21t72.5 52t42 67t13.5 67v420zM447 -250q-22 0 -37 14.5t-15 36.5
q0 23 15 38t37 15t37 -15t15 -38q0 -22 -15 -36.5t-37 -14.5z" />
    <glyph glyph-name=".notdef.033" unicode="&#x1ee6;" horiz-adv-x="1346" 
d="M672 -29q-121 0 -215.5 39t-159.5 110t-99 170.5t-34 221.5v717h117v-717q0 -95 25 -174t74 -136t122 -88.5t170 -31.5q98 0 172 31.5t123 88.5t73.5 136t24.5 174v717h115v-717q0 -122 -33.5 -221.5t-98.5 -170.5t-159.5 -110t-216.5 -39zM585 1575q10 17 24 31
q12 12 30.5 22t43.5 10q51 0 78 -30.5t22 -81.5q-3 -29 -19.5 -51.5t-35 -42.5t-34 -39t-15.5 -41h-35q-3 27 9 49t27.5 42t29 40t13.5 41q0 23 -12.5 39.5t-37.5 16.5q-17 0 -27.5 -6t-18.5 -13q-9 -8 -14 -18z" />
    <glyph glyph-name=".notdef.099" unicode="&#x1ee7;" horiz-adv-x="924" 
d="M682 709h115v-709h-76l-21 113h-6q-4 -8 -20 -29t-47.5 -43.5t-81.5 -39.5t-121 -17q-75 0 -132 24t-96 66.5t-59 102.5t-20 132v400h114v-385q0 -53 13 -97t40 -76.5t68 -50.5t97 -18q61 0 105 21t72.5 52t42 67t13.5 67v420zM370 1080q10 17 24 31q12 12 30.5 22
t43.5 10q51 0 78 -30.5t22 -81.5q-3 -29 -19.5 -51.5t-35 -42.5t-34 -39t-15.5 -41h-35q-3 27 9 49t27.5 42t29 40t13.5 41q0 23 -12.5 39.5t-37.5 16.5q-17 0 -27.5 -6t-18.5 -13q-9 -8 -14 -18z" />
    <glyph glyph-name=".notdef.044" unicode="&#x1eda;" horiz-adv-x="1450" 
d="M1122 1327q0 30 20 50t51 20q30 0 48.5 -20.5t23.5 -51.5q6 -35 -7 -61.5t-27 -44.5l-88 -109q102 -88 157.5 -216t55.5 -282q0 -135 -44.5 -252t-126.5 -203.5t-199 -136t-261 -49.5t-261 49.5t-199.5 136t-127.5 203.5t-45 252q0 137 45 254.5t127.5 204t199.5 135.5
t261 49q115 0 212.5 -31.5t174.5 -88.5l52 91q7 13 14 20l6 6v6q-28 4 -45 22.5t-17 46.5zM725 82q120 0 215 42.5t161.5 114.5t102 168.5t35.5 204.5q0 109 -35.5 206t-102 169.5t-161.5 115t-215 42.5q-121 0 -216.5 -42.5t-161.5 -115t-101 -169.5t-35 -206
q0 -108 35 -204.5t101 -168.5t161.5 -114.5t216.5 -42.5zM745 1352h-48v15l66 200h95v-15z" />
    <glyph glyph-name=".notdef.110" unicode="&#x1edb;" 
d="M712 787q0 26 17 42.5t43 16.5q25 0 40 -17t20 -43q5 -29 -5.5 -51t-23.5 -37l-67 -84q48 -49 76 -115.5t28 -148.5q0 -84 -30 -152t-82 -115.5t-122 -73t-149 -25.5t-148.5 25.5t-121 73t-81.5 115.5t-30 152q0 85 30 154.5t81.5 118.5t121 75.5t148.5 26.5
q73 0 137.5 -22.5t115.5 -64.5l37 65q3 5 6.5 9.5t5.5 7.5q3 4 6 5v5q-23 3 -38 18.5t-15 38.5zM457 78q54 0 103 18.5t86 54t59 86t22 115.5q0 64 -22 115.5t-59 88t-86 56t-103 19.5t-102.5 -19.5t-85 -56t-58 -88t-21.5 -115.5q0 -65 21.5 -115.5t58 -86t85 -54
t102.5 -18.5zM497 858h-48v15l66 200h95v-15z" />
    <glyph glyph-name=".notdef.043" unicode="&#x1edc;" horiz-adv-x="1450" 
d="M1122 1327q0 30 20 50t51 20q30 0 48.5 -20.5t23.5 -51.5q6 -35 -7 -61.5t-27 -44.5l-88 -109q102 -88 157.5 -216t55.5 -282q0 -135 -44.5 -252t-126.5 -203.5t-199 -136t-261 -49.5t-261 49.5t-199.5 136t-127.5 203.5t-45 252q0 137 45 254.5t127.5 204t199.5 135.5
t261 49q115 0 212.5 -31.5t174.5 -88.5l52 91q7 13 14 20l6 6v6q-28 4 -45 22.5t-17 46.5zM725 82q120 0 215 42.5t161.5 114.5t102 168.5t35.5 204.5q0 109 -35.5 206t-102 169.5t-161.5 115t-215 42.5q-121 0 -216.5 -42.5t-161.5 -115t-101 -169.5t-35 -206
q0 -108 35 -204.5t101 -168.5t161.5 -114.5t216.5 -42.5zM576 1552v16h95l66 -200v-16h-48z" />
    <glyph glyph-name=".notdef.109" unicode="&#x1edd;" 
d="M712 787q0 26 17 42.5t43 16.5q25 0 40 -17t20 -43q5 -29 -5.5 -51t-23.5 -37l-67 -84q48 -49 76 -115.5t28 -148.5q0 -84 -30 -152t-82 -115.5t-122 -73t-149 -25.5t-148.5 25.5t-121 73t-81.5 115.5t-30 152q0 85 30 154.5t81.5 118.5t121 75.5t148.5 26.5
q73 0 137.5 -22.5t115.5 -64.5l37 65q3 5 6.5 9.5t5.5 7.5q3 4 6 5v5q-23 3 -38 18.5t-15 38.5zM457 78q54 0 103 18.5t86 54t59 86t22 115.5q0 64 -22 115.5t-59 88t-86 56t-103 19.5t-102.5 -19.5t-85 -56t-58 -88t-21.5 -115.5q0 -65 21.5 -115.5t58 -86t85 -54
t102.5 -18.5zM336 1058v16h95l66 -200v-16h-48z" />
    <glyph glyph-name=".notdef.045" unicode="&#x1ede;" horiz-adv-x="1450" 
d="M1122 1327q0 30 20 50t51 20q30 0 48.5 -20.5t23.5 -51.5q6 -35 -7 -61.5t-27 -44.5l-88 -109q102 -88 157.5 -216t55.5 -282q0 -135 -44.5 -252t-126.5 -203.5t-199 -136t-261 -49.5t-261 49.5t-199.5 136t-127.5 203.5t-45 252q0 137 45 254.5t127.5 204t199.5 135.5
t261 49q115 0 212.5 -31.5t174.5 -88.5l52 91q7 13 14 20l6 6v6q-28 4 -45 22.5t-17 46.5zM725 82q120 0 215 42.5t161.5 114.5t102 168.5t35.5 204.5q0 109 -35.5 206t-102 169.5t-161.5 115t-215 42.5q-121 0 -216.5 -42.5t-161.5 -115t-101 -169.5t-35 -206
q0 -108 35 -204.5t101 -168.5t161.5 -114.5t216.5 -42.5zM635 1575q10 17 24 31q12 12 30.5 22t43.5 10q51 0 78 -30.5t22 -81.5q-3 -29 -19.5 -51.5t-35 -42.5t-34 -39t-15.5 -41h-35q-3 27 9 49t27.5 42t29 40t13.5 41q0 23 -12.5 39.5t-37.5 16.5q-17 0 -27.5 -6
t-18.5 -13q-9 -8 -14 -18z" />
    <glyph glyph-name=".notdef.111" unicode="&#x1edf;" 
d="M712 787q0 26 17 42.5t43 16.5q25 0 40 -17t20 -43q5 -29 -5.5 -51t-23.5 -37l-67 -84q48 -49 76 -115.5t28 -148.5q0 -84 -30 -152t-82 -115.5t-122 -73t-149 -25.5t-148.5 25.5t-121 73t-81.5 115.5t-30 152q0 85 30 154.5t81.5 118.5t121 75.5t148.5 26.5
q73 0 137.5 -22.5t115.5 -64.5l37 65q3 5 6.5 9.5t5.5 7.5q3 4 6 5v5q-23 3 -38 18.5t-15 38.5zM457 78q54 0 103 18.5t86 54t59 86t22 115.5q0 64 -22 115.5t-59 88t-86 56t-103 19.5t-102.5 -19.5t-85 -56t-58 -88t-21.5 -115.5q0 -65 21.5 -115.5t58 -86t85 -54
t102.5 -18.5zM387 1080q10 17 24 31q12 12 30.5 22t43.5 10q51 0 78 -30.5t22 -81.5q-3 -29 -19.5 -51.5t-35 -42.5t-34 -39t-15.5 -41h-35q-3 27 9 49t27.5 42t29 40t13.5 41q0 23 -12.5 39.5t-37.5 16.5q-17 0 -27.5 -6t-18.5 -13q-9 -8 -14 -18z" />
    <glyph glyph-name=".notdef.046" unicode="&#x1ee0;" horiz-adv-x="1450" 
d="M1122 1327q0 30 20 50t51 20q30 0 48.5 -20.5t23.5 -51.5q6 -35 -7 -61.5t-27 -44.5l-88 -109q102 -88 157.5 -216t55.5 -282q0 -135 -44.5 -252t-126.5 -203.5t-199 -136t-261 -49.5t-261 49.5t-199.5 136t-127.5 203.5t-45 252q0 137 45 254.5t127.5 204t199.5 135.5
t261 49q115 0 212.5 -31.5t174.5 -88.5l52 91q7 13 14 20l6 6v6q-28 4 -45 22.5t-17 46.5zM725 82q120 0 215 42.5t161.5 114.5t102 168.5t35.5 204.5q0 109 -35.5 206t-102 169.5t-161.5 115t-215 42.5q-121 0 -216.5 -42.5t-161.5 -115t-101 -169.5t-35 -206
q0 -108 35 -204.5t101 -168.5t161.5 -114.5t216.5 -42.5zM829 1351q-29 0 -54 11.5t-47.5 25t-43.5 25t-42 11.5q-30 0 -41.5 -16.5t-17.5 -37.5l-6 -19l-57 6l6 32q4 19 11 37t20 31.5t31.5 21.5t45.5 8q28 0 53 -11t47.5 -24t43.5 -24t42 -11q30 0 43 15t18 38l4 17l57 -5
l-5 -30q-4 -20 -11.5 -38t-20 -32t-31.5 -22.5t-45 -8.5z" />
    <glyph glyph-name=".notdef.112" unicode="&#x1ee1;" 
d="M712 787q0 26 17 42.5t43 16.5q25 0 40 -17t20 -43q5 -29 -5.5 -51t-23.5 -37l-67 -84q48 -49 76 -115.5t28 -148.5q0 -84 -30 -152t-82 -115.5t-122 -73t-149 -25.5t-148.5 25.5t-121 73t-81.5 115.5t-30 152q0 85 30 154.5t81.5 118.5t121 75.5t148.5 26.5
q73 0 137.5 -22.5t115.5 -64.5l37 65q3 5 6.5 9.5t5.5 7.5q3 4 6 5v5q-23 3 -38 18.5t-15 38.5zM457 78q54 0 103 18.5t86 54t59 86t22 115.5q0 64 -22 115.5t-59 88t-86 56t-103 19.5t-102.5 -19.5t-85 -56t-58 -88t-21.5 -115.5q0 -65 21.5 -115.5t58 -86t85 -54
t102.5 -18.5zM563 856q-29 0 -54 11.5t-47.5 25t-43.5 25t-42 11.5q-30 0 -41.5 -16.5t-17.5 -37.5l-6 -19l-57 6l6 32q4 19 11 37t20 31.5t31.5 21.5t45.5 8q28 0 53 -11t47.5 -24t43.5 -24t42 -11q30 0 43 15t18 38l4 17l57 -5l-5 -30q-4 -20 -11.5 -38t-20 -32
t-31.5 -22.5t-45 -8.5z" />
    <glyph glyph-name=".notdef.047" unicode="&#x1ee2;" horiz-adv-x="1450" 
d="M1122 1327q0 30 20 50t51 20q30 0 48.5 -20.5t23.5 -51.5q6 -35 -7 -61.5t-27 -44.5l-88 -109q102 -88 157.5 -216t55.5 -282q0 -135 -44.5 -252t-126.5 -203.5t-199 -136t-261 -49.5t-261 49.5t-199.5 136t-127.5 203.5t-45 252q0 137 45 254.5t127.5 204t199.5 135.5
t261 49q115 0 212.5 -31.5t174.5 -88.5l52 91q7 13 14 20l6 6v6q-28 4 -45 22.5t-17 46.5zM725 82q120 0 215 42.5t161.5 114.5t102 168.5t35.5 204.5q0 109 -35.5 206t-102 169.5t-161.5 115t-215 42.5q-121 0 -216.5 -42.5t-161.5 -115t-101 -169.5t-35 -206
q0 -108 35 -204.5t101 -168.5t161.5 -114.5t216.5 -42.5zM730 -250q-22 0 -37 14.5t-15 36.5q0 23 15 38t37 15t37 -15t15 -38q0 -22 -15 -36.5t-37 -14.5z" />
    <glyph glyph-name=".notdef.113" unicode="&#x1ee3;" 
d="M712 787q0 26 17 42.5t43 16.5q25 0 40 -17t20 -43q5 -29 -5.5 -51t-23.5 -37l-67 -84q48 -49 76 -115.5t28 -148.5q0 -84 -30 -152t-82 -115.5t-122 -73t-149 -25.5t-148.5 25.5t-121 73t-81.5 115.5t-30 152q0 85 30 154.5t81.5 118.5t121 75.5t148.5 26.5
q73 0 137.5 -22.5t115.5 -64.5l37 65q3 5 6.5 9.5t5.5 7.5q3 4 6 5v5q-23 3 -38 18.5t-15 38.5zM457 78q54 0 103 18.5t86 54t59 86t22 115.5q0 64 -22 115.5t-59 88t-86 56t-103 19.5t-102.5 -19.5t-85 -56t-58 -88t-21.5 -115.5q0 -65 21.5 -115.5t58 -86t85 -54
t102.5 -18.5zM456 -250q-22 0 -37 14.5t-15 36.5q0 23 15 38t37 15t37 -15t15 -38q0 -22 -15 -36.5t-37 -14.5z" />
    <glyph glyph-name=".notdef.004" unicode="&#x1eb6;" horiz-adv-x="1243" 
d="M606 1229h29l600 -1229h-133l-117 233h-727l-117 -233h-131zM629 991h-17l-286 -624l-13 -23h617l-12 23zM614 -250q-22 0 -37 14.5t-15 36.5q0 23 15 38t37 15t37 -15t15 -38q0 -22 -15 -36.5t-37 -14.5zM810 1548q0 -43 -14.5 -79t-39.5 -62t-60 -40.5t-75 -14.5
t-74.5 14.5t-59.5 40.5t-39 62t-14 79h67q0 -60 33.5 -95t86.5 -35q54 -1 87.5 34.5t33.5 95.5h68z" />
    <glyph glyph-name=".notdef.091" unicode="&#x1eb7;" horiz-adv-x="864" 
d="M61 211q0 45 19 84.5t58.5 69t99.5 46.5t141 17q55 0 97 -8t72.5 -19.5t50 -23.5t30.5 -21h10v52q0 51 -14 91.5t-44 69t-78 43.5t-116 15q-51 0 -89.5 -9t-66.5 -20q-33 -13 -57 -29l-43 88q27 19 67 34q35 13 87 23.5t125 10.5q92 0 156.5 -25.5t105.5 -70t59.5 -105
t18.5 -131.5v-393h-82l-13 92h-8q-6 -9 -24 -27t-51.5 -36t-84.5 -31.5t-122 -13.5q-78 0 -135.5 18t-95 49t-55.5 72.5t-18 87.5zM176 211q0 -29 12.5 -55t38.5 -45t66 -30t94 -11t99.5 14.5t78.5 36t51.5 47t18.5 47.5q0 29 -19.5 53.5t-53 42t-79 27.5t-96.5 10
q-105 0 -158 -37.5t-53 -99.5zM617 1053q0 -43 -14.5 -79t-39.5 -62t-60 -40.5t-75 -14.5t-74.5 14.5t-59.5 40.5t-39 62t-14 79h67q0 -60 33.5 -95t86.5 -35q54 -1 87.5 34.5t33.5 95.5h68zM411 -250q-22 0 -37 14.5t-15 36.5q0 23 15 38t37 15t37 -15t15 -38
q0 -22 -15 -36.5t-37 -14.5z" />
    <glyph glyph-name="nonmarkingreturn" unicode="&#xd;" horiz-adv-x="506" 
 />
    <glyph glyph-name="_15" horiz-adv-x="1024" 
d="M272 1058v16h95l66 -200v-16h-48z" />
    <glyph glyph-name="_14" horiz-adv-x="1024" 
d="M437 858h-48v15l66 200h95v-15z" />
    <glyph glyph-name="_16" horiz-adv-x="1024" 
d="M346 1072q10 17 24 31q12 12 30.5 22t43.5 10q51 0 78 -30.5t22 -81.5q-3 -29 -19.5 -51.5t-35 -42.5t-34 -39t-15.5 -41h-35q-3 27 9 49t27.5 42t29 40t13.5 41q0 23 -12.5 39.5t-37.5 16.5q-17 0 -27.5 -6t-18.5 -13q-9 -8 -14 -18z" />
    <glyph glyph-name="_12" horiz-adv-x="1024" 
d="M646 1468l-120 -123h-51v14l133 176h75l133 -176v-14h-52z" />
    <glyph glyph-name="_17" horiz-adv-x="1024" 
d="M516 939q-29 0 -54 11.5t-47.5 25t-43.5 25t-42 11.5q-30 0 -41.5 -16.5t-17.5 -37.5l-6 -19l-57 6l6 32q4 19 11 37t20 31.5t31.5 21.5t45.5 8q28 0 53 -11t47.5 -24t43.5 -24t42 -11q30 0 43 15t18 38l4 17l57 -5l-5 -30q-4 -20 -11.5 -38t-20 -32t-31.5 -22.5
t-45 -8.5z" />
    <glyph glyph-name="_19" horiz-adv-x="1024" 
d="M413 981l-120 -123h-51v14l133 176h75l133 -176v-14h-52zM629 994h-48v15l66 200h95v-15z" />
    <glyph glyph-name="_20" horiz-adv-x="1024" 
d="M644 1469l-120 -123h-51v14l133 176h75l133 -176v-14h-52zM860 1482h-48v15l66 200h95v-15z" />
    <glyph glyph-name=".notdef.126" unicode="&#x1ea6;" horiz-adv-x="1243" 
d="M606 1229h29l600 -1229h-133l-117 233h-727l-117 -233h-131zM629 991h-17l-286 -624l-13 -23h617l-12 23zM623 1469l-120 -123h-51v14l133 176h75l133 -176v-14h-52zM682 1673v16h95l66 -200v-16h-48z" />
    <glyph glyph-name=".notdef.128" unicode="&#x1ea8;" horiz-adv-x="1243" 
d="M606 1229h29l600 -1229h-133l-117 233h-727l-117 -233h-131zM629 991h-17l-286 -624l-13 -23h617l-12 23zM617 1469l-120 -123h-51v14l133 176h75l133 -176v-14h-52zM695 1696q10 17 24 31q12 12 30.5 22t43.5 10q51 0 78 -30.5t22 -81.5q-3 -29 -19.5 -51.5t-35 -42.5
t-34 -39t-15.5 -41h-35q-3 27 9 49t27.5 42t29 40t13.5 41q0 23 -12.5 39.5t-37.5 16.5q-17 0 -27.5 -6t-18.5 -13q-9 -8 -14 -18z" />
    <glyph glyph-name="_21" horiz-adv-x="1024" 
d="M413 981l-120 -123h-51v14l133 176h75l133 -176v-14h-52zM472 1185v16h95l66 -200v-16h-48z" />
    <glyph glyph-name="_22" horiz-adv-x="1024" 
d="M623 1469l-120 -123h-51v14l133 176h75l133 -176v-14h-52zM682 1673v16h95l66 -200v-16h-48z" />
    <glyph glyph-name="_23" horiz-adv-x="1024" 
d="M413 981l-120 -123h-51v14l133 176h75l133 -176v-14h-52zM491 1208q10 17 24 31q12 12 30.5 22t43.5 10q51 0 78 -30.5t22 -81.5q-3 -29 -19.5 -51.5t-35 -42.5t-34 -39t-15.5 -41h-35q-3 27 9 49t27.5 42t29 40t13.5 41q0 23 -12.5 39.5t-37.5 16.5q-17 0 -27.5 -6
t-18.5 -13q-9 -8 -14 -18z" />
    <glyph glyph-name="_24" horiz-adv-x="1024" 
d="M617 1469l-120 -123h-51v14l133 176h75l133 -176v-14h-52zM695 1696q10 17 24 31q12 12 30.5 22t43.5 10q51 0 78 -30.5t22 -81.5q-3 -29 -19.5 -51.5t-35 -42.5t-34 -39t-15.5 -41h-35q-3 27 9 49t27.5 42t29 40t13.5 41q0 23 -12.5 39.5t-37.5 16.5q-17 0 -27.5 -6
t-18.5 -13q-9 -8 -14 -18z" />
    <glyph glyph-name="_25" horiz-adv-x="1024" 
d="M413 981l-120 -123h-51v14l133 176h75l133 -176v-14h-52zM516 1103q-29 0 -54 11.5t-47.5 25t-43.5 25t-42 11.5q-30 0 -41.5 -16.5t-17.5 -37.5l-6 -19l-57 6l6 32q4 19 11 37t20 31.5t31.5 21.5t45.5 8q28 0 53 -11t47.5 -24t43.5 -24t42 -11q30 0 43 15t18 38l4 17
l57 -5l-5 -30q-4 -20 -11.5 -38t-20 -32t-31.5 -22.5t-45 -8.5z" />
    <glyph glyph-name=".notdef.129" unicode="&#x1eaa;" horiz-adv-x="1243" 
d="M606 1229h29l600 -1229h-133l-117 233h-727l-117 -233h-131zM629 991h-17l-286 -624l-13 -23h617l-12 23zM617 1469l-120 -123h-51v14l133 176h75l133 -176v-14h-52zM720 1591q-29 0 -54 11.5t-47.5 25t-43.5 25t-42 11.5q-30 0 -41.5 -16.5t-17.5 -37.5l-6 -19l-57 6
l6 32q4 19 11 37t20 31.5t31.5 21.5t45.5 8q28 0 53 -11t47.5 -24t43.5 -24t42 -11q30 0 43 15t18 38l4 17l57 -5l-5 -30q-4 -20 -11.5 -38t-20 -32t-31.5 -22.5t-45 -8.5z" />
    <glyph glyph-name="_26" horiz-adv-x="1024" 
d="M617 1469l-120 -123h-51v14l133 176h75l133 -176v-14h-52zM720 1591q-29 0 -54 11.5t-47.5 25t-43.5 25t-42 11.5q-30 0 -41.5 -16.5t-17.5 -37.5l-6 -19l-57 6l6 32q4 19 11 37t20 31.5t31.5 21.5t45.5 8q28 0 53 -11t47.5 -24t43.5 -24t42 -11q30 0 43 15t18 38l4 17
l57 -5l-5 -30q-4 -20 -11.5 -38t-20 -32t-31.5 -22.5t-45 -8.5z" />
    <glyph glyph-name="_27" horiz-adv-x="1024" 
d="M729 1389q-29 0 -54 11.5t-47.5 25t-43.5 25t-42 11.5q-30 0 -41.5 -16.5t-17.5 -37.5l-6 -19l-57 6l6 32q4 19 11 37t20 31.5t31.5 21.5t45.5 8q28 0 53 -11t47.5 -24t43.5 -24t42 -11q30 0 43 15t18 38l4 17l57 -5l-5 -30q-4 -20 -11.5 -38t-20 -32t-31.5 -22.5
t-45 -8.5z" />
    <glyph glyph-name="_28" horiz-adv-x="1024" 
d="M545 1559q10 17 24 31q12 12 30.5 22t43.5 10q51 0 78 -30.5t22 -81.5q-3 -29 -19.5 -51.5t-35 -42.5t-34 -39t-15.5 -41h-35q-3 27 9 49t27.5 42t29 40t13.5 41q0 23 -12.5 39.5t-37.5 16.5q-17 0 -27.5 -6t-18.5 -13q-9 -8 -14 -18z" />
    <glyph glyph-name="_29" horiz-adv-x="1024" 
d="M655 1352h-48v15l66 200h95v-15z" />
    <glyph glyph-name="_30" horiz-adv-x="1024" 
d="M494 1552v16h95l66 -200v-16h-48z" />
    <glyph glyph-name=".notdef.130" unicode="&#x1eac;" horiz-adv-x="1243" 
d="M606 1229h29l600 -1229h-133l-117 233h-727l-117 -233h-131zM629 991h-17l-286 -624l-13 -23h617l-12 23zM616 1468l-120 -123h-51v14l133 176h75l133 -176v-14h-52zM613 -250q-22 0 -37 14.5t-15 36.5q0 23 15 38t37 15t37 -15t15 -38q0 -22 -15 -36.5t-37 -14.5z" />
    <glyph glyph-name="_18" horiz-adv-x="1024" 
d="M411 -250q-22 0 -37 14.5t-15 36.5q0 23 15 38t37 15t37 -15t15 -38q0 -22 -15 -36.5t-37 -14.5z" />
    <glyph glyph-name=".notdef.133" unicode="&#x1eae;" horiz-adv-x="1243" 
d="M606 1229h29l600 -1229h-133l-117 233h-727l-117 -233h-131zM629 991h-17l-286 -624l-13 -23h617l-12 23zM810 1571q0 -43 -14.5 -79t-39.5 -62t-60 -40.5t-75 -14.5t-74.5 14.5t-59.5 40.5t-39 62t-14 79h67q0 -60 33.5 -95t86.5 -35q54 -1 87.5 34.5t33.5 95.5h68z
M655 1599h-48v15l66 200h95v-15z" />
    <glyph glyph-name=".notdef.066" unicode="&#x1eaf;" horiz-adv-x="864" 
d="M61 211q0 45 19 84.5t58.5 69t99.5 46.5t141 17q55 0 97 -8t72.5 -19.5t50 -23.5t30.5 -21h10v52q0 51 -14 91.5t-44 69t-78 43.5t-116 15q-51 0 -89.5 -9t-66.5 -20q-33 -13 -57 -29l-43 88q27 19 67 34q35 13 87 23.5t125 10.5q92 0 156.5 -25.5t105.5 -70t59.5 -105
t18.5 -131.5v-393h-82l-13 92h-8q-6 -9 -24 -27t-51.5 -36t-84.5 -31.5t-122 -13.5q-78 0 -135.5 18t-95 49t-55.5 72.5t-18 87.5zM176 211q0 -29 12.5 -55t38.5 -45t66 -30t94 -11t99.5 14.5t78.5 36t51.5 47t18.5 47.5q0 29 -19.5 53.5t-53 42t-79 27.5t-96.5 10
q-105 0 -158 -37.5t-53 -99.5zM617 1039q0 -43 -14.5 -79t-39.5 -62t-60 -40.5t-75 -14.5t-74.5 14.5t-59.5 40.5t-39 62t-14 79h67q0 -60 33.5 -95t86.5 -35q54 -1 87.5 34.5t33.5 95.5h68zM464 1052h-48v15l66 200h95v-15z" />
    <glyph glyph-name=".notdef.132" unicode="&#x1eb0;" horiz-adv-x="1243" 
d="M606 1229h29l600 -1229h-133l-117 233h-727l-117 -233h-131zM629 991h-17l-286 -624l-13 -23h617l-12 23zM810 1548q0 -43 -14.5 -79t-39.5 -62t-60 -40.5t-75 -14.5t-74.5 14.5t-59.5 40.5t-39 62t-14 79h67q0 -60 33.5 -95t86.5 -35q54 -1 87.5 34.5t33.5 95.5h68z
M484 1768v16h95l66 -200v-16h-48z" />
    <glyph glyph-name=".notdef.065" unicode="&#x1eb1;" horiz-adv-x="864" 
d="M61 211q0 45 19 84.5t58.5 69t99.5 46.5t141 17q55 0 97 -8t72.5 -19.5t50 -23.5t30.5 -21h10v52q0 51 -14 91.5t-44 69t-78 43.5t-116 15q-51 0 -89.5 -9t-66.5 -20q-33 -13 -57 -29l-43 88q27 19 67 34q35 13 87 23.5t125 10.5q92 0 156.5 -25.5t105.5 -70t59.5 -105
t18.5 -131.5v-393h-82l-13 92h-8q-6 -9 -24 -27t-51.5 -36t-84.5 -31.5t-122 -13.5q-78 0 -135.5 18t-95 49t-55.5 72.5t-18 87.5zM176 211q0 -29 12.5 -55t38.5 -45t66 -30t94 -11t99.5 14.5t78.5 36t51.5 47t18.5 47.5q0 29 -19.5 53.5t-53 42t-79 27.5t-96.5 10
q-105 0 -158 -37.5t-53 -99.5zM617 1053q0 -43 -14.5 -79t-39.5 -62t-60 -40.5t-75 -14.5t-74.5 14.5t-59.5 40.5t-39 62t-14 79h67q0 -60 33.5 -95t86.5 -35q54 -1 87.5 34.5t33.5 95.5h68zM295 1259v16h95l66 -200v-16h-48z" />
    <glyph glyph-name=".notdef.002" unicode="&#x1eb2;" horiz-adv-x="1243" 
d="M606 1229h29l600 -1229h-133l-117 233h-727l-117 -233h-131zM629 991h-17l-286 -624l-13 -23h617l-12 23zM810 1548q0 -43 -14.5 -79t-39.5 -62t-60 -40.5t-75 -14.5t-74.5 14.5t-59.5 40.5t-39 62t-14 79h67q0 -60 33.5 -95t86.5 -35q54 -1 87.5 34.5t33.5 95.5h68z
M552 1808q10 17 24 31q12 12 30.5 22t43.5 10q51 0 78 -30.5t22 -81.5q-3 -29 -19.5 -51.5t-35 -42.5t-34 -39t-15.5 -41h-35q-3 27 9 49t27.5 42t29 40t13.5 41q0 23 -12.5 39.5t-37.5 16.5q-17 0 -27.5 -6t-18.5 -13q-9 -8 -14 -18z" />
    <glyph glyph-name=".notdef.067" unicode="&#x1eb3;" horiz-adv-x="864" 
d="M61 211q0 45 19 84.5t58.5 69t99.5 46.5t141 17q55 0 97 -8t72.5 -19.5t50 -23.5t30.5 -21h10v52q0 51 -14 91.5t-44 69t-78 43.5t-116 15q-51 0 -89.5 -9t-66.5 -20q-33 -13 -57 -29l-43 88q27 19 67 34q35 13 87 23.5t125 10.5q92 0 156.5 -25.5t105.5 -70t59.5 -105
t18.5 -131.5v-393h-82l-13 92h-8q-6 -9 -24 -27t-51.5 -36t-84.5 -31.5t-122 -13.5q-78 0 -135.5 18t-95 49t-55.5 72.5t-18 87.5zM176 211q0 -29 12.5 -55t38.5 -45t66 -30t94 -11t99.5 14.5t78.5 36t51.5 47t18.5 47.5q0 29 -19.5 53.5t-53 42t-79 27.5t-96.5 10
q-105 0 -158 -37.5t-53 -99.5zM617 1053q0 -43 -14.5 -79t-39.5 -62t-60 -40.5t-75 -14.5t-74.5 14.5t-59.5 40.5t-39 62t-14 79h67q0 -60 33.5 -95t86.5 -35q54 -1 87.5 34.5t33.5 95.5h68zM346 1273q10 17 24 31q12 12 30.5 22t43.5 10q51 0 78 -30.5t22 -81.5
q-3 -29 -19.5 -51.5t-35 -42.5t-34 -39t-15.5 -41h-35q-3 27 9 49t27.5 42t29 40t13.5 41q0 23 -12.5 39.5t-37.5 16.5q-17 0 -27.5 -6t-18.5 -13q-9 -8 -14 -18z" />
    <glyph glyph-name=".notdef.003" unicode="&#x1eb4;" horiz-adv-x="1243" 
d="M606 1229h29l600 -1229h-133l-117 233h-727l-117 -233h-131zM629 991h-17l-286 -624l-13 -23h617l-12 23zM810 1548q0 -43 -14.5 -79t-39.5 -62t-60 -40.5t-75 -14.5t-74.5 14.5t-59.5 40.5t-39 62t-14 79h67q0 -60 33.5 -95t86.5 -35q54 -1 87.5 34.5t33.5 95.5h68z
M721 1618q-29 0 -54 11.5t-47.5 25t-43.5 25t-42 11.5q-30 0 -41.5 -16.5t-17.5 -37.5l-6 -19l-57 6l6 32q4 19 11 37t20 31.5t31.5 21.5t45.5 8q28 0 53 -11t47.5 -24t43.5 -24t42 -11q30 0 43 15t18 38l4 17l57 -5l-5 -30q-4 -20 -11.5 -38t-20 -32t-31.5 -22.5t-45 -8.5z
" />
    <glyph glyph-name=".notdef.068" unicode="&#x1eb5;" horiz-adv-x="864" 
d="M61 211q0 45 19 84.5t58.5 69t99.5 46.5t141 17q55 0 97 -8t72.5 -19.5t50 -23.5t30.5 -21h10v52q0 51 -14 91.5t-44 69t-78 43.5t-116 15q-51 0 -89.5 -9t-66.5 -20q-33 -13 -57 -29l-43 88q27 19 67 34q35 13 87 23.5t125 10.5q92 0 156.5 -25.5t105.5 -70t59.5 -105
t18.5 -131.5v-393h-82l-13 92h-8q-6 -9 -24 -27t-51.5 -36t-84.5 -31.5t-122 -13.5q-78 0 -135.5 18t-95 49t-55.5 72.5t-18 87.5zM176 211q0 -29 12.5 -55t38.5 -45t66 -30t94 -11t99.5 14.5t78.5 36t51.5 47t18.5 47.5q0 29 -19.5 53.5t-53 42t-79 27.5t-96.5 10
q-105 0 -158 -37.5t-53 -99.5zM617 1053q0 -43 -14.5 -79t-39.5 -62t-60 -40.5t-75 -14.5t-74.5 14.5t-59.5 40.5t-39 62t-14 79h67q0 -60 33.5 -95t86.5 -35q54 -1 87.5 34.5t33.5 95.5h68zM520 1099q-29 0 -54 11.5t-47.5 25t-43.5 25t-42 11.5q-30 0 -41.5 -16.5
t-17.5 -37.5l-6 -19l-57 6l6 32q4 19 11 37t20 31.5t31.5 21.5t45.5 8q28 0 53 -11t47.5 -24t43.5 -24t42 -11q30 0 43 15t18 38l4 17l57 -5l-5 -30q-4 -20 -11.5 -38t-20 -32t-31.5 -22.5t-45 -8.5z" />
  </font>
</defs>
</svg>
