<?xml version="1.0" standalone="no"?>
<!DOCTYPE svg PUBLIC "-//W3C//DTD SVG 1.1//EN" "http://www.w3.org/Graphics/SVG/1.1/DTD/svg11.dtd" >
<svg xmlns="http://www.w3.org/2000/svg" xmlns:xlink="http://www.w3.org/1999/xlink" version="1.1">
<metadata>
Created by FontForge 20141024 at Wed Dec 23 11:58:35 2015
 By Jimmy Warting
</metadata>
<defs>
<font id="UNIVacant" horiz-adv-x="1605" >
  <font-face 
    font-family="UNI Vacant"
    font-weight="400"
    font-stretch="normal"
    units-per-em="2048"
    panose-1="2 0 0 0 0 0 0 0 0 0"
    ascent="1536"
    descent="-512"
    x-height="1411"
    cap-height="1411"
    bbox="-239 -422 2899 2112"
    underline-thickness="102"
    underline-position="-103"
    unicode-range="U+000D-FB02"
  />
<missing-glyph horiz-adv-x="506" 
 />
    <glyph glyph-name=".notdef" horiz-adv-x="506" 
 />
    <glyph glyph-name="space" unicode=" " horiz-adv-x="506" 
 />
    <glyph glyph-name="exclam" unicode="!" horiz-adv-x="474" 
d="M190 1411h93l-13 -1122h-67zM174 126h126v-126h-126v126z" />
    <glyph glyph-name="quotedbl" unicode="&#x22;" horiz-adv-x="716" 
d="M513 1411h80v-504h-80v504zM123 1411h80v-504h-80v504z" />
    <glyph glyph-name="numbersign" unicode="#" horiz-adv-x="1633" 
d="M1261 1411h80l-61 -385h260l-12 -80h-260l-76 -476h260l-12 -80h-260l-63 -390h-81zM353 390h-260l12 80h261l75 476h-260l13 80h260l61 385h81l-224 -1411h-81zM697 1026h339l-12 -80h-339zM609 470h339l-12 -80h-339z" />
    <glyph glyph-name="dollar" unicode="$" horiz-adv-x="1152" 
d="M530 1700h80v-206h-80v206zM659 70q66 7 121 30.5t95 60.5t62 87.5t22 113.5t-21.5 107.5t-58.5 77t-86.5 56.5t-105.5 45l-286 110q-118 45 -186.5 126.5t-68.5 196.5q0 75 29 135.5t77 104.5t109.5 69.5t126.5 30.5v-80q-47 -5 -93.5 -23.5t-84 -50.5t-61 -78
t-23.5 -106q0 -79 48 -144t155 -106l289 -110q63 -24 121.5 -54t102.5 -71.5t70.5 -99t26.5 -136.5q0 -85 -30.5 -151t-82.5 -112.5t-121 -73.5t-146 -36v81zM652 1421q58 -7 118 -25q51 -16 112 -46t116 -82l-53 -60q-37 33 -72.5 55t-71.5 37t-73 24t-76 17v80zM174 224
q63 -66 145 -102.5t177 -51.5v-81q-55 7 -108.5 22.5t-103 38.5t-93.5 54t-78 68zM610 -84v-206h-80v206h80z" />
    <glyph glyph-name="percent" unicode="%" horiz-adv-x="2081" 
d="M1311 1411h88l-649 -1411h-88zM114 1114q14 63 48 117.5t82.5 94.5t109.5 62.5t129 22.5t129.5 -22.5t110 -62.5t83 -94.5t48.5 -117.5h-82q-14 47 -42 87t-65.5 69t-84 45t-97.5 16q-50 0 -96 -16t-84 -45t-66 -69t-41 -87h-82zM854 950q-14 -64 -48 -118.5t-83 -94.5
t-110.5 -62.5t-129.5 -22.5t-129 22.5t-109.5 62.5t-83 94.5t-48.5 118.5h83q13 -48 41 -88t65.5 -69t83.5 -45t97 -16t97.5 16t84.5 45t65.5 69t41.5 88h82zM1228 462q14 63 48 117.5t82.5 94.5t109.5 62.5t129 22.5t129.5 -22.5t110 -62.5t83 -94.5t48.5 -117.5h-82
q-14 47 -42 87t-65.5 69t-84 45t-97.5 16q-50 0 -96 -16t-84 -45t-65.5 -69t-41.5 -87h-82zM1310 298q14 -48 41.5 -88t65 -69t83.5 -45t97 -16t97.5 16t84.5 45t65.5 69t41.5 88h82q-14 -64 -48 -118.5t-83 -94.5t-110.5 -62.5t-129.5 -22.5t-129 22.5t-109.5 62.5
t-83 94.5t-48.5 118.5h83z" />
    <glyph glyph-name="ampersand" unicode="&#x26;" horiz-adv-x="1517" 
d="M550 666q-77 0 -144.5 29.5t-118 80t-80 118.5t-29.5 145t29.5 145t80 118.5t118 79.5t144.5 29h221v-80h-221q-60 0 -113.5 -23t-93 -62.5t-62.5 -92.5t-23 -114q0 -60 22.5 -113.5t62 -93.5t93 -63.5t114.5 -23.5h391v-79h-391zM1105 1010h80v-265h239v-79h-239v-666
h-80v1010zM525 0q-77 0 -144.5 29.5t-117.5 80.5t-79.5 119t-29.5 145q0 66 21.5 125t60.5 107q30 -26 67 -44q-32 -38 -51 -86t-19 -102q0 -61 22.5 -114.5t62 -93.5t93 -63t114.5 -23h416v-80h-416z" />
    <glyph glyph-name="quotesingle" unicode="'" horiz-adv-x="326" 
d="M123 1411h80v-504h-80v504z" />
    <glyph glyph-name="parenleft" unicode="(" horiz-adv-x="711" 
d="M457 -177q-78 88 -139.5 189.5t-105 213.5t-66.5 232.5t-23 247.5q0 126 23 246.5t66.5 232.5t105 213.5t139.5 189.5h110q-84 -85 -151.5 -185t-115 -212t-72.5 -234t-25 -251t25 -251.5t72.5 -234.5t115 -212t151.5 -185h-110v0z" />
    <glyph glyph-name="parenright" unicode=")" horiz-adv-x="711" 
d="M143 -177q85 85 152.5 185t114.5 212t72.5 234.5t25.5 251.5t-25.5 251t-72.5 234t-114.5 212t-152.5 185h111q78 -88 139.5 -189.5t105 -213.5t66.5 -232.5t23 -246.5q0 -127 -23 -247.5t-66.5 -232.5t-105 -213.5t-139.5 -189.5h-111v0z" />
    <glyph glyph-name="asterisk" unicode="*" horiz-adv-x="874" 
d="M175 892l187 258l-270 88l26 77l279 -91v294h80v-294l280 91l25 -77l-270 -88l187 -258l-64 -47l-198 272l-197 -272z" />
    <glyph glyph-name="plus" unicode="+" horiz-adv-x="1125" 
d="M522 666h-379v79h379v379h80v-379h380v-79h-380v-380h-80v380z" />
    <glyph glyph-name="comma" unicode="," horiz-adv-x="413" 
d="M143 126h122l-132 -226h-75z" />
    <glyph glyph-name="hyphen" unicode="-" horiz-adv-x="880" 
d="M143 745h593v-79h-593v79z" />
    <glyph glyph-name="period" unicode="." horiz-adv-x="413" 
d="M143 126h126v-126h-126v126z" />
    <glyph glyph-name="slash" unicode="/" horiz-adv-x="881" 
d="M721 1411h88l-649 -1411h-88z" />
    <glyph glyph-name="zero" unicode="0" 
d="M96 793q10 88 41 169t79 150.5t111.5 126.5t138.5 97t160 62t177 22q91 0 176 -22t160 -62t138.5 -97t111.5 -126.5t79 -150.5t41 -169h-81q-15 117 -70 217t-138.5 173.5t-190.5 115t-226 41.5q-120 0 -227 -41.5t-190.5 -115t-138.5 -173.5t-70 -217h-81zM177 629
q10 -78 38.5 -149t71.5 -132t99 -110.5t122 -84.5t140.5 -54t154.5 -19q119 0 226 42t190.5 115.5t138.5 174t70 217.5h81q-15 -133 -76 -248t-155.5 -199.5t-216 -133t-258.5 -48.5t-259 48.5t-216.5 133t-155.5 199.5t-76 248h81z" />
    <glyph glyph-name="one" unicode="1" horiz-adv-x="944" 
d="M283 1193l237 241v-114l-237 -241v114zM440 1006l80 80v-842h-80v762zM133 80h698v-80h-698v80z" />
    <glyph glyph-name="two" unicode="2" horiz-adv-x="1074" 
d="M757 795q45 53 70 107t25 120q0 54 -17.5 103.5t-48.5 90t-74 70t-95 43.5v82q67 -14 125 -50t100 -87.5t66 -115.5t24 -136q0 -83 -31 -150t-82 -127l-419 -501h-103zM138 1022q0 72 24 136t66 115.5t100 87.5t126 50v-82q-52 -14 -94.5 -43t-73.5 -69t-49 -90t-19 -105
h-80zM159 80h813v-80h-880z" />
    <glyph glyph-name="three" unicode="3" horiz-adv-x="1110" 
d="M543 740q63 0 118.5 24t96.5 65.5t65 96.5t24 118t-24 118.5t-65 97t-96.5 65.5t-118.5 24q-51 0 -98 -16.5t-86 -46t-67 -70.5t-42 -89h-82q14 64 48.5 119.5t84 95.5t111.5 63t131 23q79 0 149 -30t122.5 -82.5t82.5 -122.5t30 -149t-30 -149t-82.5 -122t-122.5 -82.5
t-149 -30.5v80zM185 340q19 -58 54 -105.5t82 -82t103.5 -53.5t118.5 -19q78 0 146 29.5t119 80.5t80.5 119t29.5 146q0 44 -10.5 84.5t-27.5 77.5q16 14 31 28t29 31q28 -50 42.5 -105.5t14.5 -115.5q0 -94 -35.5 -177t-97 -144.5t-144.5 -97.5t-177 -36q-80 0 -151.5 25.5
t-129 71t-99.5 107.5t-61 136h83z" />
    <glyph glyph-name="four" unicode="4" horiz-adv-x="1244" 
d="M868 1333l80 101v-1010h184v-80h-184v-344h-80v1333zM705 1126v-128l-457 -574h457v-80h-623z" />
    <glyph glyph-name="five" unicode="5" horiz-adv-x="1112" 
d="M476 1411h408v-80h-418zM232 1411h80l-65 -510h207v-80h-297zM617 81q67 15 124.5 50.5t99.5 87t65.5 115t23.5 133.5q0 68 -24 128.5t-66 107.5t-99.5 77t-123.5 38v81q83 -8 154.5 -45t124.5 -94.5t83.5 -133t30.5 -159.5q0 -88 -30 -166.5t-83 -140.5t-124.5 -103.5
t-155.5 -56.5v81zM191 275q42 -75 110 -125.5t153 -68.5v-81q-59 10 -112.5 34.5t-99 60t-81 81t-59.5 99.5h89z" />
    <glyph glyph-name="six" unicode="6" horiz-adv-x="1186" 
d="M511 0q-87 15 -161.5 58t-129.5 107.5t-86.5 145.5t-31.5 172q0 52 10.5 98t29 88t44.5 80.5t57 75.5l487 586h105l-529 -634q-26 -36 -48.5 -69t-39.5 -67.5t-26.5 -73t-9.5 -84.5q0 -74 25 -140.5t69 -120t104 -90t131 -51.5v-81zM675 81q71 15 131 51.5t104 90t69 120
t25 140.5q0 82 -30 154.5t-82.5 128t-123.5 89t-153 38.5l62 74q86 -15 160.5 -58.5t129 -108t85.5 -145.5t31 -172t-31 -172t-86 -145.5t-129.5 -107.5t-161.5 -58v81z" />
    <glyph glyph-name="seven" unicode="7" horiz-adv-x="1134" 
d="M102 1411h929l-41 -80h-888v80zM816 1167h91l-594 -1167h-90z" />
    <glyph glyph-name="eight" unicode="8" horiz-adv-x="1135" 
d="M649 744q48 14 89 42t70 66.5t45.5 85.5t16.5 100q0 52 -16.5 99t-45.5 85.5t-70 66.5t-89 42v82q64 -14 119.5 -48.5t95.5 -84t63 -111.5t23 -131t-23 -131t-63 -111.5t-95.5 -84t-119.5 -48.5v81zM485 663q-65 14 -120.5 48.5t-96 84t-63.5 111.5t-23 131t23 131
t63.5 111.5t96 84t120.5 48.5v-82q-49 -14 -90 -42t-70.5 -66.5t-46 -85.5t-16.5 -99q0 -53 16.5 -100t46 -85.5t70.5 -66.5t90 -42v-81zM649 82q63 14 117 48t93 82.5t61 108.5t22 126q0 45 -10 85.5t-28 78.5q17 14 31.5 27.5t28.5 30.5q27 -50 42.5 -105.5t15.5 -116.5
q0 -84 -28.5 -158.5t-79 -134t-118.5 -99.5t-147 -55v82zM485 0q-80 15 -148 55t-118 99.5t-78 134t-28 158.5q0 61 14.5 116.5t42.5 105.5q13 -17 27.5 -30.5t31.5 -27.5q-17 -38 -26.5 -78.5t-9.5 -85.5q0 -67 21.5 -127t60.5 -108t92.5 -82t117.5 -48v-82z" />
    <glyph glyph-name="nine" unicode="9" horiz-adv-x="1186" 
d="M880 634q26 36 48.5 69t39.5 67.5t26.5 72.5t9.5 85q0 74 -25 140.5t-69 119.5t-104 90t-131 52v81q87 -15 161.5 -58t129 -107.5t86 -145.5t31.5 -172q0 -103 -38.5 -185t-101.5 -157l-487 -586h-105zM509 444q-86 15 -160.5 58.5t-129.5 108t-86 145.5t-31 172
t31.5 172t86 145.5t129.5 107.5t162 58v-81q-71 -15 -131 -52t-104 -90t-69 -119.5t-25 -140.5q0 -82 30 -154.5t82.5 -128t123.5 -89.5t152 -38z" />
    <glyph glyph-name="colon" unicode=":" horiz-adv-x="413" 
d="M143 906h126v-126h-126v126zM143 126h126v-126h-126v126z" />
    <glyph glyph-name="semicolon" unicode=";" horiz-adv-x="413" 
d="M143 906h126v-126h-126v126zM143 126h122l-132 -226h-75z" />
    <glyph glyph-name="less" unicode="&#x3c;" horiz-adv-x="1706" 
d="M1544 1266l29 -75l-1250 -485l1250 -487l-29 -75l-1442 562z" />
    <glyph glyph-name="equal" unicode="=" horiz-adv-x="1125" 
d="M143 916h839v-79h-839v79zM143 575h839v-79h-839v79z" />
    <glyph glyph-name="greater" unicode="&#x3e;" horiz-adv-x="1706" 
d="M133 219l1250 487l-1250 485l29 75l1442 -560l-1442 -562z" />
    <glyph glyph-name="question" unicode="?" horiz-adv-x="1106" 
d="M504 573h40q80 0 151 31t124 84t84 124.5t31 151.5q0 81 -30.5 152t-83.5 124t-124 83.5t-152 30.5q-63 0 -121 -19t-106 -53.5t-84.5 -82t-56.5 -105.5h-84q21 73 64 135.5t102.5 108t132 71t153.5 25.5q97 0 183 -37t149.5 -101t100.5 -149.5t37 -182.5
q0 -92 -33.5 -174t-91.5 -145t-136.5 -102.5t-168.5 -46.5v-207h-80v284zM481 126h126v-126h-126v126z" />
    <glyph glyph-name="at" unicode="@" horiz-adv-x="1943" 
d="M1781 164q-50 -78 -128 -148t-177 -123t-214 -84.5t-238 -31.5q-99 0 -191 20.5t-174.5 57t-154 86.5t-130.5 108q-76 75 -128 157.5t-84 167.5t-46 170t-14 164q0 103 21 196t57.5 175.5t86 153t107.5 128.5q72 72 153 124t166.5 85t173 48.5t171.5 15.5q92 0 177 -17
t160 -48t139 -74t115 -95q60 -60 100.5 -128t66 -138.5t36.5 -140.5t11 -135q0 -81 -15.5 -155.5t-42.5 -140.5t-64 -122t-80 -100q-63 -63 -136.5 -98.5t-151.5 -35.5q-48 0 -81 12.5t-55 31t-34 40.5t-18 41t-7 31.5t-1 13.5q-12 -16 -38 -44.5t-67 -56.5t-96.5 -48.5
t-125.5 -20.5q-59 0 -103.5 15.5t-77.5 42t-55 61.5t-35 73.5t-18.5 78t-5.5 75.5q0 72 18.5 145t50 142t73.5 130.5t90 110.5q75 77 160.5 119t177.5 42q42 0 75.5 -9t59.5 -23.5t44.5 -33t31.5 -37.5q30 -46 40 -103l52 158h84l-211 -626q-14 -42 -23.5 -71t-15.5 -50
t-8.5 -35.5t-2.5 -26.5q0 -27 10 -45.5t27.5 -30t40 -17t47.5 -5.5q64 0 121 30t102 72q50 47 85 106t57.5 122t32.5 127t10 122q0 144 -53 267.5t-141 214.5q-54 55 -117.5 94.5t-132.5 64.5t-141 36.5t-144 11.5q-96 0 -182.5 -18.5t-162 -51.5t-139.5 -77t-116 -95
q-73 -72 -121.5 -151.5t-78 -159t-42 -157t-12.5 -144.5q0 -88 18.5 -170.5t50.5 -157t76.5 -140.5t97.5 -120q73 -76 154 -125.5t161 -78.5t156.5 -40.5t141.5 -11.5q78 0 146.5 13t128.5 35t111 49.5t92 56.5q96 68 167 154h99zM614 548q0 -41 9 -87t33 -85t66.5 -64.5
t108.5 -25.5q72 0 132 29.5t106 74.5q31 31 59 72.5t51 87.5t41 92.5t30 87.5q7 24 14 52t13 58t9.5 60t3.5 57q0 98 -48 151.5t-137 53.5q-40 0 -77.5 -10.5t-72.5 -28t-66.5 -41.5t-58.5 -51q-50 -49 -90 -108.5t-68 -122.5t-43 -127.5t-15 -124.5z" />
    <glyph glyph-name="A" unicode="A" horiz-adv-x="1462" 
d="M555 471h531l-399 867l44 96l660 -1434h-88l-181 391h-604zM598 1145l44 -96l-482 -1049h-88z" />
    <glyph glyph-name="B" unicode="B" horiz-adv-x="1291" 
d="M397 745h375q61 0 114.5 23.5t93 63.5t62 93.5t22.5 113.5q0 61 -23 114t-62.5 92.5t-93 62.5t-113.5 23h-375v80h375q77 0 144.5 -29t118 -79.5t80 -118.5t29.5 -145t-29.5 -145t-80 -118.5t-118 -80t-144.5 -29.5h-375v79zM154 1411h79v-1411h-79v1411zM397 80h400
q61 0 114 23t92.5 63t62.5 93.5t23 114.5q0 54 -19 102t-51 86q37 18 67 44q39 -48 60.5 -107t21.5 -125q0 -77 -29.5 -145t-79.5 -119t-118 -80.5t-144 -29.5h-400v80z" />
    <glyph glyph-name="C" unicode="C" horiz-adv-x="1424" 
d="M885 1411q114 -12 214.5 -59t181.5 -121l-54 -60q-69 64 -156 105.5t-186 54.5v80zM721 0q-133 15 -248 76t-199.5 155.5t-133 216.5t-48.5 259q0 91 22 176t62.5 159.5t97.5 138t126.5 111t150.5 78.5t170 41v-80q-117 -15 -217.5 -70t-174 -138t-115.5 -190t-42 -226
q0 -120 42 -227t115.5 -190.5t174 -138.5t217.5 -70v-81zM885 81q99 13 186 54.5t156 105.5l54 -60q-81 -73 -181.5 -120t-214.5 -61v81z" />
    <glyph glyph-name="D" unicode="D" horiz-adv-x="1339" 
d="M397 80h145q86 0 166 22.5t149.5 63.5t126.5 98t97.5 126.5t63 149t22.5 166.5q0 86 -22.5 166t-63 149.5t-97.5 126.5t-126.5 97.5t-149.5 63t-166 22.5h-145v80h145q97 0 187 -25t168.5 -71t143 -110.5t110.5 -142.5t71 -168.5t25 -187.5q0 -98 -25 -188t-71 -168.5
t-110.5 -143t-143 -110.5t-168.5 -71t-187 -25h-145v80zM154 1411h79v-1411h-79v1411z" />
    <glyph glyph-name="E" unicode="E" horiz-adv-x="1139" 
d="M397 1411h609v-80h-609v80zM154 1411h79v-1411h-79v1411zM397 745h471v-79h-471v79zM397 80h609v-80h-609v80z" />
    <glyph glyph-name="F" unicode="F" horiz-adv-x="1128" 
d="M397 1411h619v-80h-619v80zM154 1411h79v-1411h-79v1411zM397 745h479v-79h-479v79z" />
    <glyph glyph-name="G" unicode="G" 
d="M96 793q10 88 41 169t79.5 150.5t111.5 126.5t138.5 97t160.5 62t176 22q139 0 261 -49t217 -136l-53 -59q-85 77 -193 120.5t-232 43.5q-120 0 -227 -42t-190.5 -115.5t-138 -173.5t-70.5 -216h-81zM864 745h648v-35q0 -12 -0.5 -22.5t-1.5 -21.5h-646v79zM177 629
q15 -118 69.5 -218.5t138.5 -174t191 -115t227 -41.5q102 0 195.5 31t171 86.5t136 133t91.5 171.5h84q-33 -109 -98.5 -201t-154.5 -159t-197 -104.5t-228 -37.5q-137 0 -259 48.5t-216.5 133t-155.5 199.5t-76 248h81z" />
    <glyph glyph-name="H" unicode="H" horiz-adv-x="1359" 
d="M1125 1411h80v-1411h-80v1411zM154 1411h79v-1411h-79v1411zM397 745h565v-79h-565v79z" />
    <glyph glyph-name="I" unicode="I" horiz-adv-x="571" 
d="M246 1411h80v-1411h-80v1411z" />
    <glyph glyph-name="J" unicode="J" horiz-adv-x="1201" 
d="M669 81q69 14 127.5 50t101 88t66.5 117.5t24 137.5v937h80v-937q0 -89 -30.5 -169t-84 -143t-126.5 -105.5t-158 -56.5v81zM195 388q12 -58 40.5 -109t69 -91t91.5 -67.5t109 -39.5v-81q-75 13 -140.5 47t-117 85t-86.5 116t-48 140h82z" />
    <glyph glyph-name="K" unicode="K" horiz-adv-x="1285" 
d="M397 776l576 635h108l-684 -755v120zM154 1411h79v-1411h-79v1411zM677 722l495 -722h-97l-453 660z" />
    <glyph glyph-name="L" unicode="L" horiz-adv-x="997" 
d="M154 1411h79v-1411h-79v1411zM397 80h498v-80h-498v80z" />
    <glyph glyph-name="M" unicode="M" horiz-adv-x="1530" 
d="M154 1288v123l611 -700l611 700v-1411h-80v1196l-531 -609zM154 1041l79 -91v-950h-79v1041z" />
    <glyph glyph-name="N" unicode="N" horiz-adv-x="1375" 
d="M1142 1411h80v-1411l-1068 1283v128l988 -1187v1187zM154 1036l79 -95v-941h-79v1036z" />
    <glyph glyph-name="O" unicode="O" 
d="M245 269q-72 91 -112.5 203.5t-40.5 238.5q0 98 25.5 188.5t71.5 169.5t111 143.5t144 110.5t169.5 71.5t188.5 25.5q125 0 237 -40.5t203 -112.5l-56 -57q-81 62 -178 96t-206 34q-131 0 -245.5 -49.5t-200 -135t-135 -200t-49.5 -244.5q0 -110 34 -207t96 -177z
M418 210q79 -62 177 -96t207 -34q87 0 168 22.5t151 63.5t127.5 98.5t98.5 127.5t63.5 150.5t22.5 168.5q0 109 -35 206t-96 177l57 57q72 -91 112.5 -203t40.5 -237q0 -98 -25.5 -189t-71.5 -170t-111 -144t-144 -111t-169.5 -71.5t-188.5 -25.5q-126 0 -238 40.5
t-203 113.5z" />
    <glyph glyph-name="P" unicode="P" horiz-adv-x="1233" 
d="M397 745h362q61 0 114.5 23.5t93 63.5t62 93.5t22.5 113.5q0 61 -23 114t-62.5 92.5t-93 62.5t-113.5 23h-362v80h362q77 0 144.5 -29t118 -79.5t79.5 -118.5t29 -145t-29 -145t-79.5 -118.5t-118 -80t-144.5 -29.5h-362v79zM154 1411h79v-1411h-79v1411z" />
    <glyph glyph-name="Q" unicode="Q" horiz-adv-x="1601" 
d="M92 793q10 88 41 169t79 150.5t111.5 126.5t138.5 97t160 62t177 22q98 0 188.5 -25.5t169 -71.5t143.5 -110.5t111 -143.5t71.5 -169.5t25.5 -188.5q0 -136 -46 -254.5t-129 -212.5h-110q95 88 150 207.5t55 259.5q0 130 -49.5 245t-135 200t-200 134.5t-244.5 49.5
q-120 0 -227 -41.5t-190.5 -115t-138.5 -173.5t-70 -217h-81zM173 629q10 -78 38.5 -149t71.5 -132t99 -110.5t122 -84.5t140.5 -54t154.5 -19h689v-80h-689q-137 0 -259 48.5t-216.5 133t-155.5 199.5t-76 248h81z" />
    <glyph glyph-name="R" unicode="R" horiz-adv-x="1271" 
d="M397 745h348q61 0 114.5 23.5t93 63.5t62 93.5t22.5 113.5q0 61 -23 114t-62.5 92.5t-93 62.5t-113.5 23h-348v80h348q77 0 144.5 -29t118 -79.5t80 -118.5t29.5 -145t-29.5 -145t-80 -118.5t-118 -80t-144.5 -29.5h-348v79zM154 1411h79v-1411h-79v1411zM755 502
q22 1 44 3.5t43 7.5l316 -513h-94z" />
    <glyph glyph-name="S" unicode="S" horiz-adv-x="1152" 
d="M659 70q66 7 121 30.5t95 60.5t62 87.5t22 113.5t-21.5 107.5t-58.5 77t-86.5 56.5t-105.5 45l-286 110q-118 45 -186.5 126.5t-68.5 196.5q0 75 29 135.5t77 104.5t109.5 69.5t126.5 30.5v-80q-47 -5 -93.5 -23.5t-84 -50.5t-61 -78t-23.5 -106q0 -79 48 -144t155 -106
l289 -110q63 -24 121.5 -54t102.5 -71.5t70.5 -99t26.5 -136.5q0 -85 -30.5 -151t-82.5 -112.5t-121 -73.5t-146 -36v81zM652 1421q58 -7 118 -25q51 -16 112 -46t116 -82l-53 -60q-37 33 -72.5 55t-71.5 37t-73 24t-76 17v80zM174 226q63 -66 145 -103.5t177 -52.5v-81
q-55 7 -108.5 22.5t-103 39.5t-93.5 55t-78 68z" />
    <glyph glyph-name="T" unicode="T" horiz-adv-x="1154" 
d="M113 1411h928v-80h-928v80zM537 1167h79v-1167h-79v1167z" />
    <glyph glyph-name="U" unicode="U" horiz-adv-x="1367" 
d="M766 80q79 15 146.5 55t117 99t77 132.5t27.5 155.5v889h79v-889q0 -99 -34.5 -187.5t-94.5 -158t-141.5 -115.5t-176.5 -61v80zM154 1411h79v-889q0 -82 28 -155.5t77 -132.5t116.5 -99t147.5 -55v-80q-95 15 -177 61t-142 115.5t-94.5 158t-34.5 187.5v889z" />
    <glyph glyph-name="V" unicode="V" horiz-adv-x="1262" 
d="M718 417l386 994h86l-429 -1104zM72 1411h86l515 -1330l-42 -109z" />
    <glyph glyph-name="W" unicode="W" horiz-adv-x="1913" 
d="M1756 1411h85l-356 -1058l-42 125zM643 478l313 933l443 -1314l-42 -125l-401 1186l-271 -805zM72 1411h85l442 -1314l-42 -125z" />
    <glyph glyph-name="X" unicode="X" horiz-adv-x="1268" 
d="M733 920l343 491h100l-393 -562zM92 1411h99l985 -1411h-99zM484 563l50 -70l-344 -493h-98z" />
    <glyph glyph-name="Y" unicode="Y" horiz-adv-x="1351" 
d="M636 625l536 786h97l-553 -809v-602h-80v625zM82 1411h96l399 -583l-49 -70z" />
    <glyph glyph-name="Z" unicode="Z" horiz-adv-x="1140" 
d="M112 1411h913l-47 -80h-866v80zM787 1167h94l-549 -923h-94zM140 80h908v-80h-956z" />
    <glyph glyph-name="bracketleft" unicode="[" horiz-adv-x="640" 
d="M143 1595h354v-79h-274v-1619h274v-80h-354v1778z" />
    <glyph glyph-name="backslash" unicode="\" horiz-adv-x="881" 
d="M72 1411h88l649 -1411h-88z" />
    <glyph glyph-name="bracketright" unicode="]" horiz-adv-x="640" 
d="M417 -103v1619h-274v79h354v-1778h-354v80h274z" />
    <glyph glyph-name="asciicircum" unicode="^" horiz-adv-x="797" 
d="M354 1411h88l211 -468h-88l-167 370l-167 -370h-88z" />
    <glyph glyph-name="underscore" unicode="_" horiz-adv-x="1179" 
d="M143 80h892v-80h-892v80z" />
    <glyph glyph-name="grave" unicode="`" horiz-adv-x="569" 
d="M143 1832l62 50l221 -275l-62 -51z" />
    <glyph glyph-name="a" unicode="a" horiz-adv-x="1462" 
d="M555 471h531l-399 867l44 96l660 -1434h-88l-181 391h-604zM598 1145l44 -96l-482 -1049h-88z" />
    <glyph glyph-name="b" unicode="b" horiz-adv-x="1291" 
d="M397 745h375q61 0 114.5 23.5t93 63.5t62 93.5t22.5 113.5q0 61 -23 114t-62.5 92.5t-93 62.5t-113.5 23h-375v80h375q77 0 144.5 -29t118 -79.5t80 -118.5t29.5 -145t-29.5 -145t-80 -118.5t-118 -80t-144.5 -29.5h-375v79zM154 1411h79v-1411h-79v1411zM397 80h400
q61 0 114 23t92.5 63t62.5 93.5t23 114.5q0 54 -19 102t-51 86q37 18 67 44q39 -48 60.5 -107t21.5 -125q0 -77 -29.5 -145t-79.5 -119t-118 -80.5t-144 -29.5h-400v80z" />
    <glyph glyph-name="c" unicode="c" horiz-adv-x="1424" 
d="M885 1411q114 -12 214.5 -59t181.5 -121l-54 -60q-69 64 -156 105.5t-186 54.5v80zM721 0q-133 15 -248 76t-199.5 155.5t-133 216.5t-48.5 259q0 91 22 176t62.5 159.5t97.5 138t126.5 111t150.5 78.5t170 41v-80q-117 -15 -217.5 -70t-174 -138t-115.5 -190t-42 -226
q0 -120 42 -227t115.5 -190.5t174 -138.5t217.5 -70v-81zM885 81q99 13 186 54.5t156 105.5l54 -60q-81 -73 -181.5 -120t-214.5 -61v81z" />
    <glyph glyph-name="d" unicode="d" horiz-adv-x="1339" 
d="M397 80h145q86 0 166 22.5t149.5 63.5t126.5 98t97.5 126.5t63 149t22.5 166.5q0 86 -22.5 166t-63 149.5t-97.5 126.5t-126.5 97.5t-149.5 63t-166 22.5h-145v80h145q97 0 187 -25t168.5 -71t143 -110.5t110.5 -142.5t71 -168.5t25 -187.5q0 -98 -25 -188t-71 -168.5
t-110.5 -143t-143 -110.5t-168.5 -71t-187 -25h-145v80zM154 1411h79v-1411h-79v1411z" />
    <glyph glyph-name="e" unicode="e" horiz-adv-x="1139" 
d="M397 1411h609v-80h-609v80zM154 1411h79v-1411h-79v1411zM397 745h471v-79h-471v79zM397 80h609v-80h-609v80z" />
    <glyph glyph-name="f" unicode="f" horiz-adv-x="1128" 
d="M397 1411h619v-80h-619v80zM154 1411h79v-1411h-79v1411zM397 745h479v-79h-479v79z" />
    <glyph glyph-name="g" unicode="g" 
d="M96 793q10 88 41 169t79.5 150.5t111.5 126.5t138.5 97t160.5 62t176 22q139 0 261 -49t217 -136l-53 -59q-85 77 -193 120.5t-232 43.5q-120 0 -227 -42t-190.5 -115.5t-138 -173.5t-70.5 -216h-81zM864 745h648v-35q0 -12 -0.5 -22.5t-1.5 -21.5h-646v79zM177 629
q15 -118 69.5 -218.5t138.5 -174t191 -115t227 -41.5q102 0 195.5 31t171 86.5t136 133t91.5 171.5h84q-33 -109 -98.5 -201t-154.5 -159t-197 -104.5t-228 -37.5q-137 0 -259 48.5t-216.5 133t-155.5 199.5t-76 248h81z" />
    <glyph glyph-name="h" unicode="h" horiz-adv-x="1359" 
d="M1125 1411h80v-1411h-80v1411zM154 1411h79v-1411h-79v1411zM397 745h565v-79h-565v79z" />
    <glyph glyph-name="i" unicode="i" horiz-adv-x="571" 
d="M246 1411h80v-1411h-80v1411z" />
    <glyph glyph-name="j" unicode="j" horiz-adv-x="1201" 
d="M669 81q69 14 127.5 50t101 88t66.5 117.5t24 137.5v937h80v-937q0 -89 -30.5 -169t-84 -143t-126.5 -105.5t-158 -56.5v81zM195 388q12 -58 40.5 -109t69 -91t91.5 -67.5t109 -39.5v-81q-75 13 -140.5 47t-117 85t-86.5 116t-48 140h82z" />
    <glyph glyph-name="k" unicode="k" horiz-adv-x="1285" 
d="M397 776l576 635h108l-684 -755v120zM154 1411h79v-1411h-79v1411zM677 722l495 -722h-97l-453 660z" />
    <glyph glyph-name="l" unicode="l" horiz-adv-x="997" 
d="M154 1411h79v-1411h-79v1411zM397 80h498v-80h-498v80z" />
    <glyph glyph-name="m" unicode="m" horiz-adv-x="1530" 
d="M154 1288v123l611 -700l611 700v-1411h-80v1196l-531 -609zM154 1041l79 -91v-950h-79v1041z" />
    <glyph glyph-name="n" unicode="n" horiz-adv-x="1375" 
d="M1142 1411h80v-1411l-1068 1283v128l988 -1187v1187zM154 1036l79 -95v-941h-79v1036z" />
    <glyph glyph-name="o" unicode="o" 
d="M245 269q-72 91 -112.5 203.5t-40.5 238.5q0 98 25.5 188.5t71.5 169.5t111 143.5t144 110.5t169.5 71.5t188.5 25.5q125 0 237 -40.5t203 -112.5l-56 -57q-81 62 -178 96t-206 34q-131 0 -245.5 -49.5t-200 -135t-135 -200t-49.5 -244.5q0 -110 34 -207t96 -177z
M418 210q79 -62 177 -96t207 -34q87 0 168 22.5t151 63.5t127.5 98.5t98.5 127.5t63.5 150.5t22.5 168.5q0 109 -35 206t-96 177l57 57q72 -91 112.5 -203t40.5 -237q0 -98 -25.5 -189t-71.5 -170t-111 -144t-144 -111t-169.5 -71.5t-188.5 -25.5q-126 0 -238 40.5
t-203 113.5z" />
    <glyph glyph-name="p" unicode="p" horiz-adv-x="1233" 
d="M397 745h362q61 0 114.5 23.5t93 63.5t62 93.5t22.5 113.5q0 61 -23 114t-62.5 92.5t-93 62.5t-113.5 23h-362v80h362q77 0 144.5 -29t118 -79.5t79.5 -118.5t29 -145t-29 -145t-79.5 -118.5t-118 -80t-144.5 -29.5h-362v79zM154 1411h79v-1411h-79v1411z" />
    <glyph glyph-name="q" unicode="q" horiz-adv-x="1601" 
d="M92 793q10 88 41 169t79 150.5t111.5 126.5t138.5 97t160 62t177 22q98 0 188.5 -25.5t169 -71.5t143.5 -110.5t111 -143.5t71.5 -169.5t25.5 -188.5q0 -136 -46 -254.5t-129 -212.5h-110q95 88 150 207.5t55 259.5q0 130 -49.5 245t-135 200t-200 134.5t-244.5 49.5
q-120 0 -227 -41.5t-190.5 -115t-138.5 -173.5t-70 -217h-81zM173 629q10 -78 38.5 -149t71.5 -132t99 -110.5t122 -84.5t140.5 -54t154.5 -19h689v-80h-689q-137 0 -259 48.5t-216.5 133t-155.5 199.5t-76 248h81z" />
    <glyph glyph-name="r" unicode="r" horiz-adv-x="1271" 
d="M397 745h348q61 0 114.5 23.5t93 63.5t62 93.5t22.5 113.5q0 61 -23 114t-62.5 92.5t-93 62.5t-113.5 23h-348v80h348q77 0 144.5 -29t118 -79.5t80 -118.5t29.5 -145t-29.5 -145t-80 -118.5t-118 -80t-144.5 -29.5h-348v79zM154 1411h79v-1411h-79v1411zM755 502
q22 1 44 3.5t43 7.5l316 -513h-94z" />
    <glyph glyph-name="s" unicode="s" horiz-adv-x="1152" 
d="M659 70q66 7 121 30.5t95 60.5t62 87.5t22 113.5t-21.5 107.5t-58.5 77t-86.5 56.5t-105.5 45l-286 110q-118 45 -186.5 126.5t-68.5 196.5q0 75 29 135.5t77 104.5t109.5 69.5t126.5 30.5v-80q-47 -5 -93.5 -23.5t-84 -50.5t-61 -78t-23.5 -106q0 -79 48 -144t155 -106
l289 -110q63 -24 121.5 -54t102.5 -71.5t70.5 -99t26.5 -136.5q0 -85 -30.5 -151t-82.5 -112.5t-121 -73.5t-146 -36v81zM652 1421q58 -7 118 -25q51 -16 112 -46t116 -82l-53 -60q-37 33 -72.5 55t-71.5 37t-73 24t-76 17v80zM174 226q63 -66 145 -103.5t177 -52.5v-81
q-55 7 -108.5 22.5t-103 39.5t-93.5 55t-78 68z" />
    <glyph glyph-name="t" unicode="t" horiz-adv-x="1154" 
d="M113 1411h928v-80h-928v80zM537 1167h79v-1167h-79v1167z" />
    <glyph glyph-name="u" unicode="u" horiz-adv-x="1367" 
d="M766 80q79 15 146.5 55t117 99t77 132.5t27.5 155.5v889h79v-889q0 -99 -34.5 -187.5t-94.5 -158t-141.5 -115.5t-176.5 -61v80zM154 1411h79v-889q0 -82 28 -155.5t77 -132.5t116.5 -99t147.5 -55v-80q-95 15 -177 61t-142 115.5t-94.5 158t-34.5 187.5v889z" />
    <glyph glyph-name="v" unicode="v" horiz-adv-x="1262" 
d="M718 417l386 994h86l-429 -1104zM72 1411h86l515 -1330l-42 -109z" />
    <glyph glyph-name="w" unicode="w" horiz-adv-x="1913" 
d="M1756 1411h85l-356 -1058l-42 125zM643 478l313 933l443 -1314l-42 -125l-401 1186l-271 -805zM72 1411h85l442 -1314l-42 -125z" />
    <glyph glyph-name="x" unicode="x" horiz-adv-x="1268" 
d="M733 920l343 491h100l-393 -562zM92 1411h99l985 -1411h-99zM484 563l50 -70l-344 -493h-98z" />
    <glyph glyph-name="y" unicode="y" horiz-adv-x="1351" 
d="M636 625l536 786h97l-553 -809v-602h-80v625zM82 1411h96l399 -583l-49 -70z" />
    <glyph glyph-name="z" unicode="z" horiz-adv-x="1140" 
d="M112 1411h913l-47 -80h-866v80zM787 1167h94l-549 -923h-94zM140 80h908v-80h-956z" />
    <glyph glyph-name="braceleft" unicode="{" horiz-adv-x="774" 
d="M143 745q42 0 68.5 16t41.5 42t21 59.5t6 68.5v478q0 85 43 135.5t123 50.5h185v-79h-185q-24 0 -40.5 -8.5t-27 -23t-15 -34t-4.5 -41.5v-478q0 -70 -18.5 -126.5t-70.5 -98.5q52 -42 70.5 -99t18.5 -127v-478q0 -45 19.5 -75.5t67.5 -30.5h185v-80h-185
q-80 0 -123 50.5t-43 135.5v478q0 35 -6 68.5t-21 59.5t-41.5 42t-68.5 16v79z" />
    <glyph glyph-name="bar" unicode="|" horiz-adv-x="653" 
d="M287 1635h80v-1858h-80v1858z" />
    <glyph glyph-name="braceright" unicode="}" horiz-adv-x="774" 
d="M631 666q-42 0 -68.5 -16t-41.5 -42t-20.5 -59.5t-5.5 -68.5v-478q0 -85 -43.5 -135.5t-123.5 -50.5h-185v80h185q48 0 67.5 30.5t19.5 75.5v478q0 70 18.5 127t70.5 99q-52 42 -70.5 98.5t-18.5 126.5v478q0 22 -4.5 41.5t-15 34t-27 23t-40.5 8.5h-185v79h185
q80 0 123.5 -50.5t43.5 -135.5v-478q0 -35 5.5 -68.5t20.5 -59.5t41.5 -42t68.5 -16v-79z" />
    <glyph glyph-name="asciitilde" unicode="~" horiz-adv-x="989" 
d="M123 626q0 43 16.5 81.5t45 67.5t67 45.5t82.5 16.5q43 0 81 -17t67 -46l82 -81q19 -17 42.5 -28t49.5 -11q27 0 50.5 10.5t41.5 28t28 41.5t10 51h80q0 -44 -16.5 -82t-45 -67t-67 -45.5t-81.5 -16.5q-44 0 -81.5 17t-66.5 45l-82 82q-18 17 -41.5 28t-50.5 11
t-51 -10.5t-41.5 -28.5t-28 -42t-10.5 -50h-80v0z" />
    <glyph glyph-name="Adieresis" unicode="&#xc4;" horiz-adv-x="1462" 
d="M555 471h531l-399 867l44 96l660 -1434h-88l-181 391h-604zM598 1145l44 -96l-482 -1049h-88zM872 1725h119v-118h-119v118zM472 1725h119v-118h-119v118z" />
    <glyph glyph-name="Aring" unicode="&#xc5;" horiz-adv-x="1462" 
d="M555 471h531l-399 867l44 96l660 -1434h-88l-181 391h-604zM598 1145l44 -96l-482 -1049h-88zM731 1506q-37 0 -69 14t-56 38t-38 56.5t-14 68.5q0 37 14 69.5t38 56.5t56 38t69 14q36 0 68.5 -14t56.5 -38t38 -56.5t14 -69.5q0 -36 -14 -68.5t-38 -56.5t-56.5 -38
t-68.5 -14zM731 1578q22 0 41.5 8t33.5 22.5t22.5 33.5t8.5 41q0 45 -30.5 75.5t-75.5 30.5q-22 0 -41 -8.5t-33.5 -22.5t-22.5 -33.5t-8 -41.5t8 -41t22.5 -33t33.5 -22.5t41 -8.5z" />
    <glyph glyph-name="Ccedilla" unicode="&#xc7;" horiz-adv-x="1424" 
d="M885 1411q114 -12 214.5 -59t181.5 -121l-54 -60q-69 64 -156 105.5t-186 54.5v80zM721 0q-133 15 -248 76t-199.5 155.5t-133 216.5t-48.5 259q0 91 22 176t62.5 159.5t97.5 138t126.5 111t150.5 78.5t170 41v-80q-117 -15 -217.5 -70t-174 -138t-115.5 -190t-42 -226
q0 -120 42 -227t115.5 -190.5t174 -138.5t217.5 -70v-81zM885 81q99 13 186 54.5t156 105.5l54 -60q-81 -73 -181.5 -120t-214.5 -61v81zM811 -348q10 0 22.5 3.5t23.5 11.5t18 21.5t7 33.5t-7 33t-16.5 21t-19.5 12t-17 6l-68 21l17 67l76 -22q7 -2 25 -9.5t36.5 -23.5
t32.5 -41.5t14 -63.5q0 -35 -12.5 -62t-33 -45t-46.5 -27.5t-52 -9.5h-206l38 74h168z" />
    <glyph glyph-name="Ntilde" unicode="&#xd1;" horiz-adv-x="1375" 
d="M1142 1411h80v-1411l-1068 1283v128l988 -1187v1187zM154 1036l79 -95v-941h-79v1036zM382 1538q0 40 15 75.5t41.5 62t61.5 41.5t75 15q32 0 62 -12.5t55 -32.5l66 -55q29 -25 65 -25q24 0 44.5 9t36 24t24.5 35.5t9 44.5h80q0 -40 -15 -75t-41.5 -61.5t-62 -41.5
t-75.5 -15q-33 0 -62.5 12t-53.5 33l-67 54q-15 12 -31 19t-34 7q-24 0 -44.5 -8.5t-35.5 -24t-24 -36.5t-9 -45h-80z" />
    <glyph glyph-name="Odieresis" unicode="&#xd6;" 
d="M245 269q-72 91 -112.5 203.5t-40.5 238.5q0 98 25.5 188.5t71.5 169.5t111 143.5t144 110.5t169.5 71.5t188.5 25.5q125 0 237 -40.5t203 -112.5l-56 -57q-81 62 -178 96t-206 34q-131 0 -245.5 -49.5t-200 -135t-135 -200t-49.5 -244.5q0 -110 34 -207t96 -177z
M418 210q79 -62 177 -96t207 -34q87 0 168 22.5t151 63.5t127.5 98.5t98.5 127.5t63.5 150.5t22.5 168.5q0 109 -35 206t-96 177l57 57q72 -91 112.5 -203t40.5 -237q0 -98 -25.5 -189t-71.5 -170t-111 -144t-144 -111t-169.5 -71.5t-188.5 -25.5q-126 0 -238 40.5
t-203 113.5zM939 1725h119v-118h-119v118zM539 1725h118v-118h-118v118z" />
    <glyph glyph-name="Udieresis" unicode="&#xdc;" horiz-adv-x="1367" 
d="M766 80q79 15 146.5 55t117 99t77 132.5t27.5 155.5v889h79v-889q0 -99 -34.5 -187.5t-94.5 -158t-141.5 -115.5t-176.5 -61v80zM154 1411h79v-889q0 -82 28 -155.5t77 -132.5t116.5 -99t147.5 -55v-80q-95 15 -177 61t-142 115.5t-94.5 158t-34.5 187.5v889zM824 1725
h119v-118h-119v118zM424 1725h119v-118h-119v118z" />
    <glyph glyph-name="aacute" unicode="&#xe1;" horiz-adv-x="1462" 
d="M555 471h531l-399 867l44 96l660 -1434h-88l-181 391h-604zM598 1145l44 -96l-482 -1049h-88zM662 1556l210 278l98 -2l-220 -276h-88z" />
    <glyph glyph-name="agrave" unicode="&#xe0;" horiz-adv-x="1462" 
d="M555 471h531l-399 867l44 96l660 -1434h-88l-181 391h-604zM598 1145l44 -96l-482 -1049h-88zM481 1832l102 2l224 -277l-106 -1z" />
    <glyph glyph-name="acircumflex" unicode="&#xe2;" horiz-adv-x="1462" 
d="M555 471h531l-399 867l44 96l660 -1434h-88l-181 391h-604zM598 1145l44 -96l-482 -1049h-88zM457 1603l274 233l275 -233l-53 -61l-222 189l-222 -189z" />
    <glyph glyph-name="adieresis" unicode="&#xe4;" horiz-adv-x="1462" 
d="M555 471h531l-399 867l44 96l660 -1434h-88l-181 391h-604zM598 1145l44 -96l-482 -1049h-88zM872 1725h119v-118h-119v118zM472 1725h119v-118h-119v118z" />
    <glyph glyph-name="atilde" unicode="&#xe3;" horiz-adv-x="1462" 
d="M555 471h531l-399 867l44 96l660 -1434h-88l-181 391h-604zM598 1145l44 -96l-482 -1049h-88zM417 1562q0 40 15 75t41.5 61.5t61.5 41.5t75 15q32 0 62 -12t55 -33l66 -54q29 -26 65 -26q24 0 44.5 9t36 24t24.5 36t9 45h80q0 -41 -15 -76t-41.5 -61.5t-62 -41.5
t-75.5 -15q-33 0 -62.5 12.5t-54.5 32.5l-66 55q-16 12 -31.5 18.5t-33.5 6.5q-24 0 -44.5 -8.5t-35.5 -24t-24 -36t-9 -44.5h-80z" />
    <glyph glyph-name="aring" unicode="&#xe5;" horiz-adv-x="1462" 
d="M555 471h531l-399 867l44 96l660 -1434h-88l-181 391h-604zM598 1145l44 -96l-482 -1049h-88zM731 1506q-37 0 -69 14t-56 38t-38 56.5t-14 68.5q0 37 14 69.5t38 56.5t56 38t69 14q36 0 68.5 -14t56.5 -38t38 -56.5t14 -69.5q0 -36 -14 -68.5t-38 -56.5t-56.5 -38
t-68.5 -14zM731 1578q22 0 41.5 8t33.5 22.5t22.5 33.5t8.5 41q0 45 -30.5 75.5t-75.5 30.5q-22 0 -41 -8.5t-33.5 -22.5t-22.5 -33.5t-8 -41.5t8 -41t22.5 -33t33.5 -22.5t41 -8.5z" />
    <glyph glyph-name="ccedilla" unicode="&#xe7;" horiz-adv-x="1424" 
d="M885 1411q114 -12 214.5 -59t181.5 -121l-54 -60q-69 64 -156 105.5t-186 54.5v80zM721 0q-133 15 -248 76t-199.5 155.5t-133 216.5t-48.5 259q0 91 22 176t62.5 159.5t97.5 138t126.5 111t150.5 78.5t170 41v-80q-117 -15 -217.5 -70t-174 -138t-115.5 -190t-42 -226
q0 -120 42 -227t115.5 -190.5t174 -138.5t217.5 -70v-81zM885 81q99 13 186 54.5t156 105.5l54 -60q-81 -73 -181.5 -120t-214.5 -61v81zM811 -348q10 0 22.5 3.5t23.5 11.5t18 21.5t7 33.5t-7 33t-16.5 21t-19.5 12t-17 6l-68 21l17 67l76 -22q7 -2 25 -9.5t36.5 -23.5
t32.5 -41.5t14 -63.5q0 -35 -12.5 -62t-33 -45t-46.5 -27.5t-52 -9.5h-206l38 74h168z" />
    <glyph glyph-name="eacute" unicode="&#xe9;" horiz-adv-x="1139" 
d="M397 1411h609v-80h-609v80zM154 1411h79v-1411h-79v1411zM397 745h471v-79h-471v79zM397 80h609v-80h-609v80zM570 1556l210 278l98 -2l-220 -276h-88z" />
    <glyph glyph-name="egrave" unicode="&#xe8;" horiz-adv-x="1139" 
d="M397 1411h609v-80h-609v80zM154 1411h79v-1411h-79v1411zM397 745h471v-79h-471v79zM397 80h609v-80h-609v80zM344 1832l102 2l224 -277l-106 -1z" />
    <glyph glyph-name="ecircumflex" unicode="&#xea;" horiz-adv-x="1139" 
d="M397 1411h609v-80h-609v80zM154 1411h79v-1411h-79v1411zM397 745h471v-79h-471v79zM397 80h609v-80h-609v80zM305 1622l275 233l274 -233l-52 -60l-222 188l-223 -188z" />
    <glyph glyph-name="edieresis" unicode="&#xeb;" horiz-adv-x="1139" 
d="M397 1411h609v-80h-609v80zM154 1411h79v-1411h-79v1411zM397 745h471v-79h-471v79zM397 80h609v-80h-609v80zM721 1725h119v-118h-119v118zM321 1725h118v-118h-118v118z" />
    <glyph glyph-name="iacute" unicode="&#xed;" horiz-adv-x="571" 
d="M246 1411h80v-1411h-80v1411zM248 1556l210 278l98 -2l-220 -276h-88z" />
    <glyph glyph-name="igrave" unicode="&#xec;" horiz-adv-x="571" 
d="M246 1411h80v-1411h-80v1411zM19 1832l102 2l224 -277l-106 -1z" />
    <glyph glyph-name="icircumflex" unicode="&#xee;" horiz-adv-x="571" 
d="M246 1411h80v-1411h-80v1411zM11 1612l275 233l274 -233l-52 -61l-222 189l-223 -189z" />
    <glyph glyph-name="idieresis" unicode="&#xef;" horiz-adv-x="571" 
d="M246 1411h80v-1411h-80v1411zM427 1725h119v-118h-119v118zM27 1725h118v-118h-118v118z" />
    <glyph glyph-name="ntilde" unicode="&#xf1;" horiz-adv-x="1375" 
d="M1142 1411h80v-1411l-1068 1283v128l988 -1187v1187zM154 1036l79 -95v-941h-79v1036zM382 1538q0 40 15 75.5t41.5 62t61.5 41.5t75 15q32 0 62 -12.5t55 -32.5l66 -55q29 -25 65 -25q24 0 44.5 9t36 24t24.5 35.5t9 44.5h80q0 -40 -15 -75t-41.5 -61.5t-62 -41.5
t-75.5 -15q-33 0 -62.5 12t-53.5 33l-67 54q-15 12 -31 19t-34 7q-24 0 -44.5 -8.5t-35.5 -24t-24 -36.5t-9 -45h-80z" />
    <glyph glyph-name="oacute" unicode="&#xf3;" 
d="M245 269q-72 91 -112.5 203.5t-40.5 238.5q0 98 25.5 188.5t71.5 169.5t111 143.5t144 110.5t169.5 71.5t188.5 25.5q125 0 237 -40.5t203 -112.5l-56 -57q-81 62 -178 96t-206 34q-131 0 -245.5 -49.5t-200 -135t-135 -200t-49.5 -244.5q0 -110 34 -207t96 -177z
M418 210q79 -62 177 -96t207 -34q87 0 168 22.5t151 63.5t127.5 98.5t98.5 127.5t63.5 150.5t22.5 168.5q0 109 -35 206t-96 177l57 57q72 -91 112.5 -203t40.5 -237q0 -98 -25.5 -189t-71.5 -170t-111 -144t-144 -111t-169.5 -71.5t-188.5 -25.5q-126 0 -238 40.5
t-203 113.5zM744 1556l210 278l98 -2l-220 -276h-88z" />
    <glyph glyph-name="ograve" unicode="&#xf2;" 
d="M245 269q-72 91 -112.5 203.5t-40.5 238.5q0 98 25.5 188.5t71.5 169.5t111 143.5t144 110.5t169.5 71.5t188.5 25.5q125 0 237 -40.5t203 -112.5l-56 -57q-81 62 -178 96t-206 34q-131 0 -245.5 -49.5t-200 -135t-135 -200t-49.5 -244.5q0 -110 34 -207t96 -177z
M418 210q79 -62 177 -96t207 -34q87 0 168 22.5t151 63.5t127.5 98.5t98.5 127.5t63.5 150.5t22.5 168.5q0 109 -35 206t-96 177l57 57q72 -91 112.5 -203t40.5 -237q0 -98 -25.5 -189t-71.5 -170t-111 -144t-144 -111t-169.5 -71.5t-188.5 -25.5q-126 0 -238 40.5
t-203 113.5zM527 1832l102 2l224 -277l-106 -1z" />
    <glyph glyph-name="ocircumflex" unicode="&#xf4;" 
d="M245 269q-72 91 -112.5 203.5t-40.5 238.5q0 98 25.5 188.5t71.5 169.5t111 143.5t144 110.5t169.5 71.5t188.5 25.5q125 0 237 -40.5t203 -112.5l-56 -57q-81 62 -178 96t-206 34q-131 0 -245.5 -49.5t-200 -135t-135 -200t-49.5 -244.5q0 -110 34 -207t96 -177z
M418 210q79 -62 177 -96t207 -34q87 0 168 22.5t151 63.5t127.5 98.5t98.5 127.5t63.5 150.5t22.5 168.5q0 109 -35 206t-96 177l57 57q72 -91 112.5 -203t40.5 -237q0 -98 -25.5 -189t-71.5 -170t-111 -144t-144 -111t-169.5 -71.5t-188.5 -25.5q-126 0 -238 40.5
t-203 113.5zM523 1603l275 233l274 -233l-52 -61l-222 189l-223 -189z" />
    <glyph glyph-name="odieresis" unicode="&#xf6;" 
d="M245 269q-72 91 -112.5 203.5t-40.5 238.5q0 98 25.5 188.5t71.5 169.5t111 143.5t144 110.5t169.5 71.5t188.5 25.5q125 0 237 -40.5t203 -112.5l-56 -57q-81 62 -178 96t-206 34q-131 0 -245.5 -49.5t-200 -135t-135 -200t-49.5 -244.5q0 -110 34 -207t96 -177z
M418 210q79 -62 177 -96t207 -34q87 0 168 22.5t151 63.5t127.5 98.5t98.5 127.5t63.5 150.5t22.5 168.5q0 109 -35 206t-96 177l57 57q72 -91 112.5 -203t40.5 -237q0 -98 -25.5 -189t-71.5 -170t-111 -144t-144 -111t-169.5 -71.5t-188.5 -25.5q-126 0 -238 40.5
t-203 113.5zM939 1725h119v-118h-119v118zM539 1725h118v-118h-118v118z" />
    <glyph glyph-name="otilde" unicode="&#xf5;" 
d="M245 269q-72 91 -112.5 203.5t-40.5 238.5q0 98 25.5 188.5t71.5 169.5t111 143.5t144 110.5t169.5 71.5t188.5 25.5q125 0 237 -40.5t203 -112.5l-56 -57q-81 62 -178 96t-206 34q-131 0 -245.5 -49.5t-200 -135t-135 -200t-49.5 -244.5q0 -110 34 -207t96 -177z
M418 210q79 -62 177 -96t207 -34q87 0 168 22.5t151 63.5t127.5 98.5t98.5 127.5t63.5 150.5t22.5 168.5q0 109 -35 206t-96 177l57 57q72 -91 112.5 -203t40.5 -237q0 -98 -25.5 -189t-71.5 -170t-111 -144t-144 -111t-169.5 -71.5t-188.5 -25.5q-126 0 -238 40.5
t-203 113.5zM485 1562q0 40 15 75t41.5 61.5t61.5 41.5t76 15q32 0 62 -12t55 -33l65 -54q30 -26 66 -26q23 0 43.5 9t36 24t24.5 36t9 45h80q0 -41 -15 -76t-41.5 -61.5t-61.5 -41.5t-75 -15q-33 0 -62.5 12.5t-54.5 32.5l-67 55q-31 25 -64 25q-24 0 -45 -8.5t-36 -24
t-24 -36t-9 -44.5h-80z" />
    <glyph glyph-name="uacute" unicode="&#xfa;" horiz-adv-x="1367" 
d="M766 80q79 15 146.5 55t117 99t77 132.5t27.5 155.5v889h79v-889q0 -99 -34.5 -187.5t-94.5 -158t-141.5 -115.5t-176.5 -61v80zM154 1411h79v-889q0 -82 28 -155.5t77 -132.5t116.5 -99t147.5 -55v-80q-95 15 -177 61t-142 115.5t-94.5 158t-34.5 187.5v889zM655 1556
l210 278l98 -2l-220 -276h-88z" />
    <glyph glyph-name="ugrave" unicode="&#xf9;" horiz-adv-x="1367" 
d="M766 80q79 15 146.5 55t117 99t77 132.5t27.5 155.5v889h79v-889q0 -99 -34.5 -187.5t-94.5 -158t-141.5 -115.5t-176.5 -61v80zM154 1411h79v-889q0 -82 28 -155.5t77 -132.5t116.5 -99t147.5 -55v-80q-95 15 -177 61t-142 115.5t-94.5 158t-34.5 187.5v889zM411 1832
l102 2l224 -277l-106 -1z" />
    <glyph glyph-name="ucircumflex" unicode="&#xfb;" horiz-adv-x="1367" 
d="M766 80q79 15 146.5 55t117 99t77 132.5t27.5 155.5v889h79v-889q0 -99 -34.5 -187.5t-94.5 -158t-141.5 -115.5t-176.5 -61v80zM154 1411h79v-889q0 -82 28 -155.5t77 -132.5t116.5 -99t147.5 -55v-80q-95 15 -177 61t-142 115.5t-94.5 158t-34.5 187.5v889zM409 1603
l274 233l274 -233l-52 -61l-222 189l-222 -189z" />
    <glyph glyph-name="udieresis" unicode="&#xfc;" horiz-adv-x="1367" 
d="M766 80q79 15 146.5 55t117 99t77 132.5t27.5 155.5v889h79v-889q0 -99 -34.5 -187.5t-94.5 -158t-141.5 -115.5t-176.5 -61v80zM154 1411h79v-889q0 -82 28 -155.5t77 -132.5t116.5 -99t147.5 -55v-80q-95 15 -177 61t-142 115.5t-94.5 158t-34.5 187.5v889zM824 1725
h119v-118h-119v118zM424 1725h119v-118h-119v118z" />
    <glyph glyph-name="dagger" unicode="&#x2020;" horiz-adv-x="1170" 
d="M92 1192h453v534h80v-534h453v-80h-986v80zM545 948h80v-1171h-80v1171z" />
    <glyph glyph-name="degree" unicode="&#xb0;" horiz-adv-x="805" 
d="M402 811q-62 0 -116.5 23.5t-95.5 64t-64.5 95.5t-23.5 117t23.5 117t64.5 95.5t95.5 64t116.5 23.5t117 -23.5t95.5 -64t64 -95.5t23.5 -117t-23.5 -117t-64 -95.5t-95.5 -64t-117 -23.5zM402 883q47 0 89 18t73 49t49 72.5t18 88.5t-18 88.5t-49 72.5t-73 49t-89 18
t-88.5 -18t-72.5 -49t-49 -72.5t-18 -88.5t18 -88.5t49 -72.5t72.5 -49t88.5 -18z" />
    <glyph glyph-name="cent" unicode="&#xa2;" horiz-adv-x="1255" 
d="M674 1548h80v-184h-80v184zM796 1289q91 -12 170.5 -50t145.5 -97l-54 -60q-54 50 -120.5 82.5t-141.5 44.5v80zM632 120q-108 15 -201 66.5t-161.5 129.5t-107.5 178t-39 212t39 211.5t107.5 177t161.5 128.5t201 66v-81q-92 -15 -170.5 -60t-136 -111.5t-90 -151.5
t-32.5 -179q0 -95 32.5 -180t90 -152.5t136 -112.5t170.5 -60v-81zM796 201q75 11 141.5 44t120.5 83l54 -59q-66 -60 -145.5 -98t-170.5 -51v81zM754 45v-184h-80v184h80z" />
    <glyph glyph-name="sterling" unicode="&#xa3;" horiz-adv-x="1458" 
d="M897 1411q92 -15 169 -62.5t131 -118.5h-106q-41 38 -89.5 63.5t-104.5 36.5v81zM143 80h191v857q0 90 30.5 169.5t84 142.5t126.5 105.5t158 56.5v-81q-69 -14 -127.5 -50t-101 -88t-66.5 -117.5t-24 -137.5v-937h-271v80zM578 745h368v-79h-368v79zM578 80h757v-80
h-757v80z" />
    <glyph glyph-name="section" unicode="&#xa7;" horiz-adv-x="1172" 
d="M670 -157q66 8 121 31t94.5 60.5t62 88t22.5 113.5t-21.5 107.5t-59 77t-87 56.5t-105.5 45l-285 109q-119 46 -187 127.5t-68 196.5q0 71 25.5 128.5t68.5 100.5q-46 45 -70 101.5t-24 124.5q0 75 29 135.5t77 104t109.5 69.5t126.5 31v-80q-47 -5 -93.5 -23.5t-84 -51
t-61 -78.5t-23.5 -105q0 -80 47.5 -145t154.5 -106l289 -110q65 -24 123.5 -54t102.5 -72t70 -99t26 -135q0 -72 -22.5 -130.5t-61.5 -103.5q38 -41 61 -94.5t23 -126.5q0 -85 -30.5 -151t-83 -112.5t-121.5 -74t-145 -36.5v81zM663 1650q58 -7 118 -25q51 -16 111.5 -46.5
t116.5 -82.5l-54 -59q-37 33 -72.5 54.5t-71.5 36.5t-72.5 24.5t-75.5 17.5v80zM412 986q-27 10 -51.5 22t-47.5 26q-35 -32 -55.5 -76t-20.5 -101q0 -79 47.5 -144.5t154.5 -106.5l289 -109q53 -20 97.5 -42t78.5 -45q32 35 49 80.5t17 100.5q0 62 -21.5 106.5t-58.5 77
t-87 56.5t-106 46zM184 2q63 -66 145 -103.5t177 -53.5v-81q-55 7 -108.5 23t-103 39.5t-93.5 54.5t-78 69z" />
    <glyph glyph-name="bullet" unicode="&#x2022;" horiz-adv-x="539" 
d="M143 833h252v-252h-252v252z" />
    <glyph glyph-name="paragraph" unicode="&#xb6;" horiz-adv-x="1644" 
d="M1263 1411h237v-80h-158v-1331h-79v1411zM843 1411h80v-1411h-80v1411zM525 608q-84 0 -157 31.5t-127.5 86t-86 127.5t-31.5 157q0 83 31.5 156t86 127.5t127.5 86t157 31.5h154v-80h-154q-67 0 -125.5 -25t-102 -68t-69 -102t-25.5 -126q0 -68 25.5 -126.5t69 -102
t102 -68.5t125.5 -25h154v-80h-154z" />
    <glyph glyph-name="germandbls" unicode="&#xdf;" horiz-adv-x="1330" 
d="M154 1039q0 77 29.5 145t79.5 118.5t117.5 79.5t144.5 29h286q77 0 144.5 -29t118 -79.5t80 -118.5t29.5 -145t-29.5 -145t-80 -118.5t-118 -80t-144.5 -29.5h-332v79h332q61 0 114.5 23.5t93 63.5t62 93.5t22.5 113.5q0 61 -23 114t-62.5 92.5t-93 62.5t-113.5 23h-286
q-60 0 -113 -23t-93 -62.5t-63 -92.5t-23 -114v-1337h-79v1337zM479 80h357q61 0 114 23t92.5 63t62 93.5t22.5 114.5q0 54 -18.5 102t-50.5 86q37 18 67 44q39 -48 60.5 -107t21.5 -125q0 -77 -29.5 -145t-79.5 -119t-118 -80.5t-144 -29.5h-357v80z" />
    <glyph glyph-name="registered" unicode="&#xae;" 
d="M92 711q0 98 25.5 188.5t71.5 169.5t111 143.5t144 110.5t170 71.5t189 25.5t188.5 -25.5t169.5 -71.5t143.5 -110.5t110.5 -143.5t71.5 -169.5t25.5 -188.5t-25.5 -189t-71.5 -170t-110.5 -144t-143.5 -111t-169.5 -71.5t-188.5 -25.5t-189 25.5t-170 71.5t-144 111
t-111 144t-71.5 170t-25.5 189zM172 711q0 -131 49.5 -246t135.5 -200.5t200.5 -135t245.5 -49.5q87 0 167.5 22.5t150.5 63.5t127.5 98.5t98.5 127.5t63.5 151t22.5 168t-22.5 167.5t-63.5 150.5t-98.5 127t-127.5 98t-150.5 63.5t-167.5 22.5q-131 0 -245.5 -49
t-200.5 -134.5t-135.5 -200t-49.5 -245.5zM573 1081h293q45 0 85 -17t69.5 -46.5t46.5 -69.5t17 -85q0 -37 -11.5 -70t-31.5 -60.5t-48.5 -48t-61.5 -30.5l158 -315h-92l-151 306h-193v-306h-80v742zM866 725q29 0 54.5 10.5t44 29.5t29.5 44t11 54t-11 54t-29.5 44
t-44 29.5t-54.5 10.5h-213v-276h213z" />
    <glyph glyph-name="copyright" unicode="&#xa9;" 
d="M92 711q0 98 25.5 188.5t71.5 169.5t111 143.5t144 110.5t170 71.5t189 25.5t188.5 -25.5t169.5 -71.5t143.5 -110.5t110.5 -143.5t71.5 -169.5t25.5 -188.5t-25.5 -189t-71.5 -170t-110.5 -144t-143.5 -111t-169.5 -71.5t-188.5 -25.5t-189 25.5t-170 71.5t-144 111
t-111 144t-71.5 170t-25.5 189zM172 711q0 -131 49.5 -246t135.5 -200.5t200.5 -135t245.5 -49.5q87 0 167.5 22.5t150.5 63.5t127.5 98.5t98.5 127.5t63.5 151t22.5 168t-22.5 167.5t-63.5 150.5t-98.5 127t-127.5 98t-150.5 63.5t-167.5 22.5q-131 0 -245.5 -49
t-200.5 -134.5t-135.5 -200t-49.5 -245.5zM1073 435q-49 -45 -113 -70.5t-138 -25.5q-77 0 -145 29t-118 79.5t-79 118.5t-29 145t29 144.5t79 118t118 79.5t145 29q74 0 138 -25.5t113 -71.5l-53 -58q-39 35 -89.5 55t-108.5 20q-60 0 -113 -23t-93 -62.5t-63 -92.5
t-23 -113q0 -61 23 -114t62.5 -92.5t92.5 -62.5t114 -23q58 0 108.5 20t89.5 56z" />
    <glyph glyph-name="trademark" unicode="&#x2122;" horiz-adv-x="1476" 
d="M751 1434l301 -339l301 339v-653h-62v491l-239 -270l-240 270v-491h-61v653zM338 1350h-215v61h491v-61h-215v-569h-61v569z" />
    <glyph glyph-name="acute" unicode="&#xb4;" horiz-adv-x="569" 
d="M143 1607l222 275l61 -50l-220 -276z" />
    <glyph glyph-name="dieresis" unicode="&#xa8;" horiz-adv-x="806" 
d="M544 1725h119v-118h-119v118zM143 1725h119v-118h-119v118z" />
    <glyph glyph-name="notequal" unicode="&#x2260;" horiz-adv-x="1125" 
d="M844 1411h88l-153 -331h-88zM143 575h315l121 262h-436v79h839v-79h-315l-121 -262h436v-79h-839v79zM345 332h88l-152 -332h-88z" />
    <glyph glyph-name="AE" unicode="&#xc6;" horiz-adv-x="2213" 
d="M1471 1411h609v-80h-609v80zM728 433h500v978h80v-1411h-80v353h-566zM1064 1214v-123l-909 -1091h-104zM1471 745h472v-79h-472v79zM1471 80h609v-80h-609v80z" />
    <glyph glyph-name="Oslash" unicode="&#xd8;" horiz-adv-x="1602" 
d="M323 186q-93 85 -152.5 198t-74.5 245h81q15 -114 66 -210.5t131 -170.5l805 967q-79 60 -174.5 92.5t-201.5 32.5q-132 0 -246 -48.5t-201 -135.5q-72 -72 -118.5 -164.5t-60.5 -198.5h-81q10 88 41 169t79 150.5t111.5 126.5t138.5 97t160 62t177 22q121 0 229 -37.5
t198 -105.5l111 134l63 -50l-113 -136q89 -85 145.5 -194.5t70.5 -237.5h-80q-14 106 -61.5 199t-125.5 171l-804 -966q78 -56 171 -86.5t196 -30.5q119 0 225.5 42t190 115.5t138.5 174t70 217.5h80q-15 -133 -75.5 -248t-155 -199.5t-216 -133t-257.5 -48.5
q-118 0 -224 35.5t-194 99.5l-113 -135l-63 50z" />
    <glyph glyph-name="infinity" unicode="&#x221e;" horiz-adv-x="1497" 
d="M605 506q-38 -38 -89.5 -60.5t-109.5 -22.5q-59 0 -110.5 22.5t-89.5 60.5t-60.5 89.5t-22.5 110.5q0 58 22.5 109.5t60.5 90t89.5 60.5t110.5 22q57 0 108 -20t88 -59l31 -31l-56 -56l-31 30q-27 26 -62.5 41t-77.5 15t-79 -16t-64.5 -43.5t-43.5 -64t-16 -78.5t16 -79
t43.5 -64.5t64.5 -43.5t79 -16t78.5 15.5t64.5 43.5l346 347q38 38 89 58.5t108 20.5q58 0 109.5 -22t90 -60.5t60.5 -90t22 -109.5q0 -59 -22 -110.5t-60.5 -89.5t-90 -60.5t-109.5 -22.5q-59 0 -110.5 22.5t-89.5 60.5l-28 28l58 56l26 -28q28 -28 65 -43.5t79 -15.5
t78.5 16t64 43.5t43.5 64.5t16 79t-16 78.5t-43.5 64t-64 43.5t-78.5 16t-77.5 -14.5t-63.5 -41.5z" />
    <glyph glyph-name="plusminus" unicode="&#xb1;" horiz-adv-x="1125" 
d="M522 666h-379v79h379v379h80v-379h380v-79h-380v-380h-80v380zM143 80h839v-80h-839v80z" />
    <glyph glyph-name="lessequal" unicode="&#x2264;" horiz-adv-x="1461" 
d="M1328 1182v-86l-1005 -390l1005 -392v-86l-1226 478zM182 80h1146v-80h-1146v80z" />
    <glyph glyph-name="greaterequal" unicode="&#x2265;" horiz-adv-x="1461" 
d="M102 314l1006 392l-1006 390v86l1226 -476l-1226 -478v86zM102 80h1146v-80h-1146v80z" />
    <glyph glyph-name="yen" unicode="&#xa5;" horiz-adv-x="1371" 
d="M260 497h386v128l537 786h96l-392 -573h212v-80h-266l-107 -156v-105h373v-80h-373v-417h-80v417h-386v80zM260 838h223l-391 573h96l399 -583l-48 -70h-279v80z" />
    <glyph glyph-name="mu" unicode="&#xb5;" horiz-adv-x="1181" 
d="M397 172q45 -42 103 -67t124 -25q67 0 126 25.5t102.5 69t69 102.5t25.5 127v667h80v-667q0 -84 -31.5 -157.5t-86.5 -128t-128 -86.5t-157 -32q-63 0 -121 19t-106 51v102zM154 1071h79v-1390h-79v1390z" />
    <glyph glyph-name="partialdiff" unicode="&#x2202;" horiz-adv-x="1186" 
d="M675 81q71 15 131 51.5t104 90t69 120t25 140.5q0 46 -9.5 84.5t-26.5 73t-39.5 67.5t-48.5 69l-529 634h105l487 -586q62 -74 101 -156.5t39 -185.5q0 -91 -31.5 -172t-86 -145.5t-129 -107.5t-161.5 -58v81zM511 0q-87 15 -162 58t-129.5 107.5t-86 145.5t-31.5 172
t31 172t86 145.5t129.5 108t160.5 58.5l61 -74q-81 -5 -152 -38.5t-123.5 -89t-82.5 -128t-30 -154.5q0 -74 25 -140.5t69 -120t104 -90t131 -51.5v-81z" />
    <glyph glyph-name="summation" unicode="&#x2211;" horiz-adv-x="1326" 
d="M82 1411h1121v-80h-1058zM595 706l-315 461h97l315 -461l-315 -462h-97zM145 80h1058v-80h-1121z" />
    <glyph glyph-name="product" unicode="&#x220f;" horiz-adv-x="1722" 
d="M143 1411h1436v-80h-1436v80zM1160 1167h80v-1167h-80v1167zM482 1167h80v-1167h-80v1167z" />
    <glyph glyph-name="pi" unicode="&#x3c0;" horiz-adv-x="1319" 
d="M133 958h1053v-79h-1053v79zM876 715h79v-528q0 -22 8.5 -41.5t23.5 -34t34.5 -23t41.5 -8.5h91v-80h-91q-39 0 -73 15t-59.5 40.5t-40 59.5t-14.5 72v528zM364 715h79v-715h-79v715z" />
    <glyph glyph-name="integral" unicode="&#x222b;" horiz-adv-x="1122" 
d="M139 -276q6 -2 13 -3q6 -1 14.5 -1.5t19.5 -0.5q53 0 92 20.5t65.5 55t42.5 81t24 97.5l223 1477q10 66 33.5 124.5t61.5 102.5t90 69.5t118 25.5q15 0 30.5 -2t32.5 -5l-17 -77q-6 1 -13 2q-6 1 -14 1.5t-19 0.5q-53 0 -92 -20t-65.5 -54.5t-42.5 -81t-24 -98.5
l-223 -1477q-10 -66 -33 -124t-60.5 -102t-89.5 -69.5t-120 -25.5q-32 0 -63 6l16 78v0z" />
    <glyph glyph-name="ordfeminine" unicode="&#xaa;" horiz-adv-x="1038" 
d="M411 841h304l-232 501l36 76l396 -860h-70l-102 219h-362zM440 1249l36 -78l-282 -613h-71z" />
    <glyph glyph-name="ordmasculine" unicode="&#xba;" horiz-adv-x="1139" 
d="M241 721q-46 57 -72 125.5t-26 146.5q0 88 33.5 166t91.5 135.5t135.5 91t165.5 33.5q78 0 147 -25.5t126 -71.5l-45 -45q-48 37 -105.5 58t-122.5 21q-75 0 -141 -28.5t-114.5 -78t-77 -115t-28.5 -140.5q0 -66 21 -123t58 -104zM342 711q46 -37 104 -58t123 -21
q75 0 141.5 28.5t115.5 77.5t77.5 115t28.5 141q0 65 -21.5 122t-58.5 105l45 45q46 -56 72 -125.5t26 -147.5q0 -88 -33.5 -165.5t-91 -135.5t-135.5 -91.5t-166 -33.5q-78 0 -147 26t-125 73z" />
    <glyph glyph-name="Omega" unicode="&#x3a9;" horiz-adv-x="1604" 
d="M1226 244q95 88 150.5 207.5t55.5 259.5q0 119 -42 225.5t-115.5 189.5t-173.5 137t-217 68v80q132 -15 246.5 -75.5t199 -153.5t133 -214t48.5 -257t-46 -254.5t-129 -212.5h-110zM267 244q-82 94 -128.5 212.5t-46.5 254.5t48.5 257t133 214t199.5 153.5t247 75.5v-80
q-117 -14 -217.5 -68t-174 -137t-115 -189.5t-41.5 -225.5q0 -140 55.5 -259.5t150.5 -207.5h-111zM1055 80h436v-80h-519zM113 80h436l83 -80h-519v80z" />
    <glyph glyph-name="ae" unicode="&#xe6;" horiz-adv-x="2213" 
d="M1471 1411h609v-80h-609v80zM728 433h500v978h80v-1411h-80v353h-566zM1064 1214v-123l-909 -1091h-104zM1471 745h472v-79h-472v79zM1471 80h609v-80h-609v80z" />
    <glyph glyph-name="oslash" unicode="&#xf8;" horiz-adv-x="1602" 
d="M323 186q-93 85 -152.5 198t-74.5 245h81q15 -114 66 -210.5t131 -170.5l805 967q-79 60 -174.5 92.5t-201.5 32.5q-132 0 -246 -48.5t-201 -135.5q-72 -72 -118.5 -164.5t-60.5 -198.5h-81q10 88 41 169t79 150.5t111.5 126.5t138.5 97t160 62t177 22q121 0 229 -37.5
t198 -105.5l111 134l63 -50l-113 -136q89 -85 145.5 -194.5t70.5 -237.5h-80q-14 106 -61.5 199t-125.5 171l-804 -966q78 -56 171 -86.5t196 -30.5q119 0 225.5 42t190 115.5t138.5 174t70 217.5h80q-15 -133 -75.5 -248t-155 -199.5t-216 -133t-257.5 -48.5
q-118 0 -224 35.5t-194 99.5l-113 -135l-63 50z" />
    <glyph glyph-name="questiondown" unicode="&#xbf;" horiz-adv-x="1106" 
d="M499 1434h126v-126h-126v126zM1014 340q-21 -74 -64.5 -136t-102.5 -107.5t-131.5 -71t-153.5 -25.5q-98 0 -183.5 37t-149 101t-100.5 149.5t-37 182.5q0 92 33.5 174t91.5 145t136.5 102t168.5 47v207h80v-285h-40q-80 0 -151 -31t-124 -84t-84 -124t-31 -151
q0 -81 30.5 -152t83.5 -124t124 -83.5t152 -30.5q63 0 121 19t106 53t84.5 82t56.5 106h84z" />
    <glyph glyph-name="exclamdown" unicode="&#xa1;" horiz-adv-x="474" 
d="M174 1411h126v-126h-126v126zM203 1122h67l13 -1122h-93z" />
    <glyph glyph-name="logicalnot" unicode="&#xac;" horiz-adv-x="1125" 
d="M143 745h839v-361h-80v282h-759v79z" />
    <glyph glyph-name="radical" unicode="&#x221a;" horiz-adv-x="1334" 
d="M699 403l455 1008h88l-501 -1108zM326 666h-203v79h256l271 -646l-45 -99z" />
    <glyph glyph-name="florin" unicode="&#x192;" horiz-adv-x="995" 
d="M113 -281q52 3 90.5 22.5t65 53.5t43 79t24.5 99l168 1114h-185v80h197l43 283q9 61 32 119t60.5 103t90 72.5t120.5 27.5v-80q-53 -2 -91.5 -22t-65.5 -53.5t-43 -79t-24 -99.5l-41 -271h227v-80h-239l-169 -1126q-9 -62 -32.5 -119.5t-61 -102.5t-90 -72t-119.5 -27v79
v0z" />
    <glyph glyph-name="approxequal" unicode="&#x2248;" horiz-adv-x="989" 
d="M123 805q0 44 16.5 82.5t45 67t67 45t82.5 16.5q43 0 81 -17t67 -46l82 -81q19 -17 42.5 -27.5t49.5 -10.5q27 0 50.5 10t41.5 28t28 42t10 51h80q0 -44 -16.5 -82.5t-45 -67t-67 -45t-81.5 -16.5q-44 0 -81.5 16.5t-66.5 44.5l-82 82q-18 18 -41.5 28.5t-50.5 10.5
t-51 -10.5t-41.5 -28.5t-28 -41.5t-10.5 -50.5h-80zM123 446q0 44 16.5 82.5t45 67t67 45t82.5 16.5q43 0 81 -16.5t67 -45.5l82 -81q19 -18 42.5 -28.5t49.5 -10.5q27 0 50.5 10.5t41.5 28t28 41.5t10 51h80q0 -44 -16.5 -82.5t-45 -67t-67 -45t-81.5 -16.5q-44 0 -81.5 17
t-66.5 45l-82 82q-18 17 -41.5 28t-50.5 11t-51 -10.5t-41.5 -28.5t-28 -42t-10.5 -51h-80z" />
    <glyph glyph-name="Delta" unicode="&#x2206;" horiz-adv-x="1494" 
d="M377 80h921l-598 1258l46 96l676 -1434h-1083zM610 1149l44 -93l-497 -1056h-85z" />
    <glyph glyph-name="guillemotleft" unicode="&#xab;" horiz-adv-x="1273" 
d="M1091 1044l49 -62l-357 -276l357 -278l-49 -62l-438 340zM92 706l437 338l50 -62l-357 -276l357 -278l-50 -62z" />
    <glyph glyph-name="guillemotright" unicode="&#xbb;" horiz-adv-x="1273" 
d="M1051 706l-357 276l49 62l438 -338l-438 -340l-49 62zM133 428l356 278l-356 276l49 62l438 -338l-438 -340z" />
    <glyph glyph-name="ellipsis" unicode="&#x2026;" horiz-adv-x="1238" 
d="M969 126h126v-126h-126v126zM556 126h126v-126h-126v126zM143 126h126v-126h-126v126z" />
    <glyph glyph-name="nonbreakingspace" unicode="&#xa0;" horiz-adv-x="557" 
 />
    <glyph glyph-name="Atilde" unicode="&#xc3;" horiz-adv-x="1462" 
d="M555 471h531l-399 867l44 96l660 -1434h-88l-181 391h-604zM598 1145l44 -96l-482 -1049h-88zM417 1562q0 40 15 75t41.5 61.5t61.5 41.5t75 15q32 0 62 -12t55 -33l66 -54q29 -26 65 -26q24 0 44.5 9t36 24t24.5 36t9 45h80q0 -41 -15 -76t-41.5 -61.5t-62 -41.5
t-75.5 -15q-33 0 -62.5 12.5t-54.5 32.5l-66 55q-16 12 -31.5 18.5t-33.5 6.5q-24 0 -44.5 -8.5t-35.5 -24t-24 -36t-9 -44.5h-80z" />
    <glyph glyph-name="Otilde" unicode="&#xd5;" 
d="M245 269q-72 91 -112.5 203.5t-40.5 238.5q0 98 25.5 188.5t71.5 169.5t111 143.5t144 110.5t169.5 71.5t188.5 25.5q125 0 237 -40.5t203 -112.5l-56 -57q-81 62 -178 96t-206 34q-131 0 -245.5 -49.5t-200 -135t-135 -200t-49.5 -244.5q0 -110 34 -207t96 -177z
M418 210q79 -62 177 -96t207 -34q87 0 168 22.5t151 63.5t127.5 98.5t98.5 127.5t63.5 150.5t22.5 168.5q0 109 -35 206t-96 177l57 57q72 -91 112.5 -203t40.5 -237q0 -98 -25.5 -189t-71.5 -170t-111 -144t-144 -111t-169.5 -71.5t-188.5 -25.5q-126 0 -238 40.5
t-203 113.5zM485 1562q0 40 15 75t41.5 61.5t61.5 41.5t76 15q32 0 62 -12t55 -33l65 -54q30 -26 66 -26q23 0 43.5 9t36 24t24.5 36t9 45h80q0 -41 -15 -76t-41.5 -61.5t-61.5 -41.5t-75 -15q-33 0 -62.5 12.5t-54.5 32.5l-67 55q-31 25 -64 25q-24 0 -45 -8.5t-36 -24
t-24 -36t-9 -44.5h-80z" />
    <glyph glyph-name="OE" unicode="&#x152;" horiz-adv-x="2408" 
d="M92 793q10 88 41 169t79 150.5t111.5 126.5t138.5 97t160 62t177 22q101 0 194.5 -27t174 -76t145.5 -118t110 -152v364h80v-618h-80q-15 117 -70 217t-138 173.5t-190 115t-226 41.5q-120 0 -227 -41.5t-190.5 -115t-138.5 -173.5t-70 -217h-81zM1667 1411h608v-80h-608
v80zM1667 745h471v-79h-471v79zM173 629q10 -78 38.5 -149t71.5 -132t99 -110.5t122 -84.5t140.5 -54t154.5 -19q119 0 225.5 42t190 115.5t138.5 174t70 217.5h80v-629h-80v373q-45 -83 -110 -152t-145.5 -118t-174 -76t-194.5 -27q-137 0 -259 48.5t-216.5 133
t-155.5 199.5t-76 248h81zM1667 80h608v-80h-608v80z" />
    <glyph glyph-name="oe" unicode="&#x153;" horiz-adv-x="2408" 
d="M92 793q10 88 41 169t79 150.5t111.5 126.5t138.5 97t160 62t177 22q101 0 194.5 -27t174 -76t145.5 -118t110 -152v364h80v-618h-80q-15 117 -70 217t-138 173.5t-190 115t-226 41.5q-120 0 -227 -41.5t-190.5 -115t-138.5 -173.5t-70 -217h-81zM1667 1411h608v-80h-608
v80zM1667 745h471v-79h-471v79zM173 629q10 -78 38.5 -149t71.5 -132t99 -110.5t122 -84.5t140.5 -54t154.5 -19q119 0 225.5 42t190 115.5t138.5 174t70 217.5h80v-629h-80v373q-45 -83 -110 -152t-145.5 -118t-174 -76t-194.5 -27q-137 0 -259 48.5t-216.5 133
t-155.5 199.5t-76 248h81zM1667 80h608v-80h-608v80z" />
    <glyph glyph-name="endash" unicode="&#x2013;" horiz-adv-x="1218" 
d="M143 745h931v-79h-931v79z" />
    <glyph glyph-name="emdash" unicode="&#x2014;" horiz-adv-x="1710" 
d="M143 745h1424v-79h-1424v79z" />
    <glyph glyph-name="quotedblleft" unicode="&#x201c;" horiz-adv-x="952" 
d="M741 1411h88l-220 -479h-88zM343 1411h88l-220 -479h-88z" />
    <glyph glyph-name="quotedblright" unicode="&#x201d;" horiz-adv-x="952" 
d="M741 1411h88l-220 -479h-88zM343 1411h88l-220 -479h-88z" />
    <glyph glyph-name="quoteleft" unicode="&#x2018;" horiz-adv-x="554" 
d="M343 1411h88l-220 -479h-88z" />
    <glyph glyph-name="quoteright" unicode="&#x2019;" horiz-adv-x="554" 
d="M343 1411h88l-220 -479h-88z" />
    <glyph glyph-name="divide" unicode="&#xf7;" horiz-adv-x="1125" 
d="M500 1070h126v-126h-126v126zM143 745h839v-79h-839v79zM500 467h126v-126h-126v126z" />
    <glyph glyph-name="lozenge" unicode="&#x25ca;" horiz-adv-x="1455" 
d="M728 1578l655 -872l-655 -873l-656 873zM728 -34l555 740l-555 739l-556 -739z" />
    <glyph glyph-name="ydieresis" unicode="&#xff;" horiz-adv-x="1351" 
d="M636 625l536 786h97l-553 -809v-602h-80v625zM82 1411h96l399 -583l-49 -70zM816 1725h119v-118h-119v118zM416 1725h119v-118h-119v118z" />
    <glyph glyph-name="Ydieresis" unicode="&#x178;" horiz-adv-x="1351" 
d="M636 625l536 786h97l-553 -809v-602h-80v625zM82 1411h96l399 -583l-49 -70zM816 1725h119v-118h-119v118zM416 1725h119v-118h-119v118z" />
    <glyph glyph-name="fraction" unicode="&#x2044;" horiz-adv-x="290" 
d="M-239 0l697 1411h70l-696 -1411h-71z" />
    <glyph glyph-name="Euro" unicode="&#x20ac;" horiz-adv-x="1513" 
d="M974 1411q114 -12 214.5 -59t181.5 -121l-54 -60q-69 64 -156 105.5t-186 54.5v80zM92 916h121q30 99 87.5 184.5t135 150t172.5 106.5t202 54v-80q-90 -12 -170 -47t-146.5 -89t-117 -125t-80.5 -154h601v-79h-805v79zM92 575h805v-79h-600q30 -84 80 -155t116.5 -125
t147 -88.5t169.5 -46.5v-81q-107 12 -202 54t-172.5 107t-134.5 150t-88 185h-121v79zM974 81q99 13 186 54.5t156 105.5l54 -60q-81 -73 -181.5 -120t-214.5 -61v81z" />
    <glyph glyph-name="guilsinglleft" unicode="&#x2039;" horiz-adv-x="712" 
d="M92 706l437 338l50 -62l-357 -276l357 -278l-50 -62z" />
    <glyph glyph-name="guilsinglright" unicode="&#x203a;" horiz-adv-x="712" 
d="M133 428l356 278l-356 276l49 62l438 -338l-438 -340z" />
    <glyph glyph-name="fi" unicode="&#xfb01;" horiz-adv-x="1720" 
d="M397 1411h1078v-1411h-80v1331h-998v80zM154 1411h79v-1411h-79v1411zM397 745h479v-79h-479v79z" />
    <glyph glyph-name="fl" unicode="&#xfb02;" horiz-adv-x="2157" 
d="M1313 1331h-916v80h996v-1411h-80v1331zM154 1411h79v-1411h-79v1411zM397 745h479v-79h-479v79zM1556 80h498v-80h-498v80z" />
    <glyph glyph-name="daggerdbl" unicode="&#x2021;" horiz-adv-x="1170" 
d="M92 1192h453v534h80v-534h453v-80h-986v80zM545 948h80v-393h-80v393zM92 391h986v-80h-453v-534h-80v534h-453v80z" />
    <glyph glyph-name="periodcentered" unicode="&#xb7;" horiz-adv-x="413" 
d="M143 769h126v-126h-126v126z" />
    <glyph glyph-name="quotesinglbase" unicode="&#x201a;" horiz-adv-x="326" 
d="M123 504h80v-504h-80v504z" />
    <glyph glyph-name="quotedblbase" unicode="&#x201e;" horiz-adv-x="716" 
d="M513 504h80v-504h-80v504zM123 504h80v-504h-80v504z" />
    <glyph glyph-name="perthousand" unicode="&#x2030;" horiz-adv-x="3012" 
d="M1311 1411h88l-649 -1411h-88zM114 1114q14 63 48 117.5t82.5 94.5t109.5 62.5t129 22.5t129.5 -22.5t110 -62.5t83 -94.5t48.5 -117.5h-82q-14 47 -42 87t-65.5 69t-84 45t-97.5 16q-50 0 -96 -16t-84 -45t-66 -69t-41 -87h-82zM854 950q-14 -64 -48 -118.5t-83 -94.5
t-110.5 -62.5t-129.5 -22.5t-129 22.5t-109.5 62.5t-83 94.5t-48.5 118.5h83q13 -48 41 -88t65.5 -69t83.5 -45t97 -16t97.5 16t84.5 45t65.5 69t41.5 88h82zM2159 462q13 63 47 117.5t83 94.5t110 62.5t129 22.5t129.5 -22.5t110 -62.5t83 -94.5t48.5 -117.5h-82
q-14 47 -42 87t-66 69t-84 45t-97 16q-50 0 -96 -16t-84 -45t-66 -69t-41 -87h-82zM1228 462q14 63 48 117.5t82.5 94.5t109.5 62.5t129 22.5t129.5 -22.5t110 -62.5t83 -94.5t48.5 -117.5h-82q-14 47 -42 87t-65.5 69t-84 45t-97.5 16q-50 0 -96 -16t-84 -45t-65.5 -69
t-41.5 -87h-82zM2241 298q13 -48 41 -88t65.5 -69t83.5 -45t97 -16t97.5 16t84.5 45t65.5 69t41.5 88h82q-14 -64 -48 -118.5t-83 -94.5t-110.5 -62.5t-129.5 -22.5t-129 22.5t-110 62.5t-83 94.5t-48 118.5h83zM1310 298q14 -48 41.5 -88t65 -69t83.5 -45t97 -16t97.5 16
t84.5 45t65.5 69t41.5 88h82q-14 -64 -48 -118.5t-83 -94.5t-110.5 -62.5t-129.5 -22.5t-129 22.5t-109.5 62.5t-83 94.5t-48.5 118.5h83z" />
    <glyph glyph-name="Acircumflex" unicode="&#xc2;" horiz-adv-x="1462" 
d="M555 471h531l-399 867l44 96l660 -1434h-88l-181 391h-604zM598 1145l44 -96l-482 -1049h-88zM457 1603l274 233l275 -233l-53 -61l-222 189l-222 -189z" />
    <glyph glyph-name="Ecircumflex" unicode="&#xca;" horiz-adv-x="1139" 
d="M397 1411h609v-80h-609v80zM154 1411h79v-1411h-79v1411zM397 745h471v-79h-471v79zM397 80h609v-80h-609v80zM305 1622l275 233l274 -233l-52 -60l-222 188l-223 -188z" />
    <glyph glyph-name="Edieresis" unicode="&#xcb;" horiz-adv-x="1139" 
d="M397 1411h609v-80h-609v80zM154 1411h79v-1411h-79v1411zM397 745h471v-79h-471v79zM397 80h609v-80h-609v80zM721 1725h119v-118h-119v118zM321 1725h118v-118h-118v118z" />
    <glyph glyph-name="Icircumflex" unicode="&#xce;" horiz-adv-x="571" 
d="M246 1411h80v-1411h-80v1411zM11 1612l275 233l274 -233l-52 -61l-222 189l-223 -189z" />
    <glyph glyph-name="Idieresis" unicode="&#xcf;" horiz-adv-x="571" 
d="M246 1411h80v-1411h-80v1411zM427 1725h119v-118h-119v118zM27 1725h118v-118h-118v118z" />
    <glyph glyph-name="Ocircumflex" unicode="&#xd4;" 
d="M245 269q-72 91 -112.5 203.5t-40.5 238.5q0 98 25.5 188.5t71.5 169.5t111 143.5t144 110.5t169.5 71.5t188.5 25.5q125 0 237 -40.5t203 -112.5l-56 -57q-81 62 -178 96t-206 34q-131 0 -245.5 -49.5t-200 -135t-135 -200t-49.5 -244.5q0 -110 34 -207t96 -177z
M418 210q79 -62 177 -96t207 -34q87 0 168 22.5t151 63.5t127.5 98.5t98.5 127.5t63.5 150.5t22.5 168.5q0 109 -35 206t-96 177l57 57q72 -91 112.5 -203t40.5 -237q0 -98 -25.5 -189t-71.5 -170t-111 -144t-144 -111t-169.5 -71.5t-188.5 -25.5q-126 0 -238 40.5
t-203 113.5zM523 1603l275 233l274 -233l-52 -61l-222 189l-223 -189z" />
    <glyph glyph-name="uniF8FF" unicode="&#xf8ff;" 
 />
    <glyph glyph-name="Ucircumflex" unicode="&#xdb;" horiz-adv-x="1367" 
d="M766 80q79 15 146.5 55t117 99t77 132.5t27.5 155.5v889h79v-889q0 -99 -34.5 -187.5t-94.5 -158t-141.5 -115.5t-176.5 -61v80zM154 1411h79v-889q0 -82 28 -155.5t77 -132.5t116.5 -99t147.5 -55v-80q-95 15 -177 61t-142 115.5t-94.5 158t-34.5 187.5v889zM409 1603
l274 233l274 -233l-52 -61l-222 189l-222 -189z" />
    <glyph glyph-name="dotlessi" unicode="&#x131;" horiz-adv-x="612" 
d="M266 1411h80v-1411h-80v1411z" />
    <glyph glyph-name="circumflex" unicode="&#x2c6;" horiz-adv-x="836" 
d="M143 1612l275 233l274 -233l-52 -61l-222 189l-222 -189z" />
    <glyph glyph-name="tilde" unicode="&#x2dc;" horiz-adv-x="922" 
d="M143 1562q0 40 15 75t41.5 61.5t61.5 41.5t76 15q32 0 62 -12t55 -33l65 -54q30 -26 66 -26q23 0 43.5 9t36 24t24.5 36t9 45h80q0 -41 -15 -76t-41.5 -61.5t-61.5 -41.5t-75 -15q-33 0 -62.5 12.5t-54.5 32.5l-67 55q-31 25 -64 25q-24 0 -45 -8.5t-36 -24t-24 -36
t-9 -44.5h-80v0z" />
    <glyph glyph-name="macron" unicode="&#xaf;" horiz-adv-x="905" 
d="M143 1712h619v-80h-619v80z" />
    <glyph glyph-name="breve" unicode="&#x2d8;" horiz-adv-x="903" 
d="M760 1785q-18 -47 -48.5 -85.5t-70.5 -67t-88 -44t-101 -15.5t-101 15.5t-88.5 44t-71 67t-48.5 85.5h88q32 -61 90.5 -96.5t130.5 -35.5t130.5 36t90.5 96h87z" />
    <glyph glyph-name="dotaccent" unicode="&#x2d9;" horiz-adv-x="430" 
d="M143 1738h144v-144h-144v144z" />
    <glyph glyph-name="ring" unicode="&#x2da;" horiz-adv-x="641" 
d="M321 1506q-37 0 -69.5 14t-56.5 38t-38 56.5t-14 68.5q0 37 14 69.5t38 56.5t56.5 38t69.5 14q36 0 68.5 -14t56.5 -38t38 -56.5t14 -69.5q0 -36 -14 -68.5t-38 -56.5t-56.5 -38t-68.5 -14zM321 1578q22 0 41 8t33 22.5t22.5 33.5t8.5 41t-8.5 41.5t-22.5 33.5t-33 22.5
t-41 8.5q-45 0 -75.5 -30.5t-30.5 -75.5q0 -22 8.5 -41t22.5 -33t33.5 -22.5t41.5 -8.5z" />
    <glyph glyph-name="cedilla" unicode="&#xb8;" horiz-adv-x="596" 
d="M365 -140q7 -2 25 -9.5t36.5 -23.5t32.5 -41.5t14 -63.5q0 -35 -13 -62t-33.5 -45t-46 -27.5t-51.5 -9.5h-206l38 74h168q10 0 22.5 3.5t23 11.5t17.5 21.5t7 33.5t-7 33t-16.5 21t-19.5 12t-16 6l-69 21l18 67z" />
    <glyph glyph-name="hungarumlaut" unicode="&#x2dd;" horiz-adv-x="924" 
d="M498 1607l221 275l61 -50l-220 -276zM143 1607l222 275l61 -50l-220 -276z" />
    <glyph glyph-name="ogonek" unicode="&#x2db;" horiz-adv-x="586" 
d="M290 -118h104l-169 -169q5 -23 24 -39t45 -16h148v-80h-148q-31 0 -58.5 12t-48 32t-32.5 47.5t-12 58.5v8z" />
    <glyph glyph-name="caron" unicode="&#x2c7;" horiz-adv-x="836" 
d="M143 1785l53 60l222 -188l222 188l52 -60l-274 -234z" />
    <glyph glyph-name=".notdef.115" unicode="&#xfd;" horiz-adv-x="1351" 
d="M636 625l536 786h97l-553 -809v-602h-80v625zM82 1411h96l399 -583l-49 -70zM613 1607l222 275l61 -50l-220 -276z" />
    <glyph glyph-name=".notdef.049" unicode="&#xdd;" horiz-adv-x="1351" 
d="M636 625l536 786h97l-553 -809v-602h-80v625zM82 1411h96l399 -583l-49 -70zM613 1607l222 275l61 -50l-220 -276z" />
    <glyph glyph-name="Ccaron" unicode="&#x10c;" horiz-adv-x="1424" 
d="M885 1411q114 -12 214.5 -59t181.5 -121l-54 -60q-69 64 -156 105.5t-186 54.5v80zM721 0q-133 15 -248 76t-199.5 155.5t-133 216.5t-48.5 259q0 91 22 176t62.5 159.5t97.5 138t126.5 111t150.5 78.5t170 41v-80q-117 -15 -217.5 -70t-174 -138t-115.5 -190t-42 -226
q0 -120 42 -227t115.5 -190.5t174 -138.5t217.5 -70v-81zM885 81q99 13 186 54.5t156 105.5l54 -60q-81 -73 -181.5 -120t-214.5 -61v81zM523 1776l52 60l223 -188l222 188l52 -60l-274 -234z" />
    <glyph glyph-name="ccaron" unicode="&#x10d;" horiz-adv-x="1424" 
d="M885 1411q114 -12 214.5 -59t181.5 -121l-54 -60q-69 64 -156 105.5t-186 54.5v80zM721 0q-133 15 -248 76t-199.5 155.5t-133 216.5t-48.5 259q0 91 22 176t62.5 159.5t97.5 138t126.5 111t150.5 78.5t170 41v-80q-117 -15 -217.5 -70t-174 -138t-115.5 -190t-42 -226
q0 -120 42 -227t115.5 -190.5t174 -138.5t217.5 -70v-81zM885 81q99 13 186 54.5t156 105.5l54 -60q-81 -73 -181.5 -120t-214.5 -61v81zM523 1776l52 60l223 -188l222 188l52 -60l-274 -234z" />
    <glyph glyph-name="Dslash" unicode="&#x110;" horiz-adv-x="1339" 
d="M397 80h145q86 0 166 22.5t149.5 63t126.5 98t97.5 127t63 149.5t22.5 166t-22.5 166t-63 149.5t-97.5 126.5t-126.5 97.5t-149.5 63t-166 22.5h-145v80h145q97 0 187 -25t168.5 -71t143 -110.5t110.5 -142.5t71 -168.5t25 -187.5q0 -98 -25 -188t-71 -168.5t-110.5 -143
t-143 -110.5t-168.5 -71t-187 -25h-145v80zM0 745h154v666h79v-666h503v-79h-736v79zM154 502h79v-502h-79v502z" />
    <glyph glyph-name="dcroat" unicode="&#x111;" horiz-adv-x="1339" 
d="M397 80h145q86 0 166 22.5t149.5 63t126.5 98t97.5 127t63 149.5t22.5 166t-22.5 166t-63 149.5t-97.5 126.5t-126.5 97.5t-149.5 63t-166 22.5h-145v80h145q97 0 187 -25t168.5 -71t143 -110.5t110.5 -142.5t71 -168.5t25 -187.5q0 -98 -25 -188t-71 -168.5t-110.5 -143
t-143 -110.5t-168.5 -71t-187 -25h-145v80zM0 745h154v666h79v-666h503v-79h-736v79zM154 502h79v-502h-79v502z" />
    <glyph glyph-name=".notdef.018" unicode="&#x128;" horiz-adv-x="571" 
d="M246 1411h80v-1411h-80v1411zM-2 1538q0 40 15 75.5t41.5 62t61.5 41.5t75 15q32 0 62 -12.5t55 -32.5l66 -55q29 -25 65 -25q24 0 44.5 9t36 24t24.5 35.5t9 44.5h80q0 -40 -15 -75t-41.5 -61.5t-62 -41.5t-75.5 -15q-33 0 -62.5 12t-53.5 33l-67 54q-15 12 -31 19
t-34 7q-24 0 -44.5 -8.5t-35.5 -24t-24 -36.5t-9 -45h-80z" />
    <glyph glyph-name=".notdef.084" unicode="&#x129;" horiz-adv-x="571" 
d="M246 1411h80v-1411h-80v1411zM-2 1538q0 40 15 75.5t41.5 62t61.5 41.5t75 15q32 0 62 -12.5t55 -32.5l66 -55q29 -25 65 -25q24 0 44.5 9t36 24t24.5 35.5t9 44.5h80q0 -40 -15 -75t-41.5 -61.5t-62 -41.5t-75.5 -15q-33 0 -62.5 12t-53.5 33l-67 54q-15 12 -31 19
t-34 7q-24 0 -44.5 -8.5t-35.5 -24t-24 -36.5t-9 -45h-80z" />
    <glyph glyph-name=".notdef.034" unicode="&#x168;" horiz-adv-x="1367" 
d="M766 80q79 15 146.5 55t117 99t77 132.5t27.5 155.5v889h79v-889q0 -99 -34.5 -187.5t-94.5 -158t-141.5 -115.5t-176.5 -61v80zM154 1411h79v-889q0 -82 28 -155.5t77 -132.5t116.5 -99t147.5 -55v-80q-95 15 -177 61t-142 115.5t-94.5 158t-34.5 187.5v889zM370 1562
q0 40 15 75t41.5 61.5t61.5 41.5t76 15q32 0 62 -12t55 -33l65 -54q30 -26 66 -26q23 0 43.5 9t36 24t24.5 36t9 45h80q0 -41 -15 -76t-41.5 -61.5t-61.5 -41.5t-75 -15q-33 0 -62.5 12.5t-54.5 32.5l-67 55q-31 25 -64 25q-24 0 -45 -8.5t-36 -24t-24 -36t-9 -44.5h-80z
" />
    <glyph glyph-name=".notdef.042" unicode="&#x1a0;" 
d="M245 269q-72 91 -112.5 203.5t-40.5 238.5q0 98 25.5 188.5t71.5 169.5t111 143.5t144 110.5t169.5 71.5t188.5 25.5q125 0 237 -40.5t203 -112.5l-56 -57q-81 62 -178 96t-206 34q-131 0 -245.5 -49.5t-200 -135t-135 -200t-49.5 -244.5q0 -110 34 -207t96 -177z
M418 210q79 -62 177 -96t207 -34q87 0 168 22.5t151 63.5t127.5 98.5t98.5 127.5t63.5 150.5t22.5 168.5q0 109 -35 206t-96 177l57 57q72 -91 112.5 -203t40.5 -237q0 -98 -25.5 -189t-71.5 -170t-111 -144t-144 -111t-169.5 -71.5t-188.5 -25.5q-126 0 -238 40.5
t-203 113.5zM1205 1516q6 1 21 4.5t34 2.5t39.5 -10t36.5 -33q15 -22 16.5 -44.5t-5 -43t-19 -39t-27.5 -31.5l-115 -105v79l72 66q8 7 16 16t13.5 19t5.5 21.5t-8 23.5q-9 13 -19 18.5t-19.5 6.5t-18 -1t-12.5 -3z" />
    <glyph glyph-name=".notdef.036" unicode="&#x1af;" horiz-adv-x="1367" 
d="M766 80q79 15 146.5 55t117 99t77 132.5t27.5 155.5v889h79v-889q0 -99 -34.5 -187.5t-94.5 -158t-141.5 -115.5t-176.5 -61v80zM154 1411h79v-889q0 -82 28 -155.5t77 -132.5t116.5 -99t147.5 -55v-80q-95 15 -177 61t-142 115.5t-94.5 158t-34.5 187.5v889zM1207 1548
q6 1 21 4.5t34 2.5t39.5 -10t36.5 -33q15 -22 16.5 -44.5t-5 -43t-19 -39t-27.5 -31.5l-115 -105v79l72 66q8 7 16 16t13.5 19t5.5 21.5t-8 23.5q-9 13 -19 18.5t-19.5 6.5t-18 -1t-12.5 -3z" />
    <glyph glyph-name=".notdef.100" unicode="&#x169;" horiz-adv-x="1367" 
d="M766 80q79 15 146.5 55t117 99t77 132.5t27.5 155.5v889h79v-889q0 -99 -34.5 -187.5t-94.5 -158t-141.5 -115.5t-176.5 -61v80zM154 1411h79v-889q0 -82 28 -155.5t77 -132.5t116.5 -99t147.5 -55v-80q-95 15 -177 61t-142 115.5t-94.5 158t-34.5 187.5v889zM370 1562
q0 40 15 75t41.5 61.5t61.5 41.5t76 15q32 0 62 -12t55 -33l65 -54q30 -26 66 -26q23 0 43.5 9t36 24t24.5 36t9 45h80q0 -41 -15 -76t-41.5 -61.5t-61.5 -41.5t-75 -15q-33 0 -62.5 12.5t-54.5 32.5l-67 55q-31 25 -64 25q-24 0 -45 -8.5t-36 -24t-24 -36t-9 -44.5h-80z
" />
    <glyph glyph-name=".notdef.131" unicode="&#x102;" horiz-adv-x="1462" 
d="M555 471h531l-399 867l44 96l660 -1434h-88l-181 391h-604zM598 1145l44 -96l-482 -1049h-88zM1022 1735q-17 -44 -46 -80.5t-66.5 -63t-83 -41.5t-95.5 -15t-95.5 15t-83.5 41.5t-67 63t-46 80.5h93q30 -57 80.5 -89t118.5 -32q69 0 118.5 32t80.5 89h92z" />
    <glyph glyph-name=".notdef.124" unicode="&#x1ea0;" horiz-adv-x="1462" 
d="M555 471h531l-399 867l44 96l660 -1434h-88l-181 391h-604zM598 1145l44 -96l-482 -1049h-88zM661 -133h126v-126h-126v126z" />
    <glyph glyph-name=".notdef.127" unicode="&#x1ea4;" horiz-adv-x="1462" 
d="M555 471h531l-399 867l44 96l660 -1434h-88l-181 391h-604zM598 1145l44 -96l-482 -1049h-88zM457 1516l274 233l275 -233l-53 -61l-222 189l-222 -189zM931 1671l221 275l62 -50l-220 -276z" />
    <glyph glyph-name=".notdef.126" unicode="&#x1ea6;" horiz-adv-x="1462" 
d="M555 471h531l-399 867l44 96l660 -1434h-88l-181 391h-604zM598 1145l44 -96l-482 -1049h-88zM457 1516l274 233l275 -233l-53 -61l-222 189l-222 -189zM778 1907l62 50l221 -275l-63 -51z" />
    <glyph glyph-name=".notdef.128" unicode="&#x1ea8;" horiz-adv-x="1462" 
d="M555 471h531l-399 867l44 96l660 -1434h-88l-181 391h-604zM598 1145l44 -96l-482 -1049h-88zM455 1521l274 233l275 -233l-53 -61l-222 189l-222 -189zM906 1959q10 18 26 33q13 12 33 22.5t48 10.5q45 0 76.5 -20t46.5 -53q7 -15 10.5 -37t-1 -46.5t-18.5 -49.5
t-43 -46l-115 -89v97q19 14 36.5 25t31 22.5t22 24.5t8.5 31q0 24 -16.5 45.5t-48.5 21.5q-17 0 -29 -8t-20 -18q-10 -11 -16 -26z" />
    <glyph glyph-name=".notdef.122" unicode="&#x1ea2;" horiz-adv-x="1462" 
d="M555 471h531l-399 867l44 96l660 -1434h-88l-181 391h-604zM598 1145l44 -96l-482 -1049h-88zM662 1806q10 18 26 33q13 12 33 22.5t48 10.5q45 0 76.5 -20t46.5 -53q7 -15 10.5 -37t-1 -46.5t-18.5 -49.5t-43 -46l-115 -89v97q19 14 36.5 25t31 22.5t22 24.5t8.5 31
q0 24 -16.5 45.5t-48.5 21.5q-17 0 -29 -8t-20 -18q-10 -11 -16 -26z" />
    <glyph glyph-name=".notdef.129" unicode="&#x1eaa;" horiz-adv-x="1462" 
d="M555 471h531l-399 867l44 96l660 -1434h-88l-181 391h-604zM598 1145l44 -96l-482 -1049h-88zM457 1516l274 233l275 -233l-53 -61l-222 189l-222 -189zM495 1769q0 40 15 75t41.5 61.5t61.5 41.5t75 15q32 0 62 -12t55 -33l66 -54q29 -26 65 -26q24 0 44.5 9t36 24
t24.5 36t9 45h80q0 -41 -15 -76t-41.5 -61.5t-62 -41.5t-75.5 -15q-33 0 -62.5 12.5t-54.5 32.5l-66 55q-16 12 -31.5 18.5t-33.5 6.5q-24 0 -44.5 -8.5t-35.5 -24t-24 -36t-9 -44.5h-80z" />
    <glyph glyph-name=".notdef.130" unicode="&#x1eac;" horiz-adv-x="1462" 
d="M555 471h531l-399 867l44 96l660 -1434h-88l-181 391h-604zM598 1145l44 -96l-482 -1049h-88zM457 1516l274 233l275 -233l-53 -61l-222 189l-222 -189zM661 -133h126v-126h-126v126z" />
    <glyph glyph-name=".notdef.060" unicode="&#x1ea5;" horiz-adv-x="1462" 
d="M555 471h531l-399 867l44 96l660 -1434h-88l-181 391h-604zM598 1145l44 -96l-482 -1049h-88zM457 1516l274 233l275 -233l-53 -61l-222 189l-222 -189zM931 1671l221 275l62 -50l-220 -276z" />
    <glyph glyph-name=".notdef.059" unicode="&#x1ea7;" horiz-adv-x="1462" 
d="M555 471h531l-399 867l44 96l660 -1434h-88l-181 391h-604zM598 1145l44 -96l-482 -1049h-88zM457 1516l274 233l275 -233l-53 -61l-222 189l-222 -189zM778 1907l62 50l221 -275l-63 -51z" />
    <glyph glyph-name=".notdef.062" unicode="&#x1eab;" horiz-adv-x="1462" 
d="M555 471h531l-399 867l44 96l660 -1434h-88l-181 391h-604zM598 1145l44 -96l-482 -1049h-88zM457 1516l274 233l275 -233l-53 -61l-222 189l-222 -189zM495 1769q0 40 15 75t41.5 61.5t61.5 41.5t75 15q32 0 62 -12t55 -33l66 -54q29 -26 65 -26q24 0 44.5 9t36 24
t24.5 36t9 45h80q0 -41 -15 -76t-41.5 -61.5t-62 -41.5t-75.5 -15q-33 0 -62.5 12.5t-54.5 32.5l-66 55q-16 12 -31.5 18.5t-33.5 6.5q-24 0 -44.5 -8.5t-35.5 -24t-24 -36t-9 -44.5h-80z" />
    <glyph glyph-name=".notdef.063" unicode="&#x1ead;" horiz-adv-x="1462" 
d="M555 471h531l-399 867l44 96l660 -1434h-88l-181 391h-604zM598 1145l44 -96l-482 -1049h-88zM457 1516l274 233l275 -233l-53 -61l-222 189l-222 -189zM661 -60h126v-126h-126v126z" />
    <glyph glyph-name=".notdef.133" unicode="&#x1eae;" horiz-adv-x="1462" 
d="M555 471h531l-399 867l44 96l660 -1434h-88l-181 391h-604zM598 1145l44 -96l-482 -1049h-88zM674 1775l221 275l62 -50l-220 -276zM1022 1735q-17 -44 -46 -80.5t-66.5 -63t-83 -41.5t-95.5 -15t-95.5 15t-83.5 41.5t-67 63t-46 80.5h93q30 -57 80.5 -89t118.5 -32
q69 0 118.5 32t80.5 89h92z" />
    <glyph glyph-name=".notdef.132" unicode="&#x1eb0;" horiz-adv-x="1462" 
d="M555 471h531l-399 867l44 96l660 -1434h-88l-181 391h-604zM598 1145l44 -96l-482 -1049h-88zM517 2033l62 50l221 -275l-63 -51zM1022 1735q-17 -44 -46 -80.5t-66.5 -63t-83 -41.5t-95.5 -15t-95.5 15t-83.5 41.5t-67 63t-46 80.5h93q30 -57 80.5 -89t118.5 -32
q69 0 118.5 32t80.5 89h92z" />
    <glyph glyph-name=".notdef.003" unicode="&#x1eb4;" horiz-adv-x="1462" 
d="M555 471h531l-399 867l44 96l660 -1434h-88l-181 391h-604zM598 1145l44 -96l-482 -1049h-88zM710 1802q0 40 15 75t41.5 61.5t61.5 41.5t76 15q32 0 62 -12t55 -33l65 -54q30 -26 66 -26q23 0 43.5 9t36 24t24.5 36t9 45h80q0 -41 -15 -76t-41.5 -61.5t-61.5 -41.5
t-75 -15q-33 0 -62.5 12.5t-54.5 32.5l-67 55q-31 25 -64 25q-24 0 -45 -8.5t-36 -24t-24 -36t-9 -44.5h-80zM1022 1735q-17 -44 -46 -80.5t-66.5 -63t-83 -41.5t-95.5 -15t-95.5 15t-83.5 41.5t-67 63t-46 80.5h93q30 -57 80.5 -89t118.5 -32q69 0 118.5 32t80.5 89h92z
" />
    <glyph glyph-name=".notdef.002" unicode="&#x1eb2;" horiz-adv-x="1462" 
d="M555 471h531l-399 867l44 96l660 -1434h-88l-181 391h-604zM598 1145l44 -96l-482 -1049h-88zM1022 1735q-17 -44 -46 -80.5t-66.5 -63t-83 -41.5t-95.5 -15t-95.5 15t-83.5 41.5t-67 63t-46 80.5h93q30 -57 80.5 -89t118.5 -32q69 0 118.5 32t80.5 89h92zM662 2015
q10 18 26 33q13 12 33 22.5t48 10.5q45 0 76.5 -20t46.5 -53q7 -15 10.5 -37t-1 -46.5t-18.5 -49.5t-43 -46l-115 -89v97q19 14 36.5 25t31 22.5t22 24.5t8.5 31q0 24 -16.5 45.5t-48.5 21.5q-17 0 -29 -8t-20 -18q-10 -11 -16 -26z" />
    <glyph glyph-name=".notdef.004" unicode="&#x1eb6;" horiz-adv-x="1462" 
d="M555 471h531l-399 867l44 96l660 -1434h-88l-181 391h-604zM598 1145l44 -96l-482 -1049h-88zM661 -60h126v-126h-126v126zM1022 1735q-17 -44 -46 -80.5t-66.5 -63t-83 -41.5t-95.5 -15t-95.5 15t-83.5 41.5t-67 63t-46 80.5h93q30 -57 80.5 -89t118.5 -32
q69 0 118.5 32t80.5 89h92z" />
    <glyph glyph-name=".notdef.057" unicode="&#x1ea1;" horiz-adv-x="1462" 
d="M555 471h531l-399 867l44 96l660 -1434h-88l-181 391h-604zM598 1145l44 -96l-482 -1049h-88zM661 -133h126v-126h-126v126z" />
    <glyph glyph-name=".notdef.008" unicode="&#x1eb8;" horiz-adv-x="1139" 
d="M397 1411h609v-80h-609v80zM154 1411h79v-1411h-79v1411zM397 745h471v-79h-471v79zM397 80h609v-80h-609v80zM528 -133h126v-126h-126v126z" />
    <glyph glyph-name=".notdef.074" unicode="&#x1eb9;" horiz-adv-x="1139" 
d="M397 1411h609v-80h-609v80zM154 1411h79v-1411h-79v1411zM397 745h471v-79h-471v79zM397 80h609v-80h-609v80zM528 -133h126v-126h-126v126z" />
    <glyph glyph-name=".notdef.006" unicode="&#x1eba;" horiz-adv-x="1139" 
d="M397 1411h609v-80h-609v80zM154 1411h79v-1411h-79v1411zM397 745h471v-79h-471v79zM397 80h609v-80h-609v80zM558 1806q10 18 26 33q13 12 33 22.5t48 10.5q45 0 76.5 -20t46.5 -53q7 -15 10.5 -37t-1 -46.5t-18.5 -49.5t-43 -46l-115 -89v97q19 14 36.5 25t31 22.5
t22 24.5t8.5 31q0 24 -16.5 45.5t-48.5 21.5q-17 0 -29 -8t-20 -18q-10 -11 -16 -26z" />
    <glyph glyph-name=".notdef.007" unicode="&#x1ebc;" horiz-adv-x="1139" 
d="M397 1411h609v-80h-609v80zM154 1411h79v-1411h-79v1411zM397 745h471v-79h-471v79zM397 80h609v-80h-609v80zM287 1562q0 40 15 75t41.5 61.5t61.5 41.5t76 15q32 0 62 -12t55 -33l65 -54q30 -26 66 -26q23 0 43.5 9t36 24t24.5 36t9 45h80q0 -41 -15 -76t-41.5 -61.5
t-61.5 -41.5t-75 -15q-33 0 -62.5 12.5t-54.5 32.5l-67 55q-31 25 -64 25q-24 0 -45 -8.5t-36 -24t-24 -36t-9 -44.5h-80z" />
    <glyph glyph-name=".notdef.073" unicode="&#x1ebd;" horiz-adv-x="1139" 
d="M397 1411h609v-80h-609v80zM154 1411h79v-1411h-79v1411zM397 745h471v-79h-471v79zM397 80h609v-80h-609v80zM287 1562q0 40 15 75t41.5 61.5t61.5 41.5t76 15q32 0 62 -12t55 -33l65 -54q30 -26 66 -26q23 0 43.5 9t36 24t24.5 36t9 45h80q0 -41 -15 -76t-41.5 -61.5
t-61.5 -41.5t-75 -15q-33 0 -62.5 12.5t-54.5 32.5l-67 55q-31 25 -64 25q-24 0 -45 -8.5t-36 -24t-24 -36t-9 -44.5h-80z" />
    <glyph glyph-name=".notdef.077" unicode="&#x1ebf;" horiz-adv-x="1139" 
d="M397 1411h609v-80h-609v80zM154 1411h79v-1411h-79v1411zM397 745h471v-79h-471v79zM397 80h609v-80h-609v80zM333 1602l274 233l275 -233l-53 -61l-222 189l-222 -189zM807 1757l221 275l62 -50l-220 -276z" />
    <glyph glyph-name=".notdef.010" unicode="&#x1ec0;" horiz-adv-x="1139" 
d="M397 1411h609v-80h-609v80zM154 1411h79v-1411h-79v1411zM397 745h471v-79h-471v79zM397 80h609v-80h-609v80zM338 1599l274 233l275 -233l-53 -61l-222 189l-222 -189zM659 1990l62 50l221 -275l-63 -51z" />
    <glyph glyph-name=".notdef.012" unicode="&#x1ec2;" horiz-adv-x="1139" 
d="M397 1411h609v-80h-609v80zM154 1411h79v-1411h-79v1411zM397 745h471v-79h-471v79zM397 80h609v-80h-609v80zM329 1608l274 233l275 -233l-53 -61l-222 189l-222 -189zM780 2046q10 18 26 33q13 12 33 22.5t48 10.5q45 0 76.5 -20t46.5 -53q7 -15 10.5 -37t-1 -46.5
t-18.5 -49.5t-43 -46l-115 -89v97q19 14 36.5 25t31 22.5t22 24.5t8.5 31q0 24 -16.5 45.5t-48.5 21.5q-17 0 -29 -8t-20 -18q-10 -11 -16 -26z" />
    <glyph glyph-name=".notdef.011" unicode="&#x1ebe;" horiz-adv-x="1139" 
d="M397 1411h609v-80h-609v80zM154 1411h79v-1411h-79v1411zM397 745h471v-79h-471v79zM397 80h609v-80h-609v80zM333 1602l274 233l275 -233l-53 -61l-222 189l-222 -189zM807 1757l221 275l62 -50l-220 -276z" />
    <glyph glyph-name=".notdef.076" unicode="&#x1ec1;" horiz-adv-x="1139" 
d="M397 1411h609v-80h-609v80zM154 1411h79v-1411h-79v1411zM397 745h471v-79h-471v79zM397 80h609v-80h-609v80zM338 1599l274 233l275 -233l-53 -61l-222 189l-222 -189zM659 1990l62 50l221 -275l-63 -51z" />
    <glyph glyph-name=".notdef.013" unicode="&#x1ec4;" horiz-adv-x="1139" 
d="M397 1411h609v-80h-609v80zM154 1411h79v-1411h-79v1411zM397 745h471v-79h-471v79zM397 80h609v-80h-609v80zM338 1616l274 233l275 -233l-53 -61l-222 189l-222 -189zM376 1869q0 40 15 75t41.5 61.5t61.5 41.5t75 15q32 0 62 -12t55 -33l66 -54q29 -26 65 -26
q24 0 44.5 9t36 24t24.5 36t9 45h80q0 -41 -15 -76t-41.5 -61.5t-62 -41.5t-75.5 -15q-33 0 -62.5 12.5t-54.5 32.5l-66 55q-16 12 -31.5 18.5t-33.5 6.5q-24 0 -44.5 -8.5t-35.5 -24t-24 -36t-9 -44.5h-80z" />
    <glyph glyph-name=".notdef.079" unicode="&#x1ec5;" horiz-adv-x="1139" 
d="M397 1411h609v-80h-609v80zM154 1411h79v-1411h-79v1411zM397 745h471v-79h-471v79zM397 80h609v-80h-609v80zM338 1616l274 233l275 -233l-53 -61l-222 189l-222 -189zM376 1869q0 40 15 75t41.5 61.5t61.5 41.5t75 15q32 0 62 -12t55 -33l66 -54q29 -26 65 -26
q24 0 44.5 9t36 24t24.5 36t9 45h80q0 -41 -15 -76t-41.5 -61.5t-62 -41.5t-75.5 -15q-33 0 -62.5 12.5t-54.5 32.5l-66 55q-16 12 -31.5 18.5t-33.5 6.5q-24 0 -44.5 -8.5t-35.5 -24t-24 -36t-9 -44.5h-80z" />
    <glyph glyph-name=".notdef.014" unicode="&#x1ec6;" horiz-adv-x="1139" 
d="M397 1411h609v-80h-609v80zM154 1411h79v-1411h-79v1411zM397 745h471v-79h-471v79zM397 80h609v-80h-609v80zM305 1622l275 233l274 -233l-52 -60l-222 188l-223 -188zM511 -133h126v-126h-126v126z" />
    <glyph glyph-name=".notdef.080" unicode="&#x1ec7;" horiz-adv-x="1139" 
d="M397 1411h609v-80h-609v80zM154 1411h79v-1411h-79v1411zM397 745h471v-79h-471v79zM397 80h609v-80h-609v80zM305 1622l275 233l274 -233l-52 -60l-222 188l-223 -188zM511 -133h126v-126h-126v126z" />
    <glyph glyph-name=".notdef.017" unicode="&#x1ec8;" horiz-adv-x="571" 
d="M246 1411h80v-1411h-80v1411zM220 1806q10 18 26 33q13 12 33 22.5t48 10.5q45 0 76.5 -20t46.5 -53q7 -15 10.5 -37t-1 -46.5t-18.5 -49.5t-43 -46l-115 -89v97q19 14 36.5 25t31 22.5t22 24.5t8.5 31q0 24 -16.5 45.5t-48.5 21.5q-17 0 -29 -8t-20 -18q-10 -11 -16 -26
z" />
    <glyph glyph-name=".notdef.019" unicode="&#x1eca;" horiz-adv-x="571" 
d="M246 1411h80v-1411h-80v1411zM230 -133h126v-126h-126v126z" />
    <glyph glyph-name=".notdef.085" unicode="&#x1ecb;" horiz-adv-x="571" 
d="M246 1411h80v-1411h-80v1411zM230 -133h126v-126h-126v126z" />
    <glyph glyph-name=".notdef.024" unicode="&#x1ecc;" 
d="M245 269q-72 91 -112.5 203.5t-40.5 238.5q0 98 25.5 188.5t71.5 169.5t111 143.5t144 110.5t169.5 71.5t188.5 25.5q125 0 237 -40.5t203 -112.5l-56 -57q-81 62 -178 96t-206 34q-131 0 -245.5 -49.5t-200 -135t-135 -200t-49.5 -244.5q0 -110 34 -207t96 -177z
M418 210q79 -62 177 -96t207 -34q87 0 168 22.5t151 63.5t127.5 98.5t98.5 127.5t63.5 150.5t22.5 168.5q0 109 -35 206t-96 177l57 57q72 -91 112.5 -203t40.5 -237q0 -98 -25.5 -189t-71.5 -170t-111 -144t-144 -111t-169.5 -71.5t-188.5 -25.5q-126 0 -238 40.5
t-203 113.5zM736 -133h126v-126h-126v126z" />
    <glyph glyph-name=".notdef.090" unicode="&#x1ecd;" 
d="M245 269q-72 91 -112.5 203.5t-40.5 238.5q0 98 25.5 188.5t71.5 169.5t111 143.5t144 110.5t169.5 71.5t188.5 25.5q125 0 237 -40.5t203 -112.5l-56 -57q-81 62 -178 96t-206 34q-131 0 -245.5 -49.5t-200 -135t-135 -200t-49.5 -244.5q0 -110 34 -207t96 -177z
M418 210q79 -62 177 -96t207 -34q87 0 168 22.5t151 63.5t127.5 98.5t98.5 127.5t63.5 150.5t22.5 168.5q0 109 -35 206t-96 177l57 57q72 -91 112.5 -203t40.5 -237q0 -98 -25.5 -189t-71.5 -170t-111 -144t-144 -111t-169.5 -71.5t-188.5 -25.5q-126 0 -238 40.5
t-203 113.5zM736 -133h126v-126h-126v126z" />
    <glyph glyph-name=".notdef.022" unicode="&#x1ece;" 
d="M245 269q-72 91 -112.5 203.5t-40.5 238.5q0 98 25.5 188.5t71.5 169.5t111 143.5t144 110.5t169.5 71.5t188.5 25.5q125 0 237 -40.5t203 -112.5l-56 -57q-81 62 -178 96t-206 34q-131 0 -245.5 -49.5t-200 -135t-135 -200t-49.5 -244.5q0 -110 34 -207t96 -177z
M418 210q79 -62 177 -96t207 -34q87 0 168 22.5t151 63.5t127.5 98.5t98.5 127.5t63.5 150.5t22.5 168.5q0 109 -35 206t-96 177l57 57q72 -91 112.5 -203t40.5 -237q0 -98 -25.5 -189t-71.5 -170t-111 -144t-144 -111t-169.5 -71.5t-188.5 -25.5q-126 0 -238 40.5
t-203 113.5zM740 1806q10 18 26 33q13 12 33 22.5t48 10.5q45 0 76.5 -20t46.5 -53q7 -15 10.5 -37t-1 -46.5t-18.5 -49.5t-43 -46l-115 -89v97q19 14 36.5 25t31 22.5t22 24.5t8.5 31q0 24 -16.5 45.5t-48.5 21.5q-17 0 -29 -8t-20 -18q-10 -11 -16 -26z" />
    <glyph glyph-name=".notdef.027" unicode="&#x1ed0;" 
d="M245 269q-72 91 -112.5 203.5t-40.5 238.5q0 98 25.5 188.5t71.5 169.5t111 143.5t144 110.5t169.5 71.5t188.5 25.5q125 0 237 -40.5t203 -112.5l-56 -57q-81 62 -178 96t-206 34q-131 0 -245.5 -49.5t-200 -135t-135 -200t-49.5 -244.5q0 -110 34 -207t96 -177z
M418 210q79 -62 177 -96t207 -34q87 0 168 22.5t151 63.5t127.5 98.5t98.5 127.5t63.5 150.5t22.5 168.5q0 109 -35 206t-96 177l57 57q72 -91 112.5 -203t40.5 -237q0 -98 -25.5 -189t-71.5 -170t-111 -144t-144 -111t-169.5 -71.5t-188.5 -25.5q-126 0 -238 40.5
t-203 113.5zM530 1533l274 233l275 -233l-53 -61l-222 189l-222 -189zM1004 1688l221 275l62 -50l-220 -276z" />
    <glyph glyph-name=".notdef.026" unicode="&#x1ed2;" 
d="M245 269q-72 91 -112.5 203.5t-40.5 238.5q0 98 25.5 188.5t71.5 169.5t111 143.5t144 110.5t169.5 71.5t188.5 25.5q125 0 237 -40.5t203 -112.5l-56 -57q-81 62 -178 96t-206 34q-131 0 -245.5 -49.5t-200 -135t-135 -200t-49.5 -244.5q0 -110 34 -207t96 -177z
M418 210q79 -62 177 -96t207 -34q87 0 168 22.5t151 63.5t127.5 98.5t98.5 127.5t63.5 150.5t22.5 168.5q0 109 -35 206t-96 177l57 57q72 -91 112.5 -203t40.5 -237q0 -98 -25.5 -189t-71.5 -170t-111 -144t-144 -111t-169.5 -71.5t-188.5 -25.5q-126 0 -238 40.5
t-203 113.5zM532 1525l274 233l275 -233l-53 -61l-222 189l-222 -189zM853 1916l62 50l221 -275l-63 -51z" />
    <glyph glyph-name=".notdef.028" unicode="&#x1ed4;" 
d="M245 269q-72 91 -112.5 203.5t-40.5 238.5q0 98 25.5 188.5t71.5 169.5t111 143.5t144 110.5t169.5 71.5t188.5 25.5q125 0 237 -40.5t203 -112.5l-56 -57q-81 62 -178 96t-206 34q-131 0 -245.5 -49.5t-200 -135t-135 -200t-49.5 -244.5q0 -110 34 -207t96 -177z
M418 210q79 -62 177 -96t207 -34q87 0 168 22.5t151 63.5t127.5 98.5t98.5 127.5t63.5 150.5t22.5 168.5q0 109 -35 206t-96 177l57 57q72 -91 112.5 -203t40.5 -237q0 -98 -25.5 -189t-71.5 -170t-111 -144t-144 -111t-169.5 -71.5t-188.5 -25.5q-126 0 -238 40.5
t-203 113.5zM532 1544l274 233l275 -233l-53 -61l-222 189l-222 -189zM983 1982q10 18 26 33q13 12 33 22.5t48 10.5q45 0 76.5 -20t46.5 -53q7 -15 10.5 -37t-1 -46.5t-18.5 -49.5t-43 -46l-115 -89v97q19 14 36.5 25t31 22.5t22 24.5t8.5 31q0 24 -16.5 45.5t-48.5 21.5
q-17 0 -29 -8t-20 -18q-10 -11 -16 -26z" />
    <glyph glyph-name=".notdef.029" unicode="&#x1ed6;" 
d="M245 269q-72 91 -112.5 203.5t-40.5 238.5q0 98 25.5 188.5t71.5 169.5t111 143.5t144 110.5t169.5 71.5t188.5 25.5q125 0 237 -40.5t203 -112.5l-56 -57q-81 62 -178 96t-206 34q-131 0 -245.5 -49.5t-200 -135t-135 -200t-49.5 -244.5q0 -110 34 -207t96 -177z
M418 210q79 -62 177 -96t207 -34q87 0 168 22.5t151 63.5t127.5 98.5t98.5 127.5t63.5 150.5t22.5 168.5q0 109 -35 206t-96 177l57 57q72 -91 112.5 -203t40.5 -237q0 -98 -25.5 -189t-71.5 -170t-111 -144t-144 -111t-169.5 -71.5t-188.5 -25.5q-126 0 -238 40.5
t-203 113.5zM532 1544l274 233l275 -233l-53 -61l-222 189l-222 -189zM570 1797q0 40 15 75t41.5 61.5t61.5 41.5t75 15q32 0 62 -12t55 -33l66 -54q29 -26 65 -26q24 0 44.5 9t36 24t24.5 36t9 45h80q0 -41 -15 -76t-41.5 -61.5t-62 -41.5t-75.5 -15q-33 0 -62.5 12.5
t-54.5 32.5l-66 55q-16 12 -31.5 18.5t-33.5 6.5q-24 0 -44.5 -8.5t-35.5 -24t-24 -36t-9 -44.5h-80z" />
    <glyph glyph-name=".notdef.030" unicode="&#x1ed8;" 
d="M245 269q-72 91 -112.5 203.5t-40.5 238.5q0 98 25.5 188.5t71.5 169.5t111 143.5t144 110.5t169.5 71.5t188.5 25.5q125 0 237 -40.5t203 -112.5l-56 -57q-81 62 -178 96t-206 34q-131 0 -245.5 -49.5t-200 -135t-135 -200t-49.5 -244.5q0 -110 34 -207t96 -177z
M418 210q79 -62 177 -96t207 -34q87 0 168 22.5t151 63.5t127.5 98.5t98.5 127.5t63.5 150.5t22.5 168.5q0 109 -35 206t-96 177l57 57q72 -91 112.5 -203t40.5 -237q0 -98 -25.5 -189t-71.5 -170t-111 -144t-144 -111t-169.5 -71.5t-188.5 -25.5q-126 0 -238 40.5
t-203 113.5zM523 1603l275 233l274 -233l-52 -61l-222 189l-223 -189zM736 -133h126v-126h-126v126z" />
    <glyph glyph-name=".notdef.093" unicode="&#x1ed1;" 
d="M245 269q-72 91 -112.5 203.5t-40.5 238.5q0 98 25.5 188.5t71.5 169.5t111 143.5t144 110.5t169.5 71.5t188.5 25.5q125 0 237 -40.5t203 -112.5l-56 -57q-81 62 -178 96t-206 34q-131 0 -245.5 -49.5t-200 -135t-135 -200t-49.5 -244.5q0 -110 34 -207t96 -177z
M418 210q79 -62 177 -96t207 -34q87 0 168 22.5t151 63.5t127.5 98.5t98.5 127.5t63.5 150.5t22.5 168.5q0 109 -35 206t-96 177l57 57q72 -91 112.5 -203t40.5 -237q0 -98 -25.5 -189t-71.5 -170t-111 -144t-144 -111t-169.5 -71.5t-188.5 -25.5q-126 0 -238 40.5
t-203 113.5zM530 1533l274 233l275 -233l-53 -61l-222 189l-222 -189zM1004 1688l221 275l62 -50l-220 -276z" />
    <glyph glyph-name=".notdef.092" unicode="&#x1ed3;" 
d="M245 269q-72 91 -112.5 203.5t-40.5 238.5q0 98 25.5 188.5t71.5 169.5t111 143.5t144 110.5t169.5 71.5t188.5 25.5q125 0 237 -40.5t203 -112.5l-56 -57q-81 62 -178 96t-206 34q-131 0 -245.5 -49.5t-200 -135t-135 -200t-49.5 -244.5q0 -110 34 -207t96 -177z
M418 210q79 -62 177 -96t207 -34q87 0 168 22.5t151 63.5t127.5 98.5t98.5 127.5t63.5 150.5t22.5 168.5q0 109 -35 206t-96 177l57 57q72 -91 112.5 -203t40.5 -237q0 -98 -25.5 -189t-71.5 -170t-111 -144t-144 -111t-169.5 -71.5t-188.5 -25.5q-126 0 -238 40.5
t-203 113.5zM532 1525l274 233l275 -233l-53 -61l-222 189l-222 -189zM853 1916l62 50l221 -275l-63 -51z" />
    <glyph glyph-name=".notdef.095" unicode="&#x1ed7;" 
d="M245 269q-72 91 -112.5 203.5t-40.5 238.5q0 98 25.5 188.5t71.5 169.5t111 143.5t144 110.5t169.5 71.5t188.5 25.5q125 0 237 -40.5t203 -112.5l-56 -57q-81 62 -178 96t-206 34q-131 0 -245.5 -49.5t-200 -135t-135 -200t-49.5 -244.5q0 -110 34 -207t96 -177z
M418 210q79 -62 177 -96t207 -34q87 0 168 22.5t151 63.5t127.5 98.5t98.5 127.5t63.5 150.5t22.5 168.5q0 109 -35 206t-96 177l57 57q72 -91 112.5 -203t40.5 -237q0 -98 -25.5 -189t-71.5 -170t-111 -144t-144 -111t-169.5 -71.5t-188.5 -25.5q-126 0 -238 40.5
t-203 113.5zM532 1544l274 233l275 -233l-53 -61l-222 189l-222 -189zM570 1797q0 40 15 75t41.5 61.5t61.5 41.5t75 15q32 0 62 -12t55 -33l66 -54q29 -26 65 -26q24 0 44.5 9t36 24t24.5 36t9 45h80q0 -41 -15 -76t-41.5 -61.5t-62 -41.5t-75.5 -15q-33 0 -62.5 12.5
t-54.5 32.5l-66 55q-16 12 -31.5 18.5t-33.5 6.5q-24 0 -44.5 -8.5t-35.5 -24t-24 -36t-9 -44.5h-80z" />
    <glyph glyph-name=".notdef.096" unicode="&#x1ed9;" 
d="M245 269q-72 91 -112.5 203.5t-40.5 238.5q0 98 25.5 188.5t71.5 169.5t111 143.5t144 110.5t169.5 71.5t188.5 25.5q125 0 237 -40.5t203 -112.5l-56 -57q-81 62 -178 96t-206 34q-131 0 -245.5 -49.5t-200 -135t-135 -200t-49.5 -244.5q0 -110 34 -207t96 -177z
M418 210q79 -62 177 -96t207 -34q87 0 168 22.5t151 63.5t127.5 98.5t98.5 127.5t63.5 150.5t22.5 168.5q0 109 -35 206t-96 177l57 57q72 -91 112.5 -203t40.5 -237q0 -98 -25.5 -189t-71.5 -170t-111 -144t-144 -111t-169.5 -71.5t-188.5 -25.5q-126 0 -238 40.5
t-203 113.5zM523 1603l275 233l274 -233l-52 -61l-222 189l-223 -189zM736 -133h126v-126h-126v126z" />
    <glyph glyph-name=".notdef.044" unicode="&#x1eda;" 
d="M245 269q-72 91 -112.5 203.5t-40.5 238.5q0 98 25.5 188.5t71.5 169.5t111 143.5t144 110.5t169.5 71.5t188.5 25.5q125 0 237 -40.5t203 -112.5l-56 -57q-81 62 -178 96t-206 34q-131 0 -245.5 -49.5t-200 -135t-135 -200t-49.5 -244.5q0 -110 34 -207t96 -177z
M418 210q79 -62 177 -96t207 -34q87 0 168 22.5t151 63.5t127.5 98.5t98.5 127.5t63.5 150.5t22.5 168.5q0 109 -35 206t-96 177l57 57q72 -91 112.5 -203t40.5 -237q0 -98 -25.5 -189t-71.5 -170t-111 -144t-144 -111t-169.5 -71.5t-188.5 -25.5q-126 0 -238 40.5
t-203 113.5zM1205 1516q6 1 21 4.5t34 2.5t39.5 -10t36.5 -33q15 -22 16.5 -44.5t-5 -43t-19 -39t-27.5 -31.5l-115 -105v79l72 66q8 7 16 16t13.5 19t5.5 21.5t-8 23.5q-9 13 -19 18.5t-19.5 6.5t-18 -1t-12.5 -3zM744 1556l210 278l98 -2l-220 -276h-88z" />
    <glyph glyph-name=".notdef.046" unicode="&#x1ee0;" 
d="M485 1562q0 40 15 75t41.5 61.5t61.5 41.5t76 15q32 0 62 -12t55 -33l65 -54q30 -26 66 -26q23 0 43.5 9t36 24t24.5 36t9 45h80q0 -41 -15 -76t-41.5 -61.5t-61.5 -41.5t-75 -15q-33 0 -62.5 12.5t-54.5 32.5l-67 55q-31 25 -64 25q-24 0 -45 -8.5t-36 -24t-24 -36
t-9 -44.5h-80zM245 269q-72 91 -112.5 203.5t-40.5 238.5q0 98 25.5 188.5t71.5 169.5t111 143.5t144 110.5t169.5 71.5t188.5 25.5q125 0 237 -40.5t203 -112.5l-56 -57q-81 62 -178 96t-206 34q-131 0 -245.5 -49.5t-200 -135t-135 -200t-49.5 -244.5q0 -110 34 -207
t96 -177zM418 210q79 -62 177 -96t207 -34q87 0 168 22.5t151 63.5t127.5 98.5t98.5 127.5t63.5 150.5t22.5 168.5q0 109 -35 206t-96 177l57 57q72 -91 112.5 -203t40.5 -237q0 -98 -25.5 -189t-71.5 -170t-111 -144t-144 -111t-169.5 -71.5t-188.5 -25.5q-126 0 -238 40.5
t-203 113.5zM1205 1516q6 1 21 4.5t34 2.5t39.5 -10t36.5 -33q15 -22 16.5 -44.5t-5 -43t-19 -39t-27.5 -31.5l-115 -105v79l72 66q8 7 16 16t13.5 19t5.5 21.5t-8 23.5q-9 13 -19 18.5t-19.5 6.5t-18 -1t-12.5 -3z" />
    <glyph glyph-name=".notdef.047" unicode="&#x1ee2;" 
d="M736 -133h126v-126h-126v126zM245 269q-72 91 -112.5 203.5t-40.5 238.5q0 98 25.5 188.5t71.5 169.5t111 143.5t144 110.5t169.5 71.5t188.5 25.5q125 0 237 -40.5t203 -112.5l-56 -57q-81 62 -178 96t-206 34q-131 0 -245.5 -49.5t-200 -135t-135 -200t-49.5 -244.5
q0 -110 34 -207t96 -177zM418 210q79 -62 177 -96t207 -34q87 0 168 22.5t151 63.5t127.5 98.5t98.5 127.5t63.5 150.5t22.5 168.5q0 109 -35 206t-96 177l57 57q72 -91 112.5 -203t40.5 -237q0 -98 -25.5 -189t-71.5 -170t-111 -144t-144 -111t-169.5 -71.5t-188.5 -25.5
q-126 0 -238 40.5t-203 113.5zM1205 1516q6 1 21 4.5t34 2.5t39.5 -10t36.5 -33q15 -22 16.5 -44.5t-5 -43t-19 -39t-27.5 -31.5l-115 -105v79l72 66q8 7 16 16t13.5 19t5.5 21.5t-8 23.5q-9 13 -19 18.5t-19.5 6.5t-18 -1t-12.5 -3z" />
    <glyph glyph-name=".notdef.112" unicode="&#x1ee1;" 
d="M485 1562q0 40 15 75t41.5 61.5t61.5 41.5t76 15q32 0 62 -12t55 -33l65 -54q30 -26 66 -26q23 0 43.5 9t36 24t24.5 36t9 45h80q0 -41 -15 -76t-41.5 -61.5t-61.5 -41.5t-75 -15q-33 0 -62.5 12.5t-54.5 32.5l-67 55q-31 25 -64 25q-24 0 -45 -8.5t-36 -24t-24 -36
t-9 -44.5h-80zM245 269q-72 91 -112.5 203.5t-40.5 238.5q0 98 25.5 188.5t71.5 169.5t111 143.5t144 110.5t169.5 71.5t188.5 25.5q125 0 237 -40.5t203 -112.5l-56 -57q-81 62 -178 96t-206 34q-131 0 -245.5 -49.5t-200 -135t-135 -200t-49.5 -244.5q0 -110 34 -207
t96 -177zM418 210q79 -62 177 -96t207 -34q87 0 168 22.5t151 63.5t127.5 98.5t98.5 127.5t63.5 150.5t22.5 168.5q0 109 -35 206t-96 177l57 57q72 -91 112.5 -203t40.5 -237q0 -98 -25.5 -189t-71.5 -170t-111 -144t-144 -111t-169.5 -71.5t-188.5 -25.5q-126 0 -238 40.5
t-203 113.5zM1205 1516q6 1 21 4.5t34 2.5t39.5 -10t36.5 -33q15 -22 16.5 -44.5t-5 -43t-19 -39t-27.5 -31.5l-115 -105v79l72 66q8 7 16 16t13.5 19t5.5 21.5t-8 23.5q-9 13 -19 18.5t-19.5 6.5t-18 -1t-12.5 -3z" />
    <glyph glyph-name=".notdef.113" unicode="&#x1ee3;" 
d="M736 -133h126v-126h-126v126zM245 269q-72 91 -112.5 203.5t-40.5 238.5q0 98 25.5 188.5t71.5 169.5t111 143.5t144 110.5t169.5 71.5t188.5 25.5q125 0 237 -40.5t203 -112.5l-56 -57q-81 62 -178 96t-206 34q-131 0 -245.5 -49.5t-200 -135t-135 -200t-49.5 -244.5
q0 -110 34 -207t96 -177zM418 210q79 -62 177 -96t207 -34q87 0 168 22.5t151 63.5t127.5 98.5t98.5 127.5t63.5 150.5t22.5 168.5q0 109 -35 206t-96 177l57 57q72 -91 112.5 -203t40.5 -237q0 -98 -25.5 -189t-71.5 -170t-111 -144t-144 -111t-169.5 -71.5t-188.5 -25.5
q-126 0 -238 40.5t-203 113.5zM1205 1516q6 1 21 4.5t34 2.5t39.5 -10t36.5 -33q15 -22 16.5 -44.5t-5 -43t-19 -39t-27.5 -31.5l-115 -105v79l72 66q8 7 16 16t13.5 19t5.5 21.5t-8 23.5q-9 13 -19 18.5t-19.5 6.5t-18 -1t-12.5 -3z" />
    <glyph glyph-name=".notdef.035" unicode="&#x1ee4;" horiz-adv-x="1367" 
d="M766 80q79 15 146.5 55t117 99t77 132.5t27.5 155.5v889h79v-889q0 -99 -34.5 -187.5t-94.5 -158t-141.5 -115.5t-176.5 -61v80zM154 1411h79v-889q0 -82 28 -155.5t77 -132.5t116.5 -99t147.5 -55v-80q-95 15 -177 61t-142 115.5t-94.5 158t-34.5 187.5v889zM620 -133
h126v-126h-126v126z" />
    <glyph glyph-name=".notdef.101" unicode="&#x1ee5;" horiz-adv-x="1367" 
d="M766 80q79 15 146.5 55t117 99t77 132.5t27.5 155.5v889h79v-889q0 -99 -34.5 -187.5t-94.5 -158t-141.5 -115.5t-176.5 -61v80zM154 1411h79v-889q0 -82 28 -155.5t77 -132.5t116.5 -99t147.5 -55v-80q-95 15 -177 61t-142 115.5t-94.5 158t-34.5 187.5v889zM620 -133
h126v-126h-126v126z" />
    <glyph glyph-name=".notdef.033" unicode="&#x1ee6;" horiz-adv-x="1367" 
d="M766 80q79 15 146.5 55t117 99t77 132.5t27.5 155.5v889h79v-889q0 -99 -34.5 -187.5t-94.5 -158t-141.5 -115.5t-176.5 -61v80zM154 1411h79v-889q0 -82 28 -155.5t77 -132.5t116.5 -99t147.5 -55v-80q-95 15 -177 61t-142 115.5t-94.5 158t-34.5 187.5v889zM616 1806
q10 18 26 33q13 12 33 22.5t48 10.5q45 0 76.5 -20t46.5 -53q7 -15 10.5 -37t-1 -46.5t-18.5 -49.5t-43 -46l-115 -89v97q19 14 36.5 25t31 22.5t22 24.5t8.5 31q0 24 -16.5 45.5t-48.5 21.5q-17 0 -29 -8t-20 -18q-10 -11 -16 -26z" />
    <glyph glyph-name=".notdef.040" unicode="&#x1eee;" horiz-adv-x="1367" 
d="M370 1562q0 40 15 75t41.5 61.5t61.5 41.5t76 15q32 0 62 -12t55 -33l65 -54q30 -26 66 -26q23 0 43.5 9t36 24t24.5 36t9 45h80q0 -41 -15 -76t-41.5 -61.5t-61.5 -41.5t-75 -15q-33 0 -62.5 12.5t-54.5 32.5l-67 55q-31 25 -64 25q-24 0 -45 -8.5t-36 -24t-24 -36
t-9 -44.5h-80zM766 80q79 15 146.5 55t117 99t77 132.5t27.5 155.5v889h79v-889q0 -99 -34.5 -187.5t-94.5 -158t-141.5 -115.5t-176.5 -61v80zM154 1411h79v-889q0 -82 28 -155.5t77 -132.5t116.5 -99t147.5 -55v-80q-95 15 -177 61t-142 115.5t-94.5 158t-34.5 187.5v889z
M1207 1548q6 1 21 4.5t34 2.5t39.5 -10t36.5 -33q15 -22 16.5 -44.5t-5 -43t-19 -39t-27.5 -31.5l-115 -105v79l72 66q8 7 16 16t13.5 19t5.5 21.5t-8 23.5q-9 13 -19 18.5t-19.5 6.5t-18 -1t-12.5 -3z" />
    <glyph glyph-name=".notdef.041" unicode="&#x1ef0;" horiz-adv-x="1367" 
d="M620 -133h126v-126h-126v126zM766 80q79 15 146.5 55t117 99t77 132.5t27.5 155.5v889h79v-889q0 -99 -34.5 -187.5t-94.5 -158t-141.5 -115.5t-176.5 -61v80zM154 1411h79v-889q0 -82 28 -155.5t77 -132.5t116.5 -99t147.5 -55v-80q-95 15 -177 61t-142 115.5t-94.5 158
t-34.5 187.5v889zM1207 1548q6 1 21 4.5t34 2.5t39.5 -10t36.5 -33q15 -22 16.5 -44.5t-5 -43t-19 -39t-27.5 -31.5l-115 -105v79l72 66q8 7 16 16t13.5 19t5.5 21.5t-8 23.5q-9 13 -19 18.5t-19.5 6.5t-18 -1t-12.5 -3z" />
    <glyph glyph-name=".notdef.107" unicode="&#x1ef1;" horiz-adv-x="1367" 
d="M620 -133h126v-126h-126v126zM766 80q79 15 146.5 55t117 99t77 132.5t27.5 155.5v889h79v-889q0 -99 -34.5 -187.5t-94.5 -158t-141.5 -115.5t-176.5 -61v80zM154 1411h79v-889q0 -82 28 -155.5t77 -132.5t116.5 -99t147.5 -55v-80q-95 15 -177 61t-142 115.5t-94.5 158
t-34.5 187.5v889zM1207 1548q6 1 21 4.5t34 2.5t39.5 -10t36.5 -33q15 -22 16.5 -44.5t-5 -43t-19 -39t-27.5 -31.5l-115 -105v79l72 66q8 7 16 16t13.5 19t5.5 21.5t-8 23.5q-9 13 -19 18.5t-19.5 6.5t-18 -1t-12.5 -3z" />
    <glyph glyph-name=".notdef.106" unicode="&#x1eef;" horiz-adv-x="1367" 
d="M370 1562q0 40 15 75t41.5 61.5t61.5 41.5t76 15q32 0 62 -12t55 -33l65 -54q30 -26 66 -26q23 0 43.5 9t36 24t24.5 36t9 45h80q0 -41 -15 -76t-41.5 -61.5t-61.5 -41.5t-75 -15q-33 0 -62.5 12.5t-54.5 32.5l-67 55q-31 25 -64 25q-24 0 -45 -8.5t-36 -24t-24 -36
t-9 -44.5h-80zM766 80q79 15 146.5 55t117 99t77 132.5t27.5 155.5v889h79v-889q0 -99 -34.5 -187.5t-94.5 -158t-141.5 -115.5t-176.5 -61v80zM154 1411h79v-889q0 -82 28 -155.5t77 -132.5t116.5 -99t147.5 -55v-80q-95 15 -177 61t-142 115.5t-94.5 158t-34.5 187.5v889z
M1207 1548q6 1 21 4.5t34 2.5t39.5 -10t36.5 -33q15 -22 16.5 -44.5t-5 -43t-19 -39t-27.5 -31.5l-115 -105v79l72 66q8 7 16 16t13.5 19t5.5 21.5t-8 23.5q-9 13 -19 18.5t-19.5 6.5t-18 -1t-12.5 -3z" />
    <glyph glyph-name=".notdef.050" unicode="&#x1ef6;" horiz-adv-x="1351" 
d="M636 625l536 786h97l-553 -809v-602h-80v625zM82 1411h96l399 -583l-49 -70zM616 1806q10 18 26 33q13 12 33 22.5t48 10.5q45 0 76.5 -20t46.5 -53q7 -15 10.5 -37t-1 -46.5t-18.5 -49.5t-43 -46l-115 -89v97q19 14 36.5 25t31 22.5t22 24.5t8.5 31q0 24 -16.5 45.5
t-48.5 21.5q-17 0 -29 -8t-20 -18q-10 -11 -16 -26z" />
    <glyph glyph-name=".notdef.051" unicode="&#x1ef8;" horiz-adv-x="1351" 
d="M636 625l536 786h97l-553 -809v-602h-80v625zM82 1411h96l399 -583l-49 -70zM370 1562q0 40 15 75t41.5 61.5t61.5 41.5t76 15q32 0 62 -12t55 -33l65 -54q30 -26 66 -26q23 0 43.5 9t36 24t24.5 36t9 45h80q0 -41 -15 -76t-41.5 -61.5t-61.5 -41.5t-75 -15
q-33 0 -62.5 12.5t-54.5 32.5l-67 55q-31 25 -64 25q-24 0 -45 -8.5t-36 -24t-24 -36t-9 -44.5h-80z" />
    <glyph glyph-name=".notdef.117" unicode="&#x1ef9;" horiz-adv-x="1351" 
d="M636 625l536 786h97l-553 -809v-602h-80v625zM82 1411h96l399 -583l-49 -70zM370 1562q0 40 15 75t41.5 61.5t61.5 41.5t76 15q32 0 62 -12t55 -33l65 -54q30 -26 66 -26q23 0 43.5 9t36 24t24.5 36t9 45h80q0 -41 -15 -76t-41.5 -61.5t-61.5 -41.5t-75 -15
q-33 0 -62.5 12.5t-54.5 32.5l-67 55q-31 25 -64 25q-24 0 -45 -8.5t-36 -24t-24 -36t-9 -44.5h-80z" />
    <glyph glyph-name="NULL" horiz-adv-x="506" 
 />
    <glyph glyph-name="NULL" horiz-adv-x="506" 
 />
    <glyph glyph-name=".notdef.118" unicode="&#x1ef5;" horiz-adv-x="1351" 
d="M636 625l536 786h97l-553 -809v-602h-80v625zM82 1411h96l399 -583l-49 -70zM611 -133h126v-126h-126v126z" />
    <glyph glyph-name=".notdef.114" unicode="&#x1ef3;" horiz-adv-x="1351" 
d="M636 625l536 786h97l-553 -809v-602h-80v625zM82 1411h96l399 -583l-49 -70zM378 1832l102 2l224 -277l-106 -1z" />
    <glyph glyph-name=".notdef.052" unicode="&#x1ef4;" horiz-adv-x="1351" 
d="M636 625l536 786h97l-553 -809v-602h-80v625zM82 1411h96l399 -583l-49 -70zM611 -133h126v-126h-126v126z" />
    <glyph glyph-name="nonmarkingreturn" unicode="&#xd;" horiz-adv-x="506" 
 />
    <glyph glyph-name=".notdef.064" unicode="&#x103;" horiz-adv-x="1462" 
d="M555 471h531l-399 867l44 96l660 -1434h-88l-181 391h-604zM598 1145l44 -96l-482 -1049h-88zM1022 1735q-17 -44 -46 -80.5t-66.5 -63t-83 -41.5t-95.5 -15t-95.5 15t-83.5 41.5t-67 63t-46 80.5h93q30 -57 80.5 -89t118.5 -32q69 0 118.5 32t80.5 89h92z" />
    <glyph glyph-name=".notdef.091" unicode="&#x1eb7;" horiz-adv-x="1462" 
d="M555 471h531l-399 867l44 96l660 -1434h-88l-181 391h-604zM598 1145l44 -96l-482 -1049h-88zM661 -60h126v-126h-126v126zM1022 1735q-17 -44 -46 -80.5t-66.5 -63t-83 -41.5t-95.5 -15t-95.5 15t-83.5 41.5t-67 63t-46 80.5h93q30 -57 80.5 -89t118.5 -32
q69 0 118.5 32t80.5 89h92z" />
    <glyph glyph-name=".notdef.068" unicode="&#x1eb5;" horiz-adv-x="1462" 
d="M555 471h531l-399 867l44 96l660 -1434h-88l-181 391h-604zM598 1145l44 -96l-482 -1049h-88zM710 1802q0 40 15 75t41.5 61.5t61.5 41.5t76 15q32 0 62 -12t55 -33l65 -54q30 -26 66 -26q23 0 43.5 9t36 24t24.5 36t9 45h80q0 -41 -15 -76t-41.5 -61.5t-61.5 -41.5
t-75 -15q-33 0 -62.5 12.5t-54.5 32.5l-67 55q-31 25 -64 25q-24 0 -45 -8.5t-36 -24t-24 -36t-9 -44.5h-80zM1022 1735q-17 -44 -46 -80.5t-66.5 -63t-83 -41.5t-95.5 -15t-95.5 15t-83.5 41.5t-67 63t-46 80.5h93q30 -57 80.5 -89t118.5 -32q69 0 118.5 32t80.5 89h92z
" />
    <glyph glyph-name=".notdef.065" unicode="&#x1eb1;" horiz-adv-x="1462" 
d="M555 471h531l-399 867l44 96l660 -1434h-88l-181 391h-604zM598 1145l44 -96l-482 -1049h-88zM517 2033l62 50l221 -275l-63 -51zM1022 1735q-17 -44 -46 -80.5t-66.5 -63t-83 -41.5t-95.5 -15t-95.5 15t-83.5 41.5t-67 63t-46 80.5h93q30 -57 80.5 -89t118.5 -32
q69 0 118.5 32t80.5 89h92z" />
    <glyph glyph-name=".notdef.066" unicode="&#x1eaf;" horiz-adv-x="1462" 
d="M555 471h531l-399 867l44 96l660 -1434h-88l-181 391h-604zM598 1145l44 -96l-482 -1049h-88zM674 1775l221 275l62 -50l-220 -276zM1022 1735q-17 -44 -46 -80.5t-66.5 -63t-83 -41.5t-95.5 -15t-95.5 15t-83.5 41.5t-67 63t-46 80.5h93q30 -57 80.5 -89t118.5 -32
q69 0 118.5 32t80.5 89h92z" />
    <glyph glyph-name=".notdef.055" unicode="&#x1ea3;" horiz-adv-x="1462" 
d="M555 471h531l-399 867l44 96l660 -1434h-88l-181 391h-604zM598 1145l44 -96l-482 -1049h-88zM662 1806q10 18 26 33q13 12 33 22.5t48 10.5q45 0 76.5 -20t46.5 -53q7 -15 10.5 -37t-1 -46.5t-18.5 -49.5t-43 -46l-115 -89v97q19 14 36.5 25t31 22.5t22 24.5t8.5 31
q0 24 -16.5 45.5t-48.5 21.5q-17 0 -29 -8t-20 -18q-10 -11 -16 -26z" />
    <glyph glyph-name=".notdef.072" unicode="&#x1ebb;" horiz-adv-x="1139" 
d="M397 1411h609v-80h-609v80zM154 1411h79v-1411h-79v1411zM397 745h471v-79h-471v79zM397 80h609v-80h-609v80zM558 1806q10 18 26 33q13 12 33 22.5t48 10.5q45 0 76.5 -20t46.5 -53q7 -15 10.5 -37t-1 -46.5t-18.5 -49.5t-43 -46l-115 -89v97q19 14 36.5 25t31 22.5
t22 24.5t8.5 31q0 24 -16.5 45.5t-48.5 21.5q-17 0 -29 -8t-20 -18q-10 -11 -16 -26z" />
    <glyph glyph-name=".notdef.078" unicode="&#x1ec3;" horiz-adv-x="1139" 
d="M397 1411h609v-80h-609v80zM154 1411h79v-1411h-79v1411zM397 745h471v-79h-471v79zM397 80h609v-80h-609v80zM329 1608l274 233l275 -233l-53 -61l-222 189l-222 -189zM780 2046q10 18 26 33q13 12 33 22.5t48 10.5q45 0 76.5 -20t46.5 -53q7 -15 10.5 -37t-1 -46.5
t-18.5 -49.5t-43 -46l-115 -89v97q19 14 36.5 25t31 22.5t22 24.5t8.5 31q0 24 -16.5 45.5t-48.5 21.5q-17 0 -29 -8t-20 -18q-10 -11 -16 -26z" />
    <glyph glyph-name=".notdef.083" unicode="&#x1ec9;" horiz-adv-x="571" 
d="M246 1411h80v-1411h-80v1411zM220 1806q10 18 26 33q13 12 33 22.5t48 10.5q45 0 76.5 -20t46.5 -53q7 -15 10.5 -37t-1 -46.5t-18.5 -49.5t-43 -46l-115 -89v97q19 14 36.5 25t31 22.5t22 24.5t8.5 31q0 24 -16.5 45.5t-48.5 21.5q-17 0 -29 -8t-20 -18q-10 -11 -16 -26
z" />
    <glyph glyph-name=".notdef.088" unicode="&#x1ecf;" 
d="M245 269q-72 91 -112.5 203.5t-40.5 238.5q0 98 25.5 188.5t71.5 169.5t111 143.5t144 110.5t169.5 71.5t188.5 25.5q125 0 237 -40.5t203 -112.5l-56 -57q-81 62 -178 96t-206 34q-131 0 -245.5 -49.5t-200 -135t-135 -200t-49.5 -244.5q0 -110 34 -207t96 -177z
M418 210q79 -62 177 -96t207 -34q87 0 168 22.5t151 63.5t127.5 98.5t98.5 127.5t63.5 150.5t22.5 168.5q0 109 -35 206t-96 177l57 57q72 -91 112.5 -203t40.5 -237q0 -98 -25.5 -189t-71.5 -170t-111 -144t-144 -111t-169.5 -71.5t-188.5 -25.5q-126 0 -238 40.5
t-203 113.5zM740 1806q10 18 26 33q13 12 33 22.5t48 10.5q45 0 76.5 -20t46.5 -53q7 -15 10.5 -37t-1 -46.5t-18.5 -49.5t-43 -46l-115 -89v97q19 14 36.5 25t31 22.5t22 24.5t8.5 31q0 24 -16.5 45.5t-48.5 21.5q-17 0 -29 -8t-20 -18q-10 -11 -16 -26z" />
    <glyph glyph-name=".notdef.094" unicode="&#x1ed5;" 
d="M245 269q-72 91 -112.5 203.5t-40.5 238.5q0 98 25.5 188.5t71.5 169.5t111 143.5t144 110.5t169.5 71.5t188.5 25.5q125 0 237 -40.5t203 -112.5l-56 -57q-81 62 -178 96t-206 34q-131 0 -245.5 -49.5t-200 -135t-135 -200t-49.5 -244.5q0 -110 34 -207t96 -177z
M418 210q79 -62 177 -96t207 -34q87 0 168 22.5t151 63.5t127.5 98.5t98.5 127.5t63.5 150.5t22.5 168.5q0 109 -35 206t-96 177l57 57q72 -91 112.5 -203t40.5 -237q0 -98 -25.5 -189t-71.5 -170t-111 -144t-144 -111t-169.5 -71.5t-188.5 -25.5q-126 0 -238 40.5
t-203 113.5zM532 1544l274 233l275 -233l-53 -61l-222 189l-222 -189zM983 1982q10 18 26 33q13 12 33 22.5t48 10.5q45 0 76.5 -20t46.5 -53q7 -15 10.5 -37t-1 -46.5t-18.5 -49.5t-43 -46l-115 -89v97q19 14 36.5 25t31 22.5t22 24.5t8.5 31q0 24 -16.5 45.5t-48.5 21.5
q-17 0 -29 -8t-20 -18q-10 -11 -16 -26z" />
    <glyph glyph-name=".notdef.061" unicode="&#x1ea9;" horiz-adv-x="1462" 
d="M555 471h531l-399 867l44 96l660 -1434h-88l-181 391h-604zM598 1145l44 -96l-482 -1049h-88zM455 1521l274 233l275 -233l-53 -61l-222 189l-222 -189zM906 1959q10 18 26 33q13 12 33 22.5t48 10.5q45 0 76.5 -20t46.5 -53q7 -15 10.5 -37t-1 -46.5t-18.5 -49.5
t-43 -46l-115 -89v97q19 14 36.5 25t31 22.5t22 24.5t8.5 31q0 24 -16.5 45.5t-48.5 21.5q-17 0 -29 -8t-20 -18q-10 -11 -16 -26z" />
    <glyph glyph-name=".notdef.099" unicode="&#x1ee7;" horiz-adv-x="1367" 
d="M766 80q79 15 146.5 55t117 99t77 132.5t27.5 155.5v889h79v-889q0 -99 -34.5 -187.5t-94.5 -158t-141.5 -115.5t-176.5 -61v80zM154 1411h79v-889q0 -82 28 -155.5t77 -132.5t116.5 -99t147.5 -55v-80q-95 15 -177 61t-142 115.5t-94.5 158t-34.5 187.5v889zM616 1806
q10 18 26 33q13 12 33 22.5t48 10.5q45 0 76.5 -20t46.5 -53q7 -15 10.5 -37t-1 -46.5t-18.5 -49.5t-43 -46l-115 -89v97q19 14 36.5 25t31 22.5t22 24.5t8.5 31q0 24 -16.5 45.5t-48.5 21.5q-17 0 -29 -8t-20 -18q-10 -11 -16 -26z" />
    <glyph glyph-name=".notdef.108" unicode="&#x1a1;" 
d="M245 269q-72 91 -112.5 203.5t-40.5 238.5q0 98 25.5 188.5t71.5 169.5t111 143.5t144 110.5t169.5 71.5t188.5 25.5q125 0 237 -40.5t203 -112.5l-56 -57q-81 62 -178 96t-206 34q-131 0 -245.5 -49.5t-200 -135t-135 -200t-49.5 -244.5q0 -110 34 -207t96 -177z
M418 210q79 -62 177 -96t207 -34q87 0 168 22.5t151 63.5t127.5 98.5t98.5 127.5t63.5 150.5t22.5 168.5q0 109 -35 206t-96 177l57 57q72 -91 112.5 -203t40.5 -237q0 -98 -25.5 -189t-71.5 -170t-111 -144t-144 -111t-169.5 -71.5t-188.5 -25.5q-126 0 -238 40.5
t-203 113.5zM1205 1516q6 1 21 4.5t34 2.5t39.5 -10t36.5 -33q15 -22 16.5 -44.5t-5 -43t-19 -39t-27.5 -31.5l-115 -105v79l72 66q8 7 16 16t13.5 19t5.5 21.5t-8 23.5q-9 13 -19 18.5t-19.5 6.5t-18 -1t-12.5 -3z" />
    <glyph glyph-name=".notdef.102" unicode="&#x1b0;" horiz-adv-x="1367" 
d="M766 80q79 15 146.5 55t117 99t77 132.5t27.5 155.5v889h79v-889q0 -99 -34.5 -187.5t-94.5 -158t-141.5 -115.5t-176.5 -61v80zM154 1411h79v-889q0 -82 28 -155.5t77 -132.5t116.5 -99t147.5 -55v-80q-95 15 -177 61t-142 115.5t-94.5 158t-34.5 187.5v889zM1207 1548
q6 1 21 4.5t34 2.5t39.5 -10t36.5 -33q15 -22 16.5 -44.5t-5 -43t-19 -39t-27.5 -31.5l-115 -105v79l72 66q8 7 16 16t13.5 19t5.5 21.5t-8 23.5q-9 13 -19 18.5t-19.5 6.5t-18 -1t-12.5 -3z" />
    <glyph glyph-name="Uacute" unicode="&#xda;" horiz-adv-x="1367" 
d="M766 80q79 15 146.5 55t117 99t77 132.5t27.5 155.5v889h79v-889q0 -99 -34.5 -187.5t-94.5 -158t-141.5 -115.5t-176.5 -61v80zM154 1411h79v-889q0 -82 28 -155.5t77 -132.5t116.5 -99t147.5 -55v-80q-95 15 -177 61t-142 115.5t-94.5 158t-34.5 187.5v889zM655 1556
l210 278l98 -2l-220 -276h-88z" />
    <glyph glyph-name="Aacute" unicode="&#xc1;" horiz-adv-x="1462" 
d="M555 471h531l-399 867l44 96l660 -1434h-88l-181 391h-604zM598 1145l44 -96l-482 -1049h-88zM662 1556l210 278l98 -2l-220 -276h-88z" />
    <glyph glyph-name="Agrave" unicode="&#xc0;" horiz-adv-x="1462" 
d="M555 471h531l-399 867l44 96l660 -1434h-88l-181 391h-604zM598 1145l44 -96l-482 -1049h-88zM481 1832l102 2l224 -277l-106 -1z" />
    <glyph glyph-name="Eacute" unicode="&#xc9;" horiz-adv-x="1139" 
d="M397 1411h609v-80h-609v80zM154 1411h79v-1411h-79v1411zM397 745h471v-79h-471v79zM397 80h609v-80h-609v80zM570 1556l210 278l98 -2l-220 -276h-88z" />
    <glyph glyph-name="Ugrave" unicode="&#xd9;" horiz-adv-x="1367" 
d="M766 80q79 15 146.5 55t117 99t77 132.5t27.5 155.5v889h79v-889q0 -99 -34.5 -187.5t-94.5 -158t-141.5 -115.5t-176.5 -61v80zM154 1411h79v-889q0 -82 28 -155.5t77 -132.5t116.5 -99t147.5 -55v-80q-95 15 -177 61t-142 115.5t-94.5 158t-34.5 187.5v889zM411 1832
l102 2l224 -277l-106 -1z" />
    <glyph glyph-name="Igrave" unicode="&#xcc;" horiz-adv-x="571" 
d="M246 1411h80v-1411h-80v1411zM19 1832l102 2l224 -277l-106 -1z" />
    <glyph glyph-name="Iacute" unicode="&#xcd;" horiz-adv-x="571" 
d="M246 1411h80v-1411h-80v1411zM248 1556l210 278l98 -2l-220 -276h-88z" />
    <glyph glyph-name="Egrave" unicode="&#xc8;" horiz-adv-x="1139" 
d="M397 1411h609v-80h-609v80zM154 1411h79v-1411h-79v1411zM397 745h471v-79h-471v79zM397 80h609v-80h-609v80zM344 1832l102 2l224 -277l-106 -1z" />
    <glyph glyph-name="Ograve" unicode="&#xd2;" 
d="M245 269q-72 91 -112.5 203.5t-40.5 238.5q0 98 25.5 188.5t71.5 169.5t111 143.5t144 110.5t169.5 71.5t188.5 25.5q125 0 237 -40.5t203 -112.5l-56 -57q-81 62 -178 96t-206 34q-131 0 -245.5 -49.5t-200 -135t-135 -200t-49.5 -244.5q0 -110 34 -207t96 -177z
M418 210q79 -62 177 -96t207 -34q87 0 168 22.5t151 63.5t127.5 98.5t98.5 127.5t63.5 150.5t22.5 168.5q0 109 -35 206t-96 177l57 57q72 -91 112.5 -203t40.5 -237q0 -98 -25.5 -189t-71.5 -170t-111 -144t-144 -111t-169.5 -71.5t-188.5 -25.5q-126 0 -238 40.5
t-203 113.5zM527 1832l102 2l224 -277l-106 -1z" />
    <glyph glyph-name="Oacute" unicode="&#xd3;" 
d="M245 269q-72 91 -112.5 203.5t-40.5 238.5q0 98 25.5 188.5t71.5 169.5t111 143.5t144 110.5t169.5 71.5t188.5 25.5q125 0 237 -40.5t203 -112.5l-56 -57q-81 62 -178 96t-206 34q-131 0 -245.5 -49.5t-200 -135t-135 -200t-49.5 -244.5q0 -110 34 -207t96 -177z
M418 210q79 -62 177 -96t207 -34q87 0 168 22.5t151 63.5t127.5 98.5t98.5 127.5t63.5 150.5t22.5 168.5q0 109 -35 206t-96 177l57 57q72 -91 112.5 -203t40.5 -237q0 -98 -25.5 -189t-71.5 -170t-111 -144t-144 -111t-169.5 -71.5t-188.5 -25.5q-126 0 -238 40.5
t-203 113.5zM744 1556l210 278l98 -2l-220 -276h-88z" />
    <glyph glyph-name=".notdef.038" unicode="&#x1ee8;" horiz-adv-x="1367" 
d="M766 80q79 15 146.5 55t117 99t77 132.5t27.5 155.5v889h79v-889q0 -99 -34.5 -187.5t-94.5 -158t-141.5 -115.5t-176.5 -61v80zM154 1411h79v-889q0 -82 28 -155.5t77 -132.5t116.5 -99t147.5 -55v-80q-95 15 -177 61t-142 115.5t-94.5 158t-34.5 187.5v889zM1207 1548
q6 1 21 4.5t34 2.5t39.5 -10t36.5 -33q15 -22 16.5 -44.5t-5 -43t-19 -39t-27.5 -31.5l-115 -105v79l72 66q8 7 16 16t13.5 19t5.5 21.5t-8 23.5q-9 13 -19 18.5t-19.5 6.5t-18 -1t-12.5 -3zM655 1556l210 278l98 -2l-220 -276h-88z" />
    <glyph glyph-name=".notdef.104" unicode="&#x1ee9;" horiz-adv-x="1367" 
d="M766 80q79 15 146.5 55t117 99t77 132.5t27.5 155.5v889h79v-889q0 -99 -34.5 -187.5t-94.5 -158t-141.5 -115.5t-176.5 -61v80zM154 1411h79v-889q0 -82 28 -155.5t77 -132.5t116.5 -99t147.5 -55v-80q-95 15 -177 61t-142 115.5t-94.5 158t-34.5 187.5v889zM1207 1548
q6 1 21 4.5t34 2.5t39.5 -10t36.5 -33q15 -22 16.5 -44.5t-5 -43t-19 -39t-27.5 -31.5l-115 -105v79l72 66q8 7 16 16t13.5 19t5.5 21.5t-8 23.5q-9 13 -19 18.5t-19.5 6.5t-18 -1t-12.5 -3zM655 1556l210 278l98 -2l-220 -276h-88z" />
    <glyph glyph-name=".notdef.037" unicode="&#x1eea;" horiz-adv-x="1367" 
d="M766 80q79 15 146.5 55t117 99t77 132.5t27.5 155.5v889h79v-889q0 -99 -34.5 -187.5t-94.5 -158t-141.5 -115.5t-176.5 -61v80zM154 1411h79v-889q0 -82 28 -155.5t77 -132.5t116.5 -99t147.5 -55v-80q-95 15 -177 61t-142 115.5t-94.5 158t-34.5 187.5v889zM1207 1548
q6 1 21 4.5t34 2.5t39.5 -10t36.5 -33q15 -22 16.5 -44.5t-5 -43t-19 -39t-27.5 -31.5l-115 -105v79l72 66q8 7 16 16t13.5 19t5.5 21.5t-8 23.5q-9 13 -19 18.5t-19.5 6.5t-18 -1t-12.5 -3zM411 1832l102 2l224 -277l-106 -1z" />
    <glyph glyph-name=".notdef.103" unicode="&#x1eeb;" horiz-adv-x="1367" 
d="M766 80q79 15 146.5 55t117 99t77 132.5t27.5 155.5v889h79v-889q0 -99 -34.5 -187.5t-94.5 -158t-141.5 -115.5t-176.5 -61v80zM154 1411h79v-889q0 -82 28 -155.5t77 -132.5t116.5 -99t147.5 -55v-80q-95 15 -177 61t-142 115.5t-94.5 158t-34.5 187.5v889zM1207 1548
q6 1 21 4.5t34 2.5t39.5 -10t36.5 -33q15 -22 16.5 -44.5t-5 -43t-19 -39t-27.5 -31.5l-115 -105v79l72 66q8 7 16 16t13.5 19t5.5 21.5t-8 23.5q-9 13 -19 18.5t-19.5 6.5t-18 -1t-12.5 -3zM411 1832l102 2l224 -277l-106 -1z" />
    <glyph glyph-name=".notdef.039" unicode="&#x1eec;" horiz-adv-x="1367" 
d="M766 80q79 15 146.5 55t117 99t77 132.5t27.5 155.5v889h79v-889q0 -99 -34.5 -187.5t-94.5 -158t-141.5 -115.5t-176.5 -61v80zM154 1411h79v-889q0 -82 28 -155.5t77 -132.5t116.5 -99t147.5 -55v-80q-95 15 -177 61t-142 115.5t-94.5 158t-34.5 187.5v889zM1207 1548
q6 1 21 4.5t34 2.5t39.5 -10t36.5 -33q15 -22 16.5 -44.5t-5 -43t-19 -39t-27.5 -31.5l-115 -105v79l72 66q8 7 16 16t13.5 19t5.5 21.5t-8 23.5q-9 13 -19 18.5t-19.5 6.5t-18 -1t-12.5 -3zM625 1806q10 18 26 33q13 12 33 22.5t48 10.5q45 0 76.5 -20t46.5 -53
q7 -15 10.5 -37t-1 -46.5t-18.5 -49.5t-43 -46l-115 -89v97q19 14 36.5 25t31 22.5t22 24.5t8.5 31q0 24 -16.5 45.5t-48.5 21.5q-17 0 -29 -8t-20 -18q-10 -11 -16 -26z" />
    <glyph glyph-name=".notdef.105" unicode="&#x1eed;" horiz-adv-x="1367" 
d="M766 80q79 15 146.5 55t117 99t77 132.5t27.5 155.5v889h79v-889q0 -99 -34.5 -187.5t-94.5 -158t-141.5 -115.5t-176.5 -61v80zM154 1411h79v-889q0 -82 28 -155.5t77 -132.5t116.5 -99t147.5 -55v-80q-95 15 -177 61t-142 115.5t-94.5 158t-34.5 187.5v889zM1207 1548
q6 1 21 4.5t34 2.5t39.5 -10t36.5 -33q15 -22 16.5 -44.5t-5 -43t-19 -39t-27.5 -31.5l-115 -105v79l72 66q8 7 16 16t13.5 19t5.5 21.5t-8 23.5q-9 13 -19 18.5t-19.5 6.5t-18 -1t-12.5 -3zM625 1806q10 18 26 33q13 12 33 22.5t48 10.5q45 0 76.5 -20t46.5 -53
q7 -15 10.5 -37t-1 -46.5t-18.5 -49.5t-43 -46l-115 -89v97q19 14 36.5 25t31 22.5t22 24.5t8.5 31q0 24 -16.5 45.5t-48.5 21.5q-17 0 -29 -8t-20 -18q-10 -11 -16 -26z" />
    <glyph glyph-name=".notdef.110" unicode="&#x1edb;" 
d="M245 269q-72 91 -112.5 203.5t-40.5 238.5q0 98 25.5 188.5t71.5 169.5t111 143.5t144 110.5t169.5 71.5t188.5 25.5q125 0 237 -40.5t203 -112.5l-56 -57q-81 62 -178 96t-206 34q-131 0 -245.5 -49.5t-200 -135t-135 -200t-49.5 -244.5q0 -110 34 -207t96 -177z
M418 210q79 -62 177 -96t207 -34q87 0 168 22.5t151 63.5t127.5 98.5t98.5 127.5t63.5 150.5t22.5 168.5q0 109 -35 206t-96 177l57 57q72 -91 112.5 -203t40.5 -237q0 -98 -25.5 -189t-71.5 -170t-111 -144t-144 -111t-169.5 -71.5t-188.5 -25.5q-126 0 -238 40.5
t-203 113.5zM1205 1516q6 1 21 4.5t34 2.5t39.5 -10t36.5 -33q15 -22 16.5 -44.5t-5 -43t-19 -39t-27.5 -31.5l-115 -105v79l72 66q8 7 16 16t13.5 19t5.5 21.5t-8 23.5q-9 13 -19 18.5t-19.5 6.5t-18 -1t-12.5 -3zM744 1556l210 278l98 -2l-220 -276h-88z" />
    <glyph glyph-name=".notdef.043" unicode="&#x1edc;" 
d="M245 269q-72 91 -112.5 203.5t-40.5 238.5q0 98 25.5 188.5t71.5 169.5t111 143.5t144 110.5t169.5 71.5t188.5 25.5q125 0 237 -40.5t203 -112.5l-56 -57q-81 62 -178 96t-206 34q-131 0 -245.5 -49.5t-200 -135t-135 -200t-49.5 -244.5q0 -110 34 -207t96 -177z
M418 210q79 -62 177 -96t207 -34q87 0 168 22.5t151 63.5t127.5 98.5t98.5 127.5t63.5 150.5t22.5 168.5q0 109 -35 206t-96 177l57 57q72 -91 112.5 -203t40.5 -237q0 -98 -25.5 -189t-71.5 -170t-111 -144t-144 -111t-169.5 -71.5t-188.5 -25.5q-126 0 -238 40.5
t-203 113.5zM1205 1516q6 1 21 4.5t34 2.5t39.5 -10t36.5 -33q15 -22 16.5 -44.5t-5 -43t-19 -39t-27.5 -31.5l-115 -105v79l72 66q8 7 16 16t13.5 19t5.5 21.5t-8 23.5q-9 13 -19 18.5t-19.5 6.5t-18 -1t-12.5 -3zM527 1832l102 2l224 -277l-106 -1z" />
    <glyph glyph-name=".notdef.109" unicode="&#x1edd;" 
d="M245 269q-72 91 -112.5 203.5t-40.5 238.5q0 98 25.5 188.5t71.5 169.5t111 143.5t144 110.5t169.5 71.5t188.5 25.5q125 0 237 -40.5t203 -112.5l-56 -57q-81 62 -178 96t-206 34q-131 0 -245.5 -49.5t-200 -135t-135 -200t-49.5 -244.5q0 -110 34 -207t96 -177z
M418 210q79 -62 177 -96t207 -34q87 0 168 22.5t151 63.5t127.5 98.5t98.5 127.5t63.5 150.5t22.5 168.5q0 109 -35 206t-96 177l57 57q72 -91 112.5 -203t40.5 -237q0 -98 -25.5 -189t-71.5 -170t-111 -144t-144 -111t-169.5 -71.5t-188.5 -25.5q-126 0 -238 40.5
t-203 113.5zM1205 1516q6 1 21 4.5t34 2.5t39.5 -10t36.5 -33q15 -22 16.5 -44.5t-5 -43t-19 -39t-27.5 -31.5l-115 -105v79l72 66q8 7 16 16t13.5 19t5.5 21.5t-8 23.5q-9 13 -19 18.5t-19.5 6.5t-18 -1t-12.5 -3zM527 1832l102 2l224 -277l-106 -1z" />
    <glyph glyph-name=".notdef.111" unicode="&#x1edf;" 
d="M245 269q-72 91 -112.5 203.5t-40.5 238.5q0 98 25.5 188.5t71.5 169.5t111 143.5t144 110.5t169.5 71.5t188.5 25.5q125 0 237 -40.5t203 -112.5l-56 -57q-81 62 -178 96t-206 34q-131 0 -245.5 -49.5t-200 -135t-135 -200t-49.5 -244.5q0 -110 34 -207t96 -177z
M418 210q79 -62 177 -96t207 -34q87 0 168 22.5t151 63.5t127.5 98.5t98.5 127.5t63.5 150.5t22.5 168.5q0 109 -35 206t-96 177l57 57q72 -91 112.5 -203t40.5 -237q0 -98 -25.5 -189t-71.5 -170t-111 -144t-144 -111t-169.5 -71.5t-188.5 -25.5q-126 0 -238 40.5
t-203 113.5zM1205 1516q6 1 21 4.5t34 2.5t39.5 -10t36.5 -33q15 -22 16.5 -44.5t-5 -43t-19 -39t-27.5 -31.5l-115 -105v79l72 66q8 7 16 16t13.5 19t5.5 21.5t-8 23.5q-9 13 -19 18.5t-19.5 6.5t-18 -1t-12.5 -3zM749 1806q10 18 26 33q13 12 33 22.5t48 10.5
q45 0 76.5 -20t46.5 -53q7 -15 10.5 -37t-1 -46.5t-18.5 -49.5t-43 -46l-115 -89v97q19 14 36.5 25t31 22.5t22 24.5t8.5 31q0 24 -16.5 45.5t-48.5 21.5q-17 0 -29 -8t-20 -18q-10 -11 -16 -26z" />
    <glyph glyph-name=".notdef.045" unicode="&#x1ede;" 
d="M245 269q-72 91 -112.5 203.5t-40.5 238.5q0 98 25.5 188.5t71.5 169.5t111 143.5t144 110.5t169.5 71.5t188.5 25.5q125 0 237 -40.5t203 -112.5l-56 -57q-81 62 -178 96t-206 34q-131 0 -245.5 -49.5t-200 -135t-135 -200t-49.5 -244.5q0 -110 34 -207t96 -177z
M418 210q79 -62 177 -96t207 -34q87 0 168 22.5t151 63.5t127.5 98.5t98.5 127.5t63.5 150.5t22.5 168.5q0 109 -35 206t-96 177l57 57q72 -91 112.5 -203t40.5 -237q0 -98 -25.5 -189t-71.5 -170t-111 -144t-144 -111t-169.5 -71.5t-188.5 -25.5q-126 0 -238 40.5
t-203 113.5zM1205 1516q6 1 21 4.5t34 2.5t39.5 -10t36.5 -33q15 -22 16.5 -44.5t-5 -43t-19 -39t-27.5 -31.5l-115 -105v79l72 66q8 7 16 16t13.5 19t5.5 21.5t-8 23.5q-9 13 -19 18.5t-19.5 6.5t-18 -1t-12.5 -3zM749 1806q10 18 26 33q13 12 33 22.5t48 10.5
q45 0 76.5 -20t46.5 -53q7 -15 10.5 -37t-1 -46.5t-18.5 -49.5t-43 -46l-115 -89v97q19 14 36.5 25t31 22.5t22 24.5t8.5 31q0 24 -16.5 45.5t-48.5 21.5q-17 0 -29 -8t-20 -18q-10 -11 -16 -26z" />
    <glyph glyph-name=".notdef.067" unicode="&#x1eb3;" horiz-adv-x="1462" 
d="M555 471h531l-399 867l44 96l660 -1434h-88l-181 391h-604zM598 1145l44 -96l-482 -1049h-88zM1022 1735q-17 -44 -46 -80.5t-66.5 -63t-83 -41.5t-95.5 -15t-95.5 15t-83.5 41.5t-67 63t-46 80.5h93q30 -57 80.5 -89t118.5 -32q69 0 118.5 32t80.5 89h92zM662 2015
q10 18 26 33q13 12 33 22.5t48 10.5q45 0 76.5 -20t46.5 -53q7 -15 10.5 -37t-1 -46.5t-18.5 -49.5t-43 -46l-115 -89v97q19 14 36.5 25t31 22.5t22 24.5t8.5 31q0 24 -16.5 45.5t-48.5 21.5q-17 0 -29 -8t-20 -18q-10 -11 -16 -26z" />
    <glyph glyph-name=".notdef.048" unicode="&#x1ef2;" horiz-adv-x="1351" 
d="M636 625l536 786h97l-553 -809v-602h-80v625zM82 1411h96l399 -583l-49 -70zM378 1832l102 2l224 -277l-106 -1z" />
    <glyph glyph-name=".notdef.116" unicode="&#x1ef7;" horiz-adv-x="1351" 
d="M636 625l536 786h97l-553 -809v-602h-80v625zM82 1411h96l399 -583l-49 -70zM616 1806q10 18 26 33q13 12 33 22.5t48 10.5q45 0 76.5 -20t46.5 -53q7 -15 10.5 -37t-1 -46.5t-18.5 -49.5t-43 -46l-115 -89v97q19 14 36.5 25t31 22.5t22 24.5t8.5 31q0 24 -16.5 45.5
t-48.5 21.5q-17 0 -29 -8t-20 -18q-10 -11 -16 -26z" />
  </font>
</defs>
</svg>
