<svg xmlns="http://www.w3.org/2000/svg">
<defs>
<font id="UTMAptimaBoldItalic" horiz-adv-x="1028" >
  <font-face 
    font-family="UTMAptimaBoldItalic"
    font-weight="700"
    font-style="italic"
    font-stretch="normal"
    units-per-em="2048"
    panose-1="2 4 6 3 5 5 6 9 2 4"
    ascent="1638"
    descent="-410"
    x-height="983"
    cap-height="1397"
    bbox="-91 -541 4956 2271"
    underline-thickness="109"
    underline-position="-359"
    slope="-12"
    unicode-range="U+0020-2026"
  />
<missing-glyph horiz-adv-x="5040" 
d="M3785 2045h10q35 -10 26 -52q-2 -12 -44 -57h-28q5 24 40 54l4 10q-2 13 -7 15h-9q-8 0 -14 -19h-30q16 49 52 49zM2447 2016l23 -31q-4 -16 -47 -30h-19l-56 12l-14 -12l-22 25q17 29 49 29h11l39 -11h2q10 0 34 18zM889 1980h142l-13 -60h-94l-16 -75h89l-13 -59h-89
l-27 -129l-6 -5h-49l69 323zM1576 1980h43l5 -5l-17 -78h30l-11 -52h-30l-40 -188l-7 -5h-49l41 193h-25l11 52h25l17 78zM2042 1980h42l3 -5l-20 -94h3q28 24 59 24h2q58 0 68 -71l-7 -39l-30 -143h-52l24 115q17 80 -25 80h-7q-43 0 -61 -86l-23 -109h-51l69 323z
M2621 1980h49l4 -5l-48 -222q0 -51 35 -51q45 7 56 59l46 214l6 5h49l-46 -216q-18 -85 -90 -112q-17 -8 -37 -8q-47 0 -70 55q-9 24 -2 57zM2856 1980h159l-13 -60h-56l-57 -268h-53l57 268h-55l12 55zM3042 1980h71q6 -4 29 -251h2l134 251h73l-70 -328h-54l51 242h-2
l-125 -242h-44q-4 0 -19 182l-7 60h-3l-51 -242h-55zM4181 1980h52l-70 -328h-45l-4 5l2 11l4 2v14q-38 -40 -87 -40q-67 0 -80 91l3 39l1 3q19 94 118 125l24 3q35 0 56 -32h3zM2467 1928h36l2 -6l-10 -49h-45l-47 -221h-48l5 23q-30 -31 -66 -31q-86 14 -68 97l33 156h51
l-22 -104q-17 -79 8 -86l17 -5h6q26 0 46 36l9 26l28 133h53l5 25zM3886 1928l-12 -55h-31l-47 -221h-47l5 25h-2q-22 -33 -64 -33q-68 0 -69 78l3 29l31 146h52l-25 -120q-11 -50 4 -68l20 -7h9q42 0 56 69l27 126h27q4 0 10 28l4 3h49zM1163 1905q68 0 86 -77q6 -18 1 -54

<glyph glyph-name=".notdef" horiz-adv-x="5040" 
d="M3785 2045h10q35 -10 26 -52q-2 -12 -44 -57h-28q5 24 40 54l4 10q-2 13 -7 15h-9q-8 0 -14 -19h-30q16 49 52 49zM2447 2016l23 -31q-4 -16 -47 -30h-19l-56 12l-14 -12l-22 25q17 29 49 29h11l39 -11h2q10 0 34 18zM889 1980h142l-13 -60h-94l-16 -75h89l-13 -59h-89
l-27 -129l-6 -5h-49l69 323zM1576 1980h43l5 -5l-17 -78h30l-11 -52h-30l-40 -188l-7 -5h-49l41 193h-25l11 52h25l17 78zM2042 1980h42l3 -5l-20 -94h3q28 24 59 24h2q58 0 68 -71l-7 -39l-30 -143h-52l24 115q17 80 -25 80h-7q-43 0 -61 -86l-23 -109h-51l69 323z
M2621 1980h49l4 -5l-48 -222q0 -51 35 -51q45 7 56 59l46 214l6 5h49l-46 -216q-18 -85 -90 -112q-17 -8 -37 -8q-47 0 -70 55q-9 24 -2 57zM2856 1980h159l-13 -60h-56l-57 -268h-53l57 268h-55l12 55zM3042 1980h71q6 -4 29 -251h2l134 251h73l-70 -328h-54l51 242h-2
l-125 -242h-44q-4 0 -19 182l-7 60h-3l-51 -242h-55zM4181 1980h52l-70 -328h-45l-4 5l2 11l4 2v14q-38 -40 -87 -40q-67 0 -80 91l3 39l1 3q19 94 118 125l24 3q35 0 56 -32h3zM2467 1928h36l2 -6l-10 -49h-45l-47 -221h-48l5 23q-30 -31 -66 -31q-86 14 -68 97l33 156h51
l-22 -104q-17 -79 8 -86l17 -5h6q26 0 46 36l9 26l28 133h53l5 25zM3886 1928l-12 -55h-31l-47 -221h-47l5 25h-2q-22 -33 -64 -33q-68 0 -69 78l3 29l31 146h52l-25 -120q-11 -50 4 -68l20 -7h9q42 0 56 69l27 126h27q4 0 10 28l4 3h49zM1163 1905q68 0 86 -77q6 -18 1 -54
q-19 -88 -117 -127l-33 -3q-63 0 -85 73q-8 22 -1 52l2 10q20 94 128 126h19zM1416 1905h3q74 0 61 -101l-32 -152h-51l25 119q16 76 -26 76h-5q-44 0 -60 -76l-25 -119h-52l52 245h46l-4 -21q36 29 68 29zM1871 1905h7q72 0 86 -89h-60q-10 31 -36 31h-17q-56 -14 -66 -61
l-6 -15q-2 -69 47 -69h9q22 0 52 27h40l3 3h3l1 -3l3 3l2 -3l3 3v-7q-50 -81 -127 -81q-76 0 -90 94l4 36l1 3q18 85 102 120q17 8 39 8zM3546 1905h2q49 0 57 -60l-3 -14h-52q3 16 -13 16h-4q-14 0 -21 -13l-3 -13q-2 -9 60 -35q26 -19 18 -59q-12 -58 -78 -80l-24 -3
q-73 12 -58 83h54q-4 -20 22 -25h4q19 0 28 23q5 22 -58 44q-28 27 -22 59q14 66 91 77zM4608 1905q55 0 63 -63q3 -18 -6 -65l-27 -125h-52l24 112q17 83 -23 83h-11q-33 0 -51 -54l-30 -141h-52l1 5h-2l2 2l51 238h47l-4 -21q31 29 70 29zM4837 1905h5q40 0 60 -40l4 18
l-2 3l5 11h47l-44 -208q-21 -97 -113 -132l-34 -4h-7q-70 0 -87 80h59q19 -22 40 -23h13q22 0 48 22q17 13 33 52h-3q-41 -40 -82 -40q-57 0 -81 70q-6 18 0 63q18 88 113 125zM4254 1897h53l-29 -136q-6 -59 28 -59h7q46 0 65 93l22 102h51l-52 -245h-47l-1 10h3l-2 3l1 5
l3 2l1 3h-4q-5 -23 -64 -31h-3q-59 0 -68 75l16 85zM1066 1771q-4 -69 49 -69h7q62 14 72 65l4 15q0 65 -46 65h-5q-58 0 -81 -76zM4007 1774q-2 -72 46 -72h5q58 0 82 75q10 49 -37 70h-22q-37 0 -68 -57zM4751 1774q-7 -72 50 -72h5q61 12 74 72q13 61 -44 73h-14
q-59 -16 -69 -62zM4272 1620h52l-12 -57h-52zM1352 1402q40 -11 32 -49v-4q-4 -17 -45 -60h-28q5 25 43 57l1 7q3 12 -3 15h-12q-11 -4 -14 -19h-28l1 6q7 32 42 44zM3633 1339q92 0 117 -99h-60q-28 42 -71 42q-55 0 -101 -68q-15 -22 -20 -47q-17 -78 57 -110l18 -1
q36 0 84 39h61q-65 -97 -159 -97q-93 0 -117 112q-4 31 3 62q21 97 122 152q32 15 66 15zM3948 1339q57 0 93 -47q36 -51 22 -115l-4 -20q-19 -89 -122 -146q-36 -13 -66 -13q-89 0 -117 101q-6 33 0 60l4 18q21 98 130 151q31 11 60 11zM2545 1337h2l45 -11h3q11 0 28 11
l10 -36q-22 -19 -39 -19h-3l-52 10l-21 -7l-12 36q21 16 39 16zM999 1334h19q118 0 124 -26q19 -26 12 -62q-22 -57 -42 -57l-2 -6q42 -23 33 -66l-4 -18q-13 -63 -87 -88l-55 -5h-67zM2833 1334h53l-46 -217q-7 -61 32 -61q29 0 53 39l9 30l43 203l5 6h45l4 -6l-36 -171
q-25 -118 -69 -133q-29 -26 -69 -26q-55 0 -75 76l8 54zM3088 1334h59q4 0 72 -237h4l50 237h50l3 -6l-68 -322h-58q-19 48 -75 238h-3l-50 -238h-53zM3384 1334h54l-69 -328h-54zM4142 1334h8q155 0 166 -40q21 -11 31 -75l-4 -36l-2 -11l2 -2q-19 -94 -113 -149
q-38 -15 -102 -15h-55zM4424 1334h153l-12 -60h-103l-16 -75h101l-12 -57h-101l-16 -74l3 -5h99l-12 -57h-157l68 322zM3813 1175l-3 -10q-16 -76 56 -108l19 -1q68 0 115 86l7 20l3 15q13 61 -40 94q-10 8 -37 11q-66 0 -113 -83zM1041 1274l-15 -67h9q54 0 60 28l6 14
q-5 25 -23 25h-37zM4183 1274l-44 -206l1 -3v-2q104 0 138 76l5 15l6 29q7 34 -17 68q-20 23 -73 23h-16zM1308 1259h5q38 0 63 -40l7 32h49l-52 -245h-49l6 32q-44 -40 -88 -40q-75 0 -80 97l2 36q19 89 112 125zM1581 1259h3q74 0 62 -102l-32 -151h-51l27 128
q14 67 -28 67h-10q-34 0 -52 -62l-28 -133h-52l52 245h47l-5 -21q34 29 67 29zM1810 1259h5q45 0 63 -40l7 32h47l-47 -219q-20 -95 -131 -126h-16q-74 0 -90 82h59q20 -25 38 -25h14q52 0 81 77q-42 -42 -85 -42q-60 0 -84 81l2 44l4 16q17 79 110 117zM2179 1259h2
q43 0 54 -37h2q39 37 76 37h4q57 0 68 -55q2 -25 -2 -45l-32 -153h-52l29 138q9 44 -11 55l-12 2h-15q-32 0 -50 -65l-27 -130h-52l29 136q12 59 -31 59h-8q-32 0 -48 -57l-29 -138h-54l52 245h50l-5 -21h2q11 24 60 29zM2549 1259q47 0 66 -42l8 34h47l-52 -245h-47l6 32
q-44 -40 -86 -40q-74 0 -83 92l3 41q19 90 112 125zM1222 1117q-10 -48 48 -61h4q45 0 72 46l6 15l5 22q1 62 -44 62h-14q-41 0 -71 -57zM1727 1128q-11 -48 28 -68l17 -4h5q47 0 75 57l5 23q3 65 -44 65h-12q-50 0 -74 -73zM2465 1131l-3 -14q2 -61 44 -61h14q61 12 72 64
l2 11q10 45 -23 65l-17 5h-10q-66 -8 -79 -70zM1014 1150l-17 -82q-1 -5 6 -5q77 0 86 45q8 34 -38 42h-37zM3126 753l18 -28l-63 -55q-15 12 -21 26zM1678 727l74 -54q-3 -15 -30 -42l-76 54q27 41 32 42zM2997 693h38l42 -60h-54l-15 26l-29 -26h-54q67 60 72 60z
M3569 693h40l43 -60h-54l-18 26h-1q-1 -5 -25 -26h-54zM767 685h52q8 -4 18 -137l11 -110q11 8 55 100l79 147h54v-2l-181 -326h-44zM1304 685h51l-11 -54h-51zM1499 685h46l5 -5l-68 -323h-52zM2462 685h45l3 -5l-16 -78h31l-11 -52h-31l-41 -193h-53l41 193h-26l11 52h26
l16 78zM2570 685h52l-20 -98h2q27 23 58 23h3q57 0 66 -71l-5 -38l-30 -144h-52l24 115q17 81 -22 81h-10q-42 0 -60 -87l-23 -109h-52zM2809 685h52l-11 -54h-52zM3173 685h44l5 -5l-16 -78h29l-11 -52h-29l-41 -193h-54l41 193h-27l11 52h27l16 78zM3379 685h52l-69 -328
h-52zM4102 685h52l-69 -328h-52zM4461 685h51l-11 -54h-51zM1684 610h5q83 0 89 -102l-2 -23l-2 -11q-18 -83 -111 -120l-36 -5q-76 0 -90 97l2 32q21 97 121 130zM1940 610h4q53 0 66 -60q1 -25 -11 -81l-23 -112h-54l31 146q3 50 -27 50h-10q-38 0 -54 -57l-29 -139h-54
l52 245h49l-5 -21q32 29 65 29zM2175 610h4q45 0 55 -39h3l7 31h49l-44 -206q-22 -102 -118 -135l-28 -3h-5q-73 0 -89 81h52l33 -20l14 -3h14q50 0 76 72q-41 -39 -81 -39q-62 0 -82 76q-6 23 1 60q18 85 112 123zM2995 610h2q82 0 89 -104l-3 -25l-8 -27h-172
q6 -45 36 -45l13 -3q29 0 54 22h57l-1 -3q-51 -76 -124 -76q-77 0 -90 97l5 28l1 8q11 49 51 89q42 39 90 39zM3558 610h5q41 0 62 -39h2l7 31h47l-52 -245h-47l6 31h-2q-43 -39 -85 -39q-71 0 -82 89l3 36l3 14q18 86 109 120zM3840 610h7q88 0 80 -128l-2 -1l-3 -15
q-14 -65 -89 -106q-23 -11 -48 -11q-34 0 -57 32l-21 -99l-6 -5h-49l69 325h49l-6 -28q38 36 76 36zM4280 610q44 0 67 -39l7 31h49l-52 -245h-49l6 31q-43 -39 -85 -39q-92 0 -80 132q18 84 99 121q16 8 38 8zM1050 602h50l-29 -136q-10 -60 29 -60h5q44 0 63 87l23 109h52
l-52 -245h-47l5 24h-5q-5 -23 -63 -32h-3q-55 0 -68 68q4 35 17 99l18 81zM1287 602h51l-52 -245h-51zM2792 602h52l-52 -245h-52zM4444 602h51l-52 -245h-51zM1596 488l-4 -16q-1 -66 45 -66h4q59 0 82 76q2 71 -44 71h-11q-62 -16 -72 -65zM2087 472q1 -66 45 -66h11
q48 0 75 75v1q2 71 -44 71h-14q-39 0 -68 -57zM2912 506h122l1 2q-7 45 -50 45h-7q-35 0 -66 -47zM3474 474q-2 -68 46 -68h5q52 0 78 63l3 12q5 72 -42 72h-16q-59 -14 -69 -63zM3743 478q-3 -72 46 -72h3q50 0 78 60l5 22q9 43 -36 65h-22q-47 0 -73 -72zM4195 472
q-4 -66 52 -66q43 0 71 48l5 15l4 16q11 54 -38 68h-18q-42 0 -71 -60zM3484 321h51l-11 -52h-51zM4205 321h51l-11 -52h-51zM2761 133h4q35 0 32 -50v-2q-3 -16 -33 -41l-13 -17h-28q5 25 40 56l3 2v2q1 19 -5 19h-10q-8 0 -13 -19h-30q17 50 53 50zM1570 116l40 -60
l-30 -19l-41 52zM369 79h4q64 -48 72 -60l-28 -37q-78 49 -76 58zM3507 79l73 -58l-26 -39q-10 0 -79 55q22 36 32 42zM4594 76l10 -42l-102 -52l-12 39l105 58zM1215 53h51l-4 -19l4 -5h14l-8 -36h-14l-6 -5l-59 -279h-46l7 31q-43 -40 -90 -40q-72 0 -80 105l3 26
q22 102 129 131h14q33 0 59 -33l12 59l-5 5h-43l8 36h49zM1489 45h40l43 -61h-53l-17 27l-29 -27h-53zM2650 45h33q12 0 50 -61h-54l-17 27q-23 -21 -25 -27h-58l1 4zM57 37h160l-13 -60h-56l-57 -268h-50l-3 5l52 245l3 3v2l-1 2l2 3l-1 2l2 3l-1 3h-54l11 54zM707 37h47
l-16 -73l2 -2l-3 -3l-1 -3l2 -2l-3 -3v-3l1 -2v-2l-3 -3l2 -3h3q22 24 56 24h3q53 0 64 -58q4 -17 -2 -42l-32 -153h-52l27 127q14 68 -26 68h-8q-43 0 -61 -86l-23 -109h-52l68 322zM1305 37h47l3 -6l-10 -49h-52zM1995 37h52l-42 -198l94 115h62l-103 -118l63 -125v-2h-70
q-5 22 -50 115l-24 -115h-52zM2279 37l-21 -99q29 24 58 24q57 0 68 -56q6 -19 -7 -77l-25 -120h-54l28 133q13 62 -28 62h-11q-31 0 -48 -55l-30 -140h-53l67 314l-1 3l1 3l1 2v3l2 3h53zM2466 37h51l-12 -55h-51zM3156 37h51l-23 -108q34 33 75 33h3q75 0 85 -94l-3 -37
q-16 -75 -90 -120q-32 -11 -51 -11q-41 0 -63 40l-7 -31h-47zM4283 37h52l-21 -99h2q28 24 59 24h3q60 0 66 -74l-7 -41l-29 -138h-52l24 111q17 82 -15 82l-10 2h-12q-37 0 -54 -80l-24 -115h-52zM321 -38h3l-13 -58h-5q-42 0 -54 -57l-29 -138h-53l52 245h47l-4 -21
q24 29 56 29zM556 -38q71 0 67 -87l-35 -166h-51l29 136q6 59 -29 59h-6q-45 0 -62 -84l-24 -111h-52l52 245h50l-4 -21q31 29 65 29zM1496 -38q72 0 85 -94l-4 -39q-7 -24 -12 -24h-169q7 -47 52 -47q24 0 53 21h57q-50 -79 -125 -79q-82 0 -91 105l8 37q17 81 114 117z
M2649 -38h5q77 0 86 -97l-2 -26l-5 -21l-6 -13h-170q8 -47 43 -47h12q21 0 47 21h59q-51 -79 -122 -79q-84 0 -93 102l4 29q20 93 118 128zM2907 -38h4q54 0 65 -60q2 -25 -10 -82l-24 -111h-54l29 138q10 48 -23 57h-11q-38 0 -55 -57l-29 -138h-54l52 245h50l-4 -21
q31 29 64 29zM3500 -38h6q40 0 61 -40h2l7 32h47l-52 -245h-47l7 31h-2q-43 -40 -87 -40q-71 0 -82 90l4 37l3 12q17 82 101 117q13 6 32 6zM3773 -38h4q62 0 65 -78l-15 -84l-19 -91h-54l29 138q10 48 -26 57h-9q-38 0 -53 -52l-30 -143h-54l52 245h49l-4 -21q32 29 65 29z
M4125 -38h1q74 0 84 -93l-5 -40q-18 -88 -110 -126l-26 -3q-41 0 -61 34l-22 -106h-52l69 326h47l-6 -29q38 37 81 37zM4706 -38h5q34 0 55 -37q35 37 77 37h6q56 0 65 -66l-5 -51l-29 -136h-52l26 122q15 73 -24 73h-7q-35 0 -51 -50l-30 -140l-6 -5h-48l30 140
q9 42 -20 55h-17q-40 0 -56 -77l-25 -118h-51l52 245h47l-4 -21q28 29 62 29zM349 -46h49l4 -6l-50 -234l-6 -5h-49zM1287 -46h52l-52 -245h-52zM1639 -46h52l-29 -136q-9 -60 30 -60h4q44 0 62 81l24 115h52l-52 -245h-47l5 24h-5q-19 -33 -66 -33q-52 0 -66 63q-2 12 3 34
zM2448 -46h51l-52 -245h-51zM4505 -46h51l-52 -245h-51zM1041 -169q-11 -53 35 -73h12q54 0 80 66l3 10q11 53 -40 70h-17q-38 0 -70 -57zM1407 -143h122q-8 47 -43 47h-7q-43 0 -71 -44zM2568 -143h122q-11 47 -44 47h-7q-46 0 -71 -47zM3162 -158l-2 -11q-6 -73 45 -73h5
q66 8 79 71l2 5q9 45 -25 65l-17 5h-14q-63 -14 -73 -62zM3415 -173q-1 -69 47 -69h11q41 0 72 60l3 13q7 73 -41 73h-17q-47 0 -74 -73zM4028 -158l-4 -22q-10 -47 45 -62h9q50 0 78 76q1 70 -44 70h-15q-59 -17 -69 -62z" />
    <glyph glyph-name=".null" horiz-adv-x="0" 
 />
    <glyph glyph-name="nonmarkingreturn" horiz-adv-x="571" 
 />
    <glyph glyph-name="space" unicode=" " horiz-adv-x="589" 
 />
    <glyph glyph-name="exclam" unicode="!" horiz-adv-x="700" 
d="M205 139q15 68 75.5 118t128.5 50t108 -48t24 -120q-15 -71 -73 -119.5t-130 -48.5q-68 0 -107.5 50.5t-25.5 117.5zM465 455h-58q1 114 5.5 273t11.5 304q-1 76 3 131.5t15 106.5q14 69 73.5 116.5t133.5 47.5q76 0 109.5 -48.5t16.5 -128.5q-9 -43 -47 -138t-69 -177
l-95 -233q-26 -64 -49.5 -122.5t-49.5 -131.5z" />
    <glyph glyph-name="quotedbl" unicode="&#x22;" horiz-adv-x="700" 
d="M524 1270l-80 -377q-9 -43 -34 -68.5t-64 -25.5q-82 0 -62 94l10 29l74 348l7 49q24 115 106 115q78 0 52 -123zM860 1270l-80 -377q-9 -43 -34 -68.5t-64 -25.5q-86 0 -68 86l12 37l74 348l4 37q27 127 113 127q78 0 51 -127z" />
    <glyph glyph-name="numbersign" unicode="#" horiz-adv-x="1159" 
d="M1144 590l-32 -152h-213l-158 -438h-156l159 438h-221l-159 -438h-152l159 438h-213l32 152h238l78 213h-213l32 151h234l147 406h156l-148 -406h218l147 406h152l-144 -406h189l-32 -151h-213l-79 -213h192zM879 803h-221l-79 -213h221z" />
    <glyph glyph-name="dollar" unicode="$" horiz-adv-x="1159" 
d="M511 74l104 487q-197 39 -275 115q-98 96 -57 291q30 143 128 240.5t248 140.5q60 16 128 24l35 164l56 -4l63 4l-35 -164q106 0 190.5 -25.5t146.5 -84.5q-40 -60 -62 -99q-34 -55 -56 -106h-28q-9 86 -67 143t-146 70l-94 -443q199 -43 285 -122q113 -105 73 -295
q-40 -187 -199 -313t-341 -126l-47 -221q-31 8 -60 8q-24 0 -37 -2q-16 -6 -22 -6l47 221q-113 0 -209 34t-168 101q51 121 100 242h41q5 -106 77 -181t181 -93zM679 864l86 406q-81 -8 -141 -63.5t-78 -141.5q-18 -82 21 -133q31 -43 112 -68zM727 528l-97 -454
q61 0 140 59q92 70 113 170q20 96 -42 164q-51 53 -114 61z" />
    <glyph glyph-name="percent" unicode="%" horiz-adv-x="2052" 
d="M584 -61l1028 1482l52 -4l59 4l-1028 -1482l-57 4zM1476 -29q-154 0 -224 91.5t-37 244.5q31 148 154 244t270 96q140 0 222 -85t51 -230q-35 -164 -155.5 -262.5t-280.5 -98.5zM1498 37q92 0 150 110q35 66 60 185q22 104 13 160q-14 90 -96 90q-90 0 -145 -103
q-37 -65 -61 -176q-24 -113 -18 -170q11 -96 97 -96zM685 700q-152 0 -223 90.5t-39 241.5q32 150 154.5 245t273.5 95q138 0 217 -80q88 -88 57 -231q-35 -164 -157.5 -262.5t-282.5 -98.5zM711 766q90 0 148 108q37 70 62 187q21 98 10 156q-15 90 -97 90q-90 0 -147 -101
q-36 -65 -60 -178t-17 -168q11 -94 101 -94z" />
    <glyph glyph-name="ampersand" unicode="&#x26;" horiz-adv-x="1486" 
d="M920 799l18 -29l218 -360q87 79 175 188q63 76 154 201l85 -115q-169 -190 -357 -356l211 -312l-6 -28q-32 0 -94 6t-95 6t-100 -6t-100 -6l-70 147q-100 -72 -232.5 -122t-238.5 -50q-91 0 -156.5 22.5t-116.5 73t-65 114t2 138.5q31 146 173 262q107 89 282 160
q-53 109 -71 164q-27 92 -7 184q29 140 168 232q126 84 272 84q133 0 214 -58q99 -67 73 -192q-24 -111 -126 -205q-69 -63 -210 -143zM877 872q70 48 136.5 124.5t80.5 142.5q14 65 -14 112t-91 47q-148 0 -180 -151q-13 -60 14 -143q15 -41 54 -132zM647 655
q-80 -49 -131 -104q-61 -68 -77 -141q-21 -97 28 -177q42 -65 115 -94q20 -10 44.5 -13t63.5 -3q49 0 115.5 24.5t110.5 61.5q-61 92 -137 219q-49 84 -132 227z" />
    <glyph glyph-name="quotesingle" unicode="'" horiz-adv-x="589" 
d="M634 1270l-80 -377q-9 -43 -34 -68.5t-64 -25.5q-82 0 -62 94l10 29l74 348l4 37q27 127 109 127q78 0 52 -123z" />
    <glyph glyph-name="parenleft" unicode="(" horiz-adv-x="700" 
d="M890 1548l41 -57q-180 -164 -295 -406q-96 -200 -152 -467q-54 -251 -39 -442q17 -219 124 -389l-68 -53q-178 186 -234.5 402t5.5 507q63 295 212 510q143 205 406 395z" />
    <glyph glyph-name="parenright" unicode=")" horiz-adv-x="700" 
d="M66 -266l-42 53q181 168 296 408q95 200 152 469q54 251 39 442q-17 219 -124 389l68 53q177 -190 234 -404t-5 -505q-63 -295 -209 -505t-409 -400z" />
    <glyph glyph-name="asterisk" unicode="*" horiz-adv-x="917" 
d="M448 1262l189 -172l32 282l76 -4l83 4l-92 -282l262 176q11 -45 21.5 -73t30.5 -71l-286 -110l239 -111l-113 -143l-190 164l-27 -279h-159l87 279l-254 -172l-35 102l-25 37l296 123l-247 106q32 33 60 68t52 76z" />
    <glyph glyph-name="plus" unicode="+" horiz-adv-x="1245" 
d="M661 610l91 426h176l-91 -426h430l-37 -176h-430l-92 -434h-176l92 434h-426l37 176h426z" />
    <glyph glyph-name="comma" unicode="," horiz-adv-x="589" 
d="M-33 -365l175 381q23 50 47 101t55 99t64 69.5t85 21.5q53 0 85.5 -39t22.5 -88q-8 -39 -31 -65q-104 -119 -228 -254q-153 -166 -231 -250z" />
    <glyph glyph-name="hyphen" unicode="-" horiz-adv-x="700" 
d="M160 348l46 217h512l-46 -217h-512z" />
    <glyph glyph-name="hyphen" unicode="&#x2010;" horiz-adv-x="700" 
d="M160 348l46 217h512l-46 -217h-512z" />
    <glyph glyph-name="period" unicode="." horiz-adv-x="589" 
d="M276 -29q-68 0 -105.5 50.5t-23.5 117.5q15 68 73.5 118t126.5 50q69 0 110 -49t26 -119q-15 -71 -75 -119.5t-132 -48.5z" />
    <glyph glyph-name="slash" unicode="/" horiz-adv-x="811" 
d="M1124 1548l-1005 -1814q-21 4 -39 6t-45 2q-20 0 -47 -3t-41 -5l1004 1814q20 -4 39 -6t46 -2q20 0 46 3t42 5z" />
    <glyph glyph-name="zero" unicode="0" horiz-adv-x="1159" 
d="M868 1372q262 0 339 -207q61 -164 1 -448q-53 -252 -119 -379t-159 -215q-159 -152 -368 -152q-131 0 -212.5 51.5t-121.5 161t-37.5 228t33.5 260.5q27 129 78.5 261t120.5 214q180 225 445 225zM521 647q-68 -319 -62 -430q7 -151 128 -151q104 0 178 157
q64 135 131 453q72 338 62.5 472t-109.5 134q-115 0 -193 -164q-63 -135 -135 -471z" />
    <glyph glyph-name="one" unicode="1" horiz-adv-x="1159" 
d="M452 -12l246 1159q-130 -64 -268 -123q-15 55 -60 102l4 17q133 41 236.5 80t407.5 174l13 -13l-297 -1396q-24 0 -70 6t-70 6q-29 0 -68 -4t-74 -8z" />
    <glyph glyph-name="two" unicode="2" horiz-adv-x="1159" 
d="M999 0h-901l19 90q223 174 314 252q189 164 301 305q139 178 174 340q25 117 -11 199q-44 96 -156 96q-90 0 -169 -102q-68 -88 -89 -189l2 -8l-21 -4q-26 41 -61 78t-70 57q77 131 214 199q122 59 271 59q203 0 310 -84q126 -98 84 -293q-28 -135 -131 -250
q-37 -45 -105 -102q-47 -39 -120 -94q-278 -203 -380 -287l-3 -12h262q53 0 161.5 8t161.5 8q-20 -65 -40 -131q-9 -67 -17 -135z" />
    <glyph glyph-name="three" unicode="3" horiz-adv-x="1159" 
d="M508 651l21 103l53 -4q121 0 195 84q67 73 94 202q21 97 0 162q-27 84 -115 84q-96 0 -159 -74q-46 -53 -90 -172h-29q-35 45 -53 68q-37 47 -57 67q91 111 212 160q101 41 240 41q201 0 295.5 -84t64.5 -227q-27 -125 -112 -203q-77 -70 -209 -113l-31 -12l-7 -12
q-1 -8 22.5 -12t35.5 -4q130 -43 163 -72q85 -76 48 -248q-39 -184 -218.5 -299t-394.5 -115q-127 0 -212 33q-102 39 -151 127q40 41 87 90t77 86l29 -4q-9 -106 27 -166q45 -71 147 -71q106 0 197 96q79 86 102 194q37 176 -31 244q-53 51 -180 51h-61z" />
    <glyph glyph-name="four" unicode="4" horiz-adv-x="1159" 
d="M677 332h-537q16 49 33 98q4 21 6 47.5t3 50.5q68 74 206 230.5t225 257.5q161 178 198 221q65 74 115 135q30 -4 57 -6t68 -2q31 0 69 3t60 5l-174 -819h168q-10 -29 -17.5 -53.5t-14.5 -57.5q-5 -26 -9 -55t-6 -55h-168l-73 -344q-24 0 -70.5 6t-70.5 6q-29 0 -67.5 -4
t-73.5 -8zM724 553l126 594l-513 -582l6 -12h381z" />
    <glyph glyph-name="five" unicode="5" horiz-adv-x="1159" 
d="M530 1360h680q-11 -31 -18.5 -58.5t-14.5 -60.5q-7 -31 -11.5 -61.5t-7.5 -61.5h-586l-91 -356l11 -4q50 24 103.5 34.5t110.5 10.5q100 0 169 -20.5t126 -77.5q103 -109 66 -283q-22 -105 -87.5 -192t-164.5 -148q-82 -51 -191.5 -81t-204.5 -30q-100 0 -185.5 28
t-150.5 87q83 92 146 209h29q5 -94 42 -154q45 -75 135 -75q133 0 221 106q74 90 104 229q26 121 -25 209q-24 39 -64 62.5t-89 23.5q-50 0 -101 -22.5t-93 -59.5l-44 29z" />
    <glyph glyph-name="six" unicode="6" horiz-adv-x="1159" 
d="M1132 1282l-17 -20q-24 12 -68 16t-50 4q-67 0 -134.5 -36t-122.5 -95q-39 -39 -69 -84q-19 -29 -70 -138.5t-72 -207.5l11 -8q117 106 256 106q180 0 276.5 -106.5t58.5 -286.5q-43 -201 -209.5 -328t-371.5 -127q-51 0 -111.5 13.5t-95.5 35.5q-86 46 -127 136
q-38 77 -42.5 176.5t18.5 208.5q45 213 147 395q122 215 294 330q83 53 182 79.5t197 26.5q27 0 51 -1t49 -7q1 -18 7.5 -39.5t12.5 -42.5zM466 406q-29 -138 -20 -213q14 -127 120 -127q94 0 170 112q57 88 79 195q27 127 14 207q-21 120 -128 120q-94 0 -161 -104
q-50 -78 -74 -190z" />
    <glyph glyph-name="seven" unicode="7" horiz-adv-x="1159" 
d="M424 1360h934l8 -37q-275 -342 -503 -653q-266 -361 -469 -682l-132 12q-29 0 -64.5 -4t-69.5 -8q252 291 497 583q269 324 427 527l-688 -17q8 25 23 74t19 66q6 28 10 66t8 73z" />
    <glyph glyph-name="eight" unicode="8" horiz-adv-x="1159" 
d="M649 688q-73 -31 -125 -135q-39 -78 -59 -172q-34 -158 5 -244q33 -71 112 -71q95 0 170 114q58 88 81 197q13 61 15 133t-15 109.5t-49 59t-71 21.5q-30 0 -64 -12zM934 758l-4 -17q124 -18 181.5 -114.5t29.5 -225.5q-42 -196 -204 -313t-375 -117q-100 0 -181.5 22.5
t-139.5 75t-79 133.5t-2 171q28 133 131 240.5t234 127.5l4 17q-97 18 -148.5 99t-29.5 183q36 168 193 256q135 76 315 76q101 0 166.5 -14.5t122.5 -59.5q115 -92 84 -241q-25 -115 -103 -193t-195 -106zM630 1020q-12 -55 -14.5 -91t11.5 -71t41 -57.5t65 -22.5
q88 0 149 94q46 70 67 168q22 103 5 162q-21 80 -114 80q-90 0 -148 -92q-40 -64 -62 -170z" />
    <glyph glyph-name="nine" unicode="9" horiz-adv-x="1159" 
d="M229 131l15 12q50 -41 72 -53q44 -24 91 -24q178 0 318 190q111 154 153 350l4 21l-11 4q-57 -49 -127.5 -76t-140.5 -27q-170 0 -260 101q-97 106 -60 276q24 117 69.5 196t139.5 156q76 62 161 88.5t184 26.5q123 0 213.5 -40t139.5 -128q42 -80 47.5 -183t-17.5 -214
q-34 -160 -98 -301q-76 -162 -178.5 -278.5t-252.5 -186.5t-292 -70q-63 0 -114 17q-24 8 -29.5 10t-6.5 26.5t-8.5 56.5t-11.5 50zM945 938q29 137 21 215q-13 129 -120 129q-90 0 -163 -100q-60 -84 -82 -183l-1 -24q-25 -121 -13 -201q18 -127 124 -127q95 0 162 105
q48 77 72 186z" />
    <glyph glyph-name="colon" unicode=":" horiz-adv-x="589" 
d="M422 639q-70 0 -108.5 49t-23.5 119q14 67 74.5 117.5t128.5 50.5t108 -48t25 -120q-15 -68 -73.5 -118t-130.5 -50zM280 -29q-70 0 -108.5 49.5t-23.5 118.5q14 68 74.5 118t128.5 50t108 -48t25 -120q-15 -69 -74.5 -118.5t-129.5 -49.5z" />
    <glyph glyph-name="semicolon" unicode=";" horiz-adv-x="589" 
d="M318 807q14 67 75.5 117.5t128.5 50.5q68 0 107.5 -48t24.5 -120q-14 -68 -73 -118t-131 -50q-67 0 -106.5 50t-25.5 118zM-33 -365l175 381q23 50 47 101t55 99t64 69.5t85 21.5q53 0 85.5 -39t22.5 -88q-8 -39 -31 -65q-104 -119 -228 -254q-153 -166 -231 -250z" />
    <glyph glyph-name="less" unicode="&#x3c;" horiz-adv-x="1245" 
d="M439 524l734 -377l-36 -172l-940 471l32 152l1140 471l-36 -172z" />
    <glyph glyph-name="equal" unicode="=" horiz-adv-x="1245" 
d="M1311 811l-38 -176h-1032l38 176h1032zM1226 410l-38 -177h-1032l38 177h1032z" />
    <glyph glyph-name="greater" unicode="&#x3e;" horiz-adv-x="1245" 
d="M130 147l895 377l-736 373l37 172l943 -471l-32 -152l-1144 -471z" />
    <glyph glyph-name="question" unicode="?" horiz-adv-x="917" 
d="M428 -29q-67 0 -107 50.5t-26 117.5q15 68 76 118t128 50q68 0 108 -48t24 -120q-15 -71 -73 -119.5t-130 -48.5zM748 553l19 -8q-13 -21 -19 -31q-21 -33 -33 -55q-62 -8 -125 -17q-60 0 -110.5 17.5t-81 51.5t-46 82t-5.5 95q14 64 44.5 113t131.5 137l126 111
q56 55 74.5 81.5t25.5 61.5q13 63 -22 99t-101 36q-127 0 -203 -106h-29l25 135q48 35 127.5 56.5t139.5 21.5q51 0 83 -3.5t64 -13.5q58 -18 92 -37.5t56.5 -55.5t30 -84t-2.5 -93q-30 -143 -226.5 -305t-209.5 -224q-8 -40 18 -67t65 -27q20 0 46.5 8.5t45.5 20.5z" />
    <glyph glyph-name="at" unicode="@" horiz-adv-x="1552" 
d="M1071 823q25 119 -65 119q-107 0 -216 -162q-93 -137 -119 -260q-13 -61 -3 -92t63 -31q78 0 182 113q119 131 158 313zM1156 954l37 78h197l-242 -500q-8 -22 -17 -44.5t-9 -24.5q-14 -66 31 -66q86 0 192 117q123 135 164 326q40 188 -59 321q-111 150 -353 150
q-262 0 -462 -170t-259 -445q-59 -280 76.5 -445t408.5 -165q143 0 277.5 71.5t247.5 198.5h135q-128 -178 -320 -285.5t-391 -107.5q-305 0 -475 201q-175 207 -108 520q66 313 320.5 531.5t563.5 218.5q281 0 429 -179q143 -172 93 -411q-24 -113 -79 -212.5t-143 -176.5
q-79 -68 -171 -117q-111 -59 -187 -59q-65 0 -92 51t-17 125q-75 -84 -125 -119q-68 -45 -148 -45q-125 0 -176 83t-22 216q36 172 196 317.5t328 145.5q62 0 106 -33q34 -25 53 -66z" />
    <glyph glyph-name="A" unicode="A" horiz-adv-x="1376" 
d="M932 418h-479q-66 -117 -93 -166q-96 -170 -141 -260q-19 2 -41.5 5t-51.5 3q-24 0 -54 -3t-46 -5l888 1421q17 -4 36.5 -4h40.5h28h23q19 4 27 4l267 -1425q-41 0 -63 2q-106 10 -110 10q-41 0 -65 -2q-110 -10 -115 -10q-18 250 -51 430zM537 545h373l-79 475z" />
    <glyph glyph-name="B" unicode="B" horiz-adv-x="1269" 
d="M163 0l297 1397h528q177 0 265 -64q110 -80 75 -248q-29 -137 -149 -227q-108 -80 -257 -100l-3 -17q143 -16 223 -79q109 -91 73 -261q-42 -198 -221 -307q-155 -94 -360 -94h-471zM742 1278l-103 -483l52 -4q54 0 100.5 11t91.5 42q56 39 89 94t47 119
q23 108 -23 168.5t-150 60.5q-23 0 -53 -3t-51 -5zM614 676l-119 -557h103q90 0 176 69q97 78 123 201q32 150 -27 218.5t-203 68.5h-53z" />
    <glyph glyph-name="C" unicode="C" horiz-adv-x="1376" 
d="M1301 242l22 -13l-82 -176q-99 -47 -207 -68.5t-219 -21.5q-336 0 -509 187q-180 192 -113 505q81 381 365 588q259 191 615 191q105 0 211.5 -28t184.5 -75l-89 -209h-29q-41 84 -122.5 136.5t-177.5 52.5q-235 0 -409 -201q-150 -174 -203 -426q-58 -270 35.5 -434
t324.5 -164q97 0 205 43t197 113z" />
    <glyph glyph-name="D" unicode="D" horiz-adv-x="1617" 
d="M473 1397h700q308 0 431 -203q107 -178 48 -457q-73 -340 -331 -542q-248 -195 -572 -195h-573zM755 1278l-247 -1159h172q234 0 385 131q176 153 248 491q59 279 -40 412q-92 125 -317 125h-201z" />
    <glyph glyph-name="E" unicode="E" horiz-adv-x="1269" 
d="M456 1397h942q-9 -23 -19.5 -53.5t-11.5 -36.5l-6 -86q-102 10 -257.5 19t-298.5 9h-74l-93 -442h328q96 0 145.5 3t157.5 17q-18 -45 -35 -90q-4 -16 -4 -40.5t1 -45.5q-52 4 -145 10.5t-150 6.5h-328l-111 -521q178 0 351 8.5t290 20.5l-30 -86q-4 -18 -5 -42.5
t-2 -47.5h-942z" />
    <glyph glyph-name="F" unicode="F" 
d="M608 668l-145 -680q-24 0 -74 6t-74 6q-27 0 -79.5 -6t-79.5 -6l299 1409h782q-8 -23 -18.5 -53.5t-12.5 -36.5l-6 -86q-177 16 -265.5 22t-203.5 6l-94 -442h217q107 0 254 20q-8 -22 -19 -53t-12 -37l-6 -86q-66 6 -139.5 11.5t-106.5 5.5h-217z" />
    <glyph glyph-name="G" unicode="G" horiz-adv-x="1617" 
d="M1583 623l-121 -566q-167 -45 -301.5 -69.5t-263.5 -24.5q-350 0 -535 168q-208 188 -135 533q79 368 369 575q270 195 643 195q139 0 252.5 -30t211.5 -97q-67 -105 -101 -205h-29q-47 100 -140 154.5t-216 54.5q-246 0 -427 -199q-166 -180 -225 -457
q-56 -266 40.5 -417.5t329.5 -151.5q76 0 130 14.5t109 42.5l102 480q26 0 76.5 -4.5t76.5 -4.5q25 0 87.5 4.5t66.5 4.5z" />
    <glyph glyph-name="H" unicode="H" horiz-adv-x="1617" 
d="M173 -12l299 1409q27 0 77 -6.5t77 -6.5q24 0 76.5 6.5t76.5 6.5l-118 -557q55 0 180 -4.5t134 -4.5q51 0 178 4.5t135 4.5l118 557q27 0 77 -6.5t77 -6.5q24 0 76.5 6.5t76.5 6.5l-299 -1409q-24 0 -74 6t-74 6q-27 0 -79.5 -6t-79.5 -6l146 688q-51 0 -154 6t-154 6
q-54 0 -160 -6t-159 -6l-146 -688q-24 0 -74 6t-74 6q-27 0 -79.5 -6t-79.5 -6z" />
    <glyph glyph-name="I" unicode="I" horiz-adv-x="700" 
d="M185 -12l299 1409q25 0 75 -6.5t75 -6.5q26 0 78.5 6.5t78.5 6.5l-299 -1409q-26 0 -76 6t-76 6q-25 0 -77.5 -6t-77.5 -6z" />
    <glyph glyph-name="J" unicode="J" horiz-adv-x="700" 
d="M812 1397l-235 -1106q-30 -139 -52 -203q-37 -111 -95 -182q-85 -105 -199 -164q-105 -53 -240 -70l-12 99q121 30 185 145q43 80 84 272l257 1209q25 0 74.5 -6.5t74.5 -6.5q26 0 79 6.5t79 6.5z" />
    <glyph glyph-name="K" unicode="K" horiz-adv-x="1269" 
d="M148 -12l299 1409q25 0 75 -6.5t75 -6.5q26 0 78.5 6.5t78.5 6.5l-136 -643q161 153 336 319q196 189 333 324q54 -6 108 -13q21 0 50.5 4.5t58.5 8.5l-3 -17l-411 -352l-239 -217l381 -791l-7 -32q-24 0 -74 6t-74 6q-27 0 -79.5 -6t-79.5 -6l-324 655l-139 -655
q-26 0 -76 6t-76 6q-25 0 -77.5 -6t-77.5 -6z" />
    <glyph glyph-name="L" unicode="L" 
d="M767 1397l-266 -1250q133 0 252 9q155 14 225 20l-30 -86q-4 -18 -5 -42.5t-2 -47.5h-778l297 1397q27 0 76.5 -6.5t76.5 -6.5q24 0 77 6.5t77 6.5z" />
    <glyph glyph-name="M" unicode="M" horiz-adv-x="1835" 
d="M1013 434q108 150 217 299q165 228 229 320q115 161 233 344q42 -6 84 -13q19 0 44.5 4.5t47.5 8.5q-26 -260 -53 -536.5t-41.5 -462t-24.5 -410.5q-41 0 -78.5 4t-90.5 8q-28 0 -83 -6t-83 -6q43 200 67 460.5t46 497.5q-108 -155 -220 -313q-89 -127 -219 -316
q-139 -204 -216 -317l-45 4l-33 -4q-54 211 -119.5 447.5t-130.5 474.5q-53 -148 -113.5 -331t-102.5 -330.5t-69 -272.5q-49 6 -96 12q-20 0 -46.5 -4t-50.5 -8q84 213 164 432q44 123 162 456.5t182 520.5q42 -6 84 -13q44 7 88 13q48 -199 81 -322q38 -143 90 -321z" />
    <glyph glyph-name="N" unicode="N" horiz-adv-x="1617" 
d="M170 -8l299 1405h205q340 -479 681 -959l204 959q29 -4 41 -6t38 -2l84 8l-300 -1409l-175 4q-133 194 -263 389q-112 164 -263 373l-176 233l-211 -995q-30 4 -41.5 6t-38.5 2z" />
    <glyph glyph-name="O" unicode="O" horiz-adv-x="1396" 
d="M1496 705q-65 -310 -288 -521q-235 -221 -532 -221q-287 0 -416 193.5t-55 539.5q67 316 284 521q230 217 540 217q325 0 439 -246q90 -195 28 -483zM990 1311q-178 0 -310.5 -168t-204.5 -508q-48 -225 -1 -375q56 -174 232 -174q186 0 331 199q130 178 189 456
q49 230 0 385q-57 185 -236 185z" />
    <glyph glyph-name="P" unicode="P" horiz-adv-x="1159" 
d="M582 606l-131 -618q-24 0 -74 6t-74 6q-27 0 -79.5 -6t-79.5 -6l299 1409h504q438 0 365 -348q-55 -256 -255 -359q-164 -84 -475 -84zM727 1286l-120 -565q74 0 137 12q103 27 167 107q56 69 78 172q26 123 -13.5 198.5t-121.5 75.5h-127z" />
    <glyph glyph-name="Q" unicode="Q" horiz-adv-x="1724" 
d="M1138 1311q-240 0 -396 -195q-136 -170 -202 -481q-49 -227 18 -375q78 -174 295 -174q211 0 371 180t223 475q49 230 -17 385q-77 185 -292 185zM1003 -193l-188 156q-346 0 -509 191q-167 196 -93 542q71 336 351 541q266 197 612 197q340 0 506.5 -201t96.5 -528
q-53 -250 -233.5 -438.5t-436.5 -266.5q238 -174 467 -311q-163 -31 -312 -115q-138 133 -261 233z" />
    <glyph glyph-name="R" unicode="R" horiz-adv-x="1269" 
d="M152 -12l299 1409h479q92 0 164.5 -8.5t114.5 -32.5q82 -47 111 -118t6 -177q-31 -148 -137 -242t-260 -127q35 -102 83 -217q13 -33 155 -356l54 -131q-45 0 -68 2q-111 10 -117 10q-31 0 -94 -6t-94 -6l-149 434l-88 225h-12l-140 -659q-26 0 -76 6t-76 6
q-25 0 -77.5 -6t-77.5 -6zM735 1286l-117 -549l48 -4q271 0 334 295q5 23 9 46.5t4 55.5q4 95 -68 132q-50 24 -152 24h-58z" />
    <glyph glyph-name="S" unicode="S" 
d="M1067 1130h-28q-15 87 -63.5 134t-136.5 47q-113 0 -180.5 -55.5t-86.5 -145.5q-24 -111 117 -199q253 -157 265 -170q134 -127 92 -327q-42 -197 -220.5 -324t-415.5 -127q-92 0 -172.5 21.5t-140.5 68.5q32 66 64 134.5t52 123.5h37q3 -104 66.5 -164.5t168.5 -60.5
q102 0 179 53q87 60 108 160q28 131 -112 217q-131 78 -259 156q-135 121 -90 332q39 184 184 303q154 127 379 127q105 0 187 -31t115 -68q-29 -49 -60 -109.5t-49 -95.5z" />
    <glyph glyph-name="T" unicode="T" horiz-adv-x="1159" 
d="M994 1249l-268 -1261q-24 0 -74.5 6t-74.5 6q-27 0 -79 -6t-79 -6l268 1261q-102 0 -200 -7t-187 -21q10 26 19.5 54t11.5 36q4 18 5 40.5t1 45.5h1057q-15 -43 -31 -86q-4 -21 -5 -45.5t-1 -44.5q-102 14 -188.5 21t-174.5 7z" />
    <glyph glyph-name="U" unicode="U" horiz-adv-x="1396" 
d="M278 561l178 836q66 -6 132 -13q69 7 138 13l-124 -582q-21 -98 -41.5 -199.5t-28.5 -189.5q-1 -100 3 -127q9 -57 46 -106q64 -91 185 -91q127 0 213 57.5t163 192.5q27 45 56.5 145.5t66.5 276.5l133 623q24 -4 34.5 -6t33.5 -2q18 0 40 3t35 5l-155 -729
q-49 -230 -95 -330q-73 -164 -224 -264q-82 -60 -174.5 -85.5t-192.5 -25.5q-189 0 -303 72q-138 88 -144 272q-2 62 4 122t21 132z" />
    <glyph glyph-name="V" unicode="V" horiz-adv-x="1376" 
d="M759 -12l-84 12q-21 0 -46.5 -4t-45.5 -8q-29 188 -76 467.5t-83 474.5q-28 155 -91 467q45 0 83 -4t94 -9q31 0 94 6.5t89 6.5q20 -209 67 -508q40 -254 82 -508q158 252 311.5 512t285.5 504l92 -8q25 0 53.5 3t42.5 5q-148 -234 -295 -465q-179 -283 -292 -467
q-147 -240 -281 -477z" />
    <glyph glyph-name="W" unicode="W" horiz-adv-x="2052" 
d="M332 1335l-3 62q29 0 82.5 -6.5t82.5 -6.5q43 0 91 4.5t80 8.5q6 -277 20.5 -523.5t31.5 -500.5q69 121 193 338q74 127 196.5 346t185.5 340q23 -4 45 -6t55 -2q25 0 55.5 3t48.5 5q8 -172 33 -385q71 -604 73 -639q145 268 268 506q147 286 253 518q24 -4 46 -6t50 -2
l97 8q-223 -381 -402 -705q-202 -364 -377 -704q-26 4 -60 8t-40 4q-21 0 -50.5 -4t-53.5 -8q-10 157 -29 340q-21 207 -37 334q-7 38 -49 329q-59 -104 -186 -325q-112 -195 -190 -330q-114 -203 -194 -348q-26 4 -60 8t-40 4q-20 0 -50 -4t-54 -8q-8 186 -29 452
q-18 226 -39.5 449t-43.5 446z" />
    <glyph glyph-name="X" unicode="X" horiz-adv-x="1269" 
d="M1501 1397l-261 -279l-309 -340l19 -45q62 -182 124.5 -364.5t118.5 -380.5q-31 0 -89 6t-88 6q-41 0 -65 -2q-110 -10 -114 -10q-29 106 -78 264q-55 174 -81 260l-251 -295q-47 -55 -96.5 -118.5t-78.5 -106.5q-24 4 -46 6t-55 2q-24 0 -55 -3t-49 -5q335 364 580 651
l-256 754q30 0 88 -6.5t89 -6.5t93.5 6.5t93.5 6.5q28 -115 90 -310q29 -94 58 -186l413 496q39 -6 54.5 -7t46.5 -1q24 0 54.5 3t49.5 5z" />
    <glyph glyph-name="Y" unicode="Y" horiz-adv-x="1376" 
d="M959 623l-134 -635q-27 0 -77 6t-77 6q-25 0 -77 -6t-77 -6l126 594q-30 71 -104 268q-63 162 -104 272q-51 138 -102 275q49 0 90 -4t100 -9q32 0 99 6.5t100 6.5q50 -158 106 -365q31 -102 47 -155q23 -70 37 -91q76 72 281 363q100 141 172 248q26 -4 49 -6t56 -2
q26 0 58 3t50 5q-100 -123 -210 -258q-144 -176 -211 -258q-117 -148 -198 -258z" />
    <glyph glyph-name="Z" unicode="Z" horiz-adv-x="1269" 
d="M1200 0h-1151l8 37q509 594 977 1184l5 28q-123 0 -431 -16q-154 -8 -213 -8q7 20 14 40.5t13 45.5q7 35 9 53q-1 22 1 33h1069l-8 -37q-147 -168 -329 -391q-204 -250 -322 -400q-158 -200 -315 -401l-5 -21q144 0 283 7q414 18 432 18q-9 -22 -15 -41.5t-12 -44.5
q-7 -35 -9 -53q1 -23 -1 -33z" />
    <glyph glyph-name="bracketleft" unicode="[" horiz-adv-x="700" 
d="M115 -266l386 1814h430l-25 -114l-222 12l-342 -1610l226 8l-23 -110h-430z" />
    <glyph glyph-name="backslash" unicode="\" horiz-adv-x="1073" 
d="M583 1548l433 -1548q-29 2 -48 3t-33 1h-25h-46.5t-52.5 -4l-433 1548q26 -4 49 -6t51 -2q25 0 56.5 3t48.5 5z" />
    <glyph glyph-name="bracketright" unicode="]" horiz-adv-x="700" 
d="M840 1548l-386 -1814h-430l23 110l224 -8l342 1610l-228 -12l25 114h430z" />
    <glyph glyph-name="asciicircum" unicode="^" horiz-adv-x="1245" 
d="M424 569h-197l598 828h184l246 -828h-192l-192 602z" />
    <glyph glyph-name="underscore" unicode="_" 
d="M954 -328h-1024l17 78h1024z" />
    <glyph glyph-name="grave" unicode="`" horiz-adv-x="700" 
d="M543 1421l203 -303h-115l-236 164q-29 25 -59 49q-30 33 -21 74q8 39 39 64.5t70 25.5q45 0 70 -17.5t49 -56.5z" />
    <glyph glyph-name="a" unicode="a" 
d="M676 328l43 200q-66 -22 -106 -34q-73 -25 -117 -54.5t-66.5 -69.5t-35.5 -100q-15 -69 0.5 -116.5t78.5 -47.5q84 0 138 72q46 60 65 150zM1044 729l-118 -557q-22 -102 64 -102l17 4l-9 -45q-48 -21 -104 -39.5t-93 -18.5q-70 0 -114 41t-54 111q-54 -70 -134.5 -111
t-160.5 -41q-133 0 -199 70t-38 201q30 141 134 209q86 55 310 106q49 12 78 21q48 14 80 32q20 15 32.5 35.5t17.5 42.5q15 74 -35 127t-124 53q-88 0 -181 -49q-75 -41 -95 -78h-13l-2 123q83 64 197.5 102t213.5 38q153 0 245 -60q115 -74 85 -215z" />
    <glyph glyph-name="b" unicode="b" horiz-adv-x="1159" 
d="M110 0l329 1548q25 0 70.5 -6t69.5 -6q29 0 68 4t75 8l-150 -708q57 78 137.5 121t170.5 43q191 0 272 -150q73 -137 32 -334q-25 -114 -69 -205q-55 -112 -133 -184q-169 -160 -378 -160q-88 0 -154.5 36t-98.5 108q-50 -25 -125 -70q-66 -39 -75 -45h-41zM495 479
q-47 -219 -23.5 -316t115.5 -97q94 0 169 113.5t117 307.5q33 156 26 238q-13 143 -130 143q-119 0 -194 -145q-47 -90 -80 -244z" />
    <glyph glyph-name="c" unicode="c" 
d="M1176 909l-123 -213h-49q9 92 -30 150q-44 63 -134 63q-129 0 -227 -143q-77 -113 -108 -258q-42 -195 8 -293q54 -109 217 -109q58 0 123 26t111 69l26 -29l-75 -123q-47 -37 -134 -57.5t-156 -20.5q-246 0 -360 127q-122 133 -71 373q51 242 229.5 387.5t420.5 145.5
q94 0 184 -24t148 -71z" />
    <glyph glyph-name="d" unicode="d" horiz-adv-x="1159" 
d="M1348 1548l-332 -1560q-65 6 -132 12q-28 0 -66 -4t-72 -8l39 184q-54 -92 -139 -146.5t-186 -54.5q-211 0 -280 158q-59 135 -12 358q46 213 170 355q143 162 333 162q99 0 160 -35t88 -113l147 692q24 0 70 -6t70 -6q29 0 68 4t74 8zM749 868q-115 0 -194 -145
q-54 -96 -85 -244q-30 -141 -22 -229q12 -144 122 -144q115 0 196 150q55 100 86 248q29 137 19 225q-16 139 -122 139z" />
    <glyph glyph-name="e" unicode="e" 
d="M500 586h303q27 125 23 200q-7 123 -89 123q-100 0 -167 -121q-43 -77 -70 -202zM1065 487h-586l-11 -32q-34 -160 14 -248q51 -101 199 -101q63 0 130.5 24t129.5 67l22 -17l-69 -114q-156 -95 -316 -95q-252 0 -351.5 142.5t-45.5 398.5q47 219 201 355.5t371 136.5
q215 0 296 -130q74 -116 29 -325z" />
    <glyph glyph-name="f" unicode="f" horiz-adv-x="655" 
d="M353 852h-152l27 131h152q35 98 71 170q50 100 108 170q83 113 170.5 167t196.5 54l100 -8q-6 -27 -24.5 -86t-24.5 -86l-14 -86l-27 -12q-39 22 -84 39.5t-84 17.5q-45 0 -70.5 -4t-50.5 -21l-14 -12q-15 -14 -19 -33q-7 -34 6 -131q2 -12 26 -139h209q-7 -18 -13 -33.5
t-9 -31.5q-4 -17 -5 -66h-193l-184 -864q-24 0 -70 6t-70 6q-29 0 -68 -4t-74 -8z" />
    <glyph glyph-name="g" unicode="g" 
d="M222 -152q-10 -14 -17.5 -34.5t-12.5 -42.5q-23 -111 45 -170.5t181 -59.5q110 0 197 70t106 160q27 127 -59 170q-53 26 -202 26q-117 0 -164.5 -29.5t-73.5 -89.5zM1198 995l-23 -94l-184 8q92 -92 63 -229q-36 -168 -180 -256q-130 -80 -326 -80h-29q-45 0 -64 -16
q-31 -25 -37 -54q-12 -57 27 -81.5t119 -24.5l174 -8q160 0 218 -74q51 -66 24 -192q-44 -211 -238 -330q-169 -105 -394 -105q-156 0 -253 56q-126 71 -95 215q17 80 74.5 140t141.5 89l34 21l-10 16q-94 39 -70 151q15 68 79 130.5t125 74.5l34 8q-249 62 -193 328
q36 166 172.5 241t353.5 75q35 0 118 -4.5t89 -4.5h250zM495 655q-25 -118 1 -180q22 -53 81 -53q98 0 155 143q22 56 37 127q20 92 12 148q-13 86 -89 86q-86 0 -140 -99q-33 -61 -57 -172z" />
    <glyph glyph-name="h" unicode="h" horiz-adv-x="1159" 
d="M726 1548l-150 -704q70 63 158 108q101 52 179 52q143 0 217 -95q43 -49 46.5 -109.5t-16.5 -152.5l-140 -659q-26 2 -50 4q-70 8 -86 8q-25 0 -73.5 -6t-72.5 -6l109 512q35 166 21 237q-19 94 -119 94q-109 0 -176 -112q-44 -76 -72 -211l-6 -45l-101 -475
q-25 0 -70.5 6t-70.5 6q-28 0 -67 -4t-75 -8l332 1560q24 -2 72 -7t64 -5q25 0 73.5 6t73.5 6z" />
    <glyph glyph-name="i" unicode="i" horiz-adv-x="589" 
d="M139 -12l211 995q25 0 81 -4t62 -4q35 0 76.5 3t63.5 5l-211 -995q-27 2 -50 4q-70 8 -86 8q-25 0 -73.5 -6t-73.5 -6zM411 1360q13 65 70.5 112.5t123.5 47.5q65 0 104 -47.5t26 -112.5q-15 -68 -73.5 -116t-125.5 -48q-66 0 -102.5 49t-22.5 115z" />
    <glyph glyph-name="j" unicode="j" horiz-adv-x="589" 
d="M639 983l-213 -999q-21 -101 -70.5 -170.5t-149.5 -137.5q-68 -47 -142 -72.5t-145 -25.5l-10 70q108 30 160 110q41 62 69 197l219 1028q57 -6 76.5 -7t60.5 -1q25 0 83 4t62 4zM537 1196q-66 0 -101 47t-21 113q14 67 68.5 115.5t122.5 48.5q74 0 111.5 -45t21.5 -119
q-15 -70 -73.5 -115t-128.5 -45z" />
    <glyph glyph-name="k" unicode="k" 
d="M119 -12l332 1560q24 -2 72 -7t64 -5q25 0 73.5 6t73.5 6l-214 -1003l4 -4l12 4q107 88 242 211q161 149 244 227q21 -4 41 -6t48 -2q21 0 47 3t40 5l-2 -12q-65 -66 -157 -142q-257 -213 -264 -219l109 -262q71 -168 128 -340l-4 -20q-25 0 -74.5 6t-78.5 6
q-24 0 -77 -6t-81 -6q-31 100 -71 210.5t-79 202.5q-11 23 -18 35q-11 23 -25 31l-102 -479q-25 0 -70.5 6t-70.5 6q-28 0 -67 -4t-75 -8z" />
    <glyph glyph-name="l" unicode="l" horiz-adv-x="589" 
d="M755 1548l-332 -1560q-27 2 -51 4q-69 8 -86 8q-24 0 -72.5 -6t-73.5 -6l332 1560q25 0 70.5 -6t69.5 -6q29 0 68 4t75 8z" />
    <glyph glyph-name="m" unicode="m" horiz-adv-x="1724" 
d="M107 -12l211 995q58 -6 77.5 -7t60.5 -1q25 0 83 4t62 4l-32 -152q61 76 153.5 124.5t182.5 48.5q100 0 159.5 -47.5t74.5 -141.5q71 86 163 137.5t188 51.5q170 0 227 -97q53 -90 16 -264l-139 -655q-25 0 -70.5 6t-70.5 6q-28 0 -67 -4t-75 -8l118 557q37 172 11 229
t-101 57q-99 0 -151 -61q-40 -49 -64 -160l-132 -622q-25 0 -70.5 6t-70.5 6q-28 0 -67 -4t-75 -8l118 557q37 172 11 229t-101 57q-95 0 -152 -77q-45 -62 -67 -164l-128 -602q-25 0 -70.5 6t-70.5 6q-28 0 -67 -4t-75 -8z" />
    <glyph glyph-name="n" unicode="n" horiz-adv-x="1159" 
d="M111 -12l211 995q33 -4 63 -6t71 -2q33 0 73.5 3t62.5 5l-32 -152q85 80 166 123q95 50 187 50q180 0 234 -115q44 -98 1 -299l-128 -602q-26 2 -50 4q-70 8 -86 8q-25 0 -73.5 -6t-72.5 -6l109 512q35 166 21 237q-19 94 -119 94q-115 0 -183 -135q-38 -78 -71 -233
l-101 -475q-25 0 -70.5 6t-70.5 6q-28 0 -67 -4t-75 -8z" />
    <glyph glyph-name="o" unicode="o" 
d="M514 -29q-211 0 -306.5 134.5t-47.5 361.5q52 244 206 390.5t371 146.5q213 0 310 -131.5t49 -360.5q-51 -240 -207 -390.5t-375 -150.5zM725 909q-106 0 -181 -127q-60 -104 -104 -311q-33 -154 -25 -252q12 -153 119 -153q100 0 182 153q65 125 108 326q35 164 15 256
q-22 108 -114 108z" />
    <glyph glyph-name="p" unicode="p" horiz-adv-x="1159" 
d="M600 106q98 9 167 108t105 269q39 185 20 279q-22 106 -118 106q-115 0 -196 -149q-54 -101 -85 -248q-31 -145 -22 -227q16 -138 129 -138zM1 -532l322 1515q32 -4 62 -6t75 -2q33 0 74 3t63 5l-38 -180q55 94 139 147.5t182 53.5q207 0 281 -152q64 -131 18 -348
q-55 -260 -210 -404q-140 -129 -312 -129q-96 0 -157 43q-50 35 -78 105l-138 -651q-27 2 -51 4q-69 8 -86 8q-24 0 -72.5 -6t-73.5 -6z" />
    <glyph glyph-name="q" unicode="q" horiz-adv-x="1159" 
d="M927 803l39 180q32 -4 62 -6t75 -2q33 0 73.5 3t63.5 5l-322 -1515q-24 0 -70 6t-71 6q-29 0 -67.5 -4t-73.5 -8l138 651q-53 -64 -119 -101q-86 -47 -178 -47q-189 0 -270.5 137.5t-32.5 366.5q52 246 173 381q132 148 328 148q215 0 252 -201zM482 500
q-8 -37 -11.5 -58.5t-11.5 -85.5q-18 -86 13 -161q37 -89 119 -89q110 0 184 134q47 84 77 227q33 154 22 250q-15 151 -134 151q-110 0 -182 -139q-45 -84 -76 -229z" />
    <glyph glyph-name="r" unicode="r" horiz-adv-x="811" 
d="M136 -12l211 995q58 -6 77.5 -7t60.5 -1q25 0 83 4t62 4l-53 -254q61 129 145 195q101 80 244 80q-7 -33 -28 -103t-28 -102l-11 -74l-24 -16q-16 12 -43.5 18t-54.5 6q-151 0 -216 -135q-28 -57 -44 -131l-19 -107l-79 -372q-25 0 -70.5 6t-70.5 6q-28 0 -67 -4t-75 -8z
" />
    <glyph glyph-name="s" unicode="s" horiz-adv-x="811" 
d="M147 250h53q12 -80 62 -126t134 -46q56 0 114 36t69 87q16 75 -94 129q-187 92 -204 106q-105 86 -72 240q32 151 152 239.5t269 88.5q78 0 151.5 -26t122.5 -73l-87 -180h-57q1 68 -44.5 120t-111.5 52q-61 0 -112.5 -29.5t-64.5 -89.5q-15 -73 204 -169.5t173 -309.5
q-30 -143 -156 -235.5t-306 -92.5q-168 0 -265 86z" />
    <glyph glyph-name="t" unicode="t" horiz-adv-x="700" 
d="M635 852l-124 -582q-22 -102 -13.5 -145t75.5 -43q19 0 34.5 3t58.5 13l-16 -78q-127 -49 -224 -49q-149 0 -190 95q-35 77 -1 237l117 549h-139q9 25 18 66l5 24q2 10 4 21q-1 14 1 20h139l49 234q142 51 310 126l-76 -360h176q-17 -41 -22 -65q-4 -17 -6 -66h-176z" />
    <glyph glyph-name="u" unicode="u" horiz-adv-x="1048" 
d="M1143 983l-211 -995q-65 6 -129 12q-27 0 -64 -4t-70 -8l32 151q-83 -73 -119 -98q-101 -70 -216 -70q-79 0 -142 32t-93 95q-20 47 -19.5 112.5t15.5 137.5l19 70l120 565l133 -8q25 0 80 4t62 4l-120 -565q-20 -92 -22 -115.5t6 -52.5q9 -53 36.5 -80t80.5 -27
q113 0 172 105q35 63 65 203l113 532q32 -4 62.5 -6t70.5 -2q33 0 74 3t64 5z" />
    <glyph glyph-name="v" unicode="v" 
d="M556 983l79 -709q127 211 206 351q104 184 195 358q21 -4 40.5 -4h40.5h30h25q19 4 27 4q-3 -16 -25 -49t-95 -146q-50 -77 -59 -92q-242 -387 -268 -432q-71 -117 -153 -276q-26 4 -60 8t-40 4q-23 0 -52.5 -4t-56.5 -8q-11 84 -44.5 335.5t-46.5 327.5q-19 129 -58 332
q27 0 90.5 -4t67.5 -4q26 0 78.5 4t78.5 4z" />
    <glyph glyph-name="w" unicode="w" horiz-adv-x="1617" 
d="M544 983l56 -700q190 344 358 700q48 -4 70 -6t42 -2q31 0 65 3t52 5l60 -700q93 168 181 340t177 360q21 -4 40.5 -4h40.5h31h24q20 4 28 4q-129 -211 -280 -479q-165 -291 -275 -516q-55 6 -109 12q-25 0 -55.5 -4t-57.5 -8l-60 680q-85 -154 -180 -334
q-112 -211 -177 -346q-55 6 -109 12q-24 0 -55 -4t-58 -8q-20 262 -46 501.5t-62 493.5q25 0 73 -4t72 -4q27 0 89.5 4t64.5 4z" />
    <glyph glyph-name="x" unicode="x" 
d="M636 -12l-120 360q-101 -115 -150 -172q-73 -86 -151 -184l-80 8q-21 0 -45.5 -3t-38.5 -5l421 454q-48 136 -96 265q-71 180 -106 272q27 0 81 -4t81 -4q29 0 87 4t83 4l108 -319q74 79 142 155q80 92 139 164q24 -4 46.5 -4h46.5h33h29q21 4 29 4q-229 -219 -421 -422
l69 -192q75 -191 149 -381q-29 0 -83 6t-82 6q-29 0 -86 -6t-85 -6z" />
    <glyph glyph-name="y" unicode="y" 
d="M79 -532l374 528l-204 987q25 0 85 -4t69 -4q24 0 86.5 4t70.5 4q22 -152 36.5 -245t74.5 -390l122 209q64 107 93 158q74 125 154 268q21 -4 40.5 -4h39.5h33h27q19 4 27 4l-307 -467q-192 -295 -335.5 -524.5t-313.5 -523.5q-22 4 -40 6t-44 2q-21 0 -47.5 -3t-40.5 -5
z" />
    <glyph glyph-name="z" unicode="z" 
d="M1171 983l-17 -78l-234 -254q-190 -209 -237 -262q-140 -156 -237 -270q117 0 236 6q277 14 294 14q-10 -24 -14 -35.5t-9 -33.5l-7 -70h-885l18 86q350 373 703 778q-144 0 -237 -3t-239 -17q14 35 27 69q4 17 3.5 38.5t-0.5 31.5h835z" />
    <glyph glyph-name="braceleft" unicode="{" horiz-adv-x="700" 
d="M423 877l82 385q17 77 46.5 134.5t91.5 90.5q62 37 129 49t151 12h37q-117 -30 -168 -85.5t-76 -172.5l-81 -381q-24 -116 -76 -176q-60 -69 -187 -98q117 -27 147 -98q24 -60 -3 -189l-77 -360q-23 -109 6.5 -169.5t128.5 -84.5h-54q-188 0 -247 61q-65 70 -25 258
l73 340q24 113 2 160q-28 55 -135 82q92 20 156 78q36 35 51.5 70.5t27.5 93.5z" />
    <glyph glyph-name="bar" unicode="|" horiz-adv-x="1245" 
d="M532 0l329 1548h176l-329 -1548h-176z" />
    <glyph glyph-name="braceright" unicode="}" horiz-adv-x="700" 
d="M706 1225l-72 -340q-24 -111 1 -162t133 -76q-93 -20 -157 -78q-38 -39 -52.5 -71.5t-26.5 -91.5l-82 -386q-17 -79 -41 -126q-35 -66 -99 -103t-124.5 -47t-152.5 -10h-37q117 26 167.5 82.5t74.5 171.5l82 385q24 116 80 180.5t183 93.5q-117 27 -147 98q-24 60 3 189
l76 356q23 111 -3 168q-32 66 -130 90h29q202 0 265 -61q71 -70 30 -262z" />
    <glyph glyph-name="asciitilde" unicode="~" horiz-adv-x="1245" 
d="M1193 717l73 -115q-111 -137 -192 -186q-74 -43 -152 -43q-69 0 -170 47q-42 20 -84 43q-53 22 -76 31q-47 18 -82 18q-68 0 -134 -59q-36 -33 -101 -121l-74 114q106 142 188.5 194t158.5 52q80 0 224.5 -71.5t191.5 -71.5q62 0 127 55q42 37 102 113z" />
    <glyph glyph-name="dieresis" unicode="&#xa8;" horiz-adv-x="1024" 
 />
    <glyph glyph-name="copyright" unicode="&#xa9;" horiz-adv-x="1552" 
d="M758 -37q-295 0 -456.5 214t-96.5 519q64 303 317.5 520.5t548.5 217.5q299 0 461.5 -215t97.5 -523q-65 -303 -319 -518t-553 -215zM1046 1319q-248 0 -455.5 -181.5t-262.5 -441.5q-55 -256 77.5 -437t376.5 -181q249 0 460 180t266 438q55 260 -77.5 441.5
t-384.5 181.5zM1122 442l15 -4l-45 -98q-58 -27 -116.5 -40t-120.5 -13q-188 0 -284.5 106.5t-58.5 282.5q45 215 201 330q141 104 342 104q55 0 114.5 -14.5t106.5 -42.5q-13 -23 -31.5 -68t-22.5 -51h-17q-44 106 -165 106q-131 0 -224 -110q-82 -96 -112 -238
q-33 -153 17.5 -244.5t181.5 -91.5q51 0 112.5 25t106.5 61z" />
    <glyph glyph-name="registered" unicode="&#xae;" horiz-adv-x="1552" 
d="M762 -37q-297 0 -459.5 214t-96.5 523q65 306 317.5 520t551.5 214q295 0 456 -214t96 -520q-66 -307 -318 -522t-547 -215zM1050 1319q-250 0 -458 -180.5t-263 -438.5q-56 -260 76.5 -441t380.5 -181t455 181t263 441q54 256 -76 437.5t-378 181.5zM573 287l175 823
h303q106 0 154.5 -51t28.5 -146q-18 -84 -79 -141t-151 -76q28 -80 64 -168q47 -108 70 -163l29 -78q-19 2 -41.5 5t-51.5 3q-22 0 -37 -1t-55 -7l-131 385h-37l-82 -385q-20 2 -37.5 5t-42.5 3q-18 0 -32 -1t-47 -7zM890 1032l-68 -319l33 -4q160 0 197 176q20 94 -14 127
q-23 20 -86 20h-62z" />
    <glyph glyph-name="acute" unicode="&#xb4;" horiz-adv-x="1024" 
 />
    <glyph glyph-name="paragraph" unicode="&#xb6;" horiz-adv-x="1024" 
d="M1234 1435l-15 -70h-127l-290 -1365h-82l290 1365h-166l-290 -1365h-84l157 738q-172 8 -253.5 102.5t-49.5 245.5q33 157 161 253t306 96h443z" />
    <glyph glyph-name="onequarter" unicode="&#xbc;" horiz-adv-x="1780" 
 />
    <glyph glyph-name="onehalf" unicode="&#xbd;" horiz-adv-x="1780" 
 />
    <glyph glyph-name="threequarters" unicode="&#xbe;" horiz-adv-x="1780" 
 />
    <glyph glyph-name="Agrave" unicode="&#xc0;" horiz-adv-x="1376" 
d="M932 418h-479q-66 -117 -93 -166q-96 -170 -141 -260q-19 2 -41.5 5t-51.5 3q-24 0 -54 -3t-46 -5l888 1421q17 -4 36.5 -4h40.5h28h23q19 4 27 4l267 -1425q-41 0 -63 2q-106 10 -110 10q-41 0 -65 -2q-110 -10 -115 -10q-18 250 -51 430zM537 545h373l-79 475z
M1000 1835l196 -307h-115l-230 168q-48 33 -62 47q-28 33 -19 76q8 36 38.5 63t70.5 27q46 0 72 -19q19 -12 49 -55z" />
    <glyph glyph-name="Aacute" unicode="&#xc1;" horiz-adv-x="1376" 
d="M932 418h-479q-66 -117 -93 -166q-96 -170 -141 -260q-19 2 -41.5 5t-51.5 3q-24 0 -54 -3t-46 -5l888 1421q17 -4 36.5 -4h40.5h28h23q19 4 27 4l267 -1425q-41 0 -63 2q-106 10 -110 10q-41 0 -65 -2q-110 -10 -115 -10q-18 250 -51 430zM537 545h373l-79 475z
M1195 1890q35 19 80 19q41 0 60 -27t11 -63q-9 -43 -51 -76q-19 -14 -82 -47l-302 -168h-115l328 307q48 43 71 55z" />
    <glyph glyph-name="Acircumflex" unicode="&#xc2;" horiz-adv-x="1376" 
d="M932 418h-479q-66 -117 -93 -166q-96 -170 -141 -260q-19 2 -41.5 5t-51.5 3q-24 0 -54 -3t-46 -5l888 1421q17 -4 36.5 -4h40.5h28h23q19 4 27 4l267 -1425q-41 0 -63 2q-106 10 -110 10q-41 0 -65 -2q-110 -10 -115 -10q-18 250 -51 430zM537 545h373l-79 475z
M982 1868h193l172 -361h-114l-186 205l-277 -205h-111z" />
    <glyph glyph-name="Atilde" unicode="&#xc3;" horiz-adv-x="1376" 
d="M932 418h-479q-66 -117 -93 -166q-96 -170 -141 -260q-19 2 -41.5 5t-51.5 3q-24 0 -54 -3t-46 -5l888 1421q17 -4 36.5 -4h40.5h28h23q19 4 27 4l267 -1425q-41 0 -63 2q-106 10 -110 10q-41 0 -65 -2q-110 -10 -115 -10q-18 250 -51 430zM537 545h373l-79 475z
M1327 1827h74q-46 -115 -102 -176q-76 -82 -170 -82q-39 0 -69 12q-7 4 -54.5 30.5t-70.5 37.5q-44 22 -71 22q-41 0 -69 -34.5t-34 -63.5h-73q23 106 113 188q74 66 158 66q47 0 100 -27q39 -22 56 -31q26 -18 50.5 -29t46.5 -11q35 0 67 30q18 19 48 68z" />
    <glyph glyph-name="Egrave" unicode="&#xc8;" horiz-adv-x="1269" 
d="M456 1397h942q-9 -23 -19.5 -53.5t-11.5 -36.5l-6 -86q-102 10 -257.5 19t-298.5 9h-74l-93 -442h328q96 0 145.5 3t157.5 17q-18 -45 -35 -90q-4 -16 -4 -40.5t1 -45.5q-52 4 -145 10.5t-150 6.5h-328l-111 -521q178 0 351 8.5t290 20.5l-30 -86q-4 -18 -5 -42.5
t-2 -47.5h-942zM1002 1835l197 -307h-115l-231 168q-47 33 -62 47q-27 33 -18 76q7 36 37.5 63t71.5 27q45 0 72 -19q18 -12 48 -55z" />
    <glyph glyph-name="Eacute" unicode="&#xc9;" horiz-adv-x="1269" 
d="M456 1397h942q-9 -23 -19.5 -53.5t-11.5 -36.5l-6 -86q-102 10 -257.5 19t-298.5 9h-74l-93 -442h328q96 0 145.5 3t157.5 17q-18 -45 -35 -90q-4 -16 -4 -40.5t1 -45.5q-52 4 -145 10.5t-150 6.5h-328l-111 -521q178 0 351 8.5t290 20.5l-30 -86q-4 -18 -5 -42.5
t-2 -47.5h-942zM1110 1890q35 19 80 19q41 0 59.5 -27t11.5 -63q-9 -43 -52 -76q-18 -14 -82 -47l-301 -168h-115l327 307q48 43 72 55z" />
    <glyph glyph-name="Ecircumflex" unicode="&#xca;" horiz-adv-x="1269" 
d="M456 1397h942q-9 -23 -19.5 -53.5t-11.5 -36.5l-6 -86q-102 10 -257.5 19t-298.5 9h-74l-93 -442h328q96 0 145.5 3t157.5 17q-18 -45 -35 -90q-4 -16 -4 -40.5t1 -45.5q-52 4 -145 10.5t-150 6.5h-328l-111 -521q178 0 351 8.5t290 20.5l-30 -86q-4 -18 -5 -42.5
t-2 -47.5h-942zM929 1868h192l173 -361h-115l-185 205l-277 -205h-111z" />
    <glyph glyph-name="Igrave" unicode="&#xcc;" horiz-adv-x="700" 
d="M185 -12l299 1409q25 0 75 -6.5t75 -6.5q27 0 79 6.5t79 6.5l-299 -1409q-27 0 -76.5 6t-76.5 6q-25 0 -77.5 -6t-77.5 -6zM643 1835l196 -307h-114l-231 168q-48 33 -61 47q-28 33 -19 76q8 36 38 63t71 27q45 0 72 -19q18 -12 48 -55z" />
    <glyph glyph-name="Iacute" unicode="&#xcd;" horiz-adv-x="700" 
d="M185 -12l299 1409q25 0 75 -6.5t75 -6.5q27 0 79 6.5t79 6.5l-299 -1409q-27 0 -76.5 6t-76.5 6q-25 0 -77.5 -6t-77.5 -6zM878 1890q34 19 79 19q41 0 60 -27t11 -63q-9 -43 -50 -76q-20 -14 -82 -47l-302 -168h-115l328 307q48 43 71 55z" />
    <glyph glyph-name="Ograve" unicode="&#xd2;" horiz-adv-x="1396" 
d="M1496 705q-65 -310 -288 -521q-235 -221 -532 -221q-287 0 -416 193.5t-55 539.5q67 316 284 521q230 217 540 217q325 0 439 -246q90 -195 28 -483zM990 1311q-178 0 -310.5 -168t-204.5 -508q-48 -225 -1 -375q56 -174 232 -174q186 0 331 199q130 178 189 456
q49 230 0 385q-57 185 -236 185zM1002 1835l196 -307h-115l-230 168q-48 33 -61 47q-28 33 -19 76q8 36 38 63t71 27q45 0 72 -19q18 -12 48 -55z" />
    <glyph glyph-name="Oacute" unicode="&#xd3;" horiz-adv-x="1396" 
d="M1496 705q-65 -310 -288 -521q-235 -221 -532 -221q-287 0 -416 193.5t-55 539.5q67 316 284 521q230 217 540 217q325 0 439 -246q90 -195 28 -483zM990 1311q-178 0 -310.5 -168t-204.5 -508q-48 -225 -1 -375q56 -174 232 -174q186 0 331 199q130 178 189 456
q49 230 0 385q-57 185 -236 185zM1297 1890q35 19 80 19q41 0 60 -27t11 -63q-9 -43 -51 -76q-19 -14 -82 -47l-302 -168h-115l329 307q47 43 70 55z" />
    <glyph glyph-name="Ocircumflex" unicode="&#xd4;" horiz-adv-x="1396" 
d="M1496 705q-65 -310 -288 -521q-235 -221 -532 -221q-287 0 -416 193.5t-55 539.5q67 316 284 521q230 217 540 217q325 0 439 -246q90 -195 28 -483zM990 1311q-178 0 -310.5 -168t-204.5 -508q-48 -225 -1 -375q56 -174 232 -174q186 0 331 199q130 178 189 456
q49 230 0 385q-57 185 -236 185zM1001 1868h192l173 -361h-115l-185 205l-277 -205h-111z" />
    <glyph glyph-name="Otilde" unicode="&#xd5;" horiz-adv-x="1396" 
d="M1496 705q-65 -310 -288 -521q-235 -221 -532 -221q-287 0 -416 193.5t-55 539.5q67 316 284 521q230 217 540 217q325 0 439 -246q90 -195 28 -483zM990 1311q-178 0 -310.5 -168t-204.5 -508q-48 -225 -1 -375q56 -174 232 -174q186 0 331 199q130 178 189 456
q49 230 0 385q-57 185 -236 185zM1346 1827h74q-47 -115 -103 -176q-75 -82 -169 -82q-39 0 -69 12q-7 4 -55 30.5t-70 37.5q-44 22 -71 22q-41 0 -69 -34.5t-34 -63.5h-74q22 106 114 188q74 66 157 66q48 0 101 -27q39 -22 55 -31q27 -18 51 -29t47 -11q35 0 65 30
q20 19 50 68z" />
    <glyph glyph-name="Ugrave" unicode="&#xd9;" horiz-adv-x="1396" 
d="M278 561l178 836q66 -6 132 -13q69 7 138 13l-124 -582q-21 -98 -41.5 -199.5t-28.5 -189.5q-1 -100 3 -127q9 -57 46 -106q64 -91 185 -91q127 0 213 57.5t163 192.5q27 45 56.5 145.5t66.5 276.5l133 623q24 -4 34.5 -6t33.5 -2q18 0 40 3t35 5l-155 -729
q-49 -230 -95 -330q-73 -164 -224 -264q-82 -60 -174.5 -85.5t-192.5 -25.5q-189 0 -303 72q-138 88 -144 272q-2 62 4 122t21 132zM1002 1835l196 -307h-115l-230 168q-48 33 -62 47q-28 33 -19 76q8 36 38 63t71 27q45 0 72 -19q19 -12 49 -55z" />
    <glyph glyph-name="Uacute" unicode="&#xda;" horiz-adv-x="1396" 
d="M278 561l178 836q66 -6 132 -13q69 7 138 13l-124 -582q-21 -98 -41.5 -199.5t-28.5 -189.5q-1 -100 3 -127q9 -57 46 -106q64 -91 185 -91q127 0 213 57.5t163 192.5q27 45 56.5 145.5t66.5 276.5l133 623q24 -4 34.5 -6t33.5 -2q18 0 40 3t35 5l-155 -729
q-49 -230 -95 -330q-73 -164 -224 -264q-82 -60 -174.5 -85.5t-192.5 -25.5q-189 0 -303 72q-138 88 -144 272q-2 62 4 122t21 132zM1362 1890q35 19 80 19q41 0 60 -27t11 -63q-9 -43 -51 -76q-19 -14 -82 -47l-302 -168h-115l328 307q48 43 71 55z" />
    <glyph glyph-name="Yacute" unicode="&#xdd;" horiz-adv-x="1376" 
d="M959 623l-134 -635q-27 0 -77 6t-77 6q-25 0 -77 -6t-77 -6l126 594q-30 71 -104 268q-63 162 -104 272q-51 138 -102 275q49 0 90 -4t100 -9q32 0 99 6.5t100 6.5q50 -158 106 -365q31 -102 47 -155q23 -70 37 -91q76 72 281 363q100 141 172 248q26 -4 49 -6t56 -2
q26 0 58 3t50 5q-100 -123 -210 -258q-144 -176 -211 -258q-117 -148 -198 -258zM1373 1890q34 19 80 19q40 0 59 -27t12 -63q-9 -43 -51 -76q-20 -14 -82 -47l-302 -168h-115l327 307q48 43 72 55z" />
    <glyph glyph-name="agrave" unicode="&#xe0;" 
d="M676 328l43 200q-66 -22 -106 -34q-73 -25 -117 -54.5t-66.5 -69.5t-35.5 -100q-15 -69 0.5 -116.5t78.5 -47.5q84 0 138 72q46 60 65 150zM1044 729l-118 -557q-22 -102 64 -102l17 4l-9 -45q-48 -21 -104 -39.5t-93 -18.5q-70 0 -114 41t-54 111q-54 -70 -134.5 -111
t-160.5 -41q-133 0 -199 70t-38 201q30 141 134 209q86 55 310 106q49 12 78 21q48 14 80 32q20 15 32.5 35.5t17.5 42.5q15 74 -35 127t-124 53q-88 0 -181 -49q-75 -41 -95 -78h-13l-2 123q83 64 197.5 102t213.5 38q153 0 245 -60q115 -74 85 -215zM699 1421l202 -303
h-114l-236 164q-29 25 -59 49q-30 33 -21 74q8 39 39 64.5t70 25.5q45 0 70 -17.5t49 -56.5z" />
    <glyph glyph-name="aacute" unicode="&#xe1;" 
d="M676 328l43 200q-66 -22 -106 -34q-73 -25 -117 -54.5t-66.5 -69.5t-35.5 -100q-15 -69 0.5 -116.5t78.5 -47.5q84 0 138 72q46 60 65 150zM1044 729l-118 -557q-22 -102 64 -102l17 4l-9 -45q-48 -21 -104 -39.5t-93 -18.5q-70 0 -114 41t-54 111q-54 -70 -134.5 -111
t-160.5 -41q-133 0 -199 70t-38 201q30 141 134 209q86 55 310 106q49 12 78 21q48 14 80 32q20 15 32.5 35.5t17.5 42.5q15 74 -35 127t-124 53q-88 0 -181 -49q-75 -41 -95 -78h-13l-2 123q83 64 197.5 102t213.5 38q153 0 245 -60q115 -74 85 -215zM941 1477.5
q32 17.5 77 17.5q39 0 59 -25.5t12 -64.5q-9 -41 -52 -74q-40 -24 -80 -49l-305 -164h-115l330 303q42 39 74 56.5z" />
    <glyph glyph-name="acircumflex" unicode="&#xe2;" 
d="M676 328l43 200q-66 -22 -106 -34q-73 -25 -117 -54.5t-66.5 -69.5t-35.5 -100q-15 -69 0.5 -116.5t78.5 -47.5q84 0 138 72q46 60 65 150zM1044 729l-118 -557q-22 -102 64 -102l17 4l-9 -45q-48 -21 -104 -39.5t-93 -18.5q-70 0 -114 41t-54 111q-54 -70 -134.5 -111
t-160.5 -41q-133 0 -199 70t-38 201q30 141 134 209q86 55 310 106q49 12 78 21q48 14 80 32q20 15 32.5 35.5t17.5 42.5q15 74 -35 127t-124 53q-88 0 -181 -49q-75 -41 -95 -78h-13l-2 123q83 64 197.5 102t213.5 38q153 0 245 -60q115 -74 85 -215zM734 1458h188
l178 -360h-119l-187 200l-271 -200h-115z" />
    <glyph glyph-name="atilde" unicode="&#xe3;" 
d="M676 328l43 200q-66 -22 -106 -34q-73 -25 -117 -54.5t-66.5 -69.5t-35.5 -100q-15 -69 0.5 -116.5t78.5 -47.5q84 0 138 72q46 60 65 150zM1044 729l-118 -557q-22 -102 64 -102l17 4l-9 -45q-48 -21 -104 -39.5t-93 -18.5q-70 0 -114 41t-54 111q-54 -70 -134.5 -111
t-160.5 -41q-133 0 -199 70t-38 201q30 141 134 209q86 55 310 106q49 12 78 21q48 14 80 32q20 15 32.5 35.5t17.5 42.5q15 74 -35 127t-124 53q-88 0 -181 -49q-75 -41 -95 -78h-13l-2 123q83 64 197.5 102t213.5 38q153 0 245 -60q115 -74 85 -215zM1072 1393h74
q-47 -115 -103 -176q-74 -82 -168 -82q-39 0 -70 12q-7 4 -55 30.5t-70 36.5q-44 23 -71 23q-41 0 -69 -35t-33 -63h-74q22 106 113 188q73 66 157 66q48 0 102 -27q38 -23 54 -31q27 -18 51 -29.5t47 -11.5q35 0 66 31q19 18 49 68z" />
    <glyph glyph-name="egrave" unicode="&#xe8;" 
d="M500 586h303q27 125 23 200q-7 123 -89 123q-100 0 -167 -121q-43 -77 -70 -202zM1065 487h-586l-11 -32q-34 -160 14 -248q51 -101 199 -101q63 0 130.5 24t129.5 67l22 -17l-69 -114q-156 -95 -316 -95q-252 0 -351.5 142.5t-45.5 398.5q47 219 201 355.5t371 136.5
q215 0 296 -130q74 -116 29 -325zM698 1421l202 -303h-115l-235 164q-30 25 -60 49q-29 33 -21 74q9 39 39.5 64.5t69.5 25.5q45 0 70.5 -17.5t49.5 -56.5z" />
    <glyph glyph-name="eacute" unicode="&#xe9;" 
d="M500 586h303q27 125 23 200q-7 123 -89 123q-100 0 -167 -121q-43 -77 -70 -202zM1065 487h-586l-11 -32q-34 -160 14 -248q51 -101 199 -101q63 0 130.5 24t129.5 67l22 -17l-69 -114q-156 -95 -316 -95q-252 0 -351.5 142.5t-45.5 398.5q47 219 201 355.5t371 136.5
q215 0 296 -130q74 -116 29 -325zM1045.5 1477.5q32.5 17.5 77.5 17.5q38 0 59 -25.5t12 -64.5q-8 -41 -53 -74q-40 -24 -80 -49l-305 -164h-115l331 303q41 39 73.5 56.5z" />
    <glyph glyph-name="ecircumflex" unicode="&#xea;" 
d="M500 586h303q27 125 23 200q-7 123 -89 123q-100 0 -167 -121q-43 -77 -70 -202zM1065 487h-586l-11 -32q-34 -160 14 -248q51 -101 199 -101q63 0 130.5 24t129.5 67l22 -17l-69 -114q-156 -95 -316 -95q-252 0 -351.5 142.5t-45.5 398.5q47 219 201 355.5t371 136.5
q215 0 296 -130q74 -116 29 -325zM750 1458h189l178 -360h-119l-188 200l-271 -200h-115z" />
    <glyph glyph-name="igrave" unicode="&#xec;" horiz-adv-x="589" 
d="M140 -12l211 995q25 0 80.5 -4t62.5 -4q34 0 75.5 3t64.5 5l-211 -995q-27 2 -50 4q-70 8 -86 8q-25 0 -73.5 -6t-73.5 -6zM531 1421l197 -303h-114l-232 164q-63 49 -70 61q-17 27 -10 62q9 41 38.5 65.5t70.5 24.5q45 0 72 -18q18 -13 48 -56z" />
    <glyph glyph-name="iacute" unicode="&#xed;" horiz-adv-x="589" 
d="M139 -12l211 995q25 0 81 -4t62 -4q35 0 76.5 3t63.5 5l-211 -995q-27 2 -50 4q-70 8 -86 8q-25 0 -73.5 -6t-73.5 -6zM318 1118l331 303q77 74 150 74q37 0 59 -24.5t13 -65.5q-7 -33 -33 -57q-8 -9 -100 -66l-305 -164h-115z" />
    <glyph glyph-name="ograve" unicode="&#xf2;" 
d="M514 -29q-211 0 -306.5 134.5t-47.5 361.5q52 244 206 390.5t371 146.5q213 0 310 -131.5t49 -360.5q-51 -240 -207 -390.5t-375 -150.5zM725 909q-106 0 -181 -127q-60 -104 -104 -311q-33 -154 -25 -252q12 -153 119 -153q100 0 182 153q65 125 108 326q35 164 15 256
q-22 108 -114 108zM699 1421l202 -303h-115l-236 164q-29 25 -59 49q-30 33 -21 74q8 39 39.5 64.5t70.5 25.5q45 0 69.5 -17.5t49.5 -56.5z" />
    <glyph glyph-name="oacute" unicode="&#xf3;" 
d="M514 -29q-211 0 -306.5 134.5t-47.5 361.5q52 244 206 390.5t371 146.5q213 0 310 -131.5t49 -360.5q-51 -240 -207 -390.5t-375 -150.5zM725 909q-106 0 -181 -127q-60 -104 -104 -311q-33 -154 -25 -252q12 -153 119 -153q100 0 182 153q65 125 108 326q35 164 15 256
q-22 108 -114 108zM1065 1477.5q33 17.5 78 17.5q39 0 59 -25.5t12 -64.5q-9 -41 -53 -74q-40 -24 -81 -49l-304 -164h-115l331 303q40 39 73 56.5z" />
    <glyph glyph-name="ocircumflex" unicode="&#xf4;" 
d="M514 -29q-211 0 -306.5 134.5t-47.5 361.5q52 244 206 390.5t371 146.5q213 0 310 -131.5t49 -360.5q-51 -240 -207 -390.5t-375 -150.5zM725 909q-106 0 -181 -127q-60 -104 -104 -311q-33 -154 -25 -252q12 -153 119 -153q100 0 182 153q65 125 108 326q35 164 15 256
q-22 108 -114 108zM738 1458h188l177 -360h-119l-186 200l-273 -200h-114z" />
    <glyph glyph-name="otilde" unicode="&#xf5;" 
d="M514 -29q-211 0 -306.5 134.5t-47.5 361.5q52 244 206 390.5t371 146.5q213 0 310 -131.5t49 -360.5q-51 -240 -207 -390.5t-375 -150.5zM725 909q-106 0 -181 -127q-60 -104 -104 -311q-33 -154 -25 -252q12 -153 119 -153q100 0 182 153q65 125 108 326q35 164 15 256
q-22 108 -114 108zM1076 1393h74q-47 -115 -103 -176q-75 -82 -170 -82q-38 0 -68 12q-7 4 -55 30.5t-70 36.5q-45 23 -71 23q-41 0 -69 -35t-34 -63h-74q23 106 114 188q73 66 157 66q47 0 101 -27q38 -23 55 -31q27 -18 51 -29.5t47 -11.5q34 0 66 31q17 18 49 68z" />
    <glyph glyph-name="divide" unicode="&#xf7;" horiz-adv-x="1706" 
 />
    <glyph glyph-name="glyph216" unicode="&#xf9;" horiz-adv-x="1048" 
d="M1143 983l-211 -995q-65 6 -129 12q-27 0 -64 -4t-70 -8l32 151q-83 -73 -119 -98q-101 -70 -216 -70q-79 0 -142 32t-93 95q-20 47 -19.5 112.5t15.5 137.5l19 70l120 565l133 -8q25 0 80 4t62 4l-120 -565q-20 -92 -22 -115.5t6 -52.5q9 -53 36.5 -80t80.5 -27
q113 0 172 105q35 63 65 203l113 532q32 -4 62.5 -6t70.5 -2q33 0 74 3t64 5zM699 1421l202 -303h-115l-235 164q-30 25 -60 49q-29 33 -20 74q8 39 39 64.5t70 25.5q45 0 70 -17.5t49 -56.5z" />
    <glyph glyph-name="glyph217" unicode="&#xfa;" horiz-adv-x="1048" 
d="M1143 983l-211 -995q-65 6 -129 12q-27 0 -64 -4t-70 -8l32 151q-83 -73 -119 -98q-101 -70 -216 -70q-79 0 -142 32t-93 95q-20 47 -19.5 112.5t15.5 137.5l19 70l120 565l133 -8q25 0 80 4t62 4l-120 -565q-20 -92 -22 -115.5t6 -52.5q9 -53 36.5 -80t80.5 -27
q113 0 172 105q35 63 65 203l113 532q32 -4 62.5 -6t70.5 -2q33 0 74 3t64 5zM1037 1477.5q32 17.5 77 17.5q39 0 59 -25.5t12 -64.5q-9 -41 -53 -74q-40 -24 -79 -49l-306 -164h-114l330 303q42 39 74 56.5z" />
    <glyph glyph-name="glyph234" unicode="&#xfd;" 
d="M79 -532l374 528l-204 987q25 0 85 -4t69 -4q24 0 86.5 4t70.5 4q22 -152 36.5 -245t74.5 -390l122 209q64 107 93 158q74 125 154 268q21 -4 40.5 -4h39.5h33h27q19 4 27 4l-307 -467q-192 -295 -335.5 -524.5t-313.5 -523.5q-22 4 -40 6t-44 2q-21 0 -47.5 -3t-40.5 -5
zM1035.5 1477.5q32.5 17.5 77.5 17.5q39 0 59 -25.5t12 -64.5q-9 -41 -52 -74q-40 -24 -80 -49l-305 -164h-115l330 303q41 39 73.5 56.5z" />
    <glyph glyph-name="Abreve" unicode="&#x102;" horiz-adv-x="1376" 
d="M932 418h-479q-66 -117 -93 -166q-96 -170 -141 -260q-19 2 -41.5 5t-51.5 3q-24 0 -54 -3t-46 -5l888 1421q17 -4 36.5 -4h40.5h28h23q19 4 27 4l267 -1425q-41 0 -63 2q-106 10 -110 10q-41 0 -65 -2q-110 -10 -115 -10q-18 250 -51 430zM537 545h373l-79 475z
M1360 1761q-47 -116 -138.5 -185t-214.5 -69q-129 0 -194 67.5t-59 186.5h107q15 -53 60.5 -75.5t118.5 -22.5q70 0 122 23.5t88 74.5h110z" />
    <glyph glyph-name="abreve" unicode="&#x103;" 
d="M676 328l43 200q-66 -22 -106 -34q-73 -25 -117 -54.5t-66.5 -69.5t-35.5 -100q-15 -69 0.5 -116.5t78.5 -47.5q84 0 138 72q46 60 65 150zM1044 729l-118 -557q-22 -102 64 -102l17 4l-9 -45q-48 -21 -104 -39.5t-93 -18.5q-70 0 -114 41t-54 111q-54 -70 -134.5 -111
t-160.5 -41q-133 0 -199 70t-38 201q30 141 134 209q86 55 310 106q49 12 78 21q48 14 80 32q20 15 32.5 35.5t17.5 42.5q15 74 -35 127t-124 53q-88 0 -181 -49q-75 -41 -95 -78h-13l-2 123q83 64 197.5 102t213.5 38q153 0 245 -60q115 -74 85 -215zM1106 1331
q-47 -117 -138.5 -185.5t-214.5 -68.5q-129 0 -194.5 67.5t-58.5 186.5h106q16 -53 61 -75.5t119 -22.5q70 0 122 23.5t88 74.5h110z" />
    <glyph glyph-name="Ccaron" unicode="&#x10c;" horiz-adv-x="1274" 
 />
    <glyph glyph-name="ccaron" unicode="&#x10d;" horiz-adv-x="922" 
 />
    <glyph glyph-name="Dslash" unicode="&#x110;" horiz-adv-x="1617" 
d="M301 647l29 139h82l130 611h631q307 0 430 -203q107 -178 48 -457q-73 -340 -331 -542q-248 -195 -571 -195h-504l138 647h-82zM824 1278l-105 -492h287l-29 -139h-287l-113 -528h103q233 0 384 131q176 153 248 491q59 279 -40 412q-92 125 -317 125h-131z" />
    <glyph glyph-name="dcroat" unicode="&#x111;" horiz-adv-x="1159" 
d="M1278 1221l-262 -1233q-65 6 -132 12q-28 0 -66 -4t-72 -8l39 184q-54 -92 -139 -146.5t-186 -54.5q-211 0 -280 158q-59 135 -12 358q46 213 170 355q143 162 333 162q99 0 160 -35t88 -113l77 365h-209l30 139h209l40 188q24 0 70 -6t70 -6q29 0 68 4t74 8l-40 -188h66
l-30 -139h-66zM749 868q-115 0 -194 -145q-54 -96 -85 -244q-30 -141 -22 -229q12 -144 122 -144q115 0 196 150q55 100 86 248q29 137 19 225q-16 139 -122 139z" />
    <glyph glyph-name="Itilde" unicode="&#x128;" horiz-adv-x="700" 
d="M186 -12l299 1409q24 0 74.5 -6.5t74.5 -6.5q27 0 79 6.5t79 6.5l-299 -1409q-27 0 -76.5 6t-76.5 6q-24 0 -77 -6t-77 -6zM998 1827h73q-47 -115 -103 -176q-74 -82 -169 -82q-39 0 -68 12q-9 4 -56 30.5t-70 37.5q-44 22 -70 22q-41 0 -69 -34.5t-34 -63.5h-74
q22 106 114 188q73 66 157 66q47 0 101 -27q38 -22 55 -31q27 -18 51 -29t47 -11q34 0 65 30q18 19 50 68z" />
    <glyph glyph-name="itilde" unicode="&#x129;" horiz-adv-x="589" 
d="M141 -12l211 995q25 0 81 -4t62 -4q34 0 75.5 3t64.5 5l-211 -995q-27 2 -50 4q-70 8 -86 8q-25 0 -73.5 -6t-73.5 -6zM847 1417h73q-46 -114 -103 -176q-74 -82 -169 -82q-39 0 -69 12q-7 5 -54.5 31.5t-70.5 36.5q-44 23 -70 23q-41 0 -69 -35t-34 -64h-74
q22 107 114 189q73 65 157 65q47 0 101 -26q38 -23 55 -31q27 -19 51 -30t47 -11q34 0 66 31q17 18 49 67z" />
    <glyph glyph-name="Utilde" unicode="&#x168;" horiz-adv-x="1396" 
d="M278 561l178 836q66 -6 132 -13q69 7 138 13l-124 -582q-21 -98 -41.5 -199.5t-28.5 -189.5q-1 -100 3 -127q9 -57 46 -106q64 -91 185 -91q127 0 213 57.5t163 192.5q27 45 56.5 145.5t66.5 276.5l133 623q24 -4 34.5 -6t33.5 -2q18 0 40 3t35 5l-155 -729
q-49 -230 -95 -330q-73 -164 -224 -264q-82 -60 -174.5 -85.5t-192.5 -25.5q-189 0 -303 72q-138 88 -144 272q-2 62 4 122t21 132zM1414 1827h73q-47 -115 -103 -176q-74 -82 -169 -82q-39 0 -68 12q-9 4 -56 30.5t-70 37.5q-44 22 -70 22q-41 0 -69 -34.5t-34 -63.5h-74
q22 106 114 188q73 66 157 66q47 0 101 -27q38 -22 55 -31q27 -18 51 -29t47 -11q34 0 65 30q18 19 50 68z" />
    <glyph glyph-name="utilde" unicode="&#x169;" horiz-adv-x="1048" 
d="M1143 983l-211 -995q-65 6 -129 12q-27 0 -64 -4t-70 -8l32 151q-83 -73 -119 -98q-101 -70 -216 -70q-79 0 -142 32t-93 95q-20 47 -19.5 112.5t15.5 137.5l19 70l120 565l133 -8q25 0 80 4t62 4l-120 -565q-20 -92 -22 -115.5t6 -52.5q9 -53 36.5 -80t80.5 -27
q113 0 172 105q35 63 65 203l113 532q32 -4 62.5 -6t70.5 -2q33 0 74 3t64 5zM1076 1393h74q-47 -115 -103 -176q-75 -82 -169 -82q-39 0 -69 12q-7 4 -55 30.5t-70 36.5q-44 23 -71 23q-41 0 -69 -35t-34 -63h-74q23 106 114 188q73 66 157 66q48 0 102 -27q38 -23 54 -31
q27 -18 51 -29.5t47 -11.5q35 0 66 31q19 18 49 68z" />
    <glyph glyph-name="Ohorn" unicode="&#x1a0;" horiz-adv-x="1396" 
d="M1419 1262q36 0 91 45q22 24 30 65q6 27 6 51.5t-5.5 37t-35.5 14.5t-31 8l26 123q23 -4 34 -6.5t33 -2.5q25 0 72 4.5t57 4.5h62l-11 -33l-18 -86q-12 -57 -40.5 -116.5t-65.5 -95.5t-67 -52q-49 -27 -102 -27q51 -109 60.5 -234.5t-18.5 -256.5q-65 -310 -288 -521
q-235 -221 -532 -221q-287 0 -416 193.5t-55 539.5q67 316 284 521q230 217 540 217q139 0 235 -45.5t155 -126.5zM990 1311q-178 0 -310.5 -168t-204.5 -508q-48 -225 -1 -375q56 -174 232 -174q186 0 331 199q130 178 189 456q49 230 0 385q-57 185 -236 185z" />
    <glyph glyph-name="ohorn" unicode="&#x1a1;" 
d="M1020 889q27 0 52.5 9t47 32.5t26.5 48.5q8 37 -6 53q-4 10 -33.5 12.5t-30.5 8.5l26 123q38 -9 63 -9q18 0 46 4.5t50 4.5h58l-10 -29l-20 -94q-14 -64 -32 -94.5t-51 -61.5q-54 -49 -56 -51q-29 -23 -78 -23q63 -129 24 -311q-51 -240 -207 -390.5t-375 -150.5
q-211 0 -306.5 134.5t-47.5 361.5q52 244 206 390.5t371 146.5q186 0 283 -115zM725 909q-106 0 -181 -127q-60 -104 -104 -311q-33 -154 -25 -252q12 -153 119 -153q100 0 182 153q65 125 108 326q35 164 15 256q-22 108 -114 108z" />
    <glyph glyph-name="Uhorn" unicode="&#x1af;" horiz-adv-x="1396" 
d="M1534 1368h25q25 0 50 21q21 24 30 65q4 19 -11 45q-4 10 -34.5 12t-30.5 9l26 122q24 -4 34.5 -6t33.5 -2t46.5 4t49.5 4h62l-11 -32l-18 -86q-13 -58 -30 -93.5t-60 -74.5q-15 -15 -38 -39q-6 -4 -36 -19q-8 -4 -51.5 -10t-54.5 -6l-130 -614q-49 -230 -95 -330
q-73 -164 -224 -264q-82 -60 -174.5 -85.5t-192.5 -25.5q-189 0 -303 72q-138 88 -144 272q-2 62 4 122t21 132l178 836q66 -6 132 -13q69 7 138 13l-124 -582q-21 -98 -41.5 -199.5t-28.5 -189.5q-1 -100 3 -127q9 -57 46 -106q64 -91 185 -91q127 0 213 57.5t163 192.5
q27 45 56.5 145.5t66.5 276.5l133 623q24 -4 34.5 -6t33.5 -2q18 0 40 3t35 5z" />
    <glyph glyph-name="uhorn" unicode="&#x1b0;" horiz-adv-x="1048" 
d="M1136 950q33 6 43 8.5t30.5 24t27.5 57.5q9 41 -1 54q-4 10 -34 12t-31 8l26 123q39 -8 63 -8l91 4h58l-10 -29l-20 -94q-9 -45 -31 -85t-67 -83q-34 -33 -66 -45t-93 -12l-190 -897q-65 6 -129 12q-27 0 -64 -4t-70 -8l32 151q-83 -73 -119 -98q-101 -70 -216 -70
q-79 0 -142 32t-93 95q-20 47 -19.5 112.5t15.5 137.5l19 70l120 565l133 -8q25 0 80 4t62 4l-120 -565q-20 -92 -22 -115.5t6 -52.5q9 -53 36.5 -80t80.5 -27q113 0 172 105q35 63 65 203l113 532q32 -4 62.5 -6t70.5 -2q33 0 74 3t64 5z" />
    <glyph glyph-name="uni1EA0" unicode="&#x1ea0;" horiz-adv-x="1376" 
d="M932 418h-479q-66 -117 -93 -166q-96 -170 -141 -260q-19 2 -41.5 5t-51.5 3q-24 0 -54 -3t-46 -5l888 1421q17 -4 36.5 -4h40.5h28h23q19 4 27 4l267 -1425q-41 0 -63 2q-106 10 -110 10q-41 0 -65 -2q-110 -10 -115 -10q-18 250 -51 430zM537 545h373l-79 475z
M388 -279q14 66 71 113t123 47q65 0 104 -47t25 -113q-14 -67 -72 -115t-125 -48q-66 0 -102.5 49t-23.5 114z" />
    <glyph glyph-name="uni1EA1" unicode="&#x1ea1;" 
d="M676 328l43 200q-66 -22 -106 -34q-73 -25 -117 -54.5t-66.5 -69.5t-35.5 -100q-15 -69 0.5 -116.5t78.5 -47.5q84 0 138 72q46 60 65 150zM1044 729l-118 -557q-22 -102 64 -102l17 4l-9 -45q-48 -21 -104 -39.5t-93 -18.5q-70 0 -114 41t-54 111q-54 -70 -134.5 -111
t-160.5 -41q-133 0 -199 70t-38 201q30 141 134 209q86 55 310 106q49 12 78 21q48 14 80 32q20 15 32.5 35.5t17.5 42.5q15 74 -35 127t-124 53q-88 0 -181 -49q-75 -41 -95 -78h-13l-2 123q83 64 197.5 102t213.5 38q153 0 245 -60q115 -74 85 -215zM299 -279
q14 66 71 113t123 47t105 -47t25 -113q-14 -67 -72.5 -115t-126.5 -48q-66 0 -102.5 49t-22.5 114z" />
    <glyph glyph-name="uni1EA2" unicode="&#x1ea2;" horiz-adv-x="1376" 
d="M932 418h-479q-66 -117 -93 -166q-96 -170 -141 -260q-19 2 -41.5 5t-51.5 3q-24 0 -54 -3t-46 -5l888 1421q17 -4 36.5 -4h40.5h28h23q19 4 27 4l267 -1425q-41 0 -63 2q-106 10 -110 10q-41 0 -65 -2q-110 -10 -115 -10q-18 250 -51 430zM537 545h373l-79 475z
M1327 1890l-1 -18l-12 -43q-8 -41 -79 -96q-52 -41 -124 -78q-43 -19 -63 -41q-20 -27 -27 -35l-15 -35l-6 -28h-51l18 83q6 29 124 144q57 55 70 115q5 24 -3.5 61t-28.5 49q-21 19 -70 19q-8 0 -33 -17.5t-33 -23.5q21 -19 29 -33.5t3 -36.5q-7 -37 -44.5 -64.5
t-76.5 -27.5q-37 0 -56 26.5t-11 65.5l9 22q35 52 88 87q81 53 185 53q113 0 168 -53q37 -37 40 -95z" />
    <glyph glyph-name="uni1EA3" unicode="&#x1ea3;" 
d="M676 328l43 200q-66 -22 -106 -34q-73 -25 -117 -54.5t-66.5 -69.5t-35.5 -100q-15 -69 0.5 -116.5t78.5 -47.5q84 0 138 72q46 60 65 150zM1044 729l-118 -557q-22 -102 64 -102l17 4l-9 -45q-48 -21 -104 -39.5t-93 -18.5q-70 0 -114 41t-54 111q-54 -70 -134.5 -111
t-160.5 -41q-133 0 -199 70t-38 201q30 141 134 209q86 55 310 106q49 12 78 21q48 14 80 32q20 15 32.5 35.5t17.5 42.5q15 74 -35 127t-124 53q-88 0 -181 -49q-75 -41 -95 -78h-13l-2 123q83 64 197.5 102t213.5 38q153 0 245 -60q115 -74 85 -215zM1075 1464l-2 -18
l-11 -43q-9 -41 -81 -96q-51 -41 -122 -78q-43 -19 -64 -41q-21 -27 -27 -35l-15 -35l-6 -28h-51l18 84q6 28 124 143q57 55 70 115q5 24 -3.5 61t-28.5 49q-21 19 -70 19q-8 0 -33 -17.5t-33 -23.5q20 -19 29 -33t4 -37q-8 -37 -46 -64.5t-77 -27.5q-37 0 -56 26.5
t-10 65.5l9 23q35 51 88 86q81 53 185 53q113 0 167 -53q37 -37 42 -95z" />
    <glyph glyph-name="uni1EA4" unicode="&#x1ea4;" horiz-adv-x="1376" 
d="M932 418h-479q-66 -117 -93 -166q-96 -170 -141 -260q-19 2 -41.5 5t-51.5 3q-24 0 -54 -3t-46 -5l888 1421q17 -4 36.5 -4h40.5h28h23q19 4 27 4l267 -1425q-41 0 -63 2q-106 10 -110 10q-41 0 -65 -2q-110 -10 -115 -10q-18 250 -51 430zM537 545h373l-79 475z
M982 1868h193l172 -361h-114l-186 205l-277 -205h-111zM1669 2210q35 19 80 19q41 0 60 -27t11 -63q-9 -43 -51 -76q-19 -14 -82 -47l-301 -168h-115l327 307q48 43 71 55z" />
    <glyph glyph-name="uni1EA5" unicode="&#x1ea5;" 
d="M676 328l43 200q-66 -22 -106 -34q-73 -25 -117 -54.5t-66.5 -69.5t-35.5 -100q-15 -69 0.5 -116.5t78.5 -47.5q84 0 138 72q46 60 65 150zM1044 729l-118 -557q-22 -102 64 -102l17 4l-9 -45q-48 -21 -104 -39.5t-93 -18.5q-70 0 -114 41t-54 111q-54 -70 -134.5 -111
t-160.5 -41q-133 0 -199 70t-38 201q30 141 134 209q86 55 310 106q49 12 78 21q48 14 80 32q20 15 32.5 35.5t17.5 42.5q15 74 -35 127t-124 53q-88 0 -181 -49q-75 -41 -95 -78h-13l-2 123q83 64 197.5 102t213.5 38q153 0 245 -60q115 -74 85 -215zM734 1458h188
l178 -360h-119l-187 200l-271 -200h-115zM1455 1749.5q32 17.5 77 17.5q39 0 59 -25.5t12 -64.5q-9 -41 -53 -74q-40 -24 -79 -49l-306 -164h-114l330 303q42 39 74 56.5z" />
    <glyph glyph-name="uni1EA6" unicode="&#x1ea6;" horiz-adv-x="1376" 
d="M932 418h-479q-66 -117 -93 -166q-96 -170 -141 -260q-19 2 -41.5 5t-51.5 3q-24 0 -54 -3t-46 -5l888 1421q17 -4 36.5 -4h40.5h28h23q19 4 27 4l267 -1425q-41 0 -63 2q-106 10 -110 10q-41 0 -65 -2q-110 -10 -115 -10q-18 250 -51 430zM537 545h373l-79 475z
M982 1868h193l172 -361h-114l-186 205l-277 -205h-111zM1300 2155l197 -307h-115l-231 168q-48 33 -62 47q-28 33 -19 76q8 36 38.5 63t70.5 27q46 0 72 -19q19 -12 49 -55z" />
    <glyph glyph-name="uni1EA7" unicode="&#x1ea7;" 
d="M676 328l43 200q-66 -22 -106 -34q-73 -25 -117 -54.5t-66.5 -69.5t-35.5 -100q-15 -69 0.5 -116.5t78.5 -47.5q84 0 138 72q46 60 65 150zM1044 729l-118 -557q-22 -102 64 -102l17 4l-9 -45q-48 -21 -104 -39.5t-93 -18.5q-70 0 -114 41t-54 111q-54 -70 -134.5 -111
t-160.5 -41q-133 0 -199 70t-38 201q30 141 134 209q86 55 310 106q49 12 78 21q48 14 80 32q20 15 32.5 35.5t17.5 42.5q15 74 -35 127t-124 53q-88 0 -181 -49q-75 -41 -95 -78h-13l-2 123q83 64 197.5 102t213.5 38q153 0 245 -60q115 -74 85 -215zM734 1458h188
l178 -360h-119l-187 200l-271 -200h-115zM1102 1761l201 -303h-115l-235 164q-30 25 -59 49q-29 33 -21 74q9 39 39.5 64.5t69.5 25.5q45 0 70 -17.5t50 -56.5z" />
    <glyph glyph-name="uni1EA8" unicode="&#x1ea8;" horiz-adv-x="1376" 
d="M932 418h-479q-66 -117 -93 -166q-96 -170 -141 -260q-19 2 -41.5 5t-51.5 3q-24 0 -54 -3t-46 -5l888 1421q17 -4 36.5 -4h40.5h28h23q19 4 27 4l267 -1425q-41 0 -63 2q-106 10 -110 10q-41 0 -65 -2q-110 -10 -115 -10q-18 250 -51 430zM537 545h373l-79 475z
M982 1868h193l172 -361h-114l-186 205l-277 -205h-111zM1679 2074l-2 -18l-11 -43q-9 -41 -80 -96q-52 -41 -123 -78q-43 -19 -64 -41q-20 -27 -27 -35l-15 -35l-6 -28h-51l18 83q6 29 124 144q57 55 70 115q5 24 -3 61t-29 49q-21 19 -70 19q-8 0 -33 -17.5t-33 -23.5
q21 -19 29 -33.5t4 -36.5q-8 -37 -45.5 -64.5t-76.5 -27.5q-37 0 -56 26.5t-10 65.5l8 22q35 52 88 87q81 53 185 53q113 0 168 -53q37 -37 41 -95z" />
    <glyph glyph-name="uni1EA9" unicode="&#x1ea9;" 
d="M676 328l43 200q-66 -22 -106 -34q-73 -25 -117 -54.5t-66.5 -69.5t-35.5 -100q-15 -69 0.5 -116.5t78.5 -47.5q84 0 138 72q46 60 65 150zM1044 729l-118 -557q-22 -102 64 -102l17 4l-9 -45q-48 -21 -104 -39.5t-93 -18.5q-70 0 -114 41t-54 111q-54 -70 -134.5 -111
t-160.5 -41q-133 0 -199 70t-38 201q30 141 134 209q86 55 310 106q49 12 78 21q48 14 80 32q20 15 32.5 35.5t17.5 42.5q15 74 -35 127t-124 53q-88 0 -181 -49q-75 -41 -95 -78h-13l-2 123q83 64 197.5 102t213.5 38q153 0 245 -60q115 -74 85 -215zM734 1458h188
l178 -360h-119l-187 200l-271 -200h-115zM1418 1716l-2 -18l-11 -43q-9 -41 -80 -96q-52 -41 -123 -78q-43 -19 -64 -41q-20 -27 -26 -35l-15 -35l-6 -28h-51l18 84q5 28 124 143q57 55 69 115q5 24 -3.5 61t-27.5 49q-21 19 -70 19q-8 0 -33.5 -17.5t-32.5 -23.5
q20 -19 28.5 -33t3.5 -37q-8 -37 -45.5 -64.5t-76.5 -27.5q-37 0 -56 26.5t-11 65.5l9 23q36 51 88 86q82 53 186 53q113 0 166 -53q37 -37 42 -95z" />
    <glyph glyph-name="uni1EAA" unicode="&#x1eaa;" horiz-adv-x="1376" 
d="M932 418h-479q-66 -117 -93 -166q-96 -170 -141 -260q-19 2 -41.5 5t-51.5 3q-24 0 -54 -3t-46 -5l888 1421q17 -4 36.5 -4h40.5h28h23q19 4 27 4l267 -1425q-41 0 -63 2q-106 10 -110 10q-41 0 -65 -2q-110 -10 -115 -10q-18 250 -51 430zM537 545h373l-79 475z
M982 1868h193l172 -361h-114l-186 205l-277 -205h-111zM1513 2158h74q-46 -115 -102 -176q-75 -82 -169 -82q-39 0 -70 12q-7 4 -54.5 30.5t-69.5 37.5q-45 22 -72 22q-41 0 -68.5 -34.5t-34.5 -63.5h-73q23 106 113 188q74 66 158 66q47 0 101 -27q38 -22 55 -31
q26 -18 51 -29t47 -11q35 0 66 30q18 19 48 68z" />
    <glyph glyph-name="uni1EAB" unicode="&#x1eab;" 
d="M676 328l43 200q-66 -22 -106 -34q-73 -25 -117 -54.5t-66.5 -69.5t-35.5 -100q-15 -69 0.5 -116.5t78.5 -47.5q84 0 138 72q46 60 65 150zM1044 729l-118 -557q-22 -102 64 -102l17 4l-9 -45q-48 -21 -104 -39.5t-93 -18.5q-70 0 -114 41t-54 111q-54 -70 -134.5 -111
t-160.5 -41q-133 0 -199 70t-38 201q30 141 134 209q86 55 310 106q49 12 78 21q48 14 80 32q20 15 32.5 35.5t17.5 42.5q15 74 -35 127t-124 53q-88 0 -181 -49q-75 -41 -95 -78h-13l-2 123q83 64 197.5 102t213.5 38q153 0 245 -60q115 -74 85 -215zM734 1458h188
l178 -360h-119l-187 200l-271 -200h-115zM1233 1733h74q-48 -115 -104 -176q-74 -82 -168 -82q-39 0 -70 12q-7 4 -54.5 30.5t-69.5 36.5q-44 23 -71 23q-41 0 -69 -35t-34 -63h-74q22 106 114 188q73 66 157 66q48 0 101 -27q38 -23 54 -31q28 -18 52 -29.5t47 -11.5
q35 0 65 31q19 18 50 68z" />
    <glyph glyph-name="uni1EAC" unicode="&#x1eac;" horiz-adv-x="1376" 
d="M932 418h-479q-66 -117 -93 -166q-96 -170 -141 -260q-19 2 -41.5 5t-51.5 3q-24 0 -54 -3t-46 -5l888 1421q17 -4 36.5 -4h40.5h28h23q19 4 27 4l267 -1425q-41 0 -63 2q-106 10 -110 10q-41 0 -65 -2q-110 -10 -115 -10q-18 250 -51 430zM537 545h373l-79 475z
M388 -279q14 66 71 113t123 47q65 0 104 -47t25 -113q-14 -67 -72 -115t-125 -48q-66 0 -102.5 49t-23.5 114zM982 1868h193l172 -361h-114l-186 205l-277 -205h-111z" />
    <glyph glyph-name="uni1EAD" unicode="&#x1ead;" 
d="M676 328l43 200q-66 -22 -106 -34q-73 -25 -117 -54.5t-66.5 -69.5t-35.5 -100q-15 -69 0.5 -116.5t78.5 -47.5q84 0 138 72q46 60 65 150zM1044 729l-118 -557q-22 -102 64 -102l17 4l-9 -45q-48 -21 -104 -39.5t-93 -18.5q-70 0 -114 41t-54 111q-54 -70 -134.5 -111
t-160.5 -41q-133 0 -199 70t-38 201q30 141 134 209q86 55 310 106q49 12 78 21q48 14 80 32q20 15 32.5 35.5t17.5 42.5q15 74 -35 127t-124 53q-88 0 -181 -49q-75 -41 -95 -78h-13l-2 123q83 64 197.5 102t213.5 38q153 0 245 -60q115 -74 85 -215zM299 -279
q14 66 71 113t123 47t105 -47t25 -113q-14 -67 -72.5 -115t-126.5 -48q-66 0 -102.5 49t-22.5 114zM734 1458h188l178 -360h-119l-187 200l-271 -200h-115z" />
    <glyph glyph-name="uni1EAE" unicode="&#x1eae;" horiz-adv-x="1376" 
d="M932 418h-479q-66 -117 -93 -166q-96 -170 -141 -260q-19 2 -41.5 5t-51.5 3q-24 0 -54 -3t-46 -5l888 1421q17 -4 36.5 -4h40.5h28h23q19 4 27 4l267 -1425q-41 0 -63 2q-106 10 -110 10q-41 0 -65 -2q-110 -10 -115 -10q-18 250 -51 430zM537 545h373l-79 475z
M1360 1761q-47 -116 -138.5 -185t-214.5 -69q-129 0 -194 67.5t-59 186.5h107q15 -53 60.5 -75.5t118.5 -22.5q70 0 122 23.5t88 74.5h110zM1397 2161q35 19 80 19q41 0 60 -27t11 -63q-9 -43 -51 -76q-19 -14 -82 -47l-302 -168h-115l327 307q48 43 72 55z" />
    <glyph glyph-name="uni1EAF" unicode="&#x1eaf;" 
d="M676 328l43 200q-66 -22 -106 -34q-73 -25 -117 -54.5t-66.5 -69.5t-35.5 -100q-15 -69 0.5 -116.5t78.5 -47.5q84 0 138 72q46 60 65 150zM1044 729l-118 -557q-22 -102 64 -102l17 4l-9 -45q-48 -21 -104 -39.5t-93 -18.5q-70 0 -114 41t-54 111q-54 -70 -134.5 -111
t-160.5 -41q-133 0 -199 70t-38 201q30 141 134 209q86 55 310 106q49 12 78 21q48 14 80 32q20 15 32.5 35.5t17.5 42.5q15 74 -35 127t-124 53q-88 0 -181 -49q-75 -41 -95 -78h-13l-2 123q83 64 197.5 102t213.5 38q153 0 245 -60q115 -74 85 -215zM1106 1331
q-47 -117 -138.5 -185.5t-214.5 -68.5q-129 0 -194.5 67.5t-58.5 186.5h106q16 -53 61 -75.5t119 -22.5q70 0 122 23.5t88 74.5h110zM1142.5 1701.5q32.5 17.5 77.5 17.5q39 0 59 -25.5t12 -64.5q-9 -41 -53 -74q-39 -24 -79 -49l-306 -164h-114l330 303q41 39 73.5 56.5z
" />
    <glyph glyph-name="uni1EB0" unicode="&#x1eb0;" horiz-adv-x="1376" 
d="M932 418h-479q-66 -117 -93 -166q-96 -170 -141 -260q-19 2 -41.5 5t-51.5 3q-24 0 -54 -3t-46 -5l888 1421q17 -4 36.5 -4h40.5h28h23q19 4 27 4l267 -1425q-41 0 -63 2q-106 10 -110 10q-41 0 -65 -2q-110 -10 -115 -10q-18 250 -51 430zM537 545h373l-79 475z
M1360 1761q-47 -116 -138.5 -185t-214.5 -69q-129 0 -194 67.5t-59 186.5h107q15 -53 60.5 -75.5t118.5 -22.5q70 0 122 23.5t88 74.5h110zM939 2106l197 -307h-115l-230 168q-48 33 -62 47q-28 33 -19 76q8 36 38.5 63t70.5 27q46 0 72 -19q18 -12 48 -55z" />
    <glyph glyph-name="uni1EB1" unicode="&#x1eb1;" 
d="M676 328l43 200q-66 -22 -106 -34q-73 -25 -117 -54.5t-66.5 -69.5t-35.5 -100q-15 -69 0.5 -116.5t78.5 -47.5q84 0 138 72q46 60 65 150zM1044 729l-118 -557q-22 -102 64 -102l17 4l-9 -45q-48 -21 -104 -39.5t-93 -18.5q-70 0 -114 41t-54 111q-54 -70 -134.5 -111
t-160.5 -41q-133 0 -199 70t-38 201q30 141 134 209q86 55 310 106q49 12 78 21q48 14 80 32q20 15 32.5 35.5t17.5 42.5q15 74 -35 127t-124 53q-88 0 -181 -49q-75 -41 -95 -78h-13l-2 123q83 64 197.5 102t213.5 38q153 0 245 -60q115 -74 85 -215zM1106 1331
q-47 -117 -138.5 -185.5t-214.5 -68.5q-129 0 -194.5 67.5t-58.5 186.5h106q16 -53 61 -75.5t119 -22.5q70 0 122 23.5t88 74.5h110zM698 1645l202 -303h-114l-236 164q-30 25 -59 49q-30 33 -21 74q8 39 39 64.5t70 25.5q45 0 69.5 -17.5t49.5 -56.5z" />
    <glyph glyph-name="uni1EB2" unicode="&#x1eb2;" horiz-adv-x="1376" 
d="M932 418h-479q-66 -117 -93 -166q-96 -170 -141 -260q-19 2 -41.5 5t-51.5 3q-24 0 -54 -3t-46 -5l888 1421q17 -4 36.5 -4h40.5h28h23q19 4 27 4l267 -1425q-41 0 -63 2q-106 10 -110 10q-41 0 -65 -2q-110 -10 -115 -10q-18 250 -51 430zM537 545h373l-79 475z
M1360 1761q-47 -116 -138.5 -185t-214.5 -69q-129 0 -194 67.5t-59 186.5h107q15 -53 60.5 -75.5t118.5 -22.5q70 0 122 23.5t88 74.5h110zM1397 2123l-2 -18l-11 -43q-9 -41 -79 -96q-52 -41 -124 -78q-43 -19 -64 -41q-19 -27 -26 -35l-16 -35l-6 -28h-51l18 83
q6 29 125 144q56 55 69 115q5 24 -3 61t-28 49q-21 19 -70 19q-8 0 -33.5 -17.5t-32.5 -23.5q21 -19 29 -33.5t3 -36.5q-8 -37 -45.5 -64.5t-76.5 -27.5q-37 0 -55.5 26.5t-10.5 65.5l9 22q35 52 87 87q81 53 185 53q113 0 168 -53q37 -37 41 -95z" />
    <glyph glyph-name="uni1EB3" unicode="&#x1eb3;" 
d="M676 328l43 200q-66 -22 -106 -34q-73 -25 -117 -54.5t-66.5 -69.5t-35.5 -100q-15 -69 0.5 -116.5t78.5 -47.5q84 0 138 72q46 60 65 150zM1044 729l-118 -557q-22 -102 64 -102l17 4l-9 -45q-48 -21 -104 -39.5t-93 -18.5q-70 0 -114 41t-54 111q-54 -70 -134.5 -111
t-160.5 -41q-133 0 -199 70t-38 201q30 141 134 209q86 55 310 106q49 12 78 21q48 14 80 32q20 15 32.5 35.5t17.5 42.5q15 74 -35 127t-124 53q-88 0 -181 -49q-75 -41 -95 -78h-13l-2 123q83 64 197.5 102t213.5 38q153 0 245 -60q115 -74 85 -215zM1106 1331
q-47 -117 -138.5 -185.5t-214.5 -68.5q-129 0 -194.5 67.5t-58.5 186.5h106q16 -53 61 -75.5t119 -22.5q70 0 122 23.5t88 74.5h110zM1134 1697l-2 -18l-11 -43q-9 -41 -80 -96q-52 -41 -123 -78q-43 -19 -64 -41q-20 -27 -26 -35l-15 -35l-6 -28h-51l17 84q6 28 125 143
q57 55 69 115q5 24 -3.5 61t-27.5 49q-21 19 -70 19q-8 0 -33.5 -17.5t-32.5 -23.5q20 -19 28.5 -33t3.5 -37q-8 -37 -45.5 -64.5t-76.5 -27.5q-37 0 -56 26.5t-11 65.5l9 23q36 51 88 86q82 53 186 53q113 0 166 -53q37 -37 42 -95z" />
    <glyph glyph-name="uni1EB4" unicode="&#x1eb4;" horiz-adv-x="1376" 
d="M932 418h-479q-66 -117 -93 -166q-96 -170 -141 -260q-19 2 -41.5 5t-51.5 3q-24 0 -54 -3t-46 -5l888 1421q17 -4 36.5 -4h40.5h28h23q19 4 27 4l267 -1425q-41 0 -63 2q-106 10 -110 10q-41 0 -65 -2q-110 -10 -115 -10q-18 250 -51 430zM537 545h373l-79 475z
M1360 1761q-47 -116 -138.5 -185t-214.5 -69q-129 0 -194 67.5t-59 186.5h107q15 -53 60.5 -75.5t118.5 -22.5q70 0 122 23.5t88 74.5h110zM1484 2094h74q-48 -115 -104 -177q-74 -82 -168 -82q-39 0 -69 13q-8 4 -55.5 30.5t-69.5 36.5q-44 23 -71 23q-41 0 -69 -35
t-34 -63h-74q22 106 114 188q73 66 157 66q48 0 101 -27q38 -23 54 -31q28 -18 52 -29.5t47 -11.5q35 0 65 31q19 18 50 68z" />
    <glyph glyph-name="uni1EB5" unicode="&#x1eb5;" 
d="M676 328l43 200q-66 -22 -106 -34q-73 -25 -117 -54.5t-66.5 -69.5t-35.5 -100q-15 -69 0.5 -116.5t78.5 -47.5q84 0 138 72q46 60 65 150zM1044 729l-118 -557q-22 -102 64 -102l17 4l-9 -45q-48 -21 -104 -39.5t-93 -18.5q-70 0 -114 41t-54 111q-54 -70 -134.5 -111
t-160.5 -41q-133 0 -199 70t-38 201q30 141 134 209q86 55 310 106q49 12 78 21q48 14 80 32q20 15 32.5 35.5t17.5 42.5q15 74 -35 127t-124 53q-88 0 -181 -49q-75 -41 -95 -78h-13l-2 123q83 64 197.5 102t213.5 38q153 0 245 -60q115 -74 85 -215zM1106 1331
q-47 -117 -138.5 -185.5t-214.5 -68.5q-129 0 -194.5 67.5t-58.5 186.5h106q16 -53 61 -75.5t119 -22.5q70 0 122 23.5t88 74.5h110zM1226 1655h74q-47 -115 -103 -176q-75 -82 -169 -82q-39 0 -69 12q-7 4 -55 30.5t-70 36.5q-44 23 -71 23q-41 0 -69 -35t-34 -63h-74
q23 106 114 188q73 66 157 66q48 0 101 -27q39 -23 55 -31q27 -18 51 -29.5t47 -11.5q35 0 66 31q19 18 49 68z" />
    <glyph glyph-name="uni1EB6" unicode="&#x1eb6;" horiz-adv-x="1376" 
d="M932 418h-479q-66 -117 -93 -166q-96 -170 -141 -260q-19 2 -41.5 5t-51.5 3q-24 0 -54 -3t-46 -5l888 1421q17 -4 36.5 -4h40.5h28h23q19 4 27 4l267 -1425q-41 0 -63 2q-106 10 -110 10q-41 0 -65 -2q-110 -10 -115 -10q-18 250 -51 430zM537 545h373l-79 475z
M1360 1761q-47 -116 -138.5 -185t-214.5 -69q-129 0 -194 67.5t-59 186.5h107q15 -53 60.5 -75.5t118.5 -22.5q70 0 122 23.5t88 74.5h110zM388 -279q14 66 71 113t123 47q65 0 104 -47t25 -113q-14 -67 -72 -115t-125 -48q-66 0 -102.5 49t-23.5 114z" />
    <glyph glyph-name="uni1EB7" unicode="&#x1eb7;" 
d="M676 328l43 200q-66 -22 -106 -34q-73 -25 -117 -54.5t-66.5 -69.5t-35.5 -100q-15 -69 0.5 -116.5t78.5 -47.5q84 0 138 72q46 60 65 150zM1044 729l-118 -557q-22 -102 64 -102l17 4l-9 -45q-48 -21 -104 -39.5t-93 -18.5q-70 0 -114 41t-54 111q-54 -70 -134.5 -111
t-160.5 -41q-133 0 -199 70t-38 201q30 141 134 209q86 55 310 106q49 12 78 21q48 14 80 32q20 15 32.5 35.5t17.5 42.5q15 74 -35 127t-124 53q-88 0 -181 -49q-75 -41 -95 -78h-13l-2 123q83 64 197.5 102t213.5 38q153 0 245 -60q115 -74 85 -215zM1106 1331
q-47 -117 -138.5 -185.5t-214.5 -68.5q-129 0 -194.5 67.5t-58.5 186.5h106q16 -53 61 -75.5t119 -22.5q70 0 122 23.5t88 74.5h110zM299 -279q14 66 71 113t123 47t105 -47t25 -113q-14 -67 -72.5 -115t-126.5 -48q-66 0 -102.5 49t-22.5 114z" />
    <glyph glyph-name="uni1EB8" unicode="&#x1eb8;" horiz-adv-x="1269" 
d="M456 1397h942q-9 -23 -19.5 -53.5t-11.5 -36.5l-6 -86q-102 10 -257.5 19t-298.5 9h-74l-93 -442h328q96 0 145.5 3t157.5 17q-18 -45 -35 -90q-4 -16 -4 -40.5t1 -45.5q-52 4 -145 10.5t-150 6.5h-328l-111 -521q178 0 351 8.5t290 20.5l-30 -86q-4 -18 -5 -42.5
t-2 -47.5h-942zM389 -279q14 66 71 113t123 47q65 0 104 -47t25 -113q-15 -67 -73 -115t-125 -48q-66 0 -102.5 49t-22.5 114z" />
    <glyph glyph-name="uni1EB9" unicode="&#x1eb9;" 
d="M500 586h303q27 125 23 200q-7 123 -89 123q-100 0 -167 -121q-43 -77 -70 -202zM1065 487h-586l-11 -32q-34 -160 14 -248q51 -101 199 -101q63 0 130.5 24t129.5 67l22 -17l-69 -114q-156 -95 -316 -95q-252 0 -351.5 142.5t-45.5 398.5q47 219 201 355.5t371 136.5
q215 0 296 -130q74 -116 29 -325zM298 -279q14 66 71 113t122 47q66 0 105 -47t25 -113q-14 -67 -72 -115t-126 -48q-65 0 -102 49t-23 114z" />
    <glyph glyph-name="uni1EBA" unicode="&#x1eba;" horiz-adv-x="1269" 
d="M456 1397h942q-9 -23 -19.5 -53.5t-11.5 -36.5l-6 -86q-102 10 -257.5 19t-298.5 9h-74l-93 -442h328q96 0 145.5 3t157.5 17q-18 -45 -35 -90q-4 -16 -4 -40.5t1 -45.5q-52 4 -145 10.5t-150 6.5h-328l-111 -521q178 0 351 8.5t290 20.5l-30 -86q-4 -18 -5 -42.5
t-2 -47.5h-942zM1275 1890l-2 -18l-11 -43q-9 -41 -81 -96q-51 -41 -122 -78q-43 -19 -64 -41q-21 -27 -26 -35l-16 -35l-6 -28h-51l18 83q6 29 124 144q57 55 70 115q5 24 -3.5 61t-28.5 49q-21 19 -70 19q-8 0 -33 -17.5t-32 -23.5q20 -19 28 -33.5t4 -36.5
q-8 -37 -46 -64.5t-77 -27.5q-37 0 -56 26.5t-10 65.5l8 22q36 52 89 87q81 53 185 53q113 0 167 -53q37 -37 42 -95z" />
    <glyph glyph-name="uni1EBB" unicode="&#x1ebb;" 
d="M500 586h303q27 125 23 200q-7 123 -89 123q-100 0 -167 -121q-43 -77 -70 -202zM1065 487h-586l-11 -32q-34 -160 14 -248q51 -101 199 -101q63 0 130.5 24t129.5 67l22 -17l-69 -114q-156 -95 -316 -95q-252 0 -351.5 142.5t-45.5 398.5q47 219 201 355.5t371 136.5
q215 0 296 -130q74 -116 29 -325zM1121 1464l-2 -18l-11 -43q-9 -41 -80 -96q-51 -41 -123 -78q-43 -19 -64 -41q-20 -27 -25 -35l-17 -35l-6 -28h-51l18 84q6 28 125 143q56 55 69 115q5 24 -3 61t-29 49q-20 19 -70 19q-8 0 -33 -17.5t-32 -23.5q21 -19 29 -33t3 -37
q-8 -37 -45.5 -64.5t-76.5 -27.5q-37 0 -55.5 26.5t-10.5 65.5l9 23q35 51 87 86q81 53 186 53q112 0 167 -53q37 -37 41 -95z" />
    <glyph glyph-name="uni1EBC" unicode="&#x1ebc;" horiz-adv-x="1269" 
d="M456 1397h942q-9 -23 -19.5 -53.5t-11.5 -36.5l-6 -86q-102 10 -257.5 19t-298.5 9h-74l-93 -442h328q96 0 145.5 3t157.5 17q-18 -45 -35 -90q-4 -16 -4 -40.5t1 -45.5q-52 4 -145 10.5t-150 6.5h-328l-111 -521q178 0 351 8.5t290 20.5l-30 -86q-4 -18 -5 -42.5
t-2 -47.5h-942zM1274 1827h74q-47 -115 -103 -176q-74 -82 -168 -82q-39 0 -70 12q-7 4 -55 30.5t-69 37.5q-45 22 -72 22q-41 0 -68.5 -34.5t-34.5 -63.5h-74q23 106 114 188q73 66 157 66q48 0 102 -27q38 -22 54 -31q27 -18 51.5 -29t47.5 -11q35 0 65 30q19 19 49 68z
" />
    <glyph glyph-name="uni1EBD" unicode="&#x1ebd;" 
d="M500 586h303q27 125 23 200q-7 123 -89 123q-100 0 -167 -121q-43 -77 -70 -202zM1065 487h-586l-11 -32q-34 -160 14 -248q51 -101 199 -101q63 0 130.5 24t129.5 67l22 -17l-69 -114q-156 -95 -316 -95q-252 0 -351.5 142.5t-45.5 398.5q47 219 201 355.5t371 136.5
q215 0 296 -130q74 -116 29 -325zM1069 1393h74q-47 -115 -103 -176q-75 -82 -169 -82q-39 0 -70 12q-7 4 -54 30.5t-70 36.5q-44 23 -71 23q-41 0 -69 -35t-34 -63h-73q22 106 113 188q74 66 158 66q47 0 100 -27q38 -23 55 -31q27 -18 51.5 -29.5t46.5 -11.5q35 0 66 31
q18 18 49 68z" />
    <glyph glyph-name="uni1EBE" unicode="&#x1ebe;" horiz-adv-x="1269" 
d="M456 1397h942q-9 -23 -19.5 -53.5t-11.5 -36.5l-6 -86q-102 10 -257.5 19t-298.5 9h-74l-93 -442h328q96 0 145.5 3t157.5 17q-18 -45 -35 -90q-4 -16 -4 -40.5t1 -45.5q-52 4 -145 10.5t-150 6.5h-328l-111 -521q178 0 351 8.5t290 20.5l-30 -86q-4 -18 -5 -42.5
t-2 -47.5h-942zM1647 2200q35 19 80 19q41 0 59.5 -27t11.5 -63q-10 -43 -52 -76q-19 -14 -82 -47l-301 -168h-115l327 307q48 43 72 55zM929 1868h192l173 -361h-115l-185 205l-277 -205h-111z" />
    <glyph glyph-name="uni1EBF" unicode="&#x1ebf;" 
d="M500 586h303q27 125 23 200q-7 123 -89 123q-100 0 -167 -121q-43 -77 -70 -202zM1065 487h-586l-11 -32q-34 -160 14 -248q51 -101 199 -101q63 0 130.5 24t129.5 67l22 -17l-69 -114q-156 -95 -316 -95q-252 0 -351.5 142.5t-45.5 398.5q47 219 201 355.5t371 136.5
q215 0 296 -130q74 -116 29 -325zM750 1458h189l178 -360h-119l-188 200l-271 -200h-115zM1453 1749.5q32 17.5 77 17.5q39 0 59.5 -25.5t12.5 -64.5q-9 -41 -53 -74q-40 -24 -80 -49l-305 -164h-115l330 303q42 39 74 56.5z" />
    <glyph glyph-name="uni1EC0" unicode="&#x1ec0;" horiz-adv-x="1269" 
d="M456 1397h942q-9 -23 -19.5 -53.5t-11.5 -36.5l-6 -86q-102 10 -257.5 19t-298.5 9h-74l-93 -442h328q96 0 145.5 3t157.5 17q-18 -45 -35 -90q-4 -16 -4 -40.5t1 -45.5q-52 4 -145 10.5t-150 6.5h-328l-111 -521q178 0 351 8.5t290 20.5l-30 -86q-4 -18 -5 -42.5
t-2 -47.5h-942zM1250 2155l197 -307h-115l-230 168q-49 33 -62 47q-28 33 -19 76q7 36 37.5 63t71.5 27q45 0 72 -19q18 -12 48 -55zM929 1868h192l173 -361h-115l-185 205l-277 -205h-111z" />
    <glyph glyph-name="uni1EC1" unicode="&#x1ec1;" 
d="M500 586h303q27 125 23 200q-7 123 -89 123q-100 0 -167 -121q-43 -77 -70 -202zM1065 487h-586l-11 -32q-34 -160 14 -248q51 -101 199 -101q63 0 130.5 24t129.5 67l22 -17l-69 -114q-156 -95 -316 -95q-252 0 -351.5 142.5t-45.5 398.5q47 219 201 355.5t371 136.5
q215 0 296 -130q74 -116 29 -325zM1100 1761l202 -303h-115l-235 164q-29 25 -59 49q-30 33 -22 74q9 39 40 64.5t70 25.5q45 0 70 -17.5t49 -56.5zM750 1458h189l178 -360h-119l-188 200l-271 -200h-115z" />
    <glyph glyph-name="uni1EC2" unicode="&#x1ec2;" horiz-adv-x="1269" 
d="M456 1397h942q-9 -23 -19.5 -53.5t-11.5 -36.5l-6 -86q-102 10 -257.5 19t-298.5 9h-74l-93 -442h328q96 0 145.5 3t157.5 17q-18 -45 -35 -90q-4 -16 -4 -40.5t1 -45.5q-52 4 -145 10.5t-150 6.5h-328l-111 -521q178 0 351 8.5t290 20.5l-30 -86q-4 -18 -5 -42.5
t-2 -47.5h-942zM1619 2074l-2 -18l-11 -43q-9 -41 -80 -96q-51 -41 -123 -78q-43 -19 -64 -41q-21 -27 -26 -35l-16 -35l-6 -28h-51l18 83q6 29 125 144q56 55 69 115q5 24 -3.5 61t-28.5 49q-21 19 -70 19q-8 0 -33 -17.5t-32 -23.5q20 -19 28.5 -33.5t3.5 -36.5
q-8 -37 -46 -64.5t-76 -27.5q-37 0 -55.5 26.5t-10.5 65.5l9 22q35 52 87 87q81 53 185 53q113 0 168 -53q37 -37 41 -95zM929 1868h192l173 -361h-115l-185 205l-277 -205h-111z" />
    <glyph glyph-name="uni1EC3" unicode="&#x1ec3;" 
d="M500 586h303q27 125 23 200q-7 123 -89 123q-100 0 -167 -121q-43 -77 -70 -202zM1065 487h-586l-11 -32q-34 -160 14 -248q51 -101 199 -101q63 0 130.5 24t129.5 67l22 -17l-69 -114q-156 -95 -316 -95q-252 0 -351.5 142.5t-45.5 398.5q47 219 201 355.5t371 136.5
q215 0 296 -130q74 -116 29 -325zM750 1458h189l178 -360h-119l-188 200l-271 -200h-115zM1436 1716l-1 -18l-12 -43q-8 -41 -79 -96q-52 -41 -124 -78q-43 -19 -63 -41q-20 -27 -26 -35l-16 -35l-6 -28h-51l18 84q6 28 124 143q57 55 70 115q5 24 -3.5 61t-28.5 49
q-20 19 -70 19q-8 0 -33 -17.5t-33 -23.5q21 -19 29 -33t3 -37q-8 -37 -45 -64.5t-76 -27.5q-37 0 -56 26.5t-11 65.5l9 23q35 51 88 86q81 53 186 53q112 0 167 -53q37 -37 40 -95z" />
    <glyph glyph-name="uni1EC4" unicode="&#x1ec4;" horiz-adv-x="1269" 
d="M456 1397h942q-9 -23 -19.5 -53.5t-11.5 -36.5l-6 -86q-102 10 -257.5 19t-298.5 9h-74l-93 -442h328q96 0 145.5 3t157.5 17q-18 -45 -35 -90q-4 -16 -4 -40.5t1 -45.5q-52 4 -145 10.5t-150 6.5h-328l-111 -521q178 0 351 8.5t290 20.5l-30 -86q-4 -18 -5 -42.5
t-2 -47.5h-942zM1474 2158h74q-48 -115 -104 -176q-74 -82 -168 -82q-39 0 -70 12q-7 4 -54 30.5t-70 37.5q-44 22 -71 22q-41 0 -69 -34.5t-34 -63.5h-73q22 106 113 188q74 66 158 66q47 0 100 -27q38 -22 55 -31q27 -18 51.5 -29t46.5 -11q35 0 65 30q19 19 50 68z
M929 1868h192l173 -361h-115l-185 205l-277 -205h-111z" />
    <glyph glyph-name="uni1EC5" unicode="&#x1ec5;" 
d="M500 586h303q27 125 23 200q-7 123 -89 123q-100 0 -167 -121q-43 -77 -70 -202zM1065 487h-586l-11 -32q-34 -160 14 -248q51 -101 199 -101q63 0 130.5 24t129.5 67l22 -17l-69 -114q-156 -95 -316 -95q-252 0 -351.5 142.5t-45.5 398.5q47 219 201 355.5t371 136.5
q215 0 296 -130q74 -116 29 -325zM750 1458h189l178 -360h-119l-188 200l-271 -200h-115zM1241 1733h74q-46 -115 -102 -176q-76 -82 -170 -82q-39 0 -69 12q-7 4 -54.5 30.5t-70.5 36.5q-44 23 -71 23q-41 0 -69 -35t-34 -63h-73q22 106 113 188q74 66 158 66q47 0 100 -27
q38 -23 56 -31q26 -18 50.5 -29.5t46.5 -11.5q35 0 66 31q18 18 49 68z" />
    <glyph glyph-name="uni1EC6" unicode="&#x1ec6;" horiz-adv-x="1269" 
d="M456 1397h942q-9 -23 -19.5 -53.5t-11.5 -36.5l-6 -86q-102 10 -257.5 19t-298.5 9h-74l-93 -442h328q96 0 145.5 3t157.5 17q-18 -45 -35 -90q-4 -16 -4 -40.5t1 -45.5q-52 4 -145 10.5t-150 6.5h-328l-111 -521q178 0 351 8.5t290 20.5l-30 -86q-4 -18 -5 -42.5
t-2 -47.5h-942zM929 1868h192l173 -361h-115l-185 205l-277 -205h-111zM389 -279q14 66 71 113t123 47q65 0 104 -47t25 -113q-15 -67 -73 -115t-125 -48q-66 0 -102.5 49t-22.5 114z" />
    <glyph glyph-name="uni1EC7" unicode="&#x1ec7;" 
d="M500 586h303q27 125 23 200q-7 123 -89 123q-100 0 -167 -121q-43 -77 -70 -202zM1065 487h-586l-11 -32q-34 -160 14 -248q51 -101 199 -101q63 0 130.5 24t129.5 67l22 -17l-69 -114q-156 -95 -316 -95q-252 0 -351.5 142.5t-45.5 398.5q47 219 201 355.5t371 136.5
q215 0 296 -130q74 -116 29 -325zM750 1458h189l178 -360h-119l-188 200l-271 -200h-115zM298 -279q14 66 71 113t122 47q66 0 105 -47t25 -113q-14 -67 -72 -115t-126 -48q-65 0 -102 49t-23 114z" />
    <glyph glyph-name="uni1EC8" unicode="&#x1ec8;" horiz-adv-x="700" 
d="M186 -12l299 1409q24 0 74.5 -6.5t74.5 -6.5q27 0 79 6.5t79 6.5l-299 -1409q-27 0 -76.5 6t-76.5 6q-24 0 -77 -6t-77 -6zM995 1890l-2 -18l-11 -43q-8 -41 -79 -96q-52 -41 -123 -78q-43 -19 -64 -41q-20 -27 -26 -35l-15 -35l-6 -28h-52l17 83q7 29 126 144
q57 55 69 115q6 24 -3 61t-29 49q-20 19 -69 19q-9 0 -34.5 -17.5t-32.5 -23.5q21 -19 29 -33.5t3 -36.5q-8 -37 -45 -64.5t-76 -27.5q-37 0 -56 26.5t-11 65.5l9 22q36 52 88 87q81 53 186 53q112 0 166 -53q38 -37 41 -95z" />
    <glyph glyph-name="uni1EC9" unicode="&#x1ec9;" horiz-adv-x="589" 
d="M140 -12l211 995q24 0 80 -4t62 -4q35 0 76.5 3t63.5 5l-211 -995q-26 2 -50 4q-70 8 -86 8q-25 0 -73.5 -6t-72.5 -6zM860 1423l-2 -18l-11 -43q-9 -41 -79 -96q-52 -41 -123 -78q-43 -19 -65 -41q-19 -27 -25 -35l-16 -35l-5 -28h-52l17 84q6 28 126 143q56 55 69 115
q5 24 -3.5 61t-28.5 49q-20 19 -69 19q-9 0 -34.5 -17.5t-32.5 -23.5q21 -19 29 -33t3 -37q-8 -37 -45.5 -64.5t-76.5 -27.5q-37 0 -55.5 26.5t-10.5 65.5l9 23q36 51 88 86q80 53 185 53q112 0 167 -53q37 -37 41 -95z" />
    <glyph glyph-name="uni1ECA" unicode="&#x1eca;" horiz-adv-x="700" 
d="M187 -12l299 1409q24 0 74 -6.5t74 -6.5q27 0 79.5 6.5t79.5 6.5l-299 -1409q-27 0 -77 6t-77 6q-24 0 -76.5 -6t-76.5 -6zM122 -279q14 66 71 113t123 47q65 0 104.5 -47t25.5 -113q-14 -67 -73 -115t-126 -48q-66 0 -102.5 49t-22.5 114z" />
    <glyph glyph-name="uni1ECB" unicode="&#x1ecb;" horiz-adv-x="589" 
d="M140 -12l211 995q25 0 80.5 -4t61.5 -4q35 0 77 3t64 5l-211 -995q-27 2 -51 4q-70 8 -86 8q-25 0 -73 -6t-73 -6zM411 1360q14 65 71 112.5t123 47.5q65 0 104.5 -47.5t25.5 -112.5q-14 -68 -73 -116t-126 -48q-66 0 -102.5 49t-22.5 115zM63 -279q14 66 71 113t123 47
q65 0 104.5 -47t25.5 -113q-14 -67 -73 -115t-126 -48q-66 0 -102.5 49t-22.5 114z" />
    <glyph glyph-name="uni1ECC" unicode="&#x1ecc;" horiz-adv-x="1396" 
d="M1496 705q-65 -310 -288 -521q-235 -221 -532 -221q-287 0 -416 193.5t-55 539.5q67 316 284 521q230 217 540 217q325 0 439 -246q90 -195 28 -483zM990 1311q-178 0 -310.5 -168t-204.5 -508q-48 -225 -1 -375q56 -174 232 -174q186 0 331 199q130 178 189 456
q49 230 0 385q-57 185 -236 185zM480 -279q14 66 71.5 113t122.5 47q66 0 105 -47t25 -113q-14 -67 -72 -115t-126 -48q-65 0 -102.5 49t-23.5 114z" />
    <glyph glyph-name="uni1ECD" unicode="&#x1ecd;" 
d="M514 -29q-211 0 -306.5 134.5t-47.5 361.5q52 244 206 390.5t371 146.5q213 0 310 -131.5t49 -360.5q-51 -240 -207 -390.5t-375 -150.5zM725 909q-106 0 -181 -127q-60 -104 -104 -311q-33 -154 -25 -252q12 -153 119 -153q100 0 182 153q65 125 108 326q35 164 15 256
q-22 108 -114 108zM303 -279q14 66 71 113t123 47q65 0 104.5 -47t25.5 -113q-15 -67 -73.5 -115t-125.5 -48q-66 0 -102.5 49t-22.5 114z" />
    <glyph glyph-name="uni1ECE" unicode="&#x1ece;" horiz-adv-x="1396" 
d="M1496 705q-65 -310 -288 -521q-235 -221 -532 -221q-287 0 -416 193.5t-55 539.5q67 316 284 521q230 217 540 217q325 0 439 -246q90 -195 28 -483zM990 1311q-178 0 -310.5 -168t-204.5 -508q-48 -225 -1 -375q56 -174 232 -174q186 0 331 199q130 178 189 456
q49 230 0 385q-57 185 -236 185zM1346 1890l-1 -18l-12 -43q-8 -41 -80 -96q-52 -41 -123 -78q-43 -19 -63 -41q-21 -27 -27 -35l-15 -35l-6 -28h-51l17 83q7 29 125 144q57 55 70 115q5 24 -4 61t-28 49q-21 19 -70 19q-8 0 -33 -17.5t-33 -23.5q20 -19 28.5 -33.5
t3.5 -36.5q-8 -37 -45.5 -64.5t-76.5 -27.5q-36 0 -55.5 26.5t-11.5 65.5l9 22q36 52 89 87q81 53 185 53q113 0 167 -53q37 -37 41 -95z" />
    <glyph glyph-name="uni1ECF" unicode="&#x1ecf;" 
d="M514 -29q-211 0 -306.5 134.5t-47.5 361.5q52 244 206 390.5t371 146.5q213 0 310 -131.5t49 -360.5q-51 -240 -207 -390.5t-375 -150.5zM725 909q-106 0 -181 -127q-60 -104 -104 -311q-33 -154 -25 -252q12 -153 119 -153q100 0 182 153q65 125 108 326q35 164 15 256
q-22 108 -114 108zM1121 1464l-2 -18l-11 -43q-9 -41 -79 -96q-52 -41 -123 -78q-43 -19 -64 -41q-20 -27 -26 -35l-15 -35l-6 -28h-52l18 84q5 28 125 143q57 55 69 115q5 24 -3.5 61t-28.5 49q-20 19 -69 19q-9 0 -34.5 -17.5t-32.5 -23.5q21 -19 29 -33t3 -37
q-8 -37 -45 -64.5t-76 -27.5q-37 0 -56 26.5t-11 65.5l9 23q36 51 88 86q81 53 186 53q112 0 166 -53q37 -37 41 -95z" />
    <glyph glyph-name="uni1ED0" unicode="&#x1ed0;" horiz-adv-x="1396" 
d="M1496 705q-65 -310 -288 -521q-235 -221 -532 -221q-287 0 -416 193.5t-55 539.5q67 316 284 521q230 217 540 217q325 0 439 -246q90 -195 28 -483zM990 1311q-178 0 -310.5 -168t-204.5 -508q-48 -225 -1 -375q56 -174 232 -174q186 0 331 199q130 178 189 456
q49 230 0 385q-57 185 -236 185zM1699 2210q35 19 80 19q41 0 60 -27t11 -63q-9 -43 -51 -76q-19 -14 -81 -47l-303 -168h-114l328 307q48 43 70 55zM1001 1868h192l173 -361h-115l-185 205l-277 -205h-111z" />
    <glyph glyph-name="uni1ED1" unicode="&#x1ed1;" 
d="M514 -29q-211 0 -306.5 134.5t-47.5 361.5q52 244 206 390.5t371 146.5q213 0 310 -131.5t49 -360.5q-51 -240 -207 -390.5t-375 -150.5zM725 909q-106 0 -181 -127q-60 -104 -104 -311q-33 -154 -25 -252q12 -153 119 -153q100 0 182 153q65 125 108 326q35 164 15 256
q-22 108 -114 108zM1454 1749.5q33 17.5 78 17.5q39 0 59 -25.5t11 -64.5q-8 -41 -52 -74q-40 -24 -81 -49l-305 -164h-115l332 303q40 39 73 56.5zM738 1458h188l177 -360h-119l-186 200l-273 -200h-114z" />
    <glyph glyph-name="uni1ED2" unicode="&#x1ed2;" horiz-adv-x="1396" 
d="M1496 705q-65 -310 -288 -521q-235 -221 -532 -221q-287 0 -416 193.5t-55 539.5q67 316 284 521q230 217 540 217q325 0 439 -246q90 -195 28 -483zM990 1311q-178 0 -310.5 -168t-204.5 -508q-48 -225 -1 -375q56 -174 232 -174q186 0 331 199q130 178 189 456
q49 230 0 385q-57 185 -236 185zM1320 2155l196 -307h-115l-230 168q-48 33 -62 47q-27 33 -18 76q8 36 38 63t71 27q45 0 72 -19q18 -12 48 -55zM1001 1868h192l173 -361h-115l-185 205l-277 -205h-111z" />
    <glyph glyph-name="uni1ED3" unicode="&#x1ed3;" 
d="M514 -29q-211 0 -306.5 134.5t-47.5 361.5q52 244 206 390.5t371 146.5q213 0 310 -131.5t49 -360.5q-51 -240 -207 -390.5t-375 -150.5zM725 909q-106 0 -181 -127q-60 -104 -104 -311q-33 -154 -25 -252q12 -153 119 -153q100 0 182 153q65 125 108 326q35 164 15 256
q-22 108 -114 108zM1081 1761l202 -303h-115l-235 164q-30 25 -60 49q-30 33 -21 74q8 39 39.5 64.5t69.5 25.5q45 0 70.5 -17.5t49.5 -56.5zM738 1458h188l177 -360h-119l-186 200l-273 -200h-114z" />
    <glyph glyph-name="uni1ED4" unicode="&#x1ed4;" horiz-adv-x="1396" 
d="M1496 705q-65 -310 -288 -521q-235 -221 -532 -221q-287 0 -416 193.5t-55 539.5q67 316 284 521q230 217 540 217q325 0 439 -246q90 -195 28 -483zM990 1311q-178 0 -310.5 -168t-204.5 -508q-48 -225 -1 -375q56 -174 232 -174q186 0 331 199q130 178 189 456
q49 230 0 385q-57 185 -236 185zM1688 2074l-1 -18l-12 -43q-8 -41 -79 -96q-52 -41 -124 -78q-42 -19 -63 -41q-20 -27 -26 -35l-15 -35l-6 -28h-52l18 83q6 29 125 144q57 55 70 115q5 24 -4 61t-29 49q-20 19 -69 19q-9 0 -34 -17.5t-33 -23.5q21 -19 29 -33.5t3 -36.5
q-7 -37 -44.5 -64.5t-76.5 -27.5q-37 0 -56 26.5t-11 65.5l9 22q36 52 89 87q80 53 185 53q112 0 167 -53q37 -37 40 -95zM1001 1868h192l173 -361h-115l-185 205l-277 -205h-111z" />
    <glyph glyph-name="uni1ED5" unicode="&#x1ed5;" 
d="M514 -29q-211 0 -306.5 134.5t-47.5 361.5q52 244 206 390.5t371 146.5q213 0 310 -131.5t49 -360.5q-51 -240 -207 -390.5t-375 -150.5zM725 909q-106 0 -181 -127q-60 -104 -104 -311q-33 -154 -25 -252q12 -153 119 -153q100 0 182 153q65 125 108 326q35 164 15 256
q-22 108 -114 108zM1417 1716l-2 -18l-11 -43q-9 -41 -80 -96q-51 -41 -122 -78q-43 -19 -65 -41q-20 -27 -25 -35l-16 -35l-6 -28h-52l18 84q6 28 125 143q57 55 70 115q5 24 -3.5 61t-29.5 49q-20 19 -69 19q-9 0 -34 -17.5t-32 -23.5q21 -19 29 -33t3 -37
q-8 -37 -45.5 -64.5t-76.5 -27.5q-37 0 -56 26.5t-10 65.5l9 23q35 51 88 86q80 53 185 53q112 0 167 -53q37 -37 41 -95zM738 1458h188l177 -360h-119l-186 200l-273 -200h-114z" />
    <glyph glyph-name="uni1ED6" unicode="&#x1ed6;" horiz-adv-x="1396" 
d="M1496 705q-65 -310 -288 -521q-235 -221 -532 -221q-287 0 -416 193.5t-55 539.5q67 316 284 521q230 217 540 217q325 0 439 -246q90 -195 28 -483zM990 1311q-178 0 -310.5 -168t-204.5 -508q-48 -225 -1 -375q56 -174 232 -174q186 0 331 199q130 178 189 456
q49 230 0 385q-57 185 -236 185zM1544 2158h73q-46 -115 -102 -176q-75 -82 -170 -82q-39 0 -68 12q-8 4 -55.5 30.5t-70.5 37.5q-44 22 -70 22q-41 0 -69 -34.5t-34 -63.5h-74q23 106 114 188q73 66 157 66q47 0 102 -27q38 -22 54 -31q27 -18 51 -29t46 -11q35 0 67 30
q18 19 49 68zM1001 1868h192l173 -361h-115l-185 205l-277 -205h-111z" />
    <glyph glyph-name="uni1ED7" unicode="&#x1ed7;" 
d="M514 -29q-211 0 -306.5 134.5t-47.5 361.5q52 244 206 390.5t371 146.5q213 0 310 -131.5t49 -360.5q-51 -240 -207 -390.5t-375 -150.5zM725 909q-106 0 -181 -127q-60 -104 -104 -311q-33 -154 -25 -252q12 -153 119 -153q100 0 182 153q65 125 108 326q35 164 15 256
q-22 108 -114 108zM1222 1733h73q-46 -115 -102 -176q-74 -82 -169 -82q-39 0 -69 12q-7 4 -55 30.5t-71 36.5q-44 23 -70 23q-41 0 -69 -35t-34 -63h-74q23 106 114 188q73 66 157 66q47 0 102 -27q38 -23 54 -31q27 -18 51 -29.5t47 -11.5q34 0 66 31q18 18 49 68z
M738 1458h188l177 -360h-119l-186 200l-273 -200h-114z" />
    <glyph glyph-name="uni1ED8" unicode="&#x1ed8;" horiz-adv-x="1396" 
d="M1496 705q-65 -310 -288 -521q-235 -221 -532 -221q-287 0 -416 193.5t-55 539.5q67 316 284 521q230 217 540 217q325 0 439 -246q90 -195 28 -483zM990 1311q-178 0 -310.5 -168t-204.5 -508q-48 -225 -1 -375q56 -174 232 -174q186 0 331 199q130 178 189 456
q49 230 0 385q-57 185 -236 185zM1001 1868h192l173 -361h-115l-185 205l-277 -205h-111zM480 -279q14 66 71.5 113t122.5 47q66 0 105 -47t25 -113q-14 -67 -72 -115t-126 -48q-65 0 -102.5 49t-23.5 114z" />
    <glyph glyph-name="uni1ED9" unicode="&#x1ed9;" 
d="M514 -29q-211 0 -306.5 134.5t-47.5 361.5q52 244 206 390.5t371 146.5q213 0 310 -131.5t49 -360.5q-51 -240 -207 -390.5t-375 -150.5zM725 909q-106 0 -181 -127q-60 -104 -104 -311q-33 -154 -25 -252q12 -153 119 -153q100 0 182 153q65 125 108 326q35 164 15 256
q-22 108 -114 108zM738 1458h188l177 -360h-119l-186 200l-273 -200h-114zM303 -279q14 66 71 113t123 47q65 0 104.5 -47t25.5 -113q-15 -67 -73.5 -115t-125.5 -48q-66 0 -102.5 49t-22.5 114z" />
    <glyph glyph-name="uni1EDA" unicode="&#x1eda;" horiz-adv-x="1396" 
d="M1297 1890q35 19 80 19q41 0 60 -27t11 -63q-9 -43 -51 -76q-19 -14 -82 -47l-302 -168h-115l329 307q47 43 70 55zM1419 1262q36 0 91 45q22 24 30 65q6 27 6 51.5t-5.5 37t-35.5 14.5t-31 8l26 123q23 -4 34 -6.5t33 -2.5q25 0 72 4.5t57 4.5h62l-11 -33l-18 -86
q-12 -57 -40.5 -116.5t-65.5 -95.5t-67 -52q-49 -27 -102 -27q51 -109 60.5 -234.5t-18.5 -256.5q-65 -310 -288 -521q-235 -221 -532 -221q-287 0 -416 193.5t-55 539.5q67 316 284 521q230 217 540 217q139 0 235 -45.5t155 -126.5zM990 1311q-178 0 -310.5 -168
t-204.5 -508q-48 -225 -1 -375q56 -174 232 -174q186 0 331 199q130 178 189 456q49 230 0 385q-57 185 -236 185z" />
    <glyph glyph-name="uni1EDB" unicode="&#x1edb;" 
d="M1065 1477.5q33 17.5 78 17.5q39 0 59 -25.5t12 -64.5q-9 -41 -53 -74q-40 -24 -81 -49l-304 -164h-115l331 303q40 39 73 56.5zM1020 889q27 0 52.5 9t47 32.5t26.5 48.5q8 37 -6 53q-4 10 -33.5 12.5t-30.5 8.5l26 123q38 -9 63 -9q18 0 46 4.5t50 4.5h58l-10 -29
l-20 -94q-14 -64 -32 -94.5t-51 -61.5q-54 -49 -56 -51q-29 -23 -78 -23q63 -129 24 -311q-51 -240 -207 -390.5t-375 -150.5q-211 0 -306.5 134.5t-47.5 361.5q52 244 206 390.5t371 146.5q186 0 283 -115zM725 909q-106 0 -181 -127q-60 -104 -104 -311q-33 -154 -25 -252
q12 -153 119 -153q100 0 182 153q65 125 108 326q35 164 15 256q-22 108 -114 108z" />
    <glyph glyph-name="uni1EDC" unicode="&#x1edc;" horiz-adv-x="1396" 
d="M1002 1835l196 -307h-115l-230 168q-48 33 -61 47q-28 33 -19 76q8 36 38 63t71 27q45 0 72 -19q18 -12 48 -55zM1419 1262q36 0 91 45q22 24 30 65q6 27 6 51.5t-5.5 37t-35.5 14.5t-31 8l26 123q23 -4 34 -6.5t33 -2.5q25 0 72 4.5t57 4.5h62l-11 -33l-18 -86
q-12 -57 -40.5 -116.5t-65.5 -95.5t-67 -52q-49 -27 -102 -27q51 -109 60.5 -234.5t-18.5 -256.5q-65 -310 -288 -521q-235 -221 -532 -221q-287 0 -416 193.5t-55 539.5q67 316 284 521q230 217 540 217q139 0 235 -45.5t155 -126.5zM990 1311q-178 0 -310.5 -168
t-204.5 -508q-48 -225 -1 -375q56 -174 232 -174q186 0 331 199q130 178 189 456q49 230 0 385q-57 185 -236 185z" />
    <glyph glyph-name="uni1EDD" unicode="&#x1edd;" 
d="M699 1421l202 -303h-115l-236 164q-29 25 -59 49q-30 33 -21 74q8 39 39.5 64.5t70.5 25.5q45 0 69.5 -17.5t49.5 -56.5zM1020 889q27 0 52.5 9t47 32.5t26.5 48.5q8 37 -6 53q-4 10 -33.5 12.5t-30.5 8.5l26 123q38 -9 63 -9q18 0 46 4.5t50 4.5h58l-10 -29l-20 -94
q-14 -64 -32 -94.5t-51 -61.5q-54 -49 -56 -51q-29 -23 -78 -23q63 -129 24 -311q-51 -240 -207 -390.5t-375 -150.5q-211 0 -306.5 134.5t-47.5 361.5q52 244 206 390.5t371 146.5q186 0 283 -115zM725 909q-106 0 -181 -127q-60 -104 -104 -311q-33 -154 -25 -252
q12 -153 119 -153q100 0 182 153q65 125 108 326q35 164 15 256q-22 108 -114 108z" />
    <glyph glyph-name="uni1EDE" unicode="&#x1ede;" horiz-adv-x="1396" 
d="M1346 1890l-1 -18l-12 -43q-8 -41 -80 -96q-52 -41 -123 -78q-43 -19 -63 -41q-21 -27 -27 -35l-15 -35l-6 -28h-51l17 83q7 29 125 144q57 55 70 115q5 24 -4 61t-28 49q-21 19 -70 19q-8 0 -33 -17.5t-33 -23.5q20 -19 28.5 -33.5t3.5 -36.5q-8 -37 -45.5 -64.5
t-76.5 -27.5q-36 0 -55.5 26.5t-11.5 65.5l9 22q36 52 89 87q81 53 185 53q113 0 167 -53q37 -37 41 -95zM1419 1262q36 0 91 45q22 24 30 65q6 27 6 51.5t-5.5 37t-35.5 14.5t-31 8l26 123q23 -4 34 -6.5t33 -2.5q25 0 72 4.5t57 4.5h62l-11 -33l-18 -86
q-12 -57 -40.5 -116.5t-65.5 -95.5t-67 -52q-49 -27 -102 -27q51 -109 60.5 -234.5t-18.5 -256.5q-65 -310 -288 -521q-235 -221 -532 -221q-287 0 -416 193.5t-55 539.5q67 316 284 521q230 217 540 217q139 0 235 -45.5t155 -126.5zM990 1311q-178 0 -310.5 -168
t-204.5 -508q-48 -225 -1 -375q56 -174 232 -174q186 0 331 199q130 178 189 456q49 230 0 385q-57 185 -236 185z" />
    <glyph glyph-name="uni1EDF" unicode="&#x1edf;" 
d="M1121 1464l-2 -18l-11 -43q-9 -41 -79 -96q-52 -41 -123 -78q-43 -19 -64 -41q-20 -27 -26 -35l-15 -35l-6 -28h-52l18 84q5 28 125 143q57 55 69 115q5 24 -3.5 61t-28.5 49q-20 19 -69 19q-9 0 -34.5 -17.5t-32.5 -23.5q21 -19 29 -33t3 -37q-8 -37 -45 -64.5
t-76 -27.5q-37 0 -56 26.5t-11 65.5l9 23q36 51 88 86q81 53 186 53q112 0 166 -53q37 -37 41 -95zM1020 889q27 0 52.5 9t47 32.5t26.5 48.5q8 37 -6 53q-4 10 -33.5 12.5t-30.5 8.5l26 123q38 -9 63 -9q18 0 46 4.5t50 4.5h58l-10 -29l-20 -94q-14 -64 -32 -94.5
t-51 -61.5q-54 -49 -56 -51q-29 -23 -78 -23q63 -129 24 -311q-51 -240 -207 -390.5t-375 -150.5q-211 0 -306.5 134.5t-47.5 361.5q52 244 206 390.5t371 146.5q186 0 283 -115zM725 909q-106 0 -181 -127q-60 -104 -104 -311q-33 -154 -25 -252q12 -153 119 -153
q100 0 182 153q65 125 108 326q35 164 15 256q-22 108 -114 108z" />
    <glyph glyph-name="uni1EE0" unicode="&#x1ee0;" horiz-adv-x="1396" 
d="M1381 1827h74q-47 -115 -103 -176q-75 -82 -169 -82q-39 0 -69 12q-7 4 -55 30.5t-70 37.5q-45 22 -71 22q-41 0 -69 -34.5t-34 -63.5h-74q22 106 114 188q73 66 157 66q47 0 101 -27q39 -22 55 -31q27 -18 51 -29t47 -11q35 0 65 30q19 19 50 68zM1419 1262q36 0 91 45
q22 24 30 65q6 27 6 51.5t-5.5 37t-35.5 14.5t-31 8l26 123q23 -4 34 -6.5t33 -2.5q25 0 72 4.5t57 4.5h62l-11 -33l-18 -86q-12 -57 -40.5 -116.5t-65.5 -95.5t-67 -52q-49 -27 -102 -27q51 -109 60.5 -234.5t-18.5 -256.5q-65 -310 -288 -521q-235 -221 -532 -221
q-287 0 -416 193.5t-55 539.5q67 316 284 521q230 217 540 217q139 0 235 -45.5t155 -126.5zM990 1311q-178 0 -310.5 -168t-204.5 -508q-48 -225 -1 -375q56 -174 232 -174q186 0 331 199q130 178 189 456q49 230 0 385q-57 185 -236 185z" />
    <glyph glyph-name="uni1EE1" unicode="&#x1ee1;" 
d="M1117 1393h74q-47 -115 -103 -176q-75 -82 -170 -82q-38 0 -68 12q-7 4 -55 30.5t-70 36.5q-45 23 -71 23q-41 0 -69 -35t-34 -63h-74q23 106 114 188q73 66 157 66q47 0 101 -27q38 -23 55 -31q27 -18 51 -29.5t47 -11.5q34 0 66 31q17 18 49 68zM1020 889q27 0 52.5 9
t47 32.5t26.5 48.5q8 37 -6 53q-4 10 -33.5 12.5t-30.5 8.5l26 123q38 -9 63 -9q18 0 46 4.5t50 4.5h58l-10 -29l-20 -94q-14 -64 -32 -94.5t-51 -61.5q-54 -49 -56 -51q-29 -23 -78 -23q63 -129 24 -311q-51 -240 -207 -390.5t-375 -150.5q-211 0 -306.5 134.5t-47.5 361.5
q52 244 206 390.5t371 146.5q186 0 283 -115zM725 909q-106 0 -181 -127q-60 -104 -104 -311q-33 -154 -25 -252q12 -153 119 -153q100 0 182 153q65 125 108 326q35 164 15 256q-22 108 -114 108z" />
    <glyph glyph-name="uni1EE2" unicode="&#x1ee2;" horiz-adv-x="1396" 
d="M480 -279q14 66 71.5 113t122.5 47q66 0 105 -47t25 -113q-14 -67 -72 -115t-126 -48q-65 0 -102.5 49t-23.5 114zM1419 1262q36 0 91 45q22 24 30 65q6 27 6 51.5t-5.5 37t-35.5 14.5t-31 8l26 123q23 -4 34 -6.5t33 -2.5q25 0 72 4.5t57 4.5h62l-11 -33l-18 -86
q-12 -57 -40.5 -116.5t-65.5 -95.5t-67 -52q-49 -27 -102 -27q51 -109 60.5 -234.5t-18.5 -256.5q-65 -310 -288 -521q-235 -221 -532 -221q-287 0 -416 193.5t-55 539.5q67 316 284 521q230 217 540 217q139 0 235 -45.5t155 -126.5zM990 1311q-178 0 -310.5 -168
t-204.5 -508q-48 -225 -1 -375q56 -174 232 -174q186 0 331 199q130 178 189 456q49 230 0 385q-57 185 -236 185z" />
    <glyph glyph-name="uni1EE3" unicode="&#x1ee3;" 
d="M303 -279q14 66 71 113t123 47q65 0 104.5 -47t25.5 -113q-15 -67 -73.5 -115t-125.5 -48q-66 0 -102.5 49t-22.5 114zM1020 889q27 0 52.5 9t47 32.5t26.5 48.5q8 37 -6 53q-4 10 -33.5 12.5t-30.5 8.5l26 123q38 -9 63 -9q18 0 46 4.5t50 4.5h58l-10 -29l-20 -94
q-14 -64 -32 -94.5t-51 -61.5q-54 -49 -56 -51q-29 -23 -78 -23q63 -129 24 -311q-51 -240 -207 -390.5t-375 -150.5q-211 0 -306.5 134.5t-47.5 361.5q52 244 206 390.5t371 146.5q186 0 283 -115zM725 909q-106 0 -181 -127q-60 -104 -104 -311q-33 -154 -25 -252
q12 -153 119 -153q100 0 182 153q65 125 108 326q35 164 15 256q-22 108 -114 108z" />
    <glyph glyph-name="uni1EE4" unicode="&#x1ee4;" horiz-adv-x="1396" 
d="M278 561l178 836q66 -6 132 -13q69 7 138 13l-124 -582q-21 -98 -41.5 -199.5t-28.5 -189.5q-1 -100 3 -127q9 -57 46 -106q64 -91 185 -91q127 0 213 57.5t163 192.5q27 45 56.5 145.5t66.5 276.5l133 623q24 -4 34.5 -6t33.5 -2q18 0 40 3t35 5l-155 -729
q-49 -230 -95 -330q-73 -164 -224 -264q-82 -60 -174.5 -85.5t-192.5 -25.5q-189 0 -303 72q-138 88 -144 272q-2 62 4 122t21 132zM480 -279q14 66 71 113t123 47q65 0 104.5 -47t25.5 -113q-14 -67 -72.5 -115t-125.5 -48q-66 0 -103 49t-23 114z" />
    <glyph glyph-name="uni1EE5" unicode="&#x1ee5;" horiz-adv-x="1048" 
d="M1143 983l-211 -995q-65 6 -129 12q-27 0 -64 -4t-70 -8l32 151q-83 -73 -119 -98q-101 -70 -216 -70q-79 0 -142 32t-93 95q-20 47 -19.5 112.5t15.5 137.5l19 70l120 565l133 -8q25 0 80 4t62 4l-120 -565q-20 -92 -22 -115.5t6 -52.5q9 -53 36.5 -80t80.5 -27
q113 0 172 105q35 63 65 203l113 532q32 -4 62.5 -6t70.5 -2q33 0 74 3t64 5zM303 -279q14 66 71 113t123 47t105 -47t25 -113q-14 -67 -72.5 -115t-126.5 -48q-66 0 -102.5 49t-22.5 114z" />
    <glyph glyph-name="uni1EE6" unicode="&#x1ee6;" horiz-adv-x="1396" 
d="M278 561l178 836q66 -6 132 -13q69 7 138 13l-124 -582q-21 -98 -41.5 -199.5t-28.5 -189.5q-1 -100 3 -127q9 -57 46 -106q64 -91 185 -91q127 0 213 57.5t163 192.5q27 45 56.5 145.5t66.5 276.5l133 623q24 -4 34.5 -6t33.5 -2q18 0 40 3t35 5l-155 -729
q-49 -230 -95 -330q-73 -164 -224 -264q-82 -60 -174.5 -85.5t-192.5 -25.5q-189 0 -303 72q-138 88 -144 272q-2 62 4 122t21 132zM1403 1890l-2 -18l-11 -43q-8 -41 -79 -96q-52 -41 -123 -78q-43 -19 -64 -41q-20 -27 -26 -35l-15 -35l-6 -28h-52l17 83q7 29 126 144
q57 55 69 115q6 24 -3 61t-29 49q-20 19 -69 19q-9 0 -34.5 -17.5t-32.5 -23.5q21 -19 29 -33.5t3 -36.5q-8 -37 -45 -64.5t-76 -27.5q-37 0 -56 26.5t-11 65.5l9 22q36 52 88 87q81 53 186 53q112 0 166 -53q38 -37 41 -95z" />
    <glyph glyph-name="uni1EE7" unicode="&#x1ee7;" horiz-adv-x="1048" 
d="M1143 983l-211 -995q-65 6 -129 12q-27 0 -64 -4t-70 -8l32 151q-83 -73 -119 -98q-101 -70 -216 -70q-79 0 -142 32t-93 95q-20 47 -19.5 112.5t15.5 137.5l19 70l120 565l133 -8q25 0 80 4t62 4l-120 -565q-20 -92 -22 -115.5t6 -52.5q9 -53 36.5 -80t80.5 -27
q113 0 172 105q35 63 65 203l113 532q32 -4 62.5 -6t70.5 -2q33 0 74 3t64 5zM1083 1464l-1 -18l-12 -43q-8 -41 -80 -96q-52 -41 -123 -78q-43 -19 -64 -41q-20 -27 -26 -35l-15 -35l-6 -28h-51l18 84q6 28 124 143q57 55 70 115q5 24 -4 61t-28 49q-21 19 -70 19
q-8 0 -33 -17.5t-33 -23.5q20 -19 28.5 -33t3.5 -37q-7 -37 -45 -64.5t-77 -27.5q-37 0 -56 26.5t-11 65.5l9 23q36 51 89 86q81 53 185 53q113 0 167 -53q37 -37 41 -95z" />
    <glyph glyph-name="uni1EE8" unicode="&#x1ee8;" horiz-adv-x="1396" 
d="M1362 1890q35 19 80 19q41 0 60 -27t11 -63q-9 -43 -51 -76q-19 -14 -82 -47l-302 -168h-115l328 307q48 43 71 55zM1534 1368h25q25 0 50 21q21 24 30 65q4 19 -11 45q-4 10 -34.5 12t-30.5 9l26 122q24 -4 34.5 -6t33.5 -2t46.5 4t49.5 4h62l-11 -32l-18 -86
q-13 -58 -30 -93.5t-60 -74.5q-15 -15 -38 -39q-6 -4 -36 -19q-8 -4 -51.5 -10t-54.5 -6l-130 -614q-49 -230 -95 -330q-73 -164 -224 -264q-82 -60 -174.5 -85.5t-192.5 -25.5q-189 0 -303 72q-138 88 -144 272q-2 62 4 122t21 132l178 836q66 -6 132 -13q69 7 138 13
l-124 -582q-21 -98 -41.5 -199.5t-28.5 -189.5q-1 -100 3 -127q9 -57 46 -106q64 -91 185 -91q127 0 213 57.5t163 192.5q27 45 56.5 145.5t66.5 276.5l133 623q24 -4 34.5 -6t33.5 -2q18 0 40 3t35 5z" />
    <glyph glyph-name="uni1EE9" unicode="&#x1ee9;" horiz-adv-x="1048" 
d="M1037 1477.5q32 17.5 77 17.5q39 0 59 -25.5t12 -64.5q-9 -41 -53 -74q-40 -24 -79 -49l-306 -164h-114l330 303q42 39 74 56.5zM1136 950q33 6 43 8.5t30.5 24t27.5 57.5q9 41 -1 54q-4 10 -34 12t-31 8l26 123q39 -8 63 -8l91 4h58l-10 -29l-20 -94q-9 -45 -31 -85
t-67 -83q-34 -33 -66 -45t-93 -12l-190 -897q-65 6 -129 12q-27 0 -64 -4t-70 -8l32 151q-83 -73 -119 -98q-101 -70 -216 -70q-79 0 -142 32t-93 95q-20 47 -19.5 112.5t15.5 137.5l19 70l120 565l133 -8q25 0 80 4t62 4l-120 -565q-20 -92 -22 -115.5t6 -52.5
q9 -53 36.5 -80t80.5 -27q113 0 172 105q35 63 65 203l113 532q32 -4 62.5 -6t70.5 -2q33 0 74 3t64 5z" />
    <glyph glyph-name="uni1EEA" unicode="&#x1eea;" horiz-adv-x="1396" 
d="M1002 1835l196 -307h-115l-230 168q-48 33 -62 47q-28 33 -19 76q8 36 38 63t71 27q45 0 72 -19q19 -12 49 -55zM1534 1368h25q25 0 50 21q21 24 30 65q4 19 -11 45q-4 10 -34.5 12t-30.5 9l26 122q24 -4 34.5 -6t33.5 -2t46.5 4t49.5 4h62l-11 -32l-18 -86
q-13 -58 -30 -93.5t-60 -74.5q-15 -15 -38 -39q-6 -4 -36 -19q-8 -4 -51.5 -10t-54.5 -6l-130 -614q-49 -230 -95 -330q-73 -164 -224 -264q-82 -60 -174.5 -85.5t-192.5 -25.5q-189 0 -303 72q-138 88 -144 272q-2 62 4 122t21 132l178 836q66 -6 132 -13q69 7 138 13
l-124 -582q-21 -98 -41.5 -199.5t-28.5 -189.5q-1 -100 3 -127q9 -57 46 -106q64 -91 185 -91q127 0 213 57.5t163 192.5q27 45 56.5 145.5t66.5 276.5l133 623q24 -4 34.5 -6t33.5 -2q18 0 40 3t35 5z" />
    <glyph glyph-name="uni1EEB" unicode="&#x1eeb;" horiz-adv-x="1048" 
d="M699 1421l202 -303h-115l-235 164q-30 25 -60 49q-29 33 -20 74q8 39 39 64.5t70 25.5q45 0 70 -17.5t49 -56.5zM1136 950q33 6 43 8.5t30.5 24t27.5 57.5q9 41 -1 54q-4 10 -34 12t-31 8l26 123q39 -8 63 -8l91 4h58l-10 -29l-20 -94q-9 -45 -31 -85t-67 -83
q-34 -33 -66 -45t-93 -12l-190 -897q-65 6 -129 12q-27 0 -64 -4t-70 -8l32 151q-83 -73 -119 -98q-101 -70 -216 -70q-79 0 -142 32t-93 95q-20 47 -19.5 112.5t15.5 137.5l19 70l120 565l133 -8q25 0 80 4t62 4l-120 -565q-20 -92 -22 -115.5t6 -52.5q9 -53 36.5 -80
t80.5 -27q113 0 172 105q35 63 65 203l113 532q32 -4 62.5 -6t70.5 -2q33 0 74 3t64 5z" />
    <glyph glyph-name="uni1EEC" unicode="&#x1eec;" horiz-adv-x="1396" 
d="M1403 1890l-2 -18l-11 -43q-8 -41 -79 -96q-52 -41 -123 -78q-43 -19 -64 -41q-20 -27 -26 -35l-15 -35l-6 -28h-52l17 83q7 29 126 144q57 55 69 115q6 24 -3 61t-29 49q-20 19 -69 19q-9 0 -34.5 -17.5t-32.5 -23.5q21 -19 29 -33.5t3 -36.5q-8 -37 -45 -64.5
t-76 -27.5q-37 0 -56 26.5t-11 65.5l9 22q36 52 88 87q81 53 186 53q112 0 166 -53q38 -37 41 -95zM1534 1368h25q25 0 50 21q21 24 30 65q4 19 -11 45q-4 10 -34.5 12t-30.5 9l26 122q24 -4 34.5 -6t33.5 -2t46.5 4t49.5 4h62l-11 -32l-18 -86q-13 -58 -30 -93.5t-60 -74.5
q-15 -15 -38 -39q-6 -4 -36 -19q-8 -4 -51.5 -10t-54.5 -6l-130 -614q-49 -230 -95 -330q-73 -164 -224 -264q-82 -60 -174.5 -85.5t-192.5 -25.5q-189 0 -303 72q-138 88 -144 272q-2 62 4 122t21 132l178 836q66 -6 132 -13q69 7 138 13l-124 -582q-21 -98 -41.5 -199.5
t-28.5 -189.5q-1 -100 3 -127q9 -57 46 -106q64 -91 185 -91q127 0 213 57.5t163 192.5q27 45 56.5 145.5t66.5 276.5l133 623q24 -4 34.5 -6t33.5 -2q18 0 40 3t35 5z" />
    <glyph glyph-name="uni1EED" unicode="&#x1eed;" horiz-adv-x="1048" 
d="M1083 1464l-1 -18l-12 -43q-8 -41 -80 -96q-52 -41 -123 -78q-43 -19 -64 -41q-20 -27 -26 -35l-15 -35l-6 -28h-51l18 84q6 28 124 143q57 55 70 115q5 24 -4 61t-28 49q-21 19 -70 19q-8 0 -33 -17.5t-33 -23.5q20 -19 28.5 -33t3.5 -37q-7 -37 -45 -64.5t-77 -27.5
q-37 0 -56 26.5t-11 65.5l9 23q36 51 89 86q81 53 185 53q113 0 167 -53q37 -37 41 -95zM1136 950q33 6 43 8.5t30.5 24t27.5 57.5q9 41 -1 54q-4 10 -34 12t-31 8l26 123q39 -8 63 -8l91 4h58l-10 -29l-20 -94q-9 -45 -31 -85t-67 -83q-34 -33 -66 -45t-93 -12l-190 -897
q-65 6 -129 12q-27 0 -64 -4t-70 -8l32 151q-83 -73 -119 -98q-101 -70 -216 -70q-79 0 -142 32t-93 95q-20 47 -19.5 112.5t15.5 137.5l19 70l120 565l133 -8q25 0 80 4t62 4l-120 -565q-20 -92 -22 -115.5t6 -52.5q9 -53 36.5 -80t80.5 -27q113 0 172 105q35 63 65 203
l113 532q32 -4 62.5 -6t70.5 -2q33 0 74 3t64 5z" />
    <glyph glyph-name="uni1EEE" unicode="&#x1eee;" horiz-adv-x="1396" 
d="M1414 1827h73q-47 -115 -103 -176q-74 -82 -169 -82q-39 0 -68 12q-9 4 -56 30.5t-70 37.5q-44 22 -70 22q-41 0 -69 -34.5t-34 -63.5h-74q22 106 114 188q73 66 157 66q47 0 101 -27q38 -22 55 -31q27 -18 51 -29t47 -11q34 0 65 30q18 19 50 68zM1534 1368h25
q25 0 50 21q21 24 30 65q4 19 -11 45q-4 10 -34.5 12t-30.5 9l26 122q24 -4 34.5 -6t33.5 -2t46.5 4t49.5 4h62l-11 -32l-18 -86q-13 -58 -30 -93.5t-60 -74.5q-15 -15 -38 -39q-6 -4 -36 -19q-8 -4 -51.5 -10t-54.5 -6l-130 -614q-49 -230 -95 -330q-73 -164 -224 -264
q-82 -60 -174.5 -85.5t-192.5 -25.5q-189 0 -303 72q-138 88 -144 272q-2 62 4 122t21 132l178 836q66 -6 132 -13q69 7 138 13l-124 -582q-21 -98 -41.5 -199.5t-28.5 -189.5q-1 -100 3 -127q9 -57 46 -106q64 -91 185 -91q127 0 213 57.5t163 192.5q27 45 56.5 145.5
t66.5 276.5l133 623q24 -4 34.5 -6t33.5 -2q18 0 40 3t35 5z" />
    <glyph glyph-name="uni1EEF" unicode="&#x1eef;" horiz-adv-x="1048" 
d="M1076 1393h74q-47 -115 -103 -176q-75 -82 -169 -82q-39 0 -69 12q-7 4 -55 30.5t-70 36.5q-44 23 -71 23q-41 0 -69 -35t-34 -63h-74q23 106 114 188q73 66 157 66q48 0 102 -27q38 -23 54 -31q27 -18 51 -29.5t47 -11.5q35 0 66 31q19 18 49 68zM1136 950q33 6 43 8.5
t30.5 24t27.5 57.5q9 41 -1 54q-4 10 -34 12t-31 8l26 123q39 -8 63 -8l91 4h58l-10 -29l-20 -94q-9 -45 -31 -85t-67 -83q-34 -33 -66 -45t-93 -12l-190 -897q-65 6 -129 12q-27 0 -64 -4t-70 -8l32 151q-83 -73 -119 -98q-101 -70 -216 -70q-79 0 -142 32t-93 95
q-20 47 -19.5 112.5t15.5 137.5l19 70l120 565l133 -8q25 0 80 4t62 4l-120 -565q-20 -92 -22 -115.5t6 -52.5q9 -53 36.5 -80t80.5 -27q113 0 172 105q35 63 65 203l113 532q32 -4 62.5 -6t70.5 -2q33 0 74 3t64 5z" />
    <glyph glyph-name="uni1EF0" unicode="&#x1ef0;" horiz-adv-x="1396" 
d="M480 -279q14 66 71 113t123 47q65 0 104.5 -47t25.5 -113q-14 -67 -72.5 -115t-125.5 -48q-66 0 -103 49t-23 114zM1534 1368h25q25 0 50 21q21 24 30 65q4 19 -11 45q-4 10 -34.5 12t-30.5 9l26 122q24 -4 34.5 -6t33.5 -2t46.5 4t49.5 4h62l-11 -32l-18 -86
q-13 -58 -30 -93.5t-60 -74.5q-15 -15 -38 -39q-6 -4 -36 -19q-8 -4 -51.5 -10t-54.5 -6l-130 -614q-49 -230 -95 -330q-73 -164 -224 -264q-82 -60 -174.5 -85.5t-192.5 -25.5q-189 0 -303 72q-138 88 -144 272q-2 62 4 122t21 132l178 836q66 -6 132 -13q69 7 138 13
l-124 -582q-21 -98 -41.5 -199.5t-28.5 -189.5q-1 -100 3 -127q9 -57 46 -106q64 -91 185 -91q127 0 213 57.5t163 192.5q27 45 56.5 145.5t66.5 276.5l133 623q24 -4 34.5 -6t33.5 -2q18 0 40 3t35 5z" />
    <glyph glyph-name="uni1EF1" unicode="&#x1ef1;" horiz-adv-x="1048" 
d="M303 -279q14 66 71 113t123 47t105 -47t25 -113q-14 -67 -72.5 -115t-126.5 -48q-66 0 -102.5 49t-22.5 114zM1136 950q33 6 43 8.5t30.5 24t27.5 57.5q9 41 -1 54q-4 10 -34 12t-31 8l26 123q39 -8 63 -8l91 4h58l-10 -29l-20 -94q-9 -45 -31 -85t-67 -83
q-34 -33 -66 -45t-93 -12l-190 -897q-65 6 -129 12q-27 0 -64 -4t-70 -8l32 151q-83 -73 -119 -98q-101 -70 -216 -70q-79 0 -142 32t-93 95q-20 47 -19.5 112.5t15.5 137.5l19 70l120 565l133 -8q25 0 80 4t62 4l-120 -565q-20 -92 -22 -115.5t6 -52.5q9 -53 36.5 -80
t80.5 -27q113 0 172 105q35 63 65 203l113 532q32 -4 62.5 -6t70.5 -2q33 0 74 3t64 5z" />
    <glyph glyph-name="Ygrave" unicode="&#x1ef2;" horiz-adv-x="1376" 
d="M959 623l-134 -635q-27 0 -77 6t-77 6q-25 0 -77 -6t-77 -6l126 594q-30 71 -104 268q-63 162 -104 272q-51 138 -102 275q49 0 90 -4t100 -9q32 0 99 6.5t100 6.5q50 -158 106 -365q31 -102 47 -155q23 -70 37 -91q76 72 281 363q100 141 172 248q26 -4 49 -6t56 -2
q26 0 58 3t50 5q-100 -123 -210 -258q-144 -176 -211 -258q-117 -148 -198 -258zM1001 1835l198 -307h-115l-230 168q-49 33 -62 47q-28 33 -19 76q7 36 37.5 63t71.5 27q45 0 72 -19q18 -12 47 -55z" />
    <glyph glyph-name="ygrave" unicode="&#x1ef3;" 
d="M79 -532l374 528l-204 987q25 0 85 -4t69 -4q24 0 86.5 4t70.5 4q22 -152 36.5 -245t74.5 -390l122 209q64 107 93 158q74 125 154 268q21 -4 40.5 -4h39.5h33h27q19 4 27 4l-307 -467q-192 -295 -335.5 -524.5t-313.5 -523.5q-22 4 -40 6t-44 2q-21 0 -47.5 -3t-40.5 -5
zM698 1421l202 -303h-114l-236 164q-29 25 -59 49q-30 33 -21 74q8 39 39 64.5t70 25.5q45 0 69.5 -17.5t49.5 -56.5z" />
    <glyph glyph-name="uni1EF4" unicode="&#x1ef4;" horiz-adv-x="1376" 
d="M959 623l-134 -635q-27 0 -77 6t-77 6q-25 0 -77 -6t-77 -6l126 594q-30 71 -104 268q-63 162 -104 272q-51 138 -102 275q49 0 90 -4t100 -9q32 0 99 6.5t100 6.5q50 -158 106 -365q31 -102 47 -155q23 -70 37 -91q76 72 281 363q100 141 172 248q26 -4 49 -6t56 -2
q26 0 58 3t50 5q-100 -123 -210 -258q-144 -176 -211 -258q-117 -148 -198 -258zM452 -279q14 66 71 113t123 47q65 0 104.5 -47t25.5 -113q-14 -67 -73 -115t-126 -48q-66 0 -102.5 49t-22.5 114z" />
    <glyph glyph-name="uni1EF5" unicode="&#x1ef5;" 
d="M79 -532l374 528l-204 987q25 0 85 -4t69 -4q24 0 86.5 4t70.5 4q22 -152 36.5 -245t74.5 -390l122 209q64 107 93 158q74 125 154 268q21 -4 40.5 -4h39.5h33h27q19 4 27 4l-307 -467q-192 -295 -335.5 -524.5t-313.5 -523.5q-22 4 -40 6t-44 2q-21 0 -47.5 -3t-40.5 -5
zM534 -279q14 66 71 113t123 47q65 0 104.5 -47t25.5 -113q-14 -67 -73 -115t-126 -48q-66 0 -102.5 49t-22.5 114z" />
    <glyph glyph-name="uni1EF6" unicode="&#x1ef6;" horiz-adv-x="1376" 
d="M959 623l-134 -635q-27 0 -77 6t-77 6q-25 0 -77 -6t-77 -6l126 594q-30 71 -104 268q-63 162 -104 272q-51 138 -102 275q49 0 90 -4t100 -9q32 0 99 6.5t100 6.5q50 -158 106 -365q31 -102 47 -155q23 -70 37 -91q76 72 281 363q100 141 172 248q26 -4 49 -6t56 -2
q26 0 58 3t50 5q-100 -123 -210 -258q-144 -176 -211 -258q-117 -148 -198 -258zM1404 1890l-2 -18l-11 -43q-9 -41 -80 -96q-51 -41 -123 -78q-43 -19 -64 -41q-20 -27 -25 -35l-17 -35l-6 -28h-51l18 83q6 29 125 144q57 55 70 115q5 24 -3.5 61t-29.5 49q-20 19 -69 19
q-9 0 -34 -17.5t-32 -23.5q21 -19 28.5 -33.5t3.5 -36.5q-8 -37 -45.5 -64.5t-76.5 -27.5q-37 0 -55.5 26.5t-10.5 65.5l8 22q37 52 89 87q80 53 185 53q112 0 167 -53q37 -37 41 -95z" />
    <glyph glyph-name="uni1EF7" unicode="&#x1ef7;" 
d="M79 -532l374 528l-204 987q25 0 85 -4t69 -4q24 0 86.5 4t70.5 4q22 -152 36.5 -245t74.5 -390l122 209q64 107 93 158q74 125 154 268q21 -4 40.5 -4h39.5h33h27q19 4 27 4l-307 -467q-192 -295 -335.5 -524.5t-313.5 -523.5q-22 4 -40 6t-44 2q-21 0 -47.5 -3t-40.5 -5
zM1131 1464l-2 -18l-11 -43q-8 -41 -79 -96q-52 -41 -124 -78q-43 -19 -63 -41q-21 -27 -27 -35l-15 -35l-6 -28h-51l18 84q6 28 124 143q57 55 69 115q6 24 -3 61t-28 49q-21 19 -70 19q-8 0 -33.5 -17.5t-32.5 -23.5q20 -19 28.5 -33t3.5 -37q-8 -37 -45.5 -64.5
t-75.5 -27.5q-37 0 -56.5 26.5t-11.5 65.5l10 23q35 51 87 86q82 53 186 53q113 0 166 -53q39 -37 42 -95z" />
    <glyph glyph-name="uni1EF8" unicode="&#x1ef8;" horiz-adv-x="1376" 
d="M959 623l-134 -635q-27 0 -77 6t-77 6q-25 0 -77 -6t-77 -6l126 594q-30 71 -104 268q-63 162 -104 272q-51 138 -102 275q49 0 90 -4t100 -9q32 0 99 6.5t100 6.5q50 -158 106 -365q31 -102 47 -155q23 -70 37 -91q76 72 281 363q100 141 172 248q26 -4 49 -6t56 -2
q26 0 58 3t50 5q-100 -123 -210 -258q-144 -176 -211 -258q-117 -148 -198 -258zM1414 1827h73q-46 -115 -102 -176q-75 -82 -169 -82q-39 0 -69 12q-8 4 -55.5 30.5t-69.5 37.5q-45 22 -71 22q-41 0 -68.5 -34.5t-34.5 -63.5h-74q23 106 114 188q73 66 157 66q47 0 101 -27
q38 -22 55 -31q27 -18 51.5 -29t46.5 -11q35 0 66 30q18 19 49 68z" />
    <glyph glyph-name="uni1EF9" unicode="&#x1ef9;" 
d="M79 -532l374 528l-204 987q25 0 85 -4t69 -4q24 0 86.5 4t70.5 4q22 -152 36.5 -245t74.5 -390l122 209q64 107 93 158q74 125 154 268q21 -4 40.5 -4h39.5h33h27q19 4 27 4l-307 -467q-192 -295 -335.5 -524.5t-313.5 -523.5q-22 4 -40 6t-44 2q-21 0 -47.5 -3t-40.5 -5
zM1192 1393h74q-46 -115 -102 -176q-76 -82 -170 -82q-39 0 -69 12q-7 4 -54.5 30.5t-70.5 36.5q-44 23 -71 23q-41 0 -69 -35t-34 -63h-73q23 106 113 188q74 66 158 66q47 0 100 -27q39 -23 56 -31q26 -18 50.5 -29.5t46.5 -11.5q35 0 67 31q18 18 48 68z" />
    <glyph glyph-name="quoteleft" unicode="&#x2018;" horiz-adv-x="589" 
d="M797 1421l-170 -377q-24 -51 -46 -98t-54.5 -98t-67.5 -74.5t-88 -23.5t-86 36.5t-23 85.5q8 35 35 70q77 88 168 191q20 22 288 313z" />
    <glyph glyph-name="quoteright" unicode="&#x2019;" horiz-adv-x="589" 
d="M239 782l175 381q22 49 46.5 100.5t55.5 99.5t64 69.5t85 21.5q53 0 85.5 -39t22.5 -88q-8 -39 -31 -65q-214 -238 -458 -500z" />
    <glyph glyph-name="quotedblleft" unicode="&#x201c;" 
d="M814 1421l-174 -377q-24 -51 -46 -99t-55 -101q-32 -49 -66 -71.5t-85 -22.5q-55 0 -89 36.5t-24 85.5q8 35 35 70q106 119 229 254q154 166 231 250zM1236 1421l-170 -377q-24 -51 -46 -98t-54.5 -98t-67.5 -74.5t-88 -23.5t-86 36.5t-23 85.5q8 35 35 70q77 88 168 191
q20 22 288 313z" />
    <glyph glyph-name="quotedblright" unicode="&#x201d;" 
d="M682 782l171 381q22 49 46.5 99.5t57.5 97.5q54 94 151 94q53 0 83.5 -39t20.5 -88q-8 -39 -31 -65q-75 -86 -167 -189q-107 -119 -287 -311zM256 782l175 381q22 49 46.5 100.5t55.5 99.5t64 69.5t85 21.5q53 0 85.5 -39t22.5 -88q-8 -39 -31 -65q-214 -238 -458 -500z
" />
    <glyph glyph-name="ellipsis" unicode="&#x2026;" horiz-adv-x="1586" 
d="M276 -29q-68 0 -105.5 50.5t-23.5 117.5q15 68 73.5 118t126.5 50q69 0 110 -49t26 -119q-15 -71 -75 -119.5t-132 -48.5zM787 -29q-68 0 -105.5 50.5t-23.5 117.5q15 68 73.5 118t126.5 50q69 0 110 -49t26 -119q-15 -71 -75 -119.5t-132 -48.5zM1268 -30
q-68 0 -105 50.5t-23 117.5q14 68 73 118t127 50q69 0 110 -49t26 -119q-15 -71 -75.5 -119.5t-132.5 -48.5z" />
    <glyph glyph-name="ugrave" horiz-adv-x="582" 
 />
    <glyph glyph-name="uacute" horiz-adv-x="580" 
 />
    <glyph glyph-name="yacute" horiz-adv-x="629" 
 />
    </font>
</defs>
</svg>
