<svg xmlns="http://www.w3.org/2000/svg">
<defs>
<font id="UTMAptimaBold" horiz-adv-x="1028" >
  <font-face 
    font-family="UTMAptimaBold"
    font-weight="700"
    font-stretch="normal"
    units-per-em="2048"
    panose-1="2 4 6 3 5 5 6 2 2 4"
    ascent="1638"
    descent="-410"
    x-height="983"
    cap-height="1397"
    bbox="-40 -541 4942 2271"
    underline-thickness="109"
    underline-position="-359"
    unicode-range="U+0020-2026"
  />
<missing-glyph horiz-adv-x="5040" 
d="M3351 2045h10q37 -10 37 -52q0 -12 -32 -57h-28q0 24 28 54l2 10q-5 13 -10 15h-9q-8 0 -10 -19h-30q6 49 42 49zM2019 2016l29 -31q0 -16 -40 -30h-19l-59 12l-11 -12l-28 25q11 29 43 29h11l42 -11h2q10 0 30 18zM468 1980h142v-60h-94v-75h89v-59h-89v-129l-5 -5h-49
v323zM1155 1980h43l6 -5v-78h30v-52h-30v-188l-6 -5h-49v193h-25v52h25v78zM1621 1980h42l4 -5v-94h3q23 24 54 24h2q58 0 83 -71l2 -39v-143h-52v115q0 80 -42 80h-7q-43 0 -43 -86v-109h-51v323zM2200 1980h49l5 -5v-222q10 -51 45 -51q44 7 44 59v214l5 5h49v-216
q0 -85 -66 -112q-15 -8 -35 -8q-47 0 -82 55q-14 24 -14 57v224zM2435 1980h159v-60h-56v-268h-53v268h-55v55zM2621 1980h71q7 -4 83 -251h2l80 251h73v-328h-54v242h-2l-74 -242h-44q-4 0 -58 182l-19 60h-3v-242h-55v328zM3760 1980h52v-328h-45l-5 5v11l3 2l-3 14
q-29 -40 -78 -40q-67 0 -100 91l-5 39v3q0 94 92 125l23 3q35 0 63 -32h3v107zM2057 1928h36l4 -6v-49h-45v-221h-48v23q-23 -31 -59 -31q-89 14 -89 97v156h51v-104q0 -79 26 -86l18 -5h6q26 0 39 36l3 26v133h53v25zM3476 1928v-55h-31v-221h-47v25h-2q-15 -33 -57 -33
q-68 0 -86 78l-3 29v146h52v-120q0 -50 19 -68l21 -7h9q42 0 42 69v126h27q4 0 4 28l3 3h49zM758 1905q68 0 103 -77q9 -18 12 -54q0 -88 -90 -127l-32 -3q-63 0 -101 73q-12 22 -12 52v10q0 94 101 126h19zM1011 1905h3q74 0 83 -101v-152h-51v119q0 76 -42 76h-5
q-44 0 -44 -76v-119h-52v245h46v-21q30 29 62 29zM1466 1905h7q72 0 105 -89h-60q-16 31 -42 31h-17q-53 -14 -53 -61l-3 -15q12 -69 61 -69h9q22 0 47 27h40l2 3h3l2 -3l2 3l3 -3l2 3l2 -7q-33 -81 -110 -81q-76 0 -110 94l-4 36v3q0 85 77 120q15 8 37 8zM3141 1905h2

<glyph glyph-name=".notdef" horiz-adv-x="5040" 
d="M3351 2045h10q37 -10 37 -52q0 -12 -32 -57h-28q0 24 28 54l2 10q-5 13 -10 15h-9q-8 0 -10 -19h-30q6 49 42 49zM2019 2016l29 -31q0 -16 -40 -30h-19l-59 12l-11 -12l-28 25q11 29 43 29h11l42 -11h2q10 0 30 18zM468 1980h142v-60h-94v-75h89v-59h-89v-129l-5 -5h-49
v323zM1155 1980h43l6 -5v-78h30v-52h-30v-188l-6 -5h-49v193h-25v52h25v78zM1621 1980h42l4 -5v-94h3q23 24 54 24h2q58 0 83 -71l2 -39v-143h-52v115q0 80 -42 80h-7q-43 0 -43 -86v-109h-51v323zM2200 1980h49l5 -5v-222q10 -51 45 -51q44 7 44 59v214l5 5h49v-216
q0 -85 -66 -112q-15 -8 -35 -8q-47 0 -82 55q-14 24 -14 57v224zM2435 1980h159v-60h-56v-268h-53v268h-55v55zM2621 1980h71q7 -4 83 -251h2l80 251h73v-328h-54v242h-2l-74 -242h-44q-4 0 -58 182l-19 60h-3v-242h-55v328zM3760 1980h52v-328h-45l-5 5v11l3 2l-3 14
q-29 -40 -78 -40q-67 0 -100 91l-5 39v3q0 94 92 125l23 3q35 0 63 -32h3v107zM2057 1928h36l4 -6v-49h-45v-221h-48v23q-23 -31 -59 -31q-89 14 -89 97v156h51v-104q0 -79 26 -86l18 -5h6q26 0 39 36l3 26v133h53v25zM3476 1928v-55h-31v-221h-47v25h-2q-15 -33 -57 -33
q-68 0 -86 78l-3 29v146h52v-120q0 -50 19 -68l21 -7h9q42 0 42 69v126h27q4 0 4 28l3 3h49zM758 1905q68 0 103 -77q9 -18 12 -54q0 -88 -90 -127l-32 -3q-63 0 -101 73q-12 22 -12 52v10q0 94 101 126h19zM1011 1905h3q74 0 83 -101v-152h-51v119q0 76 -42 76h-5
q-44 0 -44 -76v-119h-52v245h46v-21q30 29 62 29zM1466 1905h7q72 0 105 -89h-60q-16 31 -42 31h-17q-53 -14 -53 -61l-3 -15q12 -69 61 -69h9q22 0 47 27h40l2 3h3l2 -3l2 3l3 -3l2 3l2 -7q-33 -81 -110 -81q-76 0 -110 94l-4 36v3q0 85 77 120q15 8 37 8zM3141 1905h2
q49 0 70 -60v-14h-52q0 16 -16 16h-4q-14 0 -19 -13v-13q0 -9 68 -35q30 -19 30 -59q0 -58 -61 -80l-23 -3q-76 12 -76 83h54q0 -20 27 -25h4q19 0 24 23q0 22 -68 44q-34 27 -34 59q0 66 74 77zM4203 1905q55 0 77 -63q7 -18 7 -65v-125h-52v112q0 83 -40 83h-11
q-33 0 -40 -54v-141h-52v5h-2l2 2v238h47v-21q25 29 64 29zM4432 1905h5q40 0 69 -40v18l-3 3l3 11h47v-208q0 -97 -85 -132l-33 -4h-7q-70 0 -104 80h59q24 -22 45 -23h13q22 0 43 22q15 13 22 52h-3q-32 -40 -73 -40q-57 0 -96 70q-10 18 -14 63q0 88 87 125zM3851 1897
h53v-136q6 -59 40 -59h7q46 0 46 93v102h51v-245h-47l-3 10h3l-3 3v5l3 2v3h-4q0 -23 -57 -31h-3q-59 0 -84 75l-2 85v93zM690 1771q10 -69 63 -69h7q59 14 59 65v15q-13 65 -59 65h-5q-58 0 -65 -76zM3630 1774q13 -72 61 -72h5q58 0 66 75q0 49 -51 70h-22q-37 0 -56 -57z
M4374 1774q8 -72 65 -72h5q59 12 59 72q0 61 -59 73h-14q-56 -16 -56 -62v-11zM3928 1620h52v-57h-52v57zM1054 1402q43 -11 43 -49v-4q0 -17 -32 -60h-28q0 25 31 57v7q0 12 -7 15h-12q-10 -4 -10 -19h-28v6q0 32 33 44zM3349 1339q92 0 138 -99h-60q-37 42 -80 42
q-55 0 -87 -68q-10 -22 -10 -47q0 -78 81 -110l18 -1q36 0 75 39h61q-44 -97 -138 -97q-93 0 -141 112q-10 31 -10 62q0 97 90 152q29 15 63 15zM3664 1339q57 0 103 -47q46 -51 46 -115v-20q0 -89 -91 -146q-33 -13 -63 -13q-89 0 -138 101q-13 33 -13 60v18q0 98 98 151
q29 11 58 11zM2261 1337h2l47 -11h3q11 0 26 11l18 -36q-18 -19 -35 -19h-3l-54 10l-20 -7l-20 36q18 16 36 16zM716 1334h19q118 0 129 -26q25 -26 25 -62q-10 -57 -30 -57v-6q47 -23 47 -66v-18q0 -63 -69 -88l-54 -5h-67v328zM2550 1334h53v-217q6 -61 45 -61q29 0 44 39
l3 30v203l4 6h45l5 -6v-171q0 -118 -40 -133q-24 -26 -64 -26q-55 0 -91 76l-4 54v206zM2805 1334h59q4 0 122 -237h4v237h50l4 -6v-322h-58q-29 48 -125 238h-3v-238h-53v328zM3101 1334h54v-328h-54v328zM3859 1334h8q155 0 174 -40q23 -11 47 -75l4 -36v-11l3 -2
q0 -94 -82 -149q-35 -15 -99 -15h-55v328zM4141 1334h153v-60h-103v-75h101v-57h-101v-74l4 -5h99v-57h-157v322zM3563 1175v-10q0 -76 79 -108l19 -1q68 0 96 86l3 20v15q0 61 -60 94q-12 8 -39 11q-66 0 -96 -83zM770 1274v-67h9q54 0 54 28l3 14q-11 25 -29 25h-37z
M3912 1274v-206l2 -3v-2q104 0 122 76l2 15v29q0 34 -32 68q-25 23 -78 23h-16zM1041 1259h5q38 0 71 -40v32h49v-245h-49v32q-36 -40 -80 -40q-75 0 -101 97l-5 36q0 89 85 125zM1314 1259h3q74 0 83 -102v-151h-51v128q0 67 -42 67h-10q-34 0 -39 -62v-133h-52v245h47v-21
q28 29 61 29zM1543 1259h5q45 0 71 -40v32h47v-219q0 -95 -104 -126h-16q-74 0 -108 82h59q26 -25 44 -25h14q52 0 64 77q-33 -42 -76 -42q-60 0 -101 81l-7 44v16q0 79 85 117zM1912 1259h2q43 0 61 -37h2q32 37 69 37h4q57 0 79 -55q8 -25 8 -45v-153h-52v138q0 44 -23 55
l-12 2h-15q-32 0 -36 -65v-130h-52v136q0 59 -43 59h-8q-32 0 -36 -57v-138h-54v245h50v-21h2q6 24 54 29zM2282 1259q47 0 75 -42v34h47v-245h-47v32q-36 -40 -78 -40q-74 0 -102 92l-6 41q0 90 85 125zM985 1117q0 -48 61 -61h4q45 0 62 46l3 15v22q-12 62 -57 62h-14
q-41 0 -59 -57v-27zM1487 1128q0 -48 43 -68l18 -4h5q47 0 63 57v23q-11 65 -58 65h-12q-50 0 -59 -73zM2225 1131v-14q15 -61 57 -61h14q58 12 58 64v11q0 45 -37 65l-18 5h-10q-64 -8 -64 -70zM770 1150v-82q0 -5 7 -5q77 0 77 45q0 34 -47 42h-37zM2966 753l24 -28
l-51 -55q-18 12 -27 26zM1524 727l85 -54q0 -15 -21 -42l-87 54q18 41 23 42zM2850 693h38l55 -60h-54l-21 26l-23 -26h-54q54 60 59 60zM3422 693h40l56 -60h-54l-24 26h-1q0 -5 -19 -26h-54zM622 685h52q8 -4 47 -137l34 -110q9 8 34 100l48 147h54v-2l-112 -326h-44z
M1159 685h51v-54h-51v54zM1354 685h46l6 -5v-323h-52v328zM2317 685h45l4 -5v-78h31v-52h-31v-193h-53v193h-26v52h26v78zM2425 685h52v-98h2q23 23 54 23h3q57 0 81 -71l3 -38v-144h-52v115q0 81 -39 81h-10q-42 0 -42 -87v-109h-52v328zM2664 685h52v-54h-52v54zM3028 685
h44l6 -5v-78h29v-52h-29v-193h-54v193h-27v52h27v78zM3234 685h52v-328h-52v328zM3957 685h52v-328h-52v328zM4316 685h51v-54h-51v54zM1555 610h5q83 0 110 -102l3 -23v-11q0 -83 -85 -120l-35 -5q-76 0 -111 97l-4 32q0 97 93 130zM1811 610h4q53 0 78 -60q7 -25 7 -81
v-112h-54v146q-7 50 -37 50h-10q-38 0 -42 -57v-139h-54v245h49v-21q26 29 59 29zM2046 610h4q45 0 63 -39h3v31h49v-206q0 -102 -89 -135l-28 -3h-5q-73 0 -106 81h52l37 -20l15 -3h14q50 0 61 72q-33 -39 -73 -39q-62 0 -98 76q-11 23 -12 60q0 85 86 123zM2866 610h2
q82 0 111 -104l2 -25l-2 -27h-172q15 -45 45 -45l14 -3q29 0 49 22h57v-3q-35 -76 -108 -76q-77 0 -111 97l-1 28v8q0 49 32 89q34 39 82 39zM3429 610h5q41 0 70 -39h2v31h47v-245h-47v31h-2q-35 -39 -77 -39q-71 0 -101 89l-5 36v14q0 86 84 120zM3711 610h7
q88 0 107 -128l-2 -1v-15q0 -65 -66 -106q-21 -11 -46 -11q-34 0 -64 32v-99l-5 -5h-49v325h49v-28q31 36 69 36zM4151 610q44 0 75 -39v31h49v-245h-49v31q-35 -39 -77 -39q-92 0 -108 132q0 84 73 121q15 8 37 8zM922 602h50v-136q3 -60 42 -60h5q44 0 44 87v109h52v-245
h-47v24h-5q0 -23 -56 -32h-3q-55 0 -82 68q-4 35 -4 99v81zM1159 602h51v-245h-51v245zM2664 602h52v-245h-52v245zM4316 602h51v-245h-51v245zM1492 488v-16q13 -66 59 -66h4q59 0 66 76q-13 71 -59 71h-11q-59 -16 -59 -65zM1987 472q15 -66 59 -66h11q48 0 59 75v1
q-13 71 -59 71h-14q-39 0 -56 -57v-24zM2805 506h122v2q-16 45 -59 45h-7q-35 0 -56 -47zM3373 474q13 -68 61 -68h5q52 0 65 63v12q-10 72 -57 72h-16q-56 -14 -56 -63zM3642 478q12 -72 61 -72h3q50 0 65 60v22q0 43 -49 65h-22q-47 0 -58 -72v-3zM4095 472q10 -66 66 -66
q43 0 61 48l2 15v16q0 54 -52 68h-18q-42 0 -59 -60v-21zM3416 321h51v-52h-51v52zM4137 321h51v-52h-51v52zM2733 133h4q35 0 43 -50v-2q0 -16 -24 -41l-10 -17h-28q0 25 28 56l3 2v2q-3 19 -9 19h-10q-8 0 -9 -19h-30q6 50 42 50zM1546 116l52 -60l-26 -19l-52 52zM352 79
h4q75 -48 85 -60l-20 -37q-88 49 -88 58zM3490 79l86 -58l-18 -39q-10 0 -91 55q15 36 23 42zM4578 76l19 -42l-91 -52l-20 39l92 58v-3zM1204 53h51v-19l5 -5h14v-36h-14l-5 -5v-279h-46v31q-34 -40 -81 -40q-72 0 -102 105l-3 26q0 102 101 131h14q33 0 66 -33v59l-6 5
h-43v36h49v24zM1480 45h40l56 -61h-53l-23 27l-23 -27h-53zM2641 45h33q12 0 63 -61h-54l-23 27q-19 -21 -19 -27h-58v4zM49 37h160v-60h-56v-268h-50l-4 5v245l2 3v2l-2 2l2 3l-2 2l2 3l-2 3h-54v54zM699 37h47v-73l2 -2l-2 -3v-3l2 -2l-2 -3v-3l2 -2v-2l-2 -3l2 -3h3
q17 24 51 24h3q53 0 77 -58q7 -17 7 -42v-153h-52v127q0 68 -40 68h-8q-43 0 -43 -86v-109h-52v322zM1297 37h47l5 -6v-49h-52v55zM1987 37h52v-198l70 115h62l-78 -118l90 -125v-2h-70q-10 22 -74 115v-115h-52v328zM2271 37v-99q24 24 53 24q57 0 80 -56q10 -19 10 -77
v-120h-54v133q0 62 -41 62h-11q-31 0 -37 -55v-140h-53v314l-1 3v3l1 2l-1 3l1 3h53zM2458 37h51v-55h-51v55zM3148 37h51v-108q27 33 68 33h3q75 0 105 -94l5 -37q0 -75 -64 -120q-30 -11 -49 -11q-41 0 -72 40v-31h-47v328zM4275 37h52v-99h2q23 24 54 24h3q60 0 82 -74
l2 -41v-138h-52v111q0 82 -32 82l-10 2h-12q-37 0 -37 -80v-115h-52v328zM329 -38h3v-58h-5q-42 0 -42 -57v-138h-53v245h47v-21q18 29 50 29zM564 -38q71 0 86 -87v-166h-51v136q-6 59 -41 59h-6q-45 0 -45 -84v-111h-52v245h50v-21q25 29 59 29zM1504 -38q72 0 105 -94
l5 -39q-2 -24 -7 -24h-169q17 -47 62 -47q24 0 48 21h57q-33 -79 -108 -79q-82 0 -113 105v37q0 81 89 117zM2657 -38h5q77 0 107 -97l3 -26v-21l-3 -13h-170q18 -47 53 -47h12q21 0 42 21h59q-34 -79 -105 -79q-84 0 -115 102l-2 29q0 93 91 128zM2915 -38h4q54 0 78 -60
q7 -25 7 -82v-111h-54v138q0 48 -35 57h-11q-38 0 -43 -57v-138h-54v245h50v-21q25 29 58 29zM3508 -38h6q40 0 70 -40h2v32h47v-245h-47v31h-2q-34 -40 -78 -40q-71 0 -101 90l-4 37v12q0 82 77 117q11 6 30 6zM3781 -38h4q62 0 82 -78l3 -84v-91h-54v138q0 48 -38 57h-9
q-38 0 -42 -52v-143h-54v245h49v-21q26 29 59 29zM4133 -38h1q74 0 104 -93l4 -40q0 -88 -84 -126l-25 -3q-41 0 -68 34v-106h-52v326h47v-29q30 37 73 37zM4714 -38h5q34 0 63 -37q27 37 69 37h6q56 0 79 -66l6 -51v-136h-52v122q0 73 -39 73h-7q-35 0 -41 -50v-140l-5 -5
h-48v140q0 42 -31 55h-17q-40 0 -40 -77v-118h-51v245h47v-21q22 29 56 29zM359 -46h49l5 -6v-234l-5 -5h-49v245zM1297 -46h52v-245h-52v245zM1649 -46h52v-136q4 -60 43 -60h4q44 0 44 81v115h52v-245h-47v24h-5q-12 -33 -59 -33q-52 0 -79 63q-5 12 -5 34v157zM2458 -46
h51v-245h-51v245zM4515 -46h51v-245h-51v245zM1077 -169q0 -53 51 -73h12q54 0 66 66v10q0 53 -54 70h-17q-38 0 -58 -57v-16zM1438 -143h122q-18 47 -53 47h-7q-43 0 -62 -44v-3zM2599 -143h122q-21 47 -54 47h-7q-46 0 -61 -47zM3196 -158v-11q10 -73 61 -73h5q64 8 64 71
v5q0 45 -38 65l-18 5h-14q-60 -14 -60 -62zM3452 -173q14 -69 62 -69h11q41 0 59 60v13q-8 73 -56 73h-17q-47 0 -59 -73v-4zM4062 -158v-22q0 -47 59 -62h9q50 0 61 76q-13 70 -58 70h-15q-56 -17 -56 -62z" />
    <glyph glyph-name=".null" horiz-adv-x="0" 
 />
    <glyph glyph-name="nonmarkingreturn" horiz-adv-x="571" 
 />
    <glyph glyph-name="space" unicode=" " horiz-adv-x="589" 
 />
    <glyph glyph-name="exclam" unicode="!" horiz-adv-x="700" 
d="M176 139q0 68 50 118t118 50t118 -48t50 -120q0 -71 -48 -119.5t-120 -48.5q-68 0 -118 50.5t-50 117.5zM369 455h-58q-24 114 -53 273t-53 304q-17 76 -25 131.5t-8 106.5q0 69 49 116.5t123 47.5q76 0 120 -48.5t44 -128.5q0 -43 -17.5 -138t-31.5 -177l-45 -233
q-13 -64 -24 -122.5t-21 -131.5z" />
    <glyph glyph-name="quotedbl" unicode="&#x22;" horiz-adv-x="700" 
d="M254 1270v-377q0 -43 -19.5 -68.5t-58.5 -25.5q-82 0 -82 94l4 29v348l-4 49q0 115 82 115q78 0 78 -123v-41zM590 1270v-377q0 -43 -19.5 -68.5t-58.5 -25.5q-86 0 -86 86l4 37v348l-4 37q0 127 86 127q78 0 78 -127v-37z" />
    <glyph glyph-name="numbersign" unicode="#" horiz-adv-x="1159" 
d="M1019 590v-152h-213l-65 -438h-156l66 438h-221l-66 -438h-152l66 438h-213v152h238l32 213h-213v151h234l61 406h156l-62 -406h218l61 406h152l-58 -406h189v-151h-213l-33 -213h192zM708 803h-221l-33 -213h221z" />
    <glyph glyph-name="dollar" unicode="$" horiz-adv-x="1159" 
d="M495 74v487q-205 39 -299 115q-119 96 -119 291q0 143 77 240.5t218 140.5q57 16 123 24v164l57 -4l62 4v-164q106 0 196 -25.5t164 -84.5q-27 -60 -41 -99q-22 -55 -33 -106h-28q-27 86 -97.5 143t-160.5 70v-443q208 -43 311 -122q135 -105 135 -295q0 -187 -132 -313
t-314 -126v-221q-33 8 -62 8q-24 0 -37 -2q-14 -6 -20 -6v221q-113 0 -216.5 34t-189.5 101q25 121 49 242h41q27 -106 115 -181t201 -93zM495 864v406q-80 -8 -128 -63.5t-48 -141.5q0 -82 49 -133q41 -43 127 -68zM614 528v-454q61 0 127 59q77 70 77 170q0 96 -77 164
q-62 53 -127 61z" />
    <glyph glyph-name="percent" unicode="%" horiz-adv-x="2052" 
d="M597 -61l713 1482l53 -4l58 4l-713 -1482l-58 4zM1482 -29q-154 0 -243 91.5t-89 244.5q0 148 102.5 244t249.5 96q140 0 240 -85t100 -230q0 -164 -100 -262.5t-260 -98.5zM1490 37q92 0 127 110q21 66 21 185q0 104 -21 160q-33 90 -115 90q-90 0 -124 -103
q-23 -65 -23 -176q0 -113 18 -170q31 -96 117 -96zM536 700q-152 0 -242 90.5t-90 241.5q0 150 102.5 245t253.5 95q138 0 234 -80q106 -88 106 -231q0 -164 -102 -262.5t-262 -98.5zM548 766q90 0 125 108q23 70 23 187q0 98 -23 156q-35 90 -117 90q-90 0 -125 -101
q-22 -65 -22 -178t18 -168q31 -94 121 -94z" />
    <glyph glyph-name="ampersand" unicode="&#x26;" horiz-adv-x="1486" 
d="M750 799l24 -29l295 -360q70 79 135 188q47 76 111 201l110 -115q-129 -190 -282 -356l278 -312v-28q-32 0 -95.5 6t-96.5 6t-98.5 -6t-98.5 -6l-102 147q-84 -72 -206 -122t-228 -50q-91 0 -161.5 22.5t-132 73t-89 114t-27.5 138.5q0 146 117 262q88 89 248 160
q-76 109 -105 164q-47 92 -47 184q0 140 119 232q108 84 254 84q133 0 227 -58q113 -67 113 -192q0 -111 -82 -205q-56 -63 -180 -143zM692 872q60 48 110 124.5t50 142.5q0 65 -38 112t-101 47q-148 0 -148 -151q0 -60 45 -143q23 -41 82 -132zM508 655q-70 -49 -109 -104
q-47 -68 -47 -141q0 -97 66 -177q55 -65 135 -94q22 -10 47 -13t64 -3q49 0 110.5 24.5t97.5 61.5q-81 92 -184 219q-67 84 -180 227z" />
    <glyph glyph-name="quotesingle" unicode="'" horiz-adv-x="589" 
d="M364 1270v-377q0 -43 -19.5 -68.5t-58.5 -25.5q-82 0 -82 94l4 29v348l-4 37q0 127 82 127q78 0 78 -123v-41z" />
    <glyph glyph-name="parenleft" unicode="(" horiz-adv-x="700" 
d="M561 1548l53 -57q-145 -164 -209 -406q-53 -200 -53 -467q0 -251 55 -442q64 -219 207 -389l-57 -53q-217 186 -319.5 402t-102.5 507q0 295 104 510q99 205 322 395z" />
    <glyph glyph-name="parenright" unicode=")" horiz-adv-x="700" 
d="M122 -266l-53 53q145 168 209 408q53 200 53 469q0 251 -55 442q-64 219 -207 389l57 53q217 -190 319.5 -404t102.5 -505q0 -295 -101.5 -505t-324.5 -400z" />
    <glyph glyph-name="asterisk" unicode="*" horiz-adv-x="917" 
d="M180 1262l225 -172l-28 282l77 -4l82 4l-32 -282l225 176q20 -45 36.5 -73t45.5 -71l-262 -110l262 -111l-82 -143l-225 164l32 -279h-159l28 279l-217 -172l-57 102l-33 37l270 123l-270 106q25 33 45.5 68t36.5 76z" />
    <glyph glyph-name="plus" unicode="+" horiz-adv-x="1245" 
d="M532 610v426h176v-426h430v-176h-430v-434h-176v434h-426v176h426z" />
    <glyph glyph-name="comma" unicode="," horiz-adv-x="589" 
d="M45 -365l94 381q12 50 25.5 101t34 99t49 69.5t80.5 21.5q53 0 94 -39t41 -88q0 -39 -17 -65q-79 -119 -174 -254q-118 -166 -178 -250z" />
    <glyph glyph-name="hyphen" unicode="-" horiz-adv-x="700" 
d="M86 348v217h512v-217h-512z" />
    <glyph glyph-name="hyphen" unicode="&#x2010;" horiz-adv-x="700" 
d="M86 348v217h512v-217h-512z" />
    <glyph glyph-name="period" unicode="." horiz-adv-x="589" 
d="M282 -29q-68 0 -116 50.5t-48 117.5q0 68 48 118t116 50q69 0 120.5 -49t51.5 -119q0 -71 -50 -119.5t-122 -48.5z" />
    <glyph glyph-name="slash" unicode="/" horiz-adv-x="811" 
d="M795 1548l-619 -1814q-22 4 -40.5 6t-45.5 2q-20 0 -46 -3t-40 -5l618 1814q21 -4 40.5 -6t46.5 -2q20 0 45.5 3t40.5 5z" />
    <glyph glyph-name="zero" unicode="0" horiz-adv-x="1159" 
d="M577 1372q262 0 383 -207q96 -164 96 -448q0 -252 -39 -379t-113 -215q-127 -152 -336 -152q-131 0 -223 51.5t-155.5 161t-86 228t-22.5 260.5q0 129 23.5 261t74.5 214q133 225 398 225zM384 647q0 -319 29 -430q39 -151 160 -151q104 0 145 157q35 135 35 453
q0 338 -38 472t-138 134q-115 0 -158 -164q-35 -135 -35 -471z" />
    <glyph glyph-name="one" unicode="1" horiz-adv-x="1159" 
d="M455 -12v1159q-117 -64 -242 -123q-27 55 -82 102v17q125 41 220 80t370 174l16 -13v-1396q-24 0 -71.5 6t-71.5 6q-29 0 -67 -4t-72 -8z" />
    <glyph glyph-name="two" unicode="2" horiz-adv-x="1159" 
d="M999 0h-901v90q186 174 260 252q154 164 236 305q102 178 102 340q0 117 -53 199q-64 96 -176 96q-90 0 -148 -102q-49 -88 -49 -189l4 -8l-20 -4q-35 41 -78 78t-82 57q49 131 172 199q109 59 258 59q203 0 328 -84q147 -98 147 -293q0 -135 -78 -250q-28 -45 -84 -102
q-38 -39 -100 -94q-235 -203 -319 -287v-12h262q53 0 159.5 8t159.5 8q-6 -65 -12 -131q6 -67 12 -135z" />
    <glyph glyph-name="three" unicode="3" horiz-adv-x="1159" 
d="M369 651v103l53 -4q121 0 178 84q51 73 51 202q0 97 -35 162q-45 84 -133 84q-96 0 -143 -74q-35 -53 -53 -172h-29l-68 68q-47 47 -71 67q67 111 178 160q92 41 231 41q201 0 313.5 -84t112.5 -227q0 -125 -69 -203q-62 -70 -185 -113l-28 -12l-4 -12q0 -8 24.5 -12
t36.5 -4q139 -43 178 -72q101 -76 101 -248q0 -184 -155 -299t-370 -115q-127 0 -219 33q-110 39 -178 127q31 41 67.5 90t59.5 86l29 -4q14 -106 63 -166q60 -71 162 -71q106 0 176 96q61 86 61 194q0 176 -83 244q-64 51 -191 51h-61z" />
    <glyph glyph-name="four" unicode="4" horiz-adv-x="1159" 
d="M606 332h-537l12 98q0 21 -4 47.5t-8 50.5q53 74 157.5 230.5t170.5 257.5q123 178 151 221q49 74 86 135q31 -4 58.5 -6t68.5 -2q31 0 68 3t59 5v-819h168q-4 -29 -6 -53.5t-2 -57.5q0 -26 2 -55t6 -55h-168v-344q-24 0 -71.5 6t-71.5 6q-29 0 -67 -4t-72 -8v344z
M606 553v594l-390 -582l9 -12h381z" />
    <glyph glyph-name="five" unicode="5" horiz-adv-x="1159" 
d="M241 1360h680q-4 -31 -6 -58.5t-2 -60.5q0 -31 2 -61.5t6 -61.5h-586l-16 -356l12 -4q45 24 96.5 34.5t108.5 10.5q100 0 173 -20.5t142 -77.5q127 -109 127 -283q0 -105 -47 -192t-133 -148q-71 -51 -174.5 -81t-198.5 -30q-100 0 -191 28t-169 87q63 92 102 209h29
q25 -94 74 -154q61 -75 151 -75q133 0 199 106q55 90 55 229q0 121 -69 209q-33 39 -78 62.5t-94 23.5q-50 0 -96 -22.5t-80 -59.5l-50 29z" />
    <glyph glyph-name="six" unicode="6" horiz-adv-x="1159" 
d="M859 1282l-12 -20q-27 12 -72 16t-51 4q-67 0 -126.5 -36t-102.5 -95q-31 -39 -51 -84q-13 -29 -40.5 -138.5t-27.5 -207.5l12 -8q95 106 234 106q180 0 299 -106.5t119 -286.5q0 -201 -139.5 -328t-344.5 -127q-51 0 -114.5 13.5t-102.5 35.5q-96 46 -156 136
q-55 77 -80.5 176.5t-25.5 208.5q0 213 63 395q76 215 224 330q71 53 164.5 79.5t191.5 26.5q27 0 51.5 -1t50.5 -7q5 -18 16 -39.5t21 -42.5zM380 406q0 -138 25 -213q41 -127 147 -127q94 0 146 112q38 88 38 195q0 127 -30 207q-47 120 -154 120q-94 0 -139 -104
q-33 -78 -33 -190z" />
    <glyph glyph-name="seven" unicode="7" horiz-adv-x="1159" 
d="M135 1360h934l16 -37q-202 -342 -364 -653q-189 -361 -324 -682q-67 6 -135 12q-29 0 -63.5 -4t-67.5 -8q190 291 373 583q200 324 315 527l-684 -17q2 25 7 74t5 66q0 28 -4 66t-8 73z" />
    <glyph glyph-name="eight" unicode="8" horiz-adv-x="1159" 
d="M503 688q-66 -31 -96 -135q-23 -78 -23 -172q0 -158 57 -244q48 -71 127 -71q95 0 146 114q39 88 39 197q0 61 -13.5 133t-38 109.5t-61.5 59t-76 21.5q-30 0 -61 -12zM773 758v-17q127 -18 205 -114.5t78 -225.5q0 -196 -137.5 -313t-350.5 -117q-100 0 -186 22.5
t-155.5 75t-107.5 133.5t-38 171q0 133 80 240.5t207 127.5v17q-101 18 -169.5 99t-68.5 183q0 168 139 256q119 76 299 76q101 0 169.5 -14.5t134.5 -59.5q135 -92 135 -241q0 -115 -61.5 -193t-172.5 -106zM413 1020q0 -55 5 -91t26.5 -71t53.5 -57.5t70 -22.5
q88 0 129 94q31 70 31 168q0 103 -29 162q-38 80 -131 80q-90 0 -129 -92q-26 -64 -26 -170z" />
    <glyph glyph-name="nine" unicode="9" horiz-adv-x="1159" 
d="M201 131l12 12q59 -41 84 -53q49 -24 96 -24q178 0 277 190q79 154 79 350v21l-12 4q-47 -49 -111.5 -76t-134.5 -27q-170 0 -282 101q-119 106 -119 276q0 117 28.5 196t106.5 156q62 62 141.5 88.5t178.5 26.5q123 0 222 -40t167 -128q59 -80 86.5 -183t27.5 -214
q0 -160 -34 -301q-41 -162 -119 -278.5t-213 -186.5t-277 -70q-63 0 -118 17q-25 8 -31 10t-12.5 26.5t-20.5 56.5t-22 50zM745 938q0 137 -24 215q-41 129 -148 129q-90 0 -141 -100q-43 -84 -43 -183l4 -24q0 -121 29 -201q45 -127 151 -127q95 0 140 105q32 77 32 186z
" />
    <glyph glyph-name="colon" unicode=":" horiz-adv-x="589" 
d="M286 639q-70 0 -119 49t-49 119q0 67 50 117.5t118 50.5t118 -48t50 -120q0 -68 -48 -118t-120 -50zM286 -29q-70 0 -119 49.5t-49 118.5q0 68 50 118t118 50t118 -48t50 -120q0 -69 -49 -118.5t-119 -49.5z" />
    <glyph glyph-name="semicolon" unicode=";" horiz-adv-x="589" 
d="M147 807q0 67 50.5 117.5t117.5 50.5q68 0 118 -48t50 -120q0 -68 -48 -118t-120 -50q-67 0 -117.5 50t-50.5 118zM45 -365l94 381q12 50 25.5 101t34 99t49 69.5t80.5 21.5q53 0 94 -39t41 -88q0 -39 -17 -65q-79 -119 -174 -254q-118 -166 -178 -250z" />
    <glyph glyph-name="less" unicode="&#x3c;" horiz-adv-x="1245" 
d="M327 524l815 -377v-172l-1040 471v152l1040 471v-172z" />
    <glyph glyph-name="equal" unicode="=" horiz-adv-x="1245" 
d="M1138 811v-176h-1032v176h1032zM1138 410v-177h-1032v177h1032z" />
    <glyph glyph-name="greater" unicode="&#x3e;" horiz-adv-x="1245" 
d="M98 147l815 377l-815 373v172l1044 -471v-152l-1044 -471v172z" />
    <glyph glyph-name="question" unicode="?" horiz-adv-x="917" 
d="M434 -29q-67 0 -117.5 50.5t-50.5 117.5q0 68 50.5 118t117.5 50q68 0 118 -48t50 -120q0 -71 -48 -119.5t-120 -48.5zM631 553l20 -8q-8 -21 -12 -31q-14 -33 -21 -55q-61 -8 -122 -17q-60 0 -114 17.5t-92 51.5t-63.5 82t-25.5 95q0 64 20.5 113t102.5 137l102 111
q45 55 57.5 81.5t12.5 61.5q0 63 -43 99t-109 36q-127 0 -180 -106h-29l-4 135q41 35 115.5 56.5t134.5 21.5q51 0 84 -3.5t67 -13.5q62 -18 100 -37.5t68.5 -55.5t48 -84t17.5 -93q0 -143 -162 -305t-162 -224q0 -40 32 -67t71 -27q20 0 44.5 8.5t41.5 20.5z" />
    <glyph glyph-name="at" unicode="@" horiz-adv-x="1552" 
d="M896 823q0 119 -90 119q-107 0 -182 -162q-64 -137 -64 -260q0 -61 16.5 -92t69.5 -31q78 0 158 113q92 131 92 313zM953 954l21 78h197l-136 -500q-4 -22 -8 -44.5t-4 -24.5q0 -66 45 -66q86 0 168 117q94 135 94 326q0 188 -127 321q-143 150 -385 150
q-262 0 -426 -170t-164 -445q0 -280 171 -445t444 -165q143 0 262 71.5t205 198.5h135q-90 -178 -259 -285.5t-368 -107.5q-305 0 -518 201q-219 207 -219 520t208 531.5t517 218.5q281 0 467 -179q180 -172 180 -411q0 -113 -33.5 -212.5t-105.5 -176.5q-64 -68 -146 -117
q-98 -59 -174 -59q-65 0 -103 51t-44 125q-57 -84 -100 -119q-58 -45 -138 -45q-125 0 -193.5 83t-68.5 216q0 172 129 317.5t297 145.5q62 0 113 -33q39 -25 67 -66z" />
    <glyph glyph-name="A" unicode="A" horiz-adv-x="1376" 
d="M843 418h-479q-41 -117 -57 -166q-60 -170 -86 -260q-19 2 -42.5 5t-52.5 3q-24 0 -53 -3t-45 -5l586 1421q18 -4 37.5 -4h40.5h28h23q18 4 26 4l570 -1425q-41 0 -64 2q-108 10 -112 10q-41 0 -64 -2q-108 -10 -113 -10q-71 250 -143 430zM421 545h373l-180 475z" />
    <glyph glyph-name="B" unicode="B" horiz-adv-x="1269" 
d="M163 0v1397h528q177 0 279 -64q127 -80 127 -248q0 -137 -100 -227q-91 -80 -236 -100v-17q147 -16 240 -79q129 -91 129 -261q0 -198 -156 -307q-135 -94 -340 -94h-471zM470 1278v-483l53 -4q54 0 98 11t83 42q47 39 68.5 94t21.5 119q0 108 -58.5 168.5t-162.5 60.5
q-23 0 -52.5 -3t-50.5 -5zM470 676v-557h103q90 0 161 69q80 78 80 201q0 150 -73.5 218.5t-217.5 68.5h-53z" />
    <glyph glyph-name="C" unicode="C" horiz-adv-x="1376" 
d="M1249 242l25 -13l-45 -176q-89 -47 -192 -68.5t-214 -21.5q-336 0 -549 187q-221 192 -221 505q0 381 240 588q219 191 575 191q105 0 217.5 -28t200.5 -75l-45 -209h-29q-59 84 -151.5 136.5t-188.5 52.5q-235 0 -366 -201q-113 -174 -113 -426q0 -270 128 -434
t359 -164q97 0 196 43t173 113z" />
    <glyph glyph-name="D" unicode="D" horiz-adv-x="1617" 
d="M176 1397h700q308 0 474 -203q145 -178 145 -457q0 -340 -215 -542q-207 -195 -531 -195h-573v1397zM483 1278v-1159h172q234 0 357 131q143 153 143 491q0 279 -127 412q-119 125 -344 125h-201z" />
    <glyph glyph-name="E" unicode="E" horiz-adv-x="1269" 
d="M159 1397h942q-4 -23 -8 -53.5t-4 -36.5l12 -86q-104 10 -261 19t-300 9h-74v-442h328q96 0 145 3t154 17l-16 -90q0 -16 5 -40.5t11 -45.5q-53 4 -147.5 10.5t-151.5 6.5h-328v-521q178 0 349 8.5t286 20.5l-12 -86q0 -18 4 -42.5t8 -47.5h-942v1397z" />
    <glyph glyph-name="F" unicode="F" 
d="M466 668v-680q-24 0 -75.5 6t-75.5 6q-27 0 -78 -6t-78 -6v1409h782q-4 -23 -8 -53.5t-4 -36.5l12 -86q-180 16 -270 22t-205 6v-442h217q107 0 250 20q-4 -22 -8 -53t-4 -37l12 -86q-67 6 -142 11.5t-108 5.5h-217z" />
    <glyph glyph-name="G" unicode="G" horiz-adv-x="1617" 
d="M1450 623v-566q-158 -45 -287 -69.5t-258 -24.5q-350 0 -571 168q-248 188 -248 533q0 368 246 575q229 195 602 195q139 0 259 -30t232 -97q-45 -105 -57 -205h-29q-69 100 -173.5 154.5t-227.5 54.5q-246 0 -385 -199q-127 -180 -127 -457q0 -266 129 -417.5
t362 -151.5q76 0 126.5 14.5t99.5 42.5v480q26 0 77.5 -4.5t77.5 -4.5q25 0 86.5 4.5t65.5 4.5z" />
    <glyph glyph-name="H" unicode="H" horiz-adv-x="1617" 
d="M176 -12v1409q27 0 78 -6.5t78 -6.5q24 0 75.5 6.5t75.5 6.5v-557q55 0 181 -4.5t135 -4.5q51 0 177 4.5t134 4.5v557q27 0 78 -6.5t78 -6.5q24 0 75.5 6.5t75.5 6.5v-1409q-24 0 -75.5 6t-75.5 6q-27 0 -78 -6t-78 -6v688q-51 0 -155.5 6t-155.5 6q-54 0 -158.5 -6
t-157.5 -6v-688q-24 0 -75.5 6t-75.5 6q-27 0 -78 -6t-78 -6z" />
    <glyph glyph-name="I" unicode="I" horiz-adv-x="700" 
d="M188 -12v1409q25 0 76 -6.5t76 -6.5q26 0 77.5 6.5t77.5 6.5v-1409q-26 0 -77.5 6t-77.5 6q-25 0 -76 -6t-76 -6z" />
    <glyph glyph-name="J" unicode="J" horiz-adv-x="700" 
d="M515 1397v-1106q0 -139 -8 -203q-14 -111 -57 -182q-62 -105 -164 -164q-94 -53 -225 -70l-33 99q115 30 154 145q26 80 26 272v1209q25 0 76 -6.5t76 -6.5q26 0 77.5 6.5t77.5 6.5z" />
    <glyph glyph-name="K" unicode="K" horiz-adv-x="1269" 
d="M151 -12v1409q25 0 76 -6.5t76 -6.5q26 0 77.5 6.5t77.5 6.5v-643q129 153 268 319q156 189 265 324q55 -6 110 -13q21 0 49.5 4.5t57.5 8.5v-17l-336 -352l-193 -217l549 -791v-32q-24 0 -75.5 6t-75.5 6q-27 0 -78 -6t-78 -6l-463 655v-655q-26 0 -77.5 6t-77.5 6
q-25 0 -76 -6t-76 -6z" />
    <glyph glyph-name="L" unicode="L" 
d="M470 1397v-1250q133 0 250 9q152 14 221 20l-12 -86q0 -18 4 -42.5t8 -47.5h-778v1397q27 0 78 -6.5t78 -6.5q24 0 75.5 6.5t75.5 6.5z" />
    <glyph glyph-name="M" unicode="M" horiz-adv-x="1835" 
d="M921 434q76 150 154 299q116 228 161 320q80 161 160 344q43 -6 86 -13q19 0 43.5 4.5t46.5 8.5q29 -260 60.5 -536.5t56.5 -462t63 -410.5q-41 0 -79.5 4t-92.5 8q-28 0 -81.5 -6t-81.5 -6q0 200 -31 460.5t-60 497.5q-75 -155 -153 -313q-62 -127 -152 -316
q-96 -204 -149 -317l-45 4l-33 -4q-98 211 -214 447.5t-232 474.5q-21 -148 -42.5 -331t-32.5 -330.5t-11 -272.5q-50 6 -99 12q-20 0 -45.5 -4t-48.5 -8q39 213 72 432q18 123 65 456.5t72 520.5q43 -6 86 -13q43 7 86 13q90 -199 149 -322q68 -143 158 -321z" />
    <glyph glyph-name="N" unicode="N" horiz-adv-x="1617" 
d="M172 -8v1405h205q442 -479 885 -959v959q30 -4 42.5 -6t38.5 -2l82 8v-1409l-176 4q-174 194 -346 389q-147 164 -342 373l-225 233v-995q-31 4 -43 6t-39 2z" />
    <glyph glyph-name="O" unicode="O" horiz-adv-x="1396" 
d="M1347 705q0 -310 -178 -521q-188 -221 -485 -221q-287 0 -457 193.5t-170 539.5q0 316 174 521q184 217 494 217q325 0 491 -246q131 -195 131 -483zM712 1311q-178 0 -275 -168t-97 -508q0 -225 79 -375q93 -174 269 -174q186 0 289 199q92 178 92 456q0 230 -82 385
q-96 185 -275 185z" />
    <glyph glyph-name="P" unicode="P" horiz-adv-x="1159" 
d="M454 606v-618q-24 0 -75.5 6t-75.5 6q-27 0 -78 -6t-78 -6v1409h504q438 0 438 -348q0 -256 -178 -359q-146 -84 -457 -84zM454 1286v-565q74 0 135 12q97 27 144 107q41 69 41 172q0 123 -55.5 198.5t-137.5 75.5h-127z" />
    <glyph glyph-name="Q" unicode="Q" horiz-adv-x="1724" 
d="M860 1311q-240 0 -355 -195q-100 -170 -100 -481q0 -227 98 -375q115 -174 332 -174q211 0 333 180t122 475q0 230 -99 385q-116 185 -331 185zM1044 -193l-221 156q-346 0 -549 191q-209 196 -209 542q0 336 236 541q225 197 571 197q340 0 549 -201t209 -528
q0 -250 -140.5 -438.5t-380.5 -266.5q275 -174 533 -311q-156 -31 -287 -115q-166 133 -311 233z" />
    <glyph glyph-name="R" unicode="R" horiz-adv-x="1269" 
d="M155 -12v1409h479q92 0 166 -8.5t121 -32.5q92 -47 136 -118t44 -177q0 -148 -86 -242t-233 -127q57 -102 129 -217q20 -33 231 -356l82 -131q-45 0 -68 2q-114 10 -120 10q-31 0 -92.5 -6t-92.5 -6l-241 434l-136 225h-12v-659q-26 0 -77.5 6t-77.5 6q-25 0 -76 -6
t-76 -6zM462 1286v-549l49 -4q271 0 271 295q0 23 -1 46.5t-8 55.5q-16 95 -96 132q-55 24 -157 24h-58z" />
    <glyph glyph-name="S" unicode="S" 
d="M827 1130h-28q-33 87 -91.5 134t-146.5 47q-113 0 -169 -55.5t-56 -145.5q0 -111 160 -199q286 -157 301 -170q161 -127 161 -327q0 -197 -151.5 -324t-388.5 -127q-92 0 -177 21.5t-155 68.5q18 66 35.5 134.5t25.5 123.5h37q25 -104 101.5 -164.5t181.5 -60.5
q102 0 168 53q74 60 74 160q0 131 -158 217q-148 78 -293 156q-160 121 -160 332q0 184 119 303q127 127 352 127q105 0 194 -31t130 -68q-19 -49 -37 -109.5t-29 -95.5z" />
    <glyph glyph-name="T" unicode="T" horiz-adv-x="1159" 
d="M728 1249v-1261q-24 0 -75.5 6t-75.5 6q-27 0 -78 -6t-78 -6v1261q-102 0 -198.5 -7t-182.5 -21q4 26 8 54t4 36q0 18 -4 40.5t-8 45.5h1057q-6 -43 -13 -86q0 -21 4.5 -45.5t8.5 -44.5q-105 14 -193 21t-176 7z" />
    <glyph glyph-name="U" unicode="U" horiz-adv-x="1396" 
d="M159 561v836q68 -6 135 -13q68 7 135 13v-582q0 -98 1 -199.5t12 -189.5q20 -100 30 -127q21 -57 68 -106q84 -91 205 -91q127 0 200.5 57.5t122.5 192.5q17 45 25 145.5t8 276.5v623q25 -4 36 -6t34 -2q18 0 39.5 3t33.5 5v-729q0 -230 -24 -330q-39 -164 -168 -264
q-70 -60 -157 -85.5t-187 -25.5q-189 0 -318 72q-157 88 -202 272q-15 62 -22 122t-7 132z" />
    <glyph glyph-name="V" unicode="V" horiz-adv-x="1376" 
d="M761 -12l-86 12q-21 0 -45.5 -4t-44.5 -8q-68 188 -174.5 467.5t-184.5 474.5q-61 155 -190 467q45 0 84 -4t96 -9q31 0 92.5 6.5t87.5 6.5q64 -209 175 -508q94 -254 190 -508q104 252 202.5 512t178.5 504l94 -8q25 0 52.5 3t41.5 5q-98 -234 -196 -465
q-119 -283 -193 -467q-96 -240 -180 -477z" />
    <glyph glyph-name="W" unicode="W" horiz-adv-x="2052" 
d="M48 1335l-16 62q29 0 84 -6.5t84 -6.5q43 0 90 4.5t78 8.5q65 -277 132 -523.5t138 -500.5q43 121 121 338q47 127 123 346t113 340q24 -4 46.5 -6t55.5 -2q25 0 54.5 3t47.5 5q45 -172 115 -385q199 -604 209 -639q88 268 160 506q86 286 143 518q25 -4 47.5 -6t50.5 -2
l95 8q-142 -381 -252 -705q-125 -364 -228 -704q-26 4 -61 8t-41 4q-21 0 -49.5 -4t-52.5 -8q-43 157 -101 340q-65 207 -108 334q-15 38 -119 329q-37 -104 -117 -325q-70 -195 -119 -330q-71 -203 -121 -348q-26 4 -61 8t-41 4q-20 0 -49 -4t-53 -8q-47 186 -125 452
q-66 226 -134.5 449t-138.5 446z" />
    <glyph glyph-name="X" unicode="X" horiz-adv-x="1269" 
d="M1204 1397l-201 -279l-237 -340l28 -45q101 -182 202.5 -364.5t199.5 -380.5q-31 0 -90.5 6t-89.5 6q-41 0 -64 -2q-108 -10 -112 -10q-52 106 -134 264q-92 174 -137 260l-188 -295q-35 -55 -71 -118.5t-56 -106.5q-25 4 -47.5 6t-55.5 2q-24 0 -54 -3t-48 -5
q258 364 442 651l-417 754q30 0 89.5 -6.5t90.5 -6.5t92 6.5t92 6.5q53 -115 156 -310q49 -94 98 -186l307 496q41 -6 56.5 -7t46.5 -1q24 0 54 3t48 5z" />
    <glyph glyph-name="Y" unicode="Y" horiz-adv-x="1376" 
d="M827 623v-635q-27 0 -78 6t-78 6q-25 0 -76 -6t-76 -6v594q-45 71 -161 268q-97 162 -162 272q-80 138 -160 275q49 0 91 -4t102 -9q32 0 97.5 6.5t98.5 6.5q84 -158 184 -365q52 -102 80 -155q37 -70 56 -91q61 72 204 363q70 141 119 248q27 -4 50.5 -6t56.5 -2
q26 0 57 3t49 5q-74 -123 -155 -258q-107 -176 -156 -258q-86 -148 -143 -258z" />
    <glyph glyph-name="Z" unicode="Z" horiz-adv-x="1269" 
d="M1200 0h-1151v37q383 594 725 1184v28q-123 0 -428 -16q-152 -8 -211 -8q2 20 5 40.5t3 45.5q0 35 -2 53q-6 22 -6 33h1069v-37q-111 -168 -246 -391q-151 -250 -237 -400q-115 -200 -230 -401v-21q144 0 281 7q410 18 428 18q-4 -22 -6 -41.5t-2 -44.5q0 -35 2 -53
q6 -23 6 -33z" />
    <glyph glyph-name="bracketleft" unicode="[" horiz-adv-x="700" 
d="M172 -266v1814h430v-114l-225 12v-1610l225 8v-110h-430z" />
    <glyph glyph-name="backslash" unicode="\" horiz-adv-x="1073" 
d="M254 1548l762 -1548q-29 2 -48.5 3t-33.5 1h-25h-46.5t-51.5 -4l-762 1548q27 -4 50.5 -6t51.5 -2q25 0 55.5 3t47.5 5z" />
    <glyph glyph-name="bracketright" unicode="]" horiz-adv-x="700" 
d="M511 1548v-1814h-430v110l225 -8v1610l-225 -12v114h430z" />
    <glyph glyph-name="asciicircum" unicode="^" horiz-adv-x="1245" 
d="M303 569h-197l422 828h184l422 -828h-192l-320 602z" />
    <glyph glyph-name="underscore" unicode="_" 
d="M1024 -328h-1024v78h1024v-78z" />
    <glyph glyph-name="grave" unicode="`" horiz-adv-x="700" 
d="M241 1421l267 -303h-115l-271 164q-34 25 -69 49q-37 33 -37 74q0 39 25.5 64.5t64.5 25.5q45 0 74 -17.5t61 -56.5z" />
    <glyph glyph-name="a" unicode="a" 
d="M606 328v200q-61 -22 -98 -34q-68 -25 -106 -54.5t-52 -69.5t-14 -100q0 -69 25.5 -116.5t88.5 -47.5q84 0 123 72q33 60 33 150zM889 729v-557q0 -102 86 -102l16 4v-45q-43 -21 -95 -39.5t-89 -18.5q-70 0 -123 41t-78 111q-39 -70 -110.5 -111t-151.5 -41
q-133 0 -214 70t-81 201q0 141 90 209q74 55 287 106q47 12 74 21q45 14 73 32q17 15 25 35.5t8 42.5q0 74 -61.5 127t-135.5 53q-88 0 -170 -49q-67 -41 -79 -78h-13l-28 123q69 64 175.5 102t205.5 38q153 0 258 -60q131 -74 131 -215z" />
    <glyph glyph-name="b" unicode="b" horiz-adv-x="1159" 
d="M110 0v1548q25 0 72 -6t71 -6q29 0 67 4t73 8v-708q41 78 112.5 121t161.5 43q191 0 303 -150q103 -137 103 -334q0 -114 -25 -205q-31 -112 -94 -184q-135 -160 -344 -160q-88 0 -162 36t-121 108q-45 -25 -111 -70q-57 -39 -65 -45h-41zM393 479q0 -219 44 -316
t136 -97q94 0 145 113.5t51 307.5q0 156 -24 238q-43 143 -160 143q-119 0 -164 -145q-28 -90 -28 -244z" />
    <glyph glyph-name="c" unicode="c" 
d="M983 909l-78 -213h-49q-10 92 -62 150q-57 63 -147 63q-129 0 -197 -143q-53 -113 -53 -258q0 -195 70 -293q78 -109 241 -109q58 0 117.5 26t95.5 69l33 -29l-49 -123q-39 -37 -122 -57.5t-152 -20.5q-246 0 -387 127q-150 133 -150 373q0 242 147.5 387.5t389.5 145.5
q94 0 189 -24t163 -71z" />
    <glyph glyph-name="d" unicode="d" horiz-adv-x="1159" 
d="M1019 1548v-1560q-67 6 -135 12q-28 0 -65 -4t-70 -8v184q-35 -92 -108.5 -146.5t-174.5 -54.5q-211 0 -313 158q-88 135 -88 358q0 213 94 355q109 162 299 162q99 0 167.5 -35t111.5 -113v692q24 0 71.5 -6t71.5 -6q29 0 67 4t72 8zM565 868q-115 0 -164 -145
q-33 -96 -33 -244q0 -141 27 -229q43 -144 153 -144q115 0 164 150q33 100 33 248q0 137 -29 225q-45 139 -151 139z" />
    <glyph glyph-name="e" unicode="e" 
d="M376 586h303q0 125 -20 200q-33 123 -115 123q-100 0 -141 -121q-27 -77 -27 -202zM962 487h-586l-4 -32q0 -160 66 -248q73 -101 221 -101q63 0 125.5 24t115.5 67l25 -17l-45 -114q-135 -95 -295 -95q-252 0 -382 142.5t-130 398.5q0 219 125 355.5t342 136.5
q215 0 324 -130q98 -116 98 -325v-62z" />
    <glyph glyph-name="f" unicode="f" horiz-adv-x="655" 
d="M172 852h-152v131h152q14 98 34 170q29 100 72 170q59 113 135 167t185 54l102 -8q0 -27 -6 -86t-6 -86l4 -86l-25 -12q-43 22 -92 39.5t-88 17.5q-45 0 -69.5 -4t-45.5 -21l-12 -12q-12 -14 -12 -33q0 -34 34 -131q5 -12 56 -139h209q-4 -18 -6.5 -33.5t-2.5 -31.5
q0 -17 9 -66h-193v-864q-24 0 -71.5 6t-71.5 6q-29 0 -67 -4t-72 -8v864z" />
    <glyph glyph-name="g" unicode="g" 
d="M254 -152q-7 -14 -10 -34.5t-3 -42.5q0 -111 81 -170.5t194 -59.5q110 0 182 70t72 160q0 127 -95 170q-59 26 -208 26q-117 0 -158 -29.5t-55 -89.5zM987 995l-4 -94l-185 8q111 -92 111 -229q0 -168 -125 -256q-113 -80 -309 -80h-29q-45 0 -61 -16q-25 -25 -25 -54
q0 -57 44 -81.5t124 -24.5l176 -8q160 0 234 -74q65 -66 65 -192q0 -211 -168 -330q-147 -105 -372 -105q-156 0 -265 56q-141 71 -141 215q0 80 45 140t123 89l29 21l-13 16q-102 39 -102 151q0 68 51 130.5t109 74.5l32 8q-262 62 -262 328q0 166 121 241t338 75
q35 0 119 -4.5t90 -4.5h250zM356 655q0 -118 39 -180q33 -53 92 -53q98 0 125 143q10 56 10 127q0 92 -20 148q-31 86 -107 86q-86 0 -119 -99q-20 -61 -20 -172z" />
    <glyph glyph-name="h" unicode="h" horiz-adv-x="1159" 
d="M397 1548v-704q57 63 135 108q90 52 168 52q143 0 237 -95q54 -49 70 -109.5t16 -152.5v-659q-26 2 -51 4q-72 8 -88 8q-25 0 -72 -6t-71 -6v512q0 166 -29 237q-39 94 -139 94q-109 0 -152 -112q-28 -76 -28 -211l4 -45v-475q-25 0 -72 6t-72 6q-28 0 -66 -4t-73 -8
v1560q25 -2 74 -7t65 -5q25 0 72 6t72 6z" />
    <glyph glyph-name="i" unicode="i" horiz-adv-x="589" 
d="M142 -12v995q25 0 81.5 -4t62.5 -4q35 0 76 3t63 5v-995q-27 2 -51 4q-72 8 -88 8q-25 0 -72 -6t-72 -6zM122 1360q0 65 47 112.5t113 47.5q65 0 114.5 -47.5t49.5 -112.5q0 -68 -48.5 -116t-115.5 -48q-66 0 -113 49t-47 115z" />
    <glyph glyph-name="j" unicode="j" horiz-adv-x="589" 
d="M430 983v-999q0 -101 -34.5 -170.5t-120.5 -137.5q-58 -47 -126.5 -72.5t-139.5 -25.5l-25 70q102 30 137 110q27 62 27 197v1028q59 -6 78.5 -7t60.5 -1q25 0 82 4t61 4zM283 1196q-66 0 -111 47t-45 113q0 67 44 115.5t112 48.5q74 0 121 -45t47 -119q0 -70 -49 -115
t-119 -45z" />
    <glyph glyph-name="k" unicode="k" 
d="M122 -12v1560q25 -2 74 -7t65 -5q25 0 72 6t72 6v-1003l4 -4l12 4q88 88 197 211q129 149 196 227q21 -4 41.5 -6t48.5 -2q21 0 46.5 3t39.5 5v-12q-51 -66 -127 -142q-211 -213 -217 -219l164 -262q107 -168 201 -340v-20q-25 0 -76 6t-80 6q-24 0 -75.5 -6t-79.5 -6
q-52 100 -115.5 210.5t-122.5 202.5q-16 23 -25 35q-16 23 -32 31v-479q-25 0 -72 6t-72 6q-28 0 -66 -4t-73 -8z" />
    <glyph glyph-name="l" unicode="l" horiz-adv-x="589" 
d="M426 1548v-1560q-27 2 -52 4q-71 8 -88 8q-24 0 -71 -6t-72 -6v1560q25 0 72 -6t71 -6q29 0 67 4t73 8z" />
    <glyph glyph-name="m" unicode="m" horiz-adv-x="1724" 
d="M110 -12v995q59 -6 78.5 -7t60.5 -1q25 0 82.5 4t61.5 4v-152q45 76 127 124.5t172 48.5q100 0 169.5 -47.5t104.5 -141.5q53 86 134 137.5t177 51.5q170 0 248 -97q72 -90 72 -264v-655q-25 0 -72 6t-72 6q-28 0 -66 -4t-73 -8v557q0 172 -38 229t-113 57
q-99 0 -138 -61q-30 -49 -30 -160v-622q-25 0 -72 6t-72 6q-28 0 -66 -4t-73 -8v557q0 172 -38 229t-113 57q-95 0 -136 -77q-32 -62 -32 -164v-602q-25 0 -72 6t-72 6q-28 0 -66 -4t-73 -8z" />
    <glyph glyph-name="n" unicode="n" horiz-adv-x="1159" 
d="M114 -12v995q33 -4 63.5 -6t71.5 -2q33 0 73 3t62 5v-152q68 80 140 123q84 50 176 50q180 0 258 -115q65 -98 65 -299v-602q-26 2 -51 4q-72 8 -88 8q-25 0 -72 -6t-71 -6v512q0 166 -29 237q-39 94 -139 94q-115 0 -154 -135q-22 -78 -22 -233v-475q-25 0 -72 6t-72 6
q-28 0 -66 -4t-73 -8z" />
    <glyph glyph-name="o" unicode="o" 
d="M520 -29q-211 0 -335 134.5t-124 361.5q0 244 123 390.5t340 146.5q213 0 338 -131.5t125 -360.5q0 -240 -124 -390.5t-343 -150.5zM532 909q-106 0 -154 -127q-38 -104 -38 -311q0 -154 28 -252q45 -153 152 -153q100 0 149 153q39 125 39 326q0 164 -39 256
q-45 108 -137 108z" />
    <glyph glyph-name="p" unicode="p" horiz-adv-x="1159" 
d="M577 106q96 9 144 108t48 269q0 185 -39 279q-45 106 -141 106q-115 0 -164 -149q-32 -101 -32 -248q0 -145 26 -227q45 -138 158 -138zM114 -532v1515q33 -4 63.5 -6t75.5 -2q33 0 73 3t62 5v-180q35 94 108 147.5t171 53.5q207 0 313 -152q92 -131 92 -348
q0 -260 -124 -404q-113 -129 -285 -129q-96 0 -166 43q-57 35 -100 105v-651q-27 2 -52 4q-71 8 -88 8q-24 0 -71 -6t-72 -6z" />
    <glyph glyph-name="q" unicode="q" horiz-adv-x="1159" 
d="M757 803v180q33 -4 63.5 -6t75.5 -2q33 0 73 3t62 5v-1515q-24 0 -71 6t-72 6q-29 0 -66.5 -4t-72.5 -8v651q-39 -64 -98 -101q-76 -47 -168 -47q-189 0 -299.5 137.5t-110.5 366.5q0 246 92 381q101 148 297 148q215 0 295 -201zM376 500q0 -37 1 -58.5t7 -85.5
q0 -86 47 -161q56 -89 138 -89q110 0 155 134q29 84 29 227q0 154 -31 250q-47 151 -166 151q-110 0 -153 -139q-27 -84 -27 -229z" />
    <glyph glyph-name="r" unicode="r" horiz-adv-x="811" 
d="M139 -12v995q59 -6 78.5 -7t60.5 -1q25 0 82.5 4t61.5 4v-254q34 129 104 195q84 80 227 80q0 -33 -6 -103t-6 -102l4 -74l-20 -16q-19 12 -47.5 18t-55.5 6q-151 0 -188 -135q-16 -57 -16 -131l4 -107v-372q-25 0 -72 6t-72 6q-28 0 -66 -4t-73 -8z" />
    <glyph glyph-name="s" unicode="s" horiz-adv-x="811" 
d="M94 250h53q29 -80 89 -126t144 -46q56 0 106 36t50 87q0 75 -121 129q-207 92 -227 106q-123 86 -123 240q0 151 101.5 239.5t250.5 88.5q78 0 157 -26t138 -73l-49 -180h-57q-13 68 -70 120t-123 52q-61 0 -106 -29.5t-45 -89.5q0 -73 239.5 -169.5t239.5 -309.5
q0 -143 -106.5 -235.5t-286.5 -92.5q-168 0 -283 86z" />
    <glyph glyph-name="t" unicode="t" horiz-adv-x="700" 
d="M454 852v-582q0 -102 17.5 -145t84.5 -43q19 0 34 3t56 13v-78q-116 -49 -213 -49q-149 0 -211 95q-51 77 -51 237v549h-139q4 25 4 66v24v21q-4 14 -4 20h139v234q131 51 283 126v-360h176q-8 -41 -8 -65q0 -17 8 -66h-176z" />
    <glyph glyph-name="u" unicode="u" horiz-adv-x="1048" 
d="M934 983v-995q-66 6 -131 12q-27 0 -63 -4t-69 -8v151q-67 -73 -98 -98q-86 -70 -201 -70q-79 0 -149 32t-113 95q-30 47 -43.5 112.5t-13.5 137.5l4 70v565l135 -8q25 0 79 4t61 4v-565q0 -92 3 -115.5t17 -52.5q20 -53 53 -80t86 -27q113 0 150 105q22 63 22 203v532
q33 -4 64 -6t71 -2q33 0 73 3t63 5z" />
    <glyph glyph-name="v" unicode="v" 
d="M347 983l230 -709q82 211 131 351q65 184 119 358q22 -4 41.5 -4h40.5h30h25q18 4 26 4q0 -16 -15 -49t-64 -146q-33 -77 -39 -92q-160 -387 -176 -432q-46 -117 -95 -276q-26 4 -61 8t-41 4q-23 0 -51.5 -4t-55.5 -8q-28 84 -115 335.5t-116 327.5q-47 129 -129 332
q27 0 91.5 -4t68.5 -4q26 0 77.5 4t77.5 4z" />
    <glyph glyph-name="w" unicode="w" horiz-adv-x="1617" 
d="M335 983l205 -700q117 344 209 700q49 -4 71.5 -6t42.5 -2q31 0 64 3t51 5l209 -700q57 168 108.5 340t100.5 360q22 -4 41.5 -4h40.5h31h24q19 4 27 4q-84 -211 -178 -479q-103 -291 -166 -516q-56 6 -111 12q-25 0 -54.5 -4t-56.5 -8l-204 680q-52 -154 -109 -334
q-67 -211 -104 -346q-56 6 -111 12q-24 0 -54 -4t-57 -8q-75 262 -152 501.5t-167 493.5q25 0 74 -4t73 -4q27 0 88.5 4t63.5 4z" />
    <glyph glyph-name="x" unicode="x" 
d="M639 -12l-197 360q-76 -115 -113 -172q-55 -86 -112 -184l-82 8q-21 0 -44.5 -3t-37.5 -5l324 454q-76 136 -152 265q-109 180 -164 272q27 0 82 -4t82 -4q29 0 86 4t82 4l176 -319q57 79 109 155q61 92 104 164q25 -4 47.5 -4h46.5h33h29q20 4 28 4q-182 -219 -331 -422
l110 -192q115 -191 230 -381q-29 0 -84.5 6t-83.5 6q-29 0 -84.5 -6t-83.5 -6z" />
    <glyph glyph-name="y" unicode="y" 
d="M192 -532l262 528l-414 987q25 0 86 -4t70 -4q24 0 85.5 4t69.5 4q54 -152 88.5 -245t157.5 -390l78 209q41 107 59 158q47 125 97 268q22 -4 41.5 -4h39.5h33h27q18 4 26 4l-208 -467q-129 -295 -223.5 -524.5t-202.5 -523.5q-23 4 -41.5 6t-44.5 2q-21 0 -46.5 -3
t-39.5 -5z" />
    <glyph glyph-name="z" unicode="z" 
d="M962 983v-78l-180 -254q-146 -209 -182 -262q-107 -156 -179 -270q117 0 234 6q274 14 291 14q-4 -24 -6 -35.5t-2 -33.5l8 -70h-885v86q270 373 537 778q-144 0 -236 -3t-235 -17q6 35 12 69q0 17 -5 38.5t-7 31.5h835z" />
    <glyph glyph-name="braceleft" unicode="{" horiz-adv-x="700" 
d="M237 877v385q0 77 17.5 134.5t72.5 90.5q54 37 118.5 49t148.5 12h37q-111 -30 -150 -85.5t-39 -172.5v-381q0 -116 -39 -176q-45 -69 -166 -98q123 -27 168 -98q37 -60 37 -189v-360q0 -109 42 -169.5t147 -84.5h-54q-188 0 -260 61q-80 70 -80 258v340q0 113 -32 160
q-39 55 -152 82q88 20 139 78q29 35 37 70.5t8 93.5z" />
    <glyph glyph-name="bar" unicode="|" horiz-adv-x="1245" 
d="M532 0v1548h176v-1548h-176z" />
    <glyph glyph-name="braceright" unicode="}" horiz-adv-x="700" 
d="M446 1225v-340q0 -111 36 -162t149 -76q-89 -20 -140 -78q-30 -39 -37.5 -71.5t-7.5 -91.5v-386q0 -79 -14 -126q-21 -66 -77 -103t-114.5 -47t-150.5 -10h-37q111 26 149.5 82.5t38.5 171.5v385q0 116 42 180.5t163 93.5q-123 27 -168 98q-37 60 -37 189v356
q0 111 -38 168q-46 66 -150 90h29q202 0 278 -61q86 -70 86 -262z" />
    <glyph glyph-name="asciitilde" unicode="~" horiz-adv-x="1245" 
d="M1040 717l98 -115q-82 -137 -153 -186q-64 -43 -142 -43q-69 0 -180 47q-47 20 -94 43q-57 22 -82 31q-51 18 -86 18q-68 0 -121 -59q-29 -33 -76 -121l-98 114q76 142 147.5 194t147.5 52q80 0 239.5 -71.5t206.5 -71.5q62 0 115 55q35 37 78 113z" />
    <glyph glyph-name="dieresis" unicode="&#xa8;" horiz-adv-x="1024" 
 />
    <glyph glyph-name="copyright" unicode="&#xa9;" horiz-adv-x="1552" 
d="M766 -37q-295 0 -502 214t-207 519q0 303 207 520.5t502 217.5q299 0 507.5 -215t208.5 -523q0 -303 -208.5 -518t-507.5 -215zM766 1319q-248 0 -417 -181.5t-169 -441.5q0 -256 171 -437t415 -181q249 0 421.5 180t172.5 438q0 260 -171 441.5t-423 181.5zM1028 442
l16 -4l-24 -98q-52 -27 -108 -40t-118 -13q-188 0 -307 106.5t-119 282.5q0 215 131 330q119 104 320 104q55 0 117.5 -14.5t115.5 -42.5q-8 -23 -17 -68t-11 -51h-17q-67 106 -188 106q-131 0 -201 -110q-61 -96 -61 -238q0 -153 69.5 -244.5t200.5 -91.5q51 0 107.5 25
t93.5 61z" />
    <glyph glyph-name="registered" unicode="&#xae;" horiz-adv-x="1552" 
d="M770 -37q-297 0 -505 214t-208 523q0 306 207 520t506 214q295 0 501.5 -214t206.5 -520q0 -307 -206.5 -522t-501.5 -215zM770 1319q-250 0 -420 -180.5t-170 -438.5q0 -260 171 -441t419 -181t416.5 181t168.5 441q0 256 -168.5 437.5t-416.5 181.5zM512 287v823h303
q106 0 165.5 -51t59.5 -146q0 -84 -49 -141t-135 -76q45 -80 100 -168q70 -108 105 -163l45 -78q-19 2 -42.5 5t-52.5 3q-22 0 -36.5 -1t-53.5 -7l-213 385h-37v-385q-20 2 -38.5 5t-43.5 3q-18 0 -31.5 -1t-45.5 -7zM671 1032v-319l33 -4q160 0 160 176q0 94 -41 127
q-27 20 -90 20h-62z" />
    <glyph glyph-name="acute" unicode="&#xb4;" horiz-adv-x="1024" 
 />
    <glyph glyph-name="paragraph" unicode="&#xb6;" horiz-adv-x="1024" 
d="M929 1435v-70h-127v-1365h-82v1365h-166v-1365h-84v738q-174 8 -275.5 102.5t-101.5 245.5q0 157 107.5 253t285.5 96h443z" />
    <glyph glyph-name="onequarter" unicode="&#xbc;" horiz-adv-x="1780" 
 />
    <glyph glyph-name="onehalf" unicode="&#xbd;" horiz-adv-x="1780" 
 />
    <glyph glyph-name="threequarters" unicode="&#xbe;" horiz-adv-x="1780" 
 />
    <glyph glyph-name="Agrave" unicode="&#xc0;" horiz-adv-x="1376" 
d="M843 418h-479q-41 -117 -57 -166q-60 -170 -86 -260q-19 2 -42.5 5t-52.5 3q-24 0 -53 -3t-45 -5l586 1421q18 -4 37.5 -4h40.5h28h23q18 4 26 4l570 -1425q-41 0 -64 2q-108 10 -112 10q-41 0 -64 -2q-108 -10 -113 -10q-71 250 -143 430zM421 545h373l-180 475z
M610 1835l262 -307h-115l-266 168q-55 33 -72 47q-35 33 -35 76q0 36 25 63t65 27q46 0 76 -19q21 -12 60 -55z" />
    <glyph glyph-name="Aacute" unicode="&#xc1;" horiz-adv-x="1376" 
d="M843 418h-479q-41 -117 -57 -166q-60 -170 -86 -260q-19 2 -42.5 5t-52.5 3q-24 0 -53 -3t-45 -5l586 1421q18 -4 37.5 -4h40.5h28h23q18 4 26 4l570 -1425q-41 0 -64 2q-108 10 -112 10q-41 0 -64 -2q-108 -10 -113 -10q-71 250 -143 430zM421 545h373l-180 475z
M794 1890q31 19 76 19q41 0 65.5 -27t24.5 -63q0 -43 -35 -76q-16 -14 -72 -47l-266 -168h-115l262 307q39 43 60 55z" />
    <glyph glyph-name="Acircumflex" unicode="&#xc2;" horiz-adv-x="1376" 
d="M843 418h-479q-41 -117 -57 -166q-60 -170 -86 -260q-19 2 -42.5 5t-52.5 3q-24 0 -53 -3t-45 -5l586 1421q18 -4 37.5 -4h40.5h28h23q18 4 26 4l570 -1425q-41 0 -64 2q-108 10 -112 10q-41 0 -64 -2q-108 -10 -113 -10q-71 250 -143 430zM421 545h373l-180 475z
M585 1868h193l249 -361h-114l-230 205l-233 -205h-111z" />
    <glyph glyph-name="Atilde" unicode="&#xc3;" horiz-adv-x="1376" 
d="M843 418h-479q-41 -117 -57 -166q-60 -170 -86 -260q-19 2 -42.5 5t-52.5 3q-24 0 -53 -3t-45 -5l586 1421q18 -4 37.5 -4h40.5h28h23q18 4 26 4l570 -1425q-41 0 -64 2q-108 10 -112 10q-41 0 -64 -2q-108 -10 -113 -10q-71 250 -143 430zM421 545h373l-180 475z
M939 1827h74q-22 -115 -65 -176q-58 -82 -152 -82q-39 0 -72 12l-61 30.5t-78 37.5q-49 22 -76 22q-41 0 -61.5 -34.5t-20.5 -63.5h-73q0 106 73 188q60 66 144 66q47 0 106 -27q43 -22 62 -31q30 -18 57 -29t49 -11q35 0 60 30q14 19 34 68z" />
    <glyph glyph-name="Egrave" unicode="&#xc8;" horiz-adv-x="1269" 
d="M159 1397h942q-4 -23 -8 -53.5t-4 -36.5l12 -86q-104 10 -261 19t-300 9h-74v-442h328q96 0 145 3t154 17l-16 -90q0 -16 5 -40.5t11 -45.5q-53 4 -147.5 10.5t-151.5 6.5h-328v-521q178 0 349 8.5t286 20.5l-12 -86q0 -18 4 -42.5t8 -47.5h-942v1397zM612 1835l262 -307
h-115l-266 168q-55 33 -72 47q-35 33 -35 76q0 36 24.5 63t65.5 27q45 0 76 -19q21 -12 60 -55z" />
    <glyph glyph-name="Eacute" unicode="&#xc9;" horiz-adv-x="1269" 
d="M159 1397h942q-4 -23 -8 -53.5t-4 -36.5l12 -86q-104 10 -261 19t-300 9h-74v-442h328q96 0 145 3t154 17l-16 -90q0 -16 5 -40.5t11 -45.5q-53 4 -147.5 10.5t-151.5 6.5h-328v-521q178 0 349 8.5t286 20.5l-12 -86q0 -18 4 -42.5t8 -47.5h-942v1397zM708 1890
q31 19 76 19q41 0 65.5 -27t24.5 -63q0 -43 -35 -76q-16 -14 -72 -47l-266 -168h-115l262 307q39 43 60 55z" />
    <glyph glyph-name="Ecircumflex" unicode="&#xca;" horiz-adv-x="1269" 
d="M159 1397h942q-4 -23 -8 -53.5t-4 -36.5l12 -86q-104 10 -261 19t-300 9h-74v-442h328q96 0 145 3t154 17l-16 -90q0 -16 5 -40.5t11 -45.5q-53 4 -147.5 10.5t-151.5 6.5h-328v-521q178 0 349 8.5t286 20.5l-12 -86q0 -18 4 -42.5t8 -47.5h-942v1397zM532 1868h192
l250 -361h-115l-229 205l-233 -205h-111z" />
    <glyph glyph-name="Igrave" unicode="&#xcc;" horiz-adv-x="700" 
d="M188 -12v1409q25 0 76 -6.5t76 -6.5q27 0 78 6.5t78 6.5v-1409q-27 0 -78 6t-78 6q-25 0 -76 -6t-76 -6zM253 1835l262 -307h-114l-267 168q-55 33 -71 47q-35 33 -35 76q0 36 24.5 63t65.5 27q45 0 76 -19q20 -12 59 -55z" />
    <glyph glyph-name="Iacute" unicode="&#xcd;" horiz-adv-x="700" 
d="M188 -12v1409q25 0 76 -6.5t76 -6.5q27 0 78 6.5t78 6.5v-1409q-27 0 -78 6t-78 6q-25 0 -76 -6t-76 -6zM477 1890q30 19 75 19q41 0 65.5 -27t24.5 -63q0 -43 -34 -76q-17 -14 -72 -47l-266 -168h-115l262 307q39 43 60 55z" />
    <glyph glyph-name="Ograve" unicode="&#xd2;" horiz-adv-x="1396" 
d="M1347 705q0 -310 -178 -521q-188 -221 -485 -221q-287 0 -457 193.5t-170 539.5q0 316 174 521q184 217 494 217q325 0 491 -246q131 -195 131 -483zM712 1311q-178 0 -275 -168t-97 -508q0 -225 79 -375q93 -174 269 -174q186 0 289 199q92 178 92 456q0 230 -82 385
q-96 185 -275 185zM612 1835l262 -307h-115l-266 168q-55 33 -71 47q-35 33 -35 76q0 36 24.5 63t65.5 27q45 0 76 -19q20 -12 59 -55z" />
    <glyph glyph-name="Oacute" unicode="&#xd3;" horiz-adv-x="1396" 
d="M1347 705q0 -310 -178 -521q-188 -221 -485 -221q-287 0 -457 193.5t-170 539.5q0 316 174 521q184 217 494 217q325 0 491 -246q131 -195 131 -483zM712 1311q-178 0 -275 -168t-97 -508q0 -225 79 -375q93 -174 269 -174q186 0 289 199q92 178 92 456q0 230 -82 385
q-96 185 -275 185zM896 1890q31 19 76 19q41 0 65.5 -27t24.5 -63q0 -43 -35 -76q-16 -14 -72 -47l-266 -168h-115l263 307q38 43 59 55z" />
    <glyph glyph-name="Ocircumflex" unicode="&#xd4;" horiz-adv-x="1396" 
d="M1347 705q0 -310 -178 -521q-188 -221 -485 -221q-287 0 -457 193.5t-170 539.5q0 316 174 521q184 217 494 217q325 0 491 -246q131 -195 131 -483zM712 1311q-178 0 -275 -168t-97 -508q0 -225 79 -375q93 -174 269 -174q186 0 289 199q92 178 92 456q0 230 -82 385
q-96 185 -275 185zM604 1868h192l250 -361h-115l-229 205l-233 -205h-111z" />
    <glyph glyph-name="Otilde" unicode="&#xd5;" horiz-adv-x="1396" 
d="M1347 705q0 -310 -178 -521q-188 -221 -485 -221q-287 0 -457 193.5t-170 539.5q0 316 174 521q184 217 494 217q325 0 491 -246q131 -195 131 -483zM712 1311q-178 0 -275 -168t-97 -508q0 -225 79 -375q93 -174 269 -174q186 0 289 199q92 178 92 456q0 230 -82 385
q-96 185 -275 185zM958 1827h74q-23 -115 -66 -176q-57 -82 -151 -82q-39 0 -72 12q-8 4 -61.5 30.5t-77.5 37.5q-49 22 -76 22q-41 0 -61.5 -34.5t-20.5 -63.5h-74q0 106 74 188q60 66 143 66q48 0 107 -27q43 -22 61 -31q31 -18 57.5 -29t49.5 -11q35 0 59 30q15 19 35 68
z" />
    <glyph glyph-name="Ugrave" unicode="&#xd9;" horiz-adv-x="1396" 
d="M159 561v836q68 -6 135 -13q68 7 135 13v-582q0 -98 1 -199.5t12 -189.5q20 -100 30 -127q21 -57 68 -106q84 -91 205 -91q127 0 200.5 57.5t122.5 192.5q17 45 25 145.5t8 276.5v623q25 -4 36 -6t34 -2q18 0 39.5 3t33.5 5v-729q0 -230 -24 -330q-39 -164 -168 -264
q-70 -60 -157 -85.5t-187 -25.5q-189 0 -318 72q-157 88 -202 272q-15 62 -22 122t-7 132zM612 1835l262 -307h-115l-266 168q-55 33 -72 47q-35 33 -35 76q0 36 24.5 63t65.5 27q45 0 76 -19q21 -12 60 -55z" />
    <glyph glyph-name="Uacute" unicode="&#xda;" horiz-adv-x="1396" 
d="M159 561v836q68 -6 135 -13q68 7 135 13v-582q0 -98 1 -199.5t12 -189.5q20 -100 30 -127q21 -57 68 -106q84 -91 205 -91q127 0 200.5 57.5t122.5 192.5q17 45 25 145.5t8 276.5v623q25 -4 36 -6t34 -2q18 0 39.5 3t33.5 5v-729q0 -230 -24 -330q-39 -164 -168 -264
q-70 -60 -157 -85.5t-187 -25.5q-189 0 -318 72q-157 88 -202 272q-15 62 -22 122t-7 132zM961 1890q31 19 76 19q41 0 65.5 -27t24.5 -63q0 -43 -35 -76q-16 -14 -72 -47l-266 -168h-115l262 307q39 43 60 55z" />
    <glyph glyph-name="Yacute" unicode="&#xdd;" horiz-adv-x="1376" 
d="M827 623v-635q-27 0 -78 6t-78 6q-25 0 -76 -6t-76 -6v594q-45 71 -161 268q-97 162 -162 272q-80 138 -160 275q49 0 91 -4t102 -9q32 0 97.5 6.5t98.5 6.5q84 -158 184 -365q52 -102 80 -155q37 -70 56 -91q61 72 204 363q70 141 119 248q27 -4 50.5 -6t56.5 -2
q26 0 57 3t49 5q-74 -123 -155 -258q-107 -176 -156 -258q-86 -148 -143 -258zM971 1890q30 19 76 19q40 0 65 -27t25 -63q0 -43 -35 -76q-17 -14 -72 -47l-266 -168h-115l262 307q39 43 60 55z" />
    <glyph glyph-name="agrave" unicode="&#xe0;" 
d="M606 328v200q-61 -22 -98 -34q-68 -25 -106 -54.5t-52 -69.5t-14 -100q0 -69 25.5 -116.5t88.5 -47.5q84 0 123 72q33 60 33 150zM889 729v-557q0 -102 86 -102l16 4v-45q-43 -21 -95 -39.5t-89 -18.5q-70 0 -123 41t-78 111q-39 -70 -110.5 -111t-151.5 -41
q-133 0 -214 70t-81 201q0 141 90 209q74 55 287 106q47 12 74 21q45 14 73 32q17 15 25 35.5t8 42.5q0 74 -61.5 127t-135.5 53q-88 0 -170 -49q-67 -41 -79 -78h-13l-28 123q69 64 175.5 102t205.5 38q153 0 258 -60q131 -74 131 -215zM397 1421l266 -303h-114l-271 164
q-34 25 -69 49q-37 33 -37 74q0 39 25.5 64.5t64.5 25.5q45 0 73.5 -17.5t61.5 -56.5z" />
    <glyph glyph-name="aacute" unicode="&#xe1;" 
d="M606 328v200q-61 -22 -98 -34q-68 -25 -106 -54.5t-52 -69.5t-14 -100q0 -69 25.5 -116.5t88.5 -47.5q84 0 123 72q33 60 33 150zM889 729v-557q0 -102 86 -102l16 4v-45q-43 -21 -95 -39.5t-89 -18.5q-70 0 -123 41t-78 111q-39 -70 -110.5 -111t-151.5 -41
q-133 0 -214 70t-81 201q0 141 90 209q74 55 287 106q47 12 74 21q45 14 73 32q17 15 25 35.5t8 42.5q0 74 -61.5 127t-135.5 53q-88 0 -170 -49q-67 -41 -79 -78h-13l-28 123q69 64 175.5 102t205.5 38q153 0 258 -60q131 -74 131 -215zM626.5 1477.5q28.5 17.5 73.5 17.5
q39 0 64.5 -25.5t25.5 -64.5q0 -41 -36 -74q-35 -24 -70 -49l-270 -164h-115l266 303q33 39 61.5 56.5z" />
    <glyph glyph-name="acircumflex" unicode="&#xe2;" 
d="M606 328v200q-61 -22 -98 -34q-68 -25 -106 -54.5t-52 -69.5t-14 -100q0 -69 25.5 -116.5t88.5 -47.5q84 0 123 72q33 60 33 150zM889 729v-557q0 -102 86 -102l16 4v-45q-43 -21 -95 -39.5t-89 -18.5q-70 0 -123 41t-78 111q-39 -70 -110.5 -111t-151.5 -41
q-133 0 -214 70t-81 201q0 141 90 209q74 55 287 106q47 12 74 21q45 14 73 32q17 15 25 35.5t8 42.5q0 74 -61.5 127t-135.5 53q-88 0 -170 -49q-67 -41 -79 -78h-13l-28 123q69 64 175.5 102t205.5 38q153 0 258 -60q131 -74 131 -215zM424 1458h188l254 -360h-119
l-229 200l-229 -200h-115z" />
    <glyph glyph-name="atilde" unicode="&#xe3;" 
d="M606 328v200q-61 -22 -98 -34q-68 -25 -106 -54.5t-52 -69.5t-14 -100q0 -69 25.5 -116.5t88.5 -47.5q84 0 123 72q33 60 33 150zM889 729v-557q0 -102 86 -102l16 4v-45q-43 -21 -95 -39.5t-89 -18.5q-70 0 -123 41t-78 111q-39 -70 -110.5 -111t-151.5 -41
q-133 0 -214 70t-81 201q0 141 90 209q74 55 287 106q47 12 74 21q45 14 73 32q17 15 25 35.5t8 42.5q0 74 -61.5 127t-135.5 53q-88 0 -170 -49q-67 -41 -79 -78h-13l-28 123q69 64 175.5 102t205.5 38q153 0 258 -60q131 -74 131 -215zM776 1393h74q-23 -115 -66 -176
q-57 -82 -151 -82q-39 0 -72 12q-8 4 -61.5 30.5t-77.5 36.5q-49 23 -76 23q-41 0 -61.5 -35t-20.5 -63h-74q0 106 74 188q59 66 143 66q48 0 107 -27q43 -23 61 -31q31 -18 57.5 -29.5t49.5 -11.5q35 0 59 31q15 18 35 68z" />
    <glyph glyph-name="egrave" unicode="&#xe8;" 
d="M376 586h303q0 125 -20 200q-33 123 -115 123q-100 0 -141 -121q-27 -77 -27 -202zM962 487h-586l-4 -32q0 -160 66 -248q73 -101 221 -101q63 0 125.5 24t115.5 67l25 -17l-45 -114q-135 -95 -295 -95q-252 0 -382 142.5t-130 398.5q0 219 125 355.5t342 136.5
q215 0 324 -130q98 -116 98 -325v-62zM396 1421l267 -303h-115l-270 164q-35 25 -70 49q-37 33 -37 74q0 39 25.5 64.5t64.5 25.5q45 0 74 -17.5t61 -56.5z" />
    <glyph glyph-name="eacute" unicode="&#xe9;" 
d="M376 586h303q0 125 -20 200q-33 123 -115 123q-100 0 -141 -121q-27 -77 -27 -202zM962 487h-586l-4 -32q0 -160 66 -248q73 -101 221 -101q63 0 125.5 24t115.5 67l25 -17l-45 -114q-135 -95 -295 -95q-252 0 -382 142.5t-130 398.5q0 219 125 355.5t342 136.5
q215 0 324 -130q98 -116 98 -325v-62zM732 1477.5q29 17.5 74 17.5q38 0 64 -25.5t26 -64.5q0 -41 -37 -74q-35 -24 -70 -49l-270 -164h-115l266 303q33 39 62 56.5z" />
    <glyph glyph-name="ecircumflex" unicode="&#xea;" 
d="M376 586h303q0 125 -20 200q-33 123 -115 123q-100 0 -141 -121q-27 -77 -27 -202zM962 487h-586l-4 -32q0 -160 66 -248q73 -101 221 -101q63 0 125.5 24t115.5 67l25 -17l-45 -114q-135 -95 -295 -95q-252 0 -382 142.5t-130 398.5q0 219 125 355.5t342 136.5
q215 0 324 -130q98 -116 98 -325v-62zM441 1458h189l254 -360h-119l-230 200l-229 -200h-115z" />
    <glyph glyph-name="igrave" unicode="&#xec;" horiz-adv-x="589" 
d="M143 -12v995q25 0 81 -4t63 -4q34 0 75 3t64 5v-995q-27 2 -51 4q-72 8 -88 8q-25 0 -72 -6t-72 -6zM229 1421l262 -303h-114l-267 164q-73 49 -83 61q-23 27 -23 62q0 41 24.5 65.5t65.5 24.5q45 0 76 -18q20 -13 59 -56z" />
    <glyph glyph-name="iacute" unicode="&#xed;" horiz-adv-x="589" 
d="M142 -12v995q25 0 81.5 -4t62.5 -4q35 0 76 3t63 5v-995q-27 2 -51 4q-72 8 -88 8q-25 0 -72 -6t-72 -6zM81 1118l266 303q62 74 135 74q37 0 64 -24.5t27 -65.5q0 -33 -21 -57q-6 -9 -86 -66l-270 -164h-115z" />
    <glyph glyph-name="ograve" unicode="&#xf2;" 
d="M520 -29q-211 0 -335 134.5t-124 361.5q0 244 123 390.5t340 146.5q213 0 338 -131.5t125 -360.5q0 -240 -124 -390.5t-343 -150.5zM532 909q-106 0 -154 -127q-38 -104 -38 -311q0 -154 28 -252q45 -153 152 -153q100 0 149 153q39 125 39 326q0 164 -39 256
q-45 108 -137 108zM397 1421l266 -303h-115l-270 164q-35 25 -70 49q-37 33 -37 74q0 39 26 64.5t65 25.5q45 0 73.5 -17.5t61.5 -56.5z" />
    <glyph glyph-name="oacute" unicode="&#xf3;" 
d="M520 -29q-211 0 -335 134.5t-124 361.5q0 244 123 390.5t340 146.5q213 0 338 -131.5t125 -360.5q0 -240 -124 -390.5t-343 -150.5zM532 909q-106 0 -154 -127q-38 -104 -38 -311q0 -154 28 -252q45 -153 152 -153q100 0 149 153q39 125 39 326q0 164 -39 256
q-45 108 -137 108zM751 1477.5q29 17.5 74 17.5q39 0 64.5 -25.5t25.5 -64.5q0 -41 -37 -74q-35 -24 -70 -49l-270 -164h-115l267 303q32 39 61 56.5z" />
    <glyph glyph-name="ocircumflex" unicode="&#xf4;" 
d="M520 -29q-211 0 -335 134.5t-124 361.5q0 244 123 390.5t340 146.5q213 0 338 -131.5t125 -360.5q0 -240 -124 -390.5t-343 -150.5zM532 909q-106 0 -154 -127q-38 -104 -38 -311q0 -154 28 -252q45 -153 152 -153q100 0 149 153q39 125 39 326q0 164 -39 256
q-45 108 -137 108zM428 1458h188l254 -360h-119l-229 200l-230 -200h-114z" />
    <glyph glyph-name="otilde" unicode="&#xf5;" 
d="M520 -29q-211 0 -335 134.5t-124 361.5q0 244 123 390.5t340 146.5q213 0 338 -131.5t125 -360.5q0 -240 -124 -390.5t-343 -150.5zM532 909q-106 0 -154 -127q-38 -104 -38 -311q0 -154 28 -252q45 -153 152 -153q100 0 149 153q39 125 39 326q0 164 -39 256
q-45 108 -137 108zM780 1393h74q-23 -115 -66 -176q-57 -82 -152 -82q-38 0 -71 12q-8 4 -61.5 30.5t-77.5 36.5q-50 23 -76 23q-41 0 -61.5 -35t-20.5 -63h-74q0 106 74 188q59 66 143 66q47 0 107 -27q43 -23 61 -31q31 -18 57.5 -29.5t49.5 -11.5q34 0 59 31q14 18 35 68
z" />
    <glyph glyph-name="divide" unicode="&#xf7;" horiz-adv-x="1706" 
 />
    <glyph glyph-name="glyph216" unicode="&#xf9;" horiz-adv-x="1048" 
d="M934 983v-995q-66 6 -131 12q-27 0 -63 -4t-69 -8v151q-67 -73 -98 -98q-86 -70 -201 -70q-79 0 -149 32t-113 95q-30 47 -43.5 112.5t-13.5 137.5l4 70v565l135 -8q25 0 79 4t61 4v-565q0 -92 3 -115.5t17 -52.5q20 -53 53 -80t86 -27q113 0 150 105q22 63 22 203v532
q33 -4 64 -6t71 -2q33 0 73 3t63 5zM397 1421l266 -303h-115l-270 164q-35 25 -70 49q-36 33 -36 74q0 39 25.5 64.5t64.5 25.5q45 0 73.5 -17.5t61.5 -56.5z" />
    <glyph glyph-name="glyph217" unicode="&#xfa;" horiz-adv-x="1048" 
d="M934 983v-995q-66 6 -131 12q-27 0 -63 -4t-69 -8v151q-67 -73 -98 -98q-86 -70 -201 -70q-79 0 -149 32t-113 95q-30 47 -43.5 112.5t-13.5 137.5l4 70v565l135 -8q25 0 79 4t61 4v-565q0 -92 3 -115.5t17 -52.5q20 -53 53 -80t86 -27q113 0 150 105q22 63 22 203v532
q33 -4 64 -6t71 -2q33 0 73 3t63 5zM722.5 1477.5q28.5 17.5 73.5 17.5q39 0 64.5 -25.5t25.5 -64.5q0 -41 -37 -74q-35 -24 -69 -49l-271 -164h-114l266 303q33 39 61.5 56.5z" />
    <glyph glyph-name="glyph234" unicode="&#xfd;" 
d="M192 -532l262 528l-414 987q25 0 86 -4t70 -4q24 0 85.5 4t69.5 4q54 -152 88.5 -245t157.5 -390l78 209q41 107 59 158q47 125 97 268q22 -4 41.5 -4h39.5h33h27q18 4 26 4l-208 -467q-129 -295 -223.5 -524.5t-202.5 -523.5q-23 4 -41.5 6t-44.5 2q-21 0 -46.5 -3
t-39.5 -5zM721.5 1477.5q28.5 17.5 73.5 17.5q39 0 64.5 -25.5t25.5 -64.5q0 -41 -36 -74q-35 -24 -70 -49l-270 -164h-115l266 303q33 39 61.5 56.5z" />
    <glyph glyph-name="Abreve" unicode="&#x102;" horiz-adv-x="1376" 
d="M843 418h-479q-41 -117 -57 -166q-60 -170 -86 -260q-19 2 -42.5 5t-52.5 3q-24 0 -53 -3t-45 -5l586 1421q18 -4 37.5 -4h40.5h28h23q18 4 26 4l570 -1425q-41 0 -64 2q-108 10 -112 10q-41 0 -64 -2q-108 -10 -113 -10q-71 250 -143 430zM421 545h373l-180 475z
M986 1761q-22 -116 -99 -185t-200 -69q-129 0 -208.5 67.5t-98.5 186.5h107q26 -53 76.5 -75.5t123.5 -22.5q70 0 117 23.5t72 74.5h110z" />
    <glyph glyph-name="abreve" unicode="&#x103;" 
d="M606 328v200q-61 -22 -98 -34q-68 -25 -106 -54.5t-52 -69.5t-14 -100q0 -69 25.5 -116.5t88.5 -47.5q84 0 123 72q33 60 33 150zM889 729v-557q0 -102 86 -102l16 4v-45q-43 -21 -95 -39.5t-89 -18.5q-70 0 -123 41t-78 111q-39 -70 -110.5 -111t-151.5 -41
q-133 0 -214 70t-81 201q0 141 90 209q74 55 287 106q47 12 74 21q45 14 73 32q17 15 25 35.5t8 42.5q0 74 -61.5 127t-135.5 53q-88 0 -170 -49q-67 -41 -79 -78h-13l-28 123q69 64 175.5 102t205.5 38q153 0 258 -60q131 -74 131 -215zM823 1331q-22 -117 -99 -185.5
t-200 -68.5q-129 0 -209 67.5t-98 186.5h106q27 -53 77 -75.5t124 -22.5q70 0 117 23.5t72 74.5h110z" />
    <glyph glyph-name="Ccaron" unicode="&#x10c;" horiz-adv-x="1274" 
 />
    <glyph glyph-name="ccaron" unicode="&#x10d;" horiz-adv-x="922" 
 />
    <glyph glyph-name="Dslash" unicode="&#x110;" horiz-adv-x="1617" 
d="M163 647v139h82v611h631q307 0 473 -203q145 -178 145 -457q0 -340 -215 -542q-207 -195 -530 -195h-504v647h-82zM552 1278v-492h287v-139h-287v-528h103q233 0 356 131q143 153 143 491q0 279 -127 412q-119 125 -344 125h-131z" />
    <glyph glyph-name="dcroat" unicode="&#x111;" horiz-adv-x="1159" 
d="M1019 1221v-1233q-67 6 -135 12q-28 0 -65 -4t-70 -8v184q-35 -92 -108.5 -146.5t-174.5 -54.5q-211 0 -313 158q-88 135 -88 358q0 213 94 355q109 162 299 162q99 0 167.5 -35t111.5 -113v365h-209v139h209v188q24 0 71.5 -6t71.5 -6q29 0 67 4t72 8v-188h66v-139h-66z
M565 868q-115 0 -164 -145q-33 -96 -33 -244q0 -141 27 -229q43 -144 153 -144q115 0 164 150q33 100 33 248q0 137 -29 225q-45 139 -151 139z" />
    <glyph glyph-name="Itilde" unicode="&#x128;" horiz-adv-x="700" 
d="M189 -12v1409q24 0 75.5 -6.5t75.5 -6.5q27 0 78 6.5t78 6.5v-1409q-27 0 -78 6t-78 6q-24 0 -75.5 -6t-75.5 -6zM610 1827h73q-22 -115 -65 -176q-57 -82 -152 -82q-39 0 -71 12q-9 4 -62 30.5t-78 37.5q-49 22 -75 22q-41 0 -61.5 -34.5t-20.5 -63.5h-74q0 106 74 188
q59 66 143 66q47 0 107 -27q43 -22 61 -31q31 -18 57.5 -29t49.5 -11q34 0 59 30q14 19 35 68z" />
    <glyph glyph-name="itilde" unicode="&#x129;" horiz-adv-x="589" 
d="M144 -12v995q25 0 81.5 -4t62.5 -4q34 0 75 3t64 5v-995q-27 2 -51 4q-72 8 -88 8q-25 0 -72 -6t-72 -6zM546 1417h73q-22 -114 -65 -176q-57 -82 -152 -82q-39 0 -71 12q-9 5 -62 31.5t-78 36.5q-49 23 -75 23q-41 0 -61.5 -35t-20.5 -64h-74q0 107 74 189q59 65 143 65
q47 0 107 -26q43 -23 61 -31q31 -19 57.5 -30t49.5 -11q34 0 59 31q14 18 35 67z" />
    <glyph glyph-name="Utilde" unicode="&#x168;" horiz-adv-x="1396" 
d="M159 561v836q68 -6 135 -13q68 7 135 13v-582q0 -98 1 -199.5t12 -189.5q20 -100 30 -127q21 -57 68 -106q84 -91 205 -91q127 0 200.5 57.5t122.5 192.5q17 45 25 145.5t8 276.5v623q25 -4 36 -6t34 -2q18 0 39.5 3t33.5 5v-729q0 -230 -24 -330q-39 -164 -168 -264
q-70 -60 -157 -85.5t-187 -25.5q-189 0 -318 72q-157 88 -202 272q-15 62 -22 122t-7 132zM1026 1827h73q-22 -115 -65 -176q-57 -82 -152 -82q-39 0 -71 12q-9 4 -62 30.5t-78 37.5q-49 22 -75 22q-41 0 -61.5 -34.5t-20.5 -63.5h-74q0 106 74 188q59 66 143 66
q47 0 107 -27q43 -22 61 -31q31 -18 57.5 -29t49.5 -11q34 0 59 30q14 19 35 68z" />
    <glyph glyph-name="utilde" unicode="&#x169;" horiz-adv-x="1048" 
d="M934 983v-995q-66 6 -131 12q-27 0 -63 -4t-69 -8v151q-67 -73 -98 -98q-86 -70 -201 -70q-79 0 -149 32t-113 95q-30 47 -43.5 112.5t-13.5 137.5l4 70v565l135 -8q25 0 79 4t61 4v-565q0 -92 3 -115.5t17 -52.5q20 -53 53 -80t86 -27q113 0 150 105q22 63 22 203v532
q33 -4 64 -6t71 -2q33 0 73 3t63 5zM780 1393h74q-23 -115 -66 -176q-57 -82 -151 -82q-39 0 -72 12q-8 4 -61.5 30.5t-77.5 36.5q-49 23 -76 23q-41 0 -61.5 -35t-20.5 -63h-74q0 106 74 188q59 66 143 66q48 0 107 -27q43 -23 61 -31q31 -18 57.5 -29.5t49.5 -11.5
q35 0 59 31q15 18 35 68z" />
    <glyph glyph-name="Ohorn" unicode="&#x1a0;" horiz-adv-x="1396" 
d="M1151 1262q36 0 82 45q16 24 16 65q0 27 -5 51.5t-13.5 37t-39 14.5t-32.5 8v123q24 -4 35.5 -6.5t33.5 -2.5q25 0 71 4.5t56 4.5h62l-4 -33v-86q0 -57 -15.5 -116.5t-45 -95.5t-56.5 -52q-43 -27 -96 -27q74 -109 110.5 -234.5t36.5 -256.5q0 -310 -178 -521
q-188 -221 -485 -221q-287 0 -457 193.5t-170 539.5q0 316 174 521q184 217 494 217q139 0 244.5 -45.5t181.5 -126.5zM712 1311q-178 0 -275 -168t-97 -508q0 -225 79 -375q93 -174 269 -174q186 0 289 199q92 178 92 456q0 230 -82 385q-96 185 -275 185z" />
    <glyph glyph-name="ohorn" unicode="&#x1a1;" 
d="M831 889q27 0 50.5 9t40 32.5t16.5 48.5q0 37 -17 53q-6 10 -36.5 12.5t-32.5 8.5v123q40 -9 65 -9q18 0 45 4.5t49 4.5h58l-4 -29v-94q0 -64 -11.5 -94.5t-38.5 -61.5q-43 -49 -45 -51q-24 -23 -73 -23q90 -129 90 -311q0 -240 -124 -390.5t-343 -150.5
q-211 0 -335 134.5t-124 361.5q0 244 123 390.5t340 146.5q186 0 307 -115zM532 909q-106 0 -154 -127q-38 -104 -38 -311q0 -154 28 -252q45 -153 152 -153q100 0 149 153q39 125 39 326q0 164 -39 256q-45 108 -137 108z" />
    <glyph glyph-name="Uhorn" unicode="&#x1af;" horiz-adv-x="1396" 
d="M1244 1368h25q25 0 45 21q16 24 16 65q0 19 -20 45q-6 10 -37 12t-33 9v122q25 -4 36 -6t34 -2t45.5 4t48.5 4h62l-4 -32v-86q0 -58 -9.5 -93.5t-44.5 -74.5q-12 -15 -30 -39q-5 -4 -31 -19q-8 -4 -50 -10t-53 -6v-614q0 -230 -24 -330q-39 -164 -168 -264
q-70 -60 -157 -85.5t-187 -25.5q-189 0 -318 72q-157 88 -202 272q-15 62 -22 122t-7 132v836q68 -6 135 -13q68 7 135 13v-582q0 -98 1 -199.5t12 -189.5q20 -100 30 -127q21 -57 68 -106q84 -91 205 -91q127 0 200.5 57.5t122.5 192.5q17 45 25 145.5t8 276.5v623
q25 -4 36 -6t34 -2q18 0 39.5 3t33.5 5v-29z" />
    <glyph glyph-name="uhorn" unicode="&#x1b0;" horiz-adv-x="1048" 
d="M934 950q32 6 41.5 8.5t25 24t15.5 57.5q0 41 -13 54q-6 10 -36.5 12t-32.5 8v123q41 -8 65 -8l90 4h58l-4 -29v-94q0 -45 -13.5 -85t-48.5 -83q-27 -33 -56.5 -45t-90.5 -12v-897q-66 6 -131 12q-27 0 -63 -4t-69 -8v151q-67 -73 -98 -98q-86 -70 -201 -70
q-79 0 -149 32t-113 95q-30 47 -43.5 112.5t-13.5 137.5l4 70v565l135 -8q25 0 79 4t61 4v-565q0 -92 3 -115.5t17 -52.5q20 -53 53 -80t86 -27q113 0 150 105q22 63 22 203v532q33 -4 64 -6t71 -2q33 0 73 3t63 5v-33z" />
    <glyph glyph-name="uni1EA0" unicode="&#x1ea0;" horiz-adv-x="1376" 
d="M843 418h-479q-41 -117 -57 -166q-60 -170 -86 -260q-19 2 -42.5 5t-52.5 3q-24 0 -53 -3t-45 -5l586 1421q18 -4 37.5 -4h40.5h28h23q18 4 26 4l570 -1425q-41 0 -64 2q-108 10 -112 10q-41 0 -64 -2q-108 -10 -113 -10q-71 250 -143 430zM421 545h373l-180 475z
M448 -279q0 66 47 113t113 47q65 0 114 -47t49 -113q0 -67 -48 -115t-115 -48q-66 0 -113 49t-47 114z" />
    <glyph glyph-name="uni1EA1" unicode="&#x1ea1;" 
d="M606 328v200q-61 -22 -98 -34q-68 -25 -106 -54.5t-52 -69.5t-14 -100q0 -69 25.5 -116.5t88.5 -47.5q84 0 123 72q33 60 33 150zM889 729v-557q0 -102 86 -102l16 4v-45q-43 -21 -95 -39.5t-89 -18.5q-70 0 -123 41t-78 111q-39 -70 -110.5 -111t-151.5 -41
q-133 0 -214 70t-81 201q0 141 90 209q74 55 287 106q47 12 74 21q45 14 73 32q17 15 25 35.5t8 42.5q0 74 -61.5 127t-135.5 53q-88 0 -170 -49q-67 -41 -79 -78h-13l-28 123q69 64 175.5 102t205.5 38q153 0 258 -60q131 -74 131 -215zM358 -279q0 66 47 113t113 47
t115 -47t49 -113q0 -67 -48 -115t-116 -48q-66 0 -113 49t-47 114z" />
    <glyph glyph-name="uni1EA2" unicode="&#x1ea2;" horiz-adv-x="1376" 
d="M843 418h-479q-41 -117 -57 -166q-60 -170 -86 -260q-19 2 -42.5 5t-52.5 3q-24 0 -53 -3t-45 -5l586 1421q18 -4 37.5 -4h40.5h28h23q18 4 26 4l570 -1425q-41 0 -64 2q-108 10 -112 10q-41 0 -64 -2q-108 -10 -113 -10q-71 250 -143 430zM421 545h373l-180 475z
M926 1890l2 -18l-2 -43q0 -41 -59 -96q-43 -41 -107 -78q-39 -19 -55 -41q-14 -27 -19 -35l-8 -35v-28h-51v83q0 29 94 144q45 55 45 115q0 24 -16 61t-39 49q-25 19 -74 19q-8 0 -29.5 -17.5t-27.5 -23.5q25 -19 36 -33.5t11 -36.5q0 -37 -31.5 -64.5t-70.5 -27.5
q-37 0 -61.5 26.5t-24.5 65.5l4 22q24 52 69 87q70 53 174 53q113 0 179 -53q45 -37 61 -95z" />
    <glyph glyph-name="uni1EA3" unicode="&#x1ea3;" 
d="M606 328v200q-61 -22 -98 -34q-68 -25 -106 -54.5t-52 -69.5t-14 -100q0 -69 25.5 -116.5t88.5 -47.5q84 0 123 72q33 60 33 150zM889 729v-557q0 -102 86 -102l16 4v-45q-43 -21 -95 -39.5t-89 -18.5q-70 0 -123 41t-78 111q-39 -70 -110.5 -111t-151.5 -41
q-133 0 -214 70t-81 201q0 141 90 209q74 55 287 106q47 12 74 21q45 14 73 32q17 15 25 35.5t8 42.5q0 74 -61.5 127t-135.5 53q-88 0 -170 -49q-67 -41 -79 -78h-13l-28 123q69 64 175.5 102t205.5 38q153 0 258 -60q131 -74 131 -215zM763 1464l2 -18l-2 -43
q0 -41 -60 -96q-43 -41 -106 -78q-39 -19 -55 -41q-15 -27 -19 -35l-8 -35v-28h-51v84q0 28 94 143q45 55 45 115q0 24 -16.5 61t-38.5 49q-25 19 -74 19q-8 0 -29.5 -17.5t-27.5 -23.5q24 -19 35.5 -33t11.5 -37q0 -37 -32 -64.5t-71 -27.5q-37 0 -61.5 26.5t-24.5 65.5
l4 23q25 51 70 86q70 53 174 53q113 0 178 -53q45 -37 62 -95z" />
    <glyph glyph-name="uni1EA4" unicode="&#x1ea4;" horiz-adv-x="1376" 
d="M843 418h-479q-41 -117 -57 -166q-60 -170 -86 -260q-19 2 -42.5 5t-52.5 3q-24 0 -53 -3t-45 -5l586 1421q18 -4 37.5 -4h40.5h28h23q18 4 26 4l570 -1425q-41 0 -64 2q-108 10 -112 10q-41 0 -64 -2q-108 -10 -113 -10q-71 250 -143 430zM421 545h373l-180 475z
M585 1868h193l249 -361h-114l-230 205l-233 -205h-111zM1200 2210q31 19 76 19q41 0 65.5 -27t24.5 -63q0 -43 -35 -76q-16 -14 -72 -47l-266 -168h-115l262 307q39 43 60 55z" />
    <glyph glyph-name="uni1EA5" unicode="&#x1ea5;" 
d="M606 328v200q-61 -22 -98 -34q-68 -25 -106 -54.5t-52 -69.5t-14 -100q0 -69 25.5 -116.5t88.5 -47.5q84 0 123 72q33 60 33 150zM889 729v-557q0 -102 86 -102l16 4v-45q-43 -21 -95 -39.5t-89 -18.5q-70 0 -123 41t-78 111q-39 -70 -110.5 -111t-151.5 -41
q-133 0 -214 70t-81 201q0 141 90 209q74 55 287 106q47 12 74 21q45 14 73 32q17 15 25 35.5t8 42.5q0 74 -61.5 127t-135.5 53q-88 0 -170 -49q-67 -41 -79 -78h-13l-28 123q69 64 175.5 102t205.5 38q153 0 258 -60q131 -74 131 -215zM424 1458h188l254 -360h-119
l-229 200l-229 -200h-115zM1082.5 1749.5q28.5 17.5 73.5 17.5q39 0 64.5 -25.5t25.5 -64.5q0 -41 -37 -74q-35 -24 -69 -49l-271 -164h-114l266 303q33 39 61.5 56.5z" />
    <glyph glyph-name="uni1EA6" unicode="&#x1ea6;" horiz-adv-x="1376" 
d="M843 418h-479q-41 -117 -57 -166q-60 -170 -86 -260q-19 2 -42.5 5t-52.5 3q-24 0 -53 -3t-45 -5l586 1421q18 -4 37.5 -4h40.5h28h23q18 4 26 4l570 -1425q-41 0 -64 2q-108 10 -112 10q-41 0 -64 -2q-108 -10 -113 -10q-71 250 -143 430zM421 545h373l-180 475z
M585 1868h193l249 -361h-114l-230 205l-233 -205h-111zM842 2155l262 -307h-115l-266 168q-55 33 -72 47q-35 33 -35 76q0 36 25 63t65 27q46 0 76 -19q21 -12 60 -55z" />
    <glyph glyph-name="uni1EA7" unicode="&#x1ea7;" 
d="M606 328v200q-61 -22 -98 -34q-68 -25 -106 -54.5t-52 -69.5t-14 -100q0 -69 25.5 -116.5t88.5 -47.5q84 0 123 72q33 60 33 150zM889 729v-557q0 -102 86 -102l16 4v-45q-43 -21 -95 -39.5t-89 -18.5q-70 0 -123 41t-78 111q-39 -70 -110.5 -111t-151.5 -41
q-133 0 -214 70t-81 201q0 141 90 209q74 55 287 106q47 12 74 21q45 14 73 32q17 15 25 35.5t8 42.5q0 74 -61.5 127t-135.5 53q-88 0 -170 -49q-67 -41 -79 -78h-13l-28 123q69 64 175.5 102t205.5 38q153 0 258 -60q131 -74 131 -215zM424 1458h188l254 -360h-119
l-229 200l-229 -200h-115zM727 1761l266 -303h-115l-270 164q-35 25 -70 49q-36 33 -36 74q0 39 25.5 64.5t64.5 25.5q45 0 73.5 -17.5t61.5 -56.5z" />
    <glyph glyph-name="uni1EA8" unicode="&#x1ea8;" horiz-adv-x="1376" 
d="M843 418h-479q-41 -117 -57 -166q-60 -170 -86 -260q-19 2 -42.5 5t-52.5 3q-24 0 -53 -3t-45 -5l586 1421q18 -4 37.5 -4h40.5h28h23q18 4 26 4l570 -1425q-41 0 -64 2q-108 10 -112 10q-41 0 -64 -2q-108 -10 -113 -10q-71 250 -143 430zM421 545h373l-180 475z
M585 1868h193l249 -361h-114l-230 205l-233 -205h-111zM1238 2074l2 -18l-2 -43q0 -41 -59 -96q-43 -41 -107 -78q-39 -19 -55 -41q-14 -27 -19 -35l-8 -35v-28h-51v83q0 29 94 144q45 55 45 115q0 24 -16 61t-39 49q-25 19 -74 19q-8 0 -29.5 -17.5t-27.5 -23.5
q25 -19 36 -33.5t11 -36.5q0 -37 -31.5 -64.5t-70.5 -27.5q-37 0 -61.5 26.5t-24.5 65.5l4 22q24 52 69 87q70 53 174 53q113 0 179 -53q45 -37 61 -95z" />
    <glyph glyph-name="uni1EA9" unicode="&#x1ea9;" 
d="M606 328v200q-61 -22 -98 -34q-68 -25 -106 -54.5t-52 -69.5t-14 -100q0 -69 25.5 -116.5t88.5 -47.5q84 0 123 72q33 60 33 150zM889 729v-557q0 -102 86 -102l16 4v-45q-43 -21 -95 -39.5t-89 -18.5q-70 0 -123 41t-78 111q-39 -70 -110.5 -111t-151.5 -41
q-133 0 -214 70t-81 201q0 141 90 209q74 55 287 106q47 12 74 21q45 14 73 32q17 15 25 35.5t8 42.5q0 74 -61.5 127t-135.5 53q-88 0 -170 -49q-67 -41 -79 -78h-13l-28 123q69 64 175.5 102t205.5 38q153 0 258 -60q131 -74 131 -215zM424 1458h188l254 -360h-119
l-229 200l-229 -200h-115zM1053 1716l2 -18l-2 -43q0 -41 -60 -96q-43 -41 -106 -78q-39 -19 -55 -41q-15 -27 -19 -35l-8 -35v-28h-51v84q0 28 94 143q45 55 45 115q0 24 -16.5 61t-38.5 49q-25 19 -74 19q-8 0 -29.5 -17.5t-27.5 -23.5q24 -19 35.5 -33t11.5 -37
q0 -37 -32 -64.5t-71 -27.5q-37 0 -61.5 26.5t-24.5 65.5l4 23q25 51 70 86q70 53 174 53q113 0 178 -53q45 -37 62 -95z" />
    <glyph glyph-name="uni1EAA" unicode="&#x1eaa;" horiz-adv-x="1376" 
d="M843 418h-479q-41 -117 -57 -166q-60 -170 -86 -260q-19 2 -42.5 5t-52.5 3q-24 0 -53 -3t-45 -5l586 1421q18 -4 37.5 -4h40.5h28h23q18 4 26 4l570 -1425q-41 0 -64 2q-108 10 -112 10q-41 0 -64 -2q-108 -10 -113 -10q-71 250 -143 430zM421 545h373l-180 475z
M585 1868h193l249 -361h-114l-230 205l-233 -205h-111zM1055 2158h74q-22 -115 -65 -176q-58 -82 -152 -82q-39 0 -72 12l-61 30.5t-78 37.5q-49 22 -76 22q-41 0 -61.5 -34.5t-20.5 -63.5h-73q0 106 73 188q60 66 144 66q47 0 106 -27q43 -22 62 -31q30 -18 57 -29t49 -11
q35 0 60 30q14 19 34 68z" />
    <glyph glyph-name="uni1EAB" unicode="&#x1eab;" 
d="M606 328v200q-61 -22 -98 -34q-68 -25 -106 -54.5t-52 -69.5t-14 -100q0 -69 25.5 -116.5t88.5 -47.5q84 0 123 72q33 60 33 150zM889 729v-557q0 -102 86 -102l16 4v-45q-43 -21 -95 -39.5t-89 -18.5q-70 0 -123 41t-78 111q-39 -70 -110.5 -111t-151.5 -41
q-133 0 -214 70t-81 201q0 141 90 209q74 55 287 106q47 12 74 21q45 14 73 32q17 15 25 35.5t8 42.5q0 74 -61.5 127t-135.5 53q-88 0 -170 -49q-67 -41 -79 -78h-13l-28 123q69 64 175.5 102t205.5 38q153 0 258 -60q131 -74 131 -215zM424 1458h188l254 -360h-119
l-229 200l-229 -200h-115zM864 1733h74q-23 -115 -66 -176q-57 -82 -151 -82q-39 0 -72 12q-8 4 -61.5 30.5t-77.5 36.5q-49 23 -76 23q-41 0 -61.5 -35t-20.5 -63h-74q0 106 74 188q59 66 143 66q48 0 107 -27q43 -23 61 -31q31 -18 57.5 -29.5t49.5 -11.5q35 0 59 31
q15 18 35 68z" />
    <glyph glyph-name="uni1EAC" unicode="&#x1eac;" horiz-adv-x="1376" 
d="M843 418h-479q-41 -117 -57 -166q-60 -170 -86 -260q-19 2 -42.5 5t-52.5 3q-24 0 -53 -3t-45 -5l586 1421q18 -4 37.5 -4h40.5h28h23q18 4 26 4l570 -1425q-41 0 -64 2q-108 10 -112 10q-41 0 -64 -2q-108 -10 -113 -10q-71 250 -143 430zM421 545h373l-180 475z
M448 -279q0 66 47 113t113 47q65 0 114 -47t49 -113q0 -67 -48 -115t-115 -48q-66 0 -113 49t-47 114zM585 1868h193l249 -361h-114l-230 205l-233 -205h-111z" />
    <glyph glyph-name="uni1EAD" unicode="&#x1ead;" 
d="M606 328v200q-61 -22 -98 -34q-68 -25 -106 -54.5t-52 -69.5t-14 -100q0 -69 25.5 -116.5t88.5 -47.5q84 0 123 72q33 60 33 150zM889 729v-557q0 -102 86 -102l16 4v-45q-43 -21 -95 -39.5t-89 -18.5q-70 0 -123 41t-78 111q-39 -70 -110.5 -111t-151.5 -41
q-133 0 -214 70t-81 201q0 141 90 209q74 55 287 106q47 12 74 21q45 14 73 32q17 15 25 35.5t8 42.5q0 74 -61.5 127t-135.5 53q-88 0 -170 -49q-67 -41 -79 -78h-13l-28 123q69 64 175.5 102t205.5 38q153 0 258 -60q131 -74 131 -215zM358 -279q0 66 47 113t113 47
t115 -47t49 -113q0 -67 -48 -115t-116 -48q-66 0 -113 49t-47 114zM424 1458h188l254 -360h-119l-229 200l-229 -200h-115z" />
    <glyph glyph-name="uni1EAE" unicode="&#x1eae;" horiz-adv-x="1376" 
d="M843 418h-479q-41 -117 -57 -166q-60 -170 -86 -260q-19 2 -42.5 5t-52.5 3q-24 0 -53 -3t-45 -5l586 1421q18 -4 37.5 -4h40.5h28h23q18 4 26 4l570 -1425q-41 0 -64 2q-108 10 -112 10q-41 0 -64 -2q-108 -10 -113 -10q-71 250 -143 430zM421 545h373l-180 475z
M986 1761q-22 -116 -99 -185t-200 -69q-129 0 -208.5 67.5t-98.5 186.5h107q26 -53 76.5 -75.5t123.5 -22.5q70 0 117 23.5t72 74.5h110zM938 2161q31 19 76 19q41 0 65.5 -27t24.5 -63q0 -43 -35 -76q-16 -14 -72 -47l-266 -168h-115l262 307q39 43 60 55z" />
    <glyph glyph-name="uni1EAF" unicode="&#x1eaf;" 
d="M606 328v200q-61 -22 -98 -34q-68 -25 -106 -54.5t-52 -69.5t-14 -100q0 -69 25.5 -116.5t88.5 -47.5q84 0 123 72q33 60 33 150zM889 729v-557q0 -102 86 -102l16 4v-45q-43 -21 -95 -39.5t-89 -18.5q-70 0 -123 41t-78 111q-39 -70 -110.5 -111t-151.5 -41
q-133 0 -214 70t-81 201q0 141 90 209q74 55 287 106q47 12 74 21q45 14 73 32q17 15 25 35.5t8 42.5q0 74 -61.5 127t-135.5 53q-88 0 -170 -49q-67 -41 -79 -78h-13l-28 123q69 64 175.5 102t205.5 38q153 0 258 -60q131 -74 131 -215zM823 1331q-22 -117 -99 -185.5
t-200 -68.5q-129 0 -209 67.5t-98 186.5h106q27 -53 77 -75.5t124 -22.5q70 0 117 23.5t72 74.5h110zM780.5 1701.5q28.5 17.5 73.5 17.5q39 0 64.5 -25.5t25.5 -64.5q0 -41 -37 -74q-34 -24 -69 -49l-271 -164h-114l266 303q33 39 61.5 56.5z" />
    <glyph glyph-name="uni1EB0" unicode="&#x1eb0;" horiz-adv-x="1376" 
d="M843 418h-479q-41 -117 -57 -166q-60 -170 -86 -260q-19 2 -42.5 5t-52.5 3q-24 0 -53 -3t-45 -5l586 1421q18 -4 37.5 -4h40.5h28h23q18 4 26 4l570 -1425q-41 0 -64 2q-108 10 -112 10q-41 0 -64 -2q-108 -10 -113 -10q-71 250 -143 430zM421 545h373l-180 475z
M986 1761q-22 -116 -99 -185t-200 -69q-129 0 -208.5 67.5t-98.5 186.5h107q26 -53 76.5 -75.5t123.5 -22.5q70 0 117 23.5t72 74.5h110zM492 2106l262 -307h-115l-266 168q-55 33 -72 47q-35 33 -35 76q0 36 25 63t65 27q46 0 76 -19q21 -12 60 -55z" />
    <glyph glyph-name="uni1EB1" unicode="&#x1eb1;" 
d="M606 328v200q-61 -22 -98 -34q-68 -25 -106 -54.5t-52 -69.5t-14 -100q0 -69 25.5 -116.5t88.5 -47.5q84 0 123 72q33 60 33 150zM889 729v-557q0 -102 86 -102l16 4v-45q-43 -21 -95 -39.5t-89 -18.5q-70 0 -123 41t-78 111q-39 -70 -110.5 -111t-151.5 -41
q-133 0 -214 70t-81 201q0 141 90 209q74 55 287 106q47 12 74 21q45 14 73 32q17 15 25 35.5t8 42.5q0 74 -61.5 127t-135.5 53q-88 0 -170 -49q-67 -41 -79 -78h-13l-28 123q69 64 175.5 102t205.5 38q153 0 258 -60q131 -74 131 -215zM823 1331q-22 -117 -99 -185.5
t-200 -68.5q-129 0 -209 67.5t-98 186.5h106q27 -53 77 -75.5t124 -22.5q70 0 117 23.5t72 74.5h110zM348 1645l266 -303h-114l-271 164q-35 25 -69 49q-37 33 -37 74q0 39 25.5 64.5t64.5 25.5q45 0 73.5 -17.5t61.5 -56.5z" />
    <glyph glyph-name="uni1EB2" unicode="&#x1eb2;" horiz-adv-x="1376" 
d="M843 418h-479q-41 -117 -57 -166q-60 -170 -86 -260q-19 2 -42.5 5t-52.5 3q-24 0 -53 -3t-45 -5l586 1421q18 -4 37.5 -4h40.5h28h23q18 4 26 4l570 -1425q-41 0 -64 2q-108 10 -112 10q-41 0 -64 -2q-108 -10 -113 -10q-71 250 -143 430zM421 545h373l-180 475z
M986 1761q-22 -116 -99 -185t-200 -69q-129 0 -208.5 67.5t-98.5 186.5h107q26 -53 76.5 -75.5t123.5 -22.5q70 0 117 23.5t72 74.5h110zM946 2123l2 -18l-2 -43q0 -41 -59 -96q-43 -41 -107 -78q-39 -19 -55 -41q-14 -27 -19 -35l-8 -35v-28h-51v83q0 29 94 144
q45 55 45 115q0 24 -16 61t-39 49q-25 19 -74 19q-8 0 -29.5 -17.5t-27.5 -23.5q25 -19 36 -33.5t11 -36.5q0 -37 -31.5 -64.5t-70.5 -27.5q-37 0 -61.5 26.5t-24.5 65.5l4 22q24 52 69 87q70 53 174 53q113 0 179 -53q45 -37 61 -95z" />
    <glyph glyph-name="uni1EB3" unicode="&#x1eb3;" 
d="M606 328v200q-61 -22 -98 -34q-68 -25 -106 -54.5t-52 -69.5t-14 -100q0 -69 25.5 -116.5t88.5 -47.5q84 0 123 72q33 60 33 150zM889 729v-557q0 -102 86 -102l16 4v-45q-43 -21 -95 -39.5t-89 -18.5q-70 0 -123 41t-78 111q-39 -70 -110.5 -111t-151.5 -41
q-133 0 -214 70t-81 201q0 141 90 209q74 55 287 106q47 12 74 21q45 14 73 32q17 15 25 35.5t8 42.5q0 74 -61.5 127t-135.5 53q-88 0 -170 -49q-67 -41 -79 -78h-13l-28 123q69 64 175.5 102t205.5 38q153 0 258 -60q131 -74 131 -215zM823 1331q-22 -117 -99 -185.5
t-200 -68.5q-129 0 -209 67.5t-98 186.5h106q27 -53 77 -75.5t124 -22.5q70 0 117 23.5t72 74.5h110zM773 1697l2 -18l-2 -43q0 -41 -60 -96q-43 -41 -106 -78q-39 -19 -55 -41q-15 -27 -19 -35l-8 -35v-28h-51v84q0 28 94 143q45 55 45 115q0 24 -16.5 61t-38.5 49
q-25 19 -74 19q-8 0 -29.5 -17.5t-27.5 -23.5q24 -19 35.5 -33t11.5 -37q0 -37 -32 -64.5t-71 -27.5q-37 0 -61.5 26.5t-24.5 65.5l4 23q25 51 70 86q70 53 174 53q113 0 178 -53q45 -37 62 -95z" />
    <glyph glyph-name="uni1EB4" unicode="&#x1eb4;" horiz-adv-x="1376" 
d="M843 418h-479q-41 -117 -57 -166q-60 -170 -86 -260q-19 2 -42.5 5t-52.5 3q-24 0 -53 -3t-45 -5l586 1421q18 -4 37.5 -4h40.5h28h23q18 4 26 4l570 -1425q-41 0 -64 2q-108 10 -112 10q-41 0 -64 -2q-108 -10 -113 -10q-71 250 -143 430zM421 545h373l-180 475z
M986 1761q-22 -116 -99 -185t-200 -69q-129 0 -208.5 67.5t-98.5 186.5h107q26 -53 76.5 -75.5t123.5 -22.5q70 0 117 23.5t72 74.5h110zM1039 2094h74q-23 -115 -66 -177q-57 -82 -151 -82q-39 0 -72 13q-8 4 -61.5 30.5t-77.5 36.5q-49 23 -76 23q-41 0 -61.5 -35
t-20.5 -63h-74q0 106 74 188q59 66 143 66q48 0 107 -27q43 -23 61 -31q31 -18 57.5 -29.5t49.5 -11.5q35 0 59 31q15 18 35 68z" />
    <glyph glyph-name="uni1EB5" unicode="&#x1eb5;" 
d="M606 328v200q-61 -22 -98 -34q-68 -25 -106 -54.5t-52 -69.5t-14 -100q0 -69 25.5 -116.5t88.5 -47.5q84 0 123 72q33 60 33 150zM889 729v-557q0 -102 86 -102l16 4v-45q-43 -21 -95 -39.5t-89 -18.5q-70 0 -123 41t-78 111q-39 -70 -110.5 -111t-151.5 -41
q-133 0 -214 70t-81 201q0 141 90 209q74 55 287 106q47 12 74 21q45 14 73 32q17 15 25 35.5t8 42.5q0 74 -61.5 127t-135.5 53q-88 0 -170 -49q-67 -41 -79 -78h-13l-28 123q69 64 175.5 102t205.5 38q153 0 258 -60q131 -74 131 -215zM823 1331q-22 -117 -99 -185.5
t-200 -68.5q-129 0 -209 67.5t-98 186.5h106q27 -53 77 -75.5t124 -22.5q70 0 117 23.5t72 74.5h110zM874 1655h74q-23 -115 -66 -176q-57 -82 -151 -82q-39 0 -72 12q-8 4 -61.5 30.5t-77.5 36.5q-49 23 -76 23q-41 0 -61.5 -35t-20.5 -63h-74q0 106 74 188q59 66 143 66
q48 0 107 -27q43 -23 61 -31q31 -18 57.5 -29.5t49.5 -11.5q35 0 59 31q15 18 35 68z" />
    <glyph glyph-name="uni1EB6" unicode="&#x1eb6;" horiz-adv-x="1376" 
d="M843 418h-479q-41 -117 -57 -166q-60 -170 -86 -260q-19 2 -42.5 5t-52.5 3q-24 0 -53 -3t-45 -5l586 1421q18 -4 37.5 -4h40.5h28h23q18 4 26 4l570 -1425q-41 0 -64 2q-108 10 -112 10q-41 0 -64 -2q-108 -10 -113 -10q-71 250 -143 430zM421 545h373l-180 475z
M986 1761q-22 -116 -99 -185t-200 -69q-129 0 -208.5 67.5t-98.5 186.5h107q26 -53 76.5 -75.5t123.5 -22.5q70 0 117 23.5t72 74.5h110zM448 -279q0 66 47 113t113 47q65 0 114 -47t49 -113q0 -67 -48 -115t-115 -48q-66 0 -113 49t-47 114z" />
    <glyph glyph-name="uni1EB7" unicode="&#x1eb7;" 
d="M606 328v200q-61 -22 -98 -34q-68 -25 -106 -54.5t-52 -69.5t-14 -100q0 -69 25.5 -116.5t88.5 -47.5q84 0 123 72q33 60 33 150zM889 729v-557q0 -102 86 -102l16 4v-45q-43 -21 -95 -39.5t-89 -18.5q-70 0 -123 41t-78 111q-39 -70 -110.5 -111t-151.5 -41
q-133 0 -214 70t-81 201q0 141 90 209q74 55 287 106q47 12 74 21q45 14 73 32q17 15 25 35.5t8 42.5q0 74 -61.5 127t-135.5 53q-88 0 -170 -49q-67 -41 -79 -78h-13l-28 123q69 64 175.5 102t205.5 38q153 0 258 -60q131 -74 131 -215zM823 1331q-22 -117 -99 -185.5
t-200 -68.5q-129 0 -209 67.5t-98 186.5h106q27 -53 77 -75.5t124 -22.5q70 0 117 23.5t72 74.5h110zM358 -279q0 66 47 113t113 47t115 -47t49 -113q0 -67 -48 -115t-116 -48q-66 0 -113 49t-47 114z" />
    <glyph glyph-name="uni1EB8" unicode="&#x1eb8;" horiz-adv-x="1269" 
d="M159 1397h942q-4 -23 -8 -53.5t-4 -36.5l12 -86q-104 10 -261 19t-300 9h-74v-442h328q96 0 145 3t154 17l-16 -90q0 -16 5 -40.5t11 -45.5q-53 4 -147.5 10.5t-151.5 6.5h-328v-521q178 0 349 8.5t286 20.5l-12 -86q0 -18 4 -42.5t8 -47.5h-942v1397zM448 -279
q0 66 47 113t113 47q65 0 114 -47t49 -113q0 -67 -48 -115t-115 -48q-66 0 -113 49t-47 114z" />
    <glyph glyph-name="uni1EB9" unicode="&#x1eb9;" 
d="M376 586h303q0 125 -20 200q-33 123 -115 123q-100 0 -141 -121q-27 -77 -27 -202zM962 487h-586l-4 -32q0 -160 66 -248q73 -101 221 -101q63 0 125.5 24t115.5 67l25 -17l-45 -114q-135 -95 -295 -95q-252 0 -382 142.5t-130 398.5q0 219 125 355.5t342 136.5
q215 0 324 -130q98 -116 98 -325v-62zM358 -279q0 66 47 113t112 47q66 0 115 -47t49 -113q0 -67 -48 -115t-116 -48q-65 0 -112 49t-47 114z" />
    <glyph glyph-name="uni1EBA" unicode="&#x1eba;" horiz-adv-x="1269" 
d="M159 1397h942q-4 -23 -8 -53.5t-4 -36.5l12 -86q-104 10 -261 19t-300 9h-74v-442h328q96 0 145 3t154 17l-16 -90q0 -16 5 -40.5t11 -45.5q-53 4 -147.5 10.5t-151.5 6.5h-328v-521q178 0 349 8.5t286 20.5l-12 -86q0 -18 4 -42.5t8 -47.5h-942v1397zM873 1890l2 -18
l-2 -43q0 -41 -60 -96q-43 -41 -106 -78q-39 -19 -55 -41q-15 -27 -19 -35l-8 -35v-28h-51v83q0 29 94 144q45 55 45 115q0 24 -16.5 61t-38.5 49q-25 19 -74 19q-8 0 -29.5 -17.5t-27.5 -23.5q24 -19 35.5 -33.5t11.5 -36.5q0 -37 -32 -64.5t-71 -27.5q-37 0 -61.5 26.5
t-24.5 65.5l4 22q25 52 70 87q70 53 174 53q113 0 178 -53q45 -37 62 -95z" />
    <glyph glyph-name="uni1EBB" unicode="&#x1ebb;" 
d="M376 586h303q0 125 -20 200q-33 123 -115 123q-100 0 -141 -121q-27 -77 -27 -202zM962 487h-586l-4 -32q0 -160 66 -248q73 -101 221 -101q63 0 125.5 24t115.5 67l25 -17l-45 -114q-135 -95 -295 -95q-252 0 -382 142.5t-130 398.5q0 219 125 355.5t342 136.5
q215 0 324 -130q98 -116 98 -325v-62zM810 1464l2 -18l-2 -43q0 -41 -59 -96q-43 -41 -107 -78q-39 -19 -55 -41q-14 -27 -18 -35l-9 -35v-28h-51v84q0 28 94 143q45 55 45 115q0 24 -16 61t-39 49q-24 19 -74 19q-8 0 -29.5 -17.5t-27.5 -23.5q25 -19 36 -33t11 -37
q0 -37 -31.5 -64.5t-70.5 -27.5q-37 0 -61.5 26.5t-24.5 65.5l4 23q24 51 69 86q70 53 175 53q112 0 178 -53q45 -37 61 -95z" />
    <glyph glyph-name="uni1EBC" unicode="&#x1ebc;" horiz-adv-x="1269" 
d="M159 1397h942q-4 -23 -8 -53.5t-4 -36.5l12 -86q-104 10 -261 19t-300 9h-74v-442h328q96 0 145 3t154 17l-16 -90q0 -16 5 -40.5t11 -45.5q-53 4 -147.5 10.5t-151.5 6.5h-328v-521q178 0 349 8.5t286 20.5l-12 -86q0 -18 4 -42.5t8 -47.5h-942v1397zM886 1827h74
q-23 -115 -66 -176q-57 -82 -151 -82q-39 0 -72 12q-8 4 -61.5 30.5t-77.5 37.5q-49 22 -76 22q-41 0 -61.5 -34.5t-20.5 -63.5h-74q0 106 74 188q59 66 143 66q48 0 107 -27q43 -22 61 -31q31 -18 57.5 -29t49.5 -11q35 0 59 30q15 19 35 68z" />
    <glyph glyph-name="uni1EBD" unicode="&#x1ebd;" 
d="M376 586h303q0 125 -20 200q-33 123 -115 123q-100 0 -141 -121q-27 -77 -27 -202zM962 487h-586l-4 -32q0 -160 66 -248q73 -101 221 -101q63 0 125.5 24t115.5 67l25 -17l-45 -114q-135 -95 -295 -95q-252 0 -382 142.5t-130 398.5q0 219 125 355.5t342 136.5
q215 0 324 -130q98 -116 98 -325v-62zM773 1393h74q-22 -115 -65 -176q-58 -82 -152 -82q-39 0 -72 12l-61 30.5t-78 36.5q-49 23 -76 23q-41 0 -61.5 -35t-20.5 -63h-73q0 106 73 188q60 66 144 66q47 0 106 -27q43 -23 62 -31q30 -18 57 -29.5t49 -11.5q35 0 60 31
q14 18 34 68z" />
    <glyph glyph-name="uni1EBE" unicode="&#x1ebe;" horiz-adv-x="1269" 
d="M159 1397h942q-4 -23 -8 -53.5t-4 -36.5l12 -86q-104 10 -261 19t-300 9h-74v-442h328q96 0 145 3t154 17l-16 -90q0 -16 5 -40.5t11 -45.5q-53 4 -147.5 10.5t-151.5 6.5h-328v-521q178 0 349 8.5t286 20.5l-12 -86q0 -18 4 -42.5t8 -47.5h-942v1397zM1179 2200
q31 19 76 19q41 0 65.5 -27t24.5 -63q0 -43 -35 -76q-16 -14 -72 -47l-266 -168h-115l262 307q39 43 60 55zM532 1868h192l250 -361h-115l-229 205l-233 -205h-111z" />
    <glyph glyph-name="uni1EBF" unicode="&#x1ebf;" 
d="M376 586h303q0 125 -20 200q-33 123 -115 123q-100 0 -141 -121q-27 -77 -27 -202zM962 487h-586l-4 -32q0 -160 66 -248q73 -101 221 -101q63 0 125.5 24t115.5 67l25 -17l-45 -114q-135 -95 -295 -95q-252 0 -382 142.5t-130 398.5q0 219 125 355.5t342 136.5
q215 0 324 -130q98 -116 98 -325v-62zM441 1458h189l254 -360h-119l-230 200l-229 -200h-115zM1081.5 1749.5q28.5 17.5 73.5 17.5q39 0 65 -25.5t26 -64.5q0 -41 -37 -74q-35 -24 -70 -49l-270 -164h-115l266 303q33 39 61.5 56.5z" />
    <glyph glyph-name="uni1EC0" unicode="&#x1ec0;" horiz-adv-x="1269" 
d="M159 1397h942q-4 -23 -8 -53.5t-4 -36.5l12 -86q-104 10 -261 19t-300 9h-74v-442h328q96 0 145 3t154 17l-16 -90q0 -16 5 -40.5t11 -45.5q-53 4 -147.5 10.5t-151.5 6.5h-328v-521q178 0 349 8.5t286 20.5l-12 -86q0 -18 4 -42.5t8 -47.5h-942v1397zM792 2155l262 -307
h-115l-266 168q-56 33 -72 47q-35 33 -35 76q0 36 24.5 63t65.5 27q45 0 76 -19q21 -12 60 -55zM532 1868h192l250 -361h-115l-229 205l-233 -205h-111z" />
    <glyph glyph-name="uni1EC1" unicode="&#x1ec1;" 
d="M376 586h303q0 125 -20 200q-33 123 -115 123q-100 0 -141 -121q-27 -77 -27 -202zM962 487h-586l-4 -32q0 -160 66 -248q73 -101 221 -101q63 0 125.5 24t115.5 67l25 -17l-45 -114q-135 -95 -295 -95q-252 0 -382 142.5t-130 398.5q0 219 125 355.5t342 136.5
q215 0 324 -130q98 -116 98 -325v-62zM726 1761l267 -303h-115l-270 164q-35 25 -70 49q-37 33 -37 74q0 39 25.5 64.5t64.5 25.5q45 0 74 -17.5t61 -56.5zM441 1458h189l254 -360h-119l-230 200l-229 -200h-115z" />
    <glyph glyph-name="uni1EC2" unicode="&#x1ec2;" horiz-adv-x="1269" 
d="M159 1397h942q-4 -23 -8 -53.5t-4 -36.5l12 -86q-104 10 -261 19t-300 9h-74v-442h328q96 0 145 3t154 17l-16 -90q0 -16 5 -40.5t11 -45.5q-53 4 -147.5 10.5t-151.5 6.5h-328v-521q178 0 349 8.5t286 20.5l-12 -86q0 -18 4 -42.5t8 -47.5h-942v1397zM1178 2074l2 -18
l-2 -43q0 -41 -59 -96q-43 -41 -107 -78q-39 -19 -55 -41q-15 -27 -19 -35l-8 -35v-28h-51v83q0 29 94 144q45 55 45 115q0 24 -16.5 61t-38.5 49q-25 19 -74 19q-8 0 -29.5 -17.5t-27.5 -23.5q24 -19 35.5 -33.5t11.5 -36.5q0 -37 -32 -64.5t-70 -27.5q-37 0 -61.5 26.5
t-24.5 65.5l4 22q24 52 69 87q70 53 174 53q113 0 179 -53q45 -37 61 -95zM532 1868h192l250 -361h-115l-229 205l-233 -205h-111z" />
    <glyph glyph-name="uni1EC3" unicode="&#x1ec3;" 
d="M376 586h303q0 125 -20 200q-33 123 -115 123q-100 0 -141 -121q-27 -77 -27 -202zM962 487h-586l-4 -32q0 -160 66 -248q73 -101 221 -101q63 0 125.5 24t115.5 67l25 -17l-45 -114q-135 -95 -295 -95q-252 0 -382 142.5t-130 398.5q0 219 125 355.5t342 136.5
q215 0 324 -130q98 -116 98 -325v-62zM441 1458h189l254 -360h-119l-230 200l-229 -200h-115zM1072 1716l2 -18l-2 -43q0 -41 -59 -96q-43 -41 -107 -78q-39 -19 -55 -41q-14 -27 -18 -35l-9 -35v-28h-51v84q0 28 94 143q45 55 45 115q0 24 -16 61t-39 49q-24 19 -74 19
q-8 0 -29.5 -17.5t-27.5 -23.5q25 -19 36 -33t11 -37q0 -37 -31.5 -64.5t-70.5 -27.5q-37 0 -61.5 26.5t-24.5 65.5l4 23q24 51 69 86q70 53 175 53q112 0 178 -53q45 -37 61 -95z" />
    <glyph glyph-name="uni1EC4" unicode="&#x1ec4;" horiz-adv-x="1269" 
d="M159 1397h942q-4 -23 -8 -53.5t-4 -36.5l12 -86q-104 10 -261 19t-300 9h-74v-442h328q96 0 145 3t154 17l-16 -90q0 -16 5 -40.5t11 -45.5q-53 4 -147.5 10.5t-151.5 6.5h-328v-521q178 0 349 8.5t286 20.5l-12 -86q0 -18 4 -42.5t8 -47.5h-942v1397zM1015 2158h74
q-23 -115 -66 -176q-57 -82 -151 -82q-39 0 -72 12l-61 30.5t-78 37.5q-49 22 -76 22q-41 0 -61.5 -34.5t-20.5 -63.5h-73q0 106 73 188q60 66 144 66q47 0 106 -27q43 -22 62 -31q30 -18 57 -29t49 -11q35 0 59 30q15 19 35 68zM532 1868h192l250 -361h-115l-229 205
l-233 -205h-111z" />
    <glyph glyph-name="uni1EC5" unicode="&#x1ec5;" 
d="M376 586h303q0 125 -20 200q-33 123 -115 123q-100 0 -141 -121q-27 -77 -27 -202zM962 487h-586l-4 -32q0 -160 66 -248q73 -101 221 -101q63 0 125.5 24t115.5 67l25 -17l-45 -114q-135 -95 -295 -95q-252 0 -382 142.5t-130 398.5q0 219 125 355.5t342 136.5
q215 0 324 -130q98 -116 98 -325v-62zM441 1458h189l254 -360h-119l-230 200l-229 -200h-115zM873 1733h74q-22 -115 -65 -176q-58 -82 -152 -82q-39 0 -72 12l-61 30.5t-78 36.5q-49 23 -76 23q-41 0 -61.5 -35t-20.5 -63h-73q0 106 73 188q60 66 144 66q47 0 106 -27
q43 -23 62 -31q30 -18 57 -29.5t49 -11.5q35 0 60 31q14 18 34 68z" />
    <glyph glyph-name="uni1EC6" unicode="&#x1ec6;" horiz-adv-x="1269" 
d="M159 1397h942q-4 -23 -8 -53.5t-4 -36.5l12 -86q-104 10 -261 19t-300 9h-74v-442h328q96 0 145 3t154 17l-16 -90q0 -16 5 -40.5t11 -45.5q-53 4 -147.5 10.5t-151.5 6.5h-328v-521q178 0 349 8.5t286 20.5l-12 -86q0 -18 4 -42.5t8 -47.5h-942v1397zM532 1868h192
l250 -361h-115l-229 205l-233 -205h-111zM448 -279q0 66 47 113t113 47q65 0 114 -47t49 -113q0 -67 -48 -115t-115 -48q-66 0 -113 49t-47 114z" />
    <glyph glyph-name="uni1EC7" unicode="&#x1ec7;" 
d="M376 586h303q0 125 -20 200q-33 123 -115 123q-100 0 -141 -121q-27 -77 -27 -202zM962 487h-586l-4 -32q0 -160 66 -248q73 -101 221 -101q63 0 125.5 24t115.5 67l25 -17l-45 -114q-135 -95 -295 -95q-252 0 -382 142.5t-130 398.5q0 219 125 355.5t342 136.5
q215 0 324 -130q98 -116 98 -325v-62zM441 1458h189l254 -360h-119l-230 200l-229 -200h-115zM358 -279q0 66 47 113t112 47q66 0 115 -47t49 -113q0 -67 -48 -115t-116 -48q-65 0 -112 49t-47 114z" />
    <glyph glyph-name="uni1EC8" unicode="&#x1ec8;" horiz-adv-x="700" 
d="M189 -12v1409q24 0 75.5 -6.5t75.5 -6.5q27 0 78 6.5t78 6.5v-1409q-27 0 -78 6t-78 6q-24 0 -75.5 -6t-75.5 -6zM594 1890l2 -18l-2 -43q0 -41 -59 -96q-43 -41 -106 -78q-39 -19 -56 -41q-14 -27 -18 -35l-8 -35v-28h-52v83q0 29 95 144q45 55 45 115q0 24 -16.5 61
t-39.5 49q-24 19 -73 19q-9 0 -30.5 -17.5t-27.5 -23.5q25 -19 36 -33.5t11 -36.5q0 -37 -31.5 -64.5t-70.5 -27.5q-37 0 -61.5 26.5t-24.5 65.5l4 22q25 52 70 87q69 53 174 53q112 0 178 -53q45 -37 61 -95z" />
    <glyph glyph-name="uni1EC9" unicode="&#x1ec9;" horiz-adv-x="589" 
d="M143 -12v995q24 0 80.5 -4t62.5 -4q35 0 76 3t63 5v-995q-26 2 -51 4q-72 8 -88 8q-25 0 -72 -6t-71 -6zM558 1423l2 -18l-2 -43q0 -41 -59 -96q-43 -41 -106 -78q-39 -19 -56 -41q-14 -27 -18 -35l-8 -35v-28h-52v84q0 28 95 143q45 55 45 115q0 24 -16.5 61t-39.5 49
q-24 19 -73 19q-9 0 -30.5 -17.5t-27.5 -23.5q25 -19 36 -33t11 -37q0 -37 -31.5 -64.5t-70.5 -27.5q-37 0 -61.5 26.5t-24.5 65.5l4 23q25 51 70 86q69 53 174 53q112 0 178 -53q45 -37 61 -95z" />
    <glyph glyph-name="uni1ECA" unicode="&#x1eca;" horiz-adv-x="700" 
d="M189 -12v1409q24 0 75.5 -6.5t75.5 -6.5q27 0 78 6.5t78 6.5v-1409q-27 0 -78 6t-78 6q-24 0 -75.5 -6t-75.5 -6zM181 -279q0 66 47 113t113 47q65 0 114.5 -47t49.5 -113q0 -67 -48.5 -115t-115.5 -48q-66 0 -113 49t-47 114z" />
    <glyph glyph-name="uni1ECB" unicode="&#x1ecb;" horiz-adv-x="589" 
d="M142 -12v995q25 0 81.5 -4t62.5 -4q35 0 76 3t63 5v-995q-27 2 -51 4q-72 8 -88 8q-25 0 -72 -6t-72 -6zM122 1360q0 65 47 112.5t113 47.5q65 0 114.5 -47.5t49.5 -112.5q0 -68 -48.5 -116t-115.5 -48q-66 0 -113 49t-47 115zM122 -279q0 66 47 113t113 47
q65 0 114.5 -47t49.5 -113q0 -67 -48.5 -115t-115.5 -48q-66 0 -113 49t-47 114z" />
    <glyph glyph-name="uni1ECC" unicode="&#x1ecc;" horiz-adv-x="1396" 
d="M1347 705q0 -310 -178 -521q-188 -221 -485 -221q-287 0 -457 193.5t-170 539.5q0 316 174 521q184 217 494 217q325 0 491 -246q131 -195 131 -483zM712 1311q-178 0 -275 -168t-97 -508q0 -225 79 -375q93 -174 269 -174q186 0 289 199q92 178 92 456q0 230 -82 385
q-96 185 -275 185zM540 -279q0 66 47.5 113t112.5 47q66 0 115 -47t49 -113q0 -67 -48 -115t-116 -48q-65 0 -112.5 49t-47.5 114z" />
    <glyph glyph-name="uni1ECD" unicode="&#x1ecd;" 
d="M520 -29q-211 0 -335 134.5t-124 361.5q0 244 123 390.5t340 146.5q213 0 338 -131.5t125 -360.5q0 -240 -124 -390.5t-343 -150.5zM532 909q-106 0 -154 -127q-38 -104 -38 -311q0 -154 28 -252q45 -153 152 -153q100 0 149 153q39 125 39 326q0 164 -39 256
q-45 108 -137 108zM362 -279q0 66 47 113t113 47q65 0 114.5 -47t49.5 -113q0 -67 -48.5 -115t-115.5 -48q-66 0 -113 49t-47 114z" />
    <glyph glyph-name="uni1ECE" unicode="&#x1ece;" horiz-adv-x="1396" 
d="M1347 705q0 -310 -178 -521q-188 -221 -485 -221q-287 0 -457 193.5t-170 539.5q0 316 174 521q184 217 494 217q325 0 491 -246q131 -195 131 -483zM712 1311q-178 0 -275 -168t-97 -508q0 -225 79 -375q93 -174 269 -174q186 0 289 199q92 178 92 456q0 230 -82 385
q-96 185 -275 185zM945 1890l2 -18l-2 -43q0 -41 -60 -96q-43 -41 -106 -78q-39 -19 -55 -41q-15 -27 -19 -35l-8 -35v-28h-51v83q0 29 94 144q45 55 45 115q0 24 -16.5 61t-38.5 49q-25 19 -74 19q-8 0 -29.5 -17.5t-27.5 -23.5q24 -19 35.5 -33.5t11.5 -36.5
q0 -37 -32 -64.5t-71 -27.5q-36 0 -61 26.5t-25 65.5l4 22q25 52 70 87q70 53 174 53q113 0 178 -53q45 -37 62 -95z" />
    <glyph glyph-name="uni1ECF" unicode="&#x1ecf;" 
d="M520 -29q-211 0 -335 134.5t-124 361.5q0 244 123 390.5t340 146.5q213 0 338 -131.5t125 -360.5q0 -240 -124 -390.5t-343 -150.5zM532 909q-106 0 -154 -127q-38 -104 -38 -311q0 -154 28 -252q45 -153 152 -153q100 0 149 153q39 125 39 326q0 164 -39 256
q-45 108 -137 108zM810 1464l2 -18l-2 -43q0 -41 -59 -96q-43 -41 -106 -78q-39 -19 -56 -41q-14 -27 -18 -35l-8 -35v-28h-52v84q0 28 95 143q45 55 45 115q0 24 -16.5 61t-39.5 49q-24 19 -73 19q-9 0 -30.5 -17.5t-27.5 -23.5q25 -19 36 -33t11 -37q0 -37 -31.5 -64.5
t-70.5 -27.5q-37 0 -61.5 26.5t-24.5 65.5l4 23q25 51 70 86q69 53 174 53q112 0 178 -53q45 -37 61 -95z" />
    <glyph glyph-name="uni1ED0" unicode="&#x1ed0;" horiz-adv-x="1396" 
d="M1347 705q0 -310 -178 -521q-188 -221 -485 -221q-287 0 -457 193.5t-170 539.5q0 316 174 521q184 217 494 217q325 0 491 -246q131 -195 131 -483zM712 1311q-178 0 -275 -168t-97 -508q0 -225 79 -375q93 -174 269 -174q186 0 289 199q92 178 92 456q0 230 -82 385
q-96 185 -275 185zM1230 2210q31 19 76 19q41 0 65.5 -27t24.5 -63q0 -43 -35 -76q-16 -14 -71 -47l-267 -168h-114l262 307q39 43 59 55zM604 1868h192l250 -361h-115l-229 205l-233 -205h-111z" />
    <glyph glyph-name="uni1ED1" unicode="&#x1ed1;" 
d="M520 -29q-211 0 -335 134.5t-124 361.5q0 244 123 390.5t340 146.5q213 0 338 -131.5t125 -360.5q0 -240 -124 -390.5t-343 -150.5zM532 909q-106 0 -154 -127q-38 -104 -38 -311q0 -154 28 -252q45 -153 152 -153q100 0 149 153q39 125 39 326q0 164 -39 256
q-45 108 -137 108zM1082 1749.5q29 17.5 74 17.5q39 0 64.5 -25.5t25.5 -64.5q0 -41 -37 -74q-35 -24 -70 -49l-270 -164h-115l267 303q32 39 61 56.5zM428 1458h188l254 -360h-119l-229 200l-230 -200h-114z" />
    <glyph glyph-name="uni1ED2" unicode="&#x1ed2;" horiz-adv-x="1396" 
d="M1347 705q0 -310 -178 -521q-188 -221 -485 -221q-287 0 -457 193.5t-170 539.5q0 316 174 521q184 217 494 217q325 0 491 -246q131 -195 131 -483zM712 1311q-178 0 -275 -168t-97 -508q0 -225 79 -375q93 -174 269 -174q186 0 289 199q92 178 92 456q0 230 -82 385
q-96 185 -275 185zM862 2155l262 -307h-115l-266 168q-55 33 -72 47q-34 33 -34 76q0 36 24.5 63t65.5 27q45 0 76 -19q20 -12 59 -55zM604 1868h192l250 -361h-115l-229 205l-233 -205h-111z" />
    <glyph glyph-name="uni1ED3" unicode="&#x1ed3;" 
d="M520 -29q-211 0 -335 134.5t-124 361.5q0 244 123 390.5t340 146.5q213 0 338 -131.5t125 -360.5q0 -240 -124 -390.5t-343 -150.5zM532 909q-106 0 -154 -127q-38 -104 -38 -311q0 -154 28 -252q45 -153 152 -153q100 0 149 153q39 125 39 326q0 164 -39 256
q-45 108 -137 108zM707 1761l266 -303h-115l-270 164q-35 25 -70 49q-37 33 -37 74q0 39 26 64.5t64 25.5q45 0 74 -17.5t62 -56.5zM428 1458h188l254 -360h-119l-229 200l-230 -200h-114z" />
    <glyph glyph-name="uni1ED4" unicode="&#x1ed4;" horiz-adv-x="1396" 
d="M1347 705q0 -310 -178 -521q-188 -221 -485 -221q-287 0 -457 193.5t-170 539.5q0 316 174 521q184 217 494 217q325 0 491 -246q131 -195 131 -483zM712 1311q-178 0 -275 -168t-97 -508q0 -225 79 -375q93 -174 269 -174q186 0 289 199q92 178 92 456q0 230 -82 385
q-96 185 -275 185zM1248 2074l2 -18l-2 -43q0 -41 -59 -96q-43 -41 -107 -78q-38 -19 -55 -41q-14 -27 -18 -35l-8 -35v-28h-52v83q0 29 95 144q45 55 45 115q0 24 -16.5 61t-39.5 49q-24 19 -73 19q-9 0 -30.5 -17.5t-27.5 -23.5q25 -19 36 -33.5t11 -36.5
q0 -37 -31.5 -64.5t-70.5 -27.5q-37 0 -61.5 26.5t-24.5 65.5l4 22q25 52 70 87q69 53 174 53q112 0 178 -53q45 -37 61 -95zM604 1868h192l250 -361h-115l-229 205l-233 -205h-111z" />
    <glyph glyph-name="uni1ED5" unicode="&#x1ed5;" 
d="M520 -29q-211 0 -335 134.5t-124 361.5q0 244 123 390.5t340 146.5q213 0 338 -131.5t125 -360.5q0 -240 -124 -390.5t-343 -150.5zM532 909q-106 0 -154 -127q-38 -104 -38 -311q0 -154 28 -252q45 -153 152 -153q100 0 149 153q39 125 39 326q0 164 -39 256
q-45 108 -137 108zM1052 1716l2 -18l-2 -43q0 -41 -59 -96q-43 -41 -106 -78q-39 -19 -56 -41q-14 -27 -18 -35l-8 -35v-28h-52v84q0 28 95 143q45 55 45 115q0 24 -16.5 61t-39.5 49q-24 19 -73 19q-9 0 -30.5 -17.5t-27.5 -23.5q25 -19 36 -33t11 -37q0 -37 -31.5 -64.5
t-70.5 -27.5q-37 0 -61.5 26.5t-24.5 65.5l4 23q25 51 70 86q69 53 174 53q112 0 178 -53q45 -37 61 -95zM428 1458h188l254 -360h-119l-229 200l-230 -200h-114z" />
    <glyph glyph-name="uni1ED6" unicode="&#x1ed6;" horiz-adv-x="1396" 
d="M1347 705q0 -310 -178 -521q-188 -221 -485 -221q-287 0 -457 193.5t-170 539.5q0 316 174 521q184 217 494 217q325 0 491 -246q131 -195 131 -483zM712 1311q-178 0 -275 -168t-97 -508q0 -225 79 -375q93 -174 269 -174q186 0 289 199q92 178 92 456q0 230 -82 385
q-96 185 -275 185zM1086 2158h73q-22 -115 -65 -176q-57 -82 -152 -82q-39 0 -71 12q-9 4 -62 30.5t-78 37.5q-49 22 -75 22q-41 0 -61.5 -34.5t-20.5 -63.5h-74q0 106 74 188q59 66 143 66q47 0 107 -27q43 -22 61 -31q31 -18 57.5 -29t48.5 -11q35 0 60 30q14 19 35 68z
M604 1868h192l250 -361h-115l-229 205l-233 -205h-111z" />
    <glyph glyph-name="uni1ED7" unicode="&#x1ed7;" 
d="M520 -29q-211 0 -335 134.5t-124 361.5q0 244 123 390.5t340 146.5q213 0 338 -131.5t125 -360.5q0 -240 -124 -390.5t-343 -150.5zM532 909q-106 0 -154 -127q-38 -104 -38 -311q0 -154 28 -252q45 -153 152 -153q100 0 149 153q39 125 39 326q0 164 -39 256
q-45 108 -137 108zM854 1733h73q-22 -115 -65 -176q-57 -82 -152 -82q-39 0 -71 12q-8 4 -61.5 30.5t-78.5 36.5q-49 23 -75 23q-41 0 -61.5 -35t-20.5 -63h-74q0 106 74 188q59 66 143 66q47 0 107 -27q43 -23 61 -31q31 -18 57.5 -29.5t49.5 -11.5q34 0 59 31q14 18 35 68
zM428 1458h188l254 -360h-119l-229 200l-230 -200h-114z" />
    <glyph glyph-name="uni1ED8" unicode="&#x1ed8;" horiz-adv-x="1396" 
d="M1347 705q0 -310 -178 -521q-188 -221 -485 -221q-287 0 -457 193.5t-170 539.5q0 316 174 521q184 217 494 217q325 0 491 -246q131 -195 131 -483zM712 1311q-178 0 -275 -168t-97 -508q0 -225 79 -375q93 -174 269 -174q186 0 289 199q92 178 92 456q0 230 -82 385
q-96 185 -275 185zM604 1868h192l250 -361h-115l-229 205l-233 -205h-111zM540 -279q0 66 47.5 113t112.5 47q66 0 115 -47t49 -113q0 -67 -48 -115t-116 -48q-65 0 -112.5 49t-47.5 114z" />
    <glyph glyph-name="uni1ED9" unicode="&#x1ed9;" 
d="M520 -29q-211 0 -335 134.5t-124 361.5q0 244 123 390.5t340 146.5q213 0 338 -131.5t125 -360.5q0 -240 -124 -390.5t-343 -150.5zM532 909q-106 0 -154 -127q-38 -104 -38 -311q0 -154 28 -252q45 -153 152 -153q100 0 149 153q39 125 39 326q0 164 -39 256
q-45 108 -137 108zM428 1458h188l254 -360h-119l-229 200l-230 -200h-114zM362 -279q0 66 47 113t113 47q65 0 114.5 -47t49.5 -113q0 -67 -48.5 -115t-115.5 -48q-66 0 -113 49t-47 114z" />
    <glyph glyph-name="uni1EDA" unicode="&#x1eda;" horiz-adv-x="1396" 
d="M896 1890q31 19 76 19q41 0 65.5 -27t24.5 -63q0 -43 -35 -76q-16 -14 -72 -47l-266 -168h-115l263 307q38 43 59 55zM1151 1262q36 0 82 45q16 24 16 65q0 27 -5 51.5t-13.5 37t-39 14.5t-32.5 8v123q24 -4 35.5 -6.5t33.5 -2.5q25 0 71 4.5t56 4.5h62l-4 -33v-86
q0 -57 -15.5 -116.5t-45 -95.5t-56.5 -52q-43 -27 -96 -27q74 -109 110.5 -234.5t36.5 -256.5q0 -310 -178 -521q-188 -221 -485 -221q-287 0 -457 193.5t-170 539.5q0 316 174 521q184 217 494 217q139 0 244.5 -45.5t181.5 -126.5zM712 1311q-178 0 -275 -168t-97 -508
q0 -225 79 -375q93 -174 269 -174q186 0 289 199q92 178 92 456q0 230 -82 385q-96 185 -275 185z" />
    <glyph glyph-name="uni1EDB" unicode="&#x1edb;" 
d="M751 1477.5q29 17.5 74 17.5q39 0 64.5 -25.5t25.5 -64.5q0 -41 -37 -74q-35 -24 -70 -49l-270 -164h-115l267 303q32 39 61 56.5zM831 889q27 0 50.5 9t40 32.5t16.5 48.5q0 37 -17 53q-6 10 -36.5 12.5t-32.5 8.5v123q40 -9 65 -9q18 0 45 4.5t49 4.5h58l-4 -29v-94
q0 -64 -11.5 -94.5t-38.5 -61.5q-43 -49 -45 -51q-24 -23 -73 -23q90 -129 90 -311q0 -240 -124 -390.5t-343 -150.5q-211 0 -335 134.5t-124 361.5q0 244 123 390.5t340 146.5q186 0 307 -115zM532 909q-106 0 -154 -127q-38 -104 -38 -311q0 -154 28 -252
q45 -153 152 -153q100 0 149 153q39 125 39 326q0 164 -39 256q-45 108 -137 108z" />
    <glyph glyph-name="uni1EDC" unicode="&#x1edc;" horiz-adv-x="1396" 
d="M612 1835l262 -307h-115l-266 168q-55 33 -71 47q-35 33 -35 76q0 36 24.5 63t65.5 27q45 0 76 -19q20 -12 59 -55zM1151 1262q36 0 82 45q16 24 16 65q0 27 -5 51.5t-13.5 37t-39 14.5t-32.5 8v123q24 -4 35.5 -6.5t33.5 -2.5q25 0 71 4.5t56 4.5h62l-4 -33v-86
q0 -57 -15.5 -116.5t-45 -95.5t-56.5 -52q-43 -27 -96 -27q74 -109 110.5 -234.5t36.5 -256.5q0 -310 -178 -521q-188 -221 -485 -221q-287 0 -457 193.5t-170 539.5q0 316 174 521q184 217 494 217q139 0 244.5 -45.5t181.5 -126.5zM712 1311q-178 0 -275 -168t-97 -508
q0 -225 79 -375q93 -174 269 -174q186 0 289 199q92 178 92 456q0 230 -82 385q-96 185 -275 185z" />
    <glyph glyph-name="uni1EDD" unicode="&#x1edd;" 
d="M397 1421l266 -303h-115l-270 164q-35 25 -70 49q-37 33 -37 74q0 39 26 64.5t65 25.5q45 0 73.5 -17.5t61.5 -56.5zM831 889q27 0 50.5 9t40 32.5t16.5 48.5q0 37 -17 53q-6 10 -36.5 12.5t-32.5 8.5v123q40 -9 65 -9q18 0 45 4.5t49 4.5h58l-4 -29v-94
q0 -64 -11.5 -94.5t-38.5 -61.5q-43 -49 -45 -51q-24 -23 -73 -23q90 -129 90 -311q0 -240 -124 -390.5t-343 -150.5q-211 0 -335 134.5t-124 361.5q0 244 123 390.5t340 146.5q186 0 307 -115zM532 909q-106 0 -154 -127q-38 -104 -38 -311q0 -154 28 -252
q45 -153 152 -153q100 0 149 153q39 125 39 326q0 164 -39 256q-45 108 -137 108z" />
    <glyph glyph-name="uni1EDE" unicode="&#x1ede;" horiz-adv-x="1396" 
d="M945 1890l2 -18l-2 -43q0 -41 -60 -96q-43 -41 -106 -78q-39 -19 -55 -41q-15 -27 -19 -35l-8 -35v-28h-51v83q0 29 94 144q45 55 45 115q0 24 -16.5 61t-38.5 49q-25 19 -74 19q-8 0 -29.5 -17.5t-27.5 -23.5q24 -19 35.5 -33.5t11.5 -36.5q0 -37 -32 -64.5t-71 -27.5
q-36 0 -61 26.5t-25 65.5l4 22q25 52 70 87q70 53 174 53q113 0 178 -53q45 -37 62 -95zM1151 1262q36 0 82 45q16 24 16 65q0 27 -5 51.5t-13.5 37t-39 14.5t-32.5 8v123q24 -4 35.5 -6.5t33.5 -2.5q25 0 71 4.5t56 4.5h62l-4 -33v-86q0 -57 -15.5 -116.5t-45 -95.5
t-56.5 -52q-43 -27 -96 -27q74 -109 110.5 -234.5t36.5 -256.5q0 -310 -178 -521q-188 -221 -485 -221q-287 0 -457 193.5t-170 539.5q0 316 174 521q184 217 494 217q139 0 244.5 -45.5t181.5 -126.5zM712 1311q-178 0 -275 -168t-97 -508q0 -225 79 -375q93 -174 269 -174
q186 0 289 199q92 178 92 456q0 230 -82 385q-96 185 -275 185z" />
    <glyph glyph-name="uni1EDF" unicode="&#x1edf;" 
d="M810 1464l2 -18l-2 -43q0 -41 -59 -96q-43 -41 -106 -78q-39 -19 -56 -41q-14 -27 -18 -35l-8 -35v-28h-52v84q0 28 95 143q45 55 45 115q0 24 -16.5 61t-39.5 49q-24 19 -73 19q-9 0 -30.5 -17.5t-27.5 -23.5q25 -19 36 -33t11 -37q0 -37 -31.5 -64.5t-70.5 -27.5
q-37 0 -61.5 26.5t-24.5 65.5l4 23q25 51 70 86q69 53 174 53q112 0 178 -53q45 -37 61 -95zM831 889q27 0 50.5 9t40 32.5t16.5 48.5q0 37 -17 53q-6 10 -36.5 12.5t-32.5 8.5v123q40 -9 65 -9q18 0 45 4.5t49 4.5h58l-4 -29v-94q0 -64 -11.5 -94.5t-38.5 -61.5
q-43 -49 -45 -51q-24 -23 -73 -23q90 -129 90 -311q0 -240 -124 -390.5t-343 -150.5q-211 0 -335 134.5t-124 361.5q0 244 123 390.5t340 146.5q186 0 307 -115zM532 909q-106 0 -154 -127q-38 -104 -38 -311q0 -154 28 -252q45 -153 152 -153q100 0 149 153q39 125 39 326
q0 164 -39 256q-45 108 -137 108z" />
    <glyph glyph-name="uni1EE0" unicode="&#x1ee0;" horiz-adv-x="1396" 
d="M993 1827h74q-23 -115 -66 -176q-57 -82 -151 -82q-39 0 -72 12q-8 4 -61.5 30.5t-77.5 37.5q-50 22 -76 22q-41 0 -61.5 -34.5t-20.5 -63.5h-74q0 106 74 188q59 66 143 66q47 0 107 -27q43 -22 61 -31q31 -18 57.5 -29t49.5 -11q35 0 59 30q14 19 35 68zM1151 1262
q36 0 82 45q16 24 16 65q0 27 -5 51.5t-13.5 37t-39 14.5t-32.5 8v123q24 -4 35.5 -6.5t33.5 -2.5q25 0 71 4.5t56 4.5h62l-4 -33v-86q0 -57 -15.5 -116.5t-45 -95.5t-56.5 -52q-43 -27 -96 -27q74 -109 110.5 -234.5t36.5 -256.5q0 -310 -178 -521q-188 -221 -485 -221
q-287 0 -457 193.5t-170 539.5q0 316 174 521q184 217 494 217q139 0 244.5 -45.5t181.5 -126.5zM712 1311q-178 0 -275 -168t-97 -508q0 -225 79 -375q93 -174 269 -174q186 0 289 199q92 178 92 456q0 230 -82 385q-96 185 -275 185z" />
    <glyph glyph-name="uni1EE1" unicode="&#x1ee1;" 
d="M821 1393h74q-23 -115 -66 -176q-57 -82 -152 -82q-38 0 -71 12q-8 4 -61.5 30.5t-77.5 36.5q-50 23 -76 23q-41 0 -61.5 -35t-20.5 -63h-74q0 106 74 188q59 66 143 66q47 0 107 -27q43 -23 61 -31q31 -18 57.5 -29.5t49.5 -11.5q34 0 59 31q14 18 35 68zM831 889
q27 0 50.5 9t40 32.5t16.5 48.5q0 37 -17 53q-6 10 -36.5 12.5t-32.5 8.5v123q40 -9 65 -9q18 0 45 4.5t49 4.5h58l-4 -29v-94q0 -64 -11.5 -94.5t-38.5 -61.5q-43 -49 -45 -51q-24 -23 -73 -23q90 -129 90 -311q0 -240 -124 -390.5t-343 -150.5q-211 0 -335 134.5
t-124 361.5q0 244 123 390.5t340 146.5q186 0 307 -115zM532 909q-106 0 -154 -127q-38 -104 -38 -311q0 -154 28 -252q45 -153 152 -153q100 0 149 153q39 125 39 326q0 164 -39 256q-45 108 -137 108z" />
    <glyph glyph-name="uni1EE2" unicode="&#x1ee2;" horiz-adv-x="1396" 
d="M540 -279q0 66 47.5 113t112.5 47q66 0 115 -47t49 -113q0 -67 -48 -115t-116 -48q-65 0 -112.5 49t-47.5 114zM1151 1262q36 0 82 45q16 24 16 65q0 27 -5 51.5t-13.5 37t-39 14.5t-32.5 8v123q24 -4 35.5 -6.5t33.5 -2.5q25 0 71 4.5t56 4.5h62l-4 -33v-86
q0 -57 -15.5 -116.5t-45 -95.5t-56.5 -52q-43 -27 -96 -27q74 -109 110.5 -234.5t36.5 -256.5q0 -310 -178 -521q-188 -221 -485 -221q-287 0 -457 193.5t-170 539.5q0 316 174 521q184 217 494 217q139 0 244.5 -45.5t181.5 -126.5zM712 1311q-178 0 -275 -168t-97 -508
q0 -225 79 -375q93 -174 269 -174q186 0 289 199q92 178 92 456q0 230 -82 385q-96 185 -275 185z" />
    <glyph glyph-name="uni1EE3" unicode="&#x1ee3;" 
d="M362 -279q0 66 47 113t113 47q65 0 114.5 -47t49.5 -113q0 -67 -48.5 -115t-115.5 -48q-66 0 -113 49t-47 114zM831 889q27 0 50.5 9t40 32.5t16.5 48.5q0 37 -17 53q-6 10 -36.5 12.5t-32.5 8.5v123q40 -9 65 -9q18 0 45 4.5t49 4.5h58l-4 -29v-94q0 -64 -11.5 -94.5
t-38.5 -61.5q-43 -49 -45 -51q-24 -23 -73 -23q90 -129 90 -311q0 -240 -124 -390.5t-343 -150.5q-211 0 -335 134.5t-124 361.5q0 244 123 390.5t340 146.5q186 0 307 -115zM532 909q-106 0 -154 -127q-38 -104 -38 -311q0 -154 28 -252q45 -153 152 -153q100 0 149 153
q39 125 39 326q0 164 -39 256q-45 108 -137 108z" />
    <glyph glyph-name="uni1EE4" unicode="&#x1ee4;" horiz-adv-x="1396" 
d="M159 561v836q68 -6 135 -13q68 7 135 13v-582q0 -98 1 -199.5t12 -189.5q20 -100 30 -127q21 -57 68 -106q84 -91 205 -91q127 0 200.5 57.5t122.5 192.5q17 45 25 145.5t8 276.5v623q25 -4 36 -6t34 -2q18 0 39.5 3t33.5 5v-729q0 -230 -24 -330q-39 -164 -168 -264
q-70 -60 -157 -85.5t-187 -25.5q-189 0 -318 72q-157 88 -202 272q-15 62 -22 122t-7 132zM540 -279q0 66 47 113t113 47q65 0 114.5 -47t49.5 -113q0 -67 -48.5 -115t-115.5 -48q-66 0 -113 49t-47 114z" />
    <glyph glyph-name="uni1EE5" unicode="&#x1ee5;" horiz-adv-x="1048" 
d="M934 983v-995q-66 6 -131 12q-27 0 -63 -4t-69 -8v151q-67 -73 -98 -98q-86 -70 -201 -70q-79 0 -149 32t-113 95q-30 47 -43.5 112.5t-13.5 137.5l4 70v565l135 -8q25 0 79 4t61 4v-565q0 -92 3 -115.5t17 -52.5q20 -53 53 -80t86 -27q113 0 150 105q22 63 22 203v532
q33 -4 64 -6t71 -2q33 0 73 3t63 5zM362 -279q0 66 47 113t113 47t115 -47t49 -113q0 -67 -48 -115t-116 -48q-66 0 -113 49t-47 114z" />
    <glyph glyph-name="uni1EE6" unicode="&#x1ee6;" horiz-adv-x="1396" 
d="M159 561v836q68 -6 135 -13q68 7 135 13v-582q0 -98 1 -199.5t12 -189.5q20 -100 30 -127q21 -57 68 -106q84 -91 205 -91q127 0 200.5 57.5t122.5 192.5q17 45 25 145.5t8 276.5v623q25 -4 36 -6t34 -2q18 0 39.5 3t33.5 5v-729q0 -230 -24 -330q-39 -164 -168 -264
q-70 -60 -157 -85.5t-187 -25.5q-189 0 -318 72q-157 88 -202 272q-15 62 -22 122t-7 132zM1002 1890l2 -18l-2 -43q0 -41 -59 -96q-43 -41 -106 -78q-39 -19 -56 -41q-14 -27 -18 -35l-8 -35v-28h-52v83q0 29 95 144q45 55 45 115q0 24 -16.5 61t-39.5 49q-24 19 -73 19
q-9 0 -30.5 -17.5t-27.5 -23.5q25 -19 36 -33.5t11 -36.5q0 -37 -31.5 -64.5t-70.5 -27.5q-37 0 -61.5 26.5t-24.5 65.5l4 22q25 52 70 87q69 53 174 53q112 0 178 -53q45 -37 61 -95z" />
    <glyph glyph-name="uni1EE7" unicode="&#x1ee7;" horiz-adv-x="1048" 
d="M934 983v-995q-66 6 -131 12q-27 0 -63 -4t-69 -8v151q-67 -73 -98 -98q-86 -70 -201 -70q-79 0 -149 32t-113 95q-30 47 -43.5 112.5t-13.5 137.5l4 70v565l135 -8q25 0 79 4t61 4v-565q0 -92 3 -115.5t17 -52.5q20 -53 53 -80t86 -27q113 0 150 105q22 63 22 203v532
q33 -4 64 -6t71 -2q33 0 73 3t63 5zM772 1464l2 -18l-2 -43q0 -41 -60 -96q-43 -41 -106 -78q-39 -19 -56 -41q-14 -27 -18 -35l-8 -35v-28h-51v84q0 28 94 143q45 55 45 115q0 24 -16.5 61t-38.5 49q-25 19 -74 19q-8 0 -29.5 -17.5t-27.5 -23.5q24 -19 35.5 -33t11.5 -37
q0 -37 -32 -64.5t-71 -27.5q-37 0 -61.5 26.5t-24.5 65.5l4 23q25 51 70 86q70 53 174 53q113 0 178 -53q45 -37 62 -95z" />
    <glyph glyph-name="uni1EE8" unicode="&#x1ee8;" horiz-adv-x="1396" 
d="M961 1890q31 19 76 19q41 0 65.5 -27t24.5 -63q0 -43 -35 -76q-16 -14 -72 -47l-266 -168h-115l262 307q39 43 60 55zM1244 1368h25q25 0 45 21q16 24 16 65q0 19 -20 45q-6 10 -37 12t-33 9v122q25 -4 36 -6t34 -2t45.5 4t48.5 4h62l-4 -32v-86q0 -58 -9.5 -93.5
t-44.5 -74.5q-12 -15 -30 -39q-5 -4 -31 -19q-8 -4 -50 -10t-53 -6v-614q0 -230 -24 -330q-39 -164 -168 -264q-70 -60 -157 -85.5t-187 -25.5q-189 0 -318 72q-157 88 -202 272q-15 62 -22 122t-7 132v836q68 -6 135 -13q68 7 135 13v-582q0 -98 1 -199.5t12 -189.5
q20 -100 30 -127q21 -57 68 -106q84 -91 205 -91q127 0 200.5 57.5t122.5 192.5q17 45 25 145.5t8 276.5v623q25 -4 36 -6t34 -2q18 0 39.5 3t33.5 5v-29z" />
    <glyph glyph-name="uni1EE9" unicode="&#x1ee9;" horiz-adv-x="1048" 
d="M722.5 1477.5q28.5 17.5 73.5 17.5q39 0 64.5 -25.5t25.5 -64.5q0 -41 -37 -74q-35 -24 -69 -49l-271 -164h-114l266 303q33 39 61.5 56.5zM934 950q32 6 41.5 8.5t25 24t15.5 57.5q0 41 -13 54q-6 10 -36.5 12t-32.5 8v123q41 -8 65 -8l90 4h58l-4 -29v-94
q0 -45 -13.5 -85t-48.5 -83q-27 -33 -56.5 -45t-90.5 -12v-897q-66 6 -131 12q-27 0 -63 -4t-69 -8v151q-67 -73 -98 -98q-86 -70 -201 -70q-79 0 -149 32t-113 95q-30 47 -43.5 112.5t-13.5 137.5l4 70v565l135 -8q25 0 79 4t61 4v-565q0 -92 3 -115.5t17 -52.5
q20 -53 53 -80t86 -27q113 0 150 105q22 63 22 203v532q33 -4 64 -6t71 -2q33 0 73 3t63 5v-33z" />
    <glyph glyph-name="uni1EEA" unicode="&#x1eea;" horiz-adv-x="1396" 
d="M612 1835l262 -307h-115l-266 168q-55 33 -72 47q-35 33 -35 76q0 36 24.5 63t65.5 27q45 0 76 -19q21 -12 60 -55zM1244 1368h25q25 0 45 21q16 24 16 65q0 19 -20 45q-6 10 -37 12t-33 9v122q25 -4 36 -6t34 -2t45.5 4t48.5 4h62l-4 -32v-86q0 -58 -9.5 -93.5
t-44.5 -74.5q-12 -15 -30 -39q-5 -4 -31 -19q-8 -4 -50 -10t-53 -6v-614q0 -230 -24 -330q-39 -164 -168 -264q-70 -60 -157 -85.5t-187 -25.5q-189 0 -318 72q-157 88 -202 272q-15 62 -22 122t-7 132v836q68 -6 135 -13q68 7 135 13v-582q0 -98 1 -199.5t12 -189.5
q20 -100 30 -127q21 -57 68 -106q84 -91 205 -91q127 0 200.5 57.5t122.5 192.5q17 45 25 145.5t8 276.5v623q25 -4 36 -6t34 -2q18 0 39.5 3t33.5 5v-29z" />
    <glyph glyph-name="uni1EEB" unicode="&#x1eeb;" horiz-adv-x="1048" 
d="M397 1421l266 -303h-115l-270 164q-35 25 -70 49q-36 33 -36 74q0 39 25.5 64.5t64.5 25.5q45 0 73.5 -17.5t61.5 -56.5zM934 950q32 6 41.5 8.5t25 24t15.5 57.5q0 41 -13 54q-6 10 -36.5 12t-32.5 8v123q41 -8 65 -8l90 4h58l-4 -29v-94q0 -45 -13.5 -85t-48.5 -83
q-27 -33 -56.5 -45t-90.5 -12v-897q-66 6 -131 12q-27 0 -63 -4t-69 -8v151q-67 -73 -98 -98q-86 -70 -201 -70q-79 0 -149 32t-113 95q-30 47 -43.5 112.5t-13.5 137.5l4 70v565l135 -8q25 0 79 4t61 4v-565q0 -92 3 -115.5t17 -52.5q20 -53 53 -80t86 -27q113 0 150 105
q22 63 22 203v532q33 -4 64 -6t71 -2q33 0 73 3t63 5v-33z" />
    <glyph glyph-name="uni1EEC" unicode="&#x1eec;" horiz-adv-x="1396" 
d="M1002 1890l2 -18l-2 -43q0 -41 -59 -96q-43 -41 -106 -78q-39 -19 -56 -41q-14 -27 -18 -35l-8 -35v-28h-52v83q0 29 95 144q45 55 45 115q0 24 -16.5 61t-39.5 49q-24 19 -73 19q-9 0 -30.5 -17.5t-27.5 -23.5q25 -19 36 -33.5t11 -36.5q0 -37 -31.5 -64.5t-70.5 -27.5
q-37 0 -61.5 26.5t-24.5 65.5l4 22q25 52 70 87q69 53 174 53q112 0 178 -53q45 -37 61 -95zM1244 1368h25q25 0 45 21q16 24 16 65q0 19 -20 45q-6 10 -37 12t-33 9v122q25 -4 36 -6t34 -2t45.5 4t48.5 4h62l-4 -32v-86q0 -58 -9.5 -93.5t-44.5 -74.5q-12 -15 -30 -39
q-5 -4 -31 -19q-8 -4 -50 -10t-53 -6v-614q0 -230 -24 -330q-39 -164 -168 -264q-70 -60 -157 -85.5t-187 -25.5q-189 0 -318 72q-157 88 -202 272q-15 62 -22 122t-7 132v836q68 -6 135 -13q68 7 135 13v-582q0 -98 1 -199.5t12 -189.5q20 -100 30 -127q21 -57 68 -106
q84 -91 205 -91q127 0 200.5 57.5t122.5 192.5q17 45 25 145.5t8 276.5v623q25 -4 36 -6t34 -2q18 0 39.5 3t33.5 5v-29z" />
    <glyph glyph-name="uni1EED" unicode="&#x1eed;" horiz-adv-x="1048" 
d="M772 1464l2 -18l-2 -43q0 -41 -60 -96q-43 -41 -106 -78q-39 -19 -56 -41q-14 -27 -18 -35l-8 -35v-28h-51v84q0 28 94 143q45 55 45 115q0 24 -16.5 61t-38.5 49q-25 19 -74 19q-8 0 -29.5 -17.5t-27.5 -23.5q24 -19 35.5 -33t11.5 -37q0 -37 -32 -64.5t-71 -27.5
q-37 0 -61.5 26.5t-24.5 65.5l4 23q25 51 70 86q70 53 174 53q113 0 178 -53q45 -37 62 -95zM934 950q32 6 41.5 8.5t25 24t15.5 57.5q0 41 -13 54q-6 10 -36.5 12t-32.5 8v123q41 -8 65 -8l90 4h58l-4 -29v-94q0 -45 -13.5 -85t-48.5 -83q-27 -33 -56.5 -45t-90.5 -12v-897
q-66 6 -131 12q-27 0 -63 -4t-69 -8v151q-67 -73 -98 -98q-86 -70 -201 -70q-79 0 -149 32t-113 95q-30 47 -43.5 112.5t-13.5 137.5l4 70v565l135 -8q25 0 79 4t61 4v-565q0 -92 3 -115.5t17 -52.5q20 -53 53 -80t86 -27q113 0 150 105q22 63 22 203v532q33 -4 64 -6t71 -2
q33 0 73 3t63 5v-33z" />
    <glyph glyph-name="uni1EEE" unicode="&#x1eee;" horiz-adv-x="1396" 
d="M1026 1827h73q-22 -115 -65 -176q-57 -82 -152 -82q-39 0 -71 12q-9 4 -62 30.5t-78 37.5q-49 22 -75 22q-41 0 -61.5 -34.5t-20.5 -63.5h-74q0 106 74 188q59 66 143 66q47 0 107 -27q43 -22 61 -31q31 -18 57.5 -29t49.5 -11q34 0 59 30q14 19 35 68zM1244 1368h25
q25 0 45 21q16 24 16 65q0 19 -20 45q-6 10 -37 12t-33 9v122q25 -4 36 -6t34 -2t45.5 4t48.5 4h62l-4 -32v-86q0 -58 -9.5 -93.5t-44.5 -74.5q-12 -15 -30 -39q-5 -4 -31 -19q-8 -4 -50 -10t-53 -6v-614q0 -230 -24 -330q-39 -164 -168 -264q-70 -60 -157 -85.5t-187 -25.5
q-189 0 -318 72q-157 88 -202 272q-15 62 -22 122t-7 132v836q68 -6 135 -13q68 7 135 13v-582q0 -98 1 -199.5t12 -189.5q20 -100 30 -127q21 -57 68 -106q84 -91 205 -91q127 0 200.5 57.5t122.5 192.5q17 45 25 145.5t8 276.5v623q25 -4 36 -6t34 -2q18 0 39.5 3t33.5 5
v-29z" />
    <glyph glyph-name="uni1EEF" unicode="&#x1eef;" horiz-adv-x="1048" 
d="M780 1393h74q-23 -115 -66 -176q-57 -82 -151 -82q-39 0 -72 12q-8 4 -61.5 30.5t-77.5 36.5q-49 23 -76 23q-41 0 -61.5 -35t-20.5 -63h-74q0 106 74 188q59 66 143 66q48 0 107 -27q43 -23 61 -31q31 -18 57.5 -29.5t49.5 -11.5q35 0 59 31q15 18 35 68zM934 950
q32 6 41.5 8.5t25 24t15.5 57.5q0 41 -13 54q-6 10 -36.5 12t-32.5 8v123q41 -8 65 -8l90 4h58l-4 -29v-94q0 -45 -13.5 -85t-48.5 -83q-27 -33 -56.5 -45t-90.5 -12v-897q-66 6 -131 12q-27 0 -63 -4t-69 -8v151q-67 -73 -98 -98q-86 -70 -201 -70q-79 0 -149 32t-113 95
q-30 47 -43.5 112.5t-13.5 137.5l4 70v565l135 -8q25 0 79 4t61 4v-565q0 -92 3 -115.5t17 -52.5q20 -53 53 -80t86 -27q113 0 150 105q22 63 22 203v532q33 -4 64 -6t71 -2q33 0 73 3t63 5v-33z" />
    <glyph glyph-name="uni1EF0" unicode="&#x1ef0;" horiz-adv-x="1396" 
d="M540 -279q0 66 47 113t113 47q65 0 114.5 -47t49.5 -113q0 -67 -48.5 -115t-115.5 -48q-66 0 -113 49t-47 114zM1244 1368h25q25 0 45 21q16 24 16 65q0 19 -20 45q-6 10 -37 12t-33 9v122q25 -4 36 -6t34 -2t45.5 4t48.5 4h62l-4 -32v-86q0 -58 -9.5 -93.5t-44.5 -74.5
q-12 -15 -30 -39q-5 -4 -31 -19q-8 -4 -50 -10t-53 -6v-614q0 -230 -24 -330q-39 -164 -168 -264q-70 -60 -157 -85.5t-187 -25.5q-189 0 -318 72q-157 88 -202 272q-15 62 -22 122t-7 132v836q68 -6 135 -13q68 7 135 13v-582q0 -98 1 -199.5t12 -189.5q20 -100 30 -127
q21 -57 68 -106q84 -91 205 -91q127 0 200.5 57.5t122.5 192.5q17 45 25 145.5t8 276.5v623q25 -4 36 -6t34 -2q18 0 39.5 3t33.5 5v-29z" />
    <glyph glyph-name="uni1EF1" unicode="&#x1ef1;" horiz-adv-x="1048" 
d="M362 -279q0 66 47 113t113 47t115 -47t49 -113q0 -67 -48 -115t-116 -48q-66 0 -113 49t-47 114zM934 950q32 6 41.5 8.5t25 24t15.5 57.5q0 41 -13 54q-6 10 -36.5 12t-32.5 8v123q41 -8 65 -8l90 4h58l-4 -29v-94q0 -45 -13.5 -85t-48.5 -83q-27 -33 -56.5 -45
t-90.5 -12v-897q-66 6 -131 12q-27 0 -63 -4t-69 -8v151q-67 -73 -98 -98q-86 -70 -201 -70q-79 0 -149 32t-113 95q-30 47 -43.5 112.5t-13.5 137.5l4 70v565l135 -8q25 0 79 4t61 4v-565q0 -92 3 -115.5t17 -52.5q20 -53 53 -80t86 -27q113 0 150 105q22 63 22 203v532
q33 -4 64 -6t71 -2q33 0 73 3t63 5v-33z" />
    <glyph glyph-name="Ygrave" unicode="&#x1ef2;" horiz-adv-x="1376" 
d="M827 623v-635q-27 0 -78 6t-78 6q-25 0 -76 -6t-76 -6v594q-45 71 -161 268q-97 162 -162 272q-80 138 -160 275q49 0 91 -4t102 -9q32 0 97.5 6.5t98.5 6.5q84 -158 184 -365q52 -102 80 -155q37 -70 56 -91q61 72 204 363q70 141 119 248q27 -4 50.5 -6t56.5 -2
q26 0 57 3t49 5q-74 -123 -155 -258q-107 -176 -156 -258q-86 -148 -143 -258zM611 1835l263 -307h-115l-266 168q-56 33 -72 47q-35 33 -35 76q0 36 24.5 63t65.5 27q45 0 76 -19q21 -12 59 -55z" />
    <glyph glyph-name="ygrave" unicode="&#x1ef3;" 
d="M192 -532l262 528l-414 987q25 0 86 -4t70 -4q24 0 85.5 4t69.5 4q54 -152 88.5 -245t157.5 -390l78 209q41 107 59 158q47 125 97 268q22 -4 41.5 -4h39.5h33h27q18 4 26 4l-208 -467q-129 -295 -223.5 -524.5t-202.5 -523.5q-23 4 -41.5 6t-44.5 2q-21 0 -46.5 -3
t-39.5 -5zM396 1421l266 -303h-114l-271 164q-34 25 -69 49q-37 33 -37 74q0 39 25.5 64.5t64.5 25.5q45 0 73.5 -17.5t61.5 -56.5z" />
    <glyph glyph-name="uni1EF4" unicode="&#x1ef4;" horiz-adv-x="1376" 
d="M827 623v-635q-27 0 -78 6t-78 6q-25 0 -76 -6t-76 -6v594q-45 71 -161 268q-97 162 -162 272q-80 138 -160 275q49 0 91 -4t102 -9q32 0 97.5 6.5t98.5 6.5q84 -158 184 -365q52 -102 80 -155q37 -70 56 -91q61 72 204 363q70 141 119 248q27 -4 50.5 -6t56.5 -2
q26 0 57 3t49 5q-74 -123 -155 -258q-107 -176 -156 -258q-86 -148 -143 -258zM511 -279q0 66 47 113t113 47q65 0 114.5 -47t49.5 -113q0 -67 -48.5 -115t-115.5 -48q-66 0 -113 49t-47 114z" />
    <glyph glyph-name="uni1EF5" unicode="&#x1ef5;" 
d="M192 -532l262 528l-414 987q25 0 86 -4t70 -4q24 0 85.5 4t69.5 4q54 -152 88.5 -245t157.5 -390l78 209q41 107 59 158q47 125 97 268q22 -4 41.5 -4h39.5h33h27q18 4 26 4l-208 -467q-129 -295 -223.5 -524.5t-202.5 -523.5q-23 4 -41.5 6t-44.5 2q-21 0 -46.5 -3
t-39.5 -5zM593 -279q0 66 47 113t113 47q65 0 114.5 -47t49.5 -113q0 -67 -48.5 -115t-115.5 -48q-66 0 -113 49t-47 114z" />
    <glyph glyph-name="uni1EF6" unicode="&#x1ef6;" horiz-adv-x="1376" 
d="M827 623v-635q-27 0 -78 6t-78 6q-25 0 -76 -6t-76 -6v594q-45 71 -161 268q-97 162 -162 272q-80 138 -160 275q49 0 91 -4t102 -9q32 0 97.5 6.5t98.5 6.5q84 -158 184 -365q52 -102 80 -155q37 -70 56 -91q61 72 204 363q70 141 119 248q27 -4 50.5 -6t56.5 -2
q26 0 57 3t49 5q-74 -123 -155 -258q-107 -176 -156 -258q-86 -148 -143 -258zM1002 1890l2 -18l-2 -43q0 -41 -59 -96q-43 -41 -107 -78q-39 -19 -55 -41q-14 -27 -18 -35l-9 -35v-28h-51v83q0 29 94 144q46 55 46 115q0 24 -16.5 61t-39.5 49q-24 19 -73 19
q-9 0 -30.5 -17.5t-27.5 -23.5q25 -19 36 -33.5t11 -36.5q0 -37 -31.5 -64.5t-70.5 -27.5q-37 0 -61.5 26.5t-24.5 65.5l4 22q25 52 70 87q69 53 174 53q112 0 178 -53q45 -37 61 -95z" />
    <glyph glyph-name="uni1EF7" unicode="&#x1ef7;" 
d="M192 -532l262 528l-414 987q25 0 86 -4t70 -4q24 0 85.5 4t69.5 4q54 -152 88.5 -245t157.5 -390l78 209q41 107 59 158q47 125 97 268q22 -4 41.5 -4h39.5h33h27q18 4 26 4l-208 -467q-129 -295 -223.5 -524.5t-202.5 -523.5q-23 4 -41.5 6t-44.5 2q-21 0 -46.5 -3
t-39.5 -5zM820 1464l2 -18l-2 -43q0 -41 -59 -96q-43 -41 -107 -78q-39 -19 -55 -41q-15 -27 -19 -35l-8 -35v-28h-51v84q0 28 94 143q45 55 45 115q0 24 -16.5 61t-38.5 49q-25 19 -74 19q-8 0 -29.5 -17.5t-27.5 -23.5q24 -19 35.5 -33t11.5 -37q0 -37 -32 -64.5
t-70 -27.5q-37 0 -62 26.5t-25 65.5l5 23q24 51 69 86q70 53 174 53q113 0 178 -53q46 -37 62 -95z" />
    <glyph glyph-name="uni1EF8" unicode="&#x1ef8;" horiz-adv-x="1376" 
d="M827 623v-635q-27 0 -78 6t-78 6q-25 0 -76 -6t-76 -6v594q-45 71 -161 268q-97 162 -162 272q-80 138 -160 275q49 0 91 -4t102 -9q32 0 97.5 6.5t98.5 6.5q84 -158 184 -365q52 -102 80 -155q37 -70 56 -91q61 72 204 363q70 141 119 248q27 -4 50.5 -6t56.5 -2
q26 0 57 3t49 5q-74 -123 -155 -258q-107 -176 -156 -258q-86 -148 -143 -258zM1026 1827h73q-22 -115 -65 -176q-58 -82 -152 -82q-39 0 -71 12q-9 4 -62 30.5t-78 37.5q-49 22 -75 22q-41 0 -61.5 -34.5t-20.5 -63.5h-74q0 106 74 188q59 66 143 66q47 0 106 -27
q43 -22 62 -31q31 -18 57.5 -29t48.5 -11q35 0 60 30q14 19 35 68z" />
    <glyph glyph-name="uni1EF9" unicode="&#x1ef9;" 
d="M192 -532l262 528l-414 987q25 0 86 -4t70 -4q24 0 85.5 4t69.5 4q54 -152 88.5 -245t157.5 -390l78 209q41 107 59 158q47 125 97 268q22 -4 41.5 -4h39.5h33h27q18 4 26 4l-208 -467q-129 -295 -223.5 -524.5t-202.5 -523.5q-23 4 -41.5 6t-44.5 2q-21 0 -46.5 -3
t-39.5 -5zM896 1393h74q-22 -115 -65 -176q-58 -82 -152 -82q-39 0 -72 12l-61 30.5t-78 36.5q-49 23 -76 23q-41 0 -61.5 -35t-20.5 -63h-73q0 106 73 188q60 66 144 66q47 0 106 -27q43 -23 62 -31q30 -18 57 -29.5t49 -11.5q35 0 60 31q14 18 34 68z" />
    <glyph glyph-name="quoteleft" unicode="&#x2018;" horiz-adv-x="589" 
d="M495 1421l-90 -377q-13 -51 -25 -98t-33.5 -98t-51.5 -74.5t-83 -23.5t-94 36.5t-41 85.5q0 35 20 70q58 88 127 191q15 22 222 313z" />
    <glyph glyph-name="quoteright" unicode="&#x2019;" horiz-adv-x="589" 
d="M73 782l94 381q12 49 25.5 100.5t34 99.5t49 69.5t80.5 21.5q53 0 94 -39t41 -88q0 -39 -17 -65q-163 -238 -352 -500z" />
    <glyph glyph-name="quotedblleft" unicode="&#x201c;" 
d="M512 1421l-94 -377q-13 -51 -25 -99t-33 -101q-22 -49 -51 -71.5t-80 -22.5q-55 0 -97 36.5t-42 85.5q0 35 20 70q80 119 175 254q118 166 178 250zM934 1421l-90 -377q-13 -51 -25 -98t-33.5 -98t-51.5 -74.5t-83 -23.5t-94 36.5t-41 85.5q0 35 20 70q58 88 127 191
q15 22 222 313z" />
    <glyph glyph-name="quotedblright" unicode="&#x201d;" 
d="M516 782l90 381q12 49 25.5 99.5t36.5 97.5q34 94 131 94q53 0 92 -39t39 -88q0 -39 -17 -65q-57 -86 -127 -189q-82 -119 -221 -311zM90 782l94 381q12 49 25.5 100.5t34 99.5t49 69.5t80.5 21.5q53 0 94 -39t41 -88q0 -39 -17 -65q-163 -238 -352 -500z" />
    <glyph glyph-name="ellipsis" unicode="&#x2026;" horiz-adv-x="1586" 
d="M282 -29q-68 0 -116 50.5t-48 117.5q0 68 48 118t116 50q69 0 120.5 -49t51.5 -119q0 -71 -50 -119.5t-122 -48.5zM793 -29q-68 0 -116 50.5t-48 117.5q0 68 48 118t116 50q69 0 120.5 -49t51.5 -119q0 -71 -50 -119.5t-122 -48.5zM1275 -30q-68 0 -116 50.5t-48 117.5
q0 68 48 118t116 50q69 0 120.5 -49t51.5 -119q0 -71 -50 -119.5t-122 -48.5z" />
    <glyph glyph-name="ugrave" horiz-adv-x="582" 
 />
    <glyph glyph-name="uacute" horiz-adv-x="580" 
 />
    <glyph glyph-name="yacute" horiz-adv-x="629" 
 />
    </font>
</defs>
</svg>
