<svg xmlns="http://www.w3.org/2000/svg">
<defs>
<font id="UTMTrajanProBoldRegular" horiz-adv-x="1294" >
  <font-face 
    font-family="UTMTrajanProBoldRegular"
    font-weight="400"
    font-stretch="normal"
    units-per-em="2048"
    panose-1="2 4 6 3 5 5 6 2 2 4"
    ascent="1638"
    descent="-410"
    x-height="1311"
    cap-height="1542"
    bbox="-131 -535 4942 2363"
    underline-thickness="109"
    underline-position="-359"
    unicode-range="U+0020-2026"
  />
<missing-glyph horiz-adv-x="5040" 
d="M3351 2045h10q37 -10 37 -52q0 -12 -32 -57h-28q0 24 28 54l2 10q-5 13 -10 15h-9q-8 0 -10 -19h-30q6 49 42 49zM2019 2016l29 -31q0 -16 -40 -30h-19l-59 12l-11 -12l-28 25q11 29 43 29h11l42 -11h2q10 0 30 18zM468 1980h142v-60h-94v-75h89v-59h-89v-129l-5 -5h-49
v323zM1155 1980h43l6 -5v-78h30v-52h-30v-188l-6 -5h-49v193h-25v52h25v78zM1621 1980h42l4 -5v-94h3q23 24 54 24h2q58 0 83 -71l2 -39v-143h-52v115q0 80 -42 80h-7q-43 0 -43 -86v-109h-51v323zM2200 1980h49l5 -5v-222q10 -51 45 -51q44 7 44 59v214l5 5h49v-216
q0 -85 -66 -112q-15 -8 -35 -8q-47 0 -82 55q-14 24 -14 57v224zM2435 1980h159v-60h-56v-268h-53v268h-55v55zM2621 1980h71q7 -4 83 -251h2l80 251h73v-328h-54v242h-2l-74 -242h-44q-4 0 -58 182l-19 60h-3v-242h-55v328zM3760 1980h52v-328h-45l-5 5v11l3 2l-3 14
q-29 -40 -78 -40q-67 0 -100 91l-5 39v3q0 94 92 125l23 3q35 0 63 -32h3v107zM2057 1928h36l4 -6v-49h-45v-221h-48v23q-23 -31 -59 -31q-89 14 -89 97v156h51v-104q0 -79 26 -86l18 -5h6q26 0 39 36l3 26v133h53v25zM3476 1928v-55h-31v-221h-47v25h-2q-15 -33 -57 -33
q-68 0 -86 78l-3 29v146h52v-120q0 -50 19 -68l21 -7h9q42 0 42 69v126h27q4 0 4 28l3 3h49zM758 1905q68 0 103 -77q9 -18 12 -54q0 -88 -90 -127l-32 -3q-63 0 -101 73q-12 22 -12 52v10q0 94 101 126h19zM1011 1905h3q74 0 83 -101v-152h-51v119q0 76 -42 76h-5
q-44 0 -44 -76v-119h-52v245h46v-21q30 29 62 29zM1466 1905h7q72 0 105 -89h-60q-16 31 -42 31h-17q-53 -14 -53 -61l-3 -15q12 -69 61 -69h9q22 0 47 27h40l2 3h3l2 -3l2 3l3 -3l2 3l2 -7q-33 -81 -110 -81q-76 0 -110 94l-4 36v3q0 85 77 120q15 8 37 8zM3141 1905h2

<glyph glyph-name=".notdef" horiz-adv-x="5040" 
d="M3351 2045h10q37 -10 37 -52q0 -12 -32 -57h-28q0 24 28 54l2 10q-5 13 -10 15h-9q-8 0 -10 -19h-30q6 49 42 49zM2019 2016l29 -31q0 -16 -40 -30h-19l-59 12l-11 -12l-28 25q11 29 43 29h11l42 -11h2q10 0 30 18zM468 1980h142v-60h-94v-75h89v-59h-89v-129l-5 -5h-49
v323zM1155 1980h43l6 -5v-78h30v-52h-30v-188l-6 -5h-49v193h-25v52h25v78zM1621 1980h42l4 -5v-94h3q23 24 54 24h2q58 0 83 -71l2 -39v-143h-52v115q0 80 -42 80h-7q-43 0 -43 -86v-109h-51v323zM2200 1980h49l5 -5v-222q10 -51 45 -51q44 7 44 59v214l5 5h49v-216
q0 -85 -66 -112q-15 -8 -35 -8q-47 0 -82 55q-14 24 -14 57v224zM2435 1980h159v-60h-56v-268h-53v268h-55v55zM2621 1980h71q7 -4 83 -251h2l80 251h73v-328h-54v242h-2l-74 -242h-44q-4 0 -58 182l-19 60h-3v-242h-55v328zM3760 1980h52v-328h-45l-5 5v11l3 2l-3 14
q-29 -40 -78 -40q-67 0 -100 91l-5 39v3q0 94 92 125l23 3q35 0 63 -32h3v107zM2057 1928h36l4 -6v-49h-45v-221h-48v23q-23 -31 -59 -31q-89 14 -89 97v156h51v-104q0 -79 26 -86l18 -5h6q26 0 39 36l3 26v133h53v25zM3476 1928v-55h-31v-221h-47v25h-2q-15 -33 -57 -33
q-68 0 -86 78l-3 29v146h52v-120q0 -50 19 -68l21 -7h9q42 0 42 69v126h27q4 0 4 28l3 3h49zM758 1905q68 0 103 -77q9 -18 12 -54q0 -88 -90 -127l-32 -3q-63 0 -101 73q-12 22 -12 52v10q0 94 101 126h19zM1011 1905h3q74 0 83 -101v-152h-51v119q0 76 -42 76h-5
q-44 0 -44 -76v-119h-52v245h46v-21q30 29 62 29zM1466 1905h7q72 0 105 -89h-60q-16 31 -42 31h-17q-53 -14 -53 -61l-3 -15q12 -69 61 -69h9q22 0 47 27h40l2 3h3l2 -3l2 3l3 -3l2 3l2 -7q-33 -81 -110 -81q-76 0 -110 94l-4 36v3q0 85 77 120q15 8 37 8zM3141 1905h2
q49 0 70 -60v-14h-52q0 16 -16 16h-4q-14 0 -19 -13v-13q0 -9 68 -35q30 -19 30 -59q0 -58 -61 -80l-23 -3q-76 12 -76 83h54q0 -20 27 -25h4q19 0 24 23q0 22 -68 44q-34 27 -34 59q0 66 74 77zM4203 1905q55 0 77 -63q7 -18 7 -65v-125h-52v112q0 83 -40 83h-11
q-33 0 -40 -54v-141h-52v5h-2l2 2v238h47v-21q25 29 64 29zM4432 1905h5q40 0 69 -40v18l-3 3l3 11h47v-208q0 -97 -85 -132l-33 -4h-7q-70 0 -104 80h59q24 -22 45 -23h13q22 0 43 22q15 13 22 52h-3q-32 -40 -73 -40q-57 0 -96 70q-10 18 -14 63q0 88 87 125zM3851 1897
h53v-136q6 -59 40 -59h7q46 0 46 93v102h51v-245h-47l-3 10h3l-3 3v5l3 2v3h-4q0 -23 -57 -31h-3q-59 0 -84 75l-2 85v93zM690 1771q10 -69 63 -69h7q59 14 59 65v15q-13 65 -59 65h-5q-58 0 -65 -76zM3630 1774q13 -72 61 -72h5q58 0 66 75q0 49 -51 70h-22q-37 0 -56 -57z
M4374 1774q8 -72 65 -72h5q59 12 59 72q0 61 -59 73h-14q-56 -16 -56 -62v-11zM3928 1620h52v-57h-52v57zM1054 1402q43 -11 43 -49v-4q0 -17 -32 -60h-28q0 25 31 57v7q0 12 -7 15h-12q-10 -4 -10 -19h-28v6q0 32 33 44zM3349 1339q92 0 138 -99h-60q-37 42 -80 42
q-55 0 -87 -68q-10 -22 -10 -47q0 -78 81 -110l18 -1q36 0 75 39h61q-44 -97 -138 -97q-93 0 -141 112q-10 31 -10 62q0 97 90 152q29 15 63 15zM3664 1339q57 0 103 -47q46 -51 46 -115v-20q0 -89 -91 -146q-33 -13 -63 -13q-89 0 -138 101q-13 33 -13 60v18q0 98 98 151
q29 11 58 11zM2261 1337h2l47 -11h3q11 0 26 11l18 -36q-18 -19 -35 -19h-3l-54 10l-20 -7l-20 36q18 16 36 16zM716 1334h19q118 0 129 -26q25 -26 25 -62q-10 -57 -30 -57v-6q47 -23 47 -66v-18q0 -63 -69 -88l-54 -5h-67v328zM2550 1334h53v-217q6 -61 45 -61q29 0 44 39
l3 30v203l4 6h45l5 -6v-171q0 -118 -40 -133q-24 -26 -64 -26q-55 0 -91 76l-4 54v206zM2805 1334h59q4 0 122 -237h4v237h50l4 -6v-322h-58q-29 48 -125 238h-3v-238h-53v328zM3101 1334h54v-328h-54v328zM3859 1334h8q155 0 174 -40q23 -11 47 -75l4 -36v-11l3 -2
q0 -94 -82 -149q-35 -15 -99 -15h-55v328zM4141 1334h153v-60h-103v-75h101v-57h-101v-74l4 -5h99v-57h-157v322zM3563 1175v-10q0 -76 79 -108l19 -1q68 0 96 86l3 20v15q0 61 -60 94q-12 8 -39 11q-66 0 -96 -83zM770 1274v-67h9q54 0 54 28l3 14q-11 25 -29 25h-37z
M3912 1274v-206l2 -3v-2q104 0 122 76l2 15v29q0 34 -32 68q-25 23 -78 23h-16zM1041 1259h5q38 0 71 -40v32h49v-245h-49v32q-36 -40 -80 -40q-75 0 -101 97l-5 36q0 89 85 125zM1314 1259h3q74 0 83 -102v-151h-51v128q0 67 -42 67h-10q-34 0 -39 -62v-133h-52v245h47v-21
q28 29 61 29zM1543 1259h5q45 0 71 -40v32h47v-219q0 -95 -104 -126h-16q-74 0 -108 82h59q26 -25 44 -25h14q52 0 64 77q-33 -42 -76 -42q-60 0 -101 81l-7 44v16q0 79 85 117zM1912 1259h2q43 0 61 -37h2q32 37 69 37h4q57 0 79 -55q8 -25 8 -45v-153h-52v138q0 44 -23 55
l-12 2h-15q-32 0 -36 -65v-130h-52v136q0 59 -43 59h-8q-32 0 -36 -57v-138h-54v245h50v-21h2q6 24 54 29zM2282 1259q47 0 75 -42v34h47v-245h-47v32q-36 -40 -78 -40q-74 0 -102 92l-6 41q0 90 85 125zM985 1117q0 -48 61 -61h4q45 0 62 46l3 15v22q-12 62 -57 62h-14
q-41 0 -59 -57v-27zM1487 1128q0 -48 43 -68l18 -4h5q47 0 63 57v23q-11 65 -58 65h-12q-50 0 -59 -73zM2225 1131v-14q15 -61 57 -61h14q58 12 58 64v11q0 45 -37 65l-18 5h-10q-64 -8 -64 -70zM770 1150v-82q0 -5 7 -5q77 0 77 45q0 34 -47 42h-37zM2966 753l24 -28
l-51 -55q-18 12 -27 26zM1524 727l85 -54q0 -15 -21 -42l-87 54q18 41 23 42zM2850 693h38l55 -60h-54l-21 26l-23 -26h-54q54 60 59 60zM3422 693h40l56 -60h-54l-24 26h-1q0 -5 -19 -26h-54zM622 685h52q8 -4 47 -137l34 -110q9 8 34 100l48 147h54v-2l-112 -326h-44z
M1159 685h51v-54h-51v54zM1354 685h46l6 -5v-323h-52v328zM2317 685h45l4 -5v-78h31v-52h-31v-193h-53v193h-26v52h26v78zM2425 685h52v-98h2q23 23 54 23h3q57 0 81 -71l3 -38v-144h-52v115q0 81 -39 81h-10q-42 0 -42 -87v-109h-52v328zM2664 685h52v-54h-52v54zM3028 685
h44l6 -5v-78h29v-52h-29v-193h-54v193h-27v52h27v78zM3234 685h52v-328h-52v328zM3957 685h52v-328h-52v328zM4316 685h51v-54h-51v54zM1555 610h5q83 0 110 -102l3 -23v-11q0 -83 -85 -120l-35 -5q-76 0 -111 97l-4 32q0 97 93 130zM1811 610h4q53 0 78 -60q7 -25 7 -81
v-112h-54v146q-7 50 -37 50h-10q-38 0 -42 -57v-139h-54v245h49v-21q26 29 59 29zM2046 610h4q45 0 63 -39h3v31h49v-206q0 -102 -89 -135l-28 -3h-5q-73 0 -106 81h52l37 -20l15 -3h14q50 0 61 72q-33 -39 -73 -39q-62 0 -98 76q-11 23 -12 60q0 85 86 123zM2866 610h2
q82 0 111 -104l2 -25l-2 -27h-172q15 -45 45 -45l14 -3q29 0 49 22h57v-3q-35 -76 -108 -76q-77 0 -111 97l-1 28v8q0 49 32 89q34 39 82 39zM3429 610h5q41 0 70 -39h2v31h47v-245h-47v31h-2q-35 -39 -77 -39q-71 0 -101 89l-5 36v14q0 86 84 120zM3711 610h7
q88 0 107 -128l-2 -1v-15q0 -65 -66 -106q-21 -11 -46 -11q-34 0 -64 32v-99l-5 -5h-49v325h49v-28q31 36 69 36zM4151 610q44 0 75 -39v31h49v-245h-49v31q-35 -39 -77 -39q-92 0 -108 132q0 84 73 121q15 8 37 8zM922 602h50v-136q3 -60 42 -60h5q44 0 44 87v109h52v-245
h-47v24h-5q0 -23 -56 -32h-3q-55 0 -82 68q-4 35 -4 99v81zM1159 602h51v-245h-51v245zM2664 602h52v-245h-52v245zM4316 602h51v-245h-51v245zM1492 488v-16q13 -66 59 -66h4q59 0 66 76q-13 71 -59 71h-11q-59 -16 -59 -65zM1987 472q15 -66 59 -66h11q48 0 59 75v1
q-13 71 -59 71h-14q-39 0 -56 -57v-24zM2805 506h122v2q-16 45 -59 45h-7q-35 0 -56 -47zM3373 474q13 -68 61 -68h5q52 0 65 63v12q-10 72 -57 72h-16q-56 -14 -56 -63zM3642 478q12 -72 61 -72h3q50 0 65 60v22q0 43 -49 65h-22q-47 0 -58 -72v-3zM4095 472q10 -66 66 -66
q43 0 61 48l2 15v16q0 54 -52 68h-18q-42 0 -59 -60v-21zM3416 321h51v-52h-51v52zM4137 321h51v-52h-51v52zM2733 133h4q35 0 43 -50v-2q0 -16 -24 -41l-10 -17h-28q0 25 28 56l3 2v2q-3 19 -9 19h-10q-8 0 -9 -19h-30q6 50 42 50zM1546 116l52 -60l-26 -19l-52 52zM352 79
h4q75 -48 85 -60l-20 -37q-88 49 -88 58zM3490 79l86 -58l-18 -39q-10 0 -91 55q15 36 23 42zM4578 76l19 -42l-91 -52l-20 39l92 58v-3zM1204 53h51v-19l5 -5h14v-36h-14l-5 -5v-279h-46v31q-34 -40 -81 -40q-72 0 -102 105l-3 26q0 102 101 131h14q33 0 66 -33v59l-6 5
h-43v36h49v24zM1480 45h40l56 -61h-53l-23 27l-23 -27h-53zM2641 45h33q12 0 63 -61h-54l-23 27q-19 -21 -19 -27h-58v4zM49 37h160v-60h-56v-268h-50l-4 5v245l2 3v2l-2 2l2 3l-2 2l2 3l-2 3h-54v54zM699 37h47v-73l2 -2l-2 -3v-3l2 -2l-2 -3v-3l2 -2v-2l-2 -3l2 -3h3
q17 24 51 24h3q53 0 77 -58q7 -17 7 -42v-153h-52v127q0 68 -40 68h-8q-43 0 -43 -86v-109h-52v322zM1297 37h47l5 -6v-49h-52v55zM1987 37h52v-198l70 115h62l-78 -118l90 -125v-2h-70q-10 22 -74 115v-115h-52v328zM2271 37v-99q24 24 53 24q57 0 80 -56q10 -19 10 -77
v-120h-54v133q0 62 -41 62h-11q-31 0 -37 -55v-140h-53v314l-1 3v3l1 2l-1 3l1 3h53zM2458 37h51v-55h-51v55zM3148 37h51v-108q27 33 68 33h3q75 0 105 -94l5 -37q0 -75 -64 -120q-30 -11 -49 -11q-41 0 -72 40v-31h-47v328zM4275 37h52v-99h2q23 24 54 24h3q60 0 82 -74
l2 -41v-138h-52v111q0 82 -32 82l-10 2h-12q-37 0 -37 -80v-115h-52v328zM329 -38h3v-58h-5q-42 0 -42 -57v-138h-53v245h47v-21q18 29 50 29zM564 -38q71 0 86 -87v-166h-51v136q-6 59 -41 59h-6q-45 0 -45 -84v-111h-52v245h50v-21q25 29 59 29zM1504 -38q72 0 105 -94
l5 -39q-2 -24 -7 -24h-169q17 -47 62 -47q24 0 48 21h57q-33 -79 -108 -79q-82 0 -113 105v37q0 81 89 117zM2657 -38h5q77 0 107 -97l3 -26v-21l-3 -13h-170q18 -47 53 -47h12q21 0 42 21h59q-34 -79 -105 -79q-84 0 -115 102l-2 29q0 93 91 128zM2915 -38h4q54 0 78 -60
q7 -25 7 -82v-111h-54v138q0 48 -35 57h-11q-38 0 -43 -57v-138h-54v245h50v-21q25 29 58 29zM3508 -38h6q40 0 70 -40h2v32h47v-245h-47v31h-2q-34 -40 -78 -40q-71 0 -101 90l-4 37v12q0 82 77 117q11 6 30 6zM3781 -38h4q62 0 82 -78l3 -84v-91h-54v138q0 48 -38 57h-9
q-38 0 -42 -52v-143h-54v245h49v-21q26 29 59 29zM4133 -38h1q74 0 104 -93l4 -40q0 -88 -84 -126l-25 -3q-41 0 -68 34v-106h-52v326h47v-29q30 37 73 37zM4714 -38h5q34 0 63 -37q27 37 69 37h6q56 0 79 -66l6 -51v-136h-52v122q0 73 -39 73h-7q-35 0 -41 -50v-140l-5 -5
h-48v140q0 42 -31 55h-17q-40 0 -40 -77v-118h-51v245h47v-21q22 29 56 29zM359 -46h49l5 -6v-234l-5 -5h-49v245zM1297 -46h52v-245h-52v245zM1649 -46h52v-136q4 -60 43 -60h4q44 0 44 81v115h52v-245h-47v24h-5q-12 -33 -59 -33q-52 0 -79 63q-5 12 -5 34v157zM2458 -46
h51v-245h-51v245zM4515 -46h51v-245h-51v245zM1077 -169q0 -53 51 -73h12q54 0 66 66v10q0 53 -54 70h-17q-38 0 -58 -57v-16zM1438 -143h122q-18 47 -53 47h-7q-43 0 -62 -44v-3zM2599 -143h122q-21 47 -54 47h-7q-46 0 -61 -47zM3196 -158v-11q10 -73 61 -73h5q64 8 64 71
v5q0 45 -38 65l-18 5h-14q-60 -14 -60 -62zM3452 -173q14 -69 62 -69h11q41 0 59 60v13q-8 73 -56 73h-17q-47 0 -59 -73v-4zM4062 -158v-22q0 -47 59 -62h9q50 0 61 76q-13 70 -58 70h-15q-56 -17 -56 -62z" />
    <glyph glyph-name=".null" horiz-adv-x="0" 
 />
    <glyph glyph-name="nonmarkingreturn" horiz-adv-x="571" 
 />
    <glyph glyph-name="space" unicode=" " horiz-adv-x="512" 
 />
    <glyph glyph-name="exclam" unicode="!" horiz-adv-x="655" 
d="M215 80q0 43 26 78q33 39 88 39q115 0 115 -109q0 -123 -117 -123q-112 0 -112 115zM293 410q-7 82 -27 303l-39 422l-14 114q-8 60 -15 86l-10 31q-6 16 -6 23q0 16 10 32q33 41 90 78q45 31 95 51q45 21 77 21q19 0 19 -27l-23 -162q-6 -51 -10 -102l-57 -588
q-8 -80 -13 -137q-8 -66 -10 -102q-4 -43 -6 -52q-6 -65 -31 -65q-24 0 -30 74z" />
    <glyph glyph-name="quotedbl" unicode="&#x22;" horiz-adv-x="737" 
d="M327 1516q0 -9 -8 -37q0 -4 -2 -9l-9 -24q-6 -21 -10 -41q-14 -55 -24 -115q-15 -76 -23 -164q-12 -102 -29 -102q-16 0 -28 102q-8 88 -23 164q-10 60 -24 115q-4 20 -11 41l-8 24q-2 5 -2 9q-8 28 -8 37q0 30 104 30q105 0 105 -30zM618 1516q0 -9 -8 -37q0 -4 -3 -9
l-8 -24q-6 -21 -10 -41q-14 -55 -25 -115q-14 -76 -22 -164q-12 -102 -29 -102q-16 0 -28 102q-9 88 -23 164q-10 60 -25 115q-4 20 -10 41l-8 24q-2 5 -2 9q-8 28 -8 37q0 30 104 30q105 0 105 -30z" />
    <glyph glyph-name="numbersign" unicode="#" horiz-adv-x="1228" 
d="M927 942l-45 -307h230v-166h-252l-68 -469h-121l64 469h-311l-70 -469h-123l72 469h-244v166h266l47 307h-252v168h275l65 434h125l-67 -434h309l63 434h123l-63 -434h219v-168h-242zM497 942l-49 -307h313l43 307h-307z" />
    <glyph glyph-name="dollar" unicode="$" horiz-adv-x="1228" 
d="M602 -166q-3 -12 -21 -16l-63 -13q-17 -2 -15 21l21 174q-45 0 -117 10q-90 13 -141 33q-70 31 -70 88q0 74 12 158l19 90q12 49 30 49q11 0 15 -12q2 -10 0 -43q-8 -113 59 -187q84 -92 201 -92l65 604q-180 138 -251 236q-82 113 -82 252q0 174 147 278q127 90 287 90
l20 164q2 8 8 13q7 4 15 6l61 14q19 4 17 -10l-25 -187q64 0 135 -14q55 -10 90 -24q35 -13 35 -52q0 -108 -24 -225q-7 -29 -23 -29q-20 0 -20 39q-3 51 -11 78q-14 43 -51 80q-57 61 -139 61l-64 -555q84 -55 140 -102q65 -55 108 -111q92 -120 92 -278q0 -111 -47 -199
q-39 -76 -112 -131q-64 -45 -146 -69q-72 -23 -137 -23zM688 1468q-84 0 -148 -43q-90 -59 -90 -186q0 -76 55 -145q23 -31 58 -62q26 -24 69 -59zM634 94q103 6 168 80q68 72 68 182q0 88 -51 162q-43 62 -129 119z" />
    <glyph glyph-name="percent" unicode="%" horiz-adv-x="1777" 
d="M1042 121q-84 100 -84 239q0 160 86 267q102 125 291 125q180 0 280 -119q86 -103 86 -242q0 -158 -88 -266q-104 -125 -293 -125q-178 0 -278 121zM1525 362q0 121 -53 218q-60 102 -148 102q-92 0 -143 -88q-47 -78 -47 -205q0 -121 51 -215q57 -104 143 -104
q197 0 197 292zM505 -25q-33 -6 -20 27l651 1491q-293 -25 -451 -33v-4q131 -78 131 -282q0 -158 -90 -267q-102 -125 -289 -125q-178 0 -278 121q-84 101 -84 240q0 157 92 268q105 125 295 125q119 0 260 8q111 4 240 17q47 2 102 8l180 14q21 0 21 -8q0 -6 -6 -23
q-2 -2 -4 -8l-600 -1528q-9 -22 -21 -24zM642 1145q0 121 -53 217q-59 102 -147 102q-93 0 -144 -88q-47 -78 -47 -205q0 -120 51 -215q58 -104 144 -104q196 0 196 293z" />
    <glyph glyph-name="ampersand" unicode="&#x26;" horiz-adv-x="1699" 
d="M153 586q31 73 86 143q96 117 213 174q-60 80 -84 154q-19 59 -21 137q-2 141 115 250q64 59 154 90q102 37 229 37q141 0 248 -43q35 -12 35 -53q0 -150 -23 -263q-2 -20 -8 -28q-6 -6 -16 -6q-9 0 -13 8q-2 6 -2 31q0 102 -59 172q-35 41 -86 65q-62 27 -141 27
q-80 0 -142 -51q-78 -66 -78 -183q0 -125 109 -272q41 -55 108 -133l123 -133q25 -29 80 -82l256 -240l25 -20q37 51 65 133q33 96 33 182q0 61 -39 94q-18 17 -49 25q-23 6 -51 6q-25 0 -25 16q0 21 33 21q47 0 98 -2q70 -4 148 -13q69 -8 69 -41q0 -249 -200 -485
q90 -74 174 -131l61 -41l49 -29q121 -71 220 -71q28 0 28 -19q0 -18 -61 -18h-158q-176 0 -262 29q-90 28 -221 129l-29 -27l-37 -29q-47 -35 -96 -61q-66 -31 -139 -49q-86 -21 -185 -21q-155 0 -274 45q-105 41 -174 115q-62 63 -94 147q-27 72 -27 146q0 84 35 168z
M968 141q82 35 125 76q-82 70 -209 193q-113 108 -160 159q-51 56 -117 131l-61 72q-29 35 -41 53q-61 -45 -96 -112q-45 -86 -45 -199q0 -186 116 -305q113 -115 277 -115q104 0 211 47z" />
    <glyph glyph-name="quotesingle" unicode="'" horiz-adv-x="446" 
d="M160 1575q-15 35 -31 51q-14 14 -18 23q-5 6 -5 14q0 4 9 10q6 6 14 6q27 0 86 -14l84 -25q59 -16 59 -59q0 -88 -77 -231q-70 -129 -148 -207q-16 -17 -33 -17q-12 0 -12 13q0 6 10 26q33 64 53 140q27 94 27 180q0 45 -18 90z" />
    <glyph glyph-name="parenleft" unicode="(" horiz-adv-x="737" 
d="M395 158q69 -193 202 -363l11 -14q6 -8 6 -17q0 -14 -17 -14q-6 0 -20 10q-70 50 -139 121q-86 88 -152 191q-78 121 -121 252q-49 151 -49 307q0 155 53 315q47 135 129 262q68 107 152 197q69 74 125 111l12 8q6 4 12 4q15 0 15 -17q0 -10 -13 -22q-39 -47 -84 -121
q-53 -90 -94 -190q-49 -121 -76 -244q-32 -141 -32 -277q0 -274 80 -499z" />
    <glyph glyph-name="parenright" unicode=")" horiz-adv-x="737" 
d="M341 1120q-69 193 -203 363l-10 14q-6 8 -6 16q0 15 16 15q7 0 21 -10q69 -50 139 -121q86 -88 152 -191q78 -121 121 -252q49 -151 49 -307q0 -155 -54 -315q-47 -135 -129 -262q-67 -107 -151 -197q-70 -74 -125 -111l-12 -8q-7 -4 -13 -4q-14 0 -14 17q0 10 12 22
q39 47 84 121q54 90 94 190q50 121 76 244q33 141 33 277q0 274 -80 499z" />
    <glyph glyph-name="asterisk" unicode="*" horiz-adv-x="778" 
d="M370 1292q-4 -6 -12 -28q-10 -21 -20 -50q-25 -67 -31 -92l-6 -22q-4 -15 -4 -25q0 -16 -25 -16q-45 0 -92 20q-45 19 -45 33q0 12 20 35q15 20 95 88q30 27 59 49l37 27q6 6 6 12t-8 6q-29 6 -101 4q-59 0 -84 -2l-18 -2q-8 -2 -16 -2q-5 0 -11 16q-4 15 -8 41
q-6 50 -6 89q0 26 27 26q20 0 59 -18q31 -15 70 -41q73 -51 100 -80q6 -6 14 -2q2 4 2 14q-4 41 -30 115q-4 14 -11 29l-24 57q-2 6 -4 8q-4 8 -4 16q0 11 18 21q16 8 45 18q55 19 88 19q21 0 21 -23q0 -35 -25 -121q-16 -61 -43 -141q-4 -4 0 -12q2 -2 10 0q56 16 121 65
l23 19q10 6 18 16q8 4 17 12q6 9 8 9q14 20 28 20q7 0 17 -18q6 -17 14 -45q19 -60 19 -95q0 -14 -21 -16l-33 -2l-141 2l-61 4l-11 -4q-4 -4 2 -14q21 -29 88 -80q27 -23 52 -39q24 -16 32 -18q29 -7 29 -21q0 -10 -16 -29q-15 -16 -37 -37l-41 -28q-21 -12 -29 -12
q-14 0 -33 28q-45 101 -71 211l-2 4q0 2 -2 4q-2 4 -4 4q-7 0 -9 -6z" />
    <glyph glyph-name="plus" unicode="+" horiz-adv-x="1124" 
d="M626 457v-418h-131v418h-414v125h414v417h131v-417h416v-125h-416z" />
    <glyph glyph-name="comma" unicode="," horiz-adv-x="512" 
d="M184 244q51 43 101 43q18 0 51 -51q45 -66 45 -107q0 -37 -27 -98q-26 -62 -65 -129q-49 -90 -97 -144l-18 -16q-8 -8 -16 -8q-4 0 -11 6q-6 6 -6 14q0 6 6 19q2 0 4 4q3 2 3 4l4 8q59 102 59 178q0 70 -43 123l-16 16q0 3 -4 5l-9 12q-14 14 -14 22q0 52 53 99z" />
    <glyph glyph-name="hyphen" unicode="-" horiz-adv-x="870" 
d="M741 645q65 0 65 -29q0 -28 -92 -45q-82 -12 -268 -45l-160 -30q-76 -15 -100 -23q-23 -6 -56 -20l-20 -9q-10 -4 -14 -4q-25 0 -17 37l31 141q6 27 49 27h582z" />
    <glyph glyph-name="hyphen" unicode="&#x2010;" horiz-adv-x="870" 
d="M741 645q65 0 65 -29q0 -28 -92 -45q-82 -12 -268 -45l-160 -30q-76 -15 -100 -23q-23 -6 -56 -20l-20 -9q-10 -4 -14 -4q-25 0 -17 37l31 141q6 27 49 27h582z" />
    <glyph glyph-name="period" unicode="." horiz-adv-x="512" 
d="M131 125q0 45 29 82q37 43 96 43q125 0 125 -119q0 -131 -127 -131q-123 0 -123 125z" />
    <glyph glyph-name="slash" unicode="/" horiz-adv-x="1110" 
d="M42 8q-14 8 0 35l934 1516q13 20 29 10l74 -45q14 -6 2 -25l-940 -1526q-13 -20 -27 -12z" />
    <glyph glyph-name="zero" unicode="0" horiz-adv-x="1228" 
d="M1003 201q-146 -236 -406 -236q-143 0 -250 78q-94 68 -158 193q-55 106 -81 245q-25 121 -25 242q0 379 131 602q143 246 416 246q145 0 252 -72q94 -65 157 -184q56 -105 82 -244q23 -123 23 -256q0 -389 -141 -614zM828 1239q-86 240 -241 240q-264 0 -264 -678
q0 -139 16 -266q20 -136 55 -238q86 -240 242 -240q123 0 197 191q71 186 71 487q0 299 -76 504z" />
    <glyph glyph-name="one" unicode="1" horiz-adv-x="1228" 
d="M525 1210q0 74 -30 74q-15 0 -47 -12q-27 -10 -70 -31q-16 -6 -37 -16q-6 -4 -16 -8l-82 -37q-8 -2 -15 -2q-4 0 -10 6q-6 8 -6 16q0 17 20 29l371 244l117 81q8 5 12 9q17 8 27 8q24 0 24 -43l-10 -320q-2 -104 -2 -213v-520q0 -76 2 -129q0 -131 6 -190q8 -95 82 -111
l74 -8q45 -4 61 -4q19 0 19 -21q0 -18 -33 -18h-111l-159 4q-11 0 -17 2l-405 -6q-35 0 -35 18q0 21 16 21q23 0 76 4q64 4 88 10q74 16 82 109q14 147 10 460z" />
    <glyph glyph-name="two" unicode="2" horiz-adv-x="1269" 
d="M129 0q-11 0 -21 8q-8 8 -8 21q0 16 41 53l113 98q69 60 116 105q66 59 117 110q59 64 109 121q112 135 172 266q67 152 67 303q0 115 -28 197q-27 74 -74 119q-39 39 -90 59q-43 15 -88 15q-138 0 -217 -74q-86 -82 -86 -197q0 -39 -27 -39q-14 0 -19 39q-2 19 -6 109
q-4 43 -4 78l-2 61q0 25 25 41q69 35 147 55q99 23 223 23q256 0 394 -129q121 -115 121 -307q0 -140 -74 -287q-62 -127 -180 -260q-50 -58 -111 -117q-55 -53 -119 -109q-51 -45 -114 -96l-95 -76q-8 -8 -12 -10q-8 -6 -6 -10t10 -4l301 2q141 4 191 10q192 23 233 182
q8 33 25 33q10 0 14 -12q2 -8 2 -27q0 -24 -22 -133q-21 -106 -37 -160q-19 -61 -179 -61h-802z" />
    <glyph glyph-name="three" unicode="3" horiz-adv-x="1228" 
d="M153 14q-35 19 -35 58q0 178 14 256q6 39 23 39q18 0 18 -29q0 -109 76 -184q86 -88 231 -88q162 0 263 84q108 92 108 266q0 96 -41 174q-33 65 -94 117q-51 41 -115 67q-49 23 -96 31q-65 12 -65 35q0 22 36 28q41 9 88 29q60 27 105 66q57 45 88 104q37 70 37 154
q0 86 -58 157q-75 95 -215 95q-120 0 -202 -64q-82 -63 -82 -154q0 -30 -19 -30q-14 0 -16 28q-14 115 -14 205q0 27 28 39q70 31 144 49q106 25 219 25q137 0 237 -35q86 -29 144 -80q45 -45 67 -100q17 -45 17 -88q0 -70 -35 -138q-31 -59 -84 -110q-90 -88 -180 -121v-4
q141 -33 239 -121q125 -115 125 -282q0 -222 -174 -371q-182 -156 -473 -156q-223 0 -309 49z" />
    <glyph glyph-name="four" unicode="4" horiz-adv-x="1228" 
d="M81 403q-51 0 -51 31q0 17 10 33l13 16q4 2 4 4l794 1047q33 37 53 37q25 0 25 -35l-2 -973h158q18 0 37 4l45 13q8 4 12 4q18 0 18 -25q0 -63 -34 -129q-15 -27 -56 -27h-180v-114q0 -76 6 -133q10 -99 86 -115q19 -4 49 -6q25 -2 43 -2q19 0 19 -21q0 -18 -33 -18
l-225 4q-11 0 -17 2l-327 -6q-33 0 -33 18q0 21 16 21q47 0 97 6q90 10 96 117q6 57 6 133v114h-629zM710 1196h-6q-41 -59 -219 -307l-238 -326h463v633z" />
    <glyph glyph-name="five" unicode="5" horiz-adv-x="1228" 
d="M200 2q-39 21 -39 80v129q2 86 8 129q8 37 23 37q18 0 18 -35q0 -152 86 -219q68 -55 193 -55q137 0 231 88q107 100 107 286q0 115 -58 211q-51 82 -141 146q-76 53 -170 90q-80 29 -150 39q-38 6 -36 41l47 540q2 27 39 27h501q39 0 70 2q25 2 45 6q8 0 14 2q7 0 13 2
l14 2q20 0 20 -39q0 -38 -6 -98q-6 -76 -20 -164q-4 -24 -23 -24q-16 0 -16 28q0 54 -29 78q-39 33 -151 33h-373l-29 -250q123 -20 236 -59q125 -47 217 -113q106 -74 162 -168q63 -106 63 -233q0 -230 -157 -389q-89 -89 -211 -136q-136 -51 -306 -51q-114 0 -192 37z" />
    <glyph glyph-name="six" unicode="6" horiz-adv-x="1228" 
d="M235 121q-152 160 -152 432q0 301 213 586q215 286 547 420q28 12 45 12q24 0 24 -19q0 -12 -16 -24l-31 -19q-2 -2 -4 -2q-96 -53 -182 -137q-96 -92 -168 -209q-80 -127 -125 -272q-47 -162 -47 -338q0 -197 78 -338q88 -158 233 -158q113 0 183 84q75 90 75 260
q0 199 -94 312q-80 98 -194 98q-35 0 -62 -4l-63 -17q-4 0 -6 -2q-15 -4 -21 -4q-16 0 -16 21q0 10 6 18l16 13q105 73 266 73q199 0 318 -139q100 -119 100 -276q0 -234 -155 -383q-150 -144 -379 -144q-242 0 -389 156z" />
    <glyph glyph-name="seven" unicode="7" horiz-adv-x="1228" 
d="M1126 1536q29 0 39 -4t10 -12q0 -9 -4 -21q-4 -10 -10 -16q-62 -88 -150 -271q-80 -172 -161 -381q-84 -206 -140 -382q-59 -189 -69 -283q-2 -12 -2 -23l2 -53q0 -31 -95 -78q-96 -47 -163 -47q-29 0 -29 25q0 39 14 84q49 172 217 532q86 191 181 371q104 203 204 371
h-530q-27 0 -47 -2q-29 0 -51 -5q-62 -8 -95 -30q-57 -39 -67 -123q-4 -27 -21 -27q-16 0 -16 31q0 27 4 82l27 254q0 28 20 28l62 -10q34 -4 82 -6q59 -4 133 -4h655z" />
    <glyph glyph-name="eight" unicode="8" horiz-adv-x="1228" 
d="M229 72q-143 108 -143 295q0 159 115 284q96 109 262 174q-141 74 -213 156q-84 96 -84 219q0 141 113 246q61 57 149 90q98 35 223 35q191 0 303 -82q117 -84 117 -232q0 -143 -108 -253q-43 -43 -99 -78q-45 -29 -94 -47l57 -31q35 -21 62 -39q71 -45 123 -94
q61 -60 94 -127q37 -78 37 -168q0 -191 -142 -318q-153 -137 -401 -137q-231 0 -371 107zM405 152q87 -93 211 -93q123 0 205 84q84 86 84 226q0 137 -104 241q-43 41 -111 86q-26 19 -63 41l-68 39q-100 -57 -162 -143q-80 -113 -80 -254q0 -135 88 -227zM788 1419
q-63 64 -159 64q-123 0 -193 -78q-57 -68 -57 -164q0 -162 274 -315l27 12l31 18q37 27 65 60q78 88 78 223q0 113 -66 180z" />
    <glyph glyph-name="nine" unicode="9" horiz-adv-x="1228" 
d="M993 1409q133 -154 133 -395q0 -203 -82 -389q-71 -162 -200 -308q-109 -122 -248 -223q-115 -82 -225 -133q-15 -8 -37 -8q-19 0 -19 20q0 11 9 21l16 14q88 53 174 135q96 93 172 207q86 129 133 273q53 161 53 333q0 256 -96 398q-86 125 -215 125q-108 0 -178 -88
q-68 -84 -68 -217q0 -109 33 -193q29 -70 78 -119q39 -39 90 -59q39 -17 72 -17q49 0 86 9q16 2 30 8l23 8l27 16q10 7 14 7q16 0 16 -19q0 -12 -10 -22q-88 -95 -270 -95q-203 0 -320 133q-98 113 -98 263q0 209 143 342q146 135 381 135q242 0 383 -162z" />
    <glyph glyph-name="colon" unicode=":" horiz-adv-x="512" 
d="M131 186q0 45 29 82q37 43 96 43q125 0 125 -118q0 -132 -127 -132q-123 0 -123 125zM160 795q-29 36 -29 84q0 47 29 82q34 43 96 43q125 0 125 -119q0 -131 -127 -131q-60 0 -94 41z" />
    <glyph glyph-name="semicolon" unicode=";" horiz-adv-x="512" 
d="M184 264q51 43 101 43q18 0 51 -51q45 -66 45 -106q0 -37 -27 -99q-26 -61 -65 -129q-49 -90 -97 -143l-18 -17q-8 -8 -16 -8q-4 0 -11 6q-6 7 -6 15q0 6 6 18q2 0 4 4q3 2 3 4l4 9q59 102 59 178q0 69 -43 123l-16 16q0 2 -4 4l-9 12q-14 15 -14 23q0 51 53 98zM131 877
q0 47 29 84q34 43 96 43q125 0 125 -119q0 -131 -127 -131q-123 0 -123 123z" />
    <glyph glyph-name="less" unicode="&#x3c;" horiz-adv-x="1124" 
d="M81 449v143l961 409v-137l-805 -344l805 -344v-137z" />
    <glyph glyph-name="equal" unicode="=" horiz-adv-x="1124" 
d="M81 649v125h961v-125h-961zM81 262v125h961v-125h-961z" />
    <glyph glyph-name="greater" unicode="&#x3e;" horiz-adv-x="1124" 
d="M81 39v137l805 344l-805 344v137l961 -409v-143z" />
    <glyph glyph-name="question" unicode="?" horiz-adv-x="1089" 
d="M722 1540q80 -27 133 -76q90 -84 90 -200q0 -90 -33 -174q-26 -72 -81 -146q-39 -51 -113 -131l-121 -133q-104 -123 -104 -180q0 -60 32 -105q17 -24 17 -37q0 -16 -19 -16q-22 0 -104 64q-92 73 -92 129q0 49 41 104l135 164q180 246 180 422q0 104 -51 172
q-66 84 -193 84q-131 0 -194 -80q-66 -86 -72 -170q-2 -19 -6 -29q-4 -12 -12 -12q-11 0 -15 8l-6 19q-2 10 -4 38q-2 25 -2 62q-2 65 -2 139q0 10 4 17q4 8 19 16q55 33 137 55q102 27 225 27q121 0 211 -31zM362 80q0 43 26 78q33 39 88 39q115 0 115 -109
q0 -123 -117 -123q-112 0 -112 115z" />
    <glyph glyph-name="at" unicode="@" horiz-adv-x="1847" 
d="M1163 233q-143 0 -158 191q-2 25 0 55q0 37 7 70q-48 -66 -84 -109q-48 -57 -91 -98q-108 -100 -196 -100q-68 0 -103 59q-28 47 -28 113q0 297 239 497q64 52 152 97q104 51 170 51q57 0 111 -17q18 21 43 37q30 23 57 31q14 4 20 -8q7 -10 2 -23q-102 -233 -102 -528
q0 -186 111 -186q98 0 190 112q51 64 78 146q33 94 33 208q0 232 -144 375q-153 154 -428 154q-334 0 -549 -246q-211 -240 -211 -608q0 -281 162 -445q158 -159 414 -159q186 0 315 51q58 22 113 57q45 29 102 76q54 41 66 12q8 -18 -35 -61q-90 -90 -240 -152
q-176 -71 -366 -71q-293 0 -477 163q-201 183 -201 512q0 183 80 359q78 166 213 299q282 280 629 280q325 0 499 -163q164 -156 164 -422q0 -320 -276 -512q-140 -97 -281 -97zM770 782q-31 -69 -43 -149q-12 -68 -12 -137q0 -109 38 -109q46 0 134 92q34 37 73 86
q35 41 68 88q8 37 16 64l19 74q24 88 51 155q-37 29 -94 29q-168 0 -250 -193z" />
    <glyph glyph-name="A" unicode="A" horiz-adv-x="1433" 
d="M418 528q-12 0 -19 -16l-110 -293q-31 -76 -31 -125q0 -63 82 -63h31q30 0 30 -17q0 -20 -34 -20l-250 6q-4 -2 -12 -2h-46q-88 -4 -151 -4q-39 0 -39 20q0 17 25 17q30 0 63 4q66 8 107 59q32 37 67 125l514 1286q35 82 58 82q22 0 51 -65q16 -37 82 -201l299 -748
q82 -206 127 -311q51 -123 102 -176q21 -23 43 -35q14 -8 35 -12q41 -8 86 -8q27 0 27 -17q0 -20 -95 -20l-399 4l-33 4q-16 2 -16 12q0 17 28 19q13 4 19 16q6 14 0 31l-164 434q-6 14 -20 14h-457zM836 631q14 0 10 12l-184 506q-5 18 -11 18q-8 0 -12 -18l-188 -504
q-4 -14 8 -14h377z" />
    <glyph glyph-name="B" unicode="B" horiz-adv-x="1447" 
d="M336 1257l-4 125q-6 99 -88 117q-25 6 -80 6q-35 0 -35 19q0 18 45 18l217 -4q10 0 17 -2h116l178 6q132 0 226 -33q80 -28 131 -79q43 -44 63 -101q17 -45 17 -94q0 -115 -62 -209q-47 -70 -147 -149q149 -52 250 -154q123 -125 123 -289q0 -180 -132 -305
q-151 -141 -415 -141l-144 6q-92 6 -153 6h-49q-35 0 -68 -2l-141 -4q-41 0 -41 20q0 17 32 17q37 0 74 8q45 8 60 113q6 57 8 180q2 49 2 121v804zM582 913q0 -18 14 -22q29 -6 96 -6q103 0 148 39q84 67 84 217q0 119 -62 211q-74 106 -194 106q-47 0 -68 -4
q-18 -6 -18 -35v-506zM1010 553q-52 123 -158 197q-61 43 -170 49q-37 2 -88 2q-12 0 -12 -15v-485q0 -168 71 -197q37 -14 78 -20q29 -4 72 -4q92 0 157 51q91 70 91 211q0 113 -41 211z" />
    <glyph glyph-name="C" unicode="C" horiz-adv-x="1638" 
d="M681 16q-180 56 -315 172q-139 123 -203 293q-51 142 -51 312q0 59 10 120q13 74 37 146q27 80 72 151q51 80 121 144q116 106 264 159q164 58 383 58q88 0 162 -6q53 -4 135 -15l55 -8l102 -20l48 -6q30 -3 30 -25l-4 -35q-4 -37 -6 -78q-2 -22 -2 -57l-2 -121
q0 -29 -2 -43q-4 -47 -25 -47q-20 0 -20 45q-4 109 -80 188q-119 127 -416 127q-246 0 -385 -127q-104 -96 -149 -241q-39 -123 -39 -289q0 -174 61 -319q58 -132 158 -228q190 -182 426 -182q274 0 375 115q53 59 69 135q8 41 27 41q18 0 18 -31q0 -22 -14 -119
q-16 -106 -31 -153q-12 -43 -53 -60q-57 -22 -166 -35q-96 -12 -203 -12q-219 0 -387 51z" />
    <glyph glyph-name="D" unicode="D" horiz-adv-x="1916" 
d="M336 1257l-4 125q-6 99 -88 117q-25 6 -80 6q-35 0 -35 19q0 18 45 18l354 -6q13 2 37 2l127 4h193l104 -4q121 -6 219 -25q117 -24 211 -69q107 -53 187 -135q88 -90 137 -209q61 -142 61 -312q0 -180 -67 -337q-60 -136 -156 -234q-41 -41 -94 -78q-66 -45 -141 -80
q-93 -39 -197 -59q-119 -25 -254 -25q-49 0 -117 5q-45 2 -119 8l-110 8q-58 4 -90 4h-49q-35 0 -68 -2l-141 -4q-41 0 -41 20q0 17 32 17q37 0 74 8q45 8 60 113q6 57 8 180q2 49 2 121v804zM592 723q0 -336 4 -414l6 -88q2 -24 6 -41q4 -18 10 -26q23 -35 84 -56
q74 -26 185 -26q301 0 471 147q92 80 135 219q37 119 37 291q0 176 -66 322q-51 114 -131 190q-67 64 -147 109q-72 39 -154 61q-69 21 -149 29q-62 6 -131 6q-35 0 -76 -4q-45 -4 -58 -10q-24 -11 -24 -41q-2 -48 -2 -170v-498z" />
    <glyph glyph-name="E" unicode="E" 
d="M336 1257l-4 125q-6 99 -88 117q-25 6 -80 6q-35 0 -35 19q0 18 45 18l295 -6h424l88 2q68 6 88 12q4 0 8 2l25 7q12 0 12 -19l-10 -74q-4 -26 -6 -59l-8 -107q0 -20 -3 -28q-2 -10 -6 -15q-4 -8 -14 -8q-18 0 -18 29q0 16 -2 33q-5 24 -11 41q-12 30 -35 47
q-30 18 -102 26q-12 2 -55 2l-88 5l-148 2q-14 0 -14 -21v-518q0 -23 14 -23h164q59 0 98 2q50 0 66 3q76 6 98 30q23 27 33 27q14 0 14 -16l-10 -84q-4 -31 -6 -66l-8 -137q0 -39 -19 -39q-18 0 -18 18l-2 35q-2 23 -6 39q-17 70 -115 80q-14 2 -55 2q-35 2 -86 2l-150 2
q-12 0 -12 -20v-480q4 -108 47 -139q45 -33 199 -33h45l51 4q61 4 96 21q72 33 92 151q6 31 23 31q16 0 16 -37q0 -121 -26 -227q-15 -53 -111 -53t-201 2l-153 4q-131 6 -213 6h-49q-35 0 -68 -2l-141 -4q-41 0 -41 20q0 17 32 17q37 0 74 8q45 8 60 113q6 57 8 180
q2 49 2 121v804z" />
    <glyph glyph-name="F" unicode="F" horiz-adv-x="1273" 
d="M594 449q0 -72 2 -121q2 -119 8 -176q10 -103 80 -113q57 -8 102 -8q35 0 35 -17q0 -20 -45 -20l-241 4q-11 0 -17 2l-313 -6q-43 0 -43 20q0 17 30 17q37 0 74 8q45 8 60 113q6 57 8 176q2 49 2 121v808l-4 125q-6 99 -88 117q-25 6 -80 6q-35 0 -35 17q0 20 47 20
l295 -6l561 2l29 2q22 2 35 6l8 4q2 0 4 2q4 0 4 2q10 5 16 5q15 0 15 -19l-10 -57q-5 -17 -7 -35l-4 -82q0 -14 -2 -27q0 -14 -2 -24q0 -25 -2 -33q-4 -29 -20 -29q-19 0 -21 33v14q0 11 -2 21q-2 25 -10 43q-12 25 -43 41q-39 18 -92 20l-316 7q-18 0 -18 -29v-512
q0 -19 14 -19l312 2q24 0 43 3q61 4 88 36l12 15q6 6 14 6q13 0 13 -19l-7 -45q-2 -8 -2 -16l-8 -66l-8 -149q0 -39 -21 -39q-16 0 -16 29q0 26 -12 63q-8 27 -33 45q-29 23 -72 29q-18 2 -63 4l-240 2q-14 0 -14 -18v-305z" />
    <glyph glyph-name="G" unicode="G" horiz-adv-x="1814" 
d="M1578 131q0 -57 -26 -74q-92 -49 -238 -71q-121 -21 -256 -21q-407 0 -661 191q-135 100 -207 247q-78 160 -78 365q0 231 109 416q94 162 247 254q133 80 285 110q64 13 135 19q58 4 131 4q92 0 219 -12q99 -13 144 -21q41 -8 80 -14q51 -6 82 -8q16 -3 24 -9
q4 -4 4 -16l-4 -49q-2 -15 -2 -31q-4 -43 -6 -98q-2 -70 -2 -158q0 -43 -23 -43q-16 0 -20 27l-6 39q-4 22 -11 43q-18 49 -53 88q-57 59 -164 104q-135 55 -292 55q-54 0 -91 -4q-53 -4 -100 -14q-119 -29 -215 -109q-90 -75 -137 -192q-51 -127 -51 -309q0 -336 194 -551
q199 -219 518 -219h43q25 0 45 2q54 6 86 20q39 19 39 76v330q0 63 -2 104q-2 98 -88 117q-24 6 -80 6q-30 0 -30 16q0 21 43 21l352 -6q18 2 63 4l121 2q41 0 41 -21q0 -16 -26 -16q-19 0 -56 -6q-76 -14 -78 -117q-2 -41 -2 -106v-365z" />
    <glyph glyph-name="H" unicode="H" horiz-adv-x="1990" 
d="M1386 891q13 0 13 14v352l-4 125q-6 99 -88 117q-25 6 -80 6q-35 0 -35 19q0 18 43 18l344 -6q14 2 33 2l176 4q43 0 43 -18q0 -19 -37 -19q-23 0 -59 -6q-70 -12 -76 -117l-4 -125v-804q0 -72 2 -121q2 -123 8 -182q10 -103 80 -111q57 -8 104 -8q33 0 33 -17
q0 -20 -41 -20l-248 4q-8 0 -16 2l-311 -6q-43 0 -43 20q0 17 32 17q37 0 74 8q45 8 60 113q6 57 8 180q2 49 2 121v315q0 12 -13 12h-782q-12 0 -12 -12v-315q0 -72 2 -121q2 -123 8 -182q10 -103 80 -111q57 -8 104 -8q33 0 33 -17q0 -20 -41 -20l-248 4q-8 0 -16 2
l-313 -6q-41 0 -41 20q0 17 32 17q37 0 74 8q45 8 60 113q6 57 8 180q2 49 2 121v804l-4 125q-6 99 -88 117q-25 6 -80 6q-35 0 -35 19q0 18 43 18l344 -6q14 2 33 2l176 4q43 0 43 -18q0 -19 -37 -19q-22 0 -59 -6q-70 -12 -76 -117l-4 -125v-352q0 -14 12 -14h782z" />
    <glyph glyph-name="I" unicode="I" horiz-adv-x="925" 
d="M335 1257l-4 125q-6 101 -70 115q-30 8 -73 8q-33 0 -33 21q0 16 49 16l316 -6q12 2 32 2l168 4q43 0 43 -16q0 -21 -33 -21q-24 0 -61 -6q-70 -12 -76 -117l-4 -125v-811q0 -73 2 -124q0 -123 6 -183q11 -90 82 -100q58 -8 105 -8q33 0 33 -17q0 -20 -39 -20l-248 4
q-10 0 -19 2l-311 -6q-41 0 -41 20q0 17 33 17q37 0 74 8q49 10 59 102q6 58 8 181q2 51 2 124v811z" />
    <glyph glyph-name="J" unicode="J" horiz-adv-x="851" 
d="M335 1257l-4 125q-6 99 -88 117q-25 6 -80 6q-35 0 -35 19q0 18 45 18l340 -6q14 2 33 2l176 4q43 0 43 -18q0 -19 -37 -19q-22 0 -59 -6q-70 -12 -76 -117l-4 -125v-755q2 -17 2 -35l4 -186q0 -103 -8 -183q-12 -102 -41 -180q-35 -100 -117 -194q-92 -107 -231 -193
q-33 -20 -103 -53q-20 -13 -41 -13q-16 0 -16 17q0 12 45 37q45 24 98 78q107 108 136 290q12 82 16 207q2 51 2 125v1038z" />
    <glyph glyph-name="K" unicode="K" horiz-adv-x="1572" 
d="M586 858h10l346 361q61 65 82 90l41 47q20 24 33 43q28 41 28 63q0 35 -28 41q-27 6 -27 21q0 18 33 18l100 -2l60 -4h106l129 6h55q35 0 35 -18q0 -19 -30 -19q-58 0 -119 -22q-107 -41 -221 -154q-58 -55 -220 -217q-77 -76 -133 -133q-65 -66 -90 -92q27 -35 107 -125
l168 -184q92 -101 170 -183l178 -178q39 -35 71 -61q80 -66 154 -95q43 -16 78 -24q26 -6 49 -6q27 0 27 -17q0 -10 -11 -16q-10 -4 -39 -4h-178q-98 0 -141 4q-76 6 -135 41q-43 24 -119 92q-31 29 -117 121q-71 80 -170 192q-209 244 -250 299l-22 31h-10v-442
q2 -123 6 -182q6 -101 74 -111q57 -8 100 -8q27 0 27 -17q0 -20 -39 -20l-344 6q-13 -2 -31 -2l-178 -4q-41 0 -41 20q0 17 32 17q37 0 74 8q45 8 60 113q6 57 8 180q2 49 2 121v804l-4 125q-6 99 -88 117q-25 6 -80 6q-35 0 -35 19q0 18 45 18l336 -6q14 2 33 2l166 4
q43 0 43 -18q0 -19 -29 -19q-21 0 -57 -6q-70 -12 -76 -117l-4 -125v-399z" />
    <glyph glyph-name="L" unicode="L" horiz-adv-x="1239" 
d="M592 588q0 -404 43 -441q26 -24 77 -34q56 -11 170 -11q99 0 142 9q63 12 98 49q45 49 53 123q4 30 23 30q16 0 16 -34q0 -25 -8 -105l-10 -72q-6 -39 -13 -59q-10 -35 -28 -45q-23 -10 -101 -10q-92 0 -194 2l-152 4q-137 6 -250 6h-49q-35 0 -67 -2l-142 -4
q-41 0 -41 20q0 17 33 17q37 0 74 8q45 8 59 113q6 57 9 180q2 49 2 121v804l-5 125q-6 99 -88 117q-24 6 -67 6q-35 0 -35 19q0 18 45 18l334 -6q14 2 35 2l190 4q43 0 43 -18q0 -19 -37 -19q-43 0 -80 -6q-69 -12 -75 -117l-4 -125v-669z" />
    <glyph glyph-name="M" unicode="M" horiz-adv-x="2136" 
d="M411 1534q10 53 35 53q24 0 55 -63l559 -1155l557 1169q25 49 45 49q29 0 37 -63l186 -1266q27 -184 101 -207q39 -12 76 -16l28 -4h23q33 0 33 -15q0 -22 -54 -22q-51 0 -196 4q-164 4 -219 8q-35 2 -48 8q-12 4 -12 15q0 12 23 22q22 8 10 88l-123 901h-8l-447 -929
q-36 -76 -49 -95q-12 -20 -26 -20q-17 0 -72 102q-23 41 -53 105l-142 276q-32 64 -41 84l-213 455h-8l-106 -815q-6 -56 -6 -97q0 -51 61 -65q47 -10 86 -10q31 0 31 -15q0 -22 -49 -22l-254 6q-11 -2 -25 -2l-139 -4q-37 0 -37 22q0 15 33 15q30 0 61 6q39 8 60 59
q8 21 14 49q6 23 10 54z" />
    <glyph glyph-name="N" unicode="N" horiz-adv-x="1939" 
d="M450 272q6 -204 72 -227q41 -14 106 -14q35 0 35 -17q0 -20 -47 -20h-90l-115 4q-6 0 -12 2l-115 -2q-79 -4 -143 -4q-45 0 -45 20q0 17 33 17q57 0 92 10q61 18 63 254l19 1212q0 70 26 70q15 0 33 -18q8 -7 21 -21l237 -252l684 -702l33 -37q2 0 4 -4q2 0 2 -2
q2 0 2 -2q6 -4 8 -9q11 -8 17 -16l121 -125h10l-21 920q-2 155 -69 184q-21 8 -55 10q-13 2 -29 2h-25q-32 0 -32 19q0 18 53 18q61 0 147 -2q8 -2 17 -2l110 -2q4 2 10 2h11q14 0 24 2q70 2 129 2q47 0 47 -18q0 -19 -36 -19q-37 0 -62 -6q-74 -20 -76 -174l-22 -1292
q0 -64 -27 -64q-24 0 -69 45q-46 43 -119 117l-486 485q-77 76 -166 168l-321 349h-6z" />
    <glyph glyph-name="O" unicode="O" horiz-adv-x="1687" 
d="M511 39q-150 67 -256 192q-97 111 -146 258q-47 136 -47 279q0 139 45 272q51 148 148 260q108 125 262 195q172 76 391 76q381 0 604 -207t223 -559q0 -361 -229 -596q-236 -244 -619 -244q-211 0 -376 74zM1109 88q88 27 155 88q84 76 131 201q53 145 53 352
q0 336 -174 545q-168 199 -426 199q-96 0 -178 -29q-94 -33 -162 -101q-77 -77 -118 -196q-45 -133 -45 -316q0 -329 168 -540q174 -223 460 -223q70 0 136 20z" />
    <glyph glyph-name="P" unicode="P" horiz-adv-x="1341" 
d="M336 1257l-4 125q-6 99 -88 117q-25 6 -80 6q-35 0 -35 19q0 18 45 18l363 -6q16 2 38 2l191 4q90 0 164 -14q61 -10 110 -33q39 -16 70 -39l23 -16l14 -15q41 -39 67 -96q35 -74 35 -147q0 -217 -143 -357q-141 -139 -361 -139h-20q-16 0 -23 2q-12 2 -16 4q-8 4 -8 15
q0 22 57 22q96 0 180 90q95 103 95 248q0 35 -2 61q-5 43 -15 80q-28 99 -104 166q-49 45 -113 66q-45 14 -92 14q-55 0 -80 -8q-16 -6 -16 -39v-954q0 -72 2 -121q2 -123 8 -182q10 -103 80 -111q57 -8 104 -8q33 0 33 -17q0 -20 -39 -20l-248 4q-10 0 -16 2l-311 -6
q-41 0 -41 20q0 17 32 17q37 0 74 8q45 8 60 113q6 57 8 180q2 49 2 121v804z" />
    <glyph glyph-name="Q" unicode="Q" horiz-adv-x="1904" 
d="M1267 18q-141 -53 -321 -53q-216 0 -383 76q-154 68 -258 192q-97 113 -148 263q-45 137 -45 282q0 133 47 264q51 146 148 258q108 125 260 193q172 78 385 78q370 0 598 -209q231 -211 231 -567q0 -127 -37 -246q-33 -103 -92 -195q-51 -78 -117 -143q-55 -53 -110 -90
l411 -211q152 -78 295 -131q123 -47 238 -74q94 -22 182 -33q64 -6 129 -6q92 0 187 15q114 18 213 57l16 6q10 4 14 4q19 0 19 -18q0 -15 -25 -25q-55 -27 -113 -49q-71 -29 -147 -49q-90 -27 -180 -39q-105 -17 -209 -17q-225 0 -422 66q-184 59 -444 213zM1165 88
q88 27 155 90q80 76 123 203q51 147 51 358q0 179 -53 324q-47 133 -135 229q-168 181 -401 181q-222 0 -355 -146q-153 -168 -153 -502q0 -350 188 -561q176 -196 436 -196q76 0 144 20z" />
    <glyph glyph-name="R" unicode="R" horiz-adv-x="1546" 
d="M336 1257l-4 125q-6 99 -88 117q-25 6 -80 6q-35 0 -35 19q0 18 45 18l219 -4q8 0 15 -2l335 6q115 0 195 -16q106 -21 182 -72q51 -35 92 -102q47 -84 47 -178q0 -121 -57 -224q-63 -114 -213 -235l246 -307q119 -148 199 -232q73 -76 145 -113q14 -6 29 -10
q10 -6 22 -8q8 -4 19 -6l14 -2q35 -6 57 -6q25 0 25 -17q0 -20 -39 -20h-195q-147 0 -219 39q-61 33 -131 108q-53 62 -149 193l-203 282q-12 15 -37 15l-178 4q-16 0 -16 -17v-165q0 -72 2 -121q2 -123 8 -180q10 -103 80 -113q61 -8 100 -8q25 0 25 -17q0 -20 -41 -20
l-242 4q-10 0 -16 2l-293 -6q-41 0 -41 20q0 17 32 17q37 0 74 8q45 8 60 113q6 57 8 180q2 49 2 121v804zM578 786q0 -28 18 -36q61 -21 156 -21q96 0 145 35q53 39 84 108q37 82 37 199q0 103 -33 182q-27 68 -78 115q-88 78 -203 78q-81 0 -108 -8q-18 -6 -18 -29v-623z
" />
    <glyph glyph-name="S" unicode="S" horiz-adv-x="1191" 
d="M223 18q-39 17 -39 70q0 72 4 164l6 104q4 54 25 54q20 0 20 -35q0 -41 19 -105q32 -106 116 -159q72 -48 177 -48q129 0 206 76q68 68 68 158q0 84 -37 152q-45 83 -164 176l-94 73q-164 129 -235 246q-68 111 -68 240q0 170 129 278q133 109 344 109q88 0 166 -12
q31 -5 59 -11l47 -12q29 -6 29 -25l-4 -73q-2 -33 -2 -70q-2 -47 -2 -102q0 -62 -23 -62q-20 0 -20 37l-2 21q-2 16 -8 34q-15 45 -43 80l-29 33q-20 18 -45 33q-61 35 -150 35q-243 0 -243 -211q0 -72 45 -136q47 -65 172 -159l57 -43q336 -252 336 -522q0 -101 -41 -187
q-49 -102 -151 -170q-72 -45 -160 -65q-76 -19 -166 -19q-178 0 -299 53z" />
    <glyph glyph-name="T" unicode="T" horiz-adv-x="1454" 
d="M608 1427l-306 -8q-161 -6 -198 -59q-27 -41 -35 -72q-6 -24 -23 -24q-18 0 -18 32q0 13 6 50q4 28 14 75q17 86 23 111q8 39 25 39q6 0 14 -4l16 -6q13 -7 25 -9q16 -4 33 -6q98 -10 204 -10h811q43 0 84 4q15 0 31 2l82 14q16 0 16 -43l-6 -237q-4 -33 -18 -33
q-21 0 -23 41l-2 23q-4 47 -53 75q-63 37 -188 39l-258 6v-974q0 -72 2 -121q2 -123 8 -182q10 -103 80 -111q57 -8 104 -8q33 0 33 -17q0 -20 -39 -20l-248 4q-10 0 -18 2l-314 -6q-41 0 -41 20q0 17 33 17q37 0 74 8q49 10 59 113q6 57 9 180q2 49 2 121v974z" />
    <glyph glyph-name="U" unicode="U" horiz-adv-x="1744" 
d="M247 1257l-4 125q-6 99 -88 117q-25 6 -80 6q-35 0 -35 19q0 18 45 18l348 -6q15 2 33 2l170 4q45 0 45 -18q0 -19 -33 -19q-22 0 -59 -6q-70 -12 -76 -117l-4 -125v-595q0 -211 43 -332q37 -107 117 -172q61 -52 137 -70q51 -14 119 -14q76 0 145 24q80 29 137 86
q76 76 103 217q10 60 14 140q2 55 2 151v565l-4 125q-6 99 -88 117q-25 6 -74 6q-35 0 -35 19q0 18 43 18q66 0 156 -2q16 -2 33 -2l82 -2q6 2 14 2l184 4q43 0 43 -18q0 -19 -36 -19q-23 0 -60 -6q-69 -12 -76 -117l-4 -125v-528q0 -98 -6 -172q-8 -92 -26 -166
q-46 -178 -162 -278q-101 -86 -217 -121q-92 -27 -209 -27h-45l-51 4q-62 4 -115 17q-146 32 -244 120q-86 78 -131 195q-51 139 -51 348v608z" />
    <glyph glyph-name="V" unicode="V" horiz-adv-x="1482" 
d="M148 1341q-53 127 -156 156q-20 6 -45 8h-34q-25 0 -25 19q0 18 53 18l344 -6q11 2 29 2l100 4h76q21 0 33 -4q14 -4 14 -14q0 -19 -31 -19q-61 0 -79 -14q-21 -14 -21 -43q0 -37 47 -158l353 -930h8l123 310q10 28 30 78q2 2 4 8q2 8 4 10l170 430q56 137 72 184
q19 47 19 76q0 31 -27 39q-31 10 -82 10q-16 0 -25 2q-10 4 -10 15q0 20 58 20q61 0 135 -2q12 -2 26 -2l90 -2q9 2 23 2l133 4q43 0 43 -18q0 -19 -33 -19l-43 -2q-32 -6 -57 -22l-20 -19q-13 -12 -25 -30q-31 -46 -68 -136q-26 -65 -57 -133l-516 -1167q-19 -31 -39 -31
q-27 0 -78 125z" />
    <glyph glyph-name="W" unicode="W" horiz-adv-x="2222" 
d="M154 1341q-38 119 -75 146q-15 10 -43 14q-21 4 -39 4q-33 0 -33 19q0 18 45 18q64 0 152 -2q14 -2 30 -2l82 -2q2 2 4 2h19q14 0 26 2q80 2 152 2q43 0 43 -18q0 -19 -37 -19t-51 -8q-23 -10 -23 -45q0 -16 15 -70l30 -118q13 -47 52 -177l79 -266q95 -313 132 -428h6
l397 1067q27 74 51 74q21 0 60 -96l426 -1030h6q12 47 47 167l225 750q21 68 21 119q0 61 -99 61q-35 0 -35 19q0 18 48 18q65 0 141 -2q10 -2 24 -2l70 -2q4 2 10 2l138 4q36 0 36 -16q0 -21 -28 -21q-43 0 -72 -10q-33 -12 -59 -72q-11 -22 -27 -65l-29 -80
q-32 -90 -90 -256q-49 -141 -112 -334l-207 -627q-31 -96 -60 -96q-22 0 -63 101l-426 1026h-4l-180 -478l-125 -317q-64 -158 -95 -223q-51 -109 -73 -109q-21 0 -47 76z" />
    <glyph glyph-name="X" unicode="X" horiz-adv-x="1458" 
d="M844 850q20 -31 90 -145l211 -345q37 -61 65 -104q64 -104 82 -127q49 -66 119 -86q41 -12 78 -12q27 0 27 -17q0 -20 -39 -20h-205q-55 0 -109 2q-61 0 -116 2q-41 2 -56 6q-14 4 -14 14q0 17 29 23q8 2 12 14q2 15 -8 33q-90 162 -168 297q-88 150 -156 260l-303 -489
q-33 -52 -29 -86q2 -27 39 -35q10 -2 23 -2q12 -2 24 -2q25 0 25 -19q0 -18 -41 -18l-180 6l-256 -6q-31 0 -31 18q0 19 29 19q14 0 32 2q23 2 43 8q74 20 168 154l392 559l-353 583q-73 123 -170 154q-45 14 -86 14q-20 0 -20 21q0 16 41 16l229 -6l301 6q41 0 41 -18
q0 -19 -31 -19q-12 0 -26 -2q-19 -2 -29 -6q-24 -8 -24 -33q0 -22 20 -59q31 -57 68 -121q26 -49 65 -115l127 -217l232 353q36 59 47 79q22 39 22 78q0 27 -35 37q-14 4 -34 6h-31q-25 0 -25 19q0 18 43 18l244 -6q8 2 23 2l139 4q37 0 37 -18q0 -19 -33 -19q-31 0 -74 -12
q-49 -12 -149 -160z" />
    <glyph glyph-name="Y" unicode="Y" horiz-adv-x="1372" 
d="M566 524q0 74 -15 127q-4 21 -14 45l-19 43l-157 269l-203 321q-76 111 -141 150q-49 26 -86 26q-31 0 -31 19q0 18 39 18l297 -6q10 2 24 2h15q8 0 14 2q76 2 127 2q31 0 31 -18q0 -11 -45 -23q-29 -6 -29 -37q0 -20 25 -69l172 -308l176 -305l307 564q29 63 29 106
q0 41 -43 51l-25 8q-12 5 -12 13q0 18 35 18l100 -2q0 -2 2 -2l137 -2l66 4l106 2q37 0 37 -16q0 -21 -39 -21q-43 0 -90 -24q-47 -23 -110 -101q-25 -28 -84 -125q-56 -84 -123 -198q-68 -111 -117 -201q-53 -94 -68 -127q-20 -49 -26 -104q-4 -33 -4 -101v-250
q2 -67 6 -122q6 -103 84 -113q57 -8 102 -8q33 0 33 -17q0 -20 -43 -20l-242 4q-10 0 -18 2l-309 -6q-45 0 -45 20q0 17 32 17q35 0 72 8q57 12 63 113q5 55 7 122v250z" />
    <glyph glyph-name="Z" unicode="Z" horiz-adv-x="1454" 
d="M958 113q145 0 227 32q65 29 94 80q25 45 37 99q6 32 21 32q20 0 20 -63q0 -45 -14 -131q-15 -74 -27 -119q-14 -53 -61 -53q-113 0 -258 2l-543 6q-160 2 -299 2q-35 0 -35 20q0 17 31 62l438 680q63 96 109 168l319 497h-401q-97 0 -162 -8q-88 -10 -133 -35
q-97 -53 -111 -159q-6 -37 -24 -37q-17 0 -17 35q0 16 4 57q4 35 13 84l24 154q6 38 25 38q6 0 14 -2l14 -4q11 -4 21 -4q16 -4 33 -4q125 -6 229 -6h772q35 0 35 -16q0 -9 -4 -19l-12 -20q-101 -162 -218 -346q-100 -158 -221 -344l-444 -678h504z" />
    <glyph glyph-name="bracketleft" unicode="[" horiz-adv-x="737" 
d="M384 23q0 -132 15 -191q38 -18 108 -31l111 -12q34 -2 34 -20q0 -19 -24 -19h-389q-33 0 -33 33v1718q0 27 33 27h391q25 0 25 -19q0 -18 -35 -20l-111 -12q-70 -13 -110 -31q-15 -60 -15 -182v-1241z" />
    <glyph glyph-name="backslash" unicode="\" horiz-adv-x="1110" 
d="M1009 -39q-14 -8 -27 12l-940 1526q-12 19 2 25l74 45q16 10 29 -10l934 -1516q14 -27 0 -35z" />
    <glyph glyph-name="bracketright" unicode="]" horiz-adv-x="737" 
d="M351 1255q0 131 -14 191q-39 18 -109 31l-110 12q-35 2 -35 20q0 19 25 19h389q33 0 33 -33v-1718q0 -27 -33 -27h-391q-25 0 -25 19q0 18 35 20l110 12q72 13 111 31q14 59 14 182v1241z" />
    <glyph glyph-name="asciicircum" unicode="^" horiz-adv-x="1124" 
d="M887 614l-326 762l-326 -762h-139l393 918h144l393 -918h-139z" />
    <glyph glyph-name="underscore" unicode="_" horiz-adv-x="1024" 
d="M1024 -154v-102h-1024v102h1024z" />
    <glyph glyph-name="grave" unicode="`" horiz-adv-x="446" 
d="M287 1233q14 -37 30 -53q15 -15 19 -23q4 -6 4 -14q0 -4 -8 -10q-6 -7 -15 -7q-26 0 -86 15l-84 24q-59 17 -59 60q0 88 78 231q69 129 147 207q17 16 33 16q12 0 12 -12q0 -6 -10 -27q-33 -63 -53 -139q-27 -94 -27 -180q0 -45 19 -88z" />
    <glyph glyph-name="a" unicode="a" 
d="M373 432q-12 0 -16 -12l-96 -234q-27 -61 -27 -106q0 -49 72 -49h26q27 0 27 -19q0 -18 -29 -18h-49l-104 6l-123 -2q-76 -4 -133 -4q-33 0 -33 18q0 19 20 19l54 2q90 14 149 153l471 1096q29 70 54 70q26 0 53 -56l344 -807q76 -178 115 -266q47 -104 90 -149
q30 -31 63 -37q41 -6 68 -6q24 0 24 -19q0 -10 -14 -14t-64 -4l-358 4l-10 2q-10 0 -17 2q-14 2 -14 10q0 17 23 19q10 2 16 12q6 12 0 27l-139 350q-4 12 -19 12h-424zM758 528q13 0 9 11l-172 448q0 2 -2 4q-3 6 -5 6q-4 0 -6 -6q-2 -2 -2 -4l-176 -446q-6 -13 6 -13h348z
" />
    <glyph glyph-name="b" unicode="b" horiz-adv-x="1310" 
d="M294 1069q0 68 -2 107q-4 73 -78 94l-30 4q-21 2 -41 2q-31 0 -31 18q0 17 41 17l315 -4q29 2 74 2l125 2q115 0 197 -29q71 -22 116 -68q39 -34 56 -84q14 -38 14 -79q0 -95 -64 -179q-51 -71 -139 -127q131 -40 221 -129q111 -108 111 -247q0 -154 -115 -260
q-131 -119 -364 -119q-51 0 -144 6l-190 4l-66 -2q-86 -4 -125 -4q-34 0 -34 18q0 19 28 19q39 0 64 6q43 10 53 92q6 49 8 154v786zM528 778q0 -10 4 -14q2 -2 8 -4q25 -6 84 -6q102 0 141 30q82 64 82 185q0 100 -53 174q-64 88 -172 88h-41l-37 -4q-16 -2 -16 -29v-420z
M528 266q0 -147 63 -172q53 -20 129 -20q88 0 148 51q73 63 73 194q0 76 -34 150q-43 98 -136 160q-61 45 -155 45h-78q-10 0 -10 -12v-396z" />
    <glyph glyph-name="c" unicode="c" horiz-adv-x="1443" 
d="M602 14q-160 45 -279 146q-123 102 -180 250q-45 120 -45 264q0 49 8 102q10 64 33 123q55 150 170 252q102 90 233 135q146 49 338 49q76 0 144 -6q41 -2 118 -12l181 -29q26 -2 26 -20l-8 -97q-2 -20 -2 -49q-2 -20 -2 -53l-2 -86q-4 -43 -25 -43q-18 0 -18 37
q-4 96 -70 162q-106 102 -348 102q-225 0 -340 -98q-92 -80 -133 -205q-33 -104 -33 -248q0 -147 54 -270q49 -109 137 -191q164 -149 370 -149q238 0 320 92q51 57 61 117q7 35 23 35q8 0 14 -11q6 -8 6 -20q0 -21 -12 -100q-14 -93 -26 -132q-11 -36 -48 -51
q-49 -20 -145 -30q-82 -9 -180 -9q-193 0 -340 43z" />
    <glyph glyph-name="d" unicode="d" horiz-adv-x="1701" 
d="M294 1069q0 68 -2 107q-4 73 -78 94l-30 4q-21 2 -41 2q-31 0 -31 18q0 17 41 17l313 -4l328 4l92 -4q109 -4 193 -21q104 -20 188 -59q94 -45 164 -115q76 -76 119 -178q51 -119 51 -264q0 -154 -59 -287q-52 -115 -138 -199q-35 -34 -82 -65q-57 -39 -127 -68
q-79 -33 -172 -51q-106 -20 -223 -20q-41 0 -104 4l-111 6q-119 10 -182 10l-228 -6q-34 0 -34 18q0 19 28 19q39 0 64 6q43 10 53 92q6 49 8 154v786zM536 614q0 -282 4 -352q2 -45 6 -69q4 -41 15 -54q20 -28 73 -47q64 -22 162 -22q250 0 393 118q82 68 121 185
q33 102 33 248q0 151 -53 274q-45 98 -115 160q-111 98 -260 139q-62 14 -129 20q-53 7 -115 7q-33 0 -63 -2q-37 -5 -47 -11q-23 -8 -23 -34q-2 -39 -2 -142v-418z" />
    <glyph glyph-name="e" unicode="e" horiz-adv-x="1179" 
d="M184 1069q0 68 -2 107q-4 73 -78 94l-30 4q-21 2 -41 2q-31 0 -31 18q0 17 41 17l211 -4h541q12 0 24 2l51 8q4 0 15 4q10 4 14 4q12 0 12 -16l-4 -21q0 -6 -2 -10q-6 -35 -8 -82l-8 -90q0 -19 -2 -25l-2 -8q-2 -6 -4 -8q-5 -12 -15 -12q-14 0 -14 22q0 15 -2 29
q-4 20 -10 35q-13 28 -31 41q-27 16 -88 22q-10 2 -51 2l-88 4l-144 2q-12 0 -12 -16v-430q0 -19 12 -19h158q59 0 96 3q47 0 62 2q67 6 86 26l16 17q8 6 12 6q15 0 15 -19l-21 -194l-2 -49q0 -15 -2 -25q-6 -14 -16 -14q-17 0 -17 14l-6 63q-18 60 -100 68q-12 2 -51 2
l-86 4l-146 2q-10 0 -10 -18v-397q2 -89 55 -117q47 -29 189 -29q49 0 86 4q53 4 84 19q59 26 77 129q7 26 21 26q10 0 14 -14q2 -8 2 -27q0 -108 -24 -192q-13 -45 -97 -45q-198 0 -331 6l-246 4l-66 -2q-86 -4 -125 -4q-34 0 -34 18q0 19 28 19q39 0 64 6q43 10 53 92
q6 49 8 154v786z" />
    <glyph glyph-name="f" unicode="f" horiz-adv-x="1161" 
d="M536 494q0 -273 10 -365q10 -82 72 -92q37 -6 88 -6q31 0 31 -19q0 -18 -39 -18l-224 4q-10 0 -16 2l-278 -6q-37 0 -37 18q0 19 26 19q39 0 64 6q43 10 53 92q6 49 8 150v790q0 68 -2 107q-6 75 -78 94l-30 4q-21 2 -41 2q-31 0 -31 18q0 17 43 17l209 -4h561q51 4 74 8
q4 0 14 6q8 4 14 4q13 0 13 -16q0 -6 -4 -27l-11 -51l-8 -141q-2 -15 -6 -23q-4 -12 -12 -12q-23 0 -23 28v29q-2 21 -10 37q-25 51 -115 53l-299 6q-16 0 -16 -24v-422q0 -17 12 -17l252 3q55 0 82 2q55 4 76 30l6 8q4 5 6 5q6 6 12 6q11 0 11 -17l-15 -112l-6 -127
q0 -17 -4 -25q-4 -14 -16 -14q-17 0 -17 24q0 23 -12 54l-8 20l-17 19q-24 22 -61 24q-16 2 -59 2q-37 2 -91 2q-43 2 -88 2h-51q-12 0 -12 -14v-143z" />
    <glyph glyph-name="g" unicode="g" horiz-adv-x="1603" 
d="M1394 111q0 -50 -22 -62q-84 -41 -213 -61q-107 -17 -227 -17q-361 0 -582 160q-121 86 -184 213q-68 135 -68 309q0 197 96 353q82 137 219 217q117 67 250 94q58 10 121 14q49 4 115 4q84 0 192 -10q90 -10 127 -18l70 -11q45 -6 74 -8q24 -2 24 -20l-4 -41
q-2 -15 -2 -29l-4 -82q-2 -59 -2 -135q0 -39 -25 -39q-14 0 -18 23q-4 39 -14 67q-17 43 -48 76q-49 51 -139 88q-114 45 -252 45q-49 0 -78 -2q-47 -2 -86 -12q-102 -23 -184 -88q-80 -66 -121 -162q-45 -109 -45 -262q0 -285 170 -465q172 -182 457 -182q84 0 127 18
q35 16 35 61v275q0 53 -2 90q-2 72 -78 94l-31 4q-18 2 -39 2q-28 0 -28 19q0 16 38 16l326 -4l162 4q37 0 37 -16q0 -19 -23 -19q-18 0 -49 -6q-68 -10 -70 -94q-2 -35 -2 -92v-309z" />
    <glyph glyph-name="h" unicode="h" horiz-adv-x="1775" 
d="M1228 743q10 0 10 13v37q0 176 -2 270l-2 113q-4 73 -78 94l-30 4q-19 2 -39 2q-31 0 -31 18q0 17 39 17l315 -4l187 4q39 0 39 -17q0 -18 -33 -18q-18 0 -53 -6q-60 -10 -66 -94l-4 -107v-684q0 -61 2 -102q0 -105 6 -156q10 -82 72 -90q37 -6 92 -6q29 0 29 -19
q0 -18 -37 -18l-330 6q-10 -2 -31 -2l-161 -4q-39 0 -39 18q0 19 28 19q41 0 66 6q43 10 53 92q6 49 8 152v348q0 10 -10 10h-680q-12 0 -12 -10v-133q0 -134 2 -215q2 -101 8 -154q10 -82 70 -90q37 -6 92 -6q29 0 29 -19q0 -18 -37 -18l-336 6q-12 -2 -29 -2l-160 -4
q-34 0 -34 18q0 19 28 19q39 0 64 6q43 10 53 92q6 49 8 154v786q0 68 -2 107q-4 73 -78 94l-30 4q-21 2 -41 2q-31 0 -31 18q0 17 39 17l309 -4l195 4q37 0 37 -17q0 -18 -33 -18q-21 0 -51 -6q-62 -10 -68 -94l-4 -113v-307q0 -13 12 -13h680z" />
    <glyph glyph-name="i" unicode="i" horiz-adv-x="833" 
d="M295 1069q0 68 -2 107q-6 73 -62 92q-26 8 -65 8q-29 0 -29 20q0 15 43 15l287 -4l186 4q37 0 37 -15q0 -20 -29 -20q-22 0 -53 -6q-61 -10 -68 -94l-4 -107v-690q0 -62 2 -105q0 -106 7 -155q10 -72 71 -82q37 -6 92 -6q29 0 29 -19q0 -18 -35 -18l-334 6q-12 -2 -30 -2
l-162 -4q-35 0 -35 18q0 19 29 19q39 0 63 6q45 10 54 84q6 49 8 153v795z" />
    <glyph glyph-name="j" unicode="j" horiz-adv-x="763" 
d="M294 1069q0 68 -2 107q-4 73 -78 94l-30 4q-21 2 -41 2q-31 0 -31 18q0 17 41 17l315 -4l187 4q36 0 36 -17q0 -18 -32 -18q-21 0 -52 -6q-61 -10 -67 -94l-4 -107v-586l6 -245q0 -88 -8 -154q-11 -86 -35 -154q-66 -180 -324 -331q-32 -19 -90 -45q-8 -5 -20 -7
q-8 -2 -17 -2q-14 0 -14 17q0 12 39 30q37 19 86 68q94 92 119 246q12 67 14 174q2 45 2 106v883z" />
    <glyph glyph-name="k" unicode="k" horiz-adv-x="1402" 
d="M530 729h8l305 307l82 86l53 64q27 35 27 55q0 29 -25 35q-24 6 -24 18q0 17 28 17l236 -4q18 2 57 2l105 2q30 0 30 -17q0 -18 -26 -18q-49 0 -105 -21q-86 -30 -190 -129l-191 -182q-69 -65 -114 -110q-58 -56 -76 -78q23 -29 92 -107l150 -157q184 -195 245 -252
l45 -41q9 -9 15 -13q35 -32 57 -51q68 -57 129 -82q35 -14 68 -20q12 -2 24 -2h19q24 0 24 -19q0 -18 -43 -18h-157q-86 0 -125 4q-115 10 -234 113q-26 24 -100 102q-62 68 -145 164q-181 207 -218 256l-18 24h-8v-374l4 -156q6 -80 65 -90q37 -6 88 -6q25 0 25 -19
q0 -18 -35 -18h-80l-147 6l-275 -6q-34 0 -34 18q0 19 28 19q39 0 64 6q43 10 53 92q6 49 8 154v786q0 68 -2 107q-4 73 -78 94l-30 4q-21 2 -41 2q-31 0 -31 18q0 17 41 17l297 -4l186 4q39 0 39 -17q0 -18 -24 -18q-17 0 -52 -6q-61 -10 -67 -94q-2 -39 -2 -107v-340z" />
    <glyph glyph-name="l" unicode="l" horiz-adv-x="1130" 
d="M536 500q0 -334 39 -367q43 -37 239 -37q86 0 125 6q55 11 86 43q37 37 45 105q4 26 21 26q8 0 12 -12q4 -10 4 -26q0 -23 -8 -88q-8 -78 -19 -113q-14 -47 -114 -47q-189 0 -324 6h-41q-4 2 -8 2l-227 2l-66 -2q-86 -4 -125 -4q-35 0 -35 18q0 19 29 19q39 0 64 6
q43 10 53 92q6 49 8 154v786q0 68 -2 107q-4 73 -78 94q-20 6 -59 6q-31 0 -31 18q0 17 39 17l297 -4l211 4q39 0 39 -17q0 -18 -33 -18q-39 0 -70 -6q-61 -10 -67 -94l-4 -107v-569z" />
    <glyph glyph-name="m" unicode="m" horiz-adv-x="1890" 
d="M362 1305q6 45 35 45q26 0 55 -56l483 -970l484 983q22 43 47 43q12 0 24 -15q13 -14 17 -41l164 -1075q22 -153 88 -172q34 -10 61 -14q21 -2 41 -2q29 0 29 -17q0 -20 -47 -20q-158 0 -373 12q-31 2 -43 8q-10 4 -10 13q0 12 20 18q16 6 8 74l-100 753h-6l-387 -778
q-31 -63 -43 -80q-15 -18 -29 -18q-25 0 -72 88l-172 324q-28 55 -35 71l-73 154q-56 117 -107 219h-6l-86 -680q-6 -45 -6 -82q0 -41 55 -51q41 -8 64 -8q28 0 28 -17q0 -20 -43 -20l-225 6q-8 -2 -22 -2l-121 -4q-33 0 -33 20q0 17 29 17h22l33 4q33 4 53 47q13 31 21 86z
" />
    <glyph glyph-name="n" unicode="n" horiz-adv-x="1722" 
d="M407 231q4 -168 61 -188q37 -12 94 -12q31 0 31 -19q0 -18 -41 -18q-70 0 -147 4l-111 2q-2 -2 -10 -2h-35q-70 -4 -125 -4q-41 0 -41 18q0 19 29 19q49 0 82 8q53 14 55 211l16 1032q0 59 31 59q14 0 37 -16l704 -704q29 -27 62 -62l219 -221h8l-18 774q-2 131 -62 154
q-16 6 -47 8q-12 2 -26 2h-21q-29 0 -29 18q0 17 45 17l263 -4l82 4h61q41 0 41 -17q0 -18 -31 -18q-33 0 -55 -6q-64 -19 -66 -144l-20 -1097q0 -56 -29 -56q-37 0 -74 37q-81 76 -235 221l-291 281q-67 63 -143 143l-279 287h-6z" />
    <glyph glyph-name="o" unicode="o" horiz-adv-x="1693" 
d="M499 35q-135 57 -229 162q-86 94 -131 219q-41 116 -41 237q0 119 41 232q45 125 131 221q96 106 236 164q153 65 348 65q340 0 538 -176q199 -176 199 -475q0 -307 -203 -506q-211 -207 -553 -207q-188 0 -336 64zM1028 82q78 24 135 76q74 63 113 168q47 120 47 295
q0 282 -152 456q-147 166 -371 166q-81 0 -153 -22q-80 -29 -139 -84q-68 -66 -103 -164q-41 -113 -41 -266q0 -277 146 -455q149 -186 399 -186q61 0 119 16z" />
    <glyph glyph-name="p" unicode="p" horiz-adv-x="1220" 
d="M294 1069q0 68 -2 107q-4 73 -78 94l-30 4q-21 2 -41 2q-31 0 -31 18q0 17 41 17l326 -4l233 4q78 0 143 -13q56 -10 99 -26q35 -15 61 -33l33 -27q35 -32 59 -82q31 -63 31 -126q0 -183 -131 -304q-129 -118 -322 -118h-26q-21 0 -27 2q-22 0 -22 18q0 23 59 23
q84 0 158 73q84 84 84 209l-2 54q-4 34 -15 65q-24 84 -90 139q-43 39 -98 56q-39 10 -82 10q-55 0 -78 -8q-14 -6 -14 -33v-805q0 -61 2 -102q0 -105 6 -156q10 -82 70 -90q41 -6 92 -6q28 0 28 -19q0 -18 -32 -18l-230 4q-10 0 -16 2l-277 -6q-34 0 -34 18q0 19 28 19
q39 0 64 6q43 10 53 92q6 49 8 154v786z" />
    <glyph glyph-name="q" unicode="q" horiz-adv-x="1691" 
d="M1118 14q-115 -43 -285 -43q-188 0 -338 64q-133 57 -227 164q-86 96 -129 223q-41 117 -41 240q0 112 43 225q45 123 133 219q96 106 232 164q151 65 340 65q327 0 532 -176q207 -182 207 -483q0 -109 -33 -209q-29 -86 -82 -164q-43 -65 -100 -121q-45 -45 -94 -78
l354 -172q133 -65 258 -110q106 -39 207 -62q82 -20 157 -28q60 -6 115 -6q88 0 164 10q104 12 188 45l15 6q6 2 12 2q16 0 16 -16q0 -11 -22 -23q-51 -24 -100 -43q-66 -26 -132 -45q-81 -22 -161 -35q-92 -14 -185 -14q-366 0 -764 235zM1032 82q76 24 133 76
q70 63 107 170q43 123 43 301q0 149 -46 272q-41 111 -116 191q-144 151 -348 151q-195 0 -308 -121q-131 -139 -131 -420q0 -299 162 -473q150 -163 379 -163q68 0 125 16z" />
    <glyph glyph-name="r" unicode="r" horiz-adv-x="1404" 
d="M294 1069q0 68 -2 107q-4 73 -78 94l-30 4q-21 2 -41 2q-31 0 -31 18q0 17 41 17l307 -4q27 2 82 2l137 2q105 0 178 -13q99 -18 164 -61q47 -33 82 -88q45 -72 45 -152q0 -184 -250 -385l60 -71q31 -41 55 -68l103 -125q106 -127 178 -198q65 -66 123 -93q20 -10 41 -16
l51 -10h20q23 0 23 -19q0 -18 -35 -18h-172q-129 0 -197 35q-55 26 -114 92q-48 51 -131 164q-25 30 -54 73l-90 129q-18 27 -26 35q-13 13 -33 13l-162 4q-14 0 -14 -15v-24q0 -133 2 -219q2 -101 8 -152q10 -84 70 -92q40 -6 88 -6q22 0 22 -19q0 -18 -37 -18l-319 6
q-10 -2 -27 -2l-156 -4q-34 0 -34 18q0 19 28 19q39 0 64 6q43 10 53 92q6 49 8 154v786zM524 672q0 -23 16 -31q51 -16 137 -16q88 0 127 28q49 35 80 90q37 70 37 168q0 164 -96 248q-76 62 -178 62q-78 0 -107 -7q-16 -6 -16 -24v-518z" />
    <glyph glyph-name="s" unicode="s" horiz-adv-x="1105" 
d="M333 -18q-82 10 -137 34q-35 15 -35 60q0 59 4 141q2 14 2 29l4 61q0 45 23 45q10 0 16 -10q2 -6 2 -18q0 -41 17 -91q26 -90 116 -135q74 -37 170 -37q250 0 250 222q0 67 -29 116q-40 66 -149 129l-104 62q-156 90 -222 186q-61 90 -61 209q0 156 133 256
q129 94 322 94q79 0 153 -10q60 -6 103 -18q24 -7 24 -23l-6 -209q0 -55 -23 -55q-18 0 -18 31q0 8 -2 18q-2 14 -6 29q-14 39 -39 67q-27 33 -66 54q-57 28 -135 28q-102 0 -172 -49q-74 -51 -74 -137q0 -64 35 -111q41 -55 156 -119l74 -40q170 -95 245 -201
q66 -96 66 -221q0 -199 -180 -326q-58 -41 -148 -59q-65 -13 -153 -13t-156 11z" />
    <glyph glyph-name="t" unicode="t" horiz-adv-x="1296" 
d="M534 1204l-268 -6q-140 -2 -174 -53q-13 -17 -21 -35q-4 -6 -6 -14l-4 -11q-6 -22 -21 -22q-16 0 -16 29q0 10 6 43q4 28 12 67l21 101q6 32 20 32l50 -14q14 -4 28 -6q72 -8 180 -8h732q38 0 73 2q25 2 49 6l50 8q14 0 14 -37l-4 -211q-4 -28 -17 -28q-18 0 -20 34
l-2 19q-4 41 -47 65q-55 33 -166 35l-227 4v-704q0 -133 2 -217q2 -103 8 -156q10 -82 69 -90q37 -6 93 -6q28 0 28 -19q0 -18 -34 -18l-334 6q-13 -2 -31 -2l-162 -4q-35 0 -35 18q0 19 29 19q43 0 64 6q43 10 53 92q6 49 8 154v921z" />
    <glyph glyph-name="u" unicode="u" horiz-adv-x="1556" 
d="M216 807q0 342 -2 369q-4 73 -78 94l-30 4q-19 2 -39 2q-31 0 -31 18q0 17 39 17l315 -4l187 4q39 0 39 -17q0 -18 -29 -18q-19 0 -53 -6q-60 -10 -66 -94l-4 -107v-506q0 -180 35 -280q31 -86 102 -142q53 -43 121 -59q27 -6 55 -8q15 -2 27 -2h25q65 0 122 20
q70 23 119 72q68 63 90 180q9 49 13 115q2 47 2 129v219q0 176 -2 262l-2 107q-5 73 -76 94l-31 4q-18 2 -35 2q-30 0 -30 18q0 17 36 17l195 -4l231 4q37 0 37 -17q0 -18 -30 -18q-19 0 -54 -6q-59 -10 -65 -94l-2 -107q-2 -86 -2 -262v-186q0 -84 -6 -146q-7 -80 -23 -143
q-41 -152 -143 -236q-86 -71 -195 -102q-82 -23 -186 -23h-39q-25 0 -47 2q-58 4 -107 15q-133 26 -219 102q-78 68 -117 166q-47 119 -47 295v256z" />
    <glyph glyph-name="v" unicode="v" horiz-adv-x="1304" 
d="M125 1141q-45 106 -133 129q-16 4 -39 6h-31q-20 0 -20 18q0 17 45 17l209 -4l283 4q18 0 30 -4q13 -4 13 -13q0 -18 -29 -18q-53 0 -70 -12q-18 -13 -18 -35q0 -29 41 -131l303 -781h6q29 66 82 195l209 504l74 192q4 19 4 29q0 23 -25 31q-27 8 -72 8q-30 0 -30 18
q0 17 51 17l225 -4l137 4q37 0 37 -17q0 -18 -28 -18h-17q-12 0 -22 -2q-15 -2 -25 -6q-14 -4 -24 -13q-11 -6 -19 -14l-18 -27q-25 -36 -58 -112q-24 -58 -51 -113l-166 -358l-239 -533q-58 -127 -86 -127q-29 0 -74 105z" />
    <glyph glyph-name="w" unicode="w" horiz-adv-x="1955" 
d="M130 1141q-37 104 -64 121q-12 8 -35 12l-34 2q-29 0 -29 18q0 17 41 17l244 -4l10 2l164 2q39 0 39 -17q0 -18 -33 -18q-27 0 -45 -8q-19 -6 -19 -35q0 -14 11 -57l28 -103q11 -41 43 -149l70 -224q84 -274 109 -348h6l344 889q24 64 53 64q27 0 59 -82l361 -858h6
q12 34 43 133l192 628q19 62 19 101q0 49 -88 49q-31 0 -31 18q0 17 43 17l221 -4l8 2l113 2q33 0 33 -15q0 -20 -25 -20q-37 0 -63 -8q-29 -11 -53 -60l-48 -123q-28 -75 -77 -217l-279 -815q-26 -82 -57 -82q-29 0 -64 84l-366 858h-4q-7 -12 -21 -51l-137 -342
q-29 -74 -55 -137q-29 -72 -54 -129q-55 -135 -79 -191q-44 -92 -70 -92q-27 0 -49 64z" />
    <glyph glyph-name="x" unicode="x" horiz-adv-x="1300" 
d="M759 725q16 -25 79 -125l248 -383q58 -88 74 -106q41 -52 98 -70q31 -10 70 -10q22 0 22 -19q0 -18 -34 -18h-181l-206 4q-64 2 -64 18q0 17 25 23q8 2 12 10q4 12 -6 27l-285 467l-264 -410q-29 -47 -27 -74q4 -26 35 -26l39 -2q8 0 14 -6q9 -7 9 -15q0 -16 -37 -16
l-207 6l-182 -6q-27 0 -27 16q0 21 25 21q12 0 26 2q21 2 39 6q64 16 143 127l353 475l-318 496q-65 100 -145 127q-43 12 -76 12q-18 0 -18 20q0 15 37 15l307 -4l170 4q37 0 37 -17q0 -18 -29 -18q-21 0 -43 -6q-25 -6 -25 -25q0 -18 19 -51q51 -90 116 -197l109 -182
l244 363q10 16 16 34q4 17 4 29q0 23 -30 29q-13 4 -31 6h-27q-22 0 -22 18q0 17 39 17l221 -4l143 4q33 0 33 -17q0 -18 -29 -18q-24 0 -65 -10q-39 -11 -129 -133z" />
    <glyph glyph-name="y" unicode="y" horiz-adv-x="1208" 
d="M490 446q0 64 -11 107q-8 29 -30 76q-4 10 -47 76q-37 61 -95 151l-180 274q-69 99 -117 123q-41 23 -75 23q-27 0 -27 18q0 17 35 17l262 -4l168 4q27 0 27 -17q0 -10 -11 -14l-30 -8q-25 -6 -25 -27q0 -20 23 -59l278 -475q14 -27 21 -35l133 229q53 94 86 148l30 57
q15 23 19 33q26 55 26 92q0 31 -38 39l-23 6q-10 4 -10 14q0 17 30 17l136 -4l233 4q33 0 33 -15q0 -20 -35 -20q-33 0 -78 -21q-43 -20 -94 -81q-20 -25 -76 -107q-49 -74 -108 -170q-62 -96 -107 -172q-47 -82 -59 -109q-17 -41 -21 -90q-2 -16 -2 -41v-252l4 -104
q7 -82 74 -92q41 -6 90 -6q31 0 31 -19q0 -18 -39 -18l-328 6q-12 -2 -30 -2l-158 -4q-39 0 -39 18q0 19 29 19q39 0 63 6q49 10 55 92q5 47 7 104v213z" />
    <glyph glyph-name="z" unicode="z" horiz-adv-x="1280" 
d="M843 104q129 0 197 25q57 21 82 66q24 45 33 79q6 29 20 29q10 0 14 -10q5 -12 5 -43q0 -39 -13 -113q-12 -61 -22 -100q-15 -45 -56 -45l-970 8q-31 0 -31 18q0 9 4 19q4 12 19 33l383 577l374 557h-411l-70 -4q-76 -6 -115 -26q-88 -50 -96 -134q-4 -30 -22 -30
q-19 0 -19 28q0 27 14 121l23 131q2 33 20 33q7 0 13 -2l30 -8q15 -2 29 -2q109 -4 203 -4h684q31 0 31 -15q0 -10 -2 -16l-5 -8q0 -2 -2 -4t-2 -4q-90 -142 -190 -295q-92 -140 -195 -291q-92 -139 -196 -289q-90 -133 -193 -281h432z" />
    <glyph glyph-name="braceleft" unicode="{" horiz-adv-x="737" 
d="M278 717q111 -41 144 -160q16 -59 20 -131v-176q0 -234 49 -352q39 -93 105 -107q30 -8 39 -12q10 -6 10 -15q0 -10 -12 -12q-15 -2 -62 -2q-45 0 -98 29q-70 39 -121 108q-49 68 -72 152q-32 119 -32 315l16 219q0 41 -14 62q-25 37 -123 51q-29 6 -29 21q0 20 29 22
l55 4q39 6 61 27q25 20 25 100q0 41 -10 121l-2 14q0 11 -2 15q-2 16 -2 28q-4 29 -4 45q0 144 36 232q29 67 95 129q92 84 223 84q41 0 41 -15q0 -12 -37 -18q-53 -8 -100 -63q-64 -74 -64 -189v-221q-2 -92 -16 -148q-31 -120 -148 -155v-2z" />
    <glyph glyph-name="bar" unicode="|" horiz-adv-x="1024" 
d="M450 -512v2048h125v-2048h-125z" />
    <glyph glyph-name="braceright" unicode="}" horiz-adv-x="737" 
d="M311 874q-14 56 -16 148v221q0 115 -64 189q-47 55 -100 63q-37 6 -37 18q0 15 41 15q131 0 223 -84q66 -62 94 -129q37 -88 37 -232q0 -16 -4 -45q0 -12 -2 -28q-2 -4 -2 -15l-2 -14q-10 -80 -10 -121q0 -80 24 -100q23 -21 62 -27l55 -4q29 -2 29 -22q0 -15 -29 -21
q-98 -14 -123 -51q-14 -21 -14 -62l14 -163l2 -56q0 -196 -32 -315q-23 -84 -72 -152q-51 -69 -121 -108q-53 -29 -98 -29q-47 0 -62 2q-12 2 -12 12q0 9 10 15q8 4 39 12q66 14 105 107q49 118 49 352v98q0 49 2 78q2 72 18 131q33 119 144 160q-117 39 -148 157z" />
    <glyph glyph-name="asciitilde" unicode="~" horiz-adv-x="1124" 
d="M1056 700q8 -157 -63 -235q-60 -64 -166 -64q-103 0 -279 88l-65 33q-37 17 -64 27q-63 24 -108 24q-105 0 -111 -170h-117q-8 297 238 297q92 0 274 -88q92 -43 133 -57q66 -25 109 -25q100 0 102 170h117z" />
    <glyph glyph-name="dieresis" unicode="&#xa8;" horiz-adv-x="1024" 
 />
    <glyph glyph-name="copyright" unicode="&#xa9;" horiz-adv-x="1640" 
d="M1104 940q-20 89 -94 131q-71 41 -170 41q-148 -3 -226 -100q-77 -97 -77 -248q3 -94 41 -166q38 -69 108 -109q72 -40 170 -40q100 0 162 45q65 45 86 135h125q-12 -95 -68 -166q-54 -72 -135 -109q-82 -39 -170 -39q-119 0 -217 52q-101 51 -164 153q-61 97 -72 240
q0 163 65.5 271.5t168.5 160.5q99 51 219 51q104 0 178 -39q77 -36 129 -106q52 -74 66 -158h-125zM819 1577q162 0 311 -61q150 -64 261 -175q109 -109 174 -258q63 -144 63 -311q0 -213 -108 -403q-111 -187 -297 -293q-89 -52 -192 -80.5t-212 -28.5q-108 0 -208.5 27.5
t-194.5 81.5q-185 107 -295 293q-54 94 -81.5 194t-27.5 209t28 211t81 193q111 186 295 292q189 109 403 109zM819 1448q-178 0 -338 -90q-77 -46 -138 -107t-107 -141q-93 -156 -93 -338q0 -180 93 -338q89 -154 245 -244q84 -46 166.5 -68t171.5 -22q179 0 338 90
q75 42 138 104.5t110 139.5q90 160 90 338q0 141 -51 260q-51 123 -146.5 218.5t-218.5 146.5q-119 51 -260 51z" />
    <glyph glyph-name="registered" unicode="&#xae;" horiz-adv-x="1640" 
d="M508 1221h391q295 0 301 -238q0 -123 -70 -186q-69 -66 -169 -66l227 -420h-148l-231 420h-168v-420h-133v910zM893 1087h-252v-223h270q160 0 160 105q0 118 -178 118zM819 1448q-178 0 -338 -90q-77 -46 -138 -107t-107 -141q-93 -156 -93 -338q0 -180 93 -338
q89 -154 245 -244q84 -46 166.5 -68t171.5 -22q179 0 338 90q75 42 138 104.5t110 139.5q90 160 90 338q0 141 -51 260q-51 123 -146.5 218.5t-218.5 146.5q-119 51 -260 51zM819 1577q162 0 311 -61q150 -64 261 -175q109 -109 174 -258q63 -144 63 -311q0 -213 -108 -403
q-111 -187 -297 -293q-89 -52 -192 -80.5t-212 -28.5q-108 0 -208.5 27.5t-194.5 81.5q-185 107 -295 293q-54 94 -81.5 194t-27.5 209t28 211t81 193q111 186 295 292q189 109 403 109z" />
    <glyph glyph-name="acute" unicode="&#xb4;" horiz-adv-x="1024" 
 />
    <glyph glyph-name="paragraph" unicode="&#xb6;" horiz-adv-x="1024" 
d="M929 1435v-70h-127v-1365h-82v1365h-166v-1365h-84v738q-174 8 -275.5 102.5t-101.5 245.5q0 157 107.5 253t285.5 96h443z" />
    <glyph glyph-name="onequarter" unicode="&#xbc;" horiz-adv-x="1298" 
 />
    <glyph glyph-name="onehalf" unicode="&#xbd;" horiz-adv-x="1320" 
 />
    <glyph glyph-name="threequarters" unicode="&#xbe;" horiz-adv-x="1288" 
 />
    <glyph glyph-name="Agrave" unicode="&#xc0;" horiz-adv-x="1433" 
d="M418 528q-12 0 -19 -16l-110 -293q-31 -76 -31 -125q0 -63 82 -63h31q30 0 30 -17q0 -20 -34 -20l-250 6q-4 -2 -12 -2h-46q-88 -4 -151 -4q-39 0 -39 20q0 17 25 17q30 0 63 4q66 8 107 59q32 37 67 125l514 1286q35 82 58 82q22 0 51 -65q16 -37 82 -201l299 -748
q82 -206 127 -311q51 -123 102 -176q21 -23 43 -35q14 -8 35 -12q41 -8 86 -8q27 0 27 -17q0 -20 -95 -20l-399 4l-33 4q-16 2 -16 12q0 17 28 19q13 4 19 16q6 14 0 31l-164 434q-6 14 -20 14h-457zM836 631q14 0 10 12l-184 506q-5 18 -11 18q-8 0 -12 -18l-188 -504
q-4 -14 8 -14h377zM860 1704q-6 -4 -14 -4q-10 0 -74 24l-133 56q-154 63 -209 90q-29 12 -49 26q-18 15 -18 25q0 12 26 18q84 27 137 52q31 14 39 14q6 0 13 -12l20 -33q19 -25 86 -88q78 -76 141 -121l17 -10q0 -2 6 -4q4 -4 6 -4q14 -11 14 -19q0 -6 -8 -10z" />
    <glyph glyph-name="Aacute" unicode="&#xc1;" horiz-adv-x="1433" 
d="M418 528q-12 0 -19 -16l-110 -293q-31 -76 -31 -125q0 -63 82 -63h31q30 0 30 -17q0 -20 -34 -20l-250 6q-4 -2 -12 -2h-46q-88 -4 -151 -4q-39 0 -39 20q0 17 25 17q30 0 63 4q66 8 107 59q32 37 67 125l514 1286q35 82 58 82q22 0 51 -65q16 -37 82 -201l299 -748
q82 -206 127 -311q51 -123 102 -176q21 -23 43 -35q14 -8 35 -12q41 -8 86 -8q27 0 27 -17q0 -20 -95 -20l-399 4l-33 4q-16 2 -16 12q0 17 28 19q13 4 19 16q6 14 0 31l-164 434q-6 14 -20 14h-457zM836 631q14 0 10 12l-184 506q-5 18 -11 18q-8 0 -12 -18l-188 -504
q-4 -14 8 -14h377zM1057 1868q8 -17 4 -25q-4 -6 -14 -6l-43 2q-13 0 -27 -2q-78 -10 -188 -51q-97 -35 -162 -70l-13 -6q-6 -4 -10 -4q-10 -6 -12 -6q-12 0 -12 12q0 8 18 27q29 26 82 69l102 82q113 86 146 107q14 10 26 14q9 4 15 4q14 0 28 -24q23 -37 60 -123z" />
    <glyph glyph-name="Acircumflex" unicode="&#xc2;" horiz-adv-x="1433" 
d="M418 528q-12 0 -19 -16l-110 -293q-31 -76 -31 -125q0 -63 82 -63h31q30 0 30 -17q0 -20 -34 -20l-250 6q-4 -2 -12 -2h-46q-88 -4 -151 -4q-39 0 -39 20q0 17 25 17q30 0 63 4q66 8 107 59q32 37 67 125l514 1286q35 82 58 82q22 0 51 -65q16 -37 82 -201l299 -748
q82 -206 127 -311q51 -123 102 -176q21 -23 43 -35q14 -8 35 -12q41 -8 86 -8q27 0 27 -17q0 -20 -95 -20l-399 4l-33 4q-16 2 -16 12q0 17 28 19q13 4 19 16q6 14 0 31l-164 434q-6 14 -20 14h-457zM836 631q14 0 10 12l-184 506q-5 18 -11 18q-8 0 -12 -18l-188 -504
q-4 -14 8 -14h377zM766 1987l41 -31q29 -25 76 -58l127 -96q28 -20 28 -28q0 -11 -10 -21l-59 -59q-15 -15 -27 -15q-8 0 -31 23q-24 27 -96 86q-63 51 -84 65q-14 13 -26 13q-11 0 -31 -11q-47 -26 -107 -67q-67 -47 -110 -84q-27 -25 -41 -25q-19 0 -19 21q0 8 19 31
l133 127q47 45 86 79q41 39 51 48q27 24 43 24q6 0 37 -22z" />
    <glyph glyph-name="Atilde" unicode="&#xc3;" horiz-adv-x="1433" 
d="M418 528q-12 0 -19 -16l-110 -293q-31 -76 -31 -125q0 -63 82 -63h31q30 0 30 -17q0 -20 -34 -20l-250 6q-4 -2 -12 -2h-46q-88 -4 -151 -4q-39 0 -39 20q0 17 25 17q30 0 63 4q66 8 107 59q32 37 67 125l514 1286q35 82 58 82q22 0 51 -65q16 -37 82 -201l299 -748
q82 -206 127 -311q51 -123 102 -176q21 -23 43 -35q14 -8 35 -12q41 -8 86 -8q27 0 27 -17q0 -20 -95 -20l-399 4l-33 4q-16 2 -16 12q0 17 28 19q13 4 19 16q6 14 0 31l-164 434q-6 14 -20 14h-457zM836 631q14 0 10 12l-184 506q-5 18 -11 18q-8 0 -12 -18l-188 -504
q-4 -14 8 -14h377zM754 1720q-19 6 -41 19l-94 49q-35 14 -72 14q-51 0 -94 -30q-15 -11 -27 -25q-6 -4 -10 -10l-4 -4q-4 -2 -4 -4q-13 -13 -21 -17q-6 -4 -12 -4q-14 0 -14 14q0 7 6 21q4 12 10 18q6 11 14 21l19 24q22 29 49 54q67 59 131 59q47 0 92 -18l72 -39
q80 -45 147 -45q47 0 88 26l25 21l12 14q21 27 33 27q16 0 16 -17q0 -6 -4 -16l-8 -19q-8 -16 -25 -38q-22 -29 -47 -52q-67 -63 -129 -63q-55 0 -108 20z" />
    <glyph glyph-name="Egrave" unicode="&#xc8;" 
d="M336 1257l-4 125q-6 99 -88 117q-25 6 -80 6q-35 0 -35 19q0 18 45 18l295 -6h424l88 2q68 6 88 12q4 0 8 2l25 7q12 0 12 -19l-10 -74q-4 -26 -6 -59l-8 -107q0 -20 -3 -28q-2 -10 -6 -15q-4 -8 -14 -8q-18 0 -18 29q0 16 -2 33q-5 24 -11 41q-12 30 -35 47
q-30 18 -102 26q-12 2 -55 2l-88 5l-148 2q-14 0 -14 -21v-518q0 -23 14 -23h164q59 0 98 2q50 0 66 3q76 6 98 30q23 27 33 27q14 0 14 -16l-10 -84q-4 -31 -6 -66l-8 -137q0 -39 -19 -39q-18 0 -18 18l-2 35q-2 23 -6 39q-17 70 -115 80q-14 2 -55 2q-35 2 -86 2l-150 2
q-12 0 -12 -20v-480q4 -108 47 -139q45 -33 199 -33h45l51 4q61 4 96 21q72 33 92 151q6 31 23 31q16 0 16 -37q0 -121 -26 -227q-15 -53 -111 -53t-201 2l-153 4q-131 6 -213 6h-49q-35 0 -68 -2l-141 -4q-41 0 -41 20q0 17 32 17q37 0 74 8q45 8 60 113q6 57 8 180
q2 49 2 121v804zM829 1704q-6 -4 -14 -4q-10 0 -74 24l-133 56q-153 63 -209 90q-28 12 -49 26q-18 15 -18 25q0 12 26 18q84 27 138 52q30 14 39 14q6 0 12 -12l20 -33q19 -25 86 -88q78 -76 142 -121l16 -10q0 -2 6 -4q4 -4 6 -4q15 -11 15 -19q0 -6 -9 -10z" />
    <glyph glyph-name="Eacute" unicode="&#xc9;" 
d="M336 1257l-4 125q-6 99 -88 117q-25 6 -80 6q-35 0 -35 19q0 18 45 18l295 -6h424l88 2q68 6 88 12q4 0 8 2l25 7q12 0 12 -19l-10 -74q-4 -26 -6 -59l-8 -107q0 -20 -3 -28q-2 -10 -6 -15q-4 -8 -14 -8q-18 0 -18 29q0 16 -2 33q-5 24 -11 41q-12 30 -35 47
q-30 18 -102 26q-12 2 -55 2l-88 5l-148 2q-14 0 -14 -21v-518q0 -23 14 -23h164q59 0 98 2q50 0 66 3q76 6 98 30q23 27 33 27q14 0 14 -16l-10 -84q-4 -31 -6 -66l-8 -137q0 -39 -19 -39q-18 0 -18 18l-2 35q-2 23 -6 39q-17 70 -115 80q-14 2 -55 2q-35 2 -86 2l-150 2
q-12 0 -12 -20v-480q4 -108 47 -139q45 -33 199 -33h45l51 4q61 4 96 21q72 33 92 151q6 31 23 31q16 0 16 -37q0 -121 -26 -227q-15 -53 -111 -53t-201 2l-153 4q-131 6 -213 6h-49q-35 0 -68 -2l-141 -4q-41 0 -41 20q0 17 32 17q37 0 74 8q45 8 60 113q6 57 8 180
q2 49 2 121v804zM1006 1868q8 -17 4 -25q-4 -6 -15 -6l-43 2q-12 0 -26 -2q-78 -10 -189 -51q-96 -35 -162 -70l-12 -6q-6 -4 -10 -4q-10 -6 -12 -6q-13 0 -13 12q0 8 19 27q28 26 82 69l102 82q113 86 146 107q14 10 26 14q8 4 14 4q15 0 29 -24q23 -37 60 -123z" />
    <glyph glyph-name="Ecircumflex" unicode="&#xca;" 
d="M336 1257l-4 125q-6 99 -88 117q-25 6 -80 6q-35 0 -35 19q0 18 45 18l295 -6h424l88 2q68 6 88 12q4 0 8 2l25 7q12 0 12 -19l-10 -74q-4 -26 -6 -59l-8 -107q0 -20 -3 -28q-2 -10 -6 -15q-4 -8 -14 -8q-18 0 -18 29q0 16 -2 33q-5 24 -11 41q-12 30 -35 47
q-30 18 -102 26q-12 2 -55 2l-88 5l-148 2q-14 0 -14 -21v-518q0 -23 14 -23h164q59 0 98 2q50 0 66 3q76 6 98 30q23 27 33 27q14 0 14 -16l-10 -84q-4 -31 -6 -66l-8 -137q0 -39 -19 -39q-18 0 -18 18l-2 35q-2 23 -6 39q-17 70 -115 80q-14 2 -55 2q-35 2 -86 2l-150 2
q-12 0 -12 -20v-480q4 -108 47 -139q45 -33 199 -33h45l51 4q61 4 96 21q72 33 92 151q6 31 23 31q16 0 16 -37q0 -121 -26 -227q-15 -53 -111 -53t-201 2l-153 4q-131 6 -213 6h-49q-35 0 -68 -2l-141 -4q-41 0 -41 20q0 17 32 17q37 0 74 8q45 8 60 113q6 57 8 180
q2 49 2 121v804zM735 1987l41 -31q29 -25 76 -58l127 -96q29 -20 29 -28q0 -11 -11 -21l-59 -59q-14 -15 -27 -15q-8 0 -30 23q-25 27 -97 86q-63 51 -84 65q-14 13 -26 13q-10 0 -31 -11q-47 -26 -106 -67q-68 -47 -111 -84q-27 -25 -41 -25q-18 0 -18 21q0 8 18 31
l133 127q47 45 86 79q41 39 51 48q27 24 43 24q6 0 37 -22z" />
    <glyph glyph-name="Igrave" unicode="&#xcc;" horiz-adv-x="925" 
d="M335 1257l-4 125q-6 101 -69 115q-31 8 -74 8q-33 0 -33 21q0 16 49 16l316 -6q12 2 32 2l168 4q43 0 43 -16q0 -21 -32 -21q-25 0 -62 -6q-69 -12 -76 -117l-4 -125v-811q0 -73 2 -124q0 -123 6 -183q11 -90 82 -100q58 -8 105 -8q33 0 33 -17q0 -20 -39 -20l-248 4
q-10 0 -19 2l-311 -6q-41 0 -41 20q0 17 33 17q37 0 74 8q49 10 59 102q6 58 8 181q2 51 2 124v811zM606 1704q-6 -4 -15 -4q-10 0 -73 24l-134 56q-153 63 -208 90q-29 12 -50 26q-18 15 -18 25q0 12 27 18q84 27 137 52q31 14 39 14q6 0 12 -12l21 -33q18 -25 86 -88
q77 -76 141 -121l16 -10q0 -2 6 -4q4 -4 7 -4q14 -11 14 -19q0 -6 -8 -10z" />
    <glyph glyph-name="Iacute" unicode="&#xcd;" horiz-adv-x="925" 
d="M335 1257l-4 125q-6 101 -70 115q-30 8 -73 8q-33 0 -33 21q0 16 49 16l316 -6q12 2 32 2l168 4q43 0 43 -16q0 -21 -33 -21q-24 0 -61 -6q-70 -12 -76 -117l-4 -125v-811q0 -73 2 -124q0 -123 6 -183q11 -90 82 -100q58 -8 105 -8q33 0 33 -17q0 -20 -39 -20l-248 4
q-10 0 -19 2l-311 -6q-41 0 -41 20q0 17 33 17q37 0 74 8q49 10 59 102q6 58 8 181q2 51 2 124v811zM802 1868q8 -17 4 -25q-4 -6 -14 -6l-43 2q-12 0 -27 -2q-78 -10 -188 -51q-96 -35 -162 -70l-12 -6q-6 -4 -10 -4q-11 -6 -13 -6q-12 0 -12 12q0 8 18 27q29 26 82 69
l103 82q112 86 145 107q14 10 27 14q8 4 14 4q14 0 29 -24q22 -37 59 -123z" />
    <glyph glyph-name="Ograve" unicode="&#xd2;" horiz-adv-x="1687" 
d="M511 39q-150 67 -256 192q-97 111 -146 258q-47 136 -47 279q0 139 45 272q51 148 148 260q108 125 262 195q172 76 391 76q381 0 604 -207t223 -559q0 -361 -229 -596q-236 -244 -619 -244q-211 0 -376 74zM1109 88q88 27 155 88q84 76 131 201q53 145 53 352
q0 336 -174 545q-168 199 -426 199q-96 0 -178 -29q-94 -33 -162 -101q-77 -77 -118 -196q-45 -133 -45 -316q0 -329 168 -540q174 -223 460 -223q70 0 136 20zM1041 1704q-6 -4 -14 -4q-11 0 -74 24l-133 56q-154 63 -209 90q-29 12 -49 26q-19 15 -19 25q0 12 27 18
q84 27 137 52q31 14 39 14q6 0 12 -12l21 -33q18 -25 86 -88q78 -76 141 -121l17 -10q0 -2 6 -4q4 -4 6 -4q14 -11 14 -19q0 -6 -8 -10z" />
    <glyph glyph-name="Oacute" unicode="&#xd3;" horiz-adv-x="1687" 
d="M511 39q-150 67 -256 192q-97 111 -146 258q-47 136 -47 279q0 139 45 272q51 148 148 260q108 125 262 195q172 76 391 76q381 0 604 -207t223 -559q0 -361 -229 -596q-236 -244 -619 -244q-211 0 -376 74zM1109 88q88 27 155 88q84 76 131 201q53 145 53 352
q0 336 -174 545q-168 199 -426 199q-96 0 -178 -29q-94 -33 -162 -101q-77 -77 -118 -196q-45 -133 -45 -316q0 -329 168 -540q174 -223 460 -223q70 0 136 20zM1238 1868q8 -17 4 -25q-4 -6 -15 -6l-43 2q-12 0 -26 -2q-78 -10 -189 -51q-96 -35 -162 -70l-12 -6
q-6 -4 -10 -4q-10 -6 -12 -6q-13 0 -13 12q0 8 19 27q28 26 82 69l102 82q113 86 146 107q14 10 26 14q8 4 14 4q15 0 29 -24q23 -37 60 -123z" />
    <glyph glyph-name="Ocircumflex" unicode="&#xd4;" horiz-adv-x="1687" 
d="M511 39q-150 67 -256 192q-97 111 -146 258q-47 136 -47 279q0 139 45 272q51 148 148 260q108 125 262 195q172 76 391 76q381 0 604 -207t223 -559q0 -361 -229 -596q-236 -244 -619 -244q-211 0 -376 74zM1109 88q88 27 155 88q84 76 131 201q53 145 53 352
q0 336 -174 545q-168 199 -426 199q-96 0 -178 -29q-94 -33 -162 -101q-77 -77 -118 -196q-45 -133 -45 -316q0 -329 168 -540q174 -223 460 -223q70 0 136 20zM947 1987l41 -31q28 -25 75 -58l127 -96q29 -20 29 -28q0 -11 -10 -21l-60 -59q-14 -15 -26 -15q-8 0 -31 23
q-24 27 -96 86q-64 51 -84 65q-14 13 -27 13q-10 0 -30 -11q-48 -26 -107 -67q-68 -47 -111 -84q-26 -25 -40 -25q-19 0 -19 21q0 8 19 31l133 127q47 45 86 79q41 39 51 48q26 24 43 24q6 0 37 -22z" />
    <glyph glyph-name="Otilde" unicode="&#xd5;" horiz-adv-x="1687" 
d="M511 39q-150 67 -256 192q-97 111 -146 258q-47 136 -47 279q0 139 45 272q51 148 148 260q108 125 262 195q172 76 391 76q381 0 604 -207t223 -559q0 -361 -229 -596q-236 -244 -619 -244q-211 0 -376 74zM1109 88q88 27 155 88q84 76 131 201q53 145 53 352
q0 336 -174 545q-168 199 -426 199q-96 0 -178 -29q-94 -33 -162 -101q-77 -77 -118 -196q-45 -133 -45 -316q0 -329 168 -540q174 -223 460 -223q70 0 136 20zM934 1720q-18 6 -41 19l-94 49q-35 14 -71 14q-52 0 -95 -30q-14 -11 -26 -25q-6 -4 -10 -10l-5 -4q-4 -2 -4 -4
q-12 -13 -20 -17q-6 -4 -12 -4q-15 0 -15 14q0 7 6 21q4 12 11 18q6 11 14 21q8 12 18 24q23 29 50 54q67 59 131 59q47 0 92 -18l71 -39q80 -45 148 -45q47 0 88 26l25 21l12 14q20 27 33 27q16 0 16 -17q0 -6 -4 -16l-8 -19q-8 -16 -25 -38q-22 -29 -47 -52
q-68 -63 -129 -63q-55 0 -109 20z" />
    <glyph glyph-name="Ugrave" unicode="&#xd9;" horiz-adv-x="1744" 
d="M247 1257l-4 125q-6 99 -88 117q-25 6 -80 6q-35 0 -35 19q0 18 45 18l348 -6q15 2 33 2l170 4q45 0 45 -18q0 -19 -33 -19q-22 0 -59 -6q-70 -12 -76 -117l-4 -125v-595q0 -211 43 -332q37 -107 117 -172q61 -52 137 -70q51 -14 119 -14q76 0 145 24q80 29 137 86
q76 76 103 217q10 60 14 140q2 55 2 151v565l-4 125q-6 99 -88 117q-25 6 -74 6q-35 0 -35 19q0 18 43 18q66 0 156 -2q16 -2 33 -2l82 -2q6 2 14 2l184 4q43 0 43 -18q0 -19 -36 -19q-23 0 -60 -6q-69 -12 -76 -117l-4 -125v-528q0 -98 -6 -172q-8 -92 -26 -166
q-46 -178 -162 -278q-101 -86 -217 -121q-92 -27 -209 -27h-45l-51 4q-62 4 -115 17q-146 32 -244 120q-86 78 -131 195q-51 139 -51 348v608zM1023 1704q-6 -4 -14 -4q-11 0 -74 24l-133 56q-154 63 -209 90q-29 12 -49 26q-19 15 -19 25q0 12 27 18q84 27 137 52
q31 14 39 14q6 0 12 -12l21 -33q18 -25 86 -88q78 -76 141 -121l17 -10q0 -2 6 -4q4 -4 6 -4q14 -11 14 -19q0 -6 -8 -10z" />
    <glyph glyph-name="Uacute" unicode="&#xda;" horiz-adv-x="1744" 
d="M247 1257l-4 125q-6 99 -88 117q-25 6 -80 6q-35 0 -35 19q0 18 45 18l348 -6q15 2 33 2l170 4q45 0 45 -18q0 -19 -33 -19q-22 0 -59 -6q-70 -12 -76 -117l-4 -125v-595q0 -211 43 -332q37 -107 117 -172q61 -52 137 -70q51 -14 119 -14q76 0 145 24q80 29 137 86
q76 76 103 217q10 60 14 140q2 55 2 151v565l-4 125q-6 99 -88 117q-25 6 -74 6q-35 0 -35 19q0 18 43 18q66 0 156 -2q16 -2 33 -2l82 -2q6 2 14 2l184 4q43 0 43 -18q0 -19 -36 -19q-23 0 -60 -6q-69 -12 -76 -117l-4 -125v-528q0 -98 -6 -172q-8 -92 -26 -166
q-46 -178 -162 -278q-101 -86 -217 -121q-92 -27 -209 -27h-45l-51 4q-62 4 -115 17q-146 32 -244 120q-86 78 -131 195q-51 139 -51 348v608zM1250 1868q9 -17 4 -25q-4 -6 -14 -6l-43 2q-12 0 -27 -2q-77 -10 -188 -51q-96 -35 -162 -70l-12 -6q-6 -4 -10 -4
q-10 -6 -13 -6q-12 0 -12 12q0 8 19 27q28 26 82 69l102 82q113 86 145 107q15 10 27 14q8 4 14 4q15 0 29 -24q23 -37 59 -123z" />
    <glyph glyph-name="Yacute" unicode="&#xdd;" horiz-adv-x="1478" 
d="M566 524q0 74 -15 127q-4 21 -14 45l-19 43l-157 269l-203 321q-76 111 -141 150q-49 26 -86 26q-31 0 -31 19q0 18 39 18l297 -6q10 2 24 2h15q8 0 14 2q76 2 127 2q31 0 31 -18q0 -11 -45 -23q-29 -6 -29 -37q0 -20 25 -69l172 -308l176 -305l307 564q29 63 29 106
q0 41 -43 51l-25 8q-12 5 -12 13q0 18 35 18l100 -2q0 -2 2 -2l137 -2l66 4l106 2q37 0 37 -16q0 -21 -39 -21q-43 0 -90 -24q-47 -23 -110 -101q-25 -28 -84 -125q-56 -84 -123 -198q-68 -111 -117 -201q-53 -94 -68 -127q-20 -49 -26 -104q-4 -33 -4 -101v-250
q2 -67 6 -122q6 -103 84 -113q57 -8 102 -8q33 0 33 -17q0 -20 -43 -20l-242 4q-10 0 -18 2l-309 -6q-45 0 -45 20q0 17 32 17q35 0 72 8q57 12 63 113q5 55 7 122v250zM1164 1868q9 -17 4 -25q-4 -6 -14 -6l-43 2q-12 0 -27 -2q-77 -10 -188 -51q-96 -35 -162 -70l-12 -6
q-6 -4 -10 -4q-10 -6 -13 -6q-12 0 -12 12q0 8 19 27q28 26 82 69l102 82q113 86 145 107q15 10 27 14q8 4 14 4q15 0 29 -24q23 -37 59 -123z" />
    <glyph glyph-name="agrave" unicode="&#xe0;" 
d="M373 432q-12 0 -16 -12l-96 -234q-27 -61 -27 -106q0 -49 72 -49h26q27 0 27 -19q0 -18 -29 -18h-49l-104 6l-123 -2q-76 -4 -133 -4q-33 0 -33 18q0 19 20 19l54 2q90 14 149 153l471 1096q29 70 54 70q26 0 53 -56l344 -807q76 -178 115 -266q47 -104 90 -149
q30 -31 63 -37q41 -6 68 -6q24 0 24 -19q0 -10 -14 -14t-64 -4l-358 4l-10 2q-10 0 -17 2q-14 2 -14 10q0 17 23 19q10 2 16 12q6 12 0 27l-139 350q-4 12 -19 12h-424zM758 528q13 0 9 11l-172 448q0 2 -2 4q-3 6 -5 6q-4 0 -6 -6q-2 -2 -2 -4l-176 -446q-6 -13 6 -13h348z
M791 1475q-6 -5 -14 -5q-10 0 -74 25l-133 55q-154 64 -209 90q-29 13 -49 27q-18 14 -18 25q0 12 26 18q84 27 137 51q31 15 39 15q6 0 13 -13l20 -32q18 -25 86 -89q78 -75 141 -120l17 -11q0 -2 6 -4q4 -4 6 -4q14 -10 14 -18q0 -6 -8 -10z" />
    <glyph glyph-name="aacute" unicode="&#xe1;" 
d="M373 432q-12 0 -16 -12l-96 -234q-27 -61 -27 -106q0 -49 72 -49h26q27 0 27 -19q0 -18 -29 -18h-49l-104 6l-123 -2q-76 -4 -133 -4q-33 0 -33 18q0 19 20 19l54 2q90 14 149 153l471 1096q29 70 54 70q26 0 53 -56l344 -807q76 -178 115 -266q47 -104 90 -149
q30 -31 63 -37q41 -6 68 -6q24 0 24 -19q0 -10 -14 -14t-64 -4l-358 4l-10 2q-10 0 -17 2q-14 2 -14 10q0 17 23 19q10 2 16 12q6 12 0 27l-139 350q-4 12 -19 12h-424zM758 528q13 0 9 11l-172 448q0 2 -2 4q-3 6 -5 6q-4 0 -6 -6q-2 -2 -2 -4l-176 -446q-6 -13 6 -13h348z
M988 1638q8 -16 4 -24q-4 -6 -14 -6l-43 2q-13 0 -27 -2q-78 -11 -189 -52q-96 -34 -161 -69l-13 -6q-6 -4 -10 -4q-10 -7 -12 -7q-12 0 -12 13q0 8 18 26q29 27 82 70l102 82q113 86 146 106q14 11 26 15q9 4 15 4q14 0 28 -25q23 -37 60 -123z" />
    <glyph glyph-name="acircumflex" unicode="&#xe2;" 
d="M373 432q-12 0 -16 -12l-96 -234q-27 -61 -27 -106q0 -49 72 -49h26q27 0 27 -19q0 -18 -29 -18h-49l-104 6l-123 -2q-76 -4 -133 -4q-33 0 -33 18q0 19 20 19l54 2q90 14 149 153l471 1096q29 70 54 70q26 0 53 -56l344 -807q76 -178 115 -266q47 -104 90 -149
q30 -31 63 -37q41 -6 68 -6q24 0 24 -19q0 -10 -14 -14t-64 -4l-358 4l-10 2q-10 0 -17 2q-14 2 -14 10q0 17 23 19q10 2 16 12q6 12 0 27l-139 350q-4 12 -19 12h-424zM758 528q13 0 9 11l-172 448q0 2 -2 4q-3 6 -5 6q-4 0 -6 -6q-2 -2 -2 -4l-176 -446q-6 -13 6 -13h348z
M697 1757l41 -31q29 -24 76 -57l127 -96q28 -21 28 -29q0 -10 -10 -20l-59 -60q-15 -14 -27 -14q-8 0 -31 23q-24 26 -96 86q-63 51 -84 65q-14 12 -26 12q-11 0 -31 -10q-47 -27 -107 -67q-67 -48 -110 -84q-27 -25 -41 -25q-19 0 -19 20q0 9 19 31l133 127q47 45 86 80
q41 39 51 47q27 25 43 25q6 0 37 -23z" />
    <glyph glyph-name="atilde" unicode="&#xe3;" 
d="M373 432q-12 0 -16 -12l-96 -234q-27 -61 -27 -106q0 -49 72 -49h26q27 0 27 -19q0 -18 -29 -18h-49l-104 6l-123 -2q-76 -4 -133 -4q-33 0 -33 18q0 19 20 19l54 2q90 14 149 153l471 1096q29 70 54 70q26 0 53 -56l344 -807q76 -178 115 -266q47 -104 90 -149
q30 -31 63 -37q41 -6 68 -6q24 0 24 -19q0 -10 -14 -14t-64 -4l-358 4l-10 2q-10 0 -17 2q-14 2 -14 10q0 17 23 19q10 2 16 12q6 12 0 27l-139 350q-4 12 -19 12h-424zM758 528q13 0 9 11l-172 448q0 2 -2 4q-3 6 -5 6q-4 0 -6 -6q-2 -2 -2 -4l-176 -446q-6 -13 6 -13h348z
M685 1491q-19 6 -41 18l-94 50q-35 14 -72 14q-51 0 -94 -31q-15 -10 -27 -24q-6 -5 -10 -11l-4 -4q-4 -2 -4 -4q-13 -12 -21 -16q-6 -4 -12 -4q-15 0 -15 14q0 6 7 20q4 13 10 19q6 10 14 20q8 13 19 25q22 29 49 53q67 60 131 60q47 0 92 -19l72 -39q80 -45 147 -45
q47 0 88 27l25 20l12 15q21 26 33 26q16 0 16 -16q0 -6 -4 -17l-8 -18q-8 -16 -25 -39q-22 -29 -47 -51q-67 -64 -129 -64q-55 0 -108 21z" />
    <glyph glyph-name="egrave" unicode="&#xe8;" horiz-adv-x="1179" 
d="M184 1069q0 68 -2 107q-4 73 -78 94l-30 4q-21 2 -41 2q-31 0 -31 18q0 17 41 17l211 -4h541q12 0 24 2l51 8q4 0 15 4q10 4 14 4q12 0 12 -16l-4 -21q0 -6 -2 -10q-6 -35 -8 -82l-8 -90q0 -19 -2 -25l-2 -8q-2 -6 -4 -8q-5 -12 -15 -12q-14 0 -14 22q0 15 -2 29
q-4 20 -10 35q-13 28 -31 41q-27 16 -88 22q-10 2 -51 2l-88 4l-144 2q-12 0 -12 -16v-430q0 -19 12 -19h158q59 0 96 3q47 0 62 2q67 6 86 26l16 17q8 6 12 6q15 0 15 -19l-21 -194l-2 -49q0 -15 -2 -25q-6 -14 -16 -14q-17 0 -17 14l-6 63q-18 60 -100 68q-12 2 -51 2
l-86 4l-146 2q-10 0 -10 -18v-397q2 -89 55 -117q47 -29 189 -29q49 0 86 4q53 4 84 19q59 26 77 129q7 26 21 26q10 0 14 -14q2 -8 2 -27q0 -108 -24 -192q-13 -45 -97 -45q-198 0 -331 6l-246 4l-66 -2q-86 -4 -125 -4q-34 0 -34 18q0 19 28 19q39 0 64 6q43 10 53 92
q6 49 8 154v786zM661 1475q-6 -5 -14 -5q-10 0 -74 25l-133 55q-153 64 -209 90q-28 13 -49 27q-18 14 -18 25q0 12 26 18q84 27 138 51q30 15 39 15q6 0 12 -13l20 -32q19 -25 86 -89q78 -75 142 -120l16 -11q0 -2 6 -4q4 -4 6 -4q15 -10 15 -18q0 -6 -9 -10z" />
    <glyph glyph-name="eacute" unicode="&#xe9;" horiz-adv-x="1179" 
d="M184 1069q0 68 -2 107q-4 73 -78 94l-30 4q-21 2 -41 2q-31 0 -31 18q0 17 41 17l211 -4h541q12 0 24 2l51 8q4 0 15 4q10 4 14 4q12 0 12 -16l-4 -21q0 -6 -2 -10q-6 -35 -8 -82l-8 -90q0 -19 -2 -25l-2 -8q-2 -6 -4 -8q-5 -12 -15 -12q-14 0 -14 22q0 15 -2 29
q-4 20 -10 35q-13 28 -31 41q-27 16 -88 22q-10 2 -51 2l-88 4l-144 2q-12 0 -12 -16v-430q0 -19 12 -19h158q59 0 96 3q47 0 62 2q67 6 86 26l16 17q8 6 12 6q15 0 15 -19l-21 -194l-2 -49q0 -15 -2 -25q-6 -14 -16 -14q-17 0 -17 14l-6 63q-18 60 -100 68q-12 2 -51 2
l-86 4l-146 2q-10 0 -10 -18v-397q2 -89 55 -117q47 -29 189 -29q49 0 86 4q53 4 84 19q59 26 77 129q7 26 21 26q10 0 14 -14q2 -8 2 -27q0 -108 -24 -192q-13 -45 -97 -45q-198 0 -331 6l-246 4l-66 -2q-86 -4 -125 -4q-34 0 -34 18q0 19 28 19q39 0 64 6q43 10 53 92
q6 49 8 154v786zM819 1638q8 -16 4 -24q-4 -6 -14 -6l-43 2q-12 0 -27 -2q-78 -11 -188 -52q-96 -34 -162 -69l-12 -6q-6 -4 -10 -4q-11 -7 -13 -7q-12 0 -12 13q0 8 18 26q29 27 82 70l103 82q112 86 145 106q14 11 27 15q8 4 14 4q14 0 29 -25q22 -37 59 -123z" />
    <glyph glyph-name="ecircumflex" unicode="&#xea;" horiz-adv-x="1179" 
d="M184 1069q0 68 -2 107q-4 73 -78 94l-30 4q-21 2 -41 2q-31 0 -31 18q0 17 41 17l211 -4h541q12 0 24 2l51 8q4 0 15 4q10 4 14 4q12 0 12 -16l-4 -21q0 -6 -2 -10q-6 -35 -8 -82l-8 -90q0 -19 -2 -25l-2 -8q-2 -6 -4 -8q-5 -12 -15 -12q-14 0 -14 22q0 15 -2 29
q-4 20 -10 35q-13 28 -31 41q-27 16 -88 22q-10 2 -51 2l-88 4l-144 2q-12 0 -12 -16v-430q0 -19 12 -19h158q59 0 96 3q47 0 62 2q67 6 86 26l16 17q8 6 12 6q15 0 15 -19l-21 -194l-2 -49q0 -15 -2 -25q-6 -14 -16 -14q-17 0 -17 14l-6 63q-18 60 -100 68q-12 2 -51 2
l-86 4l-146 2q-10 0 -10 -18v-397q2 -89 55 -117q47 -29 189 -29q49 0 86 4q53 4 84 19q59 26 77 129q7 26 21 26q10 0 14 -14q2 -8 2 -27q0 -108 -24 -192q-13 -45 -97 -45q-198 0 -331 6l-246 4l-66 -2q-86 -4 -125 -4q-34 0 -34 18q0 19 28 19q39 0 64 6q43 10 53 92
q6 49 8 154v786zM528 1757l41 -31q29 -24 76 -57l127 -96q29 -21 29 -29q0 -10 -11 -20l-59 -60q-14 -14 -27 -14q-8 0 -30 23q-25 26 -97 86q-63 51 -83 65q-15 12 -27 12q-10 0 -31 -10q-47 -27 -106 -67q-68 -48 -111 -84q-27 -25 -41 -25q-18 0 -18 20q0 9 18 31
l133 127q47 45 86 80q41 39 51 47q27 25 43 25q7 0 37 -23z" />
    <glyph glyph-name="igrave" unicode="&#xec;" horiz-adv-x="833" 
d="M294 1069q0 68 -2 107q-6 73 -61 92q-27 8 -66 8q-28 0 -28 20q0 15 43 15l287 -4l186 4q37 0 37 -15q0 -20 -29 -20q-22 0 -53 -6q-62 -10 -68 -94l-4 -107v-690q0 -62 2 -105q0 -106 6 -155q11 -72 72 -82q37 -6 92 -6q29 0 29 -19q0 -18 -35 -18l-334 6q-12 -2 -31 -2
l-161 -4q-35 0 -35 18q0 19 29 19q38 0 63 6q45 10 53 84q6 49 8 153v795zM559 1475q-6 -5 -15 -5q-10 0 -73 25l-134 55q-153 64 -208 90q-29 13 -50 27q-18 14 -18 25q0 12 27 18q84 27 137 51q31 15 39 15q6 0 12 -13l21 -32q18 -25 86 -89q77 -75 141 -120l16 -11
q0 -2 6 -4q4 -4 7 -4q14 -10 14 -18q0 -6 -8 -10z" />
    <glyph glyph-name="iacute" unicode="&#xed;" horiz-adv-x="833" 
d="M295 1069q0 68 -2 107q-6 73 -62 92q-26 8 -65 8q-29 0 -29 20q0 15 43 15l287 -4l186 4q37 0 37 -15q0 -20 -29 -20q-22 0 -53 -6q-61 -10 -68 -94l-4 -107v-690q0 -62 2 -105q0 -106 7 -155q10 -72 71 -82q37 -6 92 -6q29 0 29 -19q0 -18 -35 -18l-334 6q-12 -2 -30 -2
l-162 -4q-35 0 -35 18q0 19 29 19q39 0 63 6q45 10 54 84q6 49 8 153v795zM755 1638q9 -16 5 -24q-5 -6 -15 -6l-43 2q-12 0 -26 -2q-78 -11 -189 -52q-96 -34 -162 -69l-12 -6q-6 -4 -10 -4q-10 -7 -12 -7q-13 0 -13 13q0 8 19 26q28 27 82 70l102 82q113 86 145 106
q15 11 27 15q8 4 14 4q15 0 29 -25q23 -37 59 -123z" />
    <glyph glyph-name="ograve" unicode="&#xf2;" horiz-adv-x="1583" 
d="M499 35q-135 57 -229 162q-86 94 -131 219q-41 116 -41 237q0 119 41 232q45 125 131 221q96 106 236 164q153 65 348 65q340 0 538 -176q199 -176 199 -475q0 -307 -203 -506q-211 -207 -553 -207q-188 0 -336 64zM1028 82q78 24 135 76q74 63 113 168q47 120 47 295
q0 282 -152 456q-147 166 -371 166q-81 0 -153 -22q-80 -29 -139 -84q-68 -66 -103 -164q-41 -113 -41 -266q0 -277 146 -455q149 -186 399 -186q61 0 119 16zM989 1475q-6 -5 -14 -5q-11 0 -74 25l-133 55q-154 64 -209 90q-29 13 -49 27q-19 14 -19 25q0 12 27 18
q84 27 137 51q31 15 39 15q6 0 12 -13l21 -32q18 -25 86 -89q78 -75 141 -120l16 -11q0 -2 7 -4q4 -4 6 -4q14 -10 14 -18q0 -6 -8 -10z" />
    <glyph glyph-name="oacute" unicode="&#xf3;" horiz-adv-x="1583" 
d="M499 35q-135 57 -229 162q-86 94 -131 219q-41 116 -41 237q0 119 41 232q45 125 131 221q96 106 236 164q153 65 348 65q340 0 538 -176q199 -176 199 -475q0 -307 -203 -506q-211 -207 -553 -207q-188 0 -336 64zM1028 82q78 24 135 76q74 63 113 168q47 120 47 295
q0 282 -152 456q-147 166 -371 166q-81 0 -153 -22q-80 -29 -139 -84q-68 -66 -103 -164q-41 -113 -41 -266q0 -277 146 -455q149 -186 399 -186q61 0 119 16zM1185 1638q9 -16 5 -24q-5 -6 -15 -6l-43 2q-12 0 -26 -2q-78 -11 -189 -52q-96 -34 -162 -69l-12 -6
q-6 -4 -10 -4q-10 -7 -12 -7q-13 0 -13 13q0 8 19 26q28 27 82 70l102 82q113 86 145 106q15 11 27 15q8 4 14 4q15 0 29 -25q23 -37 59 -123z" />
    <glyph glyph-name="ocircumflex" unicode="&#xf4;" horiz-adv-x="1583" 
d="M499 35q-135 57 -229 162q-86 94 -131 219q-41 116 -41 237q0 119 41 232q45 125 131 221q96 106 236 164q153 65 348 65q340 0 538 -176q199 -176 199 -475q0 -307 -203 -506q-211 -207 -553 -207q-188 0 -336 64zM1028 82q78 24 135 76q74 63 113 168q47 120 47 295
q0 282 -152 456q-147 166 -371 166q-81 0 -153 -22q-80 -29 -139 -84q-68 -66 -103 -164q-41 -113 -41 -266q0 -277 146 -455q149 -186 399 -186q61 0 119 16zM895 1757l41 -31q28 -24 75 -57l127 -96q29 -21 29 -29q0 -10 -10 -20l-60 -60q-14 -14 -26 -14q-8 0 -31 23
q-24 26 -96 86q-64 51 -84 65q-14 12 -27 12q-10 0 -30 -10q-48 -27 -107 -67q-68 -48 -111 -84q-26 -25 -41 -25q-18 0 -18 20q0 9 18 31l134 127q47 45 86 80q41 39 51 47q26 25 43 25q6 0 37 -23z" />
    <glyph glyph-name="otilde" unicode="&#xf5;" horiz-adv-x="1583" 
d="M499 35q-135 57 -229 162q-86 94 -131 219q-41 116 -41 237q0 119 41 232q45 125 131 221q96 106 236 164q153 65 348 65q340 0 538 -176q199 -176 199 -475q0 -307 -203 -506q-211 -207 -553 -207q-188 0 -336 64zM1028 82q78 24 135 76q74 63 113 168q47 120 47 295
q0 282 -152 456q-147 166 -371 166q-81 0 -153 -22q-80 -29 -139 -84q-68 -66 -103 -164q-41 -113 -41 -266q0 -277 146 -455q149 -186 399 -186q61 0 119 16zM880 1491q-18 6 -41 18l-94 50q-35 14 -72 14q-51 0 -94 -31q-14 -10 -26 -24q-6 -5 -11 -11l-4 -4q-4 -2 -4 -4
q-12 -12 -20 -16q-6 -4 -13 -4q-14 0 -14 14q0 6 6 20q4 13 11 19q6 10 14 20q8 13 18 25q23 29 49 53q68 60 131 60q48 0 93 -19l71 -39q80 -45 148 -45q47 0 88 27l24 20l13 15q20 26 32 26q17 0 17 -16q0 -6 -4 -17l-8 -18q-9 -16 -25 -39q-23 -29 -47 -51
q-68 -64 -129 -64q-55 0 -109 21z" />
    <glyph glyph-name="divide" unicode="&#xf7;" horiz-adv-x="1706" 
 />
    <glyph glyph-name="glyph216" unicode="&#xf9;" horiz-adv-x="1556" 
d="M216 807q0 342 -2 369q-4 73 -78 94l-30 4q-19 2 -39 2q-31 0 -31 18q0 17 39 17l315 -4l187 4q39 0 39 -17q0 -18 -29 -18q-19 0 -53 -6q-60 -10 -66 -94l-4 -107v-506q0 -180 35 -280q31 -86 102 -142q53 -43 121 -59q27 -6 55 -8q15 -2 27 -2h25q65 0 122 20
q70 23 119 72q68 63 90 180q9 49 13 115q2 47 2 129v219q0 176 -2 262l-2 107q-5 73 -76 94l-31 4q-18 2 -35 2q-30 0 -30 18q0 17 36 17l195 -4l231 4q37 0 37 -17q0 -18 -30 -18q-19 0 -54 -6q-59 -10 -65 -94l-2 -107q-2 -86 -2 -262v-186q0 -84 -6 -146q-7 -80 -23 -143
q-41 -152 -143 -236q-86 -71 -195 -102q-82 -23 -186 -23h-39q-25 0 -47 2q-58 4 -107 15q-133 26 -219 102q-78 68 -117 166q-47 119 -47 295v256zM921 1475q-6 -5 -15 -5q-10 0 -73 25l-133 55q-154 64 -209 90q-29 13 -49 27q-19 14 -19 25q0 12 27 18q84 27 137 51
q31 15 39 15q6 0 12 -13l21 -32q18 -25 86 -89q77 -75 141 -120l16 -11q0 -2 6 -4q5 -4 7 -4q14 -10 14 -18q0 -6 -8 -10z" />
    <glyph glyph-name="glyph217" unicode="&#xfa;" horiz-adv-x="1556" 
d="M216 807q0 342 -2 369q-4 73 -78 94l-30 4q-19 2 -39 2q-31 0 -31 18q0 17 39 17l315 -4l187 4q39 0 39 -17q0 -18 -29 -18q-19 0 -53 -6q-60 -10 -66 -94l-4 -107v-506q0 -180 35 -280q31 -86 102 -142q53 -43 121 -59q27 -6 55 -8q15 -2 27 -2h25q65 0 122 20
q70 23 119 72q68 63 90 180q9 49 13 115q2 47 2 129v219q0 176 -2 262l-2 107q-5 73 -76 94l-31 4q-18 2 -35 2q-30 0 -30 18q0 17 36 17l195 -4l231 4q37 0 37 -17q0 -18 -30 -18q-19 0 -54 -6q-59 -10 -65 -94l-2 -107q-2 -86 -2 -262v-186q0 -84 -6 -146q-7 -80 -23 -143
q-41 -152 -143 -236q-86 -71 -195 -102q-82 -23 -186 -23h-39q-25 0 -47 2q-58 4 -107 15q-133 26 -219 102q-78 68 -117 166q-47 119 -47 295v256zM1117 1638q9 -16 4 -24q-4 -6 -14 -6l-43 2q-12 0 -27 -2q-77 -11 -188 -52q-96 -34 -162 -69l-12 -6q-6 -4 -10 -4
q-11 -7 -13 -7q-12 0 -12 13q0 8 19 26q28 27 82 70l102 82q113 86 145 106q15 11 27 15q8 4 14 4q15 0 29 -25q22 -37 59 -123z" />
    <glyph glyph-name="glyph234" unicode="&#xfd;" horiz-adv-x="1208" 
d="M490 446q0 64 -11 107q-8 29 -30 76q-4 10 -47 76q-37 61 -95 151l-180 274q-69 99 -117 123q-41 23 -75 23q-27 0 -27 18q0 17 35 17l262 -4l168 4q27 0 27 -17q0 -10 -11 -14l-30 -8q-25 -6 -25 -27q0 -20 23 -59l278 -475q14 -27 21 -35l133 229q53 94 86 148l30 57
q15 23 19 33q26 55 26 92q0 31 -38 39l-23 6q-10 4 -10 14q0 17 30 17l136 -4l233 4q33 0 33 -15q0 -20 -35 -20q-33 0 -78 -21q-43 -20 -94 -81q-20 -25 -76 -107q-49 -74 -108 -170q-62 -96 -107 -172q-47 -82 -59 -109q-17 -41 -21 -90q-2 -16 -2 -41v-252l4 -104
q7 -82 74 -92q41 -6 90 -6q31 0 31 -19q0 -18 -39 -18l-328 6q-12 -2 -30 -2l-158 -4q-39 0 -39 18q0 19 29 19q39 0 63 6q49 10 55 92q5 47 7 104v213zM944 1638q8 -16 4 -24q-4 -6 -14 -6l-43 2q-12 0 -27 -2q-77 -11 -188 -52q-96 -34 -162 -69l-12 -6q-6 -4 -10 -4
q-11 -7 -13 -7q-12 0 -12 13q0 8 19 26q28 27 81 70l103 82q112 86 145 106q15 11 27 15q8 4 14 4q15 0 29 -25q22 -37 59 -123z" />
    <glyph glyph-name="Abreve" unicode="&#x102;" horiz-adv-x="1433" 
d="M418 528q-12 0 -19 -16l-110 -293q-31 -76 -31 -125q0 -63 82 -63h31q30 0 30 -17q0 -20 -34 -20l-250 6q-4 -2 -12 -2h-46q-88 -4 -151 -4q-39 0 -39 20q0 17 25 17q30 0 63 4q66 8 107 59q32 37 67 125l514 1286q35 82 58 82q22 0 51 -65q16 -37 82 -201l299 -748
q82 -206 127 -311q51 -123 102 -176q21 -23 43 -35q14 -8 35 -12q41 -8 86 -8q27 0 27 -17q0 -20 -95 -20l-399 4l-33 4q-16 2 -16 12q0 17 28 19q13 4 19 16q6 14 0 31l-164 434q-6 14 -20 14h-457zM836 631q14 0 10 12l-184 506q-5 18 -11 18q-8 0 -12 -18l-188 -504
q-4 -14 8 -14h377zM410 1901q2 0 4 2l73 57q17 14 27 14q8 0 19 -16l24 -31q47 -55 100 -76q37 -14 89 -14q57 0 116 23q21 8 39 20q15 6 25 14l53 45l10 13q21 18 27 18q16 0 16 -18q0 -10 -14 -33q-12 -18 -33 -43q-45 -51 -82 -76q-104 -69 -221 -69q-113 0 -203 73
q-28 23 -49 45q-26 27 -26 37q0 8 6 15z" />
    <glyph glyph-name="abreve" unicode="&#x103;" 
d="M373 432q-12 0 -16 -12l-96 -234q-27 -61 -27 -106q0 -49 72 -49h26q27 0 27 -19q0 -18 -29 -18h-49l-104 6l-123 -2q-76 -4 -133 -4q-33 0 -33 18q0 19 20 19l54 2q90 14 149 153l471 1096q29 70 54 70q26 0 53 -56l344 -807q76 -178 115 -266q47 -104 90 -149
q30 -31 63 -37q41 -6 68 -6q24 0 24 -19q0 -10 -14 -14t-64 -4l-358 4l-10 2q-10 0 -17 2q-14 2 -14 10q0 17 23 19q10 2 16 12q6 12 0 27l-139 350q-4 12 -19 12h-424zM758 528q13 0 9 11l-172 448q0 2 -2 4q-3 6 -5 6q-4 0 -6 -6q-2 -2 -2 -4l-176 -446q-6 -13 6 -13h348z
M341 1640q2 0 4 2l73 58q17 14 27 14q8 0 18 -16l25 -31q47 -55 100 -76q37 -14 88 -14q58 0 117 22q21 9 39 21q14 6 25 14l53 45l10 13q21 18 27 18q16 0 16 -18q0 -11 -14 -33q-12 -19 -33 -43q-45 -51 -82 -76q-104 -70 -221 -70q-113 0 -203 74q-28 23 -49 45
q-27 27 -27 37q0 8 7 14z" />
    <glyph glyph-name="Ccaron" unicode="&#x10c;" horiz-adv-x="1274" 
 />
    <glyph glyph-name="ccaron" unicode="&#x10d;" horiz-adv-x="922" 
 />
    <glyph glyph-name="Dslash" unicode="&#x110;" horiz-adv-x="1916" 
d="M130 723q-14 0 -10 25l10 61q2 20 27 20h180l-2 428l-2 125q-6 99 -88 117q-25 6 -80 6q-35 0 -35 19q0 18 45 18l353 -6q14 2 37 2l129 4h190l106 -4q121 -6 218 -25q118 -24 213 -69q106 -53 186 -135q86 -90 137 -209q62 -142 62 -312q0 -180 -68 -339
q-57 -136 -154 -236q-86 -88 -245 -156q-93 -37 -189 -57q-110 -25 -221 -25q-47 0 -123 5q-53 2 -139 8l-125 8q-59 4 -82 4h-49q-37 0 -68 -2l-141 -4q-41 0 -41 20q0 17 33 17q37 0 74 8q45 8 59 113q6 57 8 180q2 49 2 121v270h-207zM1003 831q16 0 14 -24l-12 -68
q-4 -18 -25 -18h-387v-94q0 -238 4 -316l6 -88q2 -24 7 -41q4 -18 10 -26q22 -35 82 -58q76 -26 186 -26q307 0 479 153q84 76 125 211q39 125 39 293q0 176 -65 322q-52 114 -131 190q-68 64 -150 109q-70 39 -154 61q-69 21 -147 29q-61 6 -131 6q-35 0 -76 -4
q-47 -4 -57 -10q-25 -11 -25 -41q-2 -48 -2 -170v-390h410z" />
    <glyph glyph-name="dcroat" unicode="&#x111;" horiz-adv-x="1705" 
d="M114 610q-12 0 -8 21l8 61q2 17 25 17h158v360q-2 68 -2 107q-7 73 -78 94l-33 4q-19 2 -39 2q-31 0 -31 18q0 17 41 17l314 -4l327 4l92 -4q107 -4 193 -21q104 -20 186 -59q97 -45 166 -115q76 -76 121 -178q53 -121 53 -264q0 -154 -59 -289q-51 -115 -135 -201
q-78 -74 -217 -131q-82 -33 -168 -49q-97 -20 -193 -20t-239 10l-140 8l-86 2l-67 -2q-86 -4 -125 -4q-35 0 -35 18q0 19 29 19q39 0 63 6q43 10 53 92q4 49 7 154l2 327h-183zM899 711q14 0 12 -21l-10 -65q-4 -17 -21 -17h-342v-80q0 -190 4 -256q2 -41 6 -73
q7 -45 15 -58q20 -30 71 -49q64 -22 162 -22q271 0 410 123q74 63 108 178q35 106 35 250q0 149 -57 272q-45 96 -115 162q-110 102 -258 141q-57 14 -123 21q-47 4 -108 4q-92 0 -125 -13q-23 -8 -23 -34q-2 -39 -2 -142v-321h361z" />
    <glyph glyph-name="Itilde" unicode="&#x128;" horiz-adv-x="925" 
d="M335 1257l-4 125q-6 101 -70 115q-30 8 -73 8q-33 0 -33 21q0 16 49 16l316 -6q12 2 32 2l168 4q43 0 43 -16q0 -21 -33 -21q-24 0 -61 -6q-70 -12 -76 -117l-4 -125v-811q0 -73 2 -124q0 -123 6 -183q11 -90 82 -100q58 -8 105 -8q33 0 33 -17q0 -20 -39 -20l-248 4
q-10 0 -19 2l-311 -6q-41 0 -41 20q0 17 33 17q37 0 74 8q49 10 59 102q6 58 8 181q2 51 2 124v811zM522 1702q-18 6 -41 18l-94 50q-35 14 -71 14q-52 0 -95 -31q-14 -10 -26 -24q-6 -5 -11 -11l-4 -4q-4 -2 -4 -4q-12 -12 -20 -16q-6 -4 -13 -4q-14 0 -14 14q0 6 6 20
q4 13 11 19q6 10 14 20q8 13 18 25q23 29 49 53q68 60 132 60q47 0 92 -19l71 -39q80 -45 148 -45q47 0 88 27l24 20l13 15q20 26 33 26q16 0 16 -16q0 -6 -4 -17l-8 -18q-9 -16 -25 -39q-23 -29 -47 -51q-68 -64 -129 -64q-55 0 -109 21z" />
    <glyph glyph-name="itilde" unicode="&#x129;" horiz-adv-x="833" 
d="M294 1069q0 68 -2 107q-6 73 -61 92q-27 8 -66 8q-28 0 -28 20q0 15 43 15l286 -4l187 4q37 0 37 -15q0 -20 -29 -20q-23 0 -53 -6q-62 -10 -68 -94l-4 -107v-690q0 -62 2 -105q0 -106 6 -155q10 -72 72 -82q37 -6 92 -6q29 0 29 -19q0 -18 -35 -18l-334 6q-12 -2 -31 -2
l-161 -4q-35 0 -35 18q0 19 28 19q39 0 64 6q45 10 53 84q6 49 8 153v795zM467 1549q-18 6 -41 18l-94 50q-35 14 -72 14q-51 0 -94 -31q-14 -10 -26 -24q-7 -5 -11 -11l-4 -4q-4 -2 -4 -4q-12 -12 -20 -16q-7 -4 -13 -4q-14 0 -14 14q0 6 6 20q4 13 10 19q7 10 15 20
q8 13 18 25q23 29 49 53q68 60 131 60q47 0 93 -19l71 -39q80 -45 148 -45q47 0 88 27l24 20l13 15q20 26 32 26q17 0 17 -16q0 -6 -4 -17l-9 -18q-8 -16 -24 -39q-23 -29 -47 -51q-68 -64 -129 -64q-56 0 -109 21z" />
    <glyph glyph-name="Utilde" unicode="&#x168;" horiz-adv-x="1744" 
d="M247 1257l-4 125q-6 99 -88 117q-25 6 -80 6q-35 0 -35 19q0 18 45 18l348 -6q15 2 33 2l170 4q45 0 45 -18q0 -19 -33 -19q-22 0 -59 -6q-70 -12 -76 -117l-4 -125v-595q0 -211 43 -332q37 -107 117 -172q61 -52 137 -70q51 -14 119 -14q76 0 145 24q80 29 137 86
q76 76 103 217q10 60 14 140q2 55 2 151v565l-4 125q-6 99 -88 117q-25 6 -74 6q-35 0 -35 19q0 18 43 18q66 0 156 -2q16 -2 33 -2l82 -2q6 2 14 2l184 4q43 0 43 -18q0 -19 -36 -19q-23 0 -60 -6q-69 -12 -76 -117l-4 -125v-528q0 -98 -6 -172q-8 -92 -26 -166
q-46 -178 -162 -278q-101 -86 -217 -121q-92 -27 -209 -27h-45l-51 4q-62 4 -115 17q-146 32 -244 120q-86 78 -131 195q-51 139 -51 348v608zM984 1720q-18 6 -41 19l-94 49q-35 14 -72 14q-51 0 -94 -30q-14 -11 -27 -25q-6 -4 -10 -10l-4 -4q-4 -2 -4 -4q-12 -13 -20 -17
q-7 -4 -13 -4q-14 0 -14 14q0 7 6 21q4 12 10 18q6 11 15 21q8 12 18 24q23 29 49 54q68 59 131 59q47 0 92 -18l72 -39q80 -45 148 -45q47 0 88 26l24 21l13 14q20 27 32 27q17 0 17 -17q0 -6 -4 -16l-9 -19q-8 -16 -24 -38q-23 -29 -47 -52q-68 -63 -129 -63
q-56 0 -109 20z" />
    <glyph glyph-name="utilde" unicode="&#x169;" horiz-adv-x="1556" 
d="M216 807q0 342 -2 369q-4 73 -78 94l-30 4q-19 2 -39 2q-31 0 -31 18q0 17 39 17l315 -4l187 4q39 0 39 -17q0 -18 -29 -18q-19 0 -53 -6q-60 -10 -66 -94l-4 -107v-506q0 -180 35 -280q31 -86 102 -142q53 -43 121 -59q27 -6 55 -8q15 -2 27 -2h25q65 0 122 20
q70 23 119 72q68 63 90 180q9 49 13 115q2 47 2 129v219q0 176 -2 262l-2 107q-5 73 -76 94l-31 4q-18 2 -35 2q-30 0 -30 18q0 17 36 17l195 -4l231 4q37 0 37 -17q0 -18 -30 -18q-19 0 -54 -6q-59 -10 -65 -94l-2 -107q-2 -86 -2 -262v-186q0 -84 -6 -146q-7 -80 -23 -143
q-41 -152 -143 -236q-86 -71 -195 -102q-82 -23 -186 -23h-39q-25 0 -47 2q-58 4 -107 15q-133 26 -219 102q-78 68 -117 166q-47 119 -47 295v256zM879 1491q-18 6 -40 18l-95 50q-35 14 -71 14q-52 0 -95 -31q-14 -10 -26 -24q-6 -5 -10 -11l-5 -4q-4 -2 -4 -4
q-12 -12 -20 -16q-6 -4 -12 -4q-15 0 -15 14q0 6 6 20q4 13 11 19q6 10 14 20q8 13 18 25q23 29 50 53q67 60 131 60q47 0 92 -19l71 -39q80 -45 148 -45q47 0 88 27l25 20l12 15q20 26 33 26q16 0 16 -16q0 -6 -4 -17l-8 -18q-8 -16 -25 -39q-22 -29 -47 -51
q-68 -64 -129 -64q-55 0 -109 21z" />
    <glyph glyph-name="Ohorn" unicode="&#x1a0;" horiz-adv-x="1687" 
d="M1109 88q88 27 155 88q84 76 131 201q53 145 53 352q0 336 -174 545q-168 199 -426 199q-96 0 -178 -29q-94 -33 -162 -101q-77 -77 -118 -196q-45 -133 -45 -316q0 -329 168 -540q174 -223 460 -223q70 0 136 20zM1560 1315q175 -198 175 -510q0 -361 -229 -596
q-236 -244 -619 -244q-211 0 -376 74q-150 67 -256 192q-97 111 -146 258q-47 136 -47 279q0 139 45 272q51 148 148 260q108 125 262 195q172 76 391 76q381 0 604 -207q9 -8 17 -16q49 66 58 121q6 35 -1 65l-7 24l-31 51q-10 14 -9 22q8 44 58 75q51 31 92 25
q16 -3 37 -52q28 -67 23 -95q-5 -33 -36 -82q-30 -46 -72 -100q-44 -53 -81 -87z" />
    <glyph glyph-name="ohorn" unicode="&#x1a1;" horiz-adv-x="1583" 
d="M1028 82q78 24 135 76q74 63 113 168q47 120 47 295q0 282 -152 456q-147 166 -371 166q-81 0 -153 -22q-80 -29 -139 -84q-68 -66 -103 -164q-41 -113 -41 -266q0 -277 146 -455q149 -186 399 -186q61 0 119 16zM1429 1123q162 -170 162 -439q0 -307 -203 -506
q-211 -207 -553 -207q-188 0 -336 64q-135 57 -229 162q-86 94 -131 219q-41 116 -41 237q0 119 41 232q45 125 131 221q96 106 236 164q153 65 348 65q340 0 538 -176q1 0 1 -1q34 52 41 97q6 35 -2 65l-6 24l-31 51q-10 14 -9 22q7 44 58 75t91 25q17 -3 38 -52
q28 -67 23 -95q-5 -33 -36 -82q-31 -46 -73 -100q-31 -37 -58 -65z" />
    <glyph glyph-name="Uhorn" unicode="&#x1af;" horiz-adv-x="1693" 
d="M1505 1280l-1 -23v-528q0 -98 -6 -172q-8 -92 -26 -166q-46 -178 -162 -278q-101 -86 -217 -121q-92 -27 -209 -27h-45l-51 4q-62 4 -115 17q-146 32 -244 120q-86 78 -131 195q-51 139 -51 348v608l-4 125q-6 99 -88 117q-25 6 -80 6q-35 0 -35 19q0 18 45 18l348 -6
q15 2 33 2l170 4q45 0 45 -18q0 -19 -33 -19q-22 0 -59 -6q-70 -12 -76 -117l-4 -125v-595q0 -211 43 -332q37 -107 117 -172q61 -52 137 -70q51 -14 119 -14q76 0 145 24q80 29 137 86q76 76 103 217q10 60 14 140q2 55 2 151v565l-4 125q-6 99 -88 117q-25 6 -74 6
q-35 0 -35 19q0 18 43 18q66 0 156 -2q16 -2 33 -2l82 -2q6 2 14 2l131 3l-5 17l-31 51q-10 14 -9 22q8 44 58 75q51 31 92 25q16 -3 37 -52q28 -67 23 -95q-5 -33 -36 -82q-30 -46 -72 -100q-57 -69 -103 -107l-19 -12q-8 -4 -14 -3zM1590 1500q-3 -1 -6 -1
q-69 -12 -76 -117l-2 -62l1 1l5 5q65 79 75 143q3 16 3 31z" />
    <glyph glyph-name="uhorn" unicode="&#x1b0;" horiz-adv-x="1556" 
d="M1347 1067q-2 -86 -2 -260v-186q0 -84 -6 -146q-7 -80 -23 -143q-41 -152 -143 -236q-86 -71 -195 -102q-82 -23 -186 -23h-39q-25 0 -47 2q-58 4 -107 15q-133 26 -219 102q-78 68 -117 166q-47 119 -47 295v256q0 342 -2 369q-4 73 -78 94l-30 4q-19 2 -39 2
q-31 0 -31 18q0 17 39 17l315 -4l187 4q39 0 39 -17q0 -18 -29 -18q-19 0 -53 -6q-60 -10 -66 -94l-4 -107v-506q0 -180 35 -280q31 -86 102 -142q53 -43 121 -59q27 -6 55 -8q15 -2 27 -2h25q65 0 122 20q70 23 119 72q68 63 90 180q9 49 13 115q2 47 2 129v219
q0 176 -2 262l-2 107q-5 73 -76 94l-31 4q-18 2 -35 2q-30 0 -30 18q0 17 36 17l195 -4l204 4q-1 4 -2 9l-7 24l-31 51q-10 14 -9 22q8 44 58 75q51 31 92 25q16 -3 37 -52q28 -67 23 -95q-5 -33 -36 -82q-30 -46 -72 -100q-57 -69 -103 -107l-19 -12q-9 -4 -15 -3
q-2 0 -3 1zM1435 1273q-9 -1 -21 -3q-59 -10 -65 -94l-1 -76q1 2 5 7l5 5q65 79 75 143q2 9 2 18z" />
    <glyph glyph-name="uni1EA0" unicode="&#x1ea0;" horiz-adv-x="1433" 
d="M418 528q-12 0 -19 -16l-110 -293q-31 -76 -31 -125q0 -63 82 -63h31q30 0 30 -17q0 -20 -34 -20l-250 6q-4 -2 -12 -2h-46q-88 -4 -151 -4q-39 0 -39 20q0 17 25 17q30 0 63 4q66 8 107 59q32 37 67 125l514 1286q35 82 58 82q22 0 51 -65q16 -37 82 -201l299 -748
q82 -206 127 -311q51 -123 102 -176q21 -23 43 -35q14 -8 35 -12q41 -8 86 -8q27 0 27 -17q0 -20 -95 -20l-399 4l-33 4q-16 2 -16 12q0 17 28 19q13 4 19 16q6 14 0 31l-164 434q-6 14 -20 14h-457zM836 631q14 0 10 12l-184 506q-5 18 -11 18q-8 0 -12 -18l-188 -504
q-4 -14 8 -14h377zM608 -276q0 -44 30 -73.5t72 -29.5q44 0 75 29.5t31 73.5q0 42 -31.5 72t-74.5 30q-40 0 -71 -30t-31 -72z" />
    <glyph glyph-name="uni1EA1" unicode="&#x1ea1;" 
d="M373 432q-12 0 -16 -12l-96 -234q-27 -61 -27 -106q0 -49 72 -49h26q27 0 27 -19q0 -18 -29 -18h-49l-104 6l-123 -2q-76 -4 -133 -4q-33 0 -33 18q0 19 20 19l54 2q90 14 149 153l471 1096q29 70 54 70q26 0 53 -56l344 -807q76 -178 115 -266q47 -104 90 -149
q30 -31 63 -37q41 -6 68 -6q24 0 24 -19q0 -10 -14 -14t-64 -4l-358 4l-10 2q-10 0 -17 2q-14 2 -14 10q0 17 23 19q10 2 16 12q6 12 0 27l-139 350q-4 12 -19 12h-424zM758 528q13 0 9 11l-172 448q0 2 -2 4q-3 6 -5 6q-4 0 -6 -6q-2 -2 -2 -4l-176 -446q-6 -13 6 -13h348z
M479 -276q0 -44 30 -73.5t72 -29.5q44 0 75 29.5t31 73.5q0 42 -31.5 72t-74.5 30q-40 0 -71 -30t-31 -72z" />
    <glyph glyph-name="uni1EA2" unicode="&#x1ea2;" horiz-adv-x="1433" 
d="M418 528q-12 0 -19 -16l-110 -293q-31 -76 -31 -125q0 -63 82 -63h31q30 0 30 -17q0 -20 -34 -20l-250 6q-4 -2 -12 -2h-46q-88 -4 -151 -4q-39 0 -39 20q0 17 25 17q30 0 63 4q66 8 107 59q32 37 67 125l514 1286q35 82 58 82q22 0 51 -65q16 -37 82 -201l299 -748
q82 -206 127 -311q51 -123 102 -176q21 -23 43 -35q14 -8 35 -12q41 -8 86 -8q27 0 27 -17q0 -20 -95 -20l-399 4l-33 4q-16 2 -16 12q0 17 28 19q13 4 19 16q6 14 0 31l-164 434q-6 14 -20 14h-457zM836 631q14 0 10 12l-184 506q-5 18 -11 18q-8 0 -12 -18l-188 -504
q-4 -14 8 -14h377zM838 2094q37 -9 61 -25q42 -28 42 -67q0 -30 -15 -58q-12 -24 -38 -49q-18 -17 -52 -43l-56 -45q-48 -40 -48 -60q0 -19 15 -34q8 -8 8 -13t-9 -5q-10 0 -48 21q-42 25 -42 43q0 16 19 35l62 54q83 82 56 134t-85 52q-61 0 -92.5 -24.5t-33.5 -28.5t-6 -4
t-6 3l-3 6q-1 3 -2 13q-1 8 -1 20q-1 22 -1 47q0 3 2 5q2 3 8 6q26 11 64 18q47 9 104 9q55 0 97 -10z" />
    <glyph glyph-name="uni1EA3" unicode="&#x1ea3;" 
d="M373 432q-12 0 -16 -12l-96 -234q-27 -61 -27 -106q0 -49 72 -49h26q27 0 27 -19q0 -18 -29 -18h-49l-104 6l-123 -2q-76 -4 -133 -4q-33 0 -33 18q0 19 20 19l54 2q90 14 149 153l471 1096q29 70 54 70q26 0 53 -56l344 -807q76 -178 115 -266q47 -104 90 -149
q30 -31 63 -37q41 -6 68 -6q24 0 24 -19q0 -10 -14 -14t-64 -4l-358 4l-10 2q-10 0 -17 2q-14 2 -14 10q0 17 23 19q10 2 16 12q6 12 0 27l-139 350q-4 12 -19 12h-424zM758 528q13 0 9 11l-172 448q0 2 -2 4q-3 6 -5 6q-4 0 -6 -6q-2 -2 -2 -4l-176 -446q-6 -13 6 -13h348z
M769 1809q37 -9 61 -25q42 -28 42 -67q0 -30 -15 -58q-12 -24 -38 -49q-18 -17 -52 -43l-56 -45q-48 -40 -48 -60q0 -19 15 -34q8 -8 8 -13t-9 -5q-10 0 -48 21q-42 25 -42 43q0 16 19 35l62 54q83 82 56 134t-85 52q-61 0 -92.5 -24.5t-33.5 -28.5t-6 -4t-6 3l-3 6
q-1 3 -2 13q-1 8 -1 20q-1 22 -1 47q0 3 2 5q2 3 8 6q26 11 64 18q47 9 104 9q55 0 97 -10z" />
    <glyph glyph-name="uni1EA4" unicode="&#x1ea4;" horiz-adv-x="1433" 
d="M418 528q-12 0 -19 -16l-110 -293q-31 -76 -31 -125q0 -63 82 -63h31q30 0 30 -17q0 -20 -34 -20l-250 6q-4 -2 -12 -2h-46q-88 -4 -151 -4q-39 0 -39 20q0 17 25 17q30 0 63 4q66 8 107 59q32 37 67 125l514 1286q35 82 58 82q22 0 51 -65q16 -37 82 -201l299 -748
q82 -206 127 -311q51 -123 102 -176q21 -23 43 -35q14 -8 35 -12q41 -8 86 -8q27 0 27 -17q0 -20 -95 -20l-399 4l-33 4q-16 2 -16 12q0 17 28 19q13 4 19 16q6 14 0 31l-164 434q-6 14 -20 14h-457zM836 631q14 0 10 12l-184 506q-5 18 -11 18q-8 0 -12 -18l-188 -504
q-4 -14 8 -14h377zM766 1987l41 -31q29 -25 76 -58l127 -96q28 -20 28 -28q0 -11 -10 -21l-59 -59q-15 -15 -27 -15q-8 0 -31 23q-24 27 -96 86q-63 51 -84 65q-14 13 -26 13q-11 0 -31 -11q-47 -26 -107 -67q-67 -47 -110 -84q-27 -25 -41 -25q-19 0 -19 21q0 8 19 31
l133 127q47 45 86 79q41 39 51 48q27 24 43 24q6 0 37 -22zM867 2123q8 -16 4 -24q-4 -6 -14 -6l-43 2q-13 0 -27 -2q-78 -11 -189 -52q-96 -34 -161 -69l-13 -6q-6 -4 -10 -4q-10 -7 -12 -7q-12 0 -12 13q0 8 18 26q29 27 82 70l102 82q113 86 146 106q14 11 26 15
q9 4 15 4q14 0 28 -25q23 -37 60 -123z" />
    <glyph glyph-name="uni1EA5" unicode="&#x1ea5;" 
d="M373 432q-12 0 -16 -12l-96 -234q-27 -61 -27 -106q0 -49 72 -49h26q27 0 27 -19q0 -18 -29 -18h-49l-104 6l-123 -2q-76 -4 -133 -4q-33 0 -33 18q0 19 20 19l54 2q90 14 149 153l471 1096q29 70 54 70q26 0 53 -56l344 -807q76 -178 115 -266q47 -104 90 -149
q30 -31 63 -37q41 -6 68 -6q24 0 24 -19q0 -10 -14 -14t-64 -4l-358 4l-10 2q-10 0 -17 2q-14 2 -14 10q0 17 23 19q10 2 16 12q6 12 0 27l-139 350q-4 12 -19 12h-424zM758 528q13 0 9 11l-172 448q0 2 -2 4q-3 6 -5 6q-4 0 -6 -6q-2 -2 -2 -4l-176 -446q-6 -13 6 -13h348z
M697 1757l41 -31q29 -24 76 -57l127 -96q28 -21 28 -29q0 -10 -10 -20l-59 -60q-15 -14 -27 -14q-8 0 -31 23q-24 26 -96 86q-63 51 -84 65q-14 12 -26 12q-11 0 -31 -10q-47 -27 -107 -67q-67 -48 -110 -84q-27 -25 -41 -25q-19 0 -19 20q0 9 19 31l133 127q47 45 86 80
q41 39 51 47q27 25 43 25q6 0 37 -23zM854 1897q8 -16 4 -24q-4 -6 -14 -6l-43 2q-13 0 -27 -2q-78 -11 -189 -52q-96 -34 -161 -69l-13 -6q-6 -4 -10 -4q-10 -7 -12 -7q-12 0 -12 13q0 8 18 26q29 27 82 70l102 82q113 86 146 106q14 11 26 15q9 4 15 4q14 0 28 -25
q23 -37 60 -123z" />
    <glyph glyph-name="uni1EA6" unicode="&#x1ea6;" horiz-adv-x="1433" 
d="M418 528q-12 0 -19 -16l-110 -293q-31 -76 -31 -125q0 -63 82 -63h31q30 0 30 -17q0 -20 -34 -20l-250 6q-4 -2 -12 -2h-46q-88 -4 -151 -4q-39 0 -39 20q0 17 25 17q30 0 63 4q66 8 107 59q32 37 67 125l514 1286q35 82 58 82q22 0 51 -65q16 -37 82 -201l299 -748
q82 -206 127 -311q51 -123 102 -176q21 -23 43 -35q14 -8 35 -12q41 -8 86 -8q27 0 27 -17q0 -20 -95 -20l-399 4l-33 4q-16 2 -16 12q0 17 28 19q13 4 19 16q6 14 0 31l-164 434q-6 14 -20 14h-457zM836 631q14 0 10 12l-184 506q-5 18 -11 18q-8 0 -12 -18l-188 -504
q-4 -14 8 -14h377zM766 1987l41 -31q29 -25 76 -58l127 -96q28 -20 28 -28q0 -11 -10 -21l-59 -59q-15 -15 -27 -15q-8 0 -31 23q-24 27 -96 86q-63 51 -84 65q-14 13 -26 13q-11 0 -31 -11q-47 -26 -107 -67q-67 -47 -110 -84q-27 -25 -41 -25q-19 0 -19 21q0 8 19 31
l133 127q47 45 86 79q41 39 51 48q27 24 43 24q6 0 37 -22zM1062 1963q-6 -4 -14 -4q-10 0 -74 24l-133 56q-154 63 -209 90q-29 12 -49 26q-18 15 -18 25q0 12 26 18q84 27 137 52q31 14 39 14q6 0 13 -12l20 -33q19 -25 86 -88q78 -76 141 -121l17 -10q0 -2 6 -4
q4 -4 6 -4q14 -11 14 -19q0 -6 -8 -10z" />
    <glyph glyph-name="uni1EA7" unicode="&#x1ea7;" 
d="M373 432q-12 0 -16 -12l-96 -234q-27 -61 -27 -106q0 -49 72 -49h26q27 0 27 -19q0 -18 -29 -18h-49l-104 6l-123 -2q-76 -4 -133 -4q-33 0 -33 18q0 19 20 19l54 2q90 14 149 153l471 1096q29 70 54 70q26 0 53 -56l344 -807q76 -178 115 -266q47 -104 90 -149
q30 -31 63 -37q41 -6 68 -6q24 0 24 -19q0 -10 -14 -14t-64 -4l-358 4l-10 2q-10 0 -17 2q-14 2 -14 10q0 17 23 19q10 2 16 12q6 12 0 27l-139 350q-4 12 -19 12h-424zM758 528q13 0 9 11l-172 448q0 2 -2 4q-3 6 -5 6q-4 0 -6 -6q-2 -2 -2 -4l-176 -446q-6 -13 6 -13h348z
M996 1733q-6 -4 -14 -4q-11 0 -74 24l-133 56q-154 63 -209 90q-29 12 -49 26q-19 15 -19 25q0 12 27 18q84 27 137 52q31 14 39 14q6 0 12 -12l21 -33q18 -25 86 -88q78 -76 141 -121l16 -10q0 -2 7 -4q4 -4 6 -4q14 -11 14 -19q0 -6 -8 -10zM697 1757l41 -31
q29 -24 76 -57l127 -96q28 -21 28 -29q0 -10 -10 -20l-59 -60q-15 -14 -27 -14q-8 0 -31 23q-24 26 -96 86q-63 51 -84 65q-14 12 -26 12q-11 0 -31 -10q-47 -27 -107 -67q-67 -48 -110 -84q-27 -25 -41 -25q-19 0 -19 20q0 9 19 31l133 127q47 45 86 80q41 39 51 47
q27 25 43 25q6 0 37 -23z" />
    <glyph glyph-name="uni1EA8" unicode="&#x1ea8;" horiz-adv-x="1433" 
d="M418 528q-12 0 -19 -16l-110 -293q-31 -76 -31 -125q0 -63 82 -63h31q30 0 30 -17q0 -20 -34 -20l-250 6q-4 -2 -12 -2h-46q-88 -4 -151 -4q-39 0 -39 20q0 17 25 17q30 0 63 4q66 8 107 59q32 37 67 125l514 1286q35 82 58 82q22 0 51 -65q16 -37 82 -201l299 -748
q82 -206 127 -311q51 -123 102 -176q21 -23 43 -35q14 -8 35 -12q41 -8 86 -8q27 0 27 -17q0 -20 -95 -20l-399 4l-33 4q-16 2 -16 12q0 17 28 19q13 4 19 16q6 14 0 31l-164 434q-6 14 -20 14h-457zM836 631q14 0 10 12l-184 506q-5 18 -11 18q-8 0 -12 -18l-188 -504
q-4 -14 8 -14h377zM766 1987l41 -31q29 -25 76 -58l127 -96q28 -20 28 -28q0 -11 -10 -21l-59 -59q-15 -15 -27 -15q-8 0 -31 23q-24 27 -96 86q-63 51 -84 65q-14 13 -26 13q-11 0 -31 -11q-47 -26 -107 -67q-67 -47 -110 -84q-27 -25 -41 -25q-19 0 -19 21q0 8 19 31
l133 127q47 45 86 79q41 39 51 48q27 24 43 24q6 0 37 -22zM1029 2353q37 -9 61 -25q42 -28 42 -67q0 -30 -15 -58q-12 -24 -38 -49q-18 -17 -52 -43l-56 -45q-48 -40 -48 -60q0 -19 15 -34q8 -8 8 -13t-9 -5q-10 0 -48 21q-42 25 -42 43q0 16 19 35l62 54q83 82 56 134
t-85 52q-61 0 -92.5 -24.5t-33.5 -28.5t-6 -4t-6 3l-3 6q-1 3 -2 13q-1 8 -1 20q-1 22 -1 47q0 3 2 5q2 3 8 6q26 11 64 18q47 9 104 9q55 0 97 -10z" />
    <glyph glyph-name="uni1EA9" unicode="&#x1ea9;" 
d="M373 432q-12 0 -16 -12l-96 -234q-27 -61 -27 -106q0 -49 72 -49h26q27 0 27 -19q0 -18 -29 -18h-49l-104 6l-123 -2q-76 -4 -133 -4q-33 0 -33 18q0 19 20 19l54 2q90 14 149 153l471 1096q29 70 54 70q26 0 53 -56l344 -807q76 -178 115 -266q47 -104 90 -149
q30 -31 63 -37q41 -6 68 -6q24 0 24 -19q0 -10 -14 -14t-64 -4l-358 4l-10 2q-10 0 -17 2q-14 2 -14 10q0 17 23 19q10 2 16 12q6 12 0 27l-139 350q-4 12 -19 12h-424zM758 528q13 0 9 11l-172 448q0 2 -2 4q-3 6 -5 6q-4 0 -6 -6q-2 -2 -2 -4l-176 -446q-6 -13 6 -13h348z
M962 2123q37 -9 61 -25q42 -28 42 -67q0 -30 -15 -58q-12 -24 -38 -49q-18 -17 -52 -43l-56 -45q-48 -40 -48 -60q0 -19 15 -34q8 -8 8 -13t-9 -5q-10 0 -48 21q-42 25 -42 43q0 16 19 35l62 54q83 82 56 134t-85 52q-61 0 -92.5 -24.5t-33.5 -28.5t-6 -4t-6 3l-3 6
q-1 3 -2 13q-1 8 -1 20q-1 22 -1 47q0 3 2 5q2 3 8 6q26 11 64 18q47 9 104 9q55 0 97 -10zM697 1757l41 -31q29 -24 76 -57l127 -96q28 -21 28 -29q0 -10 -10 -20l-59 -60q-15 -14 -27 -14q-8 0 -31 23q-24 26 -96 86q-63 51 -84 65q-14 12 -26 12q-11 0 -31 -10
q-47 -27 -107 -67q-67 -48 -110 -84q-27 -25 -41 -25q-19 0 -19 20q0 9 19 31l133 127q47 45 86 80q41 39 51 47q27 25 43 25q6 0 37 -23z" />
    <glyph glyph-name="uni1EAA" unicode="&#x1eaa;" horiz-adv-x="1433" 
d="M418 528q-12 0 -19 -16l-110 -293q-31 -76 -31 -125q0 -63 82 -63h31q30 0 30 -17q0 -20 -34 -20l-250 6q-4 -2 -12 -2h-46q-88 -4 -151 -4q-39 0 -39 20q0 17 25 17q30 0 63 4q66 8 107 59q32 37 67 125l514 1286q35 82 58 82q22 0 51 -65q16 -37 82 -201l299 -748
q82 -206 127 -311q51 -123 102 -176q21 -23 43 -35q14 -8 35 -12q41 -8 86 -8q27 0 27 -17q0 -20 -95 -20l-399 4l-33 4q-16 2 -16 12q0 17 28 19q13 4 19 16q6 14 0 31l-164 434q-6 14 -20 14h-457zM836 631q14 0 10 12l-184 506q-5 18 -11 18q-8 0 -12 -18l-188 -504
q-4 -14 8 -14h377zM766 1987l41 -31q29 -25 76 -58l127 -96q28 -20 28 -28q0 -11 -10 -21l-59 -59q-15 -15 -27 -15q-8 0 -31 23q-24 27 -96 86q-63 51 -84 65q-14 13 -26 13q-11 0 -31 -11q-47 -26 -107 -67q-67 -47 -110 -84q-27 -25 -41 -25q-19 0 -19 21q0 8 19 31
l133 127q47 45 86 79q41 39 51 48q27 24 43 24q6 0 37 -22zM926 2006q-19 6 -41 19l-94 49q-35 14 -72 14q-51 0 -94 -30q-15 -11 -27 -25q-6 -4 -10 -10l-4 -4q-4 -2 -4 -4q-13 -13 -21 -17q-6 -4 -12 -4q-14 0 -14 14q0 7 6 21q4 12 10 18q6 11 14 21l19 24q22 29 49 54
q67 59 131 59q47 0 92 -18l72 -39q80 -45 147 -45q47 0 88 26l25 21l12 14q21 27 33 27q16 0 16 -17q0 -6 -4 -16l-8 -19q-8 -16 -25 -38q-22 -29 -47 -52q-67 -63 -129 -63q-55 0 -108 20z" />
    <glyph glyph-name="uni1EAB" unicode="&#x1eab;" 
d="M373 432q-12 0 -16 -12l-96 -234q-27 -61 -27 -106q0 -49 72 -49h26q27 0 27 -19q0 -18 -29 -18h-49l-104 6l-123 -2q-76 -4 -133 -4q-33 0 -33 18q0 19 20 19l54 2q90 14 149 153l471 1096q29 70 54 70q26 0 53 -56l344 -807q76 -178 115 -266q47 -104 90 -149
q30 -31 63 -37q41 -6 68 -6q24 0 24 -19q0 -10 -14 -14t-64 -4l-358 4l-10 2q-10 0 -17 2q-14 2 -14 10q0 17 23 19q10 2 16 12q6 12 0 27l-139 350q-4 12 -19 12h-424zM758 528q13 0 9 11l-172 448q0 2 -2 4q-3 6 -5 6q-4 0 -6 -6q-2 -2 -2 -4l-176 -446q-6 -13 6 -13h348z
M859 1775q-18 6 -41 19l-94 49q-35 14 -71 14q-52 0 -95 -30q-14 -11 -26 -25q-6 -4 -11 -10l-4 -4q-4 -2 -4 -4q-12 -13 -20 -17q-6 -4 -13 -4q-14 0 -14 14q0 7 6 21q4 12 11 18q6 11 14 21l18 24q23 29 49 54q68 59 132 59q47 0 92 -18l71 -39q80 -45 148 -45q47 0 88 26
l24 21l13 14q20 27 33 27q16 0 16 -17q0 -6 -4 -16l-8 -19q-9 -16 -25 -38q-22 -29 -47 -52q-68 -63 -129 -63q-55 0 -109 20zM697 1757l41 -31q29 -24 76 -57l127 -96q28 -21 28 -29q0 -10 -10 -20l-59 -60q-15 -14 -27 -14q-8 0 -31 23q-24 26 -96 86q-63 51 -84 65
q-14 12 -26 12q-11 0 -31 -10q-47 -27 -107 -67q-67 -48 -110 -84q-27 -25 -41 -25q-19 0 -19 20q0 9 19 31l133 127q47 45 86 80q41 39 51 47q27 25 43 25q6 0 37 -23z" />
    <glyph glyph-name="uni1EAC" unicode="&#x1eac;" horiz-adv-x="1433" 
d="M418 528q-12 0 -19 -16l-110 -293q-31 -76 -31 -125q0 -63 82 -63h31q30 0 30 -17q0 -20 -34 -20l-250 6q-4 -2 -12 -2h-46q-88 -4 -151 -4q-39 0 -39 20q0 17 25 17q30 0 63 4q66 8 107 59q32 37 67 125l514 1286q35 82 58 82q22 0 51 -65q16 -37 82 -201l299 -748
q82 -206 127 -311q51 -123 102 -176q21 -23 43 -35q14 -8 35 -12q41 -8 86 -8q27 0 27 -17q0 -20 -95 -20l-399 4l-33 4q-16 2 -16 12q0 17 28 19q13 4 19 16q6 14 0 31l-164 434q-6 14 -20 14h-457zM836 631q14 0 10 12l-184 506q-5 18 -11 18q-8 0 -12 -18l-188 -504
q-4 -14 8 -14h377zM766 1987l41 -31q29 -25 76 -58l127 -96q28 -20 28 -28q0 -11 -10 -21l-59 -59q-15 -15 -27 -15q-8 0 -31 23q-24 27 -96 86q-63 51 -84 65q-14 13 -26 13q-11 0 -31 -11q-47 -26 -107 -67q-67 -47 -110 -84q-27 -25 -41 -25q-19 0 -19 21q0 8 19 31
l133 127q47 45 86 79q41 39 51 48q27 24 43 24q6 0 37 -22zM608 -276q0 -44 30 -73.5t72 -29.5q44 0 75 29.5t31 73.5q0 42 -31.5 72t-74.5 30q-40 0 -71 -30t-31 -72z" />
    <glyph glyph-name="uni1EAD" unicode="&#x1ead;" 
d="M373 432q-12 0 -16 -12l-96 -234q-27 -61 -27 -106q0 -49 72 -49h26q27 0 27 -19q0 -18 -29 -18h-49l-104 6l-123 -2q-76 -4 -133 -4q-33 0 -33 18q0 19 20 19l54 2q90 14 149 153l471 1096q29 70 54 70q26 0 53 -56l344 -807q76 -178 115 -266q47 -104 90 -149
q30 -31 63 -37q41 -6 68 -6q24 0 24 -19q0 -10 -14 -14t-64 -4l-358 4l-10 2q-10 0 -17 2q-14 2 -14 10q0 17 23 19q10 2 16 12q6 12 0 27l-139 350q-4 12 -19 12h-424zM758 528q13 0 9 11l-172 448q0 2 -2 4q-3 6 -5 6q-4 0 -6 -6q-2 -2 -2 -4l-176 -446q-6 -13 6 -13h348z
M697 1757l41 -31q29 -24 76 -57l127 -96q28 -21 28 -29q0 -10 -10 -20l-59 -60q-15 -14 -27 -14q-8 0 -31 23q-24 26 -96 86q-63 51 -84 65q-14 12 -26 12q-11 0 -31 -10q-47 -27 -107 -67q-67 -48 -110 -84q-27 -25 -41 -25q-19 0 -19 20q0 9 19 31l133 127q47 45 86 80
q41 39 51 47q27 25 43 25q6 0 37 -23zM479 -276q0 -44 30 -73.5t72 -29.5q44 0 75 29.5t31 73.5q0 42 -31.5 72t-74.5 30q-40 0 -71 -30t-31 -72z" />
    <glyph glyph-name="uni1EAE" unicode="&#x1eae;" horiz-adv-x="1433" 
d="M418 528q-12 0 -19 -16l-110 -293q-31 -76 -31 -125q0 -63 82 -63h31q30 0 30 -17q0 -20 -34 -20l-250 6q-4 -2 -12 -2h-46q-88 -4 -151 -4q-39 0 -39 20q0 17 25 17q30 0 63 4q66 8 107 59q32 37 67 125l514 1286q35 82 58 82q22 0 51 -65q16 -37 82 -201l299 -748
q82 -206 127 -311q51 -123 102 -176q21 -23 43 -35q14 -8 35 -12q41 -8 86 -8q27 0 27 -17q0 -20 -95 -20l-399 4l-33 4q-16 2 -16 12q0 17 28 19q13 4 19 16q6 14 0 31l-164 434q-6 14 -20 14h-457zM836 631q14 0 10 12l-184 506q-5 18 -11 18q-8 0 -12 -18l-188 -504
q-4 -14 8 -14h377zM410 1901q2 0 4 2l73 57q17 14 27 14q8 0 19 -16l24 -31q47 -55 100 -76q37 -14 89 -14q57 0 116 23q21 8 39 20q15 6 25 14l53 45l10 13q21 18 27 18q16 0 16 -18q0 -10 -14 -33q-12 -18 -33 -43q-45 -51 -82 -76q-104 -69 -221 -69q-113 0 -203 73
q-28 23 -49 45q-26 27 -26 37q0 8 6 15zM1152 2092q8 -16 4 -24q-4 -6 -14 -6l-43 2q-13 0 -27 -2q-78 -11 -189 -52q-96 -34 -161 -69l-13 -6q-6 -4 -10 -4q-10 -7 -12 -7q-12 0 -12 13q0 8 18 26q29 27 82 70l102 82q113 86 146 106q14 11 26 15q9 4 15 4q14 0 28 -25
q23 -37 60 -123z" />
    <glyph glyph-name="uni1EAF" unicode="&#x1eaf;" 
d="M373 432q-12 0 -16 -12l-96 -234q-27 -61 -27 -106q0 -49 72 -49h26q27 0 27 -19q0 -18 -29 -18h-49l-104 6l-123 -2q-76 -4 -133 -4q-33 0 -33 18q0 19 20 19l54 2q90 14 149 153l471 1096q29 70 54 70q26 0 53 -56l344 -807q76 -178 115 -266q47 -104 90 -149
q30 -31 63 -37q41 -6 68 -6q24 0 24 -19q0 -10 -14 -14t-64 -4l-358 4l-10 2q-10 0 -17 2q-14 2 -14 10q0 17 23 19q10 2 16 12q6 12 0 27l-139 350q-4 12 -19 12h-424zM758 528q13 0 9 11l-172 448q0 2 -2 4q-3 6 -5 6q-4 0 -6 -6q-2 -2 -2 -4l-176 -446q-6 -13 6 -13h348z
M341 1640q2 0 4 2l73 58q17 14 27 14q8 0 18 -16l25 -31q47 -55 100 -76q37 -14 88 -14q58 0 117 22q21 9 39 21q14 6 25 14l53 45l10 13q21 18 27 18q16 0 16 -18q0 -11 -14 -33q-12 -19 -33 -43q-45 -51 -82 -76q-104 -70 -221 -70q-113 0 -203 74q-28 23 -49 45
q-27 27 -27 37q0 8 7 14zM1084 1868q9 -16 5 -24q-5 -6 -15 -6l-43 2q-12 0 -26 -2q-78 -11 -189 -52q-96 -34 -162 -69l-12 -6q-6 -4 -10 -4q-10 -7 -12 -7q-13 0 -13 13q0 8 19 26q28 27 82 70l102 82q113 86 145 106q15 11 27 15q8 4 14 4q15 0 29 -25q23 -37 59 -123z
" />
    <glyph glyph-name="uni1EB0" unicode="&#x1eb0;" horiz-adv-x="1433" 
d="M418 528q-12 0 -19 -16l-110 -293q-31 -76 -31 -125q0 -63 82 -63h31q30 0 30 -17q0 -20 -34 -20l-250 6q-4 -2 -12 -2h-46q-88 -4 -151 -4q-39 0 -39 20q0 17 25 17q30 0 63 4q66 8 107 59q32 37 67 125l514 1286q35 82 58 82q22 0 51 -65q16 -37 82 -201l299 -748
q82 -206 127 -311q51 -123 102 -176q21 -23 43 -35q14 -8 35 -12q41 -8 86 -8q27 0 27 -17q0 -20 -95 -20l-399 4l-33 4q-16 2 -16 12q0 17 28 19q13 4 19 16q6 14 0 31l-164 434q-6 14 -20 14h-457zM836 631q14 0 10 12l-184 506q-5 18 -11 18q-8 0 -12 -18l-188 -504
q-4 -14 8 -14h377zM410 1901q2 0 4 2l73 57q17 14 27 14q8 0 19 -16l24 -31q47 -55 100 -76q37 -14 89 -14q57 0 116 23q21 8 39 20q15 6 25 14l53 45l10 13q21 18 27 18q16 0 16 -18q0 -10 -14 -33q-12 -18 -33 -43q-45 -51 -82 -76q-104 -69 -221 -69q-113 0 -203 73
q-28 23 -49 45q-26 27 -26 37q0 8 6 15zM841 1933q-6 -4 -14 -4q-10 0 -74 24l-133 56q-154 63 -209 90q-29 12 -49 26q-18 15 -18 25q0 12 26 18q84 27 137 52q31 14 39 14q6 0 13 -12l20 -33q19 -25 86 -88q78 -76 141 -121l17 -10q0 -2 6 -4q4 -4 6 -4q14 -11 14 -19
q0 -6 -8 -10z" />
    <glyph glyph-name="uni1EB1" unicode="&#x1eb1;" 
d="M373 432q-12 0 -16 -12l-96 -234q-27 -61 -27 -106q0 -49 72 -49h26q27 0 27 -19q0 -18 -29 -18h-49l-104 6l-123 -2q-76 -4 -133 -4q-33 0 -33 18q0 19 20 19l54 2q90 14 149 153l471 1096q29 70 54 70q26 0 53 -56l344 -807q76 -178 115 -266q47 -104 90 -149
q30 -31 63 -37q41 -6 68 -6q24 0 24 -19q0 -10 -14 -14t-64 -4l-358 4l-10 2q-10 0 -17 2q-14 2 -14 10q0 17 23 19q10 2 16 12q6 12 0 27l-139 350q-4 12 -19 12h-424zM758 528q13 0 9 11l-172 448q0 2 -2 4q-3 6 -5 6q-4 0 -6 -6q-2 -2 -2 -4l-176 -446q-6 -13 6 -13h348z
M341 1640q2 0 4 2l73 58q17 14 27 14q8 0 18 -16l25 -31q47 -55 100 -76q37 -14 88 -14q58 0 117 22q21 9 39 21q14 6 25 14l53 45l10 13q21 18 27 18q16 0 16 -18q0 -11 -14 -33q-12 -19 -33 -43q-45 -51 -82 -76q-104 -70 -221 -70q-113 0 -203 74q-28 23 -49 45
q-27 27 -27 37q0 8 7 14zM754 1705q-6 -5 -15 -5q-10 0 -73 25l-133 55q-154 64 -209 90q-29 13 -49 27q-19 14 -19 25q0 12 27 18q84 27 137 51q31 15 39 15q6 0 12 -13l21 -32q18 -25 86 -89q78 -75 141 -120l16 -11q0 -2 7 -4q4 -4 6 -4q14 -10 14 -18q0 -6 -8 -10z" />
    <glyph glyph-name="uni1EB2" unicode="&#x1eb2;" horiz-adv-x="1433" 
d="M418 528q-12 0 -19 -16l-110 -293q-31 -76 -31 -125q0 -63 82 -63h31q30 0 30 -17q0 -20 -34 -20l-250 6q-4 -2 -12 -2h-46q-88 -4 -151 -4q-39 0 -39 20q0 17 25 17q30 0 63 4q66 8 107 59q32 37 67 125l514 1286q35 82 58 82q22 0 51 -65q16 -37 82 -201l299 -748
q82 -206 127 -311q51 -123 102 -176q21 -23 43 -35q14 -8 35 -12q41 -8 86 -8q27 0 27 -17q0 -20 -95 -20l-399 4l-33 4q-16 2 -16 12q0 17 28 19q13 4 19 16q6 14 0 31l-164 434q-6 14 -20 14h-457zM836 631q14 0 10 12l-184 506q-5 18 -11 18q-8 0 -12 -18l-188 -504
q-4 -14 8 -14h377zM410 1901q2 0 4 2l73 57q17 14 27 14q8 0 19 -16l24 -31q47 -55 100 -76q37 -14 89 -14q57 0 116 23q21 8 39 20q15 6 25 14l53 45l10 13q21 18 27 18q16 0 16 -18q0 -10 -14 -33q-12 -18 -33 -43q-45 -51 -82 -76q-104 -69 -221 -69q-113 0 -203 73
q-28 23 -49 45q-26 27 -26 37q0 8 6 15zM857 2305q37 -9 61 -25q42 -28 42 -67q0 -30 -15 -58q-12 -24 -38 -49q-18 -17 -52 -43l-56 -45q-48 -40 -48 -60q0 -19 15 -34q8 -8 8 -13t-9 -5q-10 0 -48 21q-42 25 -42 43q0 16 19 35l62 54q83 82 56 134t-85 52
q-61 0 -92.5 -24.5t-33.5 -28.5t-6 -4t-6 3l-3 6q-1 3 -2 13q-1 8 -1 20q-1 22 -1 47q0 3 2 5q2 3 8 6q26 11 64 18q47 9 104 9q55 0 97 -10z" />
    <glyph glyph-name="uni1EB3" unicode="&#x1eb3;" 
d="M373 432q-12 0 -16 -12l-96 -234q-27 -61 -27 -106q0 -49 72 -49h26q27 0 27 -19q0 -18 -29 -18h-49l-104 6l-123 -2q-76 -4 -133 -4q-33 0 -33 18q0 19 20 19l54 2q90 14 149 153l471 1096q29 70 54 70q26 0 53 -56l344 -807q76 -178 115 -266q47 -104 90 -149
q30 -31 63 -37q41 -6 68 -6q24 0 24 -19q0 -10 -14 -14t-64 -4l-358 4l-10 2q-10 0 -17 2q-14 2 -14 10q0 17 23 19q10 2 16 12q6 12 0 27l-139 350q-4 12 -19 12h-424zM758 528q13 0 9 11l-172 448q0 2 -2 4q-3 6 -5 6q-4 0 -6 -6q-2 -2 -2 -4l-176 -446q-6 -13 6 -13h348z
M341 1640q2 0 4 2l73 58q17 14 27 14q8 0 18 -16l25 -31q47 -55 100 -76q37 -14 88 -14q58 0 117 22q21 9 39 21q14 6 25 14l53 45l10 13q21 18 27 18q16 0 16 -18q0 -11 -14 -33q-12 -19 -33 -43q-45 -51 -82 -76q-104 -70 -221 -70q-113 0 -203 74q-28 23 -49 45
q-27 27 -27 37q0 8 7 14zM798 2068q37 -9 61 -25q42 -28 42 -67q0 -30 -15 -58q-12 -24 -38 -49q-18 -17 -52 -43l-56 -45q-48 -40 -48 -60q0 -19 15 -34q8 -8 8 -13t-9 -5q-10 0 -48 21q-42 25 -42 43q0 16 19 35l62 54q83 82 56 134t-85 52q-61 0 -92.5 -24.5t-33.5 -28.5
t-6 -4t-6 3l-3 6q-1 3 -2 13q-1 8 -1 20q-1 22 -1 47q0 3 2 5q2 3 8 6q26 11 64 18q47 9 104 9q55 0 97 -10z" />
    <glyph glyph-name="uni1EB4" unicode="&#x1eb4;" horiz-adv-x="1433" 
d="M418 528q-12 0 -19 -16l-110 -293q-31 -76 -31 -125q0 -63 82 -63h31q30 0 30 -17q0 -20 -34 -20l-250 6q-4 -2 -12 -2h-46q-88 -4 -151 -4q-39 0 -39 20q0 17 25 17q30 0 63 4q66 8 107 59q32 37 67 125l514 1286q35 82 58 82q22 0 51 -65q16 -37 82 -201l299 -748
q82 -206 127 -311q51 -123 102 -176q21 -23 43 -35q14 -8 35 -12q41 -8 86 -8q27 0 27 -17q0 -20 -95 -20l-399 4l-33 4q-16 2 -16 12q0 17 28 19q13 4 19 16q6 14 0 31l-164 434q-6 14 -20 14h-457zM836 631q14 0 10 12l-184 506q-5 18 -11 18q-8 0 -12 -18l-188 -504
q-4 -14 8 -14h377zM410 1901q2 0 4 2l73 57q17 14 27 14q8 0 19 -16l24 -31q47 -55 100 -76q37 -14 89 -14q57 0 116 23q21 8 39 20q15 6 25 14l53 45l10 13q21 18 27 18q16 0 16 -18q0 -10 -14 -33q-12 -18 -33 -43q-45 -51 -82 -76q-104 -69 -221 -69q-113 0 -203 73
q-28 23 -49 45q-26 27 -26 37q0 8 6 15zM926 2025q-19 6 -41 19l-94 49q-35 14 -72 14q-51 0 -94 -30q-15 -11 -27 -25q-6 -4 -10 -10l-4 -4q-4 -2 -4 -4q-13 -13 -21 -17q-6 -4 -12 -4q-14 0 -14 14q0 7 6 21q4 12 10 18q6 11 14 21l19 24q22 29 49 54q67 59 131 59
q47 0 92 -18l72 -39q80 -45 147 -45q47 0 88 26l25 21l12 14q21 27 33 27q16 0 16 -17q0 -6 -4 -16l-8 -19q-8 -16 -25 -38q-22 -29 -47 -52q-67 -63 -129 -63q-55 0 -108 20z" />
    <glyph glyph-name="uni1EB5" unicode="&#x1eb5;" 
d="M373 432q-12 0 -16 -12l-96 -234q-27 -61 -27 -106q0 -49 72 -49h26q27 0 27 -19q0 -18 -29 -18h-49l-104 6l-123 -2q-76 -4 -133 -4q-33 0 -33 18q0 19 20 19l54 2q90 14 149 153l471 1096q29 70 54 70q26 0 53 -56l344 -807q76 -178 115 -266q47 -104 90 -149
q30 -31 63 -37q41 -6 68 -6q24 0 24 -19q0 -10 -14 -14t-64 -4l-358 4l-10 2q-10 0 -17 2q-14 2 -14 10q0 17 23 19q10 2 16 12q6 12 0 27l-139 350q-4 12 -19 12h-424zM758 528q13 0 9 11l-172 448q0 2 -2 4q-3 6 -5 6q-4 0 -6 -6q-2 -2 -2 -4l-176 -446q-6 -13 6 -13h348z
M341 1640q2 0 4 2l73 58q17 14 27 14q8 0 18 -16l25 -31q47 -55 100 -76q37 -14 88 -14q58 0 117 22q21 9 39 21q14 6 25 14l53 45l10 13q21 18 27 18q16 0 16 -18q0 -11 -14 -33q-12 -19 -33 -43q-45 -51 -82 -76q-104 -70 -221 -70q-113 0 -203 74q-28 23 -49 45
q-27 27 -27 37q0 8 7 14zM906 1753q-18 6 -41 18l-94 50q-35 14 -72 14q-51 0 -94 -31q-14 -10 -26 -24q-7 -5 -11 -11l-4 -4q-4 -2 -4 -4q-12 -12 -20 -16q-6 -4 -13 -4q-14 0 -14 14q0 6 6 20q4 13 10 19q7 10 15 20q8 13 18 25q23 29 49 53q68 60 131 60q48 0 93 -19
l71 -39q80 -45 148 -45q47 0 88 27l24 20l13 15q20 26 32 26q17 0 17 -16q0 -6 -4 -17l-8 -18q-9 -16 -25 -39q-23 -29 -47 -51q-68 -64 -129 -64q-55 0 -109 21z" />
    <glyph glyph-name="uni1EB6" unicode="&#x1eb6;" horiz-adv-x="1433" 
d="M418 528q-12 0 -19 -16l-110 -293q-31 -76 -31 -125q0 -63 82 -63h31q30 0 30 -17q0 -20 -34 -20l-250 6q-4 -2 -12 -2h-46q-88 -4 -151 -4q-39 0 -39 20q0 17 25 17q30 0 63 4q66 8 107 59q32 37 67 125l514 1286q35 82 58 82q22 0 51 -65q16 -37 82 -201l299 -748
q82 -206 127 -311q51 -123 102 -176q21 -23 43 -35q14 -8 35 -12q41 -8 86 -8q27 0 27 -17q0 -20 -95 -20l-399 4l-33 4q-16 2 -16 12q0 17 28 19q13 4 19 16q6 14 0 31l-164 434q-6 14 -20 14h-457zM836 631q14 0 10 12l-184 506q-5 18 -11 18q-8 0 -12 -18l-188 -504
q-4 -14 8 -14h377zM410 1901q2 0 4 2l73 57q17 14 27 14q8 0 19 -16l24 -31q47 -55 100 -76q37 -14 89 -14q57 0 116 23q21 8 39 20q15 6 25 14l53 45l10 13q21 18 27 18q16 0 16 -18q0 -10 -14 -33q-12 -18 -33 -43q-45 -51 -82 -76q-104 -69 -221 -69q-113 0 -203 73
q-28 23 -49 45q-26 27 -26 37q0 8 6 15zM608 -276q0 -44 30 -73.5t72 -29.5q44 0 75 29.5t31 73.5q0 42 -31.5 72t-74.5 30q-40 0 -71 -30t-31 -72z" />
    <glyph glyph-name="uni1EB7" unicode="&#x1eb7;" 
d="M373 432q-12 0 -16 -12l-96 -234q-27 -61 -27 -106q0 -49 72 -49h26q27 0 27 -19q0 -18 -29 -18h-49l-104 6l-123 -2q-76 -4 -133 -4q-33 0 -33 18q0 19 20 19l54 2q90 14 149 153l471 1096q29 70 54 70q26 0 53 -56l344 -807q76 -178 115 -266q47 -104 90 -149
q30 -31 63 -37q41 -6 68 -6q24 0 24 -19q0 -10 -14 -14t-64 -4l-358 4l-10 2q-10 0 -17 2q-14 2 -14 10q0 17 23 19q10 2 16 12q6 12 0 27l-139 350q-4 12 -19 12h-424zM758 528q13 0 9 11l-172 448q0 2 -2 4q-3 6 -5 6q-4 0 -6 -6q-2 -2 -2 -4l-176 -446q-6 -13 6 -13h348z
M341 1640q2 0 4 2l73 58q17 14 27 14q8 0 18 -16l25 -31q47 -55 100 -76q37 -14 88 -14q58 0 117 22q21 9 39 21q14 6 25 14l53 45l10 13q21 18 27 18q16 0 16 -18q0 -11 -14 -33q-12 -19 -33 -43q-45 -51 -82 -76q-104 -70 -221 -70q-113 0 -203 74q-28 23 -49 45
q-27 27 -27 37q0 8 7 14zM479 -276q0 -44 30 -73.5t72 -29.5q44 0 75 29.5t31 73.5q0 42 -31.5 72t-74.5 30q-40 0 -71 -30t-31 -72z" />
    <glyph glyph-name="uni1EB8" unicode="&#x1eb8;" 
d="M336 1257l-4 125q-6 99 -88 117q-25 6 -80 6q-35 0 -35 19q0 18 45 18l295 -6h424l88 2q68 6 88 12q4 0 8 2l25 7q12 0 12 -19l-10 -74q-4 -26 -6 -59l-8 -107q0 -20 -3 -28q-2 -10 -6 -15q-4 -8 -14 -8q-18 0 -18 29q0 16 -2 33q-5 24 -11 41q-12 30 -35 47
q-30 18 -102 26q-12 2 -55 2l-88 5l-148 2q-14 0 -14 -21v-518q0 -23 14 -23h164q59 0 98 2q50 0 66 3q76 6 98 30q23 27 33 27q14 0 14 -16l-10 -84q-4 -31 -6 -66l-8 -137q0 -39 -19 -39q-18 0 -18 18l-2 35q-2 23 -6 39q-17 70 -115 80q-14 2 -55 2q-35 2 -86 2l-150 2
q-12 0 -12 -20v-480q4 -108 47 -139q45 -33 199 -33h45l51 4q61 4 96 21q72 33 92 151q6 31 23 31q16 0 16 -37q0 -121 -26 -227q-15 -53 -111 -53t-201 2l-153 4q-131 6 -213 6h-49q-35 0 -68 -2l-141 -4q-41 0 -41 20q0 17 32 17q37 0 74 8q45 8 60 113q6 57 8 180
q2 49 2 121v804zM542 -276q0 -44 30 -73.5t72 -29.5q44 0 75 29.5t31 73.5q0 42 -31.5 72t-74.5 30q-40 0 -71 -30t-31 -72z" />
    <glyph glyph-name="uni1EB9" unicode="&#x1eb9;" horiz-adv-x="1179" 
d="M184 1069q0 68 -2 107q-4 73 -78 94l-30 4q-21 2 -41 2q-31 0 -31 18q0 17 41 17l211 -4h541q12 0 24 2l51 8q4 0 15 4q10 4 14 4q12 0 12 -16l-4 -21q0 -6 -2 -10q-6 -35 -8 -82l-8 -90q0 -19 -2 -25l-2 -8q-2 -6 -4 -8q-5 -12 -15 -12q-14 0 -14 22q0 15 -2 29
q-4 20 -10 35q-13 28 -31 41q-27 16 -88 22q-10 2 -51 2l-88 4l-144 2q-12 0 -12 -16v-430q0 -19 12 -19h158q59 0 96 3q47 0 62 2q67 6 86 26l16 17q8 6 12 6q15 0 15 -19l-21 -194l-2 -49q0 -15 -2 -25q-6 -14 -16 -14q-17 0 -17 14l-6 63q-18 60 -100 68q-12 2 -51 2
l-86 4l-146 2q-10 0 -10 -18v-397q2 -89 55 -117q47 -29 189 -29q49 0 86 4q53 4 84 19q59 26 77 129q7 26 21 26q10 0 14 -14q2 -8 2 -27q0 -108 -24 -192q-13 -45 -97 -45q-198 0 -331 6l-246 4l-66 -2q-86 -4 -125 -4q-34 0 -34 18q0 19 28 19q39 0 64 6q43 10 53 92
q6 49 8 154v786zM368 -276q0 -44 30 -73.5t72 -29.5q44 0 75 29.5t31 73.5q0 42 -31.5 72t-74.5 30q-40 0 -71 -30t-31 -72z" />
    <glyph glyph-name="uni1EBA" unicode="&#x1eba;" 
d="M336 1257l-4 125q-6 99 -88 117q-25 6 -80 6q-35 0 -35 19q0 18 45 18l295 -6h424l88 2q68 6 88 12q4 0 8 2l25 7q12 0 12 -19l-10 -74q-4 -26 -6 -59l-8 -107q0 -20 -3 -28q-2 -10 -6 -15q-4 -8 -14 -8q-18 0 -18 29q0 16 -2 33q-5 24 -11 41q-12 30 -35 47
q-30 18 -102 26q-12 2 -55 2l-88 5l-148 2q-14 0 -14 -21v-518q0 -23 14 -23h164q59 0 98 2q50 0 66 3q76 6 98 30q23 27 33 27q14 0 14 -16l-10 -84q-4 -31 -6 -66l-8 -137q0 -39 -19 -39q-18 0 -18 18l-2 35q-2 23 -6 39q-17 70 -115 80q-14 2 -55 2q-35 2 -86 2l-150 2
q-12 0 -12 -20v-480q4 -108 47 -139q45 -33 199 -33h45l51 4q61 4 96 21q72 33 92 151q6 31 23 31q16 0 16 -37q0 -121 -26 -227q-15 -53 -111 -53t-201 2l-153 4q-131 6 -213 6h-49q-35 0 -68 -2l-141 -4q-41 0 -41 20q0 17 32 17q37 0 74 8q45 8 60 113q6 57 8 180
q2 49 2 121v804zM838 2094q37 -9 61 -25q42 -28 42 -67q0 -30 -15 -58q-12 -24 -38 -49q-18 -17 -52 -43l-56 -45q-48 -40 -48 -60q0 -19 15 -34q8 -8 8 -13t-9 -5q-10 0 -48 21q-42 25 -42 43q0 16 19 35l62 54q83 82 56 134t-85 52q-61 0 -92.5 -24.5t-33.5 -28.5t-6 -4
t-6 3l-3 6q-1 3 -2 13q-1 8 -1 20q-1 22 -1 47q0 3 2 5q2 3 8 6q26 11 64 18q47 9 104 9q55 0 97 -10z" />
    <glyph glyph-name="uni1EBB" unicode="&#x1ebb;" horiz-adv-x="1179" 
d="M184 1069q0 68 -2 107q-4 73 -78 94l-30 4q-21 2 -41 2q-31 0 -31 18q0 17 41 17l211 -4h541q12 0 24 2l51 8q4 0 15 4q10 4 14 4q12 0 12 -16l-4 -21q0 -6 -2 -10q-6 -35 -8 -82l-8 -90q0 -19 -2 -25l-2 -8q-2 -6 -4 -8q-5 -12 -15 -12q-14 0 -14 22q0 15 -2 29
q-4 20 -10 35q-13 28 -31 41q-27 16 -88 22q-10 2 -51 2l-88 4l-144 2q-12 0 -12 -16v-430q0 -19 12 -19h158q59 0 96 3q47 0 62 2q67 6 86 26l16 17q8 6 12 6q15 0 15 -19l-21 -194l-2 -49q0 -15 -2 -25q-6 -14 -16 -14q-17 0 -17 14l-6 63q-18 60 -100 68q-12 2 -51 2
l-86 4l-146 2q-10 0 -10 -18v-397q2 -89 55 -117q47 -29 189 -29q49 0 86 4q53 4 84 19q59 26 77 129q7 26 21 26q10 0 14 -14q2 -8 2 -27q0 -108 -24 -192q-13 -45 -97 -45q-198 0 -331 6l-246 4l-66 -2q-86 -4 -125 -4q-34 0 -34 18q0 19 28 19q39 0 64 6q43 10 53 92
q6 49 8 154v786zM658 1809q37 -9 61 -25q42 -28 42 -67q0 -30 -15 -58q-12 -24 -38 -49q-18 -17 -52 -43l-56 -45q-48 -40 -48 -60q0 -19 15 -34q8 -8 8 -13t-9 -5q-10 0 -48 21q-42 25 -42 43q0 16 19 35l62 54q83 82 56 134t-85 52q-61 0 -92.5 -24.5t-33.5 -28.5t-6 -4
t-6 3l-3 6q-1 3 -2 13q-1 8 -1 20q-1 22 -1 47q0 3 2 5q2 3 8 6q26 11 64 18q47 9 104 9q55 0 97 -10z" />
    <glyph glyph-name="uni1EBC" unicode="&#x1ebc;" 
d="M336 1257l-4 125q-6 99 -88 117q-25 6 -80 6q-35 0 -35 19q0 18 45 18l295 -6h424l88 2q68 6 88 12q4 0 8 2l25 7q12 0 12 -19l-10 -74q-4 -26 -6 -59l-8 -107q0 -20 -3 -28q-2 -10 -6 -15q-4 -8 -14 -8q-18 0 -18 29q0 16 -2 33q-5 24 -11 41q-12 30 -35 47
q-30 18 -102 26q-12 2 -55 2l-88 5l-148 2q-14 0 -14 -21v-518q0 -23 14 -23h164q59 0 98 2q50 0 66 3q76 6 98 30q23 27 33 27q14 0 14 -16l-10 -84q-4 -31 -6 -66l-8 -137q0 -39 -19 -39q-18 0 -18 18l-2 35q-2 23 -6 39q-17 70 -115 80q-14 2 -55 2q-35 2 -86 2l-150 2
q-12 0 -12 -20v-480q4 -108 47 -139q45 -33 199 -33h45l51 4q61 4 96 21q72 33 92 151q6 31 23 31q16 0 16 -37q0 -121 -26 -227q-15 -53 -111 -53t-201 2l-153 4q-131 6 -213 6h-49q-35 0 -68 -2l-141 -4q-41 0 -41 20q0 17 32 17q37 0 74 8q45 8 60 113q6 57 8 180
q2 49 2 121v804zM754 1720q-19 6 -41 19l-95 49q-34 14 -71 14q-51 0 -94 -30q-15 -11 -27 -25q-6 -4 -10 -10l-4 -4q-4 -2 -4 -4q-13 -13 -21 -17q-6 -4 -12 -4q-15 0 -15 14q0 7 7 21q4 12 10 18q6 11 14 21l19 24q22 29 49 54q67 59 131 59q47 0 92 -18l72 -39
q80 -45 147 -45q47 0 88 26l25 21l12 14q21 27 33 27q16 0 16 -17q0 -6 -4 -16l-8 -19q-8 -16 -25 -38q-22 -29 -47 -52q-67 -63 -129 -63q-55 0 -108 20z" />
    <glyph glyph-name="uni1EBD" unicode="&#x1ebd;" horiz-adv-x="1179" 
d="M184 1069q0 68 -2 107q-4 73 -78 94l-30 4q-21 2 -41 2q-31 0 -31 18q0 17 41 17l211 -4h541q12 0 24 2l51 8q4 0 15 4q10 4 14 4q12 0 12 -16l-4 -21q0 -6 -2 -10q-6 -35 -8 -82l-8 -90q0 -19 -2 -25l-2 -8q-2 -6 -4 -8q-5 -12 -15 -12q-14 0 -14 22q0 15 -2 29
q-4 20 -10 35q-13 28 -31 41q-27 16 -88 22q-10 2 -51 2l-88 4l-144 2q-12 0 -12 -16v-430q0 -19 12 -19h158q59 0 96 3q47 0 62 2q67 6 86 26l16 17q8 6 12 6q15 0 15 -19l-21 -194l-2 -49q0 -15 -2 -25q-6 -14 -16 -14q-17 0 -17 14l-6 63q-18 60 -100 68q-12 2 -51 2
l-86 4l-146 2q-10 0 -10 -18v-397q2 -89 55 -117q47 -29 189 -29q49 0 86 4q53 4 84 19q59 26 77 129q7 26 21 26q10 0 14 -14q2 -8 2 -27q0 -108 -24 -192q-13 -45 -97 -45q-198 0 -331 6l-246 4l-66 -2q-86 -4 -125 -4q-34 0 -34 18q0 19 28 19q39 0 64 6q43 10 53 92
q6 49 8 154v786zM574 1491q-18 6 -41 18l-94 50q-35 14 -72 14q-51 0 -94 -31q-14 -10 -27 -24q-6 -5 -10 -11l-4 -4q-4 -2 -4 -4q-12 -12 -21 -16q-6 -4 -12 -4q-14 0 -14 14q0 6 6 20q4 13 10 19q6 10 15 20q8 13 18 25q22 29 49 53q68 60 131 60q47 0 92 -19l72 -39
q80 -45 147 -45q48 0 89 27l24 20l12 15q21 26 33 26q17 0 17 -16q0 -6 -5 -17l-8 -18q-8 -16 -24 -39q-23 -29 -47 -51q-68 -64 -129 -64q-56 0 -109 21z" />
    <glyph glyph-name="uni1EBE" unicode="&#x1ebe;" 
d="M336 1257l-4 125q-6 99 -88 117q-25 6 -80 6q-35 0 -35 19q0 18 45 18l295 -6h424l88 2q68 6 88 12q4 0 8 2l25 7q12 0 12 -19l-10 -74q-4 -26 -6 -59l-8 -107q0 -20 -3 -28q-2 -10 -6 -15q-4 -8 -14 -8q-18 0 -18 29q0 16 -2 33q-5 24 -11 41q-12 30 -35 47
q-30 18 -102 26q-12 2 -55 2l-88 5l-148 2q-14 0 -14 -21v-518q0 -23 14 -23h164q59 0 98 2q50 0 66 3q76 6 98 30q23 27 33 27q14 0 14 -16l-10 -84q-4 -31 -6 -66l-8 -137q0 -39 -19 -39q-18 0 -18 18l-2 35q-2 23 -6 39q-17 70 -115 80q-14 2 -55 2q-35 2 -86 2l-150 2
q-12 0 -12 -20v-480q4 -108 47 -139q45 -33 199 -33h45l51 4q61 4 96 21q72 33 92 151q6 31 23 31q16 0 16 -37q0 -121 -26 -227q-15 -53 -111 -53t-201 2l-153 4q-131 6 -213 6h-49q-35 0 -68 -2l-141 -4q-41 0 -41 20q0 17 32 17q37 0 74 8q45 8 60 113q6 57 8 180
q2 49 2 121v804zM736 1987l41 -31q29 -25 76 -58l127 -96q28 -20 28 -28q0 -11 -10 -21l-59 -59q-15 -15 -27 -15q-8 0 -31 23q-24 27 -96 86q-63 51 -84 65q-14 13 -27 13q-10 0 -30 -11q-47 -26 -107 -67q-67 -47 -110 -84q-27 -25 -41 -25q-19 0 -19 21q0 8 19 31
l133 127q47 45 86 79q41 39 51 48q27 24 43 24q6 0 37 -22zM888 2133q8 -16 4 -24q-4 -6 -14 -6l-43 2q-13 0 -27 -2q-78 -11 -189 -52q-96 -34 -161 -69l-13 -6q-6 -4 -10 -4q-10 -7 -12 -7q-12 0 -12 13q0 8 18 26q29 27 82 70l102 82q113 86 146 106q14 11 26 15
q9 4 15 4q14 0 28 -25q23 -37 60 -123z" />
    <glyph glyph-name="uni1EBF" unicode="&#x1ebf;" horiz-adv-x="1179" 
d="M184 1069q0 68 -2 107q-4 73 -78 94l-30 4q-21 2 -41 2q-31 0 -31 18q0 17 41 17l211 -4h541q12 0 24 2l51 8q4 0 15 4q10 4 14 4q12 0 12 -16l-4 -21q0 -6 -2 -10q-6 -35 -8 -82l-8 -90q0 -19 -2 -25l-2 -8q-2 -6 -4 -8q-5 -12 -15 -12q-14 0 -14 22q0 15 -2 29
q-4 20 -10 35q-13 28 -31 41q-27 16 -88 22q-10 2 -51 2l-88 4l-144 2q-12 0 -12 -16v-430q0 -19 12 -19h158q59 0 96 3q47 0 62 2q67 6 86 26l16 17q8 6 12 6q15 0 15 -19l-21 -194l-2 -49q0 -15 -2 -25q-6 -14 -16 -14q-17 0 -17 14l-6 63q-18 60 -100 68q-12 2 -51 2
l-86 4l-146 2q-10 0 -10 -18v-397q2 -89 55 -117q47 -29 189 -29q49 0 86 4q53 4 84 19q59 26 77 129q7 26 21 26q10 0 14 -14q2 -8 2 -27q0 -108 -24 -192q-13 -45 -97 -45q-198 0 -331 6l-246 4l-66 -2q-86 -4 -125 -4q-34 0 -34 18q0 19 28 19q39 0 64 6q43 10 53 92
q6 49 8 154v786zM683 1897q8 -16 4 -24q-4 -6 -14 -6l-43 2q-12 0 -27 -2q-78 -11 -188 -52q-96 -34 -162 -69l-12 -6q-6 -4 -10 -4q-11 -7 -13 -7q-12 0 -12 13q0 8 18 26q29 27 82 70l103 82q112 86 145 106q14 11 27 15q8 4 14 4q14 0 29 -25q22 -37 59 -123zM528 1757
l41 -31q29 -24 76 -57l127 -96q29 -21 29 -29q0 -10 -11 -20l-59 -60q-14 -14 -27 -14q-8 0 -30 23q-25 26 -97 86q-63 51 -83 65q-15 12 -27 12q-10 0 -31 -10q-47 -27 -106 -67q-68 -48 -111 -84q-27 -25 -41 -25q-18 0 -18 20q0 9 18 31l133 127q47 45 86 80q41 39 51 47
q27 25 43 25q7 0 37 -23z" />
    <glyph glyph-name="uni1EC0" unicode="&#x1ec0;" 
d="M336 1257l-4 125q-6 99 -88 117q-25 6 -80 6q-35 0 -35 19q0 18 45 18l295 -6h424l88 2q68 6 88 12q4 0 8 2l25 7q12 0 12 -19l-10 -74q-4 -26 -6 -59l-8 -107q0 -20 -3 -28q-2 -10 -6 -15q-4 -8 -14 -8q-18 0 -18 29q0 16 -2 33q-5 24 -11 41q-12 30 -35 47
q-30 18 -102 26q-12 2 -55 2l-88 5l-148 2q-14 0 -14 -21v-518q0 -23 14 -23h164q59 0 98 2q50 0 66 3q76 6 98 30q23 27 33 27q14 0 14 -16l-10 -84q-4 -31 -6 -66l-8 -137q0 -39 -19 -39q-18 0 -18 18l-2 35q-2 23 -6 39q-17 70 -115 80q-14 2 -55 2q-35 2 -86 2l-150 2
q-12 0 -12 -20v-480q4 -108 47 -139q45 -33 199 -33h45l51 4q61 4 96 21q72 33 92 151q6 31 23 31q16 0 16 -37q0 -121 -26 -227q-15 -53 -111 -53t-201 2l-153 4q-131 6 -213 6h-49q-35 0 -68 -2l-141 -4q-41 0 -41 20q0 17 32 17q37 0 74 8q45 8 60 113q6 57 8 180
q2 49 2 121v804zM736 1987l41 -31q29 -25 76 -58l127 -96q28 -20 28 -28q0 -11 -10 -21l-59 -59q-15 -15 -27 -15q-8 0 -31 23q-24 27 -96 86q-63 51 -84 65q-14 13 -27 13q-10 0 -30 -11q-47 -26 -107 -67q-67 -47 -110 -84q-27 -25 -41 -25q-19 0 -19 21q0 8 19 31
l133 127q47 45 86 79q41 39 51 48q27 24 43 24q6 0 37 -22zM1032 1963q-6 -4 -14 -4q-10 0 -74 24l-133 56q-154 63 -209 90q-29 12 -49 26q-19 15 -19 25q0 12 27 18q84 27 137 52q31 14 39 14q6 0 13 -12l20 -33q18 -25 86 -88q78 -76 141 -121l17 -10q0 -2 6 -4
q4 -4 6 -4q14 -11 14 -19q0 -6 -8 -10z" />
    <glyph glyph-name="uni1EC1" unicode="&#x1ec1;" horiz-adv-x="1179" 
d="M184 1069q0 68 -2 107q-4 73 -78 94l-30 4q-21 2 -41 2q-31 0 -31 18q0 17 41 17l211 -4h541q12 0 24 2l51 8q4 0 15 4q10 4 14 4q12 0 12 -16l-4 -21q0 -6 -2 -10q-6 -35 -8 -82l-8 -90q0 -19 -2 -25l-2 -8q-2 -6 -4 -8q-5 -12 -15 -12q-14 0 -14 22q0 15 -2 29
q-4 20 -10 35q-13 28 -31 41q-27 16 -88 22q-10 2 -51 2l-88 4l-144 2q-12 0 -12 -16v-430q0 -19 12 -19h158q59 0 96 3q47 0 62 2q67 6 86 26l16 17q8 6 12 6q15 0 15 -19l-21 -194l-2 -49q0 -15 -2 -25q-6 -14 -16 -14q-17 0 -17 14l-6 63q-18 60 -100 68q-12 2 -51 2
l-86 4l-146 2q-10 0 -10 -18v-397q2 -89 55 -117q47 -29 189 -29q49 0 86 4q53 4 84 19q59 26 77 129q7 26 21 26q10 0 14 -14q2 -8 2 -27q0 -108 -24 -192q-13 -45 -97 -45q-198 0 -331 6l-246 4l-66 -2q-86 -4 -125 -4q-34 0 -34 18q0 19 28 19q39 0 64 6q43 10 53 92
q6 49 8 154v786zM825 1733q-6 -4 -14 -4q-10 0 -74 24l-133 56q-154 63 -209 90q-29 12 -49 26q-18 15 -18 25q0 12 26 18q84 27 137 52q31 14 39 14q6 0 13 -12l20 -33q19 -25 86 -88q78 -76 141 -121l17 -10q0 -2 6 -4q4 -4 6 -4q14 -11 14 -19q0 -6 -8 -10zM528 1757
l41 -31q29 -24 76 -57l127 -96q29 -21 29 -29q0 -10 -11 -20l-59 -60q-14 -14 -27 -14q-8 0 -30 23q-25 26 -97 86q-63 51 -83 65q-15 12 -27 12q-10 0 -31 -10q-47 -27 -106 -67q-68 -48 -111 -84q-27 -25 -41 -25q-18 0 -18 20q0 9 18 31l133 127q47 45 86 80q41 39 51 47
q27 25 43 25q7 0 37 -23z" />
    <glyph glyph-name="uni1EC2" unicode="&#x1ec2;" 
d="M336 1257l-4 125q-6 99 -88 117q-25 6 -80 6q-35 0 -35 19q0 18 45 18l295 -6h424l88 2q68 6 88 12q4 0 8 2l25 7q12 0 12 -19l-10 -74q-4 -26 -6 -59l-8 -107q0 -20 -3 -28q-2 -10 -6 -15q-4 -8 -14 -8q-18 0 -18 29q0 16 -2 33q-5 24 -11 41q-12 30 -35 47
q-30 18 -102 26q-12 2 -55 2l-88 5l-148 2q-14 0 -14 -21v-518q0 -23 14 -23h164q59 0 98 2q50 0 66 3q76 6 98 30q23 27 33 27q14 0 14 -16l-10 -84q-4 -31 -6 -66l-8 -137q0 -39 -19 -39q-18 0 -18 18l-2 35q-2 23 -6 39q-17 70 -115 80q-14 2 -55 2q-35 2 -86 2l-150 2
q-12 0 -12 -20v-480q4 -108 47 -139q45 -33 199 -33h45l51 4q61 4 96 21q72 33 92 151q6 31 23 31q16 0 16 -37q0 -121 -26 -227q-15 -53 -111 -53t-201 2l-153 4q-131 6 -213 6h-49q-35 0 -68 -2l-141 -4q-41 0 -41 20q0 17 32 17q37 0 74 8q45 8 60 113q6 57 8 180
q2 49 2 121v804zM736 1987l41 -31q29 -25 76 -58l127 -96q28 -20 28 -28q0 -11 -10 -21l-59 -59q-15 -15 -27 -15q-8 0 -31 23q-24 27 -96 86q-63 51 -84 65q-14 13 -27 13q-10 0 -30 -11q-47 -26 -107 -67q-67 -47 -110 -84q-27 -25 -41 -25q-19 0 -19 21q0 8 19 31
l133 127q47 45 86 79q41 39 51 48q27 24 43 24q6 0 37 -22zM999 2353q37 -9 61 -25q42 -28 42 -67q0 -30 -15 -58q-12 -24 -38 -49q-18 -17 -52 -43l-56 -45q-48 -40 -48 -60q0 -19 15 -34q8 -8 8 -13t-9 -5q-10 0 -48 21q-42 25 -42 43q0 16 19 35l62 54q83 82 56 134
t-85 52q-61 0 -92.5 -24.5t-33.5 -28.5t-6 -4t-6 3l-3 6q-1 3 -2 13q-1 8 -1 20q-1 22 -1 47q0 3 2 5q2 3 8 6q26 11 64 18q47 9 104 9q55 0 97 -10z" />
    <glyph glyph-name="uni1EC3" unicode="&#x1ec3;" horiz-adv-x="1179" 
d="M184 1069q0 68 -2 107q-4 73 -78 94l-30 4q-21 2 -41 2q-31 0 -31 18q0 17 41 17l211 -4h541q12 0 24 2l51 8q4 0 15 4q10 4 14 4q12 0 12 -16l-4 -21q0 -6 -2 -10q-6 -35 -8 -82l-8 -90q0 -19 -2 -25l-2 -8q-2 -6 -4 -8q-5 -12 -15 -12q-14 0 -14 22q0 15 -2 29
q-4 20 -10 35q-13 28 -31 41q-27 16 -88 22q-10 2 -51 2l-88 4l-144 2q-12 0 -12 -16v-430q0 -19 12 -19h158q59 0 96 3q47 0 62 2q67 6 86 26l16 17q8 6 12 6q15 0 15 -19l-21 -194l-2 -49q0 -15 -2 -25q-6 -14 -16 -14q-17 0 -17 14l-6 63q-18 60 -100 68q-12 2 -51 2
l-86 4l-146 2q-10 0 -10 -18v-397q2 -89 55 -117q47 -29 189 -29q49 0 86 4q53 4 84 19q59 26 77 129q7 26 21 26q10 0 14 -14q2 -8 2 -27q0 -108 -24 -192q-13 -45 -97 -45q-198 0 -331 6l-246 4l-66 -2q-86 -4 -125 -4q-34 0 -34 18q0 19 28 19q39 0 64 6q43 10 53 92
q6 49 8 154v786zM528 1757l41 -31q29 -24 76 -57l127 -96q29 -21 29 -29q0 -10 -11 -20l-59 -60q-14 -14 -27 -14q-8 0 -30 23q-25 26 -97 86q-63 51 -83 65q-15 12 -27 12q-10 0 -31 -10q-47 -27 -106 -67q-68 -48 -111 -84q-27 -25 -41 -25q-18 0 -18 20q0 9 18 31
l133 127q47 45 86 80q41 39 51 47q27 25 43 25q7 0 37 -23zM793 2123q37 -9 61 -25q42 -28 42 -67q0 -30 -15 -58q-12 -24 -38 -49q-18 -17 -52 -43l-56 -45q-48 -40 -48 -60q0 -19 15 -34q8 -8 8 -13t-9 -5q-10 0 -48 21q-42 25 -42 43q0 16 19 35l62 54q83 82 56 134
t-85 52q-61 0 -92.5 -24.5t-33.5 -28.5t-6 -4t-6 3l-3 6q-1 3 -2 13q-1 8 -1 20q-1 22 -1 47q0 3 2 5q2 3 8 6q26 11 64 18q47 9 104 9q55 0 97 -10z" />
    <glyph glyph-name="uni1EC4" unicode="&#x1ec4;" 
d="M336 1257l-4 125q-6 99 -88 117q-25 6 -80 6q-35 0 -35 19q0 18 45 18l295 -6h424l88 2q68 6 88 12q4 0 8 2l25 7q12 0 12 -19l-10 -74q-4 -26 -6 -59l-8 -107q0 -20 -3 -28q-2 -10 -6 -15q-4 -8 -14 -8q-18 0 -18 29q0 16 -2 33q-5 24 -11 41q-12 30 -35 47
q-30 18 -102 26q-12 2 -55 2l-88 5l-148 2q-14 0 -14 -21v-518q0 -23 14 -23h164q59 0 98 2q50 0 66 3q76 6 98 30q23 27 33 27q14 0 14 -16l-10 -84q-4 -31 -6 -66l-8 -137q0 -39 -19 -39q-18 0 -18 18l-2 35q-2 23 -6 39q-17 70 -115 80q-14 2 -55 2q-35 2 -86 2l-150 2
q-12 0 -12 -20v-480q4 -108 47 -139q45 -33 199 -33h45l51 4q61 4 96 21q72 33 92 151q6 31 23 31q16 0 16 -37q0 -121 -26 -227q-15 -53 -111 -53t-201 2l-153 4q-131 6 -213 6h-49q-35 0 -68 -2l-141 -4q-41 0 -41 20q0 17 32 17q37 0 74 8q45 8 60 113q6 57 8 180
q2 49 2 121v804zM736 1987l41 -31q29 -25 76 -58l127 -96q28 -20 28 -28q0 -11 -10 -21l-59 -59q-15 -15 -27 -15q-8 0 -31 23q-24 27 -96 86q-63 51 -84 65q-14 13 -27 13q-10 0 -30 -11q-47 -26 -107 -67q-67 -47 -110 -84q-27 -25 -41 -25q-19 0 -19 21q0 8 19 31
l133 127q47 45 86 79q41 39 51 48q27 24 43 24q6 0 37 -22zM896 2006q-19 6 -41 19l-95 49q-34 14 -71 14q-51 0 -94 -30q-15 -11 -27 -25q-6 -4 -10 -10l-4 -4q-4 -2 -4 -4q-13 -13 -21 -17q-6 -4 -12 -4q-15 0 -15 14q0 7 7 21q4 12 10 18q6 11 14 21l19 24q22 29 49 54
q67 59 131 59q47 0 92 -18l72 -39q80 -45 147 -45q47 0 88 26l25 21l12 14q21 27 33 27q16 0 16 -17q0 -6 -4 -16l-8 -19q-8 -16 -25 -38q-22 -29 -47 -52q-67 -63 -129 -63q-55 0 -108 20z" />
    <glyph glyph-name="uni1EC5" unicode="&#x1ec5;" horiz-adv-x="1179" 
d="M184 1069q0 68 -2 107q-4 73 -78 94l-30 4q-21 2 -41 2q-31 0 -31 18q0 17 41 17l211 -4h541q12 0 24 2l51 8q4 0 15 4q10 4 14 4q12 0 12 -16l-4 -21q0 -6 -2 -10q-6 -35 -8 -82l-8 -90q0 -19 -2 -25l-2 -8q-2 -6 -4 -8q-5 -12 -15 -12q-14 0 -14 22q0 15 -2 29
q-4 20 -10 35q-13 28 -31 41q-27 16 -88 22q-10 2 -51 2l-88 4l-144 2q-12 0 -12 -16v-430q0 -19 12 -19h158q59 0 96 3q47 0 62 2q67 6 86 26l16 17q8 6 12 6q15 0 15 -19l-21 -194l-2 -49q0 -15 -2 -25q-6 -14 -16 -14q-17 0 -17 14l-6 63q-18 60 -100 68q-12 2 -51 2
l-86 4l-146 2q-10 0 -10 -18v-397q2 -89 55 -117q47 -29 189 -29q49 0 86 4q53 4 84 19q59 26 77 129q7 26 21 26q10 0 14 -14q2 -8 2 -27q0 -108 -24 -192q-13 -45 -97 -45q-198 0 -331 6l-246 4l-66 -2q-86 -4 -125 -4q-34 0 -34 18q0 19 28 19q39 0 64 6q43 10 53 92
q6 49 8 154v786zM689 1775q-19 6 -41 19l-94 49q-35 14 -72 14q-51 0 -94 -30q-15 -11 -27 -25q-6 -4 -10 -10l-4 -4q-4 -2 -4 -4q-13 -13 -21 -17q-6 -4 -12 -4q-14 0 -14 14q0 7 6 21q4 12 10 18q6 11 14 21l19 24q22 29 49 54q67 59 131 59q47 0 92 -18l72 -39
q80 -45 147 -45q47 0 88 26l25 21l12 14q21 27 33 27q16 0 16 -17q0 -6 -4 -16l-8 -19q-8 -16 -25 -38q-22 -29 -47 -52q-67 -63 -129 -63q-55 0 -108 20zM526 1757l41 -31q29 -24 76 -57l127 -96q29 -21 29 -29q0 -10 -11 -20l-59 -60q-14 -14 -27 -14q-8 0 -30 23
q-25 26 -97 86q-63 51 -83 65q-15 12 -27 12q-10 0 -31 -10q-47 -27 -106 -67q-68 -48 -111 -84q-27 -25 -41 -25q-18 0 -18 20q0 9 18 31l133 127q47 45 86 80q41 39 51 47q27 25 43 25q7 0 37 -23z" />
    <glyph glyph-name="uni1EC6" unicode="&#x1ec6;" 
d="M336 1257l-4 125q-6 99 -88 117q-25 6 -80 6q-35 0 -35 19q0 18 45 18l295 -6h424l88 2q68 6 88 12q4 0 8 2l25 7q12 0 12 -19l-10 -74q-4 -26 -6 -59l-8 -107q0 -20 -3 -28q-2 -10 -6 -15q-4 -8 -14 -8q-18 0 -18 29q0 16 -2 33q-5 24 -11 41q-12 30 -35 47
q-30 18 -102 26q-12 2 -55 2l-88 5l-148 2q-14 0 -14 -21v-518q0 -23 14 -23h164q59 0 98 2q50 0 66 3q76 6 98 30q23 27 33 27q14 0 14 -16l-10 -84q-4 -31 -6 -66l-8 -137q0 -39 -19 -39q-18 0 -18 18l-2 35q-2 23 -6 39q-17 70 -115 80q-14 2 -55 2q-35 2 -86 2l-150 2
q-12 0 -12 -20v-480q4 -108 47 -139q45 -33 199 -33h45l51 4q61 4 96 21q72 33 92 151q6 31 23 31q16 0 16 -37q0 -121 -26 -227q-15 -53 -111 -53t-201 2l-153 4q-131 6 -213 6h-49q-35 0 -68 -2l-141 -4q-41 0 -41 20q0 17 32 17q37 0 74 8q45 8 60 113q6 57 8 180
q2 49 2 121v804zM735 1987l41 -31q29 -25 76 -58l127 -96q29 -20 29 -28q0 -11 -11 -21l-59 -59q-14 -15 -27 -15q-8 0 -30 23q-25 27 -97 86q-63 51 -84 65q-14 13 -26 13q-10 0 -31 -11q-47 -26 -106 -67q-68 -47 -111 -84q-27 -25 -41 -25q-18 0 -18 21q0 8 18 31
l133 127q47 45 86 79q41 39 51 48q27 24 43 24q6 0 37 -22zM542 -276q0 -44 30 -73.5t72 -29.5q44 0 75 29.5t31 73.5q0 42 -31.5 72t-74.5 30q-40 0 -71 -30t-31 -72z" />
    <glyph glyph-name="uni1EC7" unicode="&#x1ec7;" horiz-adv-x="1179" 
d="M184 1069q0 68 -2 107q-4 73 -78 94l-30 4q-21 2 -41 2q-31 0 -31 18q0 17 41 17l211 -4h541q12 0 24 2l51 8q4 0 15 4q10 4 14 4q12 0 12 -16l-4 -21q0 -6 -2 -10q-6 -35 -8 -82l-8 -90q0 -19 -2 -25l-2 -8q-2 -6 -4 -8q-5 -12 -15 -12q-14 0 -14 22q0 15 -2 29
q-4 20 -10 35q-13 28 -31 41q-27 16 -88 22q-10 2 -51 2l-88 4l-144 2q-12 0 -12 -16v-430q0 -19 12 -19h158q59 0 96 3q47 0 62 2q67 6 86 26l16 17q8 6 12 6q15 0 15 -19l-21 -194l-2 -49q0 -15 -2 -25q-6 -14 -16 -14q-17 0 -17 14l-6 63q-18 60 -100 68q-12 2 -51 2
l-86 4l-146 2q-10 0 -10 -18v-397q2 -89 55 -117q47 -29 189 -29q49 0 86 4q53 4 84 19q59 26 77 129q7 26 21 26q10 0 14 -14q2 -8 2 -27q0 -108 -24 -192q-13 -45 -97 -45q-198 0 -331 6l-246 4l-66 -2q-86 -4 -125 -4q-34 0 -34 18q0 19 28 19q39 0 64 6q43 10 53 92
q6 49 8 154v786zM528 1757l41 -31q29 -24 76 -57l127 -96q29 -21 29 -29q0 -10 -11 -20l-59 -60q-14 -14 -27 -14q-8 0 -30 23q-25 26 -97 86q-63 51 -83 65q-15 12 -27 12q-10 0 -31 -10q-47 -27 -106 -67q-68 -48 -111 -84q-27 -25 -41 -25q-18 0 -18 20q0 9 18 31
l133 127q47 45 86 80q41 39 51 47q27 25 43 25q7 0 37 -23zM368 -276q0 -44 30 -73.5t72 -29.5q44 0 75 29.5t31 73.5q0 42 -31.5 72t-74.5 30q-40 0 -71 -30t-31 -72z" />
    <glyph glyph-name="uni1EC8" unicode="&#x1ec8;" horiz-adv-x="925" 
d="M335 1257l-4 125q-6 101 -70 115q-30 8 -73 8q-33 0 -33 21q0 16 49 16l316 -6q12 2 32 2l168 4q43 0 43 -16q0 -21 -33 -21q-24 0 -61 -6q-70 -12 -76 -117l-4 -125v-811q0 -73 2 -124q0 -123 6 -183q11 -90 82 -100q58 -8 105 -8q33 0 33 -17q0 -20 -39 -20l-248 4
q-10 0 -19 2l-311 -6q-41 0 -41 20q0 17 33 17q37 0 74 8q49 10 59 102q6 58 8 181q2 51 2 124v811zM559 2023q37 -9 61 -25q42 -28 42 -67q0 -30 -15 -58q-12 -24 -38 -49q-18 -17 -52 -43l-56 -45q-48 -40 -48 -60q0 -19 15 -34q8 -8 8 -13t-9 -5q-10 0 -48 21
q-42 25 -42 43q0 16 19 35l62 54q83 82 56 134t-85 52q-61 0 -92.5 -24.5t-33.5 -28.5t-6 -4t-6 3l-3 6q-1 3 -2 13q-1 8 -1 20q-1 22 -1 47q0 3 2 5q2 3 8 6q26 11 64 18q47 9 104 9q55 0 97 -10z" />
    <glyph glyph-name="uni1EC9" unicode="&#x1ec9;" horiz-adv-x="833" 
d="M295 1069q0 68 -2 107q-6 73 -62 92q-26 8 -65 8q-29 0 -29 20q0 15 43 15l287 -4l186 4q37 0 37 -15q0 -20 -29 -20q-22 0 -53 -6q-61 -10 -68 -94l-4 -107v-690q0 -62 2 -105q0 -106 7 -155q10 -72 71 -82q37 -6 92 -6q29 0 29 -19q0 -18 -35 -18l-334 6q-12 -2 -30 -2
l-162 -4q-35 0 -35 18q0 19 29 19q39 0 63 6q45 10 54 84q6 49 8 153v795zM534 1788q37 -9 62 -25q41 -28 41 -67q0 -30 -15 -58q-12 -24 -38 -49q-18 -17 -52 -43l-55 -45q-48 -40 -48 -60q0 -19 15 -34q7 -8 7 -13t-8 -5q-11 0 -49 21q-42 25 -42 43q0 16 19 35l62 54
q83 82 56.5 134t-85.5 52q-61 0 -92.5 -24.5t-33.5 -28.5t-5 -4q-5 0 -7 3l-3 6q-1 3 -2 13q-1 8 -1 20q-1 22 -1 47q0 3 2 5q2 3 9 6q25 11 63 18q47 9 104 9q56 0 97 -10z" />
    <glyph glyph-name="uni1ECA" unicode="&#x1eca;" horiz-adv-x="925" 
d="M335 1257l-4 125q-6 101 -70 115q-30 8 -73 8q-33 0 -33 21q0 16 49 16l316 -6q12 2 32 2l168 4q43 0 43 -16q0 -21 -33 -21q-24 0 -61 -6q-70 -12 -76 -117l-4 -125v-811q0 -73 2 -124q0 -123 6 -183q11 -90 82 -100q58 -8 105 -8q33 0 33 -17q0 -20 -39 -20l-248 4
q-10 0 -19 2l-311 -6q-41 0 -41 20q0 17 33 17q37 0 74 8q49 10 59 102q6 58 8 181q2 51 2 124v811zM358 -219q0 -44 30 -73.5t72 -29.5q45 0 75.5 29.5t30.5 73.5q0 42 -31.5 72t-74.5 30q-40 0 -71 -30t-31 -72z" />
    <glyph glyph-name="uni1ECB" unicode="&#x1ecb;" horiz-adv-x="833" 
d="M295 1069q0 68 -2 107q-6 73 -62 92q-26 8 -65 8q-29 0 -29 20q0 15 43 15l287 -4l186 4q37 0 37 -15q0 -20 -29 -20q-22 0 -53 -6q-61 -10 -68 -94l-4 -107v-690q0 -62 2 -105q0 -106 7 -155q10 -72 71 -82q37 -6 92 -6q29 0 29 -19q0 -18 -35 -18l-334 6q-12 -2 -30 -2
l-162 -4q-35 0 -35 18q0 19 29 19q39 0 63 6q45 10 54 84q6 49 8 153v795zM307 -219q0 -44 30 -73.5t72 -29.5q45 0 75.5 29.5t30.5 73.5q0 42 -31.5 72t-74.5 30q-40 0 -71 -30t-31 -72z" />
    <glyph glyph-name="uni1ECC" unicode="&#x1ecc;" horiz-adv-x="1687" 
d="M511 39q-150 67 -256 192q-97 111 -146 258q-47 136 -47 279q0 139 45 272q51 148 148 260q108 125 262 195q172 76 391 76q381 0 604 -207t223 -559q0 -361 -229 -596q-236 -244 -619 -244q-211 0 -376 74zM1109 88q88 27 155 88q84 76 131 201q53 145 53 352
q0 336 -174 545q-168 199 -426 199q-96 0 -178 -29q-94 -33 -162 -101q-77 -77 -118 -196q-45 -133 -45 -316q0 -329 168 -540q174 -223 460 -223q70 0 136 20zM795 -276q0 -44 30 -73.5t72 -29.5q44 0 75 29.5t31 73.5q0 42 -31.5 72t-74.5 30q-40 0 -71 -30t-31 -72z" />
    <glyph glyph-name="uni1ECD" unicode="&#x1ecd;" horiz-adv-x="1583" 
d="M499 35q-135 57 -229 162q-86 94 -131 219q-41 116 -41 237q0 119 41 232q45 125 131 221q96 106 236 164q153 65 348 65q340 0 538 -176q199 -176 199 -475q0 -307 -203 -506q-211 -207 -553 -207q-188 0 -336 64zM1028 82q78 24 135 76q74 63 113 168q47 120 47 295
q0 282 -152 456q-147 166 -371 166q-81 0 -153 -22q-80 -29 -139 -84q-68 -66 -103 -164q-41 -113 -41 -266q0 -277 146 -455q149 -186 399 -186q61 0 119 16zM740 -276q0 -44 30 -73.5t72 -29.5q44 0 75 29.5t31 73.5q0 42 -31.5 72t-74.5 30q-40 0 -71 -30t-31 -72z" />
    <glyph glyph-name="uni1ECE" unicode="&#x1ece;" horiz-adv-x="1687" 
d="M511 39q-150 67 -256 192q-97 111 -146 258q-47 136 -47 279q0 139 45 272q51 148 148 260q108 125 262 195q172 76 391 76q381 0 604 -207t223 -559q0 -361 -229 -596q-236 -244 -619 -244q-211 0 -376 74zM1109 88q88 27 155 88q84 76 131 201q53 145 53 352
q0 336 -174 545q-168 199 -426 199q-96 0 -178 -29q-94 -33 -162 -101q-77 -77 -118 -196q-45 -133 -45 -316q0 -329 168 -540q174 -223 460 -223q70 0 136 20zM985 2094q37 -9 61 -25q42 -28 42 -67q0 -30 -15 -58q-12 -24 -38 -49q-18 -17 -52 -43l-56 -45
q-48 -40 -48 -60q0 -19 15 -34q8 -8 8 -13t-9 -5q-10 0 -48 21q-42 25 -42 43q0 16 19 35l62 54q83 82 56 134t-85 52q-61 0 -92.5 -24.5t-33.5 -28.5t-6 -4t-6 3l-3 6q-1 3 -2 13q-1 8 -1 20q-1 22 -1 47q0 3 2 5q2 3 8 6q26 11 64 18q47 9 104 9q55 0 97 -10z" />
    <glyph glyph-name="uni1ECF" unicode="&#x1ecf;" horiz-adv-x="1583" 
d="M499 35q-135 57 -229 162q-86 94 -131 219q-41 116 -41 237q0 119 41 232q45 125 131 221q96 106 236 164q153 65 348 65q340 0 538 -176q199 -176 199 -475q0 -307 -203 -506q-211 -207 -553 -207q-188 0 -336 64zM1028 82q78 24 135 76q74 63 113 168q47 120 47 295
q0 282 -152 456q-147 166 -371 166q-81 0 -153 -22q-80 -29 -139 -84q-68 -66 -103 -164q-41 -113 -41 -266q0 -277 146 -455q149 -186 399 -186q61 0 119 16zM930 1809q37 -9 61 -25q42 -28 42 -67q0 -30 -15 -58q-12 -24 -38 -49q-18 -17 -52 -43l-56 -45q-48 -40 -48 -60
q0 -19 15 -34q8 -8 8 -13t-9 -5q-10 0 -48 21q-42 25 -42 43q0 16 19 35l62 54q83 82 56 134t-85 52q-61 0 -92.5 -24.5t-33.5 -28.5t-6 -4t-6 3l-3 6q-1 3 -2 13q-1 8 -1 20q-1 22 -1 47q0 3 2 5q2 3 8 6q26 11 64 18q47 9 104 9q55 0 97 -10z" />
    <glyph glyph-name="uni1ED0" unicode="&#x1ed0;" horiz-adv-x="1687" 
d="M511 39q-150 67 -256 192q-97 111 -146 258q-47 136 -47 279q0 139 45 272q51 148 148 260q108 125 262 195q172 76 391 76q381 0 604 -207t223 -559q0 -361 -229 -596q-236 -244 -619 -244q-211 0 -376 74zM1109 88q88 27 155 88q84 76 131 201q53 145 53 352
q0 336 -174 545q-168 199 -426 199q-96 0 -178 -29q-94 -33 -162 -101q-77 -77 -118 -196q-45 -133 -45 -316q0 -329 168 -540q174 -223 460 -223q70 0 136 20zM947 1987l41 -31q28 -25 75 -58l127 -96q29 -20 29 -28q0 -11 -10 -21l-60 -59q-14 -15 -26 -15q-8 0 -31 23
q-24 27 -96 86q-64 51 -84 65q-14 13 -27 13q-10 0 -30 -11q-48 -26 -107 -67q-68 -47 -111 -84q-26 -25 -40 -25q-19 0 -19 21q0 8 19 31l133 127q47 45 86 79q41 39 51 48q26 24 43 24q6 0 37 -22zM1065 2129q8 -16 4 -24q-4 -6 -14 -6l-43 2q-13 0 -27 -2
q-78 -11 -189 -52q-96 -34 -161 -69l-13 -6q-6 -4 -10 -4q-10 -7 -12 -7q-12 0 -12 13q0 8 18 26q29 27 82 70l102 82q113 86 146 106q14 11 26 15q9 4 15 4q14 0 28 -25q23 -37 60 -123z" />
    <glyph glyph-name="uni1ED1" unicode="&#x1ed1;" horiz-adv-x="1583" 
d="M499 35q-135 57 -229 162q-86 94 -131 219q-41 116 -41 237q0 119 41 232q45 125 131 221q96 106 236 164q153 65 348 65q340 0 538 -176q199 -176 199 -475q0 -307 -203 -506q-211 -207 -553 -207q-188 0 -336 64zM1028 82q78 24 135 76q74 63 113 168q47 120 47 295
q0 282 -152 456q-147 166 -371 166q-81 0 -153 -22q-80 -29 -139 -84q-68 -66 -103 -164q-41 -113 -41 -266q0 -277 146 -455q149 -186 399 -186q61 0 119 16zM1054 1897q9 -16 5 -24q-5 -6 -15 -6l-43 2q-12 0 -26 -2q-78 -11 -189 -52q-96 -34 -162 -69l-12 -6
q-6 -4 -10 -4q-10 -7 -12 -7q-13 0 -13 13q0 8 19 26q28 27 82 70l102 82q113 86 145 106q15 11 27 15q8 4 14 4q15 0 29 -25q23 -37 59 -123zM895 1757l41 -31q28 -24 75 -57l127 -96q29 -21 29 -29q0 -10 -10 -20l-60 -60q-14 -14 -26 -14q-8 0 -31 23q-24 26 -96 86
q-64 51 -84 65q-14 12 -27 12q-10 0 -30 -10q-48 -27 -107 -67q-68 -48 -111 -84q-26 -25 -41 -25q-18 0 -18 20q0 9 18 31l134 127q47 45 86 80q41 39 51 47q26 25 43 25q6 0 37 -23z" />
    <glyph glyph-name="uni1ED2" unicode="&#x1ed2;" horiz-adv-x="1687" 
d="M511 39q-150 67 -256 192q-97 111 -146 258q-47 136 -47 279q0 139 45 272q51 148 148 260q108 125 262 195q172 76 391 76q381 0 604 -207t223 -559q0 -361 -229 -596q-236 -244 -619 -244q-211 0 -376 74zM1109 88q88 27 155 88q84 76 131 201q53 145 53 352
q0 336 -174 545q-168 199 -426 199q-96 0 -178 -29q-94 -33 -162 -101q-77 -77 -118 -196q-45 -133 -45 -316q0 -329 168 -540q174 -223 460 -223q70 0 136 20zM1242 1963q-7 -4 -15 -4q-10 0 -74 24l-133 56q-153 63 -209 90q-28 12 -49 26q-18 15 -18 25q0 12 26 18
q84 27 138 52q30 14 39 14q6 0 12 -12l20 -33q19 -25 86 -88q78 -76 142 -121l16 -10q0 -2 6 -4q4 -4 6 -4q15 -11 15 -19q0 -6 -8 -10zM947 1987l41 -31q28 -25 75 -58l127 -96q29 -20 29 -28q0 -11 -10 -21l-60 -59q-14 -15 -26 -15q-8 0 -31 23q-24 27 -96 86
q-64 51 -84 65q-14 13 -27 13q-10 0 -30 -11q-48 -26 -107 -67q-68 -47 -111 -84q-26 -25 -40 -25q-19 0 -19 21q0 8 19 31l133 127q47 45 86 79q41 39 51 48q26 24 43 24q6 0 37 -22z" />
    <glyph glyph-name="uni1ED3" unicode="&#x1ed3;" horiz-adv-x="1583" 
d="M499 35q-135 57 -229 162q-86 94 -131 219q-41 116 -41 237q0 119 41 232q45 125 131 221q96 106 236 164q153 65 348 65q340 0 538 -176q199 -176 199 -475q0 -307 -203 -506q-211 -207 -553 -207q-188 0 -336 64zM1028 82q78 24 135 76q74 63 113 168q47 120 47 295
q0 282 -152 456q-147 166 -371 166q-81 0 -153 -22q-80 -29 -139 -84q-68 -66 -103 -164q-41 -113 -41 -266q0 -277 146 -455q149 -186 399 -186q61 0 119 16zM1185 1733q-7 -4 -15 -4q-10 0 -73 24l-134 56q-153 63 -209 90q-28 12 -49 26q-18 15 -18 25q0 12 27 18
q83 27 137 52q30 14 39 14q6 0 12 -12l20 -33q19 -25 86 -88q78 -76 142 -121l16 -10q0 -2 6 -4q4 -4 6 -4q15 -11 15 -19q0 -6 -8 -10zM895 1757l41 -31q28 -24 75 -57l127 -96q29 -21 29 -29q0 -10 -10 -20l-60 -60q-14 -14 -26 -14q-8 0 -31 23q-24 26 -96 86
q-64 51 -84 65q-14 12 -27 12q-10 0 -30 -10q-48 -27 -107 -67q-68 -48 -111 -84q-26 -25 -41 -25q-18 0 -18 20q0 9 18 31l134 127q47 45 86 80q41 39 51 47q26 25 43 25q6 0 37 -23z" />
    <glyph glyph-name="uni1ED4" unicode="&#x1ed4;" horiz-adv-x="1687" 
d="M511 39q-150 67 -256 192q-97 111 -146 258q-47 136 -47 279q0 139 45 272q51 148 148 260q108 125 262 195q172 76 391 76q381 0 604 -207t223 -559q0 -361 -229 -596q-236 -244 -619 -244q-211 0 -376 74zM1109 88q88 27 155 88q84 76 131 201q53 145 53 352
q0 336 -174 545q-168 199 -426 199q-96 0 -178 -29q-94 -33 -162 -101q-77 -77 -118 -196q-45 -133 -45 -316q0 -329 168 -540q174 -223 460 -223q70 0 136 20zM1207 2353q37 -9 61 -25q42 -28 42 -67q0 -30 -15 -58q-12 -24 -38 -49q-18 -17 -52 -43l-56 -45
q-48 -40 -48 -60q0 -19 15 -34q8 -8 8 -13t-9 -5q-10 0 -48 21q-42 25 -42 43q0 16 19 35l62 54q83 82 56 134t-85 52q-61 0 -92.5 -24.5t-33.5 -28.5t-6 -4t-6 3l-3 6q-1 3 -2 13q-1 8 -1 20q-1 22 -1 47q0 3 2 5q2 3 8 6q26 11 64 18q47 9 104 9q55 0 97 -10zM947 1987
l41 -31q28 -25 75 -58l127 -96q29 -20 29 -28q0 -11 -10 -21l-60 -59q-14 -15 -26 -15q-8 0 -31 23q-24 27 -96 86q-64 51 -84 65q-14 13 -27 13q-10 0 -30 -11q-48 -26 -107 -67q-68 -47 -111 -84q-26 -25 -40 -25q-19 0 -19 21q0 8 19 31l133 127q47 45 86 79q41 39 51 48
q26 24 43 24q6 0 37 -22z" />
    <glyph glyph-name="uni1ED5" unicode="&#x1ed5;" horiz-adv-x="1583" 
d="M499 35q-135 57 -229 162q-86 94 -131 219q-41 116 -41 237q0 119 41 232q45 125 131 221q96 106 236 164q153 65 348 65q340 0 538 -176q199 -176 199 -475q0 -307 -203 -506q-211 -207 -553 -207q-188 0 -336 64zM1028 82q78 24 135 76q74 63 113 168q47 120 47 295
q0 282 -152 456q-147 166 -371 166q-81 0 -153 -22q-80 -29 -139 -84q-68 -66 -103 -164q-41 -113 -41 -266q0 -277 146 -455q149 -186 399 -186q61 0 119 16zM1153 2123q37 -9 61 -25q42 -28 42 -67q0 -30 -15 -58q-12 -24 -38 -49q-18 -17 -52 -43l-56 -45
q-48 -40 -48 -60q0 -19 15 -34q8 -8 8 -13t-9 -5q-10 0 -48 21q-42 25 -42 43q0 16 19 35l62 54q83 82 56 134t-85 52q-61 0 -92.5 -24.5t-33.5 -28.5t-6 -4t-6 3l-3 6q-1 3 -2 13q-1 8 -1 20q-1 22 -1 47q0 3 2 5q2 3 8 6q26 11 64 18q47 9 104 9q55 0 97 -10zM895 1757
l41 -31q28 -24 75 -57l127 -96q29 -21 29 -29q0 -10 -10 -20l-60 -60q-14 -14 -26 -14q-8 0 -31 23q-24 26 -96 86q-64 51 -84 65q-14 12 -27 12q-10 0 -30 -10q-48 -27 -107 -67q-68 -48 -111 -84q-26 -25 -41 -25q-18 0 -18 20q0 9 18 31l134 127q47 45 86 80q41 39 51 47
q26 25 43 25q6 0 37 -23z" />
    <glyph glyph-name="uni1ED6" unicode="&#x1ed6;" horiz-adv-x="1687" 
d="M511 39q-150 67 -256 192q-97 111 -146 258q-47 136 -47 279q0 139 45 272q51 148 148 260q108 125 262 195q172 76 391 76q381 0 604 -207t223 -559q0 -361 -229 -596q-236 -244 -619 -244q-211 0 -376 74zM1109 88q88 27 155 88q84 76 131 201q53 145 53 352
q0 336 -174 545q-168 199 -426 199q-96 0 -178 -29q-94 -33 -162 -101q-77 -77 -118 -196q-45 -133 -45 -316q0 -329 168 -540q174 -223 460 -223q70 0 136 20zM1105 2006q-18 6 -41 19l-94 49q-35 14 -72 14q-51 0 -94 -30q-14 -11 -27 -25q-6 -4 -10 -10l-4 -4
q-4 -2 -4 -4q-12 -13 -21 -17q-6 -4 -12 -4q-14 0 -14 14q0 7 6 21q4 12 10 18q6 11 15 21l18 24q22 29 49 54q68 59 131 59q47 0 92 -18l72 -39q80 -45 147 -45q48 0 89 26l24 21l12 14q21 27 33 27q17 0 17 -17q0 -6 -5 -16l-8 -19q-8 -16 -24 -38q-23 -29 -47 -52
q-68 -63 -129 -63q-56 0 -109 20zM947 1987l41 -31q28 -25 75 -58l127 -96q29 -20 29 -28q0 -11 -10 -21l-60 -59q-14 -15 -26 -15q-8 0 -31 23q-24 27 -96 86q-64 51 -84 65q-14 13 -27 13q-10 0 -30 -11q-48 -26 -107 -67q-68 -47 -111 -84q-26 -25 -40 -25q-19 0 -19 21
q0 8 19 31l133 127q47 45 86 79q41 39 51 48q26 24 43 24q6 0 37 -22z" />
    <glyph glyph-name="uni1ED7" unicode="&#x1ed7;" horiz-adv-x="1583" 
d="M499 35q-135 57 -229 162q-86 94 -131 219q-41 116 -41 237q0 119 41 232q45 125 131 221q96 106 236 164q153 65 348 65q340 0 538 -176q199 -176 199 -475q0 -307 -203 -506q-211 -207 -553 -207q-188 0 -336 64zM1028 82q78 24 135 76q74 63 113 168q47 120 47 295
q0 282 -152 456q-147 166 -371 166q-81 0 -153 -22q-80 -29 -139 -84q-68 -66 -103 -164q-41 -113 -41 -266q0 -277 146 -455q149 -186 399 -186q61 0 119 16zM1058 1775q-18 6 -41 19l-94 49q-35 14 -72 14q-51 0 -94 -30q-14 -11 -27 -25q-6 -4 -10 -10l-4 -4q-4 -2 -4 -4
q-12 -13 -21 -17q-6 -4 -12 -4q-14 0 -14 14q0 7 6 21q4 12 10 18q6 11 15 21l18 24q23 29 49 54q68 59 131 59q47 0 92 -18l72 -39q80 -45 148 -45q47 0 88 26l24 21l12 14q21 27 33 27q17 0 17 -17q0 -6 -4 -16l-9 -19q-8 -16 -24 -38q-23 -29 -47 -52q-68 -63 -129 -63
q-56 0 -109 20zM895 1757l41 -31q28 -24 75 -57l127 -96q29 -21 29 -29q0 -10 -10 -20l-60 -60q-14 -14 -26 -14q-8 0 -31 23q-24 26 -96 86q-64 51 -84 65q-14 12 -27 12q-10 0 -30 -10q-48 -27 -107 -67q-68 -48 -111 -84q-26 -25 -41 -25q-18 0 -18 20q0 9 18 31l134 127
q47 45 86 80q41 39 51 47q26 25 43 25q6 0 37 -23z" />
    <glyph glyph-name="uni1ED8" unicode="&#x1ed8;" horiz-adv-x="1687" 
d="M511 39q-150 67 -256 192q-97 111 -146 258q-47 136 -47 279q0 139 45 272q51 148 148 260q108 125 262 195q172 76 391 76q381 0 604 -207t223 -559q0 -361 -229 -596q-236 -244 -619 -244q-211 0 -376 74zM1109 88q88 27 155 88q84 76 131 201q53 145 53 352
q0 336 -174 545q-168 199 -426 199q-96 0 -178 -29q-94 -33 -162 -101q-77 -77 -118 -196q-45 -133 -45 -316q0 -329 168 -540q174 -223 460 -223q70 0 136 20zM947 1987l41 -31q28 -25 75 -58l127 -96q29 -20 29 -28q0 -11 -10 -21l-60 -59q-14 -15 -26 -15q-8 0 -31 23
q-24 27 -96 86q-64 51 -84 65q-14 13 -27 13q-10 0 -30 -11q-48 -26 -107 -67q-68 -47 -111 -84q-26 -25 -40 -25q-19 0 -19 21q0 8 19 31l133 127q47 45 86 79q41 39 51 48q26 24 43 24q6 0 37 -22zM795 -276q0 -44 30 -73.5t72 -29.5q44 0 75 29.5t31 73.5q0 42 -31.5 72
t-74.5 30q-40 0 -71 -30t-31 -72z" />
    <glyph glyph-name="uni1ED9" unicode="&#x1ed9;" horiz-adv-x="1583" 
d="M499 35q-135 57 -229 162q-86 94 -131 219q-41 116 -41 237q0 119 41 232q45 125 131 221q96 106 236 164q153 65 348 65q340 0 538 -176q199 -176 199 -475q0 -307 -203 -506q-211 -207 -553 -207q-188 0 -336 64zM1028 82q78 24 135 76q74 63 113 168q47 120 47 295
q0 282 -152 456q-147 166 -371 166q-81 0 -153 -22q-80 -29 -139 -84q-68 -66 -103 -164q-41 -113 -41 -266q0 -277 146 -455q149 -186 399 -186q61 0 119 16zM895 1757l41 -31q28 -24 75 -57l127 -96q29 -21 29 -29q0 -10 -10 -20l-60 -60q-14 -14 -26 -14q-8 0 -31 23
q-24 26 -96 86q-64 51 -84 65q-14 12 -27 12q-10 0 -30 -10q-48 -27 -107 -67q-68 -48 -111 -84q-26 -25 -41 -25q-18 0 -18 20q0 9 18 31l134 127q47 45 86 80q41 39 51 47q26 25 43 25q6 0 37 -23zM740 -276q0 -44 30 -73.5t72 -29.5q44 0 75 29.5t31 73.5q0 42 -31.5 72
t-74.5 30q-40 0 -71 -30t-31 -72z" />
    <glyph glyph-name="uni1EDA" unicode="&#x1eda;" horiz-adv-x="1687" 
d="M1238 1868q8 -17 4 -25q-4 -6 -15 -6l-43 2q-12 0 -26 -2q-78 -10 -189 -51q-96 -35 -162 -70l-12 -6q-6 -4 -10 -4q-10 -6 -12 -6q-13 0 -13 12q0 8 19 27q28 26 82 69l102 82q113 86 146 107q14 10 26 14q8 4 14 4q15 0 29 -24q23 -37 60 -123zM1109 88q88 27 155 88
q84 76 131 201q53 145 53 352q0 336 -174 545q-168 199 -426 199q-96 0 -178 -29q-94 -33 -162 -101q-77 -77 -118 -196q-45 -133 -45 -316q0 -329 168 -540q174 -223 460 -223q70 0 136 20zM1560 1315q175 -198 175 -510q0 -361 -229 -596q-236 -244 -619 -244
q-211 0 -376 74q-150 67 -256 192q-97 111 -146 258q-47 136 -47 279q0 139 45 272q51 148 148 260q108 125 262 195q172 76 391 76q381 0 604 -207q9 -8 17 -16q49 66 58 121q6 35 -1 65l-7 24l-31 51q-10 14 -9 22q8 44 58 75q51 31 92 25q16 -3 37 -52q28 -67 23 -95
q-5 -33 -36 -82q-30 -46 -72 -100q-44 -53 -81 -87z" />
    <glyph glyph-name="uni1EDB" unicode="&#x1edb;" horiz-adv-x="1583" 
d="M1185 1638q9 -16 5 -24q-5 -6 -15 -6l-43 2q-12 0 -26 -2q-78 -11 -189 -52q-96 -34 -162 -69l-12 -6q-6 -4 -10 -4q-10 -7 -12 -7q-13 0 -13 13q0 8 19 26q28 27 82 70l102 82q113 86 145 106q15 11 27 15q8 4 14 4q15 0 29 -25q23 -37 59 -123zM1028 82q78 24 135 76
q74 63 113 168q47 120 47 295q0 282 -152 456q-147 166 -371 166q-81 0 -153 -22q-80 -29 -139 -84q-68 -66 -103 -164q-41 -113 -41 -266q0 -277 146 -455q149 -186 399 -186q61 0 119 16zM1429 1123q162 -170 162 -439q0 -307 -203 -506q-211 -207 -553 -207
q-188 0 -336 64q-135 57 -229 162q-86 94 -131 219q-41 116 -41 237q0 119 41 232q45 125 131 221q96 106 236 164q153 65 348 65q340 0 538 -176q1 0 1 -1q34 52 41 97q6 35 -2 65l-6 24l-31 51q-10 14 -9 22q7 44 58 75t91 25q17 -3 38 -52q28 -67 23 -95q-5 -33 -36 -82
q-31 -46 -73 -100q-31 -37 -58 -65z" />
    <glyph glyph-name="uni1EDC" unicode="&#x1edc;" horiz-adv-x="1687" 
d="M1041 1704q-7 -4 -15 -4q-10 0 -73 24l-134 56q-153 63 -208 90q-29 12 -50 26q-18 15 -18 25q0 12 27 18q84 27 137 52q30 14 39 14q6 0 12 -12l20 -33q19 -25 86 -88q78 -76 142 -121l16 -10q0 -2 6 -4q4 -4 6 -4q15 -11 15 -19q0 -6 -8 -10zM1109 88q88 27 155 88
q84 76 131 201q53 145 53 352q0 336 -174 545q-168 199 -426 199q-96 0 -178 -29q-94 -33 -162 -101q-77 -77 -118 -196q-45 -133 -45 -316q0 -329 168 -540q174 -223 460 -223q70 0 136 20zM1560 1315q175 -198 175 -510q0 -361 -229 -596q-236 -244 -619 -244
q-211 0 -376 74q-150 67 -256 192q-97 111 -146 258q-47 136 -47 279q0 139 45 272q51 148 148 260q108 125 262 195q172 76 391 76q381 0 604 -207q9 -8 17 -16q49 66 58 121q6 35 -1 65l-7 24l-31 51q-10 14 -9 22q8 44 58 75q51 31 92 25q16 -3 37 -52q28 -67 23 -95
q-5 -33 -36 -82q-30 -46 -72 -100q-44 -53 -81 -87z" />
    <glyph glyph-name="uni1EDD" unicode="&#x1edd;" horiz-adv-x="1583" 
d="M989 1475q-6 -5 -14 -5q-11 0 -74 25l-133 55q-154 64 -209 90q-29 13 -49 27q-19 14 -19 25q0 12 27 18q84 27 137 51q31 15 39 15q6 0 12 -13l21 -32q18 -25 86 -89q78 -75 141 -120l16 -11q0 -2 7 -4q4 -4 6 -4q14 -10 14 -18q0 -6 -8 -10zM1028 82q78 24 135 76
q74 63 113 168q47 120 47 295q0 282 -152 456q-147 166 -371 166q-81 0 -153 -22q-80 -29 -139 -84q-68 -66 -103 -164q-41 -113 -41 -266q0 -277 146 -455q149 -186 399 -186q61 0 119 16zM1429 1123q162 -170 162 -439q0 -307 -203 -506q-211 -207 -553 -207
q-188 0 -336 64q-135 57 -229 162q-86 94 -131 219q-41 116 -41 237q0 119 41 232q45 125 131 221q96 106 236 164q153 65 348 65q340 0 538 -176q1 0 1 -1q34 52 41 97q6 35 -2 65l-6 24l-31 51q-10 14 -9 22q7 44 58 75t91 25q17 -3 38 -52q28 -67 23 -95q-5 -33 -36 -82
q-31 -46 -73 -100q-31 -37 -58 -65z" />
    <glyph glyph-name="uni1EDE" unicode="&#x1ede;" horiz-adv-x="1687" 
d="M985 2094q37 -9 61 -25q42 -28 42 -67q0 -30 -15 -58q-12 -24 -38 -49q-18 -17 -52 -43l-56 -45q-48 -40 -48 -60q0 -19 15 -34q8 -8 8 -13t-9 -5q-10 0 -48 21q-42 25 -42 43q0 16 19 35l62 54q83 82 56 134t-85 52q-61 0 -92.5 -24.5t-33.5 -28.5t-6 -4t-6 3l-3 6
q-1 3 -2 13q-1 8 -1 20q-1 22 -1 47q0 3 2 5q2 3 8 6q26 11 64 18q47 9 104 9q55 0 97 -10zM1109 88q88 27 155 88q84 76 131 201q53 145 53 352q0 336 -174 545q-168 199 -426 199q-96 0 -178 -29q-94 -33 -162 -101q-77 -77 -118 -196q-45 -133 -45 -316q0 -329 168 -540
q174 -223 460 -223q70 0 136 20zM1560 1315q175 -198 175 -510q0 -361 -229 -596q-236 -244 -619 -244q-211 0 -376 74q-150 67 -256 192q-97 111 -146 258q-47 136 -47 279q0 139 45 272q51 148 148 260q108 125 262 195q172 76 391 76q381 0 604 -207q9 -8 17 -16
q49 66 58 121q6 35 -1 65l-7 24l-31 51q-10 14 -9 22q8 44 58 75q51 31 92 25q16 -3 37 -52q28 -67 23 -95q-5 -33 -36 -82q-30 -46 -72 -100q-44 -53 -81 -87z" />
    <glyph glyph-name="uni1EDF" unicode="&#x1edf;" horiz-adv-x="1583" 
d="M930 1809q37 -9 61 -25q42 -28 42 -67q0 -30 -15 -58q-12 -24 -38 -49q-18 -17 -52 -43l-56 -45q-48 -40 -48 -60q0 -19 15 -34q8 -8 8 -13t-9 -5q-10 0 -48 21q-42 25 -42 43q0 16 19 35l62 54q83 82 56 134t-85 52q-61 0 -92.5 -24.5t-33.5 -28.5t-6 -4t-6 3l-3 6
q-1 3 -2 13q-1 8 -1 20q-1 22 -1 47q0 3 2 5q2 3 8 6q26 11 64 18q47 9 104 9q55 0 97 -10zM1028 82q78 24 135 76q74 63 113 168q47 120 47 295q0 282 -152 456q-147 166 -371 166q-81 0 -153 -22q-80 -29 -139 -84q-68 -66 -103 -164q-41 -113 -41 -266q0 -277 146 -455
q149 -186 399 -186q61 0 119 16zM1429 1123q162 -170 162 -439q0 -307 -203 -506q-211 -207 -553 -207q-188 0 -336 64q-135 57 -229 162q-86 94 -131 219q-41 116 -41 237q0 119 41 232q45 125 131 221q96 106 236 164q153 65 348 65q340 0 538 -176q1 0 1 -1q34 52 41 97
q6 35 -2 65l-6 24l-31 51q-10 14 -9 22q7 44 58 75t91 25q17 -3 38 -52q28 -67 23 -95q-5 -33 -36 -82q-31 -46 -73 -100q-31 -37 -58 -65z" />
    <glyph glyph-name="uni1EE0" unicode="&#x1ee0;" horiz-adv-x="1687" 
d="M934 1720q-18 6 -41 19l-94 49q-35 14 -71 14q-52 0 -95 -30q-14 -11 -26 -25q-6 -4 -10 -10l-5 -4q-4 -2 -4 -4q-12 -13 -20 -17q-6 -4 -12 -4q-15 0 -15 14q0 7 6 21q4 12 11 18q6 11 14 21q8 12 18 24q23 29 50 54q67 59 131 59q47 0 92 -18l71 -39q80 -45 148 -45
q47 0 88 26l25 21l12 14q20 27 33 27q16 0 16 -17q0 -6 -4 -16l-8 -19q-8 -16 -25 -38q-22 -29 -47 -52q-68 -63 -129 -63q-55 0 -109 20zM1109 88q88 27 155 88q84 76 131 201q53 145 53 352q0 336 -174 545q-168 199 -426 199q-96 0 -178 -29q-94 -33 -162 -101
q-77 -77 -118 -196q-45 -133 -45 -316q0 -329 168 -540q174 -223 460 -223q70 0 136 20zM1560 1315q175 -198 175 -510q0 -361 -229 -596q-236 -244 -619 -244q-211 0 -376 74q-150 67 -256 192q-97 111 -146 258q-47 136 -47 279q0 139 45 272q51 148 148 260
q108 125 262 195q172 76 391 76q381 0 604 -207q9 -8 17 -16q49 66 58 121q6 35 -1 65l-7 24l-31 51q-10 14 -9 22q8 44 58 75q51 31 92 25q16 -3 37 -52q28 -67 23 -95q-5 -33 -36 -82q-30 -46 -72 -100q-44 -53 -81 -87z" />
    <glyph glyph-name="uni1EE1" unicode="&#x1ee1;" horiz-adv-x="1583" 
d="M880 1491q-18 6 -41 18l-94 50q-35 14 -72 14q-51 0 -94 -31q-14 -10 -26 -24q-6 -5 -11 -11l-4 -4q-4 -2 -4 -4q-12 -12 -20 -16q-6 -4 -13 -4q-14 0 -14 14q0 6 6 20q4 13 11 19q6 10 14 20q8 13 18 25q23 29 49 53q68 60 131 60q48 0 93 -19l71 -39q80 -45 148 -45
q47 0 88 27l24 20l13 15q20 26 32 26q17 0 17 -16q0 -6 -4 -17l-8 -18q-9 -16 -25 -39q-23 -29 -47 -51q-68 -64 -129 -64q-55 0 -109 21zM1028 82q78 24 135 76q74 63 113 168q47 120 47 295q0 282 -152 456q-147 166 -371 166q-81 0 -153 -22q-80 -29 -139 -84
q-68 -66 -103 -164q-41 -113 -41 -266q0 -277 146 -455q149 -186 399 -186q61 0 119 16zM1429 1123q162 -170 162 -439q0 -307 -203 -506q-211 -207 -553 -207q-188 0 -336 64q-135 57 -229 162q-86 94 -131 219q-41 116 -41 237q0 119 41 232q45 125 131 221
q96 106 236 164q153 65 348 65q340 0 538 -176q1 0 1 -1q34 52 41 97q6 35 -2 65l-6 24l-31 51q-10 14 -9 22q7 44 58 75t91 25q17 -3 38 -52q28 -67 23 -95q-5 -33 -36 -82q-31 -46 -73 -100q-31 -37 -58 -65z" />
    <glyph glyph-name="uni1EE2" unicode="&#x1ee2;" horiz-adv-x="1687" 
d="M795 -276q0 -44 30 -73.5t72 -29.5q44 0 75 29.5t31 73.5q0 42 -31.5 72t-74.5 30q-40 0 -71 -30t-31 -72zM1109 88q88 27 155 88q84 76 131 201q53 145 53 352q0 336 -174 545q-168 199 -426 199q-96 0 -178 -29q-94 -33 -162 -101q-77 -77 -118 -196q-45 -133 -45 -316
q0 -329 168 -540q174 -223 460 -223q70 0 136 20zM1560 1315q175 -198 175 -510q0 -361 -229 -596q-236 -244 -619 -244q-211 0 -376 74q-150 67 -256 192q-97 111 -146 258q-47 136 -47 279q0 139 45 272q51 148 148 260q108 125 262 195q172 76 391 76q381 0 604 -207
q9 -8 17 -16q49 66 58 121q6 35 -1 65l-7 24l-31 51q-10 14 -9 22q8 44 58 75q51 31 92 25q16 -3 37 -52q28 -67 23 -95q-5 -33 -36 -82q-30 -46 -72 -100q-44 -53 -81 -87z" />
    <glyph glyph-name="uni1EE3" unicode="&#x1ee3;" horiz-adv-x="1583" 
d="M740 -276q0 -44 30 -73.5t72 -29.5q44 0 75 29.5t31 73.5q0 42 -31.5 72t-74.5 30q-40 0 -71 -30t-31 -72zM1028 82q78 24 135 76q74 63 113 168q47 120 47 295q0 282 -152 456q-147 166 -371 166q-81 0 -153 -22q-80 -29 -139 -84q-68 -66 -103 -164q-41 -113 -41 -266
q0 -277 146 -455q149 -186 399 -186q61 0 119 16zM1429 1123q162 -170 162 -439q0 -307 -203 -506q-211 -207 -553 -207q-188 0 -336 64q-135 57 -229 162q-86 94 -131 219q-41 116 -41 237q0 119 41 232q45 125 131 221q96 106 236 164q153 65 348 65q340 0 538 -176
q1 0 1 -1q34 52 41 97q6 35 -2 65l-6 24l-31 51q-10 14 -9 22q7 44 58 75t91 25q17 -3 38 -52q28 -67 23 -95q-5 -33 -36 -82q-31 -46 -73 -100q-31 -37 -58 -65z" />
    <glyph glyph-name="uni1EE4" unicode="&#x1ee4;" horiz-adv-x="1744" 
d="M247 1257l-4 125q-6 99 -88 117q-25 6 -80 6q-35 0 -35 19q0 18 45 18l348 -6q15 2 33 2l170 4q45 0 45 -18q0 -19 -33 -19q-22 0 -59 -6q-70 -12 -76 -117l-4 -125v-595q0 -211 43 -332q37 -107 117 -172q61 -52 137 -70q51 -14 119 -14q76 0 145 24q80 29 137 86
q76 76 103 217q10 60 14 140q2 55 2 151v565l-4 125q-6 99 -88 117q-25 6 -74 6q-35 0 -35 19q0 18 43 18q66 0 156 -2q16 -2 33 -2l82 -2q6 2 14 2l184 4q43 0 43 -18q0 -19 -36 -19q-23 0 -60 -6q-69 -12 -76 -117l-4 -125v-528q0 -98 -6 -172q-8 -92 -26 -166
q-46 -178 -162 -278q-101 -86 -217 -121q-92 -27 -209 -27h-45l-51 4q-62 4 -115 17q-146 32 -244 120q-86 78 -131 195q-51 139 -51 348v608zM787 -276q0 -44 30 -73.5t72 -29.5q44 0 75 29.5t31 73.5q0 42 -31.5 72t-74.5 30q-40 0 -71 -30t-31 -72z" />
    <glyph glyph-name="uni1EE5" unicode="&#x1ee5;" horiz-adv-x="1556" 
d="M216 807q0 342 -2 369q-4 73 -78 94l-30 4q-19 2 -39 2q-31 0 -31 18q0 17 39 17l315 -4l187 4q39 0 39 -17q0 -18 -29 -18q-19 0 -53 -6q-60 -10 -66 -94l-4 -107v-506q0 -180 35 -280q31 -86 102 -142q53 -43 121 -59q27 -6 55 -8q15 -2 27 -2h25q65 0 122 20
q70 23 119 72q68 63 90 180q9 49 13 115q2 47 2 129v219q0 176 -2 262l-2 107q-5 73 -76 94l-31 4q-18 2 -35 2q-30 0 -30 18q0 17 36 17l195 -4l231 4q37 0 37 -17q0 -18 -30 -18q-19 0 -54 -6q-59 -10 -65 -94l-2 -107q-2 -86 -2 -262v-186q0 -84 -6 -146q-7 -80 -23 -143
q-41 -152 -143 -236q-86 -71 -195 -102q-82 -23 -186 -23h-39q-25 0 -47 2q-58 4 -107 15q-133 26 -219 102q-78 68 -117 166q-47 119 -47 295v256zM740 -276q0 -44 30 -73.5t72 -29.5q44 0 75 29.5t31 73.5q0 42 -31.5 72t-74.5 30q-40 0 -71 -30t-31 -72z" />
    <glyph glyph-name="uni1EE6" unicode="&#x1ee6;" horiz-adv-x="1744" 
d="M247 1257l-4 125q-6 99 -88 117q-25 6 -80 6q-35 0 -35 19q0 18 45 18l348 -6q15 2 33 2l170 4q45 0 45 -18q0 -19 -33 -19q-22 0 -59 -6q-70 -12 -76 -117l-4 -125v-595q0 -211 43 -332q37 -107 117 -172q61 -52 137 -70q51 -14 119 -14q76 0 145 24q80 29 137 86
q76 76 103 217q10 60 14 140q2 55 2 151v565l-4 125q-6 99 -88 117q-25 6 -74 6q-35 0 -35 19q0 18 43 18q66 0 156 -2q16 -2 33 -2l82 -2q6 2 14 2l184 4q43 0 43 -18q0 -19 -36 -19q-23 0 -60 -6q-69 -12 -76 -117l-4 -125v-528q0 -98 -6 -172q-8 -92 -26 -166
q-46 -178 -162 -278q-101 -86 -217 -121q-92 -27 -209 -27h-45l-51 4q-62 4 -115 17q-146 32 -244 120q-86 78 -131 195q-51 139 -51 348v608zM1034 2094q37 -9 61 -25q42 -28 42 -67q0 -30 -15 -58q-12 -24 -38 -49q-18 -17 -52 -43l-56 -45q-48 -40 -48 -60q0 -19 15 -34
q8 -8 8 -13t-9 -5q-10 0 -48 21q-42 25 -42 43q0 16 19 35l62 54q83 82 56 134t-85 52q-61 0 -92.5 -24.5t-33.5 -28.5t-6 -4t-6 3l-3 6q-1 3 -2 13q-1 8 -1 20q-1 22 -1 47q0 3 2 5q2 3 8 6q26 11 64 18q47 9 104 9q55 0 97 -10z" />
    <glyph glyph-name="uni1EE7" unicode="&#x1ee7;" horiz-adv-x="1556" 
d="M216 807q0 342 -2 369q-4 73 -78 94l-30 4q-19 2 -39 2q-31 0 -31 18q0 17 39 17l315 -4l187 4q39 0 39 -17q0 -18 -29 -18q-19 0 -53 -6q-60 -10 -66 -94l-4 -107v-506q0 -180 35 -280q31 -86 102 -142q53 -43 121 -59q27 -6 55 -8q15 -2 27 -2h25q65 0 122 20
q70 23 119 72q68 63 90 180q9 49 13 115q2 47 2 129v219q0 176 -2 262l-2 107q-5 73 -76 94l-31 4q-18 2 -35 2q-30 0 -30 18q0 17 36 17l195 -4l231 4q37 0 37 -17q0 -18 -30 -18q-19 0 -54 -6q-59 -10 -65 -94l-2 -107q-2 -86 -2 -262v-186q0 -84 -6 -146q-7 -80 -23 -143
q-41 -152 -143 -236q-86 -71 -195 -102q-82 -23 -186 -23h-39q-25 0 -47 2q-58 4 -107 15q-133 26 -219 102q-78 68 -117 166q-47 119 -47 295v256zM930 1809q37 -9 61 -25q42 -28 42 -67q0 -30 -15 -58q-12 -24 -38 -49q-18 -17 -52 -43l-56 -45q-48 -40 -48 -60
q0 -19 15 -34q8 -8 8 -13t-9 -5q-10 0 -48 21q-42 25 -42 43q0 16 19 35l62 54q83 82 56 134t-85 52q-61 0 -92.5 -24.5t-33.5 -28.5t-6 -4t-6 3l-3 6q-1 3 -2 13q-1 8 -1 20q-1 22 -1 47q0 3 2 5q2 3 8 6q26 11 64 18q47 9 104 9q55 0 97 -10z" />
    <glyph glyph-name="uni1EE8" unicode="&#x1ee8;" horiz-adv-x="1744" 
d="M1250 1868q9 -17 4 -25q-4 -6 -14 -6l-43 2q-12 0 -27 -2q-77 -10 -188 -51q-96 -35 -162 -70l-12 -6q-6 -4 -10 -4q-11 -6 -13 -6q-12 0 -12 12q0 8 19 27q28 26 81 69l103 82q113 86 145 107q15 10 27 14q8 4 14 4q15 0 29 -24q22 -37 59 -123zM1504 1280l-1 -23v-528
q0 -98 -6 -172q-8 -92 -26 -166q-46 -178 -162 -278q-101 -86 -217 -121q-92 -27 -209 -27h-45l-51 4q-62 4 -115 17q-146 32 -244 120q-86 78 -131 195q-51 139 -51 348v608l-4 125q-6 99 -88 117q-25 6 -80 6q-35 0 -35 19q0 18 45 18l348 -6q15 2 33 2l170 4q45 0 45 -18
q0 -19 -33 -19q-22 0 -59 -6q-70 -12 -76 -117l-4 -125v-595q0 -211 43 -332q37 -107 117 -172q61 -52 137 -70q51 -14 119 -14q76 0 145 24q80 29 137 86q76 76 103 217q10 60 14 140q2 55 2 151v565l-4 125q-6 99 -88 117q-25 6 -74 6q-35 0 -35 19q0 18 43 18
q66 0 156 -2q16 -2 33 -2l82 -2q6 2 14 2l131 3l-5 17l-31 51q-10 14 -9 22q8 44 58 75q51 31 92 25q16 -3 37 -52q28 -67 23 -95q-5 -33 -36 -82q-30 -46 -72 -100q-57 -69 -103 -107l-19 -12q-8 -4 -14 -3zM1589 1500q-3 -1 -6 -1q-69 -12 -76 -117l-2 -62l1 1l5 5
q65 79 75 143q3 16 3 31z" />
    <glyph glyph-name="uni1EE9" unicode="&#x1ee9;" horiz-adv-x="1556" 
d="M1117 1638q8 -16 4 -24q-4 -6 -14 -6l-43 2q-12 0 -27 -2q-77 -11 -188 -52q-96 -34 -162 -69l-12 -6q-6 -4 -10 -4q-11 -7 -13 -7q-12 0 -12 13q0 8 18 26q29 27 82 70l103 82q112 86 145 106q15 11 27 15q8 4 14 4q14 0 29 -25q22 -37 59 -123zM1346 1067
q-2 -86 -2 -260v-186q0 -84 -6 -146q-7 -80 -23 -143q-41 -152 -143 -236q-86 -71 -195 -102q-82 -23 -186 -23h-39q-25 0 -47 2q-58 4 -107 15q-133 26 -219 102q-78 68 -117 166q-47 119 -47 295v256q0 342 -2 369q-4 73 -78 94l-30 4q-19 2 -39 2q-31 0 -31 18
q0 17 39 17l315 -4l187 4q39 0 39 -17q0 -18 -29 -18q-19 0 -53 -6q-60 -10 -66 -94l-4 -107v-506q0 -180 35 -280q31 -86 102 -142q53 -43 121 -59q27 -6 55 -8q15 -2 27 -2h25q65 0 122 20q70 23 119 72q68 63 90 180q9 49 13 115q2 47 2 129v219q0 176 -2 262l-2 107
q-5 73 -76 94l-31 4q-18 2 -35 2q-30 0 -30 18q0 17 36 17l195 -4l204 4q-1 4 -2 9l-7 24l-31 51q-10 14 -9 22q8 44 58 75q51 31 92 25q16 -3 37 -52q28 -67 23 -95q-5 -33 -36 -82q-30 -46 -72 -100q-57 -69 -103 -107l-19 -12q-9 -4 -15 -3q-2 0 -3 1zM1434 1273
q-9 -1 -21 -3q-59 -10 -65 -94l-1 -76q1 2 5 7l5 5q65 79 75 143q2 9 2 18z" />
    <glyph glyph-name="uni1EEA" unicode="&#x1eea;" horiz-adv-x="1744" 
d="M1023 1704q-6 -4 -14 -4q-11 0 -74 24l-133 56q-154 63 -209 90q-29 12 -49 26q-19 15 -19 25q0 12 27 18q84 27 137 52q31 14 39 14q6 0 12 -12l21 -33q18 -25 86 -88q78 -76 141 -121l17 -10q0 -2 6 -4q4 -4 6 -4q14 -11 14 -19q0 -6 -8 -10zM1504 1280l-1 -23v-528
q0 -98 -6 -172q-8 -92 -26 -166q-46 -178 -162 -278q-101 -86 -217 -121q-92 -27 -209 -27h-45l-51 4q-62 4 -115 17q-146 32 -244 120q-86 78 -131 195q-51 139 -51 348v608l-4 125q-6 99 -88 117q-25 6 -80 6q-35 0 -35 19q0 18 45 18l348 -6q15 2 33 2l170 4q45 0 45 -18
q0 -19 -33 -19q-22 0 -59 -6q-70 -12 -76 -117l-4 -125v-595q0 -211 43 -332q37 -107 117 -172q61 -52 137 -70q51 -14 119 -14q76 0 145 24q80 29 137 86q76 76 103 217q10 60 14 140q2 55 2 151v565l-4 125q-6 99 -88 117q-25 6 -74 6q-35 0 -35 19q0 18 43 18
q66 0 156 -2q16 -2 33 -2l82 -2q6 2 14 2l131 3l-5 17l-31 51q-10 14 -9 22q8 44 58 75q51 31 92 25q16 -3 37 -52q28 -67 23 -95q-5 -33 -36 -82q-30 -46 -72 -100q-57 -69 -103 -107l-19 -12q-8 -4 -14 -3zM1589 1500q-3 -1 -6 -1q-69 -12 -76 -117l-2 -62l1 1l5 5
q65 79 75 143q3 16 3 31z" />
    <glyph glyph-name="uni1EEB" unicode="&#x1eeb;" horiz-adv-x="1556" 
d="M921 1475q-7 -5 -15 -5q-10 0 -73 25l-134 55q-153 64 -208 90q-29 13 -50 27q-18 14 -18 25q0 12 27 18q84 27 137 51q30 15 39 15q6 0 12 -13l20 -32q19 -25 86 -89q78 -75 142 -120l16 -11q0 -2 6 -4q4 -4 6 -4q15 -10 15 -18q0 -6 -8 -10zM1346 1067q-2 -86 -2 -260
v-186q0 -84 -6 -146q-7 -80 -23 -143q-41 -152 -143 -236q-86 -71 -195 -102q-82 -23 -186 -23h-39q-25 0 -47 2q-58 4 -107 15q-133 26 -219 102q-78 68 -117 166q-47 119 -47 295v256q0 342 -2 369q-4 73 -78 94l-30 4q-19 2 -39 2q-31 0 -31 18q0 17 39 17l315 -4l187 4
q39 0 39 -17q0 -18 -29 -18q-19 0 -53 -6q-60 -10 -66 -94l-4 -107v-506q0 -180 35 -280q31 -86 102 -142q53 -43 121 -59q27 -6 55 -8q15 -2 27 -2h25q65 0 122 20q70 23 119 72q68 63 90 180q9 49 13 115q2 47 2 129v219q0 176 -2 262l-2 107q-5 73 -76 94l-31 4
q-18 2 -35 2q-30 0 -30 18q0 17 36 17l195 -4l204 4q-1 4 -2 9l-7 24l-31 51q-10 14 -9 22q8 44 58 75q51 31 92 25q16 -3 37 -52q28 -67 23 -95q-5 -33 -36 -82q-30 -46 -72 -100q-57 -69 -103 -107l-19 -12q-9 -4 -15 -3q-2 0 -3 1zM1434 1273q-9 -1 -21 -3
q-59 -10 -65 -94l-1 -76q1 2 5 7l5 5q65 79 75 143q2 9 2 18z" />
    <glyph glyph-name="uni1EEC" unicode="&#x1eec;" horiz-adv-x="1744" 
d="M1034 2094q37 -9 61 -25q42 -28 42 -67q0 -30 -15 -58q-12 -24 -38 -49q-18 -17 -52 -43l-56 -45q-48 -40 -48 -60q0 -19 15 -34q8 -8 8 -13t-9 -5q-10 0 -48 21q-42 25 -42 43q0 16 19 35l62 54q83 82 56 134t-85 52q-61 0 -92.5 -24.5t-33.5 -28.5t-6 -4t-6 3l-3 6
q-1 3 -2 13q-1 8 -1 20q-1 22 -1 47q0 3 2 5q2 3 8 6q26 11 64 18q47 9 104 9q55 0 97 -10zM1504 1280l-1 -23v-528q0 -98 -6 -172q-8 -92 -26 -166q-46 -178 -162 -278q-101 -86 -217 -121q-92 -27 -209 -27h-45l-51 4q-62 4 -115 17q-146 32 -244 120q-86 78 -131 195
q-51 139 -51 348v608l-4 125q-6 99 -88 117q-25 6 -80 6q-35 0 -35 19q0 18 45 18l348 -6q15 2 33 2l170 4q45 0 45 -18q0 -19 -33 -19q-22 0 -59 -6q-70 -12 -76 -117l-4 -125v-595q0 -211 43 -332q37 -107 117 -172q61 -52 137 -70q51 -14 119 -14q76 0 145 24
q80 29 137 86q76 76 103 217q10 60 14 140q2 55 2 151v565l-4 125q-6 99 -88 117q-25 6 -74 6q-35 0 -35 19q0 18 43 18q66 0 156 -2q16 -2 33 -2l82 -2q6 2 14 2l131 3l-5 17l-31 51q-10 14 -9 22q8 44 58 75q51 31 92 25q16 -3 37 -52q28 -67 23 -95q-5 -33 -36 -82
q-30 -46 -72 -100q-57 -69 -103 -107l-19 -12q-8 -4 -14 -3zM1589 1500q-3 -1 -6 -1q-69 -12 -76 -117l-2 -62l1 1l5 5q65 79 75 143q3 16 3 31z" />
    <glyph glyph-name="uni1EED" unicode="&#x1eed;" horiz-adv-x="1556" 
d="M929 1809q37 -9 61 -25q42 -28 42 -67q0 -30 -15 -58q-12 -24 -38 -49q-18 -17 -52 -43l-56 -45q-48 -40 -48 -60q0 -19 15 -34q8 -8 8 -13t-9 -5q-10 0 -48 21q-42 25 -42 43q0 16 19 35l62 54q83 82 56 134t-85 52q-61 0 -92.5 -24.5t-33.5 -28.5t-6 -4t-6 3l-3 6
q-1 3 -2 13q-1 8 -1 20q-1 22 -1 47q0 3 2 5q2 3 8 6q26 11 64 18q47 9 104 9q55 0 97 -10zM1346 1067q-2 -86 -2 -260v-186q0 -84 -6 -146q-7 -80 -23 -143q-41 -152 -143 -236q-86 -71 -195 -102q-82 -23 -186 -23h-39q-25 0 -47 2q-58 4 -107 15q-133 26 -219 102
q-78 68 -117 166q-47 119 -47 295v256q0 342 -2 369q-4 73 -78 94l-30 4q-19 2 -39 2q-31 0 -31 18q0 17 39 17l315 -4l187 4q39 0 39 -17q0 -18 -29 -18q-19 0 -53 -6q-60 -10 -66 -94l-4 -107v-506q0 -180 35 -280q31 -86 102 -142q53 -43 121 -59q27 -6 55 -8
q15 -2 27 -2h25q65 0 122 20q70 23 119 72q68 63 90 180q9 49 13 115q2 47 2 129v219q0 176 -2 262l-2 107q-5 73 -76 94l-31 4q-18 2 -35 2q-30 0 -30 18q0 17 36 17l195 -4l204 4q-1 4 -2 9l-7 24l-31 51q-10 14 -9 22q8 44 58 75q51 31 92 25q16 -3 37 -52q28 -67 23 -95
q-5 -33 -36 -82q-30 -46 -72 -100q-57 -69 -103 -107l-19 -12q-9 -4 -15 -3q-2 0 -3 1zM1434 1273q-9 -1 -21 -3q-59 -10 -65 -94l-1 -76q1 2 5 7l5 5q65 79 75 143q2 9 2 18z" />
    <glyph glyph-name="uni1EEE" unicode="&#x1eee;" horiz-adv-x="1744" 
d="M984 1720q-18 6 -41 19l-94 49q-35 14 -72 14q-51 0 -94 -30q-14 -11 -27 -25q-6 -4 -10 -10l-4 -4q-4 -2 -4 -4q-12 -13 -21 -17q-6 -4 -12 -4q-14 0 -14 14q0 7 6 21q4 12 10 18q6 11 15 21q8 12 18 24q23 29 49 54q68 59 131 59q47 0 92 -18l72 -39q80 -45 148 -45
q47 0 88 26l24 21l12 14q21 27 33 27q17 0 17 -17q0 -6 -4 -16l-9 -19q-8 -16 -24 -38q-23 -29 -47 -52q-68 -63 -129 -63q-56 0 -109 20zM1504 1280l-1 -23v-528q0 -98 -6 -172q-8 -92 -26 -166q-46 -178 -162 -278q-101 -86 -217 -121q-92 -27 -209 -27h-45l-51 4
q-62 4 -115 17q-146 32 -244 120q-86 78 -131 195q-51 139 -51 348v608l-4 125q-6 99 -88 117q-25 6 -80 6q-35 0 -35 19q0 18 45 18l348 -6q15 2 33 2l170 4q45 0 45 -18q0 -19 -33 -19q-22 0 -59 -6q-70 -12 -76 -117l-4 -125v-595q0 -211 43 -332q37 -107 117 -172
q61 -52 137 -70q51 -14 119 -14q76 0 145 24q80 29 137 86q76 76 103 217q10 60 14 140q2 55 2 151v565l-4 125q-6 99 -88 117q-25 6 -74 6q-35 0 -35 19q0 18 43 18q66 0 156 -2q16 -2 33 -2l82 -2q6 2 14 2l131 3l-5 17l-31 51q-10 14 -9 22q8 44 58 75q51 31 92 25
q16 -3 37 -52q28 -67 23 -95q-5 -33 -36 -82q-30 -46 -72 -100q-57 -69 -103 -107l-19 -12q-8 -4 -14 -3zM1589 1500q-3 -1 -6 -1q-69 -12 -76 -117l-2 -62l1 1l5 5q65 79 75 143q3 16 3 31z" />
    <glyph glyph-name="uni1EEF" unicode="&#x1eef;" horiz-adv-x="1556" 
d="M879 1491q-18 6 -41 18l-94 50q-35 14 -72 14q-51 0 -94 -31q-14 -10 -26 -24q-6 -5 -11 -11l-4 -4q-4 -2 -4 -4q-12 -12 -20 -16q-6 -4 -13 -4q-14 0 -14 14q0 6 6 20q4 13 11 19q6 10 14 20q8 13 18 25q23 29 49 53q68 60 131 60q48 0 93 -19l71 -39q80 -45 148 -45
q47 0 88 27l24 20l13 15q20 26 32 26q17 0 17 -16q0 -6 -4 -17l-8 -18q-9 -16 -25 -39q-23 -29 -47 -51q-68 -64 -129 -64q-55 0 -109 21zM1346 1067q-2 -86 -2 -260v-186q0 -84 -6 -146q-7 -80 -23 -143q-41 -152 -143 -236q-86 -71 -195 -102q-82 -23 -186 -23h-39
q-25 0 -47 2q-58 4 -107 15q-133 26 -219 102q-78 68 -117 166q-47 119 -47 295v256q0 342 -2 369q-4 73 -78 94l-30 4q-19 2 -39 2q-31 0 -31 18q0 17 39 17l315 -4l187 4q39 0 39 -17q0 -18 -29 -18q-19 0 -53 -6q-60 -10 -66 -94l-4 -107v-506q0 -180 35 -280
q31 -86 102 -142q53 -43 121 -59q27 -6 55 -8q15 -2 27 -2h25q65 0 122 20q70 23 119 72q68 63 90 180q9 49 13 115q2 47 2 129v219q0 176 -2 262l-2 107q-5 73 -76 94l-31 4q-18 2 -35 2q-30 0 -30 18q0 17 36 17l195 -4l204 4q-1 4 -2 9l-7 24l-31 51q-10 14 -9 22
q8 44 58 75q51 31 92 25q16 -3 37 -52q28 -67 23 -95q-5 -33 -36 -82q-30 -46 -72 -100q-57 -69 -103 -107l-19 -12q-9 -4 -15 -3q-2 0 -3 1zM1434 1273q-9 -1 -21 -3q-59 -10 -65 -94l-1 -76q1 2 5 7l5 5q65 79 75 143q2 9 2 18z" />
    <glyph glyph-name="uni1EF0" unicode="&#x1ef0;" horiz-adv-x="1744" 
d="M787 -276q0 -44 30 -73.5t72 -29.5q44 0 75 29.5t31 73.5q0 42 -31.5 72t-74.5 30q-40 0 -71 -30t-31 -72zM1504 1280l-1 -23v-528q0 -98 -6 -172q-8 -92 -26 -166q-46 -178 -162 -278q-101 -86 -217 -121q-92 -27 -209 -27h-45l-51 4q-62 4 -115 17q-146 32 -244 120
q-86 78 -131 195q-51 139 -51 348v608l-4 125q-6 99 -88 117q-25 6 -80 6q-35 0 -35 19q0 18 45 18l348 -6q15 2 33 2l170 4q45 0 45 -18q0 -19 -33 -19q-22 0 -59 -6q-70 -12 -76 -117l-4 -125v-595q0 -211 43 -332q37 -107 117 -172q61 -52 137 -70q51 -14 119 -14
q76 0 145 24q80 29 137 86q76 76 103 217q10 60 14 140q2 55 2 151v565l-4 125q-6 99 -88 117q-25 6 -74 6q-35 0 -35 19q0 18 43 18q66 0 156 -2q16 -2 33 -2l82 -2q6 2 14 2l131 3l-5 17l-31 51q-10 14 -9 22q8 44 58 75q51 31 92 25q16 -3 37 -52q28 -67 23 -95
q-5 -33 -36 -82q-30 -46 -72 -100q-57 -69 -103 -107l-19 -12q-8 -4 -14 -3zM1589 1500q-3 -1 -6 -1q-69 -12 -76 -117l-2 -62l1 1l5 5q65 79 75 143q3 16 3 31z" />
    <glyph glyph-name="uni1EF1" unicode="&#x1ef1;" horiz-adv-x="1556" 
d="M739 -276q0 -44 30 -73.5t72 -29.5q44 0 75 29.5t31 73.5q0 42 -31.5 72t-74.5 30q-40 0 -71 -30t-31 -72zM1346 1067q-2 -86 -2 -260v-186q0 -84 -6 -146q-7 -80 -23 -143q-41 -152 -143 -236q-86 -71 -195 -102q-82 -23 -186 -23h-39q-25 0 -47 2q-58 4 -107 15
q-133 26 -219 102q-78 68 -117 166q-47 119 -47 295v256q0 342 -2 369q-4 73 -78 94l-30 4q-19 2 -39 2q-31 0 -31 18q0 17 39 17l315 -4l187 4q39 0 39 -17q0 -18 -29 -18q-19 0 -53 -6q-60 -10 -66 -94l-4 -107v-506q0 -180 35 -280q31 -86 102 -142q53 -43 121 -59
q27 -6 55 -8q15 -2 27 -2h25q65 0 122 20q70 23 119 72q68 63 90 180q9 49 13 115q2 47 2 129v219q0 176 -2 262l-2 107q-5 73 -76 94l-31 4q-18 2 -35 2q-30 0 -30 18q0 17 36 17l195 -4l204 4q-1 4 -2 9l-7 24l-31 51q-10 14 -9 22q8 44 58 75q51 31 92 25q16 -3 37 -52
q28 -67 23 -95q-5 -33 -36 -82q-30 -46 -72 -100q-57 -69 -103 -107l-19 -12q-9 -4 -15 -3q-2 0 -3 1zM1434 1273q-9 -1 -21 -3q-59 -10 -65 -94l-1 -76q1 2 5 7l5 5q65 79 75 143q2 9 2 18z" />
    <glyph glyph-name="Ygrave" unicode="&#x1ef2;" horiz-adv-x="1478" 
d="M566 524q0 74 -15 127q-4 21 -14 45l-19 43l-157 269l-203 321q-76 111 -141 150q-49 26 -86 26q-31 0 -31 19q0 18 39 18l297 -6q10 2 24 2h15q8 0 14 2q76 2 127 2q31 0 31 -18q0 -11 -45 -23q-29 -6 -29 -37q0 -20 25 -69l172 -308l176 -305l307 564q29 63 29 106
q0 41 -43 51l-25 8q-12 5 -12 13q0 18 35 18l100 -2q0 -2 2 -2l137 -2l66 4l106 2q37 0 37 -16q0 -21 -39 -21q-43 0 -90 -24q-47 -23 -110 -101q-25 -28 -84 -125q-56 -84 -123 -198q-68 -111 -117 -201q-53 -94 -68 -127q-20 -49 -26 -104q-4 -33 -4 -101v-250
q2 -67 6 -122q6 -103 84 -113q57 -8 102 -8q33 0 33 -17q0 -20 -43 -20l-242 4q-10 0 -18 2l-309 -6q-45 0 -45 20q0 17 32 17q35 0 72 8q57 12 63 113q5 55 7 122v250zM870 1704q-6 -4 -14 -4q-11 0 -74 24l-133 56q-154 63 -209 90q-29 12 -49 26q-19 15 -19 25
q0 12 27 18q84 27 137 52q31 14 39 14q6 0 12 -12l21 -33q18 -25 86 -88q78 -76 141 -121l17 -10q0 -2 6 -4q4 -4 6 -4q14 -11 14 -19q0 -6 -8 -10z" />
    <glyph glyph-name="ygrave" unicode="&#x1ef3;" horiz-adv-x="1324" 
d="M490 446q0 64 -11 107q-8 29 -30 76q-4 10 -47 76q-37 61 -95 151l-180 274q-69 99 -117 123q-41 23 -75 23q-27 0 -27 18q0 17 35 17l262 -4l168 4q27 0 27 -17q0 -10 -11 -14l-30 -8q-25 -6 -25 -27q0 -20 23 -59l278 -475q14 -27 21 -35l133 229q53 94 86 148l30 57
q15 23 19 33q26 55 26 92q0 31 -38 39l-23 6q-10 4 -10 14q0 17 30 17l136 -4l233 4q33 0 33 -15q0 -20 -35 -20q-33 0 -78 -21q-43 -20 -94 -81q-20 -25 -76 -107q-49 -74 -108 -170q-62 -96 -107 -172q-47 -82 -59 -109q-17 -41 -21 -90q-2 -16 -2 -41v-252l4 -104
q7 -82 74 -92q41 -6 90 -6q31 0 31 -19q0 -18 -39 -18l-328 6q-12 -2 -30 -2l-158 -4q-39 0 -39 18q0 19 29 19q39 0 63 6q49 10 55 92q5 47 7 104v213zM768 1475q-7 -5 -15 -5q-10 0 -73 25l-134 55q-153 64 -208 90q-29 13 -50 27q-18 14 -18 25q0 12 27 18q84 27 137 51
q30 15 39 15q6 0 12 -13l20 -32q19 -25 86 -89q78 -75 142 -120l16 -11q0 -2 6 -4q4 -4 6 -4q15 -10 15 -18q0 -6 -8 -10z" />
    <glyph glyph-name="uni1EF4" unicode="&#x1ef4;" horiz-adv-x="1478" 
d="M566 524q0 74 -15 127q-4 21 -14 45l-19 43l-157 269l-203 321q-76 111 -141 150q-49 26 -86 26q-31 0 -31 19q0 18 39 18l297 -6q10 2 24 2h15q8 0 14 2q76 2 127 2q31 0 31 -18q0 -11 -45 -23q-29 -6 -29 -37q0 -20 25 -69l172 -308l176 -305l307 564q29 63 29 106
q0 41 -43 51l-25 8q-12 5 -12 13q0 18 35 18l100 -2q0 -2 2 -2l137 -2l66 4l106 2q37 0 37 -16q0 -21 -39 -21q-43 0 -90 -24q-47 -23 -110 -101q-25 -28 -84 -125q-56 -84 -123 -198q-68 -111 -117 -201q-53 -94 -68 -127q-20 -49 -26 -104q-4 -33 -4 -101v-250
q2 -67 6 -122q6 -103 84 -113q57 -8 102 -8q33 0 33 -17q0 -20 -43 -20l-242 4q-10 0 -18 2l-309 -6q-45 0 -45 20q0 17 32 17q35 0 72 8q57 12 63 113q5 55 7 122v250zM586 -276q0 -44 30 -73.5t72 -29.5q44 0 75 29.5t31 73.5q0 42 -31.5 72t-74.5 30q-40 0 -71 -30
t-31 -72z" />
    <glyph glyph-name="uni1EF5" unicode="&#x1ef5;" horiz-adv-x="1208" 
d="M490 446q0 64 -11 107q-8 29 -30 76q-4 10 -47 76q-37 61 -95 151l-180 274q-69 99 -117 123q-41 23 -75 23q-27 0 -27 18q0 17 35 17l262 -4l168 4q27 0 27 -17q0 -10 -11 -14l-30 -8q-25 -6 -25 -27q0 -20 23 -59l278 -475q14 -27 21 -35l133 229q53 94 86 148l30 57
q15 23 19 33q26 55 26 92q0 31 -38 39l-23 6q-10 4 -10 14q0 17 30 17l136 -4l233 4q33 0 33 -15q0 -20 -35 -20q-33 0 -78 -21q-43 -20 -94 -81q-20 -25 -76 -107q-49 -74 -108 -170q-62 -96 -107 -172q-47 -82 -59 -109q-17 -41 -21 -90q-2 -16 -2 -41v-252l4 -104
q7 -82 74 -92q41 -6 90 -6q31 0 31 -19q0 -18 -39 -18l-328 6q-12 -2 -30 -2l-158 -4q-39 0 -39 18q0 19 29 19q39 0 63 6q49 10 55 92q5 47 7 104v213zM498 -276q0 -44 30 -73.5t72 -29.5q45 0 75.5 29.5t30.5 73.5q0 42 -31.5 72t-74.5 30q-40 0 -71 -30t-31 -72z" />
    <glyph glyph-name="uni1EF6" unicode="&#x1ef6;" horiz-adv-x="1478" 
d="M566 524q0 74 -15 127q-4 21 -14 45l-19 43l-157 269l-203 321q-76 111 -141 150q-49 26 -86 26q-31 0 -31 19q0 18 39 18l297 -6q10 2 24 2h15q8 0 14 2q76 2 127 2q31 0 31 -18q0 -11 -45 -23q-29 -6 -29 -37q0 -20 25 -69l172 -308l176 -305l307 564q29 63 29 106
q0 41 -43 51l-25 8q-12 5 -12 13q0 18 35 18l100 -2q0 -2 2 -2l137 -2l66 4l106 2q37 0 37 -16q0 -21 -39 -21q-43 0 -90 -24q-47 -23 -110 -101q-25 -28 -84 -125q-56 -84 -123 -198q-68 -111 -117 -201q-53 -94 -68 -127q-20 -49 -26 -104q-4 -33 -4 -101v-250
q2 -67 6 -122q6 -103 84 -113q57 -8 102 -8q33 0 33 -17q0 -20 -43 -20l-242 4q-10 0 -18 2l-309 -6q-45 0 -45 20q0 17 32 17q35 0 72 8q57 12 63 113q5 55 7 122v250zM900 2094q37 -9 61 -25q42 -28 42 -67q0 -30 -15 -58q-12 -24 -38 -49q-18 -17 -52 -43l-56 -45
q-48 -40 -48 -60q0 -19 15 -34q8 -8 8 -13t-9 -5q-10 0 -48 21q-42 25 -42 43q0 16 19 35l62 54q83 82 56 134t-85 52q-61 0 -92.5 -24.5t-33.5 -28.5t-6 -4t-6 3l-3 6q-1 3 -2 13q-1 8 -1 20q-1 22 -1 47q0 3 2 5q2 3 8 6q26 11 64 18q47 9 104 9q55 0 97 -10z" />
    <glyph glyph-name="uni1EF7" unicode="&#x1ef7;" horiz-adv-x="1324" 
d="M490 446q0 64 -11 107q-8 29 -30 76q-4 10 -47 76q-37 61 -95 151l-180 274q-69 99 -117 123q-41 23 -75 23q-27 0 -27 18q0 17 35 17l262 -4l168 4q27 0 27 -17q0 -10 -11 -14l-30 -8q-25 -6 -25 -27q0 -20 23 -59l278 -475q14 -27 21 -35l133 229q53 94 86 148l30 57
q15 23 19 33q26 55 26 92q0 31 -38 39l-23 6q-10 4 -10 14q0 17 30 17l136 -4l233 4q33 0 33 -15q0 -20 -35 -20q-33 0 -78 -21q-43 -20 -94 -81q-20 -25 -76 -107q-49 -74 -108 -170q-62 -96 -107 -172q-47 -82 -59 -109q-17 -41 -21 -90q-2 -16 -2 -41v-252l4 -104
q7 -82 74 -92q41 -6 90 -6q31 0 31 -19q0 -18 -39 -18l-328 6q-12 -2 -30 -2l-158 -4q-39 0 -39 18q0 19 29 19q39 0 63 6q49 10 55 92q5 47 7 104v213zM786 1847q37 -9 61 -25q42 -28 42 -67q0 -30 -15 -58q-12 -24 -38 -49q-18 -17 -52 -43l-56 -45q-48 -40 -48 -60
q0 -19 15 -34q8 -8 8 -13t-9 -5q-10 0 -48 21q-42 25 -42 43q0 16 19 35l62 54q83 82 56 134t-85 52q-61 0 -92.5 -24.5t-33.5 -28.5t-6 -4t-6 3l-3 6q-1 3 -2 13q-1 8 -1 20q-1 22 -1 47q0 3 2 5q2 3 8 6q26 11 64 18q47 9 104 9q55 0 97 -10z" />
    <glyph glyph-name="uni1EF8" unicode="&#x1ef8;" horiz-adv-x="1478" 
d="M566 524q0 74 -15 127q-4 21 -14 45l-19 43l-157 269l-203 321q-76 111 -141 150q-49 26 -86 26q-31 0 -31 19q0 18 39 18l297 -6q10 2 24 2h15q8 0 14 2q76 2 127 2q31 0 31 -18q0 -11 -45 -23q-29 -6 -29 -37q0 -20 25 -69l172 -308l176 -305l307 564q29 63 29 106
q0 41 -43 51l-25 8q-12 5 -12 13q0 18 35 18l100 -2q0 -2 2 -2l137 -2l66 4l106 2q37 0 37 -16q0 -21 -39 -21q-43 0 -90 -24q-47 -23 -110 -101q-25 -28 -84 -125q-56 -84 -123 -198q-68 -111 -117 -201q-53 -94 -68 -127q-20 -49 -26 -104q-4 -33 -4 -101v-250
q2 -67 6 -122q6 -103 84 -113q57 -8 102 -8q33 0 33 -17q0 -20 -43 -20l-242 4q-10 0 -18 2l-309 -6q-45 0 -45 20q0 17 32 17q35 0 72 8q57 12 63 113q5 55 7 122v250zM812 1720q-18 6 -41 19l-94 49q-35 14 -72 14q-51 0 -94 -30q-14 -11 -27 -25q-6 -4 -10 -10l-4 -4
q-4 -2 -4 -4q-12 -13 -20 -17q-7 -4 -13 -4q-14 0 -14 14q0 7 6 21q4 12 10 18q6 11 15 21q8 12 18 24q23 29 49 54q68 59 131 59q47 0 92 -18l72 -39q80 -45 148 -45q47 0 88 26l24 21l13 14q20 27 32 27q17 0 17 -17q0 -6 -4 -16l-9 -19q-8 -16 -24 -38q-23 -29 -47 -52
q-68 -63 -129 -63q-56 0 -109 20z" />
    <glyph glyph-name="uni1EF9" unicode="&#x1ef9;" horiz-adv-x="1324" 
d="M490 446q0 64 -11 107q-8 29 -30 76q-4 10 -47 76q-37 61 -95 151l-180 274q-69 99 -117 123q-41 23 -75 23q-27 0 -27 18q0 17 35 17l262 -4l168 4q27 0 27 -17q0 -10 -11 -14l-30 -8q-25 -6 -25 -27q0 -20 23 -59l278 -475q14 -27 21 -35l133 229q53 94 86 148l30 57
q15 23 19 33q26 55 26 92q0 31 -38 39l-23 6q-10 4 -10 14q0 17 30 17l136 -4l233 4q33 0 33 -15q0 -20 -35 -20q-33 0 -78 -21q-43 -20 -94 -81q-20 -25 -76 -107q-49 -74 -108 -170q-62 -96 -107 -172q-47 -82 -59 -109q-17 -41 -21 -90q-2 -16 -2 -41v-252l4 -104
q7 -82 74 -92q41 -6 90 -6q31 0 31 -19q0 -18 -39 -18l-328 6q-12 -2 -30 -2l-158 -4q-39 0 -39 18q0 19 29 19q39 0 63 6q49 10 55 92q5 47 7 104v213zM727 1491q-18 6 -41 18l-94 50q-35 14 -72 14q-51 0 -94 -31q-14 -10 -26 -24q-6 -5 -11 -11l-4 -4q-4 -2 -4 -4
q-12 -12 -20 -16q-6 -4 -13 -4q-14 0 -14 14q0 6 6 20q4 13 11 19q6 10 14 20q8 13 18 25q23 29 49 53q68 60 131 60q48 0 93 -19l71 -39q80 -45 148 -45q47 0 88 27l24 20l13 15q20 26 32 26q17 0 17 -16q0 -6 -4 -17l-8 -18q-9 -16 -25 -39q-23 -29 -47 -51
q-68 -64 -129 -64q-55 0 -109 21z" />
    <glyph glyph-name="quoteleft" unicode="&#x2018;" horiz-adv-x="517" 
d="M276 1241q14 -37 30 -51q15 -14 19 -23q4 -6 4 -14q0 -4 -8 -10q-9 -4 -15 -4q-24 0 -84 14l-22 6q-13 2 -23 6l-20 6q-13 5 -17 5q-59 18 -59 57q0 86 76 227q69 127 145 203q15 16 31 16q12 0 12 -10q0 -8 -10 -27q-33 -65 -51 -137q-27 -92 -27 -176q0 -45 19 -88z
" />
    <glyph glyph-name="quoteright" unicode="&#x2019;" horiz-adv-x="479" 
d="M202 1577q-15 37 -31 51q-14 14 -19 23q-4 6 -4 14q0 4 9 10q8 4 14 4q24 0 84 -14l22 -6q13 -2 23 -6l20 -6q13 -5 17 -5q59 -18 59 -57q0 -86 -76 -227q-67 -129 -143 -205q-16 -14 -33 -14q-12 0 -12 10q0 8 10 27q78 129 78 313q0 45 -18 88z" />
    <glyph glyph-name="quotedblleft" unicode="&#x201c;" horiz-adv-x="737" 
d="M583 1241q14 -37 30 -51q15 -14 19 -23q4 -6 4 -14q0 -4 -8 -10q-8 -4 -15 -4q-24 0 -83 14l-23 6q-12 2 -23 6l-20 6q-12 5 -16 5q-60 18 -60 57q0 86 76 227q70 127 145 203q15 16 31 16q14 0 14 -10q0 -4 -12 -27q-33 -65 -51 -137q-27 -92 -27 -176q0 -45 19 -88z
M276 1241q14 -37 30 -51q15 -14 19 -23q4 -6 4 -14q0 -4 -8 -10q-9 -4 -15 -4q-24 0 -84 14l-22 6q-13 2 -23 6l-20 6q-13 5 -17 5q-59 18 -59 57q0 86 76 227q69 127 145 203q15 16 31 16q12 0 12 -10q0 -8 -10 -27q-33 -65 -51 -137q-27 -92 -27 -176q0 -45 19 -88z" />
    <glyph glyph-name="quotedblright" unicode="&#x201d;" horiz-adv-x="737" 
d="M271 1358q-69 -127 -145 -205q-16 -14 -33 -14q-12 0 -12 10q0 6 12 27q78 129 78 313q0 45 -18 88q-15 37 -31 51q-14 14 -18 23q-5 6 -5 14q0 4 9 10q8 4 14 4q25 0 84 -14l22 -6q13 -2 23 -6l20 -6q13 -5 17 -5q59 -18 59 -57q0 -86 -76 -227zM460 1577q-14 37 -31 51
q-14 14 -18 23q-4 6 -4 14q0 4 8 10q8 4 14 4q25 0 84 -14l23 -6q12 -2 22 -6l21 -6q12 -5 16 -5q59 -18 59 -57q0 -86 -75 -227q-68 -129 -144 -205q-16 -14 -32 -14q-13 0 -13 10q0 8 10 27q78 129 78 313q0 45 -18 88z" />
    <glyph glyph-name="ellipsis" unicode="&#x2026;" horiz-adv-x="1273" 
d="M131 125q0 45 29 82q37 43 96 43q125 0 125 -119q0 -131 -127 -131q-123 0 -123 125zM536 125q0 45 29 82q37 43 96 43q125 0 125 -119q0 -131 -127 -131q-123 0 -123 125zM898 124q0 45 29 82q37 43 96 43q125 0 125 -119q0 -131 -127 -131q-123 0 -123 125z" />
    <glyph glyph-name="ugrave" horiz-adv-x="582" 
 />
    <glyph glyph-name="uacute" horiz-adv-x="580" 
 />
    <glyph glyph-name="yacute" horiz-adv-x="629" 
 />
  </font>
</defs>
</svg>
