<svg xmlns="http://www.w3.org/2000/svg">
<defs>
<font id="UTMTimesBold" horiz-adv-x="1024" >
  <font-face 
    font-family="UTM Times"
    font-weight="700"
    font-stretch="normal"
    units-per-em="2048"
    panose-1="2 4 6 3 5 5 6 2 2 4"
    ascent="1638"
    descent="-410"
    x-height="944"
    cap-height="1384"
    bbox="-116 -448 4942 2239"
    underline-thickness="109"
    underline-position="-143"
    unicode-range="U+0020-2026"
  />
<missing-glyph horiz-adv-x="5040" 
d="M3351 2045h10q37 -10 37 -52q0 -12 -32 -57h-28q0 24 28 54l2 10q-5 13 -10 15h-9q-8 0 -10 -19h-30q6 49 42 49zM2019 2016l29 -31q0 -16 -40 -30h-19l-59 12l-11 -12l-28 25q11 29 43 29h11l42 -11h2q10 0 30 18zM468 1980h142v-60h-94v-75h89v-59h-89v-129l-5 -5h-49
v323zM1155 1980h43l6 -5v-78h30v-52h-30v-188l-6 -5h-49v193h-25v52h25v78zM1621 1980h42l4 -5v-94h3q23 24 54 24h2q58 0 83 -71l2 -39v-143h-52v115q0 80 -42 80h-7q-43 0 -43 -86v-109h-51v323zM2200 1980h49l5 -5v-222q10 -51 45 -51q44 7 44 59v214l5 5h49v-216
q0 -85 -66 -112q-15 -8 -35 -8q-47 0 -82 55q-14 24 -14 57v224zM2435 1980h159v-60h-56v-268h-53v268h-55v55zM2621 1980h71q7 -4 83 -251h2l80 251h73v-328h-54v242h-2l-74 -242h-44q-4 0 -58 182l-19 60h-3v-242h-55v328zM3760 1980h52v-328h-45l-5 5v11l3 2l-3 14
q-29 -40 -78 -40q-67 0 -100 91l-5 39v3q0 94 92 125l23 3q35 0 63 -32h3v107zM2057 1928h36l4 -6v-49h-45v-221h-48v23q-23 -31 -59 -31q-89 14 -89 97v156h51v-104q0 -79 26 -86l18 -5h6q26 0 39 36l3 26v133h53v25zM3476 1928v-55h-31v-221h-47v25h-2q-15 -33 -57 -33
q-68 0 -86 78l-3 29v146h52v-120q0 -50 19 -68l21 -7h9q42 0 42 69v126h27q4 0 4 28l3 3h49zM758 1905q68 0 103 -77q9 -18 12 -54q0 -88 -90 -127l-32 -3q-63 0 -101 73q-12 22 -12 52v10q0 94 101 126h19zM1011 1905h3q74 0 83 -101v-152h-51v119q0 76 -42 76h-5
q-44 0 -44 -76v-119h-52v245h46v-21q30 29 62 29zM1466 1905h7q72 0 105 -89h-60q-16 31 -42 31h-17q-53 -14 -53 -61l-3 -15q12 -69 61 -69h9q22 0 47 27h40l2 3h3l2 -3l2 3l3 -3l2 3l2 -7q-33 -81 -110 -81q-76 0 -110 94l-4 36v3q0 85 77 120q15 8 37 8zM3141 1905h2

<glyph glyph-name=".notdef" horiz-adv-x="5040" 
d="M3351 2045h10q37 -10 37 -52q0 -12 -32 -57h-28q0 24 28 54l2 10q-5 13 -10 15h-9q-8 0 -10 -19h-30q6 49 42 49zM2019 2016l29 -31q0 -16 -40 -30h-19l-59 12l-11 -12l-28 25q11 29 43 29h11l42 -11h2q10 0 30 18zM468 1980h142v-60h-94v-75h89v-59h-89v-129l-5 -5h-49
v323zM1155 1980h43l6 -5v-78h30v-52h-30v-188l-6 -5h-49v193h-25v52h25v78zM1621 1980h42l4 -5v-94h3q23 24 54 24h2q58 0 83 -71l2 -39v-143h-52v115q0 80 -42 80h-7q-43 0 -43 -86v-109h-51v323zM2200 1980h49l5 -5v-222q10 -51 45 -51q44 7 44 59v214l5 5h49v-216
q0 -85 -66 -112q-15 -8 -35 -8q-47 0 -82 55q-14 24 -14 57v224zM2435 1980h159v-60h-56v-268h-53v268h-55v55zM2621 1980h71q7 -4 83 -251h2l80 251h73v-328h-54v242h-2l-74 -242h-44q-4 0 -58 182l-19 60h-3v-242h-55v328zM3760 1980h52v-328h-45l-5 5v11l3 2l-3 14
q-29 -40 -78 -40q-67 0 -100 91l-5 39v3q0 94 92 125l23 3q35 0 63 -32h3v107zM2057 1928h36l4 -6v-49h-45v-221h-48v23q-23 -31 -59 -31q-89 14 -89 97v156h51v-104q0 -79 26 -86l18 -5h6q26 0 39 36l3 26v133h53v25zM3476 1928v-55h-31v-221h-47v25h-2q-15 -33 -57 -33
q-68 0 -86 78l-3 29v146h52v-120q0 -50 19 -68l21 -7h9q42 0 42 69v126h27q4 0 4 28l3 3h49zM758 1905q68 0 103 -77q9 -18 12 -54q0 -88 -90 -127l-32 -3q-63 0 -101 73q-12 22 -12 52v10q0 94 101 126h19zM1011 1905h3q74 0 83 -101v-152h-51v119q0 76 -42 76h-5
q-44 0 -44 -76v-119h-52v245h46v-21q30 29 62 29zM1466 1905h7q72 0 105 -89h-60q-16 31 -42 31h-17q-53 -14 -53 -61l-3 -15q12 -69 61 -69h9q22 0 47 27h40l2 3h3l2 -3l2 3l3 -3l2 3l2 -7q-33 -81 -110 -81q-76 0 -110 94l-4 36v3q0 85 77 120q15 8 37 8zM3141 1905h2
q49 0 70 -60v-14h-52q0 16 -16 16h-4q-14 0 -19 -13v-13q0 -9 68 -35q30 -19 30 -59q0 -58 -61 -80l-23 -3q-76 12 -76 83h54q0 -20 27 -25h4q19 0 24 23q0 22 -68 44q-34 27 -34 59q0 66 74 77zM4203 1905q55 0 77 -63q7 -18 7 -65v-125h-52v112q0 83 -40 83h-11
q-33 0 -40 -54v-141h-52v5h-2l2 2v238h47v-21q25 29 64 29zM4432 1905h5q40 0 69 -40v18l-3 3l3 11h47v-208q0 -97 -85 -132l-33 -4h-7q-70 0 -104 80h59q24 -22 45 -23h13q22 0 43 22q15 13 22 52h-3q-32 -40 -73 -40q-57 0 -96 70q-10 18 -14 63q0 88 87 125zM3851 1897
h53v-136q6 -59 40 -59h7q46 0 46 93v102h51v-245h-47l-3 10h3l-3 3v5l3 2v3h-4q0 -23 -57 -31h-3q-59 0 -84 75l-2 85v93zM690 1771q10 -69 63 -69h7q59 14 59 65v15q-13 65 -59 65h-5q-58 0 -65 -76zM3630 1774q13 -72 61 -72h5q58 0 66 75q0 49 -51 70h-22q-37 0 -56 -57z
M4374 1774q8 -72 65 -72h5q59 12 59 72q0 61 -59 73h-14q-56 -16 -56 -62v-11zM3928 1620h52v-57h-52v57zM1054 1402q43 -11 43 -49v-4q0 -17 -32 -60h-28q0 25 31 57v7q0 12 -7 15h-12q-10 -4 -10 -19h-28v6q0 32 33 44zM3349 1339q92 0 138 -99h-60q-37 42 -80 42
q-55 0 -87 -68q-10 -22 -10 -47q0 -78 81 -110l18 -1q36 0 75 39h61q-44 -97 -138 -97q-93 0 -141 112q-10 31 -10 62q0 97 90 152q29 15 63 15zM3664 1339q57 0 103 -47q46 -51 46 -115v-20q0 -89 -91 -146q-33 -13 -63 -13q-89 0 -138 101q-13 33 -13 60v18q0 98 98 151
q29 11 58 11zM2261 1337h2l47 -11h3q11 0 26 11l18 -36q-18 -19 -35 -19h-3l-54 10l-20 -7l-20 36q18 16 36 16zM716 1334h19q118 0 129 -26q25 -26 25 -62q-10 -57 -30 -57v-6q47 -23 47 -66v-18q0 -63 -69 -88l-54 -5h-67v328zM2550 1334h53v-217q6 -61 45 -61q29 0 44 39
l3 30v203l4 6h45l5 -6v-171q0 -118 -40 -133q-24 -26 -64 -26q-55 0 -91 76l-4 54v206zM2805 1334h59q4 0 122 -237h4v237h50l4 -6v-322h-58q-29 48 -125 238h-3v-238h-53v328zM3101 1334h54v-328h-54v328zM3859 1334h8q155 0 174 -40q23 -11 47 -75l4 -36v-11l3 -2
q0 -94 -82 -149q-35 -15 -99 -15h-55v328zM4141 1334h153v-60h-103v-75h101v-57h-101v-74l4 -5h99v-57h-157v322zM3563 1175v-10q0 -76 79 -108l19 -1q68 0 96 86l3 20v15q0 61 -60 94q-12 8 -39 11q-66 0 -96 -83zM770 1274v-67h9q54 0 54 28l3 14q-11 25 -29 25h-37z
M3912 1274v-206l2 -3v-2q104 0 122 76l2 15v29q0 34 -32 68q-25 23 -78 23h-16zM1041 1259h5q38 0 71 -40v32h49v-245h-49v32q-36 -40 -80 -40q-75 0 -101 97l-5 36q0 89 85 125zM1314 1259h3q74 0 83 -102v-151h-51v128q0 67 -42 67h-10q-34 0 -39 -62v-133h-52v245h47v-21
q28 29 61 29zM1543 1259h5q45 0 71 -40v32h47v-219q0 -95 -104 -126h-16q-74 0 -108 82h59q26 -25 44 -25h14q52 0 64 77q-33 -42 -76 -42q-60 0 -101 81l-7 44v16q0 79 85 117zM1912 1259h2q43 0 61 -37h2q32 37 69 37h4q57 0 79 -55q8 -25 8 -45v-153h-52v138q0 44 -23 55
l-12 2h-15q-32 0 -36 -65v-130h-52v136q0 59 -43 59h-8q-32 0 -36 -57v-138h-54v245h50v-21h2q6 24 54 29zM2282 1259q47 0 75 -42v34h47v-245h-47v32q-36 -40 -78 -40q-74 0 -102 92l-6 41q0 90 85 125zM985 1117q0 -48 61 -61h4q45 0 62 46l3 15v22q-12 62 -57 62h-14
q-41 0 -59 -57v-27zM1487 1128q0 -48 43 -68l18 -4h5q47 0 63 57v23q-11 65 -58 65h-12q-50 0 -59 -73zM2225 1131v-14q15 -61 57 -61h14q58 12 58 64v11q0 45 -37 65l-18 5h-10q-64 -8 -64 -70zM770 1150v-82q0 -5 7 -5q77 0 77 45q0 34 -47 42h-37zM2966 753l24 -28
l-51 -55q-18 12 -27 26zM1524 727l85 -54q0 -15 -21 -42l-87 54q18 41 23 42zM2850 693h38l55 -60h-54l-21 26l-23 -26h-54q54 60 59 60zM3422 693h40l56 -60h-54l-24 26h-1q0 -5 -19 -26h-54zM622 685h52q8 -4 47 -137l34 -110q9 8 34 100l48 147h54v-2l-112 -326h-44z
M1159 685h51v-54h-51v54zM1354 685h46l6 -5v-323h-52v328zM2317 685h45l4 -5v-78h31v-52h-31v-193h-53v193h-26v52h26v78zM2425 685h52v-98h2q23 23 54 23h3q57 0 81 -71l3 -38v-144h-52v115q0 81 -39 81h-10q-42 0 -42 -87v-109h-52v328zM2664 685h52v-54h-52v54zM3028 685
h44l6 -5v-78h29v-52h-29v-193h-54v193h-27v52h27v78zM3234 685h52v-328h-52v328zM3957 685h52v-328h-52v328zM4316 685h51v-54h-51v54zM1555 610h5q83 0 110 -102l3 -23v-11q0 -83 -85 -120l-35 -5q-76 0 -111 97l-4 32q0 97 93 130zM1811 610h4q53 0 78 -60q7 -25 7 -81
v-112h-54v146q-7 50 -37 50h-10q-38 0 -42 -57v-139h-54v245h49v-21q26 29 59 29zM2046 610h4q45 0 63 -39h3v31h49v-206q0 -102 -89 -135l-28 -3h-5q-73 0 -106 81h52l37 -20l15 -3h14q50 0 61 72q-33 -39 -73 -39q-62 0 -98 76q-11 23 -12 60q0 85 86 123zM2866 610h2
q82 0 111 -104l2 -25l-2 -27h-172q15 -45 45 -45l14 -3q29 0 49 22h57v-3q-35 -76 -108 -76q-77 0 -111 97l-1 28v8q0 49 32 89q34 39 82 39zM3429 610h5q41 0 70 -39h2v31h47v-245h-47v31h-2q-35 -39 -77 -39q-71 0 -101 89l-5 36v14q0 86 84 120zM3711 610h7
q88 0 107 -128l-2 -1v-15q0 -65 -66 -106q-21 -11 -46 -11q-34 0 -64 32v-99l-5 -5h-49v325h49v-28q31 36 69 36zM4151 610q44 0 75 -39v31h49v-245h-49v31q-35 -39 -77 -39q-92 0 -108 132q0 84 73 121q15 8 37 8zM922 602h50v-136q3 -60 42 -60h5q44 0 44 87v109h52v-245
h-47v24h-5q0 -23 -56 -32h-3q-55 0 -82 68q-4 35 -4 99v81zM1159 602h51v-245h-51v245zM2664 602h52v-245h-52v245zM4316 602h51v-245h-51v245zM1492 488v-16q13 -66 59 -66h4q59 0 66 76q-13 71 -59 71h-11q-59 -16 -59 -65zM1987 472q15 -66 59 -66h11q48 0 59 75v1
q-13 71 -59 71h-14q-39 0 -56 -57v-24zM2805 506h122v2q-16 45 -59 45h-7q-35 0 -56 -47zM3373 474q13 -68 61 -68h5q52 0 65 63v12q-10 72 -57 72h-16q-56 -14 -56 -63zM3642 478q12 -72 61 -72h3q50 0 65 60v22q0 43 -49 65h-22q-47 0 -58 -72v-3zM4095 472q10 -66 66 -66
q43 0 61 48l2 15v16q0 54 -52 68h-18q-42 0 -59 -60v-21zM3416 321h51v-52h-51v52zM4137 321h51v-52h-51v52zM2733 133h4q35 0 43 -50v-2q0 -16 -24 -41l-10 -17h-28q0 25 28 56l3 2v2q-3 19 -9 19h-10q-8 0 -9 -19h-30q6 50 42 50zM1546 116l52 -60l-26 -19l-52 52zM352 79
h4q75 -48 85 -60l-20 -37q-88 49 -88 58zM3490 79l86 -58l-18 -39q-10 0 -91 55q15 36 23 42zM4578 76l19 -42l-91 -52l-20 39l92 58v-3zM1204 53h51v-19l5 -5h14v-36h-14l-5 -5v-279h-46v31q-34 -40 -81 -40q-72 0 -102 105l-3 26q0 102 101 131h14q33 0 66 -33v59l-6 5
h-43v36h49v24zM1480 45h40l56 -61h-53l-23 27l-23 -27h-53zM2641 45h33q12 0 63 -61h-54l-23 27q-19 -21 -19 -27h-58v4zM49 37h160v-60h-56v-268h-50l-4 5v245l2 3v2l-2 2l2 3l-2 2l2 3l-2 3h-54v54zM699 37h47v-73l2 -2l-2 -3v-3l2 -2l-2 -3v-3l2 -2v-2l-2 -3l2 -3h3
q17 24 51 24h3q53 0 77 -58q7 -17 7 -42v-153h-52v127q0 68 -40 68h-8q-43 0 -43 -86v-109h-52v322zM1297 37h47l5 -6v-49h-52v55zM1987 37h52v-198l70 115h62l-78 -118l90 -125v-2h-70q-10 22 -74 115v-115h-52v328zM2271 37v-99q24 24 53 24q57 0 80 -56q10 -19 10 -77
v-120h-54v133q0 62 -41 62h-11q-31 0 -37 -55v-140h-53v314l-1 3v3l1 2l-1 3l1 3h53zM2458 37h51v-55h-51v55zM3148 37h51v-108q27 33 68 33h3q75 0 105 -94l5 -37q0 -75 -64 -120q-30 -11 -49 -11q-41 0 -72 40v-31h-47v328zM4275 37h52v-99h2q23 24 54 24h3q60 0 82 -74
l2 -41v-138h-52v111q0 82 -32 82l-10 2h-12q-37 0 -37 -80v-115h-52v328zM329 -38h3v-58h-5q-42 0 -42 -57v-138h-53v245h47v-21q18 29 50 29zM564 -38q71 0 86 -87v-166h-51v136q-6 59 -41 59h-6q-45 0 -45 -84v-111h-52v245h50v-21q25 29 59 29zM1504 -38q72 0 105 -94
l5 -39q-2 -24 -7 -24h-169q17 -47 62 -47q24 0 48 21h57q-33 -79 -108 -79q-82 0 -113 105v37q0 81 89 117zM2657 -38h5q77 0 107 -97l3 -26v-21l-3 -13h-170q18 -47 53 -47h12q21 0 42 21h59q-34 -79 -105 -79q-84 0 -115 102l-2 29q0 93 91 128zM2915 -38h4q54 0 78 -60
q7 -25 7 -82v-111h-54v138q0 48 -35 57h-11q-38 0 -43 -57v-138h-54v245h50v-21q25 29 58 29zM3508 -38h6q40 0 70 -40h2v32h47v-245h-47v31h-2q-34 -40 -78 -40q-71 0 -101 90l-4 37v12q0 82 77 117q11 6 30 6zM3781 -38h4q62 0 82 -78l3 -84v-91h-54v138q0 48 -38 57h-9
q-38 0 -42 -52v-143h-54v245h49v-21q26 29 59 29zM4133 -38h1q74 0 104 -93l4 -40q0 -88 -84 -126l-25 -3q-41 0 -68 34v-106h-52v326h47v-29q30 37 73 37zM4714 -38h5q34 0 63 -37q27 37 69 37h6q56 0 79 -66l6 -51v-136h-52v122q0 73 -39 73h-7q-35 0 -41 -50v-140l-5 -5
h-48v140q0 42 -31 55h-17q-40 0 -40 -77v-118h-51v245h47v-21q22 29 56 29zM359 -46h49l5 -6v-234l-5 -5h-49v245zM1297 -46h52v-245h-52v245zM1649 -46h52v-136q4 -60 43 -60h4q44 0 44 81v115h52v-245h-47v24h-5q-12 -33 -59 -33q-52 0 -79 63q-5 12 -5 34v157zM2458 -46
h51v-245h-51v245zM4515 -46h51v-245h-51v245zM1077 -169q0 -53 51 -73h12q54 0 66 66v10q0 53 -54 70h-17q-38 0 -58 -57v-16zM1438 -143h122q-18 47 -53 47h-7q-43 0 -62 -44v-3zM2599 -143h122q-21 47 -54 47h-7q-46 0 -61 -47zM3196 -158v-11q10 -73 61 -73h5q64 8 64 71
v5q0 45 -38 65l-18 5h-14q-60 -14 -60 -62zM3452 -173q14 -69 62 -69h11q41 0 59 60v13q-8 73 -56 73h-17q-47 0 -59 -73v-4zM4062 -158v-22q0 -47 59 -62h9q50 0 61 76q-13 70 -58 70h-15q-56 -17 -56 -62z" />
    <glyph glyph-name=".null" horiz-adv-x="0" 
 />
    <glyph glyph-name="nonmarkingreturn" horiz-adv-x="571" 
 />
    <glyph glyph-name="space" unicode=" " horiz-adv-x="512" 
 />
    <glyph glyph-name="exclam" unicode="!" horiz-adv-x="681" 
d="M216 267q51 52 123 52t123 -51q51 -52 51 -123q0 -172 -174 -172q-172 0 -172 172q0 71 49 122zM308 479q-17 177 -44 312l-23 105l-24 82l-37 121q-15 58 -15 113q0 203 174 203q172 0 172 -203q0 -55 -15 -113l-37 -121l-23 -82l-24 -105q-27 -135 -44 -312h-60z" />
    <glyph glyph-name="quotedbl" unicode="&#x22;" horiz-adv-x="1136" 
d="M259 827q-15 65 -29 123l-29 131q-15 69 -23 114q-9 52 -9 71v2q0 147 131 147q133 0 133 -147q0 -17 -9 -68q-8 -45 -23 -115l-58 -258h-84zM792 827q-16 65 -29 123l-30 131q-14 69 -22 114q-10 52 -10 71v2q0 147 132 147q133 0 133 -147q0 -17 -10 -68
q-8 -45 -22 -115l-58 -258h-84z" />
    <glyph glyph-name="numbersign" unicode="#" 
d="M954 430h-198l-60 -430h-160l60 430h-232l-59 -430h-160l60 430h-197l2 150h217l37 274h-197l2 150h215l62 430h158l-60 -430h232l61 430h158l-60 -430h181l-2 -150h-199l-37 -274h178zM424 854l-37 -274h231l37 274h-231z" />
    <glyph glyph-name="dollar" unicode="$" 
d="M551 61q7 2 11 3l42 10q36 12 62 32q75 58 75 181q0 80 -51 132q-22 22 -60 46l-79 47v-451zM833 985q-3 10 -5 17l-21 63q-22 57 -50 102q-36 56 -83 92q-55 42 -123 54v-441l81 -42q44 -23 77 -43q81 -48 132 -96q125 -116 125 -283q0 -203 -130 -303q-54 -42 -133 -69
q-63 -21 -152 -36v-203h-113v203q-97 4 -169 24q-51 14 -175 64v320l43 -5q50 -179 135 -261q63 -62 164 -81v514q-35 17 -58 30l-62 35q-73 43 -123 90q-62 57 -96 123q-38 75 -38 163q0 166 125 267q107 86 254 93v160h113v-156q130 -19 215 -51q33 -12 63 -28
q18 -9 47 -27v-289h-43zM436 1319q-80 -18 -123 -53q-59 -48 -59 -133q0 -92 82 -153q27 -20 62 -36l38 -14v389z" />
    <glyph glyph-name="percent" unicode="%" horiz-adv-x="2048" 
d="M1335 171q0 -10 1 -19q3 -24 12 -40q24 -46 95 -46q101 0 196 161q89 150 89 277l-3 38q-5 29 -14 52q-28 63 -94 63q-56 0 -112 -62q-47 -52 -89 -143q-82 -173 -82 -264zM1245 609q142 153 300 153q250 0 250 -250q0 -70 -25 -157q-28 -97 -78 -178q-57 -93 -134 -145
q-88 -61 -193 -61q-122 0 -198 82q-72 77 -72 191q0 203 150 365zM683 -16h-113l709 1261l-4 4q-110 -51 -231 -51q-31 0 -93 10l2 -34q0 -198 -108 -370q-59 -93 -138 -144q-88 -58 -194 -58t-181 73q-79 77 -79 193q0 127 50 233q44 92 122 162q138 126 272 126
q64 0 107 -18q17 -7 35 -18l30 -20q38 -27 71 -39q50 -18 126 -18q61 0 121 15q50 13 96 35q36 17 64 37q23 16 28 23q11 15 17 21q11 10 20 10h78zM589 696q113 0 209 177q86 158 86 290q0 41 -20 66q-8 9 -19 16l-52 30l-4 3q-20 14 -30 14q-43 0 -94 -59
q-44 -52 -88 -139q-91 -183 -91 -289q0 -109 103 -109z" />
    <glyph glyph-name="ampersand" unicode="&#x26;" horiz-adv-x="1705" 
d="M1603 858v-49q-104 -9 -150 -82q-113 -182 -246 -367l61 -75q32 -37 58 -59q61 -52 127 -52q74 0 117 78l41 -25l-90 -145q-55 -65 -138 -95q-29 -11 -60 -16q-23 -4 -40 -4q-99 0 -182 58q-33 23 -69 58q-14 14 -31 32l-29 32q-40 -30 -76 -53q-51 -34 -103 -59
q-64 -30 -128 -47q-74 -19 -148 -19q-160 0 -269 90q-122 100 -122 273q0 94 44 176q37 70 106 131q55 49 132 93q29 17 63 35q21 10 56 28q-106 176 -106 292q0 171 129 257q107 71 268 71q177 0 269 -82q75 -68 75 -166q0 -112 -105 -196q-43 -34 -101 -62
q-47 -23 -105 -43l309 -438l26 31q14 19 26 34q30 39 51 73q53 86 53 151q0 53 -28 70q-21 12 -107 22v49h422zM503 276q105 -151 237 -151q44 0 96 25q40 19 89 55q-52 68 -131 183q-31 45 -69 101q-27 40 -64 97l-99 147q-151 -86 -151 -201q0 -121 92 -256zM718 1059
q21 -37 50 -76l44 -57l22 7q13 5 24 10q27 13 46 30q51 44 51 121q0 87 -49 165q-56 89 -137 89q-46 0 -73 -24q-35 -30 -35 -97q0 -69 57 -168z" />
    <glyph glyph-name="quotesingle" unicode="'" horiz-adv-x="681" 
d="M175 774q14 10 26 18l33 25q43 32 74 64q91 90 91 163q0 46 -41 46l-18 -3q-13 -2 -27 -2q-57 0 -98 33q-54 43 -54 129q0 168 168 168q103 0 160 -77q49 -65 49 -156t-38 -171q-32 -69 -91 -129q-47 -48 -112 -93l-99 -60z" />
    <glyph glyph-name="parenleft" unicode="(" horiz-adv-x="681" 
d="M626 1366q-41 -28 -61 -43q-33 -24 -57 -47q-60 -56 -96 -133q-42 -91 -63 -229q-24 -152 -24 -377q0 -393 76 -576q36 -85 95 -146q49 -52 130 -102v-57q-166 90 -283 219q-100 110 -161 245q-49 109 -72 229q-16 88 -16 169q0 208 67 386q56 149 157 271q78 95 178 168
q37 27 75 49l55 29v-55z" />
    <glyph glyph-name="parenright" unicode=")" horiz-adv-x="681" 
d="M55 -289q41 28 62 43q33 24 57 47q59 57 95 134q43 90 64 229q23 152 23 377q0 392 -76 575q-36 85 -94 147q-50 51 -131 101v57q166 -89 284 -219q99 -110 160 -245q50 -109 72 -228q16 -88 16 -170q0 -208 -67 -386q-56 -148 -157 -271q-78 -95 -177 -167
q-38 -28 -76 -50l-55 -29v55z" />
    <glyph glyph-name="asterisk" unicode="*" 
d="M569 958q52 -29 124 -41q23 -5 58 -9q5 0 14 -1l39 -5q111 -15 111 -103q0 -99 -101 -99q-10 0 -21 3q-14 3 -28 9q-36 17 -63 56q-86 125 -158 162l-14 -10q5 -65 20 -115q11 -35 30 -72l26 -51q12 -27 12 -53q0 -107 -107 -107q-48 0 -75 40q-21 32 -21 73q0 37 12 65
q5 10 13 24l14 23q18 31 27 63q12 45 12 110l-14 10q-57 -37 -99 -85q-15 -17 -31 -39l-13 -19l-6 -9l-5 -8q-51 -76 -113 -76q-31 0 -61 25q-35 29 -35 74v10q0 6 1 12q2 16 9 29q18 35 70 55q19 8 42 11q9 1 20 1h44q42 0 72 9q42 12 86 47l2 14q-60 31 -135 43l-110 14
q-103 14 -103 105q0 50 35 77q13 11 30 16q14 5 25 5q53 0 85 -25q21 -16 47 -60l22 -37q14 -21 29 -38q38 -43 96 -69l14 6v6q0 57 -14 102q-9 31 -30 66q-2 5 -8 14l-8 14q-9 15 -14 27q-14 32 -14 68q0 100 104 100q56 0 83 -44q9 -16 14 -36q4 -16 4 -30q0 -33 -13 -61
q-5 -11 -13 -25q-2 -4 -7 -12q-6 -9 -7 -12q-19 -31 -28 -58q-12 -39 -12 -88l2 -31l16 -6q56 40 96 88l55 76q48 71 107 71q48 0 79 -38q26 -32 26 -66q0 -8 -4 -21q-5 -15 -14 -29q-23 -38 -66 -53q-24 -9 -57 -10l-57 -1q-76 -4 -148 -54v-17z" />
    <glyph glyph-name="plus" unicode="+" horiz-adv-x="1167" 
d="M493 1036h180v-428h426v-180h-426v-428h-180v428h-426v180h426v428z" />
    <glyph glyph-name="comma" unicode="," horiz-adv-x="512" 
d="M93 -324q14 10 26 19l33 24q43 32 74 64q91 90 91 164q0 45 -41 45l-18 -2q-13 -2 -27 -2q-57 0 -98 32q-54 43 -54 130q0 167 168 167q103 0 160 -76q49 -65 49 -157q0 -90 -38 -171q-32 -68 -91 -129q-47 -48 -112 -92l-99 -61z" />
    <glyph glyph-name="hyphen" unicode="-" horiz-adv-x="681" 
d="M588 350h-498v238h498v-238z" />
    <glyph glyph-name="hyphen" unicode="&#x2010;" horiz-adv-x="681" 
d="M588 350h-498v238h498v-238z" />
    <glyph glyph-name="period" unicode="." horiz-adv-x="512" 
d="M132 267q51 52 123 52t123 -51q51 -52 51 -123q0 -172 -174 -172q-172 0 -172 172q0 71 49 122z" />
    <glyph glyph-name="slash" unicode="/" horiz-adv-x="569" 
d="M135 -39h-184l483 1454h185z" />
    <glyph glyph-name="zero" unicode="0" 
d="M651 924q0 428 -141 428q-90 0 -120 -151q-12 -56 -15 -139q-2 -32 -2 -71v-536q0 -424 141 -424q50 0 79 42q11 15 19 37l10 35q10 41 19 120q10 99 10 190v469zM93 1012q39 132 111 226q131 171 310 171t311 -180q70 -96 108 -228q42 -144 42 -321q0 -289 -124 -492
q-132 -215 -339 -215q-198 0 -330 199q-133 201 -133 508q0 185 44 332z" />
    <glyph glyph-name="one" unicode="1" 
d="M905 0h-768v49h8q157 0 204 56q32 37 32 149v809q-1 13 -1 23q-3 27 -9 46q-18 52 -70 52q-20 0 -69 -16q-37 -12 -99 -35v53l516 223h35v-1167q0 -112 34 -148q44 -45 187 -45v-49z" />
    <glyph glyph-name="two" unicode="2" 
d="M886 0h-852v47l231 251q113 129 183 224q166 228 166 391q0 13 -2 28q-2 19 -7 38q-11 48 -34 87q-29 49 -74 77q-54 33 -127 33l-21 -1l-27 -4q-35 -7 -66 -23q-87 -45 -136 -157h-57l19 52l28 63q38 79 85 138q60 75 132 116q85 49 186 49q55 0 113 -16q70 -20 124 -59
q65 -46 101 -117q41 -81 41 -191v-27l-4 -35q-6 -47 -25 -96q-24 -62 -69 -126q-54 -76 -135 -154l-332 -316h309q159 0 206 28q43 24 87 132h49z" />
    <glyph glyph-name="three" unicode="3" 
d="M75 1096q55 119 161 205q134 108 298 108q155 0 246 -67q98 -72 98 -209q0 -106 -51 -171q-21 -26 -55 -51q-21 -16 -64 -43q250 -91 250 -360q0 -221 -170 -376q-177 -161 -447 -161q-132 0 -216 46q-93 51 -93 143q0 114 127 114q58 0 111 -31q36 -21 86 -69l39 -37
q22 -20 39 -32q44 -31 85 -31q86 0 140 52q65 64 65 191q0 96 -42 172q-37 65 -105 116q-55 41 -134 76q-31 13 -68 26l-62 22v35l83 29q51 20 87 47q96 71 96 192q0 211 -217 211q-91 0 -164 -67q-25 -24 -49 -57l-25 -38q-1 -2 -3 -5t-3 -5z" />
    <glyph glyph-name="four" unicode="4" 
d="M972 522v-227h-129v-295h-297v295h-508v231q64 103 151 226q74 106 167 233l323 424h164v-887h129zM550 1124h-4l-424 -602h428v602z" />
    <glyph glyph-name="five" unicode="5" 
d="M260 958q81 -4 130 -9q64 -6 114 -15q112 -22 207 -76q83 -46 141 -134q72 -110 72 -247q0 -209 -153 -347q-163 -146 -433 -146q-124 0 -206 46q-87 50 -87 134q0 123 127 123q47 0 102 -28q34 -18 96 -61q64 -46 94 -62q52 -27 95 -27q71 0 129 43q76 58 76 170
q0 87 -69 166q-60 69 -150 108q-91 41 -217 60q-49 8 -112 13l-112 9l199 706h660l-89 -260h-569z" />
    <glyph glyph-name="six" unicode="6" 
d="M962 1356q-87 -18 -159 -47q-87 -36 -156 -91q-80 -64 -135 -155q-62 -101 -95 -236q45 19 74 25q44 10 111 10q60 0 117 -17q69 -22 121 -66q61 -51 94 -131q38 -91 38 -216q0 -52 -17 -118q-23 -85 -68 -153q-54 -84 -136 -131q-96 -57 -225 -57q-78 0 -151 26
q-87 31 -153 94q-76 74 -118 186q-47 128 -47 303q0 303 222 530q117 120 283 194q178 81 400 103v-53zM487 770q-66 0 -90 -27l-10 -67q-8 -73 -8 -117q0 -307 31 -416q32 -114 126 -114q84 0 110 84q10 36 13 93q2 35 2 113q0 451 -174 451z" />
    <glyph glyph-name="seven" unicode="7" 
d="M495 0h-195l410 1104h-446q-14 -1 -26 -3q-31 -5 -56 -19q-67 -39 -97 -152h-51l90 454h852z" />
    <glyph glyph-name="eight" unicode="8" 
d="M382 1055q32 -51 87 -99q41 -34 91 -64l50 -28q45 60 60 96q24 57 24 140q0 100 -34 164q-47 86 -148 86q-73 0 -122 -52q-46 -49 -46 -114q0 -66 38 -129zM737 1379q73 -26 121 -75q80 -80 80 -192q0 -115 -97 -194q-38 -30 -91 -55q-40 -19 -91 -36q143 -84 220 -186
q87 -117 87 -252q0 -191 -131 -304q-130 -112 -350 -112q-177 0 -297 88q-131 95 -131 256q0 150 102 241q41 37 99 65q45 21 106 41q-128 71 -200 159q-84 103 -84 221q0 156 109 254q124 111 355 111q111 0 193 -30zM352 125q53 -86 147 -86q117 0 160 100q15 34 20 80
q2 16 2 34l1 26q0 112 -84 202q-34 36 -87 76q-32 24 -102 70l-42 -66q-21 -35 -33 -65q-29 -73 -29 -174q0 -120 47 -197z" />
    <glyph glyph-name="nine" unicode="9" 
d="M63 27q88 17 158 46q86 35 154 90q79 64 136 155q64 103 101 241q-47 -25 -90 -31q-41 -8 -98 -8q-61 0 -118 18q-69 21 -121 65q-61 52 -94 131q-38 92 -38 216q0 52 18 119q23 84 67 152q55 85 136 132q97 56 225 56q78 0 152 -26q86 -31 152 -94q77 -73 118 -186
q47 -128 47 -302q0 -304 -222 -531q-117 -119 -282 -194q-179 -80 -401 -103v54zM538 612q29 0 57 8q32 8 33 19q19 98 19 184q0 308 -31 417q-33 114 -127 114q-84 0 -109 -85q-11 -35 -14 -92q-2 -35 -2 -114q0 -451 174 -451z" />
    <glyph glyph-name="colon" unicode=":" horiz-adv-x="681" 
d="M216 267q51 52 123 52t123 -51q51 -52 51 -123q0 -172 -174 -172q-172 0 -172 172q0 71 49 122zM216 915q50 52 123 52q72 0 123 -51t51 -121q0 -174 -174 -174q-172 0 -172 174q0 70 49 120z" />
    <glyph glyph-name="semicolon" unicode=";" horiz-adv-x="681" 
d="M506 -87q-32 -68 -91 -129q-47 -48 -112 -92l-99 -61l-23 45l59 43q43 32 74 64q91 90 91 164q0 45 -41 45l-54 -4l-18 2q-12 2 -24 6q-15 5 -28 12q-73 40 -73 142q0 167 168 167q103 0 160 -76q49 -65 49 -157q0 -90 -38 -171zM216 915q50 52 123 52q72 0 123 -51
t51 -121q0 -174 -174 -174q-172 0 -172 174q0 70 49 120z" />
    <glyph glyph-name="less" unicode="&#x3c;" horiz-adv-x="1167" 
d="M1103 -16l-1040 456v156l1040 457v-181l-807 -354l807 -354v-180z" />
    <glyph glyph-name="equal" unicode="=" horiz-adv-x="1167" 
d="M1099 637h-1032v180h1032v-180zM1099 219h-1032v180h1032v-180z" />
    <glyph glyph-name="greater" unicode="&#x3e;" horiz-adv-x="1167" 
d="M870 518l-807 354v181l1040 -457v-156l-1040 -456v180z" />
    <glyph glyph-name="question" unicode="?" 
d="M456 473l-1 14l-3 76q0 59 24 119q9 22 24 52l29 52q36 68 52 120q24 76 24 163q0 42 -5 78q-7 51 -23 88q-43 102 -148 102h-10l-16 -2q-23 -3 -41 -10q-53 -21 -53 -70q0 -20 11 -37l19 -22q5 -5 7 -8q9 -9 14 -17q8 -10 12 -20q12 -26 12 -59q0 -71 -47 -106
q-34 -25 -78 -25q-72 0 -110 51q-33 44 -33 106q0 39 15 81q19 55 58 97q47 52 121 81q86 34 203 34q16 0 36 -2q26 -2 53 -7q74 -13 134 -43q78 -39 121 -104q54 -79 54 -192q0 -93 -56 -172q-49 -70 -137 -125q-157 -98 -180 -145q-21 -41 -21 -148h-61zM365 267
q51 52 124 52q70 0 121 -51q51 -52 51 -123q0 -172 -172 -172q-174 0 -174 172q0 71 50 122z" />
    <glyph glyph-name="at" unicode="@" horiz-adv-x="1904" 
d="M1091 965q-88 0 -178 -107q-102 -123 -102 -293q0 -174 127 -174q76 0 145 109q79 125 99 331q0 134 -91 134zM1241 1036h145l-135 -532q-2 -9 -3 -18q-1 -11 -1 -21q0 -96 78 -96q112 0 191 144q71 130 71 280q0 198 -157 361q-80 84 -187 130q-117 51 -252 51
q-245 0 -406 -175q-176 -191 -176 -525q0 -234 169 -404q174 -176 434 -176q126 0 233 30q45 12 94 32q36 14 90 39l27 -72l-103 -47q-56 -23 -107 -39q-120 -37 -232 -37q-197 0 -357 69q-142 61 -246 172q-93 100 -144 226q-46 116 -46 227q0 334 229 551q221 209 541 209
q293 0 492 -176q200 -178 200 -444q0 -182 -101 -332q-114 -170 -290 -170q-90 0 -146 63q-20 22 -32 49q-10 22 -10 35v2h-4q-11 -15 -30 -36q-25 -25 -54 -47q-79 -57 -160 -64h-6q-13 0 -26 2l-31 7q-37 11 -65 36q-75 67 -75 213q0 154 102 314q56 89 130 138
q84 58 184 58q65 0 101 -34q14 -14 27 -35l21 -40z" />
    <glyph glyph-name="A" unicode="A" horiz-adv-x="1478" 
d="M1411 0h-664v51q105 9 130 19q34 14 34 61q0 36 -36 132q-14 35 -31 78q-12 27 -27 62h-461q-90 -231 -90 -264q0 -51 58 -71q22 -8 54 -12l56 -5v-51h-416v51q76 12 119 69q19 26 40 71l496 1222h58l456 -1077q40 -94 59 -134q27 -58 48 -88q44 -63 108 -63h9v-51z
M786 483l-207 498l-192 -498h399z" />
    <glyph glyph-name="B" unicode="B" horiz-adv-x="1366" 
d="M540 190q0 -124 123 -124q149 0 210 106q24 42 34 100q8 44 8 101q0 194 -107 272q-42 31 -102 45q-43 10 -105 12h-61v-512zM540 764q196 0 263 69q56 59 56 226q0 121 -43 186q-52 78 -168 78q-69 0 -92 -33q-14 -19 -16 -67v-459zM32 51q102 11 133 31q47 29 47 115
v991q0 90 -55 121q-22 12 -57 18l-68 6v51l689 -1q39 -1 75 -5q101 -10 178 -38q101 -35 156 -97q67 -75 67 -186q0 -80 -37 -140q-32 -51 -89 -89q-44 -29 -105 -51l-86 -27v-5q155 -25 258 -105q129 -100 129 -259q0 -150 -126 -252q-71 -58 -177 -90q-118 -36 -273 -39
h-659v51z" />
    <glyph glyph-name="C" unicode="C" horiz-adv-x="1478" 
d="M1407 260q-62 -70 -116 -118q-64 -58 -128 -95q-146 -86 -328 -86q-343 0 -546 216q-189 200 -189 503q0 315 201 523q205 212 524 212q63 0 132 -16q52 -11 115 -34q12 -4 25 -9l65 -26q42 -15 58 -15q57 0 94 94h56v-479h-51q-29 72 -72 140q-49 77 -106 136
q-141 142 -300 142q-207 0 -301 -200q-41 -87 -60 -211q-18 -110 -18 -249q0 -54 4 -104q3 -62 12 -118q22 -141 73 -228q56 -97 164 -145q40 -18 84 -27q34 -7 63 -7q127 0 238 55q123 61 245 197z" />
    <glyph glyph-name="D" unicode="D" horiz-adv-x="1478" 
d="M28 51q170 0 170 135v1010q0 83 -55 112q-21 12 -55 18q-12 2 -30 4l-30 3v51h625q205 0 360 -60q141 -55 235 -157q84 -92 126 -216q38 -112 38 -238q0 -303 -175 -492q-194 -209 -562 -221h-647v51zM530 190q0 -118 116 -118q192 0 291 126q119 152 119 494
q0 89 -13 176q-17 116 -54 205q-47 110 -121 171q-88 71 -211 71q-78 0 -107 -25q-20 -17 -20 -55v-1045z" />
    <glyph glyph-name="E" unicode="E" horiz-adv-x="1366" 
d="M32 1384h1182v-411h-52q-33 206 -148 280q-97 62 -320 62q-150 0 -150 -96v-476h10q152 0 221 59q79 68 101 247h53v-693h-53q-18 184 -99 255q-73 63 -233 63v-496q0 -115 172 -115q84 0 151 14q80 15 145 52q154 86 243 297h57l-82 -426h-1198v51q104 11 134 30
q46 29 46 116v991q0 90 -55 121q-22 12 -57 18l-68 6v51z" />
    <glyph glyph-name="F" unicode="F" horiz-adv-x="1251" 
d="M32 1384h1161v-411h-49q-19 92 -40 143q-27 67 -71 108q-98 91 -342 91q-147 0 -147 -96v-476h10q164 0 232 92q29 38 46 98q12 39 25 116h52v-693h-52q-10 77 -22 121q-17 61 -46 101q-71 96 -245 96v-477q0 -93 59 -121q39 -19 166 -25v-51h-737v51q104 11 134 30
q46 29 46 116v991q0 90 -54 121q-32 18 -126 24v51z" />
    <glyph glyph-name="G" unicode="G" horiz-adv-x="1593" 
d="M1545 537q-107 -13 -135 -37q-41 -35 -41 -152v-260q-71 -51 -246 -90q-168 -37 -307 -37q-184 0 -331 62q-136 58 -231 164q-179 199 -179 493q0 311 197 519q204 216 528 216q63 0 132 -16q52 -11 115 -34q12 -4 25 -9l65 -26q42 -15 58 -15q57 0 94 94h56v-479h-51
q-29 72 -72 140q-49 77 -106 136q-141 142 -300 142q-206 0 -300 -200q-42 -87 -61 -212q-18 -111 -18 -252q0 -37 2 -70q2 -48 6 -94q13 -123 47 -218q43 -123 119 -191q91 -82 226 -82q125 0 174 41q39 34 39 108v215q0 91 -51 118q-34 18 -156 26v51h702v-51z" />
    <glyph glyph-name="H" unicode="H" horiz-adv-x="1593" 
d="M1554 0h-696v51q101 12 133 31q51 30 51 115v471h-493v-471q0 -85 51 -115q33 -19 133 -31v-51h-690v51q97 13 128 33q46 30 46 113v991q0 88 -55 119q-21 13 -56 19q-13 2 -31 4q-6 1 -16 2l-16 1v51h690v-51l-67 -6q-36 -6 -59 -18q-58 -31 -58 -121v-424h493v424
q0 90 -58 121q-23 12 -59 18l-67 6v51h696v-51l-65 -6q-35 -6 -58 -19q-57 -32 -57 -120v-991q0 -84 50 -114q30 -19 130 -32v-51z" />
    <glyph glyph-name="I" unicode="I" horiz-adv-x="796" 
d="M757 0h-717v51q102 10 137 29q53 31 53 117v991q0 90 -59 121q-24 12 -61 18l-70 6v51h717v-51l-36 -1q-20 -2 -35 -4q-38 -5 -63 -17q-61 -31 -61 -123v-991q0 -89 55 -119q35 -19 140 -27v-51z" />
    <glyph glyph-name="J" unicode="J" 
d="M981 1333q-105 -7 -135 -30q-47 -37 -47 -158v-893q0 -133 -41 -227q-36 -84 -104 -136q-59 -46 -143 -68q-71 -18 -159 -18q-106 0 -184 36q-63 29 -104 81q-31 40 -47 88l-9 34l-2 21q0 77 50 122q42 36 95 36q47 0 91 -34q57 -45 57 -119q0 -27 -9 -47l-19 -28
q-1 -2 -2 -3l-17 -22q-8 -15 -8 -34q0 -63 90 -63q86 0 116 65q11 24 15 59q1 13 2 28v1165q0 94 -60 123q-25 13 -65 17q-17 2 -40 4l-42 1v51h721v-51z" />
    <glyph glyph-name="K" unicode="K" horiz-adv-x="1593" 
d="M1574 0h-688v51q162 6 162 43q0 32 -49 90l-373 465l-55 -51v-401q0 -84 49 -114q31 -19 131 -32v-51h-690v51q100 11 131 31q47 29 47 115v991q0 90 -54 121q-32 18 -124 24v51h692v-51q-102 -7 -133 -31q-49 -37 -49 -157v-438l444 446q74 74 74 113q0 35 -32 48
q-33 13 -142 19v51h592v-51q-152 -8 -280 -105q-65 -48 -160 -140q-41 -40 -99 -99l-119 -121l625 -774q33 -39 100 -43v-51z" />
    <glyph glyph-name="L" unicode="L" horiz-adv-x="1366" 
d="M1222 0h-1184v51q102 13 131 31q45 29 45 115v991q0 90 -53 121q-32 18 -123 24v51h715v-51q-124 -5 -157 -29q-50 -35 -50 -159v-967q0 -115 182 -115q214 0 340 114q55 50 101 128q38 63 77 160h60z" />
    <glyph glyph-name="M" unicode="M" horiz-adv-x="1933" 
d="M1886 0h-680v51q107 11 137 31q45 30 45 123v1032h-4l-512 -1237h-56l-512 1206h-4v-952q0 -110 40 -151q43 -44 167 -52v-51h-479v51q118 11 153 43q33 30 33 121v973q0 80 -36 109q-37 29 -146 36v51h518l410 -966l409 966h517v-51q-103 -7 -134 -31q-47 -37 -47 -157
v-905q0 -115 40 -149q28 -24 141 -40v-51z" />
    <glyph glyph-name="N" unicode="N" horiz-adv-x="1478" 
d="M32 51q103 12 136 37q44 33 44 127v971q-77 94 -120 127q-17 12 -32 17q-9 3 -22 3v51h432l711 -874h4v620q0 102 -33 143q-41 52 -157 60v51h440v-51q-103 -13 -135 -52q-25 -30 -25 -112v-1206h-57l-912 1110h-4v-819q0 -109 41 -151q39 -39 154 -52v-51h-465v51z" />
    <glyph glyph-name="O" unicode="O" horiz-adv-x="1593" 
d="M507 1130q-38 -90 -57 -213q-17 -107 -17 -229q0 -43 2 -79q1 -52 6 -99q12 -125 42 -218q40 -120 109 -185q82 -78 204 -78t204 78q69 65 109 185q30 93 42 218q5 47 6 99q1 36 1 79q0 122 -16 229q-19 123 -57 213q-94 218 -289 218t-289 -218zM1307 1219
q214 -205 214 -531q0 -321 -205 -525q-204 -202 -520 -202t-520 202q-205 204 -205 525q0 326 214 531q206 196 511 196t511 -196z" />
    <glyph glyph-name="P" unicode="P" horiz-adv-x="1251" 
d="M32 51q72 12 92 17q15 4 27 12q11 9 18 16q11 12 18 28q17 39 17 116v905q0 117 -45 155q-30 24 -127 33v51h659q82 0 153 -10q101 -14 177 -48q95 -42 146 -113q61 -84 61 -205q0 -78 -32 -147q-46 -102 -154 -163q-92 -51 -201 -65q-52 -7 -131 -10l-174 -2v-381
q0 -117 37 -150q27 -24 143 -39v-51h-684v51zM536 692h22q178 0 246 63q72 66 72 246q0 312 -242 312q-95 0 -98 -72v-549z" />
    <glyph glyph-name="Q" unicode="Q" horiz-adv-x="1593" 
d="M1507 -289q-193 -71 -379 -71h-25l-53 5q-84 11 -161 39q-105 39 -183 106q-97 83 -148 206q-233 69 -367 271q-120 181 -120 395q0 344 214 554q204 199 511 199q305 0 511 -196q214 -205 214 -531q0 -264 -143 -454q-140 -186 -375 -246q54 -130 158 -195
q89 -57 196 -57q35 0 73 7q14 4 32 8l32 9zM507 1130q-38 -90 -57 -213q-17 -107 -17 -229q0 -43 2 -79q1 -52 6 -99q12 -125 42 -218q40 -120 109 -185q82 -78 204 -78t204 78q69 65 109 185q30 93 42 218q5 47 6 99q1 36 1 79q0 122 -16 229q-19 123 -57 213
q-94 218 -289 218t-289 -218z" />
    <glyph glyph-name="R" unicode="R" horiz-adv-x="1478" 
d="M565 707q213 1 288 57q87 65 87 256q0 295 -248 295q-79 0 -102 -19q-16 -14 -25 -67v-522zM1464 0h-420l-424 641h-55v-401q0 -115 39 -149q29 -24 141 -40v-51h-692v51q114 14 142 38q38 34 38 151v905q0 120 -46 157q-30 24 -134 31v51h659q35 0 66 -1q44 -2 85 -6
q109 -13 192 -44q106 -39 165 -108q70 -81 70 -201q0 -88 -35 -156q-29 -58 -84 -101q-44 -33 -106 -59q-23 -10 -51 -19l-46 -15l412 -584q19 -24 44 -33q9 -4 21 -5l19 -1v-51z" />
    <glyph glyph-name="S" unicode="S" horiz-adv-x="1138" 
d="M933 973q-15 60 -44 119q-34 70 -80 124q-53 63 -118 97q-74 39 -159 39q-88 0 -150 -48q-69 -53 -69 -147q0 -83 41 -130t170 -112l301 -149q31 -16 64 -42q42 -34 74 -76q40 -51 62 -111q25 -70 25 -148q0 -162 -113 -281q-64 -68 -157 -105q-104 -42 -238 -42
q-66 0 -128 11q-46 8 -96 24l-20 6l-52 18q-34 11 -54 11q-44 0 -62 -70h-59v506h59q17 -84 47 -156q33 -81 81 -141q114 -141 292 -141q85 0 144 32q48 26 76 72q22 35 31 78q3 15 4 30l1 17q0 93 -65 153q-27 25 -72 50l-44 24l-185 88q-123 59 -203 127q-68 57 -104 120
q-29 51 -38 107q-4 22 -5 46l-1 39q0 57 16 115q21 76 65 133q53 71 137 110q98 45 235 45q56 0 111 -10q41 -8 88 -24l69 -23q33 -10 52 -10q49 0 67 69h62v-444h-58z" />
    <glyph glyph-name="T" unicode="T" horiz-adv-x="1366" 
d="M1050 0h-731v51q124 10 155 35q44 33 44 154v1079l-57 -4q-33 -3 -60 -8q-69 -12 -119 -41q-62 -37 -101 -102q-44 -75 -59 -191h-59l6 411h1229l4 -411h-59q-15 116 -59 191q-39 65 -100 102q-50 29 -119 41q-27 5 -60 8l-56 4v-1079q0 -123 44 -156q31 -24 157 -33v-51
z" />
    <glyph glyph-name="U" unicode="U" horiz-adv-x="1478" 
d="M1435 1333q-92 -13 -122 -42q-38 -36 -38 -132v-653q0 -107 -25 -209q-31 -123 -90 -186q-70 -77 -194 -117q-102 -33 -209 -33q-43 0 -84 4q-57 5 -108 17q-136 32 -224 108q-75 66 -103 132q-38 85 -38 239v684q0 118 -41 154q-27 24 -127 34v51h692v-51
q-117 -5 -150 -29q-48 -35 -48 -159v-735l4 -61q8 -76 32 -132q31 -71 88 -110q67 -46 170 -46q127 0 210 51q69 44 108 122q30 63 41 147q4 32 5 68l1 681q0 104 -34 146q-43 52 -167 57v51h451v-51z" />
    <glyph glyph-name="V" unicode="V" horiz-adv-x="1478" 
d="M1435 1333q-125 -16 -184 -168l-467 -1202h-56l-524 1227q-37 86 -73 112q-26 19 -99 31v51h688v-51l-82 -6q-36 -3 -54 -11q-40 -15 -40 -69q0 -24 23 -83l307 -740l274 710q8 21 13 37q14 41 14 68q0 85 -176 94v51h436v-51z" />
    <glyph glyph-name="W" unicode="W" horiz-adv-x="2048" 
d="M2008 1333q-101 -8 -141 -131l-410 -1233h-55l-344 959h-14l-373 -959h-58l-434 1233q-41 117 -141 131v51h602v-51l-51 -5q-26 -4 -42 -12q-38 -18 -38 -69q0 -28 14 -67l244 -740h4l240 625l-72 197q-40 67 -147 71v51h639v-51q-45 -3 -61 -5q-29 -3 -46 -10
q-41 -16 -41 -63q0 -16 10 -51l238 -743h4l237 731q5 23 5 51q0 56 -45 75q-17 8 -45 11q-15 2 -52 4v51h373v-51z" />
    <glyph glyph-name="X" unicode="X" horiz-adv-x="1478" 
d="M1408 1333q-135 -12 -223 -99q-50 -49 -130 -155l-196 -272l373 -580q75 -115 119 -149q29 -23 80 -27v-51h-697v51q164 10 164 66q0 37 -43 106l-207 332l-77 -104q-121 -162 -160 -228q-33 -54 -33 -86q0 -47 56 -67q33 -12 110 -19v-51h-512v51q70 10 105 26
q59 26 108 89l358 452l-437 641q-17 23 -34 37q-40 34 -98 37v51h709v-51q-162 -11 -162 -67q0 -30 31 -76l198 -307q175 242 205 290q20 32 25 52l3 18l1 19q0 61 -148 71v51h512v-51z" />
    <glyph glyph-name="Y" unicode="Y" horiz-adv-x="1478" 
d="M1431 1333q-11 -2 -16 -2l-17 -4q-20 -4 -36 -11q-44 -20 -70 -63l-392 -637v-376q0 -120 41 -153q29 -24 148 -36v-51h-711v51q119 12 148 36q43 34 43 153v301l-390 704l-32 37q-50 47 -117 51v51h686v-51q-105 0 -136 -13q-30 -13 -30 -56q0 -11 6 -27l21 -45l8 -16
l260 -502l246 410q15 27 27 52q34 72 34 107q0 54 -50 73q-30 11 -122 17v51h451v-51z" />
    <glyph glyph-name="Z" unicode="Z" horiz-adv-x="1366" 
d="M1245 0h-1188v33l782 1280q-259 -8 -311 -12t-102 -19q-101 -31 -168 -138q-25 -40 -47 -94l-33 -87h-58l43 421h1074v-32l-777 -1280l144 -2q151 0 239 12q109 15 181 56q155 87 221 356h53z" />
    <glyph glyph-name="bracketleft" unicode="[" horiz-adv-x="681" 
d="M616 1321h-129q-86 0 -111 -26q-26 -27 -26 -117v-1307q0 -59 14 -79q20 -30 88 -30h164v-67h-479v1694h479v-68z" />
    <glyph glyph-name="backslash" unicode="\" horiz-adv-x="569" 
d="M-51 1415h190l482 -1454h-189z" />
    <glyph glyph-name="bracketright" unicode="]" horiz-adv-x="681" 
d="M65 -238h164q70 0 89 29q13 19 13 80v1307q0 90 -25 117q-26 26 -112 26h-129v68h479v-1694h-479v67z" />
    <glyph glyph-name="asciicircum" unicode="^" horiz-adv-x="1189" 
d="M149 637l365 747h163l365 -747h-182l-265 557l-264 -557h-182z" />
    <glyph glyph-name="underscore" unicode="_" 
d="M1024 -154v-102h-1024v102h1024z" />
    <glyph glyph-name="grave" unicode="`" horiz-adv-x="681" 
d="M505 1370q-14 -9 -26 -18l-33 -24q-42 -33 -74 -65q-90 -89 -90 -163q0 -45 41 -45l17 2q14 2 28 2q56 0 98 -33q54 -43 54 -129q0 -168 -168 -168q-103 0 -161 77q-48 65 -48 157q0 90 38 171q32 68 91 129q47 48 112 92l99 60z" />
    <glyph glyph-name="a" unicode="a" 
d="M999 88q-99 -117 -225 -117q-94 0 -135 51q-16 18 -25 46l-12 47q-86 -87 -194 -122q-39 -13 -79 -18l-30 -3l-23 -1q-85 0 -149 52q-76 60 -76 167q0 143 166 239q68 39 176 77q44 16 102 34q38 13 107 33v150q0 88 -33 129q-42 51 -147 51q-121 0 -121 -74q0 -14 9 -28
q4 -6 10 -13l23 -30l10 -18q9 -23 9 -50q0 -38 -28 -71q-38 -44 -109 -44l-13 1q-9 0 -18 2q-12 1 -22 5q-13 4 -24 10q-58 33 -58 122q0 104 96 175q106 79 287 79t290 -68q119 -75 119 -213l1 -548q1 -9 5 -17q11 -21 40 -21q12 0 20 9l21 20zM600 502q-11 -3 -24 -7
l-35 -11q-47 -18 -84 -43q-48 -33 -75 -75q-32 -50 -32 -112q0 -54 25 -92q28 -45 79 -45q46 0 89 31q15 12 32 29l13 15l6 6q1 1 6 7v297z" />
    <glyph glyph-name="b" unicode="b" horiz-adv-x="1138" 
d="M34 1384h397v-530q10 10 15 16l19 17q25 22 51 38q73 44 165 44q174 0 281 -137q104 -133 104 -338q0 -217 -112 -359q-128 -164 -365 -164q-57 0 -116 24q-76 30 -140 93l-162 -115h-24v1244q0 66 -29 90q-19 16 -84 28v49zM431 199q0 -59 28 -103q37 -59 112 -59
q97 0 143 92q51 102 51 334l-1 52l-4 61q-6 74 -23 130q-46 152 -162 152q-62 0 -100 -43q-15 -17 -27 -40l-17 -38v-538z" />
    <glyph glyph-name="c" unicode="c" horiz-adv-x="909" 
d="M880 186q-152 -215 -391 -215q-192 0 -317 140q-121 135 -121 329q0 144 48 253q43 97 121 163q69 57 158 87q77 26 156 26q121 0 214 -57q104 -63 104 -167q0 -82 -64 -114q-11 -6 -24 -10l-23 -5q-9 -1 -18 -1l-10 -1q-77 0 -101 64q-9 26 -12 68q-2 16 -2 39v40
q0 41 -31 63q-12 9 -27 13q-13 4 -26 4q-104 0 -147 -137q-16 -50 -22 -114q-5 -45 -5 -93q0 -209 82 -334q79 -118 202 -118q78 0 135 36q35 22 85 78z" />
    <glyph glyph-name="d" unicode="d" horiz-adv-x="1138" 
d="M1093 41q-196 -24 -247 -32q-59 -10 -152 -36v133q-68 -71 -112 -96q-69 -39 -173 -39q-138 0 -243 124q-115 135 -115 347q0 251 125 397q112 130 270 130q81 0 149 -44q26 -16 52 -41l41 -42v375q0 75 -36 97q-16 10 -48 15l-72 6v49h441v-1177q0 -55 16 -79
q27 -37 104 -40v-47zM688 727q0 3 -9 21l-28 43q-51 63 -123 63q-100 0 -141 -117q-18 -50 -26 -122q-7 -62 -7 -144v-51q1 -32 3 -59q4 -74 18 -127q37 -148 143 -148q61 0 120 63q50 54 50 80v498z" />
    <glyph glyph-name="e" unicode="e" horiz-adv-x="909" 
d="M610 578l-1 32l-3 84q-4 76 -14 115q-12 42 -33 65q-29 31 -78 31q-68 0 -101 -58q-44 -76 -44 -269h274zM872 227q-168 -256 -405 -256q-171 0 -286 120q-130 136 -130 382q0 223 123 362q118 134 299 134q124 0 210 -58q72 -48 116 -134q34 -67 50 -156l9 -67
q1 -14 3 -29q0 -10 1 -23h-516q3 -74 14 -134q13 -71 38 -123q62 -126 194 -126q78 0 146 51q25 18 50 45l35 41z" />
    <glyph glyph-name="f" unicode="f" horiz-adv-x="681" 
d="M28 49q64 8 84 24q33 25 33 99v682h-117v90h117l1 77q1 45 5 81q10 91 41 152q38 76 111 116q83 45 214 45q107 0 187 -49q92 -58 92 -156q0 -127 -129 -127q-58 0 -93 40q-28 33 -28 71q0 31 23 69l4 7q3 5 4 6q5 8 7 13q7 14 7 24q0 22 -21 32l-20 5q-10 2 -20 2
q-64 0 -87 -58q-9 -22 -12 -52q-1 -12 -1 -25l-1 -273h179v-90h-179v-643q0 -102 34 -132q30 -27 134 -30v-49h-569v49z" />
    <glyph glyph-name="g" unicode="g" 
d="M821 815l9 -9l12 -14q16 -19 28 -40q33 -61 33 -140q0 -209 -215 -278q-45 -14 -77 -16q-32 -3 -181 -3q-35 0 -72 -28q-43 -32 -43 -74q0 -71 205 -74l133 -2q23 0 43 -2q27 -2 52 -6q63 -10 111 -32q130 -62 130 -210q0 -173 -167 -249q-70 -33 -169 -47
q-85 -13 -190 -13q-406 0 -406 186q0 137 188 154v4q-82 30 -114 58q-45 40 -45 112q0 87 86 156q67 54 153 78v4q-250 91 -250 313q0 133 105 224q116 102 315 102q113 0 226 -45h266v-109h-166zM309 -106q-72 -58 -72 -115q0 -83 112 -117q37 -11 84 -16l92 -2q26 0 50 2
q64 4 113 16q139 34 139 127q0 105 -164 105h-354zM378 452q31 -79 113 -79q86 0 116 88q12 35 16 85q3 35 3 91v38q0 23 -2 43q-3 51 -15 88q-30 99 -118 99q-84 0 -114 -86q-13 -34 -17 -86q-4 -38 -4 -96q0 -127 22 -185z" />
    <glyph glyph-name="h" unicode="h" horiz-adv-x="1138" 
d="M1093 0h-481v49q96 9 96 117v519q-1 15 -2 27q-4 33 -13 56q-26 63 -98 63q-54 0 -116 -52q-54 -46 -54 -66v-547q0 -48 15 -72q23 -38 86 -45v-49h-494v49q64 13 82 29q27 25 27 94v1045q0 67 -25 89q-17 16 -84 29v49h393v-575q137 160 293 160q105 0 180 -60
q95 -77 95 -229v-523q0 -10 1 -19q3 -23 11 -40q23 -49 88 -49v-49z" />
    <glyph glyph-name="i" unicode="i" horiz-adv-x="569" 
d="M521 0h-489v49q65 16 82 32q27 24 27 91v602q0 101 -109 121v49h393v-778q0 -107 96 -117v-49zM282 1415q158 0 158 -160q0 -157 -158 -157q-160 0 -160 157q0 160 160 160z" />
    <glyph glyph-name="j" unicode="j" horiz-adv-x="681" 
d="M532 -47q-1 -34 -5 -64q-11 -80 -42 -139q-39 -75 -112 -117q-86 -49 -217 -49q-101 0 -178 48q-94 58 -94 161q0 121 127 121q57 0 92 -39q29 -33 29 -72q0 -28 -24 -68l-8 -14l-8 -14q-7 -14 -7 -24q0 -12 9 -20q8 -6 21 -10q10 -3 22 -4l13 -1q99 0 99 155v971
q0 76 -38 100q-16 11 -41 15l-50 6v49h413zM380 1415q159 0 159 -160q0 -157 -159 -157q-158 0 -158 157q0 160 158 160z" />
    <glyph glyph-name="k" unicode="k" horiz-adv-x="1138" 
d="M1051 897q-119 -21 -179 -70q-43 -36 -101 -89q-72 -67 -108 -109l398 -549q22 -31 51 -31v-49h-479v49q13 0 25 2q16 1 29 5q32 10 32 32q0 15 -16 43q-12 20 -33 49l-195 275l-47 -49v-234q0 -70 16 -90q19 -22 90 -33v-49h-489v49q55 0 80 43q18 32 18 80v1056
q0 9 -1 17q-3 22 -11 39q-23 51 -86 51v49h383v-882l262 262q43 43 43 74q0 41 -121 59v47h439v-47z" />
    <glyph glyph-name="l" unicode="l" horiz-adv-x="569" 
d="M521 0h-489v49q55 0 83 43q21 33 21 80v1056q0 8 -2 17q-3 22 -12 39q-26 51 -90 51v49h389v-1212q0 -123 100 -123v-49z" />
    <glyph glyph-name="m" unicode="m" horiz-adv-x="1705" 
d="M1666 0h-487v49q66 3 88 42q8 15 11 36q1 9 1 20v540q0 15 -1 28q-3 33 -13 55q-24 61 -96 61q-57 0 -119 -53q-53 -46 -53 -65v-547q0 -109 96 -117v-49h-479v49q64 4 86 43q8 15 10 37q1 8 2 19v514q0 35 -2 54q-3 32 -12 55q-25 60 -99 60q-57 0 -118 -53
q-52 -45 -52 -65v-547q0 -107 95 -117v-49h-492v49q61 11 82 29q31 26 31 94v602q0 71 -34 97q-14 11 -36 17q-9 2 -21 4q-5 1 -11 1l-11 2v49h391v-147h4l14 21q9 14 20 26q26 33 58 57q87 68 199 68q122 0 193 -65q26 -24 47 -58q8 -13 16 -29l12 -26q136 178 303 178
q106 0 180 -60q95 -77 95 -229v-534q0 -11 2 -20q2 -22 11 -37q22 -38 89 -40v-49z" />
    <glyph glyph-name="n" unicode="n" horiz-adv-x="1138" 
d="M1104 0h-481v49q96 9 96 117v519q-1 15 -2 27q-4 33 -13 56q-26 63 -98 63q-54 0 -116 -52q-54 -46 -54 -66v-547q0 -48 15 -72q23 -38 86 -45v-49h-494v49q64 13 82 29q27 25 27 94v602q0 105 -109 121v49h391v-147h4l14 21q9 14 19 26q27 33 58 57q87 68 200 68
q105 0 180 -60q95 -77 95 -229v-533q0 -11 1 -20q3 -21 11 -36q22 -39 88 -42v-49z" />
    <glyph glyph-name="o" unicode="o" 
d="M352 387q1 -45 3 -79q4 -85 18 -139q33 -134 143 -134q98 0 132 119q15 53 21 137q5 68 5 178q0 242 -33 336q-35 100 -127 100q-103 0 -138 -130q-15 -55 -20 -139q-4 -62 -4 -167v-82zM176 818q131 151 338 151q200 0 331 -143q130 -142 130 -357q0 -209 -126 -351
q-131 -147 -335 -147q-207 0 -338 149q-125 142 -125 349q0 206 125 349z" />
    <glyph glyph-name="p" unicode="p" horiz-adv-x="1138" 
d="M437 211q0 -2 9 -20l28 -43q51 -62 121 -62q109 0 150 142q15 52 21 122l3 58v49q0 80 -4 134q-5 76 -20 128q-36 133 -136 133q-61 0 -120 -61q-52 -53 -52 -82v-498zM597 -420h-559v49q115 18 115 119v1026q0 107 -111 121v49h391v-135h4q36 69 82 105q70 55 178 55
q147 0 252 -112q123 -131 123 -361q0 -244 -118 -388q-110 -135 -275 -135q-77 0 -138 36q-37 23 -104 87v-289q0 -111 44 -151q33 -29 116 -33v-43z" />
    <glyph glyph-name="q" unicode="q" horiz-adv-x="1138" 
d="M700 739q0 68 -33 113q-38 51 -104 51q-114 0 -161 -144q-19 -57 -27 -135q-7 -61 -7 -137q0 -405 193 -405q65 0 108 55q14 18 23 40q8 17 8 24v538zM1097 -420h-547v51l71 15q30 9 46 24q33 31 33 131v285q-57 -62 -131 -92q-57 -23 -113 -23q-166 0 -270 119
q-117 133 -117 381q0 198 117 339q131 159 348 159q74 0 142 -34q55 -27 118 -83l160 115h30v-1219q0 -67 29 -91q19 -15 84 -28v-49z" />
    <glyph glyph-name="r" unicode="r" horiz-adv-x="909" 
d="M604 0h-545v49q61 11 80 28q31 26 31 95v602q0 69 -33 96q-21 17 -78 25v49h387v-162h4q22 32 42 56q28 36 59 61q80 70 167 70q92 0 138 -62q32 -44 32 -98q0 -51 -27 -89q-35 -48 -104 -48q-66 0 -111 60q-45 61 -71 61q-13 0 -32 -10q-22 -11 -40 -32
q-49 -55 -49 -153v-387q0 -95 28 -125q29 -32 122 -37v-49z" />
    <glyph glyph-name="s" unicode="s" horiz-adv-x="796" 
d="M645 668q-69 233 -254 233q-131 0 -131 -117q0 -68 75 -118q28 -19 77 -42q9 -5 21 -10l67 -31q53 -25 87 -46q46 -29 77 -60q75 -77 75 -190q0 -145 -89 -231q-88 -85 -232 -85q-62 0 -162 30l-64 20q-29 10 -35 10q-26 0 -55 -58h-51v338h57l19 -65q18 -51 45 -91
q36 -51 86 -80q60 -34 139 -34q71 0 111 45q35 38 35 90q0 62 -77 112q-28 19 -78 43l-89 43q-54 27 -90 49q-46 30 -78 61q-76 77 -76 184q0 134 92 218q91 83 234 83q55 0 131 -23l27 -8q16 -5 24 -7q24 -7 37 -7q24 0 37 14q5 5 9 13q2 4 5 14h45v-297h-51z" />
    <glyph glyph-name="t" unicode="t" horiz-adv-x="681" 
d="M624 854h-193v-636l2 -18q2 -21 9 -37q18 -42 69 -42q39 0 72 37q13 14 25 35l20 34l51 -22q-5 -10 -8 -17q-5 -10 -10 -18l-21 -38q-27 -44 -59 -75q-82 -82 -203 -82q-141 0 -198 92q-19 31 -28 72q-3 14 -4 30q-1 6 -1 12l-1 673h-106v55q92 79 158 151q85 92 182 230
h51v-346h193v-90z" />
    <glyph glyph-name="u" unicode="u" horiz-adv-x="1138" 
d="M1099 41q-285 -30 -397 -68v133l-52 -42q-33 -26 -65 -44q-85 -49 -174 -49q-145 0 -218 89q-61 75 -61 198v516q0 104 -100 121v49h385v-717q1 -13 2 -24q3 -28 13 -47q26 -52 100 -52q51 0 98 31q18 12 38 29l32 31v579q0 76 -38 100q-15 11 -40 15l-49 6v49h411v-737
q0 -116 115 -119v-47z" />
    <glyph glyph-name="v" unicode="v" 
d="M993 895q-44 -6 -62 -20q-29 -23 -57 -93l-327 -811h-53l-246 607q-29 71 -72 163l-47 99q-24 45 -86 55v49h512v-49q-109 -10 -109 -55q0 -8 3 -16l178 -462l147 373q23 55 23 92q0 44 -37 58q-15 6 -37 8l-39 2v49h309v-49z" />
    <glyph glyph-name="w" unicode="w" horiz-adv-x="1478" 
d="M1448 895q-37 -8 -53 -21q-26 -21 -50 -81l-317 -822h-47l-205 621h-10l-250 -621h-49l-303 766q-40 100 -59 125q-18 25 -58 33v49h455v-49l-12 -2q-7 -1 -13 -2q-15 -3 -25 -8q-28 -15 -28 -49q0 -26 47 -150l125 -324l139 351q-32 108 -43 135q-17 40 -90 49v49h479
v-49q-98 -8 -98 -51q0 -15 14 -69l74 -266q23 -82 35 -134h4q17 48 48 129q6 14 13 34l81 215q18 51 18 66q0 65 -99 76v49h277v-49z" />
    <glyph glyph-name="x" unicode="x" 
d="M991 0h-494v49q92 4 92 43q0 26 -37 84l-41 61q-39 56 -75 113l-42 -53l-55 -73q-30 -43 -47 -72q-20 -35 -20 -50q0 -33 38 -45q14 -4 34 -6l30 -2v-49h-346v49q69 8 116 54q51 50 249 309l-263 403q-46 71 -106 80v49h512v-49q-96 0 -96 -41q0 -12 18 -46
q16 -28 43 -69q22 -34 48 -70q23 -31 36 -48q114 145 133 173q13 20 16 30q3 7 3 20q0 43 -105 51v49h344v-49q-91 -13 -143 -80l-207 -258l303 -467q20 -28 62 -41v-49z" />
    <glyph glyph-name="y" unicode="y" 
d="M982 895q-42 -6 -61 -20q-31 -24 -58 -93l-341 -908q-18 -47 -33 -80q-34 -79 -66 -121q-69 -93 -203 -93q-91 0 -144 55q-44 47 -44 105l1 14l3 19q5 25 18 44q34 56 113 56q61 0 92 -38q23 -29 23 -66q0 -11 -3 -23l-3 -14q0 -11 8 -22q10 -13 27 -13q45 0 88 67
q16 24 29 56q11 24 18 45l37 108l-246 605q-29 71 -72 163l-47 99q-24 45 -86 55v49h512v-49q-109 -8 -109 -55q0 -14 14 -50q5 -14 13 -34l162 -414l148 418q4 13 7 23q7 24 7 44q0 44 -37 58q-15 6 -37 8l-39 2v49h309v-49z" />
    <glyph glyph-name="z" unicode="z" horiz-adv-x="909" 
d="M827 0h-784v51l479 828l-155 -5q-70 -6 -111 -25q-88 -41 -125 -196h-53l14 291h760v-53l-473 -825h59q114 0 180 20q75 29 130 113q20 33 36 70q13 32 19 59h57z" />
    <glyph glyph-name="braceleft" unicode="{" horiz-adv-x="806" 
d="M264 297q0 105 -43 155q-47 54 -176 83q129 28 176 82q43 50 43 155v367q0 175 114 239q52 29 136 41q71 11 182 11v-25q-217 -40 -217 -254v-350q0 -119 -42 -173q-51 -65 -191 -91v-5q140 -26 191 -91q42 -54 42 -173v-350q0 -214 217 -252v-24q-111 0 -182 10
q-84 12 -136 41q-114 64 -114 237v367z" />
    <glyph glyph-name="bar" unicode="|" horiz-adv-x="450" 
d="M315 1602v-2048h-180v2048h180z" />
    <glyph glyph-name="braceright" unicode="}" horiz-adv-x="806" 
d="M110 -334q217 40 217 254v350q0 119 42 173q51 65 192 92v4q-141 26 -192 91q-42 55 -42 173v350q0 214 -217 252v25q111 0 182 -11q84 -12 136 -41q114 -63 114 -237v-367q0 -105 43 -155q47 -54 176 -82q-129 -29 -176 -83q-43 -50 -43 -155v-367q0 -175 -114 -239
q-52 -29 -136 -41q-70 -10 -182 -10v24z" />
    <glyph glyph-name="asciitilde" unicode="~" horiz-adv-x="1064" 
d="M1005 539q-29 -42 -48 -64q-28 -34 -55 -57q-68 -56 -153 -56q-52 0 -107 20q-41 15 -102 48q-59 33 -107 50q-64 22 -128 22q-61 0 -108 -47q-34 -35 -64 -101l-74 144q41 77 93 120q70 56 163 56q48 0 111 -20q47 -15 116 -46l112 -49q62 -24 97 -24q55 0 103 46
q30 29 77 101z" />
    <glyph glyph-name="dieresis" unicode="&#xa8;" 
 />
    <glyph glyph-name="copyright" unicode="&#xa9;" horiz-adv-x="1529" 
d="M257 172q-204 209 -204 514q0 307 204 517q206 212 509 212q302 0 507 -212q203 -210 203 -517q0 -305 -203 -514q-205 -211 -507 -211q-303 0 -509 211zM1168 251q163 181 163 435q0 256 -162 438q-165 185 -403 185q-239 0 -405 -185q-163 -182 -163 -438
q0 -254 163 -435q166 -183 405 -183q237 0 402 183zM1114 524l-33 -151q-2 -22 -57 -45l-88 -22q-71 -15 -131 -15q-203 0 -320 103q-125 109 -125 315q0 155 102 268q58 64 143 98q94 39 216 39q70 0 126 -12q21 -5 45 -13l42 -14q45 -14 45 -43v-147h-39q-18 78 -64 123
q-58 59 -157 59q-122 0 -187 -97q-61 -91 -63 -251v-10q0 -170 57 -264q65 -107 199 -107q87 0 153 54q59 47 97 132h39z" />
    <glyph glyph-name="registered" unicode="&#xae;" horiz-adv-x="1529" 
d="M257 172q-204 209 -204 514q0 307 204 517q206 212 509 212q302 0 507 -212q203 -210 203 -517q0 -305 -203 -514q-205 -211 -507 -211q-303 0 -509 211zM1168 251q163 181 163 435q0 256 -162 438q-165 185 -403 185q-239 0 -405 -185q-163 -182 -163 -438
q0 -254 163 -435q166 -183 405 -183q237 0 402 183zM424 1090h395q103 0 165 -48q70 -52 70 -151q0 -158 -163 -213l118 -168q82 -115 144 -174v-23h-166q-38 0 -98 109q-10 18 -28 52q-1 2 -4 7l-27 51q-39 72 -72 123h-76v-223q0 -52 12 -64q15 -13 82 -18v-37h-352v37
q67 5 81 18q13 12 13 64v539q0 54 -13 65q-14 14 -81 17v37zM682 700h71q67 0 100 56q27 47 27 127q0 161 -125 161h-73v-344z" />
    <glyph glyph-name="acute" unicode="&#xb4;" 
 />
    <glyph glyph-name="paragraph" unicode="&#xb6;" 
d="M929 1435v-70h-127v-1365h-82v1365h-166v-1365h-84v738q-174 8 -275.5 102.5t-101.5 245.5q0 157 107.5 253t285.5 96h443z" />
    <glyph glyph-name="onequarter" unicode="&#xbc;" horiz-adv-x="1536" 
d="M1521 313v-135h-84v-178h-192v178h-330v137q41 62 97 137l109 139l210 255h106v-533h84zM1247 666h-4l-273 -349v-4h277v353zM1374 1409l-899 -1434h-119l903 1434h115zM559 563h-498v41h10q98 0 128 33q20 23 20 90l-1 479q-1 16 -6 27q-11 31 -44 31q-27 0 -111 -31v43
l336 133h22v-690q0 -67 23 -88q28 -27 121 -27v-41z" />
    <glyph glyph-name="onehalf" unicode="&#xbd;" horiz-adv-x="1536" 
d="M1289 1409l-900 -1434h-118l903 1434h115zM488 563h-498v41h10q98 0 128 33q20 23 20 90l-1 479q-1 16 -6 27q-11 31 -44 31q-27 0 -111 -31v43l336 133h22v-690q0 -67 23 -88q28 -27 121 -27v-41zM1526 0h-553v29l150 150q74 78 119 135q108 137 108 235q0 17 -6 39
q-7 29 -22 53q-42 66 -130 66q-15 0 -29 -3q-21 -4 -40 -14q-50 -27 -82 -94h-49q14 38 30 68q25 48 55 83q85 99 207 99q87 0 154 -45q92 -61 92 -185v-16q-1 -11 -2 -21q-2 -13 -6 -27q-4 -15 -11 -31q-34 -81 -132 -169l-191 -178v-10h176q104 0 135 16q27 15 56 80h33z
" />
    <glyph glyph-name="threequarters" unicode="&#xbe;" horiz-adv-x="1536" 
d="M1370 1409l-899 -1434h-119l903 1434h115zM74 1223q35 71 105 122q87 64 194 64q223 0 223 -164q0 -63 -33 -102q-13 -16 -33 -29l-37 -22v-9q156 -51 156 -213q0 -132 -111 -225q-115 -96 -290 -96h-14q-13 1 -25 2q-38 4 -69 13q-93 28 -93 98q0 58 82 81q38 0 72 -18
q24 -13 56 -42q3 -2 7 -6q5 -5 6 -5l37 -31q28 -18 55 -18q134 0 134 133q0 107 -96 173q-35 24 -87 45l-84 30v20l54 17q33 13 56 29q62 42 62 116q0 125 -141 125q-50 0 -94 -40q-16 -14 -31 -34q-6 -7 -11 -15l-9 -14zM1501 313v-135h-84v-178h-192v178h-330v137
q41 62 97 137l108 139l211 255h106v-533h84zM1227 666h-4l-273 -349v-4h277v353z" />
    <glyph glyph-name="Eth" unicode="&#xd0;" horiz-adv-x="1478" 
d="M764 668h-234v-478q0 -118 117 -118q191 0 291 126q118 152 118 494q0 89 -12 176q-18 116 -55 205q-46 110 -121 171q-87 71 -211 71q-78 0 -106 -25q-21 -17 -21 -55v-471h234v-96zM12 764h186v432q0 83 -55 112q-21 12 -54 18q-13 2 -30 4l-31 3v51h625q206 0 361 -60
q140 -55 234 -157q85 -92 127 -216q38 -112 38 -238q0 -303 -175 -492q-195 -209 -562 -221h-648v51q170 0 170 135v482h-186v96z" />
    <glyph glyph-name="Agrave" unicode="&#xc0;" horiz-adv-x="1478" 
d="M1411 0h-664v51q105 9 130 19q34 14 34 61q0 36 -36 132q-14 35 -31 78q-12 27 -27 62h-461q-90 -231 -90 -264q0 -51 58 -71q22 -8 54 -12l56 -5v-51h-416v51q76 12 119 69q19 26 40 71l496 1222h58l456 -1077q40 -94 59 -134q27 -58 48 -88q44 -63 108 -63h9v-51z
M786 483l-207 498l-192 -498h399zM774 1511l-291 181q-82 49 -82 108q0 12 5 26q5 17 16 30q28 34 79 34q58 0 107 -57l280 -322h-114z" />
    <glyph glyph-name="Aacute" unicode="&#xc1;" horiz-adv-x="1478" 
d="M1411 0h-664v51q105 9 130 19q34 14 34 61q0 36 -36 132q-14 35 -31 78q-12 27 -27 62h-461q-90 -231 -90 -264q0 -51 58 -71q22 -8 54 -12l56 -5v-51h-416v51q76 12 119 69q19 26 40 71l496 1222h58l456 -1077q40 -94 59 -134q27 -58 48 -88q44 -63 108 -63h9v-51z
M786 483l-207 498l-192 -498h399zM675 1511h-114l280 322q31 35 64 49q12 5 24 7q9 1 19 1q37 0 64 -17q36 -24 36 -73q0 -57 -82 -108z" />
    <glyph glyph-name="uni1EA2" unicode="&#x1ea2;" horiz-adv-x="1478" 
d="M1411 0h-664v51q105 9 130 19q34 14 34 61q0 36 -36 132q-14 35 -31 78q-12 27 -27 62h-461q-90 -231 -90 -264q0 -51 58 -71q22 -8 54 -12l56 -5v-51h-416v51q76 12 119 69q19 26 40 71l496 1222h58l456 -1077q40 -94 59 -134q27 -58 48 -88q44 -63 108 -63h9v-51z
M786 483l-207 498l-192 -498h399zM652 1475v13l-2 36q0 27 12 58l11 22l13 24q17 32 26 59q10 34 10 76q0 19 -2 36q-3 25 -10 40q-19 44 -55 44h-4q-3 0 -7 -1q-7 -1 -16 -4q-16 -6 -16 -27q0 -10 5 -18l9 -10q-6 -4 0 0q7 -8 8 -9q6 -8 7 -10q7 -15 7 -31q0 -33 -28 -54
q-18 -14 -46 -14q-44 0 -64 27q-19 25 -19 54q0 18 8 40q8 24 31 48q21 23 62 40q42 16 102 16q8 0 18 -1q14 -1 27 -3q39 -7 67 -21q43 -22 63 -51q28 -41 28 -94q0 -44 -29 -85q-22 -31 -66 -59q-71 -44 -81 -65q-10 -19 -10 -76h-59z" />
    <glyph glyph-name="Atilde" unicode="&#xc3;" horiz-adv-x="1478" 
d="M1411 0h-664v51q105 9 130 19q34 14 34 61q0 36 -36 132q-14 35 -31 78q-12 27 -27 62h-461q-90 -231 -90 -264q0 -51 58 -71q22 -8 54 -12l56 -5v-51h-416v51q76 12 119 69q19 26 40 71l496 1222h58l456 -1077q40 -94 59 -134q27 -58 48 -88q44 -63 108 -63h9v-51z
M786 483l-207 498l-192 -498h399zM352 1554q2 9 3 15l14 56q15 48 38 84q65 101 186 101q38 0 88 -16l140 -59q55 -25 82 -25q49 0 78 37q10 14 19 33l11 30h88l-21 -70q-17 -50 -41 -86q-68 -104 -185 -104q-58 0 -123 29l-60 27q-77 33 -93 39l-20 5l-18 1q-44 0 -74 -35
q-24 -28 -26 -62h-86z" />
    <glyph glyph-name="uni1EA0" unicode="&#x1ea0;" horiz-adv-x="1478" 
d="M1411 0h-664v51q105 9 130 19q34 14 34 61q0 36 -36 132q-14 35 -31 78q-12 27 -27 62h-461q-90 -231 -90 -264q0 -51 58 -71q22 -8 54 -12l56 -5v-51h-416v51q76 12 119 69q19 26 40 71l496 1222h58l456 -1077q40 -94 59 -134q27 -58 48 -88q44 -63 108 -63h9v-51z
M786 483l-207 498l-192 -498h399zM493 -229q38 47 97 47q131 0 131 -135q0 -131 -131 -131q-61 0 -98 47q-32 40 -32 86q0 45 33 86z" />
    <glyph glyph-name="Acircumflex" unicode="&#xc2;" horiz-adv-x="1478" 
d="M1411 0h-664v51q105 9 130 19q34 14 34 61q0 36 -36 132q-14 35 -31 78q-12 27 -27 62h-461q-90 -231 -90 -264q0 -51 58 -71q22 -8 54 -12l56 -5v-51h-416v51q76 12 119 69q19 26 40 71l496 1222h58l456 -1077q40 -94 59 -134q27 -58 48 -88q44 -63 108 -63h9v-51z
M786 483l-207 498l-192 -498h399zM705 1712l-230 -201h-115l250 361h189l252 -361h-117z" />
    <glyph glyph-name="uni1EA6" unicode="&#x1ea6;" horiz-adv-x="1478" 
d="M1411 0h-664v51q105 9 130 19q34 14 34 61q0 36 -36 132q-14 35 -31 78q-12 27 -27 62h-461q-90 -231 -90 -264q0 -51 58 -71q22 -8 54 -12l56 -5v-51h-416v51q76 12 119 69q19 26 40 71l496 1222h58l456 -1077q40 -94 59 -134q27 -58 48 -88q44 -63 108 -63h9v-51z
M786 483l-207 498l-192 -498h399zM1004 1803l-291 181q-82 49 -82 108q0 12 5 26q5 17 16 30q28 34 79 34q58 0 107 -57l280 -322h-114zM705 1712l-230 -201h-115l250 361h189l252 -361h-117z" />
    <glyph glyph-name="uni1EA4" unicode="&#x1ea4;" horiz-adv-x="1478" 
d="M1411 0h-664v51q105 9 130 19q34 14 34 61q0 36 -36 132q-14 35 -31 78q-12 27 -27 62h-461q-90 -231 -90 -264q0 -51 58 -71q22 -8 54 -12l56 -5v-51h-416v51q76 12 119 69q19 26 40 71l496 1222h58l456 -1077q40 -94 59 -134q27 -58 48 -88q44 -63 108 -63h9v-51z
M786 483l-207 498l-192 -498h399zM1012 1813h-114l280 322q31 35 64 49q12 5 24 7q9 1 19 1q37 0 64 -17q36 -24 36 -73q0 -57 -82 -108zM705 1712l-230 -201h-115l250 361h189l252 -361h-117z" />
    <glyph glyph-name="uni1EA8" unicode="&#x1ea8;" horiz-adv-x="1478" 
d="M1411 0h-664v51q105 9 130 19q34 14 34 61q0 36 -36 132q-14 35 -31 78q-12 27 -27 62h-461q-90 -231 -90 -264q0 -51 58 -71q22 -8 54 -12l56 -5v-51h-416v51q76 12 119 69q19 26 40 71l496 1222h58l456 -1077q40 -94 59 -134q27 -58 48 -88q44 -63 108 -63h9v-51z
M786 483l-207 498l-192 -498h399zM954 1767v13l-2 36q0 27 12 58l11 22l13 24q17 32 26 59q10 34 10 76q0 19 -2 36q-3 25 -10 40q-19 44 -55 44h-4q-3 0 -7 -1q-7 -1 -16 -4q-16 -6 -16 -27q0 -10 5 -18l9 -10q-6 -4 0 0q7 -8 8 -9q6 -8 7 -10q7 -15 7 -31q0 -33 -28 -54
q-18 -14 -46 -14q-44 0 -64 27q-19 25 -19 54q0 18 8 40q8 24 31 48q21 23 62 40q42 16 102 16q8 0 18 -1q14 -1 27 -3q39 -7 67 -21q43 -22 63 -51q28 -41 28 -94q0 -44 -29 -85q-22 -31 -66 -59q-71 -44 -81 -65q-10 -19 -10 -76h-59zM705 1712l-230 -201h-115l250 361
h189l252 -361h-117z" />
    <glyph glyph-name="uni1EAA" unicode="&#x1eaa;" horiz-adv-x="1478" 
d="M1411 0h-664v51q105 9 130 19q34 14 34 61q0 36 -36 132q-14 35 -31 78q-12 27 -27 62h-461q-90 -231 -90 -264q0 -51 58 -71q22 -8 54 -12l56 -5v-51h-416v51q76 12 119 69q19 26 40 71l496 1222h58l456 -1077q40 -94 59 -134q27 -58 48 -88q44 -63 108 -63h9v-51z
M786 483l-207 498l-192 -498h399zM414 1910q2 9 3 15l14 56q15 48 38 84q65 101 186 101q38 0 88 -16l140 -59q55 -25 82 -25q49 0 78 37q10 14 19 33l11 30h88l-21 -70q-17 -50 -41 -86q-68 -104 -185 -104q-58 0 -123 29l-60 27q-77 33 -93 39l-20 5l-18 1q-44 0 -74 -35
q-24 -28 -26 -62h-86zM705 1712l-230 -201h-115l250 361h189l252 -361h-117z" />
    <glyph glyph-name="uni1EAC" unicode="&#x1eac;" horiz-adv-x="1478" 
d="M1411 0h-664v51q105 9 130 19q34 14 34 61q0 36 -36 132q-14 35 -31 78q-12 27 -27 62h-461q-90 -231 -90 -264q0 -51 58 -71q22 -8 54 -12l56 -5v-51h-416v51q76 12 119 69q19 26 40 71l496 1222h58l456 -1077q40 -94 59 -134q27 -58 48 -88q44 -63 108 -63h9v-51z
M786 483l-207 498l-192 -498h399zM493 -229q38 47 97 47q131 0 131 -135q0 -131 -131 -131q-61 0 -98 47q-32 40 -32 86q0 45 33 86zM705 1712l-230 -201h-115l250 361h189l252 -361h-117z" />
    <glyph glyph-name="Abreve" unicode="&#x102;" horiz-adv-x="1478" 
d="M1411 0h-664v51q105 9 130 19q34 14 34 61q0 36 -36 132q-14 35 -31 78q-12 27 -27 62h-461q-90 -231 -90 -264q0 -51 58 -71q22 -8 54 -12l56 -5v-51h-416v51q76 12 119 69q19 26 40 71l496 1222h58l456 -1077q40 -94 59 -134q27 -58 48 -88q44 -63 108 -63h9v-51z
M786 483l-207 498l-192 -498h399zM1015 1833q-23 -333 -311 -333q-306 0 -309 333h90l5 -24l8 -28q11 -34 32 -58q55 -68 176 -68q112 0 168 66q21 24 34 58q8 20 17 54h90z" />
    <glyph glyph-name="uni1EB0" unicode="&#x1eb0;" horiz-adv-x="1478" 
d="M1411 0h-664v51q105 9 130 19q34 14 34 61q0 36 -36 132q-14 35 -31 78q-12 27 -27 62h-461q-90 -231 -90 -264q0 -51 58 -71q22 -8 54 -12l56 -5v-51h-416v51q76 12 119 69q19 26 40 71l496 1222h58l456 -1077q40 -94 59 -134q27 -58 48 -88q44 -63 108 -63h9v-51z
M786 483l-207 498l-192 -498h399zM738 1803l-291 181q-82 49 -82 108q0 12 5 26q5 17 16 30q28 34 79 34q58 0 107 -57l280 -322h-114zM1016 1833q-24 -333 -311 -333q-307 0 -310 333h90l5 -24l8 -28q12 -34 32 -58q56 -68 177 -68q112 0 168 66q20 24 34 58q8 20 17 54h90
z" />
    <glyph glyph-name="uni1EAE" unicode="&#x1eae;" horiz-adv-x="1478" 
d="M1411 0h-664v51q105 9 130 19q34 14 34 61q0 36 -36 132q-14 35 -31 78q-12 27 -27 62h-461q-90 -231 -90 -264q0 -51 58 -71q22 -8 54 -12l56 -5v-51h-416v51q76 12 119 69q19 26 40 71l496 1222h58l456 -1077q40 -94 59 -134q27 -58 48 -88q44 -63 108 -63h9v-51z
M786 483l-207 498l-192 -498h399zM746 1813h-114l280 322q31 35 64 49q12 5 24 7q9 1 19 1q37 0 64 -17q36 -24 36 -73q0 -57 -82 -108zM1016 1833q-24 -333 -311 -333q-307 0 -310 333h90l5 -24l8 -28q12 -34 32 -58q56 -68 177 -68q112 0 168 66q20 24 34 58q8 20 17 54
h90z" />
    <glyph glyph-name="uni1EB2" unicode="&#x1eb2;" horiz-adv-x="1478" 
d="M1411 0h-664v51q105 9 130 19q34 14 34 61q0 36 -36 132q-14 35 -31 78q-12 27 -27 62h-461q-90 -231 -90 -264q0 -51 58 -71q22 -8 54 -12l56 -5v-51h-416v51q76 12 119 69q19 26 40 71l496 1222h58l456 -1077q40 -94 59 -134q27 -58 48 -88q44 -63 108 -63h9v-51z
M786 483l-207 498l-192 -498h399zM688 1784v13l-2 36q0 27 12 58l11 22l13 24q17 32 26 59q10 34 10 76q0 19 -2 36q-3 25 -10 40q-19 44 -55 44h-4q-3 0 -7 -1q-7 -1 -16 -4q-16 -6 -16 -27q0 -10 5 -18l9 -10q-6 -4 0 0q7 -8 8 -9q6 -8 7 -10q7 -15 7 -31q0 -33 -28 -54
q-18 -14 -46 -14q-44 0 -64 27q-19 25 -19 54q0 18 8 40q8 24 31 48q21 23 62 40q42 16 102 16q8 0 18 -1q14 -1 27 -3q39 -7 67 -21q43 -22 63 -51q28 -41 28 -94q0 -44 -29 -85q-22 -31 -66 -59q-71 -44 -81 -65q-10 -19 -10 -76h-59zM1016 1833q-24 -333 -311 -333
q-307 0 -310 333h90l5 -24l8 -28q12 -34 32 -58q56 -68 177 -68q112 0 168 66q20 24 34 58q8 20 17 54h90z" />
    <glyph glyph-name="uni1EB4" unicode="&#x1eb4;" horiz-adv-x="1478" 
d="M1411 0h-664v51q105 9 130 19q34 14 34 61q0 36 -36 132q-14 35 -31 78q-12 27 -27 62h-461q-90 -231 -90 -264q0 -51 58 -71q22 -8 54 -12l56 -5v-51h-416v51q76 12 119 69q19 26 40 71l496 1222h58l456 -1077q40 -94 59 -134q27 -58 48 -88q44 -63 108 -63h9v-51z
M786 483l-207 498l-192 -498h399zM431 1892q2 9 3 15l14 56q15 48 38 84q65 101 186 101q38 0 88 -16l140 -59q55 -25 82 -25q49 0 78 37q10 14 19 33l11 30h88l-21 -70q-17 -50 -41 -86q-68 -104 -185 -104q-58 0 -123 29l-60 27q-77 33 -93 39l-20 5l-18 1q-44 0 -74 -35
q-24 -28 -26 -62h-86zM1016 1833q-24 -333 -311 -333q-307 0 -310 333h90l5 -24l8 -28q12 -34 32 -58q56 -68 177 -68q112 0 168 66q20 24 34 58q8 20 17 54h90z" />
    <glyph glyph-name="uni1EB6" unicode="&#x1eb6;" horiz-adv-x="1478" 
d="M1411 0h-664v51q105 9 130 19q34 14 34 61q0 36 -36 132q-14 35 -31 78q-12 27 -27 62h-461q-90 -231 -90 -264q0 -51 58 -71q22 -8 54 -12l56 -5v-51h-416v51q76 12 119 69q19 26 40 71l496 1222h58l456 -1077q40 -94 59 -134q27 -58 48 -88q44 -63 108 -63h9v-51z
M786 483l-207 498l-192 -498h399zM493 -229q38 47 97 47q131 0 131 -135q0 -131 -131 -131q-61 0 -98 47q-32 40 -32 86q0 45 33 86zM1016 1833q-24 -333 -311 -333q-307 0 -310 333h90l5 -24l8 -28q12 -34 32 -58q56 -68 177 -68q112 0 168 66q20 24 34 58q8 20 17 54h90z
" />
    <glyph glyph-name="Egrave" unicode="&#xc8;" horiz-adv-x="1366" 
d="M32 1384h1182v-411h-52q-33 206 -148 280q-97 62 -320 62q-150 0 -150 -96v-476h10q152 0 221 59q79 68 101 247h53v-693h-53q-18 184 -99 255q-73 63 -233 63v-496q0 -115 172 -115q84 0 151 14q80 15 145 52q154 86 243 297h57l-82 -426h-1198v51q104 11 134 30
q46 29 46 116v991q0 90 -55 121q-22 12 -57 18l-68 6v51zM745 1511l-291 181q-82 49 -82 108q0 12 5 26q5 17 16 30q28 34 79 34q58 0 107 -57l280 -322h-114z" />
    <glyph glyph-name="Eacute" unicode="&#xc9;" horiz-adv-x="1366" 
d="M32 1384h1182v-411h-52q-33 206 -148 280q-97 62 -320 62q-150 0 -150 -96v-476h10q152 0 221 59q79 68 101 247h53v-693h-53q-18 184 -99 255q-73 63 -233 63v-496q0 -115 172 -115q84 0 151 14q80 15 145 52q154 86 243 297h57l-82 -426h-1198v51q104 11 134 30
q46 29 46 116v991q0 90 -55 121q-22 12 -57 18l-68 6v51zM646 1511h-114l280 322q31 35 64 49q12 5 24 7q9 1 19 1q37 0 64 -17q36 -24 36 -73q0 -57 -82 -108z" />
    <glyph glyph-name="uni1EBA" unicode="&#x1eba;" horiz-adv-x="1366" 
d="M32 1384h1182v-411h-52q-33 206 -148 280q-97 62 -320 62q-150 0 -150 -96v-476h10q152 0 221 59q79 68 101 247h53v-693h-53q-18 184 -99 255q-73 63 -233 63v-496q0 -115 172 -115q84 0 151 14q80 15 145 52q154 86 243 297h57l-82 -426h-1198v51q104 11 134 30
q46 29 46 116v991q0 90 -55 121q-22 12 -57 18l-68 6v51zM669 1484v13l-2 36q0 27 12 58l11 22l13 24q17 32 26 59q10 34 10 76q0 19 -2 36q-3 25 -10 40q-19 44 -55 44h-4q-3 0 -7 -1q-7 -1 -16 -4q-16 -6 -16 -27q0 -10 5 -18l9 -10q-6 -4 0 0q7 -8 8 -9q6 -8 7 -10
q7 -15 7 -31q0 -33 -28 -54q-18 -14 -46 -14q-44 0 -64 27q-19 25 -19 54q0 18 8 40q8 24 31 48q21 23 62 40q42 16 102 16q8 0 18 -1q14 -1 27 -3q39 -7 67 -21q43 -22 63 -51q28 -41 28 -94q0 -44 -29 -85q-22 -31 -66 -59q-71 -44 -81 -65q-10 -19 -10 -76h-59z" />
    <glyph glyph-name="uni1EBC" unicode="&#x1ebc;" horiz-adv-x="1366" 
d="M32 1384h1182v-411h-52q-33 206 -148 280q-97 62 -320 62q-150 0 -150 -96v-476h10q152 0 221 59q79 68 101 247h53v-693h-53q-18 184 -99 255q-73 63 -233 63v-496q0 -115 172 -115q84 0 151 14q80 15 145 52q154 86 243 297h57l-82 -426h-1198v51q104 11 134 30
q46 29 46 116v991q0 90 -55 121q-22 12 -57 18l-68 6v51zM352 1554q2 9 3 15l14 56q15 48 38 84q65 101 186 101q38 0 88 -16l140 -59q55 -25 82 -25q49 0 78 37q10 14 19 33l11 30h88l-21 -70q-17 -50 -41 -86q-68 -104 -185 -104q-58 0 -123 29l-60 27q-77 33 -93 39
l-20 5l-18 1q-44 0 -74 -35q-24 -28 -26 -62h-86z" />
    <glyph glyph-name="uni1EB8" unicode="&#x1eb8;" horiz-adv-x="1366" 
d="M32 1384h1182v-411h-52q-33 206 -148 280q-97 62 -320 62q-150 0 -150 -96v-476h10q152 0 221 59q79 68 101 247h53v-693h-53q-18 184 -99 255q-73 63 -233 63v-496q0 -115 172 -115q84 0 151 14q80 15 145 52q154 86 243 297h57l-82 -426h-1198v51q104 11 134 30
q46 29 46 116v991q0 90 -55 121q-22 12 -57 18l-68 6v51zM590 -229q38 47 97 47q131 0 131 -135q0 -131 -131 -131q-61 0 -98 47q-32 40 -32 86q0 45 33 86z" />
    <glyph glyph-name="Ecircumflex" unicode="&#xca;" horiz-adv-x="1366" 
d="M32 1384h1182v-411h-52q-33 206 -148 280q-97 62 -320 62q-150 0 -150 -96v-476h10q152 0 221 59q79 68 101 247h53v-693h-53q-18 184 -99 255q-73 63 -233 63v-496q0 -115 172 -115q84 0 151 14q80 15 145 52q154 86 243 297h57l-82 -426h-1198v51q104 11 134 30
q46 29 46 116v991q0 90 -55 121q-22 12 -57 18l-68 6v51zM696 1712l-230 -201h-115l250 361h189l252 -361h-117z" />
    <glyph glyph-name="uni1EC0" unicode="&#x1ec0;" horiz-adv-x="1366" 
d="M32 1384h1182v-411h-52q-33 206 -148 280q-97 62 -320 62q-150 0 -150 -96v-476h10q152 0 221 59q79 68 101 247h53v-693h-53q-18 184 -99 255q-73 63 -233 63v-496q0 -115 172 -115q84 0 151 14q80 15 145 52q154 86 243 297h57l-82 -426h-1198v51q104 11 134 30
q46 29 46 116v991q0 90 -55 121q-22 12 -57 18l-68 6v51zM976 1813l-291 181q-82 49 -82 108q0 12 5 26q5 17 16 30q28 34 79 34q58 0 107 -57l280 -322h-114zM696 1712l-230 -201h-115l250 361h189l252 -361h-117z" />
    <glyph glyph-name="uni1EBE" unicode="&#x1ebe;" horiz-adv-x="1366" 
d="M32 1384h1182v-411h-52q-33 206 -148 280q-97 62 -320 62q-150 0 -150 -96v-476h10q152 0 221 59q79 68 101 247h53v-693h-53q-18 184 -99 255q-73 63 -233 63v-496q0 -115 172 -115q84 0 151 14q80 15 145 52q154 86 243 297h57l-82 -426h-1198v51q104 11 134 30
q46 29 46 116v991q0 90 -55 121q-22 12 -57 18l-68 6v51zM1018 1795h-114l280 322q31 35 64 49q12 5 24 7q9 1 19 1q37 0 64 -17q36 -24 36 -73q0 -57 -82 -108zM696 1712l-230 -201h-115l250 361h189l252 -361h-117z" />
    <glyph glyph-name="uni1EC2" unicode="&#x1ec2;" horiz-adv-x="1366" 
d="M32 1384h1182v-411h-52q-33 206 -148 280q-97 62 -320 62q-150 0 -150 -96v-476h10q152 0 221 59q79 68 101 247h53v-693h-53q-18 184 -99 255q-73 63 -233 63v-496q0 -115 172 -115q84 0 151 14q80 15 145 52q154 86 243 297h57l-82 -426h-1198v51q104 11 134 30
q46 29 46 116v991q0 90 -55 121q-22 12 -57 18l-68 6v51zM962 1733v13l-2 36q0 27 12 58l11 22l13 24q17 32 26 59q10 34 10 76q0 19 -2 36q-3 25 -10 40q-19 44 -55 44h-4q-3 0 -7 -1q-7 -1 -16 -4q-16 -6 -16 -27q0 -10 5 -18l9 -10q-6 -4 0 0q7 -8 8 -9q6 -8 7 -10
q7 -15 7 -31q0 -33 -28 -54q-18 -14 -46 -14q-44 0 -64 27q-19 25 -19 54q0 18 8 40q8 24 31 48q21 23 62 40q42 16 102 16q8 0 18 -1q14 -1 27 -3q39 -7 67 -21q43 -22 63 -51q28 -41 28 -94q0 -44 -29 -85q-22 -31 -66 -59q-71 -44 -81 -65q-10 -19 -10 -76h-59zM696 1712
l-230 -201h-115l250 361h189l252 -361h-117z" />
    <glyph glyph-name="uni1EC4" unicode="&#x1ec4;" horiz-adv-x="1366" 
d="M32 1384h1182v-411h-52q-33 206 -148 280q-97 62 -320 62q-150 0 -150 -96v-476h10q152 0 221 59q79 68 101 247h53v-693h-53q-18 184 -99 255q-73 63 -233 63v-496q0 -115 172 -115q84 0 151 14q80 15 145 52q154 86 243 297h57l-82 -426h-1198v51q104 11 134 30
q46 29 46 116v991q0 90 -55 121q-22 12 -57 18l-68 6v51zM405 1918q2 9 3 15l14 56q15 48 38 84q65 101 186 101q38 0 88 -16l140 -59q55 -25 82 -25q49 0 78 37q10 14 19 33l11 30h88l-21 -70q-17 -50 -41 -86q-68 -104 -185 -104q-58 0 -123 29l-60 27q-77 33 -93 39
l-20 5l-18 1q-44 0 -74 -35q-24 -28 -26 -62h-86zM696 1712l-230 -201h-115l250 361h189l252 -361h-117z" />
    <glyph glyph-name="uni1EC6" unicode="&#x1ec6;" horiz-adv-x="1366" 
d="M32 1384h1182v-411h-52q-33 206 -148 280q-97 62 -320 62q-150 0 -150 -96v-476h10q152 0 221 59q79 68 101 247h53v-693h-53q-18 184 -99 255q-73 63 -233 63v-496q0 -115 172 -115q84 0 151 14q80 15 145 52q154 86 243 297h57l-82 -426h-1198v51q104 11 134 30
q46 29 46 116v991q0 90 -55 121q-22 12 -57 18l-68 6v51zM590 -229q38 47 97 47q131 0 131 -135q0 -131 -131 -131q-61 0 -98 47q-32 40 -32 86q0 45 33 86zM696 1712l-230 -201h-115l250 361h189l252 -361h-117z" />
    <glyph glyph-name="Igrave" unicode="&#xcc;" horiz-adv-x="796" 
d="M757 0h-717v51q102 10 137 29q53 31 53 117v991q0 90 -59 121q-24 12 -61 18l-70 6v51h717v-51l-36 -1q-20 -2 -35 -4q-38 -5 -63 -17q-61 -31 -61 -123v-991q0 -89 55 -119q35 -19 140 -27v-51zM446 1511l-291 181q-82 49 -82 108q0 12 5 26q5 17 16 30q28 34 79 34
q58 0 107 -57l280 -322h-114z" />
    <glyph glyph-name="Iacute" unicode="&#xcd;" horiz-adv-x="796" 
d="M757 0h-717v51q102 10 137 29q53 31 53 117v991q0 90 -59 121q-24 12 -61 18l-70 6v51h717v-51l-36 -1q-20 -2 -35 -4q-38 -5 -63 -17q-61 -31 -61 -123v-991q0 -89 55 -119q35 -19 140 -27v-51zM347 1511h-114l280 322q31 35 63 49q13 5 25 7q9 1 19 1q37 0 64 -17
q36 -24 36 -73q0 -57 -82 -108z" />
    <glyph glyph-name="uni1EC8" unicode="&#x1ec8;" horiz-adv-x="796" 
d="M757 0h-717v51q102 10 137 29q53 31 53 117v991q0 90 -59 121q-24 12 -61 18l-70 6v51h717v-51l-36 -1q-20 -2 -35 -4q-38 -5 -63 -17q-61 -31 -61 -123v-991q0 -89 55 -119q35 -19 140 -27v-51zM369 1484v13l-2 36q0 27 12 58l11 22l13 24q17 32 26 59q10 34 10 76
q0 19 -2 36q-3 25 -10 40q-19 44 -55 44h-4q-3 0 -7 -1q-7 -1 -16 -4q-16 -6 -16 -27q0 -10 5 -18l9 -10q-6 -4 0 0q7 -8 8 -9q6 -8 7 -10q7 -15 7 -31q0 -33 -28 -54q-18 -14 -46 -14q-44 0 -64 27q-19 25 -19 54q0 18 8 40q8 24 31 48q21 23 62 40q42 16 102 16q8 0 18 -1
q14 -1 27 -3q39 -7 67 -21q43 -22 63 -51q28 -41 28 -94q0 -44 -29 -85q-22 -31 -66 -59q-71 -44 -81 -65q-10 -19 -10 -76h-59z" />
    <glyph glyph-name="Itilde" unicode="&#x128;" horiz-adv-x="796" 
d="M757 0h-717v51q102 10 137 29q53 31 53 117v991q0 90 -59 121q-24 12 -61 18l-70 6v51h717v-51l-36 -1q-20 -2 -35 -4q-38 -5 -63 -17q-61 -31 -61 -123v-991q0 -89 55 -119q35 -19 140 -27v-51zM26 1554q2 9 3 15l14 56q15 48 38 84q65 101 186 101q38 0 88 -16l140 -59
q55 -25 82 -25q49 0 78 37q10 14 19 33l11 30h88l-21 -70q-17 -50 -41 -86q-68 -104 -185 -104q-58 0 -123 29l-60 27q-77 33 -93 39l-20 5l-18 1q-44 0 -74 -35q-24 -28 -26 -62h-86z" />
    <glyph glyph-name="uni1ECA" unicode="&#x1eca;" horiz-adv-x="796" 
d="M757 0h-717v51q102 10 137 29q53 31 53 117v991q0 90 -59 121q-24 12 -61 18l-70 6v51h717v-51l-36 -1q-20 -2 -35 -4q-38 -5 -63 -17q-61 -31 -61 -123v-991q0 -89 55 -119q35 -19 140 -27v-51zM301 -229q38 47 97 47q131 0 131 -135q0 -131 -131 -131q-61 0 -98 47
q-32 40 -32 86q0 45 33 86z" />
    <glyph glyph-name="Ograve" unicode="&#xd2;" horiz-adv-x="1593" 
d="M507 1130q-38 -90 -57 -213q-17 -107 -17 -229q0 -43 2 -79q1 -52 6 -99q12 -125 42 -218q40 -120 109 -185q82 -78 204 -78t204 78q69 65 109 185q30 93 42 218q5 47 6 99q1 36 1 79q0 122 -16 229q-19 123 -57 213q-94 218 -289 218t-289 -218zM1307 1219
q214 -205 214 -531q0 -321 -205 -525q-204 -202 -520 -202t-520 202q-205 204 -205 525q0 326 214 531q206 196 511 196t511 -196zM845 1511l-291 181q-82 49 -82 108q0 12 5 26q6 17 16 30q28 34 80 34q58 0 106 -57l281 -322h-115z" />
    <glyph glyph-name="Oacute" unicode="&#xd3;" horiz-adv-x="1593" 
d="M507 1130q-38 -90 -57 -213q-17 -107 -17 -229q0 -43 2 -79q1 -52 6 -99q12 -125 42 -218q40 -120 109 -185q82 -78 204 -78t204 78q69 65 109 185q30 93 42 218q5 47 6 99q1 36 1 79q0 122 -16 229q-19 123 -57 213q-94 218 -289 218t-289 -218zM1307 1219
q214 -205 214 -531q0 -321 -205 -525q-204 -202 -520 -202t-520 202q-205 204 -205 525q0 326 214 531q206 196 511 196t511 -196zM747 1511h-115l281 322q31 35 63 49q12 5 25 7q8 1 18 1q37 0 64 -17q37 -24 37 -73q0 -57 -82 -108z" />
    <glyph glyph-name="uni1ECE" unicode="&#x1ece;" horiz-adv-x="1593" 
d="M507 1130q-38 -90 -57 -213q-17 -107 -17 -229q0 -43 2 -79q1 -52 6 -99q12 -125 42 -218q40 -120 109 -185q82 -78 204 -78t204 78q69 65 109 185q30 93 42 218q5 47 6 99q1 36 1 79q0 122 -16 229q-19 123 -57 213q-94 218 -289 218t-289 -218zM1307 1219
q214 -205 214 -531q0 -321 -205 -525q-204 -202 -520 -202t-520 202q-205 204 -205 525q0 326 214 531q206 196 511 196t511 -196zM754 1484v13l-2 36q0 27 12 58l11 22l13 24q17 32 26 59q11 34 11 76q0 19 -3 36q-3 25 -10 40q-19 44 -55 44h-4q-3 0 -7 -1q-7 -1 -16 -4
q-16 -6 -16 -27q0 -10 5 -18l9 -10q-6 -4 0 0q8 -8 8 -9q6 -8 7 -10q7 -15 7 -31q0 -33 -28 -54q-18 -14 -46 -14q-44 0 -64 27q-19 25 -19 54q0 18 8 40q8 24 31 48q21 23 62 40q42 16 102 16q8 0 18 -1q14 -1 27 -3q39 -7 67 -21q43 -22 63 -51q28 -41 28 -94
q0 -44 -29 -85q-22 -31 -66 -59q-71 -44 -81 -65q-10 -19 -10 -76h-59z" />
    <glyph glyph-name="Otilde" unicode="&#xd5;" horiz-adv-x="1593" 
d="M507 1130q-38 -90 -57 -213q-17 -107 -17 -229q0 -43 2 -79q1 -52 6 -99q12 -125 42 -218q40 -120 109 -185q82 -78 204 -78t204 78q69 65 109 185q30 93 42 218q5 47 6 99q1 36 1 79q0 122 -16 229q-19 123 -57 213q-94 218 -289 218t-289 -218zM1307 1219
q214 -205 214 -531q0 -321 -205 -525q-204 -202 -520 -202t-520 202q-205 204 -205 525q0 326 214 531q206 196 511 196t511 -196zM423 1554q2 9 3 15l15 56q15 48 38 84q64 101 186 101q38 0 87 -16l140 -59q56 -25 82 -25q49 0 78 37q11 14 19 33l12 30h88l-21 -70
q-18 -50 -42 -86q-68 -104 -185 -104q-57 0 -123 29l-59 27q-77 33 -93 39l-20 5l-18 1q-45 0 -74 -35q-25 -28 -27 -62h-86z" />
    <glyph glyph-name="uni1ECC" unicode="&#x1ecc;" horiz-adv-x="1593" 
d="M507 1130q-38 -90 -57 -213q-17 -107 -17 -229q0 -43 2 -79q1 -52 6 -99q12 -125 42 -218q40 -120 109 -185q82 -78 204 -78t204 78q69 65 109 185q30 93 42 218q5 47 6 99q1 36 1 79q0 122 -16 229q-19 123 -57 213q-94 218 -289 218t-289 -218zM1307 1219
q214 -205 214 -531q0 -321 -205 -525q-204 -202 -520 -202t-520 202q-205 204 -205 525q0 326 214 531q206 196 511 196t511 -196zM698 -229q38 47 97 47q131 0 131 -135q0 -131 -131 -131q-60 0 -98 47q-31 40 -31 86q0 45 32 86z" />
    <glyph glyph-name="Ocircumflex" unicode="&#xd4;" horiz-adv-x="1593" 
d="M507 1130q-38 -90 -57 -213q-17 -107 -17 -229q0 -43 2 -79q1 -52 6 -99q12 -125 42 -218q40 -120 109 -185q82 -78 204 -78t204 78q69 65 109 185q30 93 42 218q5 47 6 99q1 36 1 79q0 122 -16 229q-19 123 -57 213q-94 218 -289 218t-289 -218zM1307 1219
q214 -205 214 -531q0 -321 -205 -525q-204 -202 -520 -202t-520 202q-205 204 -205 525q0 326 214 531q206 196 511 196t511 -196zM796 1712l-229 -201h-115l250 361h188l252 -361h-117z" />
    <glyph glyph-name="uni1ED2" unicode="&#x1ed2;" horiz-adv-x="1593" 
d="M507 1130q-38 -90 -57 -213q-17 -107 -17 -229q0 -43 2 -79q1 -52 6 -99q12 -125 42 -218q40 -120 109 -185q82 -78 204 -78t204 78q69 65 109 185q30 93 42 218q5 47 6 99q1 36 1 79q0 122 -16 229q-19 123 -57 213q-94 218 -289 218t-289 -218zM1307 1219
q214 -205 214 -531q0 -321 -205 -525q-204 -202 -520 -202t-520 202q-205 204 -205 525q0 326 214 531q206 196 511 196t511 -196zM1093 1804l-291 181q-82 49 -82 108q0 12 5 26q6 17 16 30q28 34 80 34q58 0 106 -57l281 -322h-115zM796 1712l-229 -201h-115l250 361h188
l252 -361h-117z" />
    <glyph glyph-name="uni1ED0" unicode="&#x1ed0;" horiz-adv-x="1593" 
d="M507 1130q-38 -90 -57 -213q-17 -107 -17 -229q0 -43 2 -79q1 -52 6 -99q12 -125 42 -218q40 -120 109 -185q82 -78 204 -78t204 78q69 65 109 185q30 93 42 218q5 47 6 99q1 36 1 79q0 122 -16 229q-19 123 -57 213q-94 218 -289 218t-289 -218zM1307 1219
q214 -205 214 -531q0 -321 -205 -525q-204 -202 -520 -202t-520 202q-205 204 -205 525q0 326 214 531q206 196 511 196t511 -196zM1128 1795h-115l281 322q31 35 63 49q12 5 25 7q8 1 18 1q37 0 64 -17q37 -24 37 -73q0 -57 -82 -108zM796 1712l-229 -201h-115l250 361h188
l252 -361h-117z" />
    <glyph glyph-name="uni1ED4" unicode="&#x1ed4;" horiz-adv-x="1593" 
d="M507 1130q-38 -90 -57 -213q-17 -107 -17 -229q0 -43 2 -79q1 -52 6 -99q12 -125 42 -218q40 -120 109 -185q82 -78 204 -78t204 78q69 65 109 185q30 93 42 218q5 47 6 99q1 36 1 79q0 122 -16 229q-19 123 -57 213q-94 218 -289 218t-289 -218zM1307 1219
q214 -205 214 -531q0 -321 -205 -525q-204 -202 -520 -202t-520 202q-205 204 -205 525q0 326 214 531q206 196 511 196t511 -196zM1054 1757v13l-2 36q0 27 12 58l11 22l13 24q17 32 26 59q11 34 11 76q0 19 -3 36q-3 25 -10 40q-19 44 -55 44h-4q-3 0 -7 -1q-7 -1 -16 -4
q-16 -6 -16 -27q0 -10 5 -18l9 -10q-6 -4 0 0q8 -8 8 -9q6 -8 7 -10q7 -15 7 -31q0 -33 -28 -54q-18 -14 -46 -14q-44 0 -64 27q-19 25 -19 54q0 18 8 40q8 24 31 48q21 23 62 40q42 16 102 16q8 0 18 -1q14 -1 27 -3q39 -7 67 -21q43 -22 63 -51q28 -41 28 -94
q0 -44 -29 -85q-22 -31 -66 -59q-71 -44 -81 -65q-10 -19 -10 -76h-59zM796 1712l-229 -201h-115l250 361h188l252 -361h-117z" />
    <glyph glyph-name="uni1ED6" unicode="&#x1ed6;" horiz-adv-x="1593" 
d="M507 1130q-38 -90 -57 -213q-17 -107 -17 -229q0 -43 2 -79q1 -52 6 -99q12 -125 42 -218q40 -120 109 -185q82 -78 204 -78t204 78q69 65 109 185q30 93 42 218q5 47 6 99q1 36 1 79q0 122 -16 229q-19 123 -57 213q-94 218 -289 218t-289 -218zM1307 1219
q214 -205 214 -531q0 -321 -205 -525q-204 -202 -520 -202t-520 202q-205 204 -205 525q0 326 214 531q206 196 511 196t511 -196zM476 1927q2 9 3 15l15 56q15 48 38 84q64 101 186 101q38 0 87 -16l140 -59q56 -25 82 -25q49 0 78 37q11 14 19 33l12 30h88l-21 -70
q-18 -50 -42 -86q-68 -104 -185 -104q-57 0 -123 29l-59 27q-77 33 -93 39l-20 5l-18 1q-45 0 -74 -35q-25 -28 -27 -62h-86zM796 1712l-229 -201h-115l250 361h188l252 -361h-117z" />
    <glyph glyph-name="uni1ED8" unicode="&#x1ed8;" horiz-adv-x="1593" 
d="M507 1130q-38 -90 -57 -213q-17 -107 -17 -229q0 -43 2 -79q1 -52 6 -99q12 -125 42 -218q40 -120 109 -185q82 -78 204 -78t204 78q69 65 109 185q30 93 42 218q5 47 6 99q1 36 1 79q0 122 -16 229q-19 123 -57 213q-94 218 -289 218t-289 -218zM1307 1219
q214 -205 214 -531q0 -321 -205 -525q-204 -202 -520 -202t-520 202q-205 204 -205 525q0 326 214 531q206 196 511 196t511 -196zM698 -229q38 47 97 47q131 0 131 -135q0 -131 -131 -131q-60 0 -98 47q-31 40 -31 86q0 45 32 86zM796 1712l-229 -201h-115l250 361h188
l252 -361h-117z" />
    <glyph glyph-name="Ugrave" unicode="&#xd9;" horiz-adv-x="1478" 
d="M1435 1333q-92 -13 -122 -42q-38 -36 -38 -132v-653q0 -107 -25 -209q-31 -123 -90 -186q-70 -77 -194 -117q-102 -33 -209 -33q-43 0 -84 4q-57 5 -108 17q-136 32 -224 108q-75 66 -103 132q-38 85 -38 239v684q0 118 -41 154q-27 24 -127 34v51h692v-51
q-117 -5 -150 -29q-48 -35 -48 -159v-735l4 -61q8 -76 32 -132q31 -71 88 -110q67 -46 170 -46q127 0 210 51q69 44 108 122q30 63 41 147q4 32 5 68l1 681q0 104 -34 146q-43 52 -167 57v51h451v-51zM843 1511l-291 181q-82 49 -82 108q0 12 5 26q6 17 16 30q28 34 80 34
q58 0 106 -57l281 -322h-115z" />
    <glyph glyph-name="Uacute" unicode="&#xda;" horiz-adv-x="1478" 
d="M1435 1333q-92 -13 -122 -42q-38 -36 -38 -132v-653q0 -107 -25 -209q-31 -123 -90 -186q-70 -77 -194 -117q-102 -33 -209 -33q-43 0 -84 4q-57 5 -108 17q-136 32 -224 108q-75 66 -103 132q-38 85 -38 239v684q0 118 -41 154q-27 24 -127 34v51h692v-51
q-117 -5 -150 -29q-48 -35 -48 -159v-735l4 -61q8 -76 32 -132q31 -71 88 -110q67 -46 170 -46q127 0 210 51q69 44 108 122q30 63 41 147q4 32 5 68l1 681q0 104 -34 146q-43 52 -167 57v51h451v-51zM745 1511h-115l281 322q31 35 63 49q12 5 24 7q9 1 19 1q37 0 64 -17
q36 -24 36 -73q0 -57 -81 -108z" />
    <glyph glyph-name="uni1EE6" unicode="&#x1ee6;" horiz-adv-x="1478" 
d="M1435 1333q-92 -13 -122 -42q-38 -36 -38 -132v-653q0 -107 -25 -209q-31 -123 -90 -186q-70 -77 -194 -117q-102 -33 -209 -33q-43 0 -84 4q-57 5 -108 17q-136 32 -224 108q-75 66 -103 132q-38 85 -38 239v684q0 118 -41 154q-27 24 -127 34v51h692v-51
q-117 -5 -150 -29q-48 -35 -48 -159v-735l4 -61q8 -76 32 -132q31 -71 88 -110q67 -46 170 -46q127 0 210 51q69 44 108 122q30 63 41 147q4 32 5 68l1 681q0 104 -34 146q-43 52 -167 57v51h451v-51zM816 1484v13l-2 36q0 27 12 58l11 22l13 24q17 32 26 59q11 34 11 76
q0 19 -3 36q-3 25 -10 40q-19 44 -55 44h-4q-3 0 -7 -1q-7 -1 -16 -4q-16 -6 -16 -27q0 -10 5 -18l9 -10q-6 -4 0 0q8 -8 8 -9q6 -8 7 -10q7 -15 7 -31q0 -33 -28 -54q-18 -14 -46 -14q-44 0 -64 27q-19 25 -19 54q0 18 8 40q8 24 31 48q21 23 62 40q42 16 102 16q8 0 18 -1
q14 -1 27 -3q39 -7 67 -21q43 -22 63 -51q28 -41 28 -94q0 -44 -29 -85q-22 -31 -66 -59q-71 -44 -81 -65q-10 -19 -10 -76h-59z" />
    <glyph glyph-name="Utilde" unicode="&#x168;" horiz-adv-x="1478" 
d="M1435 1333q-92 -13 -122 -42q-38 -36 -38 -132v-653q0 -107 -25 -209q-31 -123 -90 -186q-70 -77 -194 -117q-102 -33 -209 -33q-43 0 -84 4q-57 5 -108 17q-136 32 -224 108q-75 66 -103 132q-38 85 -38 239v684q0 118 -41 154q-27 24 -127 34v51h692v-51
q-117 -5 -150 -29q-48 -35 -48 -159v-735l4 -61q8 -76 32 -132q31 -71 88 -110q67 -46 170 -46q127 0 210 51q69 44 108 122q30 63 41 147q4 32 5 68l1 681q0 104 -34 146q-43 52 -167 57v51h451v-51zM432 1554q2 9 3 15l15 56q15 48 38 84q64 101 186 101q38 0 87 -16
l140 -59q56 -25 82 -25q49 0 78 37q11 14 19 33l12 30h88l-21 -70q-18 -50 -42 -86q-68 -104 -185 -104q-57 0 -123 29l-59 27q-77 33 -93 39l-20 5l-18 1q-45 0 -74 -35q-25 -28 -27 -62h-86z" />
    <glyph glyph-name="uni1EE4" unicode="&#x1ee4;" horiz-adv-x="1478" 
d="M1435 1333q-92 -13 -122 -42q-38 -36 -38 -132v-653q0 -107 -25 -209q-31 -123 -90 -186q-70 -77 -194 -117q-102 -33 -209 -33q-43 0 -84 4q-57 5 -108 17q-136 32 -224 108q-75 66 -103 132q-38 85 -38 239v684q0 118 -41 154q-27 24 -127 34v51h692v-51
q-117 -5 -150 -29q-48 -35 -48 -159v-735l4 -61q8 -76 32 -132q31 -71 88 -110q67 -46 170 -46q127 0 210 51q69 44 108 122q30 63 41 147q4 32 5 68l1 681q0 104 -34 146q-43 52 -167 57v51h451v-51zM698 -229q38 47 97 47q131 0 131 -135q0 -131 -131 -131q-60 0 -98 47
q-31 40 -31 86q0 45 32 86z" />
    <glyph glyph-name="Uhorn" unicode="&#x1af;" horiz-adv-x="1478" 
d="M1275 1164v-658q0 -107 -25 -209q-31 -123 -90 -186q-70 -77 -194 -117q-102 -33 -209 -33q-43 0 -84 4q-57 5 -108 17q-136 32 -224 108q-75 66 -103 132q-38 85 -38 239v684q0 118 -41 154q-27 24 -127 34v51h692v-51q-117 -5 -150 -29q-48 -35 -48 -159v-735l4 -61
q8 -76 32 -132q31 -71 88 -110q67 -46 170 -46q127 0 210 51q69 44 108 122q30 63 41 147q4 32 5 68l1 681q0 104 -34 146q-43 52 -167 57v51h294v-157q8 7 15 14q71 70 71 128q0 36 -32 36l-14 -2q-10 -2 -21 -2q-44 0 -77 26q-42 33 -42 101q0 131 131 131q81 0 126 -60
q38 -51 38 -122t-30 -134q-25 -54 -71 -101q-37 -38 -88 -72z" />
    <glyph glyph-name="uni1EEA" unicode="&#x1eea;" horiz-adv-x="1478" 
d="M843 1511l-291 181q-82 49 -82 108q0 12 5 26q6 17 16 30q28 34 80 34q58 0 106 -57l281 -322h-115zM1275 1164v-658q0 -107 -25 -209q-31 -123 -90 -186q-70 -77 -194 -117q-102 -33 -209 -33q-43 0 -84 4q-57 5 -108 17q-136 32 -224 108q-75 66 -103 132
q-38 85 -38 239v684q0 118 -41 154q-27 24 -127 34v51h692v-51q-117 -5 -150 -29q-48 -35 -48 -159v-735l4 -61q8 -76 32 -132q31 -71 88 -110q67 -46 170 -46q127 0 210 51q69 44 108 122q30 63 41 147q4 32 5 68l1 681q0 104 -34 146q-43 52 -167 57v51h294v-157
q8 7 15 14q71 70 71 128q0 36 -32 36l-14 -2q-10 -2 -21 -2q-44 0 -77 26q-42 33 -42 101q0 131 131 131q81 0 126 -60q38 -51 38 -122t-30 -134q-25 -54 -71 -101q-37 -38 -88 -72z" />
    <glyph glyph-name="uni1EE8" unicode="&#x1ee8;" horiz-adv-x="1478" 
d="M745 1511h-115l281 322q31 35 63 49q12 5 24 7q9 1 19 1q37 0 64 -17q36 -24 36 -73q0 -57 -81 -108zM1275 1164v-658q0 -107 -25 -209q-31 -123 -90 -186q-70 -77 -194 -117q-102 -33 -209 -33q-43 0 -84 4q-57 5 -108 17q-136 32 -224 108q-75 66 -103 132
q-38 85 -38 239v684q0 118 -41 154q-27 24 -127 34v51h692v-51q-117 -5 -150 -29q-48 -35 -48 -159v-735l4 -61q8 -76 32 -132q31 -71 88 -110q67 -46 170 -46q127 0 210 51q69 44 108 122q30 63 41 147q4 32 5 68l1 681q0 104 -34 146q-43 52 -167 57v51h294v-157
q8 7 15 14q71 70 71 128q0 36 -32 36l-14 -2q-10 -2 -21 -2q-44 0 -77 26q-42 33 -42 101q0 131 131 131q81 0 126 -60q38 -51 38 -122t-30 -134q-25 -54 -71 -101q-37 -38 -88 -72z" />
    <glyph glyph-name="uni1EEC" unicode="&#x1eec;" horiz-adv-x="1478" 
d="M816 1484v13l-2 36q0 27 12 58l11 22l13 24q17 32 26 59q11 34 11 76q0 19 -3 36q-3 25 -10 40q-19 44 -55 44h-4q-3 0 -7 -1q-7 -1 -16 -4q-16 -6 -16 -27q0 -10 5 -18l9 -10q-6 -4 0 0q8 -8 8 -9q6 -8 7 -10q7 -15 7 -31q0 -33 -28 -54q-18 -14 -46 -14q-44 0 -64 27
q-19 25 -19 54q0 18 8 40q8 24 31 48q21 23 62 40q42 16 102 16q8 0 18 -1q14 -1 27 -3q39 -7 67 -21q43 -22 63 -51q28 -41 28 -94q0 -44 -29 -85q-22 -31 -66 -59q-71 -44 -81 -65q-10 -19 -10 -76h-59zM1275 1164v-658q0 -107 -25 -209q-31 -123 -90 -186
q-70 -77 -194 -117q-102 -33 -209 -33q-43 0 -84 4q-57 5 -108 17q-136 32 -224 108q-75 66 -103 132q-38 85 -38 239v684q0 118 -41 154q-27 24 -127 34v51h692v-51q-117 -5 -150 -29q-48 -35 -48 -159v-735l4 -61q8 -76 32 -132q31 -71 88 -110q67 -46 170 -46
q127 0 210 51q69 44 108 122q30 63 41 147q4 32 5 68l1 681q0 104 -34 146q-43 52 -167 57v51h294v-157q8 7 15 14q71 70 71 128q0 36 -32 36l-14 -2q-10 -2 -21 -2q-44 0 -77 26q-42 33 -42 101q0 131 131 131q81 0 126 -60q38 -51 38 -122t-30 -134q-25 -54 -71 -101
q-37 -38 -88 -72z" />
    <glyph glyph-name="uni1EEE" unicode="&#x1eee;" horiz-adv-x="1478" 
d="M441 1554q2 9 3 15l15 56q15 48 38 84q64 101 186 101q38 0 87 -16l140 -59q56 -25 82 -25q49 0 78 37q11 14 19 33l12 30h88l-21 -70q-18 -50 -42 -86q-68 -104 -185 -104q-57 0 -123 29l-59 27q-77 33 -93 39l-20 5l-18 1q-45 0 -74 -35q-25 -28 -27 -62h-86z
M1275 1164v-658q0 -107 -25 -209q-31 -123 -90 -186q-70 -77 -194 -117q-102 -33 -209 -33q-43 0 -84 4q-57 5 -108 17q-136 32 -224 108q-75 66 -103 132q-38 85 -38 239v684q0 118 -41 154q-27 24 -127 34v51h692v-51q-117 -5 -150 -29q-48 -35 -48 -159v-735l4 -61
q8 -76 32 -132q31 -71 88 -110q67 -46 170 -46q127 0 210 51q69 44 108 122q30 63 41 147q4 32 5 68l1 681q0 104 -34 146q-43 52 -167 57v51h294v-157q8 7 15 14q71 70 71 128q0 36 -32 36l-14 -2q-10 -2 -21 -2q-44 0 -77 26q-42 33 -42 101q0 131 131 131q81 0 126 -60
q38 -51 38 -122t-30 -134q-25 -54 -71 -101q-37 -38 -88 -72z" />
    <glyph glyph-name="uni1EF0" unicode="&#x1ef0;" horiz-adv-x="1478" 
d="M698 -229q38 47 97 47q131 0 131 -135q0 -131 -131 -131q-60 0 -98 47q-31 40 -31 86q0 45 32 86zM1275 1164v-658q0 -107 -25 -209q-31 -123 -90 -186q-70 -77 -194 -117q-102 -33 -209 -33q-43 0 -84 4q-57 5 -108 17q-136 32 -224 108q-75 66 -103 132q-38 85 -38 239
v684q0 118 -41 154q-27 24 -127 34v51h692v-51q-117 -5 -150 -29q-48 -35 -48 -159v-735l4 -61q8 -76 32 -132q31 -71 88 -110q67 -46 170 -46q127 0 210 51q69 44 108 122q30 63 41 147q4 32 5 68l1 681q0 104 -34 146q-43 52 -167 57v51h294v-157q8 7 15 14q71 70 71 128
q0 36 -32 36l-14 -2q-10 -2 -21 -2q-44 0 -77 26q-42 33 -42 101q0 131 131 131q81 0 126 -60q38 -51 38 -122t-30 -134q-25 -54 -71 -101q-37 -38 -88 -72z" />
    <glyph glyph-name="Ohorn" unicode="&#x1a0;" horiz-adv-x="1593" 
d="M507 1130q-38 -90 -57 -213q-17 -107 -17 -229q0 -43 2 -79q1 -52 6 -99q12 -125 42 -218q40 -120 109 -185q82 -78 204 -78t204 78q69 65 109 185q30 93 42 218q5 47 6 99q1 36 1 79q0 122 -16 229q-19 123 -57 213q-94 218 -289 218t-289 -218zM1330 1196
q191 -200 191 -508q0 -321 -205 -525q-204 -202 -520 -202t-520 202q-205 204 -205 525q0 326 214 531q206 196 511 196q295 0 497 -183q5 4 10 9q71 70 71 128q0 36 -32 36l-14 -2q-10 -2 -21 -2q-44 0 -77 26q-42 33 -42 101q0 131 131 131q81 0 126 -60q38 -51 38 -122
t-30 -134q-25 -54 -71 -101q-23 -24 -52 -46z" />
    <glyph glyph-name="uni1EDC" unicode="&#x1edc;" horiz-adv-x="1593" 
d="M507 1130q-38 -90 -57 -213q-17 -107 -17 -229q0 -43 2 -79q1 -52 6 -99q12 -125 42 -218q40 -120 109 -185q82 -78 204 -78t204 78q69 65 109 185q30 93 42 218q5 47 6 99q1 36 1 79q0 122 -16 229q-19 123 -57 213q-94 218 -289 218t-289 -218zM845 1511l-291 181
q-82 49 -82 108q0 12 5 26q6 17 16 30q28 34 80 34q58 0 106 -57l281 -322h-115zM1330 1196q191 -200 191 -508q0 -321 -205 -525q-204 -202 -520 -202t-520 202q-205 204 -205 525q0 326 214 531q206 196 511 196q295 0 497 -183q5 4 10 9q71 70 71 128q0 36 -32 36l-14 -2
q-10 -2 -21 -2q-44 0 -77 26q-42 33 -42 101q0 131 131 131q81 0 126 -60q38 -51 38 -122t-30 -134q-25 -54 -71 -101q-23 -24 -52 -46z" />
    <glyph glyph-name="uni1EDA" unicode="&#x1eda;" horiz-adv-x="1593" 
d="M507 1130q-38 -90 -57 -213q-17 -107 -17 -229q0 -43 2 -79q1 -52 6 -99q12 -125 42 -218q40 -120 109 -185q82 -78 204 -78t204 78q69 65 109 185q30 93 42 218q5 47 6 99q1 36 1 79q0 122 -16 229q-19 123 -57 213q-94 218 -289 218t-289 -218zM747 1511h-115l281 322
q31 35 63 49q12 5 25 7q8 1 18 1q37 0 64 -17q37 -24 37 -73q0 -57 -82 -108zM1330 1196q191 -200 191 -508q0 -321 -205 -525q-204 -202 -520 -202t-520 202q-205 204 -205 525q0 326 214 531q206 196 511 196q295 0 497 -183q5 4 10 9q71 70 71 128q0 36 -32 36l-14 -2
q-10 -2 -21 -2q-44 0 -77 26q-42 33 -42 101q0 131 131 131q81 0 126 -60q38 -51 38 -122t-30 -134q-25 -54 -71 -101q-23 -24 -52 -46z" />
    <glyph glyph-name="uni1EDE" unicode="&#x1ede;" horiz-adv-x="1593" 
d="M507 1130q-38 -90 -57 -213q-17 -107 -17 -229q0 -43 2 -79q1 -52 6 -99q12 -125 42 -218q40 -120 109 -185q82 -78 204 -78t204 78q69 65 109 185q30 93 42 218q5 47 6 99q1 36 1 79q0 122 -16 229q-19 123 -57 213q-94 218 -289 218t-289 -218zM754 1484v13l-2 36
q0 27 12 58l11 22l13 24q17 32 26 59q11 34 11 76q0 19 -3 36q-3 25 -10 40q-19 44 -55 44h-4q-3 0 -7 -1q-7 -1 -16 -4q-16 -6 -16 -27q0 -10 5 -18l9 -10q-6 -4 0 0q8 -8 8 -9q6 -8 7 -10q7 -15 7 -31q0 -33 -28 -54q-18 -14 -46 -14q-44 0 -64 27q-19 25 -19 54
q0 18 8 40q8 24 31 48q21 23 62 40q42 16 102 16q8 0 18 -1q14 -1 27 -3q39 -7 67 -21q43 -22 63 -51q28 -41 28 -94q0 -44 -29 -85q-22 -31 -66 -59q-71 -44 -81 -65q-10 -19 -10 -76h-59zM1330 1196q191 -200 191 -508q0 -321 -205 -525q-204 -202 -520 -202t-520 202
q-205 204 -205 525q0 326 214 531q206 196 511 196q295 0 497 -183q5 4 10 9q71 70 71 128q0 36 -32 36l-14 -2q-10 -2 -21 -2q-44 0 -77 26q-42 33 -42 101q0 131 131 131q81 0 126 -60q38 -51 38 -122t-30 -134q-25 -54 -71 -101q-23 -24 -52 -46z" />
    <glyph glyph-name="uni1EE0" unicode="&#x1ee0;" horiz-adv-x="1593" 
d="M507 1130q-38 -90 -57 -213q-17 -107 -17 -229q0 -43 2 -79q1 -52 6 -99q12 -125 42 -218q40 -120 109 -185q82 -78 204 -78t204 78q69 65 109 185q30 93 42 218q5 47 6 99q1 36 1 79q0 122 -16 229q-19 123 -57 213q-94 218 -289 218t-289 -218zM423 1554q2 9 3 15
l15 56q15 48 38 84q64 101 186 101q38 0 87 -16l140 -59q56 -25 82 -25q49 0 78 37q11 14 19 33l12 30h88l-21 -70q-18 -50 -42 -86q-68 -104 -185 -104q-57 0 -123 29l-59 27q-77 33 -93 39l-20 5l-18 1q-45 0 -74 -35q-25 -28 -27 -62h-86zM1330 1196q191 -200 191 -508
q0 -321 -205 -525q-204 -202 -520 -202t-520 202q-205 204 -205 525q0 326 214 531q206 196 511 196q295 0 497 -183q5 4 10 9q71 70 71 128q0 36 -32 36l-14 -2q-10 -2 -21 -2q-44 0 -77 26q-42 33 -42 101q0 131 131 131q81 0 126 -60q38 -51 38 -122t-30 -134
q-25 -54 -71 -101q-23 -24 -52 -46z" />
    <glyph glyph-name="uni1EE2" unicode="&#x1ee2;" horiz-adv-x="1593" 
d="M507 1130q-38 -90 -57 -213q-17 -107 -17 -229q0 -43 2 -79q1 -52 6 -99q12 -125 42 -218q40 -120 109 -185q82 -78 204 -78t204 78q69 65 109 185q30 93 42 218q5 47 6 99q1 36 1 79q0 122 -16 229q-19 123 -57 213q-94 218 -289 218t-289 -218zM698 -229q38 47 97 47
q131 0 131 -135q0 -131 -131 -131q-60 0 -98 47q-31 40 -31 86q0 45 32 86zM1330 1196q191 -200 191 -508q0 -321 -205 -525q-204 -202 -520 -202t-520 202q-205 204 -205 525q0 326 214 531q206 196 511 196q295 0 497 -183q5 4 10 9q71 70 71 128q0 36 -32 36l-14 -2
q-10 -2 -21 -2q-44 0 -77 26q-42 33 -42 101q0 131 131 131q81 0 126 -60q38 -51 38 -122t-30 -134q-25 -54 -71 -101q-23 -24 -52 -46z" />
    <glyph glyph-name="Ygrave" unicode="&#x1ef2;" horiz-adv-x="1478" 
d="M1431 1333q-11 -2 -16 -2l-17 -4q-20 -4 -36 -11q-44 -20 -70 -63l-392 -637v-376q0 -120 41 -153q29 -24 148 -36v-51h-711v51q119 12 148 36q43 34 43 153v301l-390 704l-32 37q-50 47 -117 51v51h686v-51q-105 0 -136 -13q-30 -13 -30 -56q0 -11 6 -27l21 -45l8 -16
l260 -502l246 410q15 27 27 52q34 72 34 107q0 54 -50 73q-30 11 -122 17v51h451v-51zM843 1511l-291 181q-82 49 -82 108q0 12 5 26q6 17 16 30q28 34 80 34q58 0 106 -57l281 -322h-115z" />
    <glyph glyph-name="Yacute" unicode="&#xdd;" horiz-adv-x="1478" 
d="M1431 1333q-11 -2 -16 -2l-17 -4q-20 -4 -36 -11q-44 -20 -70 -63l-392 -637v-376q0 -120 41 -153q29 -24 148 -36v-51h-711v51q119 12 148 36q43 34 43 153v301l-390 704l-32 37q-50 47 -117 51v51h686v-51q-105 0 -136 -13q-30 -13 -30 -56q0 -11 6 -27l21 -45l8 -16
l260 -502l246 410q15 27 27 52q34 72 34 107q0 54 -50 73q-30 11 -122 17v51h451v-51zM720 1511h-115l281 322q31 35 63 49q12 5 25 7q9 1 19 1q37 0 64 -17q36 -24 36 -73q0 -57 -82 -108z" />
    <glyph glyph-name="uni1EF6" unicode="&#x1ef6;" horiz-adv-x="1478" 
d="M1431 1333q-11 -2 -16 -2l-17 -4q-20 -4 -36 -11q-44 -20 -70 -63l-392 -637v-376q0 -120 41 -153q29 -24 148 -36v-51h-711v51q119 12 148 36q43 34 43 153v301l-390 704l-32 37q-50 47 -117 51v51h686v-51q-105 0 -136 -13q-30 -13 -30 -56q0 -11 6 -27l21 -45l8 -16
l260 -502l246 410q15 27 27 52q34 72 34 107q0 54 -50 73q-30 11 -122 17v51h451v-51zM816 1484v13l-2 36q0 27 12 58l11 22l13 24q17 32 26 59q11 34 11 76q0 19 -3 36q-3 25 -10 40q-19 44 -55 44h-4q-3 0 -7 -1q-7 -1 -16 -4q-16 -6 -16 -27q0 -10 5 -18l9 -10q-6 -4 0 0
q8 -8 8 -9q6 -8 7 -10q7 -15 7 -31q0 -33 -28 -54q-18 -14 -46 -14q-44 0 -64 27q-19 25 -19 54q0 18 8 40q8 24 31 48q21 23 62 40q42 16 102 16q8 0 18 -1q14 -1 27 -3q39 -7 67 -21q43 -22 63 -51q28 -41 28 -94q0 -44 -29 -85q-22 -31 -66 -59q-71 -44 -81 -65
q-10 -19 -10 -76h-59z" />
    <glyph glyph-name="uni1EF8" unicode="&#x1ef8;" horiz-adv-x="1478" 
d="M1431 1333q-11 -2 -16 -2l-17 -4q-20 -4 -36 -11q-44 -20 -70 -63l-392 -637v-376q0 -120 41 -153q29 -24 148 -36v-51h-711v51q119 12 148 36q43 34 43 153v301l-390 704l-32 37q-50 47 -117 51v51h686v-51q-105 0 -136 -13q-30 -13 -30 -56q0 -11 6 -27l21 -45l8 -16
l260 -502l246 410q15 27 27 52q34 72 34 107q0 54 -50 73q-30 11 -122 17v51h451v-51zM458 1554q2 9 3 15l15 56q15 48 38 84q64 101 186 101q38 0 87 -16l140 -59q56 -25 82 -25q49 0 78 37q11 14 19 33l12 30h88l-21 -70q-18 -50 -42 -86q-68 -104 -185 -104
q-57 0 -123 29l-59 27q-77 33 -93 39l-20 5l-18 1q-45 0 -74 -35q-25 -28 -27 -62h-86z" />
    <glyph glyph-name="uni1EF4" unicode="&#x1ef4;" horiz-adv-x="1478" 
d="M1431 1333q-11 -2 -16 -2l-17 -4q-20 -4 -36 -11q-44 -20 -70 -63l-392 -637v-376q0 -120 41 -153q29 -24 148 -36v-51h-711v51q119 12 148 36q43 34 43 153v301l-390 704l-32 37q-50 47 -117 51v51h686v-51q-105 0 -136 -13q-30 -13 -30 -56q0 -11 6 -27l21 -45l8 -16
l260 -502l246 410q15 27 27 52q34 72 34 107q0 54 -50 73q-30 11 -122 17v51h451v-51zM654 -229q38 47 97 47q131 0 131 -135q0 -131 -131 -131q-60 0 -98 47q-31 40 -31 86q0 45 32 86z" />
    <glyph glyph-name="agrave" unicode="&#xe0;" 
d="M999 88q-99 -117 -225 -117q-94 0 -135 51q-16 18 -25 46l-12 47q-86 -87 -194 -122q-39 -13 -79 -18l-30 -3l-23 -1q-85 0 -149 52q-76 60 -76 167q0 143 166 239q68 39 176 77q44 16 102 34q38 13 107 33v150q0 88 -33 129q-42 51 -147 51q-121 0 -121 -74q0 -14 9 -28
q4 -6 10 -13l23 -30l10 -18q9 -23 9 -50q0 -38 -28 -71q-38 -44 -109 -44l-13 1q-9 0 -18 2q-12 1 -22 5q-13 4 -24 10q-58 33 -58 122q0 104 96 175q106 79 287 79t290 -68q119 -75 119 -213l1 -548q1 -9 5 -17q11 -21 40 -21q12 0 20 9l21 20zM600 502q-11 -3 -24 -7
l-35 -11q-47 -18 -84 -43q-48 -33 -75 -75q-32 -50 -32 -112q0 -54 25 -92q28 -45 79 -45q46 0 89 31q15 12 32 29l13 15l6 6q1 1 6 7v297zM547 1081l-291 181q-82 49 -82 108q0 12 5 26q5 17 16 30q28 34 79 34q58 0 107 -57l280 -322h-114z" />
    <glyph glyph-name="aacute" unicode="&#xe1;" 
d="M999 88q-99 -117 -225 -117q-94 0 -135 51q-16 18 -25 46l-12 47q-86 -87 -194 -122q-39 -13 -79 -18l-30 -3l-23 -1q-85 0 -149 52q-76 60 -76 167q0 143 166 239q68 39 176 77q44 16 102 34q38 13 107 33v150q0 88 -33 129q-42 51 -147 51q-121 0 -121 -74q0 -14 9 -28
q4 -6 10 -13l23 -30l10 -18q9 -23 9 -50q0 -38 -28 -71q-38 -44 -109 -44l-13 1q-9 0 -18 2q-12 1 -22 5q-13 4 -24 10q-58 33 -58 122q0 104 96 175q106 79 287 79t290 -68q119 -75 119 -213l1 -548q1 -9 5 -17q11 -21 40 -21q12 0 20 9l21 20zM600 502q-11 -3 -24 -7
l-35 -11q-47 -18 -84 -43q-48 -33 -75 -75q-32 -50 -32 -112q0 -54 25 -92q28 -45 79 -45q46 0 89 31q15 12 32 29l13 15l6 6q1 1 6 7v297zM448 1081h-114l280 322q31 35 63 49q13 5 25 7q9 1 19 1q37 0 64 -17q36 -24 36 -73q0 -57 -82 -108z" />
    <glyph glyph-name="uni1EA3" unicode="&#x1ea3;" 
d="M999 88q-99 -117 -225 -117q-94 0 -135 51q-16 18 -25 46l-12 47q-86 -87 -194 -122q-39 -13 -79 -18l-30 -3l-23 -1q-85 0 -149 52q-76 60 -76 167q0 143 166 239q68 39 176 77q44 16 102 34q38 13 107 33v150q0 88 -33 129q-42 51 -147 51q-121 0 -121 -74q0 -14 9 -28
q4 -6 10 -13l23 -30l10 -18q9 -23 9 -50q0 -38 -28 -71q-38 -44 -109 -44l-13 1q-9 0 -18 2q-12 1 -22 5q-13 4 -24 10q-58 33 -58 122q0 104 96 175q106 79 287 79t290 -68q119 -75 119 -213l1 -548q1 -9 5 -17q11 -21 40 -21q12 0 20 9l21 20zM600 502q-11 -3 -24 -7
l-35 -11q-47 -18 -84 -43q-48 -33 -75 -75q-32 -50 -32 -112q0 -54 25 -92q28 -45 79 -45q46 0 89 31q15 12 32 29l13 15l6 6q1 1 6 7v297zM453 1040l-1 13l-1 36q0 27 12 58q3 8 11 22l13 24q17 32 26 59q10 34 10 76q0 19 -2 36q-3 25 -10 40q-19 44 -55 44h-5q-2 0 -6 -1
q-7 -1 -16 -4q-16 -6 -16 -27q0 -10 5 -18l9 -10q-6 -4 0 0q7 -8 8 -9q6 -8 7 -10q7 -15 7 -31q0 -33 -28 -54q-18 -14 -46 -14q-44 0 -65 27q-18 25 -18 54q0 18 8 40q8 24 30 48q22 23 63 40q42 16 102 16q8 0 18 -1q14 -1 26 -3q40 -7 68 -21q43 -22 63 -51
q27 -41 27 -94q0 -44 -29 -85q-21 -31 -65 -59q-72 -44 -82 -65q-9 -19 -9 -76h-59z" />
    <glyph glyph-name="atilde" unicode="&#xe3;" 
d="M999 88q-99 -117 -225 -117q-94 0 -135 51q-16 18 -25 46l-12 47q-86 -87 -194 -122q-39 -13 -79 -18l-30 -3l-23 -1q-85 0 -149 52q-76 60 -76 167q0 143 166 239q68 39 176 77q44 16 102 34q38 13 107 33v150q0 88 -33 129q-42 51 -147 51q-121 0 -121 -74q0 -14 9 -28
q4 -6 10 -13l23 -30l10 -18q9 -23 9 -50q0 -38 -28 -71q-38 -44 -109 -44l-13 1q-9 0 -18 2q-12 1 -22 5q-13 4 -24 10q-58 33 -58 122q0 104 96 175q106 79 287 79t290 -68q119 -75 119 -213l1 -548q1 -9 5 -17q11 -21 40 -21q12 0 20 9l21 20zM600 502q-11 -3 -24 -7
l-35 -11q-47 -18 -84 -43q-48 -33 -75 -75q-32 -50 -32 -112q0 -54 25 -92q28 -45 79 -45q46 0 89 31q15 12 32 29l13 15l6 6q1 1 6 7v297zM125 1124q1 9 3 15l14 56q15 48 38 84q65 101 186 101q38 0 88 -16l140 -59q55 -25 82 -25q49 0 78 37q10 14 19 33l11 30h88
l-21 -71q-17 -49 -41 -86q-68 -103 -186 -103q-57 0 -122 29l-60 27q-77 33 -93 39l-20 5l-18 1q-45 0 -74 -35q-24 -28 -26 -62h-86z" />
    <glyph glyph-name="uni1EA1" unicode="&#x1ea1;" 
d="M999 88q-99 -117 -225 -117q-94 0 -135 51q-16 18 -25 46l-12 47q-86 -87 -194 -122q-39 -13 -79 -18l-30 -3l-23 -1q-85 0 -149 52q-76 60 -76 167q0 143 166 239q68 39 176 77q44 16 102 34q38 13 107 33v150q0 88 -33 129q-42 51 -147 51q-121 0 -121 -74q0 -14 9 -28
q4 -6 10 -13l23 -30l10 -18q9 -23 9 -50q0 -38 -28 -71q-38 -44 -109 -44l-13 1q-9 0 -18 2q-12 1 -22 5q-13 4 -24 10q-58 33 -58 122q0 104 96 175q106 79 287 79t290 -68q119 -75 119 -213l1 -548q1 -9 5 -17q11 -21 40 -21q12 0 20 9l21 20zM600 502q-11 -3 -24 -7
l-35 -11q-47 -18 -84 -43q-48 -33 -75 -75q-32 -50 -32 -112q0 -54 25 -92q28 -45 79 -45q46 0 89 31q15 12 32 29l13 15l6 6q1 1 6 7v297zM415 -229q38 47 97 47q131 0 131 -135q0 -131 -131 -131q-60 0 -98 47q-31 40 -31 86q0 45 32 86z" />
    <glyph glyph-name="acircumflex" unicode="&#xe2;" 
d="M999 88q-99 -117 -225 -117q-94 0 -135 51q-16 18 -25 46l-12 47q-86 -87 -194 -122q-39 -13 -79 -18l-30 -3l-23 -1q-85 0 -149 52q-76 60 -76 167q0 143 166 239q68 39 176 77q44 16 102 34q38 13 107 33v150q0 88 -33 129q-42 51 -147 51q-121 0 -121 -74q0 -14 9 -28
q4 -6 10 -13l23 -30l10 -18q9 -23 9 -50q0 -38 -28 -71q-38 -44 -109 -44l-13 1q-9 0 -18 2q-12 1 -22 5q-13 4 -24 10q-58 33 -58 122q0 104 96 175q106 79 287 79t290 -68q119 -75 119 -213l1 -548q1 -9 5 -17q11 -21 40 -21q12 0 20 9l21 20zM600 502q-11 -3 -24 -7
l-35 -11q-47 -18 -84 -43q-48 -33 -75 -75q-32 -50 -32 -112q0 -54 25 -92q28 -45 79 -45q46 0 89 31q15 12 32 29l13 15l6 6q1 1 6 7v297zM497 1282l-229 -201h-115l250 361h189l252 -361h-117z" />
    <glyph glyph-name="uni1EA7" unicode="&#x1ea7;" 
d="M999 88q-99 -117 -225 -117q-94 0 -135 51q-16 18 -25 46l-12 47q-86 -87 -194 -122q-39 -13 -79 -18l-30 -3l-23 -1q-85 0 -149 52q-76 60 -76 167q0 143 166 239q68 39 176 77q44 16 102 34q38 13 107 33v150q0 88 -33 129q-42 51 -147 51q-121 0 -121 -74q0 -14 9 -28
q4 -6 10 -13l23 -30l10 -18q9 -23 9 -50q0 -38 -28 -71q-38 -44 -109 -44l-13 1q-9 0 -18 2q-12 1 -22 5q-13 4 -24 10q-58 33 -58 122q0 104 96 175q106 79 287 79t290 -68q119 -75 119 -213l1 -548q1 -9 5 -17q11 -21 40 -21q12 0 20 9l21 20zM600 502q-11 -3 -24 -7
l-35 -11q-47 -18 -84 -43q-48 -33 -75 -75q-32 -50 -32 -112q0 -54 25 -92q28 -45 79 -45q46 0 89 31q15 12 32 29l13 15l6 6q1 1 6 7v297zM778 1383l-291 181q-82 49 -82 108q0 12 5 26q5 17 16 30q28 34 79 34q58 0 107 -57l280 -322h-114zM497 1282l-229 -201h-115
l250 361h189l252 -361h-117z" />
    <glyph glyph-name="uni1EA5" unicode="&#x1ea5;" 
d="M999 88q-99 -117 -225 -117q-94 0 -135 51q-16 18 -25 46l-12 47q-86 -87 -194 -122q-39 -13 -79 -18l-30 -3l-23 -1q-85 0 -149 52q-76 60 -76 167q0 143 166 239q68 39 176 77q44 16 102 34q38 13 107 33v150q0 88 -33 129q-42 51 -147 51q-121 0 -121 -74q0 -14 9 -28
q4 -6 10 -13l23 -30l10 -18q9 -23 9 -50q0 -38 -28 -71q-38 -44 -109 -44l-13 1q-9 0 -18 2q-12 1 -22 5q-13 4 -24 10q-58 33 -58 122q0 104 96 175q106 79 287 79t290 -68q119 -75 119 -213l1 -548q1 -9 5 -17q11 -21 40 -21q12 0 20 9l21 20zM600 502q-11 -3 -24 -7
l-35 -11q-47 -18 -84 -43q-48 -33 -75 -75q-32 -50 -32 -112q0 -54 25 -92q28 -45 79 -45q46 0 89 31q15 12 32 29l13 15l6 6q1 1 6 7v297zM829 1356h-114l280 322q31 35 63 49q13 5 25 7q9 1 19 1q37 0 64 -17q36 -24 36 -73q0 -57 -82 -108zM497 1282l-229 -201h-115
l250 361h189l252 -361h-117z" />
    <glyph glyph-name="uni1EA9" unicode="&#x1ea9;" 
d="M999 88q-99 -117 -225 -117q-94 0 -135 51q-16 18 -25 46l-12 47q-86 -87 -194 -122q-39 -13 -79 -18l-30 -3l-23 -1q-85 0 -149 52q-76 60 -76 167q0 143 166 239q68 39 176 77q44 16 102 34q38 13 107 33v150q0 88 -33 129q-42 51 -147 51q-121 0 -121 -74q0 -14 9 -28
q4 -6 10 -13l23 -30l10 -18q9 -23 9 -50q0 -38 -28 -71q-38 -44 -109 -44l-13 1q-9 0 -18 2q-12 1 -22 5q-13 4 -24 10q-58 33 -58 122q0 104 96 175q106 79 287 79t290 -68q119 -75 119 -213l1 -548q1 -9 5 -17q11 -21 40 -21q12 0 20 9l21 20zM600 502q-11 -3 -24 -7
l-35 -11q-47 -18 -84 -43q-48 -33 -75 -75q-32 -50 -32 -112q0 -54 25 -92q28 -45 79 -45q46 0 89 31q15 12 32 29l13 15l6 6q1 1 6 7v297zM763 1306l-1 13l-1 36q0 27 12 58q3 8 11 22l13 24q17 32 26 59q10 34 10 76q0 19 -2 36q-3 25 -10 40q-19 44 -55 44h-5q-2 0 -6 -1
q-7 -1 -16 -4q-16 -6 -16 -27q0 -10 5 -18l9 -10q-6 -4 0 0q7 -8 8 -9q6 -8 7 -10q7 -15 7 -31q0 -33 -28 -54q-18 -14 -46 -14q-44 0 -65 27q-18 25 -18 54q0 18 8 40q8 24 30 48q22 23 63 40q42 16 102 16q8 0 18 -1q14 -1 26 -3q40 -7 68 -21q43 -22 63 -51
q27 -41 27 -94q0 -44 -29 -85q-21 -31 -65 -59q-72 -44 -82 -65q-9 -19 -9 -76h-59zM497 1282l-229 -201h-115l250 361h189l252 -361h-117z" />
    <glyph glyph-name="uni1EAB" unicode="&#x1eab;" 
d="M999 88q-99 -117 -225 -117q-94 0 -135 51q-16 18 -25 46l-12 47q-86 -87 -194 -122q-39 -13 -79 -18l-30 -3l-23 -1q-85 0 -149 52q-76 60 -76 167q0 143 166 239q68 39 176 77q44 16 102 34q38 13 107 33v150q0 88 -33 129q-42 51 -147 51q-121 0 -121 -74q0 -14 9 -28
q4 -6 10 -13l23 -30l10 -18q9 -23 9 -50q0 -38 -28 -71q-38 -44 -109 -44l-13 1q-9 0 -18 2q-12 1 -22 5q-13 4 -24 10q-58 33 -58 122q0 104 96 175q106 79 287 79t290 -68q119 -75 119 -213l1 -548q1 -9 5 -17q11 -21 40 -21q12 0 20 9l21 20zM600 502q-11 -3 -24 -7
l-35 -11q-47 -18 -84 -43q-48 -33 -75 -75q-32 -50 -32 -112q0 -54 25 -92q28 -45 79 -45q46 0 89 31q15 12 32 29l13 15l6 6q1 1 6 7v297zM205 1488q1 9 3 15l14 56q15 48 38 84q65 101 186 101q38 0 88 -16l140 -59q55 -25 82 -25q49 0 78 37q10 14 19 33l11 30h88
l-21 -71q-17 -49 -41 -86q-68 -103 -186 -103q-57 0 -122 29l-60 27q-77 33 -93 39l-20 5l-18 1q-45 0 -74 -35q-24 -28 -26 -62h-86zM497 1282l-229 -201h-115l250 361h189l252 -361h-117z" />
    <glyph glyph-name="uni1EAD" unicode="&#x1ead;" 
d="M999 88q-99 -117 -225 -117q-94 0 -135 51q-16 18 -25 46l-12 47q-86 -87 -194 -122q-39 -13 -79 -18l-30 -3l-23 -1q-85 0 -149 52q-76 60 -76 167q0 143 166 239q68 39 176 77q44 16 102 34q38 13 107 33v150q0 88 -33 129q-42 51 -147 51q-121 0 -121 -74q0 -14 9 -28
q4 -6 10 -13l23 -30l10 -18q9 -23 9 -50q0 -38 -28 -71q-38 -44 -109 -44l-13 1q-9 0 -18 2q-12 1 -22 5q-13 4 -24 10q-58 33 -58 122q0 104 96 175q106 79 287 79t290 -68q119 -75 119 -213l1 -548q1 -9 5 -17q11 -21 40 -21q12 0 20 9l21 20zM600 502q-11 -3 -24 -7
l-35 -11q-47 -18 -84 -43q-48 -33 -75 -75q-32 -50 -32 -112q0 -54 25 -92q28 -45 79 -45q46 0 89 31q15 12 32 29l13 15l6 6q1 1 6 7v297zM415 -229q38 47 97 47q131 0 131 -135q0 -131 -131 -131q-60 0 -98 47q-31 40 -31 86q0 45 32 86zM497 1282l-229 -201h-115l250 361
h189l252 -361h-117z" />
    <glyph glyph-name="abreve" unicode="&#x103;" 
d="M999 88q-99 -117 -225 -117q-94 0 -135 51q-16 18 -25 46l-12 47q-86 -87 -194 -122q-39 -13 -79 -18l-30 -3l-23 -1q-85 0 -149 52q-76 60 -76 167q0 143 166 239q68 39 176 77q44 16 102 34q38 13 107 33v150q0 88 -33 129q-42 51 -147 51q-121 0 -121 -74q0 -14 9 -28
q4 -6 10 -13l23 -30l10 -18q9 -23 9 -50q0 -38 -28 -71q-38 -44 -109 -44l-13 1q-9 0 -18 2q-12 1 -22 5q-13 4 -24 10q-58 33 -58 122q0 104 96 175q106 79 287 79t290 -68q119 -75 119 -213l1 -548q1 -9 5 -17q11 -21 40 -21q12 0 20 9l21 20zM600 502q-11 -3 -24 -7
l-35 -11q-47 -18 -84 -43q-48 -33 -75 -75q-32 -50 -32 -112q0 -54 25 -92q28 -45 79 -45q46 0 89 31q15 12 32 29l13 15l6 6q1 1 6 7v297zM809 1416q-24 -333 -312 -333q-306 0 -309 333h90l5 -24l8 -28q12 -34 32 -58q55 -68 177 -68q112 0 167 66q21 24 35 58q8 20 17 54
h90z" />
    <glyph glyph-name="uni1EB1" unicode="&#x1eb1;" 
d="M999 88q-99 -117 -225 -117q-94 0 -135 51q-16 18 -25 46l-12 47q-86 -87 -194 -122q-39 -13 -79 -18l-30 -3l-23 -1q-85 0 -149 52q-76 60 -76 167q0 143 166 239q68 39 176 77q44 16 102 34q38 13 107 33v150q0 88 -33 129q-42 51 -147 51q-121 0 -121 -74q0 -14 9 -28
q4 -6 10 -13l23 -30l10 -18q9 -23 9 -50q0 -38 -28 -71q-38 -44 -109 -44l-13 1q-9 0 -18 2q-12 1 -22 5q-13 4 -24 10q-58 33 -58 122q0 104 96 175q106 79 287 79t290 -68q119 -75 119 -213l1 -548q1 -9 5 -17q11 -21 40 -21q12 0 20 9l21 20zM600 502q-11 -3 -24 -7
l-35 -11q-47 -18 -84 -43q-48 -33 -75 -75q-32 -50 -32 -112q0 -54 25 -92q28 -45 79 -45q46 0 89 31q15 12 32 29l13 15l6 6q1 1 6 7v297zM538 1383l-291 181q-82 49 -82 108q0 12 5 26q5 17 16 30q28 34 79 34q58 0 107 -57l280 -322h-114zM809 1416q-24 -333 -312 -333
q-306 0 -309 333h90l5 -24l8 -28q12 -34 32 -58q55 -68 177 -68q112 0 167 66q21 24 35 58q8 20 17 54h90z" />
    <glyph glyph-name="uni1EAF" unicode="&#x1eaf;" 
d="M999 88q-99 -117 -225 -117q-94 0 -135 51q-16 18 -25 46l-12 47q-86 -87 -194 -122q-39 -13 -79 -18l-30 -3l-23 -1q-85 0 -149 52q-76 60 -76 167q0 143 166 239q68 39 176 77q44 16 102 34q38 13 107 33v150q0 88 -33 129q-42 51 -147 51q-121 0 -121 -74q0 -14 9 -28
q4 -6 10 -13l23 -30l10 -18q9 -23 9 -50q0 -38 -28 -71q-38 -44 -109 -44l-13 1q-9 0 -18 2q-12 1 -22 5q-13 4 -24 10q-58 33 -58 122q0 104 96 175q106 79 287 79t290 -68q119 -75 119 -213l1 -548q1 -9 5 -17q11 -21 40 -21q12 0 20 9l21 20zM600 502q-11 -3 -24 -7
l-35 -11q-47 -18 -84 -43q-48 -33 -75 -75q-32 -50 -32 -112q0 -54 25 -92q28 -45 79 -45q46 0 89 31q15 12 32 29l13 15l6 6q1 1 6 7v297zM510 1356h-114l280 322q31 35 63 49q13 5 25 7q9 1 19 1q37 0 64 -17q36 -24 36 -73q0 -57 -82 -108zM809 1416q-24 -333 -312 -333
q-306 0 -309 333h90l5 -24l8 -28q12 -34 32 -58q55 -68 177 -68q112 0 167 66q21 24 35 58q8 20 17 54h90z" />
    <glyph glyph-name="uni1EB3" unicode="&#x1eb3;" 
d="M999 88q-99 -117 -225 -117q-94 0 -135 51q-16 18 -25 46l-12 47q-86 -87 -194 -122q-39 -13 -79 -18l-30 -3l-23 -1q-85 0 -149 52q-76 60 -76 167q0 143 166 239q68 39 176 77q44 16 102 34q38 13 107 33v150q0 88 -33 129q-42 51 -147 51q-121 0 -121 -74q0 -14 9 -28
q4 -6 10 -13l23 -30l10 -18q9 -23 9 -50q0 -38 -28 -71q-38 -44 -109 -44l-13 1q-9 0 -18 2q-12 1 -22 5q-13 4 -24 10q-58 33 -58 122q0 104 96 175q106 79 287 79t290 -68q119 -75 119 -213l1 -548q1 -9 5 -17q11 -21 40 -21q12 0 20 9l21 20zM600 502q-11 -3 -24 -7
l-35 -11q-47 -18 -84 -43q-48 -33 -75 -75q-32 -50 -32 -112q0 -54 25 -92q28 -45 79 -45q46 0 89 31q15 12 32 29l13 15l6 6q1 1 6 7v297zM480 1341l-1 13l-1 36q0 27 12 58q3 8 11 22l13 24q17 32 26 59q10 34 10 76q0 19 -2 36q-3 25 -10 40q-19 44 -55 44h-5q-2 0 -6 -1
q-7 -1 -16 -4q-16 -6 -16 -27q0 -10 5 -18l9 -10q-6 -4 0 0q7 -8 8 -9q6 -8 7 -10q7 -15 7 -31q0 -33 -28 -54q-18 -14 -46 -14q-44 0 -65 27q-18 25 -18 54q0 18 8 40q8 24 30 48q22 23 63 40q42 16 102 16q8 0 18 -1q14 -1 26 -3q40 -7 68 -21q43 -22 63 -51
q27 -41 27 -94q0 -44 -29 -85q-21 -31 -65 -59q-72 -44 -82 -65q-9 -19 -9 -76h-59zM809 1416q-24 -333 -312 -333q-306 0 -309 333h90l5 -24l8 -28q12 -34 32 -58q55 -68 177 -68q112 0 167 66q21 24 35 58q8 20 17 54h90z" />
    <glyph glyph-name="uni1EB5" unicode="&#x1eb5;" 
d="M999 88q-99 -117 -225 -117q-94 0 -135 51q-16 18 -25 46l-12 47q-86 -87 -194 -122q-39 -13 -79 -18l-30 -3l-23 -1q-85 0 -149 52q-76 60 -76 167q0 143 166 239q68 39 176 77q44 16 102 34q38 13 107 33v150q0 88 -33 129q-42 51 -147 51q-121 0 -121 -74q0 -14 9 -28
q4 -6 10 -13l23 -30l10 -18q9 -23 9 -50q0 -38 -28 -71q-38 -44 -109 -44l-13 1q-9 0 -18 2q-12 1 -22 5q-13 4 -24 10q-58 33 -58 122q0 104 96 175q106 79 287 79t290 -68q119 -75 119 -213l1 -548q1 -9 5 -17q11 -21 40 -21q12 0 20 9l21 20zM600 502q-11 -3 -24 -7
l-35 -11q-47 -18 -84 -43q-48 -33 -75 -75q-32 -50 -32 -112q0 -54 25 -92q28 -45 79 -45q46 0 89 31q15 12 32 29l13 15l6 6q1 1 6 7v297zM230 1488q1 9 3 15l14 56q15 48 38 84q65 101 186 101q38 0 88 -16l140 -59q55 -25 82 -25q49 0 78 37q10 14 19 33l11 30h88
l-21 -71q-17 -49 -41 -86q-68 -103 -186 -103q-57 0 -122 29l-60 27q-77 33 -93 39l-20 5l-18 1q-45 0 -74 -35q-24 -28 -26 -62h-86zM809 1416q-24 -333 -312 -333q-306 0 -309 333h90l5 -24l8 -28q12 -34 32 -58q55 -68 177 -68q112 0 167 66q21 24 35 58q8 20 17 54h90z
" />
    <glyph glyph-name="uni1EB7" unicode="&#x1eb7;" 
d="M999 88q-99 -117 -225 -117q-94 0 -135 51q-16 18 -25 46l-12 47q-86 -87 -194 -122q-39 -13 -79 -18l-30 -3l-23 -1q-85 0 -149 52q-76 60 -76 167q0 143 166 239q68 39 176 77q44 16 102 34q38 13 107 33v150q0 88 -33 129q-42 51 -147 51q-121 0 -121 -74q0 -14 9 -28
q4 -6 10 -13l23 -30l10 -18q9 -23 9 -50q0 -38 -28 -71q-38 -44 -109 -44l-13 1q-9 0 -18 2q-12 1 -22 5q-13 4 -24 10q-58 33 -58 122q0 104 96 175q106 79 287 79t290 -68q119 -75 119 -213l1 -548q1 -9 5 -17q11 -21 40 -21q12 0 20 9l21 20zM600 502q-11 -3 -24 -7
l-35 -11q-47 -18 -84 -43q-48 -33 -75 -75q-32 -50 -32 -112q0 -54 25 -92q28 -45 79 -45q46 0 89 31q15 12 32 29l13 15l6 6q1 1 6 7v297zM415 -229q38 47 97 47q131 0 131 -135q0 -131 -131 -131q-60 0 -98 47q-31 40 -31 86q0 45 32 86zM809 1416q-24 -333 -312 -333
q-306 0 -309 333h90l5 -24l8 -28q12 -34 32 -58q55 -68 177 -68q112 0 167 66q21 24 35 58q8 20 17 54h90z" />
    <glyph glyph-name="egrave" unicode="&#xe8;" horiz-adv-x="909" 
d="M610 578l-1 32l-3 84q-4 76 -14 115q-12 42 -33 65q-29 31 -78 31q-68 0 -101 -58q-44 -76 -44 -269h274zM872 227q-168 -256 -405 -256q-171 0 -286 120q-130 136 -130 382q0 223 123 362q118 134 299 134q124 0 210 -58q72 -48 116 -134q34 -67 50 -156l9 -67
q1 -14 3 -29q0 -10 1 -23h-516q3 -74 14 -134q13 -71 38 -123q62 -126 194 -126q78 0 146 51q25 18 50 45l35 41zM516 1081l-291 181q-82 49 -82 108q0 12 5 26q6 17 16 30q28 34 80 34q57 0 106 -57l281 -322h-115z" />
    <glyph glyph-name="eacute" unicode="&#xe9;" horiz-adv-x="909" 
d="M610 578l-1 32l-3 84q-4 76 -14 115q-12 42 -33 65q-29 31 -78 31q-68 0 -101 -58q-44 -76 -44 -269h274zM872 227q-168 -256 -405 -256q-171 0 -286 120q-130 136 -130 382q0 223 123 362q118 134 299 134q124 0 210 -58q72 -48 116 -134q34 -67 50 -156l9 -67
q1 -14 3 -29q0 -10 1 -23h-516q3 -74 14 -134q13 -71 38 -123q62 -126 194 -126q78 0 146 51q25 18 50 45l35 41zM418 1081h-115l280 322q31 35 64 49q12 5 24 7q9 1 19 1q37 0 64 -17q36 -24 36 -73q0 -57 -82 -108z" />
    <glyph glyph-name="uni1EBB" unicode="&#x1ebb;" horiz-adv-x="909" 
d="M610 578l-1 32l-3 84q-4 76 -14 115q-12 42 -33 65q-29 31 -78 31q-68 0 -101 -58q-44 -76 -44 -269h274zM872 227q-168 -256 -405 -256q-171 0 -286 120q-130 136 -130 382q0 223 123 362q118 134 299 134q124 0 210 -58q72 -48 116 -134q34 -67 50 -156l9 -67
q1 -14 3 -29q0 -10 1 -23h-516q3 -74 14 -134q13 -71 38 -123q62 -126 194 -126q78 0 146 51q25 18 50 45l35 41zM453 1040l-1 13l-1 36q0 27 12 58q3 8 11 22l13 24q17 32 26 59q10 34 10 76q0 19 -2 36q-3 25 -10 40q-19 44 -55 44h-5q-2 0 -6 -1q-7 -1 -16 -4
q-16 -6 -16 -27q0 -10 5 -18l9 -10q-6 -4 0 0q7 -8 8 -9q6 -8 7 -10q7 -15 7 -31q0 -33 -28 -54q-18 -14 -46 -14q-44 0 -65 27q-18 25 -18 54q0 18 8 40q8 24 30 48q22 23 63 40q42 16 102 16q8 0 18 -1q14 -1 26 -3q40 -7 68 -21q43 -22 63 -51q27 -41 27 -94
q0 -44 -29 -85q-21 -31 -65 -59q-72 -44 -82 -65q-9 -19 -9 -76h-59z" />
    <glyph glyph-name="uni1EBD" unicode="&#x1ebd;" horiz-adv-x="909" 
d="M610 578l-1 32l-3 84q-4 76 -14 115q-12 42 -33 65q-29 31 -78 31q-68 0 -101 -58q-44 -76 -44 -269h274zM872 227q-168 -256 -405 -256q-171 0 -286 120q-130 136 -130 382q0 223 123 362q118 134 299 134q124 0 210 -58q72 -48 116 -134q34 -67 50 -156l9 -67
q1 -14 3 -29q0 -10 1 -23h-516q3 -74 14 -134q13 -71 38 -123q62 -126 194 -126q78 0 146 51q25 18 50 45l35 41zM125 1124q1 9 3 15l14 56q15 48 38 84q65 101 186 101q38 0 88 -16l140 -59q55 -25 82 -25q49 0 78 37q10 14 19 33l11 30h88l-21 -71q-17 -49 -41 -86
q-68 -103 -186 -103q-57 0 -122 29l-60 27q-77 33 -93 39l-20 5l-18 1q-45 0 -74 -35q-24 -28 -26 -62h-86z" />
    <glyph glyph-name="uni1EB9" unicode="&#x1eb9;" horiz-adv-x="909" 
d="M610 578l-1 32l-3 84q-4 76 -14 115q-12 42 -33 65q-29 31 -78 31q-68 0 -101 -58q-44 -76 -44 -269h274zM872 227q-168 -256 -405 -256q-171 0 -286 120q-130 136 -130 382q0 223 123 362q118 134 299 134q124 0 210 -58q72 -48 116 -134q34 -67 50 -156l9 -67
q1 -14 3 -29q0 -10 1 -23h-516q3 -74 14 -134q13 -71 38 -123q62 -126 194 -126q78 0 146 51q25 18 50 45l35 41zM380 -229q38 47 97 47q131 0 131 -135q0 -131 -131 -131q-60 0 -98 47q-31 40 -31 86q0 45 32 86z" />
    <glyph glyph-name="ecircumflex" unicode="&#xea;" horiz-adv-x="909" 
d="M610 578l-1 32l-3 84q-4 76 -14 115q-12 42 -33 65q-29 31 -78 31q-68 0 -101 -58q-44 -76 -44 -269h274zM872 227q-168 -256 -405 -256q-171 0 -286 120q-130 136 -130 382q0 223 123 362q118 134 299 134q124 0 210 -58q72 -48 116 -134q34 -67 50 -156l9 -67
q1 -14 3 -29q0 -10 1 -23h-516q3 -74 14 -134q13 -71 38 -123q62 -126 194 -126q78 0 146 51q25 18 50 45l35 41zM467 1282l-230 -201h-114l250 361h188l252 -361h-117z" />
    <glyph glyph-name="uni1EC1" unicode="&#x1ec1;" horiz-adv-x="909" 
d="M610 578l-1 32l-3 84q-4 76 -14 115q-12 42 -33 65q-29 31 -78 31q-68 0 -101 -58q-44 -76 -44 -269h274zM872 227q-168 -256 -405 -256q-171 0 -286 120q-130 136 -130 382q0 223 123 362q118 134 299 134q124 0 210 -58q72 -48 116 -134q34 -67 50 -156l9 -67
q1 -14 3 -29q0 -10 1 -23h-516q3 -74 14 -134q13 -71 38 -123q62 -126 194 -126q78 0 146 51q25 18 50 45l35 41zM755 1382l-291 181q-82 49 -82 108q0 12 5 26q6 17 16 30q28 34 80 34q57 0 106 -57l281 -322h-115zM467 1282l-230 -201h-114l250 361h188l252 -361h-117z
" />
    <glyph glyph-name="uni1EBF" unicode="&#x1ebf;" horiz-adv-x="909" 
d="M610 578l-1 32l-3 84q-4 76 -14 115q-12 42 -33 65q-29 31 -78 31q-68 0 -101 -58q-44 -76 -44 -269h274zM872 227q-168 -256 -405 -256q-171 0 -286 120q-130 136 -130 382q0 223 123 362q118 134 299 134q124 0 210 -58q72 -48 116 -134q34 -67 50 -156l9 -67
q1 -14 3 -29q0 -10 1 -23h-516q3 -74 14 -134q13 -71 38 -123q62 -126 194 -126q78 0 146 51q25 18 50 45l35 41zM773 1373h-115l280 322q31 35 64 49q12 5 24 7q9 1 19 1q37 0 64 -17q36 -24 36 -73q0 -57 -82 -108zM467 1282l-230 -201h-114l250 361h188l252 -361h-117z
" />
    <glyph glyph-name="uni1EC3" unicode="&#x1ec3;" horiz-adv-x="909" 
d="M610 578l-1 32l-3 84q-4 76 -14 115q-12 42 -33 65q-29 31 -78 31q-68 0 -101 -58q-44 -76 -44 -269h274zM872 227q-168 -256 -405 -256q-171 0 -286 120q-130 136 -130 382q0 223 123 362q118 134 299 134q124 0 210 -58q72 -48 116 -134q34 -67 50 -156l9 -67
q1 -14 3 -29q0 -10 1 -23h-516q3 -74 14 -134q13 -71 38 -123q62 -126 194 -126q78 0 146 51q25 18 50 45l35 41zM702 1332l-1 13l-1 36q0 27 12 58q3 8 11 22l13 24q17 32 26 59q10 34 10 76q0 19 -2 36q-3 25 -10 40q-19 44 -55 44h-5q-2 0 -6 -1q-7 -1 -16 -4
q-16 -6 -16 -27q0 -10 5 -18l9 -10q-6 -4 0 0q7 -8 8 -9q6 -8 7 -10q7 -15 7 -31q0 -33 -28 -54q-18 -14 -46 -14q-44 0 -65 27q-18 25 -18 54q0 18 8 40q8 24 30 48q22 23 63 40q42 16 102 16q8 0 18 -1q14 -1 26 -3q40 -7 68 -21q43 -22 63 -51q27 -41 27 -94
q0 -44 -29 -85q-21 -31 -65 -59q-72 -44 -82 -65q-9 -19 -9 -76h-59zM467 1282l-230 -201h-114l250 361h188l252 -361h-117z" />
    <glyph glyph-name="uni1EC5" unicode="&#x1ec5;" horiz-adv-x="909" 
d="M610 578l-1 32l-3 84q-4 76 -14 115q-12 42 -33 65q-29 31 -78 31q-68 0 -101 -58q-44 -76 -44 -269h274zM872 227q-168 -256 -405 -256q-171 0 -286 120q-130 136 -130 382q0 223 123 362q118 134 299 134q124 0 210 -58q72 -48 116 -134q34 -67 50 -156l9 -67
q1 -14 3 -29q0 -10 1 -23h-516q3 -74 14 -134q13 -71 38 -123q62 -126 194 -126q78 0 146 51q25 18 50 45l35 41zM179 1488q1 9 3 15l14 56q15 48 38 84q65 101 186 101q38 0 88 -16l140 -59q55 -25 82 -25q49 0 78 37q10 14 19 33l11 30h88l-21 -71q-17 -49 -41 -86
q-68 -103 -186 -103q-57 0 -122 29l-60 27q-77 33 -93 39l-20 5l-18 1q-45 0 -74 -35q-24 -28 -26 -62h-86zM467 1282l-230 -201h-114l250 361h188l252 -361h-117z" />
    <glyph glyph-name="uni1EC7" unicode="&#x1ec7;" horiz-adv-x="909" 
d="M610 578l-1 32l-3 84q-4 76 -14 115q-12 42 -33 65q-29 31 -78 31q-68 0 -101 -58q-44 -76 -44 -269h274zM872 227q-168 -256 -405 -256q-171 0 -286 120q-130 136 -130 382q0 223 123 362q118 134 299 134q124 0 210 -58q72 -48 116 -134q34 -67 50 -156l9 -67
q1 -14 3 -29q0 -10 1 -23h-516q3 -74 14 -134q13 -71 38 -123q62 -126 194 -126q78 0 146 51q25 18 50 45l35 41zM380 -229q38 47 97 47q131 0 131 -135q0 -131 -131 -131q-60 0 -98 47q-31 40 -31 86q0 45 32 86zM467 1282l-230 -201h-114l250 361h188l252 -361h-117z" />
    <glyph glyph-name="igrave" unicode="&#xec;" horiz-adv-x="569" 
d="M523 0h-490v49q65 16 82 32q27 24 27 91v602q0 101 -109 121v49h393v-778q0 -107 97 -117v-49zM318 1081l-291 181q-82 49 -82 108q0 12 5 26q5 17 16 30q28 34 79 34q58 0 107 -57l280 -322h-114z" />
    <glyph glyph-name="iacute" unicode="&#xed;" horiz-adv-x="569" 
d="M521 0h-489v49q65 16 82 32q27 24 27 91v602q0 101 -109 121v49h393v-778q0 -107 96 -117v-49zM218 1081h-114l280 322q31 35 63 49q13 5 25 7q9 1 19 1q37 0 64 -17q36 -24 36 -73q0 -57 -82 -108z" />
    <glyph glyph-name="uni1EC9" unicode="&#x1ec9;" horiz-adv-x="569" 
d="M521 0h-489v49q65 16 82 32q27 24 27 91v602q0 101 -109 121v49h393v-778q0 -107 96 -117v-49zM231 1040v13l-2 36q0 27 13 58q3 8 10 22l13 24q18 32 26 59q11 34 11 76q0 19 -2 36q-4 25 -10 40q-19 44 -56 44h-4q-3 0 -7 -1q-7 -1 -16 -4q-15 -6 -15 -27q0 -10 5 -18
l8 -10q-6 -4 0 0q8 -8 8 -9q6 -8 7 -10q7 -15 7 -31q0 -33 -28 -54q-18 -14 -46 -14q-44 0 -64 27q-18 25 -18 54q0 18 7 40q9 24 31 48q21 23 62 40q42 16 102 16q9 0 18 -1q15 -1 27 -3q40 -7 67 -21q43 -22 63 -51q28 -41 28 -94q0 -44 -29 -85q-22 -31 -66 -59
q-71 -44 -81 -65q-10 -19 -10 -76h-59z" />
    <glyph glyph-name="itilde" unicode="&#x129;" horiz-adv-x="569" 
d="M521 0h-489v49q65 16 82 32q26 24 26 91v602q0 101 -108 121v49h393v-778q0 -107 96 -117v-49zM-98 1124q2 9 3 15l14 56q16 48 39 84q64 101 186 101q37 0 87 -16l140 -59q55 -25 82 -25q49 0 78 37q10 14 19 33l11 30h89l-21 -71q-18 -49 -42 -86q-68 -103 -185 -103
q-58 0 -123 29l-60 27q-76 33 -93 39l-19 5l-19 1q-44 0 -74 -35q-24 -28 -26 -62h-86z" />
    <glyph glyph-name="uni1ECB" unicode="&#x1ecb;" horiz-adv-x="569" 
d="M521 0h-489v49q65 16 82 32q27 24 27 91v602q0 101 -109 121v49h393v-778q0 -107 96 -117v-49zM282 1415q158 0 158 -160q0 -157 -158 -157q-160 0 -160 157q0 160 160 160zM192 -229q38 47 97 47q131 0 131 -135q0 -131 -131 -131q-60 0 -97 47q-32 40 -32 86
q0 45 32 86z" />
    <glyph glyph-name="ograve" unicode="&#xf2;" 
d="M352 387q1 -45 3 -79q4 -85 18 -139q33 -134 143 -134q98 0 132 119q15 53 21 137q5 68 5 178q0 242 -33 336q-35 100 -127 100q-103 0 -138 -130q-15 -55 -20 -139q-4 -62 -4 -167v-82zM176 818q131 151 338 151q200 0 331 -143q130 -142 130 -357q0 -209 -126 -351
q-131 -147 -335 -147q-207 0 -338 149q-125 142 -125 349q0 206 125 349zM561 1081l-291 181q-82 49 -82 108q0 12 5 26q6 17 16 30q28 34 80 34q58 0 106 -57l281 -322h-115z" />
    <glyph glyph-name="oacute" unicode="&#xf3;" 
d="M352 387q1 -45 3 -79q4 -85 18 -139q33 -134 143 -134q98 0 132 119q15 53 21 137q5 68 5 178q0 242 -33 336q-35 100 -127 100q-103 0 -138 -130q-15 -55 -20 -139q-4 -62 -4 -167v-82zM176 818q131 151 338 151q200 0 331 -143q130 -142 130 -357q0 -209 -126 -351
q-131 -147 -335 -147q-207 0 -338 149q-125 142 -125 349q0 206 125 349zM463 1081h-115l281 322q31 35 63 49q12 5 24 7q9 1 19 1q37 0 64 -17q36 -24 36 -73q0 -57 -82 -108z" />
    <glyph glyph-name="uni1ECF" unicode="&#x1ecf;" 
d="M352 387q1 -45 3 -79q4 -85 18 -139q33 -134 143 -134q98 0 132 119q15 53 21 137q5 68 5 178q0 242 -33 336q-35 100 -127 100q-103 0 -138 -130q-15 -55 -20 -139q-4 -62 -4 -167v-82zM176 818q131 151 338 151q200 0 331 -143q130 -142 130 -357q0 -209 -126 -351
q-131 -147 -335 -147q-207 0 -338 149q-125 142 -125 349q0 206 125 349zM463 1040l-1 13l-1 36q0 27 12 58q3 8 11 22l13 24q17 32 26 59q10 34 10 76q0 19 -2 36q-3 25 -10 40q-19 44 -55 44h-5q-2 0 -6 -1q-7 -1 -16 -4q-16 -6 -16 -27q0 -10 5 -18l9 -10q-6 -4 0 0
q7 -8 8 -9q6 -8 7 -10q7 -15 7 -31q0 -33 -28 -54q-18 -14 -46 -14q-44 0 -65 27q-18 25 -18 54q0 18 8 40q8 24 30 48q22 23 63 40q42 16 102 16q8 0 18 -1q14 -1 26 -3q40 -7 68 -21q43 -22 63 -51q27 -41 27 -94q0 -44 -29 -85q-21 -31 -65 -59q-72 -44 -82 -65
q-9 -19 -9 -76h-59z" />
    <glyph glyph-name="otilde" unicode="&#xf5;" 
d="M352 387q1 -45 3 -79q4 -85 18 -139q33 -134 143 -134q98 0 132 119q15 53 21 137q5 68 5 178q0 242 -33 336q-35 100 -127 100q-103 0 -138 -130q-15 -55 -20 -139q-4 -62 -4 -167v-82zM176 818q131 151 338 151q200 0 331 -143q130 -142 130 -357q0 -209 -126 -351
q-131 -147 -335 -147q-207 0 -338 149q-125 142 -125 349q0 206 125 349zM139 1124q2 9 3 15l14 56q16 48 39 84q64 101 186 101q37 0 87 -16l140 -59q55 -25 82 -25q49 0 78 37q11 14 19 33l12 30h88l-21 -71q-18 -49 -42 -86q-68 -103 -185 -103q-58 0 -123 29l-59 27
q-77 33 -94 39l-19 5l-19 1q-44 0 -74 -35q-24 -28 -26 -62h-86z" />
    <glyph glyph-name="uni1ECD" unicode="&#x1ecd;" 
d="M352 387q1 -45 3 -79q4 -85 18 -139q33 -134 143 -134q98 0 132 119q15 53 21 137q5 68 5 178q0 242 -33 336q-35 100 -127 100q-103 0 -138 -130q-15 -55 -20 -139q-4 -62 -4 -167v-82zM176 818q131 151 338 151q200 0 331 -143q130 -142 130 -357q0 -209 -126 -351
q-131 -147 -335 -147q-207 0 -338 149q-125 142 -125 349q0 206 125 349zM415 -229q38 47 97 47q131 0 131 -135q0 -131 -131 -131q-60 0 -98 47q-31 40 -31 86q0 45 32 86z" />
    <glyph glyph-name="ocircumflex" unicode="&#xf4;" 
d="M352 387q1 -45 3 -79q4 -85 18 -139q33 -134 143 -134q98 0 132 119q15 53 21 137q5 68 5 178q0 242 -33 336q-35 100 -127 100q-103 0 -138 -130q-15 -55 -20 -139q-4 -62 -4 -167v-82zM176 818q131 151 338 151q200 0 331 -143q130 -142 130 -357q0 -209 -126 -351
q-131 -147 -335 -147q-207 0 -338 149q-125 142 -125 349q0 206 125 349zM512 1282l-230 -201h-114l250 361h188l252 -361h-117z" />
    <glyph glyph-name="uni1ED3" unicode="&#x1ed3;" 
d="M352 387q1 -45 3 -79q4 -85 18 -139q33 -134 143 -134q98 0 132 119q15 53 21 137q5 68 5 178q0 242 -33 336q-35 100 -127 100q-103 0 -138 -130q-15 -55 -20 -139q-4 -62 -4 -167v-82zM176 818q131 151 338 151q200 0 331 -143q130 -142 130 -357q0 -209 -126 -351
q-131 -147 -335 -147q-207 0 -338 149q-125 142 -125 349q0 206 125 349zM800 1400l-291 181q-82 49 -82 108q0 12 5 26q6 17 16 30q28 34 80 34q58 0 106 -57l281 -322h-115zM512 1282l-230 -201h-114l250 361h188l252 -361h-117z" />
    <glyph glyph-name="uni1ED1" unicode="&#x1ed1;" 
d="M352 387q1 -45 3 -79q4 -85 18 -139q33 -134 143 -134q98 0 132 119q15 53 21 137q5 68 5 178q0 242 -33 336q-35 100 -127 100q-103 0 -138 -130q-15 -55 -20 -139q-4 -62 -4 -167v-82zM176 818q131 151 338 151q200 0 331 -143q130 -142 130 -357q0 -209 -126 -351
q-131 -147 -335 -147q-207 0 -338 149q-125 142 -125 349q0 206 125 349zM827 1364h-115l281 322q31 35 63 49q12 5 24 7q9 1 19 1q37 0 64 -17q36 -24 36 -73q0 -57 -82 -108zM512 1282l-230 -201h-114l250 361h188l252 -361h-117z" />
    <glyph glyph-name="uni1ED5" unicode="&#x1ed5;" 
d="M352 387q1 -45 3 -79q4 -85 18 -139q33 -134 143 -134q98 0 132 119q15 53 21 137q5 68 5 178q0 242 -33 336q-35 100 -127 100q-103 0 -138 -130q-15 -55 -20 -139q-4 -62 -4 -167v-82zM176 818q131 151 338 151q200 0 331 -143q130 -142 130 -357q0 -209 -126 -351
q-131 -147 -335 -147q-207 0 -338 149q-125 142 -125 349q0 206 125 349zM754 1334l-1 13l-1 36q0 27 12 58q3 8 11 22l13 24q17 32 26 59q10 34 10 76q0 19 -2 36q-3 25 -10 40q-19 44 -55 44h-5q-2 0 -6 -1q-7 -1 -16 -4q-16 -6 -16 -27q0 -10 5 -18l9 -10q-6 -4 0 0
q7 -8 8 -9q6 -8 7 -10q7 -15 7 -31q0 -33 -28 -54q-18 -14 -46 -14q-44 0 -65 27q-18 25 -18 54q0 18 8 40q8 24 30 48q22 23 63 40q42 16 102 16q8 0 18 -1q14 -1 26 -3q40 -7 68 -21q43 -22 63 -51q27 -41 27 -94q0 -44 -29 -85q-21 -31 -65 -59q-72 -44 -82 -65
q-9 -19 -9 -76h-59zM512 1282l-230 -201h-114l250 361h188l252 -361h-117z" />
    <glyph glyph-name="uni1ED7" unicode="&#x1ed7;" 
d="M352 387q1 -45 3 -79q4 -85 18 -139q33 -134 143 -134q98 0 132 119q15 53 21 137q5 68 5 178q0 242 -33 336q-35 100 -127 100q-103 0 -138 -130q-15 -55 -20 -139q-4 -62 -4 -167v-82zM176 818q131 151 338 151q200 0 331 -143q130 -142 130 -357q0 -209 -126 -351
q-131 -147 -335 -147q-207 0 -338 149q-125 142 -125 349q0 206 125 349zM219 1496q2 9 3 15l14 56q16 48 39 84q64 101 186 101q37 0 87 -16l140 -59q55 -25 82 -25q49 0 78 37q11 14 19 33l12 30h88l-21 -71q-18 -49 -42 -86q-68 -103 -185 -103q-58 0 -123 29l-59 27
q-77 33 -94 39l-19 5l-19 1q-44 0 -74 -35q-24 -28 -26 -62h-86zM512 1282l-230 -201h-114l250 361h188l252 -361h-117z" />
    <glyph glyph-name="uni1ED9" unicode="&#x1ed9;" 
d="M352 387q1 -45 3 -79q4 -85 18 -139q33 -134 143 -134q98 0 132 119q15 53 21 137q5 68 5 178q0 242 -33 336q-35 100 -127 100q-103 0 -138 -130q-15 -55 -20 -139q-4 -62 -4 -167v-82zM176 818q131 151 338 151q200 0 331 -143q130 -142 130 -357q0 -209 -126 -351
q-131 -147 -335 -147q-207 0 -338 149q-125 142 -125 349q0 206 125 349zM415 -229q38 47 97 47q131 0 131 -135q0 -131 -131 -131q-60 0 -98 47q-31 40 -31 86q0 45 32 86zM512 1282l-230 -201h-114l250 361h188l252 -361h-117z" />
    <glyph glyph-name="glyph217" unicode="&#xf9;" horiz-adv-x="1138" 
d="M1099 41q-285 -30 -397 -68v133l-52 -42q-33 -26 -65 -44q-85 -49 -174 -49q-145 0 -218 89q-61 75 -61 198v516q0 104 -100 121v49h385v-717q1 -13 2 -24q3 -28 13 -47q26 -52 100 -52q51 0 98 31q18 12 38 29l32 31v579q0 76 -38 100q-15 11 -40 15l-49 6v49h411v-737
q0 -116 115 -119v-47zM603 1081l-290 181q-82 49 -82 108q0 12 4 26q6 17 17 30q27 34 79 34q58 0 107 -57l280 -322h-115z" />
    <glyph glyph-name="glyph218" unicode="&#xfa;" horiz-adv-x="1138" 
d="M1099 41q-285 -30 -397 -68v133l-52 -42q-33 -26 -65 -44q-85 -49 -174 -49q-145 0 -218 89q-61 75 -61 198v516q0 104 -100 121v49h385v-717q1 -13 2 -24q3 -28 13 -47q26 -52 100 -52q51 0 98 31q18 12 38 29l32 31v579q0 76 -38 100q-15 11 -40 15l-49 6v49h411v-737
q0 -116 115 -119v-47zM505 1081h-115l281 322q31 35 63 49q12 5 25 7q9 1 18 1q38 0 64 -17q37 -24 37 -73q0 -57 -82 -108z" />
    <glyph glyph-name="uni1EE7" unicode="&#x1ee7;" horiz-adv-x="1138" 
d="M1099 41q-285 -30 -397 -68v133l-52 -42q-33 -26 -65 -44q-85 -49 -174 -49q-145 0 -218 89q-61 75 -61 198v516q0 104 -100 121v49h385v-717q1 -13 2 -24q3 -28 13 -47q26 -52 100 -52q51 0 98 31q18 12 38 29l32 31v579q0 76 -38 100q-15 11 -40 15l-49 6v49h411v-737
q0 -116 115 -119v-47zM489 1040v13l-2 36q0 27 13 58q3 8 10 22l13 24q18 32 26 59q11 34 11 76q0 19 -2 36q-4 25 -10 40q-19 44 -56 44h-4q-3 0 -7 -1q-7 -1 -16 -4q-15 -6 -15 -27q0 -10 5 -18l8 -10q-6 -4 0 0q8 -8 8 -9q6 -8 7 -10q7 -15 7 -31q0 -33 -28 -54
q-18 -14 -46 -14q-44 0 -64 27q-18 25 -18 54q0 18 7 40q9 24 31 48q21 23 62 40q42 16 102 16q9 0 18 -1q15 -1 27 -3q40 -7 67 -21q43 -22 63 -51q28 -41 28 -94q0 -44 -29 -85q-22 -31 -66 -59q-71 -44 -81 -65q-10 -19 -10 -76h-59z" />
    <glyph glyph-name="utilde" unicode="&#x169;" horiz-adv-x="1138" 
d="M1099 41q-285 -30 -397 -68v133l-52 -42q-33 -26 -65 -44q-85 -49 -174 -49q-145 0 -218 89q-61 75 -61 198v516q0 104 -100 121v49h385v-717q1 -13 2 -24q3 -28 13 -47q26 -52 100 -52q51 0 98 31q18 12 38 29l32 31v579q0 76 -38 100q-15 11 -40 15l-49 6v49h411v-737
q0 -116 115 -119v-47zM191 1124q2 9 4 15l14 56q15 48 38 84q64 101 186 101q38 0 87 -16l140 -59q56 -25 82 -25q50 0 78 37q11 14 19 33l12 30h88l-21 -71q-17 -49 -41 -86q-68 -103 -186 -103q-57 0 -123 29l-59 27q-77 33 -93 39l-20 5l-18 1q-45 0 -74 -35
q-25 -28 -26 -62h-87z" />
    <glyph glyph-name="uni1EE5" unicode="&#x1ee5;" horiz-adv-x="1138" 
d="M1099 41q-285 -30 -397 -68v133l-52 -42q-33 -26 -65 -44q-85 -49 -174 -49q-145 0 -218 89q-61 75 -61 198v516q0 104 -100 121v49h385v-717q1 -13 2 -24q3 -28 13 -47q26 -52 100 -52q51 0 98 31q18 12 38 29l32 31v579q0 76 -38 100q-15 11 -40 15l-49 6v49h411v-737
q0 -116 115 -119v-47zM467 -229q38 47 97 47q131 0 131 -135q0 -131 -131 -131q-60 0 -97 47q-32 40 -32 86q0 45 32 86z" />
    <glyph glyph-name="uhorn" unicode="&#x1b0;" horiz-adv-x="1138" 
d="M984 735v-528q0 -116 115 -119v-47q-285 -30 -398 -68v133l-51 -42q-33 -26 -65 -44q-85 -49 -174 -49q-146 0 -218 89q-61 75 -61 198v516q0 104 -100 121v49h385v-717q1 -13 2 -24q3 -28 13 -47q25 -52 99 -52q52 0 99 31q18 12 38 29l31 31v579q0 76 -37 100
q-15 11 -40 15l-50 6v49h412v-159q15 13 28 25q62 63 62 114q0 31 -28 31l-12 -1q-9 -2 -19 -2q-39 0 -67 23q-38 29 -38 89q0 116 116 116q72 0 111 -53q34 -45 34 -108t-26 -119q-23 -47 -64 -89q-32 -33 -77 -64z" />
    <glyph glyph-name="uni1EEB" unicode="&#x1eeb;" horiz-adv-x="1138" 
d="M603 1081l-291 181q-82 49 -82 108q0 12 5 26q6 17 16 30q28 34 80 34q58 0 106 -57l281 -322h-115zM984 735v-528q0 -116 115 -119v-47q-285 -30 -398 -68v133l-51 -42q-33 -26 -65 -44q-85 -49 -174 -49q-146 0 -218 89q-61 75 -61 198v516q0 104 -100 121v49h385v-717
q1 -13 2 -24q3 -28 13 -47q25 -52 99 -52q52 0 99 31q18 12 38 29l31 31v579q0 76 -37 100q-15 11 -40 15l-50 6v49h412v-159q15 13 28 25q62 63 62 114q0 31 -28 31l-12 -1q-9 -2 -19 -2q-39 0 -67 23q-38 29 -38 89q0 116 116 116q72 0 111 -53q34 -45 34 -108t-26 -119
q-23 -47 -64 -89q-32 -33 -77 -64z" />
    <glyph glyph-name="uni1EE9" unicode="&#x1ee9;" horiz-adv-x="1138" 
d="M505 1081h-115l281 322q31 35 63 49q12 5 25 7q8 1 18 1q37 0 64 -17q37 -24 37 -73q0 -57 -82 -108zM984 735v-528q0 -116 115 -119v-47q-285 -30 -398 -68v133l-51 -42q-33 -26 -65 -44q-85 -49 -174 -49q-146 0 -218 89q-61 75 -61 198v516q0 104 -100 121v49h385
v-717q1 -13 2 -24q3 -28 13 -47q25 -52 99 -52q52 0 99 31q18 12 38 29l31 31v579q0 76 -37 100q-15 11 -40 15l-50 6v49h412v-159q15 13 28 25q62 63 62 114q0 31 -28 31l-12 -1q-9 -2 -19 -2q-39 0 -67 23q-38 29 -38 89q0 116 116 116q72 0 111 -53q34 -45 34 -108
t-26 -119q-23 -47 -64 -89q-32 -33 -77 -64z" />
    <glyph glyph-name="uni1EED" unicode="&#x1eed;" horiz-adv-x="1138" 
d="M489 1040v13l-2 36q0 27 12 58l11 22l13 24q17 32 26 59q11 34 11 76q0 19 -3 36q-3 25 -10 40q-19 44 -55 44h-4q-3 0 -7 -1q-7 -1 -16 -4q-16 -6 -16 -27q0 -10 5 -18l9 -10q-6 -4 0 0q8 -8 8 -9q6 -8 7 -10q7 -15 7 -31q0 -33 -28 -54q-18 -14 -46 -14q-44 0 -64 27
q-19 25 -19 54q0 18 8 40q8 24 31 48q21 23 62 40q42 16 102 16q8 0 18 -1q14 -1 27 -3q39 -7 67 -21q43 -22 63 -51q28 -41 28 -94q0 -44 -29 -85q-22 -31 -66 -59q-71 -44 -81 -65q-10 -19 -10 -76h-59zM984 735v-528q0 -116 115 -119v-47q-285 -30 -398 -68v133l-51 -42
q-33 -26 -65 -44q-85 -49 -174 -49q-146 0 -218 89q-61 75 -61 198v516q0 104 -100 121v49h385v-717q1 -13 2 -24q3 -28 13 -47q25 -52 99 -52q52 0 99 31q18 12 38 29l31 31v579q0 76 -37 100q-15 11 -40 15l-50 6v49h412v-159q15 13 28 25q62 63 62 114q0 31 -28 31
l-12 -1q-9 -2 -19 -2q-39 0 -67 23q-38 29 -38 89q0 116 116 116q72 0 111 -53q34 -45 34 -108t-26 -119q-23 -47 -64 -89q-32 -33 -77 -64z" />
    <glyph glyph-name="uni1EEF" unicode="&#x1eef;" horiz-adv-x="1138" 
d="M191 1124q2 9 3 15l15 56q15 48 38 84q64 101 186 101q38 0 87 -16l140 -59q56 -25 82 -25q49 0 78 37q11 14 19 33l12 30h88l-21 -71q-18 -49 -42 -86q-68 -103 -185 -103q-57 0 -123 29l-59 27q-77 33 -93 39l-20 5l-18 1q-45 0 -74 -35q-25 -28 -27 -62h-86zM984 735
v-528q0 -116 115 -119v-47q-285 -30 -398 -68v133l-51 -42q-33 -26 -65 -44q-85 -49 -174 -49q-146 0 -218 89q-61 75 -61 198v516q0 104 -100 121v49h385v-717q1 -13 2 -24q3 -28 13 -47q25 -52 99 -52q52 0 99 31q18 12 38 29l31 31v579q0 76 -37 100q-15 11 -40 15l-50 6
v49h412v-159q15 13 28 25q62 63 62 114q0 31 -28 31l-12 -1q-9 -2 -19 -2q-39 0 -67 23q-38 29 -38 89q0 116 116 116q72 0 111 -53q34 -45 34 -108t-26 -119q-23 -47 -64 -89q-32 -33 -77 -64z" />
    <glyph glyph-name="uni1EF1" unicode="&#x1ef1;" horiz-adv-x="1138" 
d="M467 -229q38 47 97 47q131 0 131 -135q0 -131 -131 -131q-60 0 -98 47q-31 40 -31 86q0 45 32 86zM984 735v-528q0 -116 115 -119v-47q-285 -30 -398 -68v133l-51 -42q-33 -26 -65 -44q-85 -49 -174 -49q-146 0 -218 89q-61 75 -61 198v516q0 104 -100 121v49h385v-717
q1 -13 2 -24q3 -28 13 -47q25 -52 99 -52q52 0 99 31q18 12 38 29l31 31v579q0 76 -37 100q-15 11 -40 15l-50 6v49h412v-159q15 13 28 25q62 63 62 114q0 31 -28 31l-12 -1q-9 -2 -19 -2q-39 0 -67 23q-38 29 -38 89q0 116 116 116q72 0 111 -53q34 -45 34 -108t-26 -119
q-23 -47 -64 -89q-32 -33 -77 -64z" />
    <glyph glyph-name="ohorn" unicode="&#x1a1;" 
d="M352 387q1 -45 3 -79q4 -85 18 -139q33 -134 143 -134q98 0 132 119q15 53 21 137q5 68 5 178q0 242 -33 336q-35 100 -127 100q-103 0 -138 -130q-15 -55 -20 -139q-4 -62 -4 -167v-82zM176 818q131 151 338 151q200 0 331 -143q130 -142 130 -357q0 -209 -126 -351
q-131 -147 -335 -147q-207 0 -338 149q-125 142 -125 349q0 206 125 349zM770 737l18 12l23 17q29 23 51 44q62 63 62 114q0 31 -28 31l-12 -1q-10 -2 -19 -2q-39 0 -68 23q-37 29 -37 89q0 116 116 116q72 0 111 -53q34 -45 34 -108t-26 -119q-23 -47 -64 -89
q-32 -33 -77 -64l-69 -42z" />
    <glyph glyph-name="uni1EDD" unicode="&#x1edd;" 
d="M353 387q0 -45 2 -79q4 -85 18 -139q34 -134 143 -134q98 0 132 119q15 53 21 137q5 68 5 178q0 242 -33 336q-35 100 -127 100q-103 0 -138 -130q-14 -55 -20 -139q-4 -62 -4 -167zM561 1081l-291 181q-82 49 -82 108q0 12 5 26q6 17 16 30q28 34 80 34q58 0 106 -57
l281 -322h-115zM888 772q87 -127 87 -303q0 -209 -126 -351q-131 -147 -335 -147q-207 0 -338 149q-125 142 -125 349q0 206 125 349q131 151 338 151q200 0 331 -143q8 -9 15 -18l2 2q62 63 62 114q0 31 -28 31l-12 -1q-9 -2 -19 -2q-39 0 -67 23q-38 29 -38 89
q0 116 116 116q72 0 111 -53q34 -45 34 -108t-26 -119q-23 -47 -64 -89q-19 -20 -43 -39z" />
    <glyph glyph-name="uni1EDB" unicode="&#x1edb;" 
d="M353 387q0 -45 2 -79q4 -85 18 -139q34 -134 143 -134q98 0 132 119q15 53 21 137q5 68 5 178q0 242 -33 336q-35 100 -127 100q-103 0 -138 -130q-14 -55 -20 -139q-4 -62 -4 -167zM463 1081h-115l281 322q31 35 63 49q12 5 25 7q8 1 18 1q37 0 64 -17q37 -24 37 -73
q0 -57 -82 -108zM888 772q87 -127 87 -303q0 -209 -126 -351q-131 -147 -335 -147q-207 0 -338 149q-125 142 -125 349q0 206 125 349q131 151 338 151q200 0 331 -143q8 -9 15 -18l2 2q62 63 62 114q0 31 -28 31l-12 -1q-9 -2 -19 -2q-39 0 -67 23q-38 29 -38 89
q0 116 116 116q72 0 111 -53q34 -45 34 -108t-26 -119q-23 -47 -64 -89q-19 -20 -43 -39z" />
    <glyph glyph-name="uni1EDF" unicode="&#x1edf;" 
d="M353 387q0 -45 2 -79q4 -85 18 -139q34 -134 143 -134q98 0 132 119q15 53 21 137q5 68 5 178q0 242 -33 336q-35 100 -127 100q-103 0 -138 -130q-14 -55 -20 -139q-4 -62 -4 -167zM463 1040v13l-2 36q0 27 12 58l11 22l13 24q17 32 26 59q11 34 11 76q0 19 -3 36
q-3 25 -10 40q-19 44 -55 44h-4q-3 0 -7 -1q-7 -1 -16 -4q-16 -6 -16 -27q0 -10 5 -18l9 -10q-6 -4 0 0q8 -8 8 -9q6 -8 7 -10q7 -15 7 -31q0 -33 -28 -54q-18 -14 -46 -14q-44 0 -64 27q-19 25 -19 54q0 18 8 40q8 24 31 48q21 23 62 40q42 16 102 16q8 0 18 -1
q14 -1 27 -3q39 -7 67 -21q43 -22 63 -51q28 -41 28 -94q0 -44 -29 -85q-22 -31 -66 -59q-71 -44 -81 -65q-10 -19 -10 -76h-59zM888 772q87 -127 87 -303q0 -209 -126 -351q-131 -147 -335 -147q-207 0 -338 149q-125 142 -125 349q0 206 125 349q131 151 338 151
q200 0 331 -143q8 -9 15 -18l2 2q62 63 62 114q0 31 -28 31l-12 -1q-9 -2 -19 -2q-39 0 -67 23q-38 29 -38 89q0 116 116 116q72 0 111 -53q34 -45 34 -108t-26 -119q-23 -47 -64 -89q-19 -20 -43 -39z" />
    <glyph glyph-name="uni1EE1" unicode="&#x1ee1;" 
d="M353 387q0 -45 2 -79q4 -85 18 -139q34 -134 143 -134q98 0 132 119q15 53 21 137q5 68 5 178q0 242 -33 336q-35 100 -127 100q-103 0 -138 -130q-14 -55 -20 -139q-4 -62 -4 -167zM139 1177q2 9 3 15l15 56q15 48 38 84q64 101 186 101q38 0 87 -16l140 -59
q56 -25 82 -25q49 0 78 37q11 14 19 33l12 30h88l-21 -71q-18 -49 -42 -86q-68 -103 -185 -103q-57 0 -123 29l-59 27q-77 33 -93 39l-20 5l-18 1q-45 0 -74 -35q-25 -28 -27 -62h-86zM888 772q87 -127 87 -303q0 -209 -126 -351q-131 -147 -335 -147q-207 0 -338 149
q-125 142 -125 349q0 206 125 349q131 151 338 151q200 0 331 -143q8 -9 15 -18l2 2q62 63 62 114q0 31 -28 31l-12 -1q-9 -2 -19 -2q-39 0 -67 23q-38 29 -38 89q0 116 116 116q72 0 111 -53q34 -45 34 -108t-26 -119q-23 -47 -64 -89q-19 -20 -43 -39z" />
    <glyph glyph-name="uni1EE3" unicode="&#x1ee3;" 
d="M353 387q0 -45 2 -79q4 -85 18 -139q34 -134 143 -134q98 0 132 119q15 53 21 137q5 68 5 178q0 242 -33 336q-35 100 -127 100q-103 0 -138 -130q-14 -55 -20 -139q-4 -62 -4 -167zM415 -229q38 47 97 47q131 0 131 -135q0 -131 -131 -131q-60 0 -98 47q-31 40 -31 86
q0 45 32 86zM888 772q87 -127 87 -303q0 -209 -126 -351q-131 -147 -335 -147q-207 0 -338 149q-125 142 -125 349q0 206 125 349q131 151 338 151q200 0 331 -143q8 -9 15 -18l2 2q62 63 62 114q0 31 -28 31l-12 -1q-9 -2 -19 -2q-39 0 -67 23q-38 29 -38 89q0 116 116 116
q72 0 111 -53q34 -45 34 -108t-26 -119q-23 -47 -64 -89q-19 -20 -43 -39z" />
    <glyph glyph-name="ygrave" unicode="&#x1ef3;" 
d="M982 895q-42 -6 -61 -20q-31 -24 -58 -93l-341 -908q-18 -47 -33 -80q-34 -79 -66 -121q-69 -93 -203 -93q-91 0 -144 55q-44 47 -44 105l1 14l3 19q5 25 18 44q34 56 113 56q61 0 92 -38q23 -29 23 -66q0 -11 -3 -23l-3 -14q0 -11 8 -22q10 -13 27 -13q45 0 88 67
q16 24 29 56q11 24 18 45l37 108l-246 605q-29 71 -72 163l-47 99q-24 45 -86 55v49h512v-49q-109 -8 -109 -55q0 -14 14 -50q5 -14 13 -34l162 -414l148 418q4 13 7 23q7 24 7 44q0 44 -37 58q-15 6 -37 8l-39 2v49h309v-49zM603 1081l-290 181q-82 49 -82 108q0 12 4 26
q6 17 17 30q27 34 79 34q58 0 107 -57l280 -322h-115z" />
    <glyph glyph-name="glyph235" unicode="&#xfd;" 
d="M982 895q-42 -6 -61 -20q-31 -24 -58 -93l-341 -908q-18 -47 -33 -80q-34 -79 -66 -121q-69 -93 -203 -93q-91 0 -144 55q-44 47 -44 105l1 14l3 19q5 25 18 44q34 56 113 56q61 0 92 -38q23 -29 23 -66q0 -11 -3 -23l-3 -14q0 -11 8 -22q10 -13 27 -13q45 0 88 67
q16 24 29 56q11 24 18 45l37 108l-246 605q-29 71 -72 163l-47 99q-24 45 -86 55v49h512v-49q-109 -8 -109 -55q0 -14 14 -50q5 -14 13 -34l162 -414l148 418q4 13 7 23q7 24 7 44q0 44 -37 58q-15 6 -37 8l-39 2v49h309v-49zM462 1081h-115l281 322q31 35 63 49q12 5 25 7
q9 1 18 1q38 0 64 -17q37 -24 37 -73q0 -57 -82 -108z" />
    <glyph glyph-name="uni1EF7" unicode="&#x1ef7;" 
d="M982 895q-42 -6 -61 -20q-31 -24 -58 -93l-341 -908q-18 -47 -33 -80q-34 -79 -66 -121q-69 -93 -203 -93q-91 0 -144 55q-44 47 -44 105l1 14l3 19q5 25 18 44q34 56 113 56q61 0 92 -38q23 -29 23 -66q0 -11 -3 -23l-3 -14q0 -11 8 -22q10 -13 27 -13q45 0 88 67
q16 24 29 56q11 24 18 45l37 108l-246 605q-29 71 -72 163l-47 99q-24 45 -86 55v49h512v-49q-109 -8 -109 -55q0 -14 14 -50q5 -14 13 -34l162 -414l148 418q4 13 7 23q7 24 7 44q0 44 -37 58q-15 6 -37 8l-39 2v49h309v-49zM560 1040v13l-2 36q0 27 13 58q3 8 10 22l13 24
q18 32 26 59q11 34 11 76q0 19 -2 36q-4 25 -10 40q-19 44 -56 44h-4q-3 0 -7 -1q-7 -1 -16 -4q-15 -6 -15 -27q0 -10 5 -18l8 -10q-6 -4 0 0q8 -8 8 -9q6 -8 7 -10q7 -15 7 -31q0 -33 -28 -54q-18 -14 -46 -14q-44 0 -64 27q-18 25 -18 54q0 18 7 40q9 24 31 48
q21 23 62 40q42 16 102 16q9 0 18 -1q15 -1 27 -3q40 -7 67 -21q43 -22 63 -51q28 -41 28 -94q0 -44 -29 -85q-22 -31 -66 -59q-71 -44 -81 -65q-10 -19 -10 -76h-59z" />
    <glyph glyph-name="uni1EF9" unicode="&#x1ef9;" 
d="M982 895q-42 -6 -61 -20q-31 -24 -58 -93l-341 -908q-18 -47 -33 -80q-34 -79 -66 -121q-69 -93 -203 -93q-91 0 -144 55q-44 47 -44 105l1 14l3 19q5 25 18 44q34 56 113 56q61 0 92 -38q23 -29 23 -66q0 -11 -3 -23l-3 -14q0 -11 8 -22q10 -13 27 -13q45 0 88 67
q16 24 29 56q11 24 18 45l37 108l-246 605q-29 71 -72 163l-47 99q-24 45 -86 55v49h512v-49q-109 -8 -109 -55q0 -14 14 -50q5 -14 13 -34l162 -414l148 418q4 13 7 23q7 24 7 44q0 44 -37 58q-15 6 -37 8l-39 2v49h309v-49zM191 1124q2 9 4 15l14 56q15 48 38 84
q64 101 186 101q38 0 87 -16l140 -59q56 -25 82 -25q50 0 78 37q11 14 19 33l12 30h88l-21 -71q-17 -49 -41 -86q-68 -103 -186 -103q-57 0 -123 29l-59 27q-77 33 -93 39l-20 5l-18 1q-45 0 -74 -35q-25 -28 -26 -62h-87z" />
    <glyph glyph-name="uni1EF5" unicode="&#x1ef5;" 
d="M982 895q-42 -6 -61 -20q-31 -24 -58 -93l-341 -908q-18 -47 -33 -80q-34 -79 -66 -121q-69 -93 -203 -93q-91 0 -144 55q-44 47 -44 105l1 14l3 19q5 25 18 44q34 56 113 56q61 0 92 -38q23 -29 23 -66q0 -11 -3 -23l-3 -14q0 -11 8 -22q10 -13 27 -13q45 0 88 67
q16 24 29 56q11 24 18 45l37 108l-246 605q-29 71 -72 163l-47 99q-24 45 -86 55v49h512v-49q-109 -8 -109 -55q0 -14 14 -50q5 -14 13 -34l162 -414l148 418q4 13 7 23q7 24 7 44q0 44 -37 58q-15 6 -37 8l-39 2v49h309v-49zM538 -229q38 47 97 47q131 0 131 -135
q0 -131 -131 -131q-60 0 -97 47q-32 40 -32 86q0 45 32 86z" />
    <glyph glyph-name="divide" unicode="&#xf7;" horiz-adv-x="1167" 
d="M67 428v180h1032v-180h-1032zM585 1100q62 0 109 -48q47 -47 47 -110q0 -59 -47 -107q-47 -49 -107 -49q-160 0 -160 156q0 158 158 158zM585 250q62 0 109 -46q47 -47 47 -110q0 -59 -47 -108q-48 -49 -107 -49q-65 0 -113 47q-47 47 -47 110q0 156 158 156z" />
    <glyph glyph-name="ugrave" horiz-adv-x="582" 
 />
    <glyph glyph-name="uacute" horiz-adv-x="580" 
 />
    <glyph glyph-name="yacute" horiz-adv-x="629" 
 />
    <glyph glyph-name="Ccaron" unicode="&#x10c;" horiz-adv-x="1274" 
 />
    <glyph glyph-name="ccaron" unicode="&#x10d;" horiz-adv-x="922" 
 />
    <glyph glyph-name="Dslash" unicode="&#x110;" horiz-adv-x="1478" 
d="M764 668h-234v-478q0 -118 117 -118q191 0 291 126q118 152 118 494q0 89 -12 176q-18 116 -55 205q-46 110 -121 171q-87 71 -211 71q-78 0 -106 -25q-21 -17 -21 -55v-471h234v-96zM12 764h186v432q0 83 -55 112q-21 12 -54 18q-13 2 -30 4l-31 3v51h625q206 0 361 -60
q140 -55 234 -157q85 -92 127 -216q38 -112 38 -238q0 -303 -175 -492q-195 -209 -562 -221h-648v51q170 0 170 135v482h-186v96z" />
    <glyph glyph-name="dcroat" unicode="&#x111;" horiz-adv-x="1138" 
d="M688 727q0 3 -9 21l-28 43q-51 63 -123 63q-100 0 -141 -117q-18 -50 -26 -122q-7 -62 -7 -144v-51q1 -32 3 -59q4 -74 18 -127q37 -148 143 -148q61 0 120 63q50 54 50 80v498zM973 1065v-858q0 -55 16 -79q27 -37 104 -40v-47q-196 -24 -247 -32q-59 -10 -152 -36v133
q-68 -71 -112 -96q-69 -39 -173 -39q-138 0 -243 124q-115 135 -115 347q0 251 125 397q112 130 270 130q81 0 149 -44q26 -16 52 -41l41 -42v223h-332v102h332v50q0 75 -36 97q-16 10 -48 15l-72 6v49h441v-217h130v-102h-130z" />
    <glyph glyph-name="quoteleft" unicode="&#x2018;" horiz-adv-x="681" 
d="M505 1370q-14 -9 -26 -18l-33 -24q-42 -33 -74 -65q-90 -89 -90 -163q0 -45 41 -45l17 2q14 2 28 2q56 0 98 -33q54 -43 54 -129q0 -168 -168 -168q-103 0 -161 77q-48 65 -48 157q0 90 38 171q32 68 91 129q47 48 112 92l99 60z" />
    <glyph glyph-name="quoteright" unicode="&#x2019;" horiz-adv-x="681" 
d="M157 774q14 10 26 18l33 25q43 32 74 64q91 90 91 163q0 46 -41 46l-18 -3q-13 -2 -27 -2q-57 0 -98 33q-54 43 -54 129q0 168 168 168q103 0 160 -77q49 -65 49 -156t-38 -171q-32 -69 -91 -129q-47 -48 -112 -93l-99 -60z" />
    <glyph glyph-name="quotedblleft" unicode="&#x201c;" 
d="M427 1370q-14 -9 -26 -18l-33 -24q-42 -33 -74 -65q-90 -89 -90 -163q0 -45 41 -45l17 2q14 2 28 2q56 0 98 -33q54 -43 54 -129q0 -168 -168 -168q-103 0 -161 77q-48 65 -48 157q0 90 38 171q32 68 91 129q47 48 112 92l99 60zM980 1370q-14 -9 -26 -18l-33 -24
q-42 -33 -74 -65q-90 -89 -90 -163q0 -45 41 -45l17 2q14 2 28 2q56 0 98 -33q54 -43 54 -129q0 -168 -168 -168q-103 0 -161 77q-48 65 -48 157q0 90 38 171q32 68 91 129q47 48 112 92l99 60z" />
    <glyph glyph-name="quotedblright" unicode="&#x201d;" 
d="M595 774q14 10 26 18l33 25q43 32 74 64q91 90 91 163q0 46 -41 46l-18 -3q-13 -2 -27 -2q-57 0 -98 33q-54 43 -54 129q0 168 168 168q103 0 160 -77q49 -65 49 -156t-38 -171q-32 -69 -91 -129q-47 -48 -112 -93l-99 -60zM42 774q14 10 26 18l33 25q43 32 74 64
q91 90 91 163q0 46 -41 46l-18 -3q-13 -2 -27 -2q-57 0 -98 33q-54 43 -54 129q0 168 168 168q103 0 160 -77q49 -65 49 -156t-38 -171q-32 -69 -91 -129q-47 -48 -112 -93l-99 -60z" />
    <glyph glyph-name="ellipsis" unicode="&#x2026;" horiz-adv-x="2048" 
d="M216 267q51 52 123 52t123 -51q51 -52 51 -123q0 -172 -174 -172q-172 0 -172 172q0 71 49 122zM898 267q51 52 123 52t123 -51q51 -52 51 -123q0 -172 -174 -172q-172 0 -172 172q0 71 49 122zM1580 267q51 52 123 52t123 -51q51 -52 51 -123q0 -172 -174 -172
q-172 0 -172 172q0 71 49 122z" />
  </font>
</defs>
</svg>
