<svg xmlns="http://www.w3.org/2000/svg">
<defs>
<font id="UTMTimes" horiz-adv-x="1478" >
  <font-face 
    font-family="UTM Times"
    font-weight="400"
    font-stretch="normal"
    units-per-em="2048"
    panose-1="2 4 6 3 5 5 6 2 2 4"
    ascent="1638"
    descent="-410"
    x-height="922"
    cap-height="1356"
    bbox="-143 -446 4942 2138"
    underline-thickness="109"
    underline-position="-143"
    unicode-range="U+0020-2026"
  />
<missing-glyph horiz-adv-x="5040" 
d="M3351 2045h10q37 -10 37 -52q0 -12 -32 -57h-28q0 24 28 54l2 10q-5 13 -10 15h-9q-8 0 -10 -19h-30q6 49 42 49zM2019 2016l29 -31q0 -16 -40 -30h-19l-59 12l-11 -12l-28 25q11 29 43 29h11l42 -11h2q10 0 30 18zM468 1980h142v-60h-94v-75h89v-59h-89v-129l-5 -5h-49
v323zM1155 1980h43l6 -5v-78h30v-52h-30v-188l-6 -5h-49v193h-25v52h25v78zM1621 1980h42l4 -5v-94h3q23 24 54 24h2q58 0 83 -71l2 -39v-143h-52v115q0 80 -42 80h-7q-43 0 -43 -86v-109h-51v323zM2200 1980h49l5 -5v-222q10 -51 45 -51q44 7 44 59v214l5 5h49v-216
q0 -85 -66 -112q-15 -8 -35 -8q-47 0 -82 55q-14 24 -14 57v224zM2435 1980h159v-60h-56v-268h-53v268h-55v55zM2621 1980h71q7 -4 83 -251h2l80 251h73v-328h-54v242h-2l-74 -242h-44q-4 0 -58 182l-19 60h-3v-242h-55v328zM3760 1980h52v-328h-45l-5 5v11l3 2l-3 14
q-29 -40 -78 -40q-67 0 -100 91l-5 39v3q0 94 92 125l23 3q35 0 63 -32h3v107zM2057 1928h36l4 -6v-49h-45v-221h-48v23q-23 -31 -59 -31q-89 14 -89 97v156h51v-104q0 -79 26 -86l18 -5h6q26 0 39 36l3 26v133h53v25zM3476 1928v-55h-31v-221h-47v25h-2q-15 -33 -57 -33
q-68 0 -86 78l-3 29v146h52v-120q0 -50 19 -68l21 -7h9q42 0 42 69v126h27q4 0 4 28l3 3h49zM758 1905q68 0 103 -77q9 -18 12 -54q0 -88 -90 -127l-32 -3q-63 0 -101 73q-12 22 -12 52v10q0 94 101 126h19zM1011 1905h3q74 0 83 -101v-152h-51v119q0 76 -42 76h-5
q-44 0 -44 -76v-119h-52v245h46v-21q30 29 62 29zM1466 1905h7q72 0 105 -89h-60q-16 31 -42 31h-17q-53 -14 -53 -61l-3 -15q12 -69 61 -69h9q22 0 47 27h40l2 3h3l2 -3l2 3l3 -3l2 3l2 -7q-33 -81 -110 -81q-76 0 -110 94l-4 36v3q0 85 77 120q15 8 37 8zM3141 1905h2

<glyph glyph-name=".notdef" horiz-adv-x="5040" 
d="M3351 2045h10q37 -10 37 -52q0 -12 -32 -57h-28q0 24 28 54l2 10q-5 13 -10 15h-9q-8 0 -10 -19h-30q6 49 42 49zM2019 2016l29 -31q0 -16 -40 -30h-19l-59 12l-11 -12l-28 25q11 29 43 29h11l42 -11h2q10 0 30 18zM468 1980h142v-60h-94v-75h89v-59h-89v-129l-5 -5h-49
v323zM1155 1980h43l6 -5v-78h30v-52h-30v-188l-6 -5h-49v193h-25v52h25v78zM1621 1980h42l4 -5v-94h3q23 24 54 24h2q58 0 83 -71l2 -39v-143h-52v115q0 80 -42 80h-7q-43 0 -43 -86v-109h-51v323zM2200 1980h49l5 -5v-222q10 -51 45 -51q44 7 44 59v214l5 5h49v-216
q0 -85 -66 -112q-15 -8 -35 -8q-47 0 -82 55q-14 24 -14 57v224zM2435 1980h159v-60h-56v-268h-53v268h-55v55zM2621 1980h71q7 -4 83 -251h2l80 251h73v-328h-54v242h-2l-74 -242h-44q-4 0 -58 182l-19 60h-3v-242h-55v328zM3760 1980h52v-328h-45l-5 5v11l3 2l-3 14
q-29 -40 -78 -40q-67 0 -100 91l-5 39v3q0 94 92 125l23 3q35 0 63 -32h3v107zM2057 1928h36l4 -6v-49h-45v-221h-48v23q-23 -31 -59 -31q-89 14 -89 97v156h51v-104q0 -79 26 -86l18 -5h6q26 0 39 36l3 26v133h53v25zM3476 1928v-55h-31v-221h-47v25h-2q-15 -33 -57 -33
q-68 0 -86 78l-3 29v146h52v-120q0 -50 19 -68l21 -7h9q42 0 42 69v126h27q4 0 4 28l3 3h49zM758 1905q68 0 103 -77q9 -18 12 -54q0 -88 -90 -127l-32 -3q-63 0 -101 73q-12 22 -12 52v10q0 94 101 126h19zM1011 1905h3q74 0 83 -101v-152h-51v119q0 76 -42 76h-5
q-44 0 -44 -76v-119h-52v245h46v-21q30 29 62 29zM1466 1905h7q72 0 105 -89h-60q-16 31 -42 31h-17q-53 -14 -53 -61l-3 -15q12 -69 61 -69h9q22 0 47 27h40l2 3h3l2 -3l2 3l3 -3l2 3l2 -7q-33 -81 -110 -81q-76 0 -110 94l-4 36v3q0 85 77 120q15 8 37 8zM3141 1905h2
q49 0 70 -60v-14h-52q0 16 -16 16h-4q-14 0 -19 -13v-13q0 -9 68 -35q30 -19 30 -59q0 -58 -61 -80l-23 -3q-76 12 -76 83h54q0 -20 27 -25h4q19 0 24 23q0 22 -68 44q-34 27 -34 59q0 66 74 77zM4203 1905q55 0 77 -63q7 -18 7 -65v-125h-52v112q0 83 -40 83h-11
q-33 0 -40 -54v-141h-52v5h-2l2 2v238h47v-21q25 29 64 29zM4432 1905h5q40 0 69 -40v18l-3 3l3 11h47v-208q0 -97 -85 -132l-33 -4h-7q-70 0 -104 80h59q24 -22 45 -23h13q22 0 43 22q15 13 22 52h-3q-32 -40 -73 -40q-57 0 -96 70q-10 18 -14 63q0 88 87 125zM3851 1897
h53v-136q6 -59 40 -59h7q46 0 46 93v102h51v-245h-47l-3 10h3l-3 3v5l3 2v3h-4q0 -23 -57 -31h-3q-59 0 -84 75l-2 85v93zM690 1771q10 -69 63 -69h7q59 14 59 65v15q-13 65 -59 65h-5q-58 0 -65 -76zM3630 1774q13 -72 61 -72h5q58 0 66 75q0 49 -51 70h-22q-37 0 -56 -57z
M4374 1774q8 -72 65 -72h5q59 12 59 72q0 61 -59 73h-14q-56 -16 -56 -62v-11zM3928 1620h52v-57h-52v57zM1054 1402q43 -11 43 -49v-4q0 -17 -32 -60h-28q0 25 31 57v7q0 12 -7 15h-12q-10 -4 -10 -19h-28v6q0 32 33 44zM3349 1339q92 0 138 -99h-60q-37 42 -80 42
q-55 0 -87 -68q-10 -22 -10 -47q0 -78 81 -110l18 -1q36 0 75 39h61q-44 -97 -138 -97q-93 0 -141 112q-10 31 -10 62q0 97 90 152q29 15 63 15zM3664 1339q57 0 103 -47q46 -51 46 -115v-20q0 -89 -91 -146q-33 -13 -63 -13q-89 0 -138 101q-13 33 -13 60v18q0 98 98 151
q29 11 58 11zM2261 1337h2l47 -11h3q11 0 26 11l18 -36q-18 -19 -35 -19h-3l-54 10l-20 -7l-20 36q18 16 36 16zM716 1334h19q118 0 129 -26q25 -26 25 -62q-10 -57 -30 -57v-6q47 -23 47 -66v-18q0 -63 -69 -88l-54 -5h-67v328zM2550 1334h53v-217q6 -61 45 -61q29 0 44 39
l3 30v203l4 6h45l5 -6v-171q0 -118 -40 -133q-24 -26 -64 -26q-55 0 -91 76l-4 54v206zM2805 1334h59q4 0 122 -237h4v237h50l4 -6v-322h-58q-29 48 -125 238h-3v-238h-53v328zM3101 1334h54v-328h-54v328zM3859 1334h8q155 0 174 -40q23 -11 47 -75l4 -36v-11l3 -2
q0 -94 -82 -149q-35 -15 -99 -15h-55v328zM4141 1334h153v-60h-103v-75h101v-57h-101v-74l4 -5h99v-57h-157v322zM3563 1175v-10q0 -76 79 -108l19 -1q68 0 96 86l3 20v15q0 61 -60 94q-12 8 -39 11q-66 0 -96 -83zM770 1274v-67h9q54 0 54 28l3 14q-11 25 -29 25h-37z
M3912 1274v-206l2 -3v-2q104 0 122 76l2 15v29q0 34 -32 68q-25 23 -78 23h-16zM1041 1259h5q38 0 71 -40v32h49v-245h-49v32q-36 -40 -80 -40q-75 0 -101 97l-5 36q0 89 85 125zM1314 1259h3q74 0 83 -102v-151h-51v128q0 67 -42 67h-10q-34 0 -39 -62v-133h-52v245h47v-21
q28 29 61 29zM1543 1259h5q45 0 71 -40v32h47v-219q0 -95 -104 -126h-16q-74 0 -108 82h59q26 -25 44 -25h14q52 0 64 77q-33 -42 -76 -42q-60 0 -101 81l-7 44v16q0 79 85 117zM1912 1259h2q43 0 61 -37h2q32 37 69 37h4q57 0 79 -55q8 -25 8 -45v-153h-52v138q0 44 -23 55
l-12 2h-15q-32 0 -36 -65v-130h-52v136q0 59 -43 59h-8q-32 0 -36 -57v-138h-54v245h50v-21h2q6 24 54 29zM2282 1259q47 0 75 -42v34h47v-245h-47v32q-36 -40 -78 -40q-74 0 -102 92l-6 41q0 90 85 125zM985 1117q0 -48 61 -61h4q45 0 62 46l3 15v22q-12 62 -57 62h-14
q-41 0 -59 -57v-27zM1487 1128q0 -48 43 -68l18 -4h5q47 0 63 57v23q-11 65 -58 65h-12q-50 0 -59 -73zM2225 1131v-14q15 -61 57 -61h14q58 12 58 64v11q0 45 -37 65l-18 5h-10q-64 -8 -64 -70zM770 1150v-82q0 -5 7 -5q77 0 77 45q0 34 -47 42h-37zM2966 753l24 -28
l-51 -55q-18 12 -27 26zM1524 727l85 -54q0 -15 -21 -42l-87 54q18 41 23 42zM2850 693h38l55 -60h-54l-21 26l-23 -26h-54q54 60 59 60zM3422 693h40l56 -60h-54l-24 26h-1q0 -5 -19 -26h-54zM622 685h52q8 -4 47 -137l34 -110q9 8 34 100l48 147h54v-2l-112 -326h-44z
M1159 685h51v-54h-51v54zM1354 685h46l6 -5v-323h-52v328zM2317 685h45l4 -5v-78h31v-52h-31v-193h-53v193h-26v52h26v78zM2425 685h52v-98h2q23 23 54 23h3q57 0 81 -71l3 -38v-144h-52v115q0 81 -39 81h-10q-42 0 -42 -87v-109h-52v328zM2664 685h52v-54h-52v54zM3028 685
h44l6 -5v-78h29v-52h-29v-193h-54v193h-27v52h27v78zM3234 685h52v-328h-52v328zM3957 685h52v-328h-52v328zM4316 685h51v-54h-51v54zM1555 610h5q83 0 110 -102l3 -23v-11q0 -83 -85 -120l-35 -5q-76 0 -111 97l-4 32q0 97 93 130zM1811 610h4q53 0 78 -60q7 -25 7 -81
v-112h-54v146q-7 50 -37 50h-10q-38 0 -42 -57v-139h-54v245h49v-21q26 29 59 29zM2046 610h4q45 0 63 -39h3v31h49v-206q0 -102 -89 -135l-28 -3h-5q-73 0 -106 81h52l37 -20l15 -3h14q50 0 61 72q-33 -39 -73 -39q-62 0 -98 76q-11 23 -12 60q0 85 86 123zM2866 610h2
q82 0 111 -104l2 -25l-2 -27h-172q15 -45 45 -45l14 -3q29 0 49 22h57v-3q-35 -76 -108 -76q-77 0 -111 97l-1 28v8q0 49 32 89q34 39 82 39zM3429 610h5q41 0 70 -39h2v31h47v-245h-47v31h-2q-35 -39 -77 -39q-71 0 -101 89l-5 36v14q0 86 84 120zM3711 610h7
q88 0 107 -128l-2 -1v-15q0 -65 -66 -106q-21 -11 -46 -11q-34 0 -64 32v-99l-5 -5h-49v325h49v-28q31 36 69 36zM4151 610q44 0 75 -39v31h49v-245h-49v31q-35 -39 -77 -39q-92 0 -108 132q0 84 73 121q15 8 37 8zM922 602h50v-136q3 -60 42 -60h5q44 0 44 87v109h52v-245
h-47v24h-5q0 -23 -56 -32h-3q-55 0 -82 68q-4 35 -4 99v81zM1159 602h51v-245h-51v245zM2664 602h52v-245h-52v245zM4316 602h51v-245h-51v245zM1492 488v-16q13 -66 59 -66h4q59 0 66 76q-13 71 -59 71h-11q-59 -16 -59 -65zM1987 472q15 -66 59 -66h11q48 0 59 75v1
q-13 71 -59 71h-14q-39 0 -56 -57v-24zM2805 506h122v2q-16 45 -59 45h-7q-35 0 -56 -47zM3373 474q13 -68 61 -68h5q52 0 65 63v12q-10 72 -57 72h-16q-56 -14 -56 -63zM3642 478q12 -72 61 -72h3q50 0 65 60v22q0 43 -49 65h-22q-47 0 -58 -72v-3zM4095 472q10 -66 66 -66
q43 0 61 48l2 15v16q0 54 -52 68h-18q-42 0 -59 -60v-21zM3416 321h51v-52h-51v52zM4137 321h51v-52h-51v52zM2733 133h4q35 0 43 -50v-2q0 -16 -24 -41l-10 -17h-28q0 25 28 56l3 2v2q-3 19 -9 19h-10q-8 0 -9 -19h-30q6 50 42 50zM1546 116l52 -60l-26 -19l-52 52zM352 79
h4q75 -48 85 -60l-20 -37q-88 49 -88 58zM3490 79l86 -58l-18 -39q-10 0 -91 55q15 36 23 42zM4578 76l19 -42l-91 -52l-20 39l92 58v-3zM1204 53h51v-19l5 -5h14v-36h-14l-5 -5v-279h-46v31q-34 -40 -81 -40q-72 0 -102 105l-3 26q0 102 101 131h14q33 0 66 -33v59l-6 5
h-43v36h49v24zM1480 45h40l56 -61h-53l-23 27l-23 -27h-53zM2641 45h33q12 0 63 -61h-54l-23 27q-19 -21 -19 -27h-58v4zM49 37h160v-60h-56v-268h-50l-4 5v245l2 3v2l-2 2l2 3l-2 2l2 3l-2 3h-54v54zM699 37h47v-73l2 -2l-2 -3v-3l2 -2l-2 -3v-3l2 -2v-2l-2 -3l2 -3h3
q17 24 51 24h3q53 0 77 -58q7 -17 7 -42v-153h-52v127q0 68 -40 68h-8q-43 0 -43 -86v-109h-52v322zM1297 37h47l5 -6v-49h-52v55zM1987 37h52v-198l70 115h62l-78 -118l90 -125v-2h-70q-10 22 -74 115v-115h-52v328zM2271 37v-99q24 24 53 24q57 0 80 -56q10 -19 10 -77
v-120h-54v133q0 62 -41 62h-11q-31 0 -37 -55v-140h-53v314l-1 3v3l1 2l-1 3l1 3h53zM2458 37h51v-55h-51v55zM3148 37h51v-108q27 33 68 33h3q75 0 105 -94l5 -37q0 -75 -64 -120q-30 -11 -49 -11q-41 0 -72 40v-31h-47v328zM4275 37h52v-99h2q23 24 54 24h3q60 0 82 -74
l2 -41v-138h-52v111q0 82 -32 82l-10 2h-12q-37 0 -37 -80v-115h-52v328zM329 -38h3v-58h-5q-42 0 -42 -57v-138h-53v245h47v-21q18 29 50 29zM564 -38q71 0 86 -87v-166h-51v136q-6 59 -41 59h-6q-45 0 -45 -84v-111h-52v245h50v-21q25 29 59 29zM1504 -38q72 0 105 -94
l5 -39q-2 -24 -7 -24h-169q17 -47 62 -47q24 0 48 21h57q-33 -79 -108 -79q-82 0 -113 105v37q0 81 89 117zM2657 -38h5q77 0 107 -97l3 -26v-21l-3 -13h-170q18 -47 53 -47h12q21 0 42 21h59q-34 -79 -105 -79q-84 0 -115 102l-2 29q0 93 91 128zM2915 -38h4q54 0 78 -60
q7 -25 7 -82v-111h-54v138q0 48 -35 57h-11q-38 0 -43 -57v-138h-54v245h50v-21q25 29 58 29zM3508 -38h6q40 0 70 -40h2v32h47v-245h-47v31h-2q-34 -40 -78 -40q-71 0 -101 90l-4 37v12q0 82 77 117q11 6 30 6zM3781 -38h4q62 0 82 -78l3 -84v-91h-54v138q0 48 -38 57h-9
q-38 0 -42 -52v-143h-54v245h49v-21q26 29 59 29zM4133 -38h1q74 0 104 -93l4 -40q0 -88 -84 -126l-25 -3q-41 0 -68 34v-106h-52v326h47v-29q30 37 73 37zM4714 -38h5q34 0 63 -37q27 37 69 37h6q56 0 79 -66l6 -51v-136h-52v122q0 73 -39 73h-7q-35 0 -41 -50v-140l-5 -5
h-48v140q0 42 -31 55h-17q-40 0 -40 -77v-118h-51v245h47v-21q22 29 56 29zM359 -46h49l5 -6v-234l-5 -5h-49v245zM1297 -46h52v-245h-52v245zM1649 -46h52v-136q4 -60 43 -60h4q44 0 44 81v115h52v-245h-47v24h-5q-12 -33 -59 -33q-52 0 -79 63q-5 12 -5 34v157zM2458 -46
h51v-245h-51v245zM4515 -46h51v-245h-51v245zM1077 -169q0 -53 51 -73h12q54 0 66 66v10q0 53 -54 70h-17q-38 0 -58 -57v-16zM1438 -143h122q-18 47 -53 47h-7q-43 0 -62 -44v-3zM2599 -143h122q-21 47 -54 47h-7q-46 0 -61 -47zM3196 -158v-11q10 -73 61 -73h5q64 8 64 71
v5q0 45 -38 65l-18 5h-14q-60 -14 -60 -62zM3452 -173q14 -69 62 -69h11q41 0 59 60v13q-8 73 -56 73h-17q-47 0 -59 -73v-4zM4062 -158v-22q0 -47 59 -62h9q50 0 61 76q-13 70 -58 70h-15q-56 -17 -56 -62z" />
    <glyph glyph-name=".null" horiz-adv-x="0" 
 />
    <glyph glyph-name="nonmarkingreturn" horiz-adv-x="571" 
 />
    <glyph glyph-name="space" unicode=" " horiz-adv-x="512" 
 />
    <glyph glyph-name="exclam" unicode="!" horiz-adv-x="681" 
d="M360 360l-18 222q-4 46 -17 146l-26 188q-16 118 -23 179q-10 86 -10 117q0 72 22 116q27 56 84 56q136 0 107 -239l-92 -785h-27zM304 5q-38 28 -38 81q0 111 109 111q112 0 112 -111q0 -104 -112 -104q-40 0 -71 23z" />
    <glyph glyph-name="quotedbl" unicode="&#x22;" horiz-adv-x="835" 
d="M569 883q-3 14 -4 22l-37 207l-18 115q-7 53 -7 73q0 84 88 84q86 0 86 -84q0 -20 -7 -73l-18 -115l-40 -229h-43zM223 883q-3 14 -5 22l-36 207l-18 115q-7 53 -7 73q0 84 88 84q86 0 86 -84q0 -20 -7 -73l-18 -115l-40 -229h-43z" />
    <glyph glyph-name="numbersign" unicode="#" horiz-adv-x="1024" 
d="M964 442h-223l-63 -442h-119l63 442h-274l-68 -442h-118l67 442h-219v113h238l43 274h-226v113h242l63 414h119l-63 -414h272l62 414h118l-61 -414h199v-113h-215l-41 -274h204v-113zM409 829l-43 -274h275l41 274h-273z" />
    <glyph glyph-name="dollar" unicode="$" horiz-adv-x="1024" 
d="M840 1024q-29 150 -127 220q-38 28 -88 43q-37 12 -84 18v-504l173 -103q79 -50 123 -93q99 -97 99 -249q0 -164 -117 -255q-98 -77 -278 -101v-178h-70v178q-132 0 -246 39q-42 15 -81 34l-30 17q-11 7 -24 14v267h31q68 -314 350 -314v578q-88 49 -136 80
q-71 46 -116 90q-113 107 -113 242q0 121 85 205q98 96 280 108v129h70v-129l79 -11q49 -8 88 -18q103 -27 162 -80v-227h-30zM469 1305q-128 -22 -180 -103q-18 -29 -26 -64l-4 -28l-1 -20q0 -75 59 -138q26 -28 67 -59q30 -23 85 -59v471zM541 57q8 2 13 3l52 13
q44 13 77 37q91 64 91 199q0 98 -68 170q-29 30 -75 62q-28 20 -90 59v-543z" />
    <glyph glyph-name="percent" unicode="%" horiz-adv-x="1705" 
d="M1423 754q42 -8 73 -28q84 -54 84 -191q0 -188 -112 -353q-123 -182 -297 -182q-133 0 -198 87q-54 73 -54 194q0 167 134 321q139 158 304 158q37 0 66 -6zM1251 632q-52 -53 -97 -144q-80 -166 -80 -271l1 -18q0 -13 1 -24q4 -29 15 -51q30 -63 114 -63q125 0 228 165
q94 150 94 294q0 174 -143 174q-70 0 -133 -62zM509 -27h-98l714 1274l-4 4l-18 -10l-20 -10q-23 -11 -45 -18q-58 -19 -132 -19q-54 0 -86 6q-22 4 -49 14l10 -40q5 -23 5 -52q0 -181 -112 -345q-58 -85 -133 -132q-83 -53 -177 -53q-87 0 -155 62q-85 77 -85 216
q0 165 130 320q138 166 310 166q63 0 101 -17q22 -10 55 -39q33 -26 60 -37q45 -18 116 -18q114 0 201 47q33 18 67 45q20 16 54 47h80zM632 811q102 148 102 322q0 37 -18 96q-44 11 -71 24q-11 5 -20 11l-14 10q-23 20 -36 20q-97 0 -199 -177q-96 -168 -96 -304
q0 -151 127 -151q122 0 225 149z" />
    <glyph glyph-name="ampersand" unicode="&#x26;" horiz-adv-x="1593" 
d="M601 991q20 -65 56 -139l61 34q46 29 80 60q45 42 69 87q30 55 30 114q0 172 -162 172q-160 0 -160 -178q0 -68 26 -150zM1456 829q-71 -9 -102 -25q-52 -27 -90 -95l-54 -95q-75 -133 -204 -307l33 -41q32 -35 68 -64q47 -37 93 -58q56 -25 109 -25q72 0 119 31
q32 21 77 77l31 -22l-19 -40q-23 -43 -55 -79q-43 -49 -96 -78q-65 -35 -139 -35q-108 0 -214 71q-39 25 -78 61l-45 43q-4 4 -11 12l-72 -60q-47 -36 -95 -60q-60 -31 -126 -48q-76 -19 -162 -19q-54 0 -106 13q-62 15 -110 48q-122 83 -122 261q0 142 110 267
q44 49 104 95q49 36 108 70l77 45l-30 84q-14 42 -22 71q-19 70 -19 136q0 123 79 216q89 105 234 105q117 0 195 -64q84 -69 84 -181q0 -132 -110 -229q-42 -36 -103 -71q-38 -21 -105 -53q119 -237 270 -421q8 9 12 15l14 18q15 21 29 40q35 50 61 94q71 122 71 203
q0 84 -131 94v43h442v-43zM352 165q78 -85 187 -85q21 0 45 4q31 5 64 18q86 33 179 111q-82 99 -168 237q-69 112 -143 252l-9 -5q-5 -4 -9 -6l-19 -13q-22 -14 -40 -27q-46 -35 -78 -70q-87 -95 -87 -212q0 -119 78 -204z" />
    <glyph glyph-name="quotesingle" unicode="'" horiz-adv-x="681" 
d="M198 926q90 57 135 126q33 51 33 91q0 28 -29 28l-18 -4q-13 -4 -31 -4q-50 0 -83 21q-44 26 -44 82q0 60 40 92q33 26 79 26q22 0 46 -6q30 -9 54 -28q66 -51 66 -162q0 -97 -92 -198q-76 -82 -138 -103z" />
    <glyph glyph-name="parenleft" unicode="(" horiz-adv-x="681" 
d="M622 1352q-37 -30 -58 -48q-34 -29 -60 -55q-67 -68 -113 -148q-55 -97 -84 -223q-33 -143 -33 -327l1 -89q1 -56 5 -105q9 -132 38 -241q36 -138 103 -243q79 -124 201 -203l-24 -32q-85 45 -182 141q-87 87 -150 180q-85 124 -122 238q-46 143 -46 340q0 547 506 847z
" />
    <glyph glyph-name="parenright" unicode=")" horiz-adv-x="681" 
d="M59 -330q38 30 58 48q34 28 60 55q68 68 113 148q55 97 84 222q33 144 33 328l-1 89q-1 56 -4 105q-10 132 -38 241q-37 138 -104 243q-79 124 -201 203l25 32q84 -45 181 -141q87 -87 150 -180q85 -125 122 -238q46 -143 46 -340q0 -547 -506 -847z" />
    <glyph glyph-name="asterisk" unicode="*" horiz-adv-x="1024" 
d="M245 878q6 1 13 3l38 8q33 8 58 15q69 22 125 61l-23 14q-44 28 -108 46l-102 23q-105 25 -105 93l3 17q3 12 10 23q19 29 55 29q44 0 104 -68l29 -33q19 -19 38 -36q49 -43 113 -78v27q0 56 -8 101q-5 33 -17 69l-10 27q-5 16 -8 27q-8 29 -8 59q0 51 33 69q11 7 25 9
l18 1q35 0 55 -30q7 -11 11 -26q3 -12 3 -23q0 -18 -8 -49l-19 -62q-13 -42 -19 -72q-9 -41 -9 -78v-53l15 8q43 25 86 66l59 62q1 1 3 4l4 4q70 79 110 79q10 0 22 -3q13 -4 24 -12q27 -20 27 -58q0 -71 -87 -89q-5 0 -11 -2l-37 -7q-31 -7 -57 -15q-73 -22 -141 -65
l16 -11q53 -33 120 -52q23 -7 54 -13q6 -1 13 -2l12 -3q15 -3 23 -4q97 -21 97 -87q0 -74 -73 -74q-46 0 -119 85l-30 36q-18 20 -33 34q-41 38 -82 56l-15 6v-14q0 -70 9 -123q7 -40 20 -76l20 -49q9 -24 9 -43q0 -86 -80 -86q-72 0 -72 80q0 20 11 55q2 8 5 17l12 35
q4 10 7 19q14 46 19 81q8 48 1 90l-2 14q-104 -70 -155 -127q-79 -88 -125 -88q-36 0 -55 24q-15 19 -15 41q0 71 104 94z" />
    <glyph glyph-name="plus" unicode="+" horiz-adv-x="1155" 
d="M510 1036h135v-450h448v-135h-448v-451h-135v451h-449v135h449v450z" />
    <glyph glyph-name="comma" unicode="," horiz-adv-x="512" 
d="M151 -250q90 57 135 126q33 52 33 91q0 29 -29 29l-18 -4q-13 -4 -31 -4q-50 0 -83 20q-44 27 -44 82q0 60 40 93q33 26 79 26q22 0 46 -7q30 -9 54 -28q66 -51 66 -162q0 -96 -92 -197q-76 -83 -138 -104z" />
    <glyph glyph-name="hyphen" unicode="-" horiz-adv-x="681" 
d="M583 526v-129h-504v129h504z" />
    <glyph glyph-name="hyphen" unicode="&#x2010;" horiz-adv-x="681" 
d="M583 526v-129h-504v129h504z" />
    <glyph glyph-name="period" unicode="." horiz-adv-x="512" 
d="M183 4q-40 31 -40 84q0 117 113 117q114 0 114 -117q0 -51 -41 -84q-34 -27 -73 -27q-40 0 -73 27z" />
    <glyph glyph-name="slash" unicode="/" horiz-adv-x="569" 
d="M121 -29h-139l469 1413h137z" />
    <glyph glyph-name="zero" unicode="0" horiz-adv-x="1024" 
d="M360 1249q-51 -69 -80 -192q-22 -95 -30 -218l-4 -93v-144l4 -96q8 -124 30 -217q29 -120 80 -186q60 -78 152 -78q91 0 152 79q51 66 79 187q22 93 30 217l4 95v143l-4 93q-8 123 -30 218q-28 123 -79 192q-61 82 -152 82t-152 -82zM743 1308q85 -66 142 -186
q47 -101 70 -232q20 -107 20 -212q0 -107 -20 -215q-23 -131 -70 -231q-57 -120 -142 -185q-98 -76 -231 -76t-231 76q-86 65 -142 185q-47 100 -71 231q-19 108 -19 215q0 105 19 212q24 131 71 232q56 120 142 186q98 76 231 76t231 -76z" />
    <glyph glyph-name="one" unicode="1" horiz-adv-x="1024" 
d="M241 31q108 3 142 24q53 32 53 135v928q0 46 -9 64q-15 32 -61 32h-16l-20 -5q-17 -6 -103 -40v29l369 186l16 -4v-1228q0 -74 40 -98q38 -23 155 -23v-31h-566v31z" />
    <glyph glyph-name="two" unicode="2" horiz-adv-x="1024" 
d="M860 0h-799v25l365 387q266 284 266 528q0 45 -12 90q-14 54 -44 96q-77 107 -237 107q-123 0 -200 -92q-29 -35 -54 -86q-10 -20 -21 -45l-18 -43l-43 10q43 215 173 320q108 87 261 87q148 0 255 -98q116 -106 116 -270q0 -76 -28 -156q-25 -69 -69 -139
q-36 -57 -86 -117l-79 -88l-344 -360h489q64 0 96 19q43 26 99 116l26 -10z" />
    <glyph glyph-name="three" unicode="3" horiz-adv-x="1024" 
d="M311 702q157 50 240 125q100 90 100 222q0 85 -56 145q-62 68 -169 68q-120 0 -210 -87q-32 -31 -59 -72l-34 -59l-31 9q56 182 180 266q96 65 222 65q92 0 161 -31q59 -27 97 -75q32 -40 48 -91q13 -41 13 -79q0 -163 -190 -287l76 -36q50 -29 86 -66q45 -46 69 -109
q29 -73 29 -168q0 -214 -163 -344q-158 -127 -405 -127l-24 1l-32 3q-42 4 -76 15q-95 30 -95 98q0 72 80 72q31 0 68 -18q15 -7 34 -19l34 -21q45 -27 73 -39q43 -18 84 -18q133 0 208 100q66 88 66 215q0 24 -6 55q-7 39 -23 74q-41 98 -126 142q-95 50 -267 45z" />
    <glyph glyph-name="four" unicode="4" horiz-adv-x="1024" 
d="M966 342h-209v-342h-158v342h-575v131l643 911h90v-911h209v-131zM597 1169h-4l-487 -696h491v696z" />
    <glyph glyph-name="five" unicode="5" horiz-adv-x="1024" 
d="M284 1020q40 -7 63 -11l64 -13q72 -17 128 -37q142 -52 222 -150q111 -134 111 -348q0 -207 -153 -347q-156 -143 -396 -143q-258 0 -258 123v10q0 6 1 11q3 15 9 27q19 32 72 32q44 0 86 -20q27 -13 70 -43l33 -24q18 -12 33 -20q38 -20 75 -20q112 0 192 89
q93 101 93 276q0 116 -61 204q-52 78 -148 132q-83 46 -191 71q-91 21 -184 25q-9 0 -13 8t1 18l223 486h428q55 0 94 53l18 -14l-77 -183q-6 -18 -47 -18h-402z" />
    <glyph glyph-name="six" unicode="6" horiz-adv-x="1024" 
d="M917 1368q-257 -40 -425 -220q-149 -158 -181 -364q94 57 134 72q56 21 136 21q167 0 270 -113q107 -116 107 -318q0 -66 -17 -137q-22 -88 -66 -156q-52 -83 -133 -128q-94 -54 -222 -54q-195 0 -316 151q-135 168 -135 474q0 319 236 552q244 241 608 253zM300 717
q-8 -9 -15 -22q-7 -15 -13 -36q-13 -50 -13 -135q0 -244 88 -377q79 -118 203 -118q224 0 224 338q0 181 -58 287q-71 128 -221 128q-126 0 -195 -65z" />
    <glyph glyph-name="seven" unicode="7" horiz-adv-x="1024" 
d="M919 1323l-435 -1339h-133l406 1220h-445q-91 0 -143 -43q-34 -28 -94 -123l-35 17l88 211l33 90h758v-33z" />
    <glyph glyph-name="eight" unicode="8" horiz-adv-x="1024" 
d="M433 639q-8 -7 -12 -10l-13 -11l-28 -25q-31 -31 -53 -64q-57 -87 -57 -210t67 -204q73 -86 193 -86q225 0 225 229q0 106 -72 184q-35 38 -100 88zM179 504q29 38 83 83q22 19 54 44l56 42q1 2 8 7l-60 53q-31 28 -52 48q-51 49 -79 87q-63 85 -63 199q0 145 126 236
q112 81 257 81q167 0 266 -87q93 -81 93 -203q0 -124 -96 -216q-36 -34 -89 -67l-90 -51q191 -137 262 -249q56 -88 56 -204q0 -47 -16 -97q-20 -62 -61 -111q-49 -58 -124 -90q-87 -38 -207 -38q-180 0 -290 104q-99 94 -99 224q0 123 65 205zM378 916q36 -36 85 -71
l71 -48l30 20q18 13 33 24q37 29 62 61q67 84 67 202q0 92 -55 154q-63 69 -174 69q-107 0 -167 -66q-52 -58 -52 -141q0 -103 100 -204z" />
    <glyph glyph-name="nine" unicode="9" horiz-adv-x="1024" 
d="M114 -4q171 28 305 121q108 75 187 189q58 85 96 184l33 104l-4 4q-134 -113 -301 -113q-187 0 -288 140q-81 113 -81 266q0 210 115 349q120 144 315 144q192 0 319 -158q130 -162 130 -415q0 -340 -215 -579q-228 -253 -605 -277zM740 864l-3 75q-8 99 -30 173
q-29 97 -81 151q-63 64 -157 64q-118 0 -175 -116q-45 -93 -45 -242q0 -67 11 -128q12 -73 39 -128q67 -140 213 -140q108 0 196 72q33 25 33 82z" />
    <glyph glyph-name="colon" unicode=":" horiz-adv-x="569" 
d="M205 739q-40 31 -40 84q0 117 113 117q114 0 114 -117q0 -51 -41 -83q-34 -27 -73 -27q-40 0 -73 26zM205 4q-40 31 -40 84q0 117 113 117q114 0 114 -117q0 -51 -41 -84q-34 -27 -73 -27q-40 0 -73 27z" />
    <glyph glyph-name="semicolon" unicode=";" horiz-adv-x="569" 
d="M200 -250q90 57 135 126q33 52 33 91q0 29 -29 29l-18 -4q-13 -4 -31 -4q-127 0 -127 102q0 72 52 102q18 10 40 14l29 3q9 0 19 -1q13 -2 25 -6q30 -8 54 -27q66 -51 66 -163q0 -96 -90 -195q-73 -82 -140 -106zM205 739q-40 31 -40 84q0 117 113 117q114 0 114 -117
q0 -51 -41 -83q-34 -27 -73 -27q-40 0 -73 26z" />
    <glyph glyph-name="less" unicode="&#x3c;" horiz-adv-x="1155" 
d="M1097 -16l-1040 471v127l1040 471v-140l-870 -395l870 -395v-139z" />
    <glyph glyph-name="equal" unicode="=" horiz-adv-x="1155" 
d="M1093 655h-1032v136h1032v-136zM1093 246h-1032v135h1032v-135z" />
    <glyph glyph-name="greater" unicode="&#x3e;" horiz-adv-x="1155" 
d="M927 518l-870 395v140l1040 -471v-127l-1040 -471v139z" />
    <glyph glyph-name="question" unicode="?" horiz-adv-x="909" 
d="M465 336q0 78 26 180q9 36 20 70q9 27 15 41l57 131q76 168 76 305q0 103 -53 176q-62 84 -172 84q-68 0 -128 -37q-63 -39 -63 -88q0 -18 13 -37q4 -7 12 -16l29 -34q7 -10 12 -19q12 -23 12 -48q0 -83 -80 -83q-102 0 -102 129q0 142 114 225q96 69 220 69
q203 0 301 -118q74 -90 74 -222q0 -70 -54 -172q-43 -81 -100 -147q-91 -106 -129 -178q-45 -86 -66 -211h-34zM415 7q-38 28 -38 81q0 111 108 111q113 0 113 -111q0 -104 -113 -104q-40 0 -70 23z" />
    <glyph glyph-name="at" unicode="@" horiz-adv-x="1886" 
d="M1083 950q-88 0 -177 -104q-104 -122 -104 -291q0 -172 129 -172q74 0 142 109q79 125 98 325q0 133 -88 133zM1433 88q-57 -26 -99 -43q-55 -23 -103 -38q-118 -36 -226 -36q-190 0 -346 67q-138 59 -238 167q-91 97 -139 219q-45 113 -45 221q0 325 222 536
q214 203 526 203q284 0 477 -172q194 -173 194 -432q0 -175 -99 -322q-112 -165 -282 -165q-87 0 -142 63q-20 22 -31 48q-10 22 -9 34h-4q-24 -39 -82 -81q-75 -54 -154 -62l-24 1q-16 1 -30 5q-37 10 -65 33q-77 64 -77 215q0 144 98 299q55 87 126 136q82 56 179 56
q62 0 98 -34q14 -14 27 -35l21 -37l20 78h141l-133 -520q-1 -7 -2 -15q-1 -10 -2 -19q-1 -24 4 -44q15 -54 74 -54q116 0 195 143q71 128 71 275q0 196 -154 359q-80 85 -185 132q-116 52 -250 52q-247 0 -406 -178q-170 -190 -170 -518q0 -229 163 -397q173 -177 431 -177
q123 0 227 29q44 13 91 32q34 13 87 38z" />
    <glyph glyph-name="A" unicode="A" 
d="M1445 0h-522v39q36 0 54 1q28 3 46 9q43 17 43 68q0 21 -15 66l-12 35l-96 224h-536l-94 -239q-17 -43 -17 -78q0 -56 54 -75q19 -7 46 -10q10 -1 21 -1h19v-39h-406v39q66 4 104 45q31 33 78 131l39 84q8 17 17 40l8 18q1 2 4 9l430 1014h41l510 -1163q48 -110 83 -143
q32 -30 101 -35v-39zM915 526l-238 564l-235 -564h473z" />
    <glyph glyph-name="B" unicode="B" horiz-adv-x="1366" 
d="M34 1356h573q87 0 159 -10q102 -13 177 -44q92 -39 142 -104q59 -77 59 -188q0 -148 -102 -225q-37 -28 -89 -47q-20 -7 -43 -13l-38 -10v-4q151 -32 237 -109q105 -92 105 -242q0 -43 -14 -89q-20 -67 -64 -120q-56 -68 -149 -106q-111 -45 -269 -45h-684v39
q126 3 163 39q34 34 34 145v910q0 113 -36 145q-34 33 -161 39v39zM440 160q0 -84 155 -84q67 0 117 7q73 10 125 36q65 32 100 88q41 65 41 162q0 115 -63 184q-50 55 -144 84q-57 17 -118 23q-74 8 -213 8v-508zM440 748l194 2l71 4q57 8 101 28q58 27 90 74q39 57 39 141
q0 163 -125 233q-49 28 -116 40q-54 10 -117 10l-92 -2q-45 0 -45 -59v-471z" />
    <glyph glyph-name="C" unicode="C" horiz-adv-x="1366" 
d="M1222 924q-40 171 -150 270q-120 109 -300 109q-179 0 -307 -125q-35 -34 -61 -70q-32 -46 -54 -101q-55 -134 -55 -333q0 -306 154 -469q135 -144 347 -144q88 0 170 24q69 20 132 57q50 29 97 68l64 58l37 -37l-35 -42q-44 -49 -102 -89q-80 -56 -173 -89
q-115 -40 -245 -40q-129 0 -246 39q-126 42 -220 123q-102 90 -157 219q-61 143 -61 326q0 166 59 304q55 128 157 221q198 181 480 181q63 0 127 -10q50 -8 105 -23l79 -24q36 -10 50 -10h6q5 0 11 1q15 2 28 7q39 17 49 59h43l18 -460h-47z" />
    <glyph glyph-name="D" unicode="D" 
d="M32 39q115 6 148 41q32 34 32 143v910q0 113 -31 144q-30 31 -149 40v39h553q380 0 593 -169q224 -178 224 -513q0 -114 -35 -220q-41 -125 -124 -219q-96 -109 -242 -168q-165 -67 -387 -67h-582v39zM421 160q0 -84 123 -84h29q19 0 36 1q47 2 89 8q121 17 213 65
q120 63 187 177q81 138 81 345q0 138 -42 249q-48 125 -149 216q-81 72 -175 104q-114 39 -296 39q-64 0 -84 -25q-12 -14 -12 -55v-1040z" />
    <glyph glyph-name="E" unicode="E" horiz-adv-x="1251" 
d="M1130 0h-1106v39q105 7 138 36q40 36 40 148v910q0 113 -41 149q-31 26 -137 35v39h1087l7 -293h-52q-22 136 -81 176q-58 39 -230 39h-276q-68 0 -68 -70v-454h315q130 0 173 42q35 35 53 152h47v-475h-47q-19 124 -58 158q-41 35 -168 37l-315 4v-508q0 -64 38 -75
q40 -11 267 -11q192 0 287 56q94 57 162 212h57z" />
    <glyph glyph-name="F" unicode="F" horiz-adv-x="1138" 
d="M933 473q-16 124 -63 161q-41 32 -162 34l-297 4v-449q0 -112 39 -147q35 -32 147 -37v-39h-573v39q115 6 147 43q31 37 31 164v887q0 113 -41 149q-31 26 -137 35v39h1087l7 -293h-52q-22 136 -81 176q-58 39 -230 39h-278q-66 0 -66 -70v-454h297q124 0 168 39
q42 38 57 155h47v-475h-47z" />
    <glyph glyph-name="G" unicode="G" 
d="M1451 688q-43 -4 -60 -8q-28 -6 -45 -19q-38 -31 -38 -131v-411q0 -11 -46 -35q-48 -25 -118 -50q-80 -27 -161 -44q-94 -19 -173 -19q-164 0 -309 51q-163 57 -266 168q-89 97 -126 198q-44 121 -44 310q0 273 187 472q202 214 513 214q71 0 136 -10q49 -8 101 -23
l74 -24q36 -10 56 -10l20 2q16 4 30 10q38 19 46 55h45l17 -432h-47q-25 67 -53 117q-38 67 -85 114q-56 56 -128 86q-81 34 -183 34q-82 0 -159 -29q-92 -33 -162 -101q-80 -78 -124 -198q-51 -136 -51 -320q0 -276 147 -440q144 -162 384 -162q110 0 192 33q88 35 88 88
v332q0 119 -37 151q-28 23 -143 31v37h522v-37z" />
    <glyph glyph-name="H" unicode="H" 
d="M38 39q122 6 155 49q25 34 25 158v887q0 111 -33 144q-31 30 -147 40v39h569v-39q-116 -9 -148 -42t-32 -142v-398h621v398q0 111 -34 144q-31 30 -147 40v39h570v-39q-117 -9 -149 -42q-31 -33 -31 -142v-910q0 -105 30 -139q34 -38 150 -45v-39h-570v39q123 6 155 49
q26 34 26 158v399h-621v-422q0 -105 30 -139q34 -38 150 -45v-39h-569v39z" />
    <glyph glyph-name="I" unicode="I" horiz-adv-x="681" 
d="M36 39q128 3 165 39q34 34 34 145v910q0 113 -36 145q-35 33 -163 39v39h608v-39q-121 -5 -156 -33q-44 -35 -44 -151v-910q0 -115 43 -150q37 -31 157 -34v-39h-608v39z" />
    <glyph glyph-name="J" unicode="J" horiz-adv-x="796" 
d="M569 375q0 -138 -46 -231q-38 -76 -105 -120q-51 -33 -116 -46q-23 -4 -47 -6q-8 0 -17 -1h-13q-113 0 -160 52q-45 50 -45 98q0 33 25 65q28 35 69 35q78 0 106 -86q29 -86 60 -86q80 0 80 135v949q0 110 -33 142q-34 34 -157 42v39h587v-39q-121 -8 -154 -39
q-34 -33 -34 -145v-758z" />
    <glyph glyph-name="K" unicode="K" 
d="M845 1356h537v-39q-101 -9 -147 -30q-62 -29 -165 -130l-389 -385l568 -609q43 -45 76 -70q75 -57 155 -54v-39h-625v39q144 5 144 51q0 22 -32 71q-27 41 -75 99q-39 47 -88 100l-289 289l-53 -43v-383q0 -109 32 -143q35 -35 153 -41v-39h-578v39q119 6 152 43
q32 37 32 164v887q0 113 -40 148q-32 28 -144 36v39h582v-39q-122 -8 -154 -39q-35 -33 -35 -145v-420l156 139q73 66 121 111q108 98 158 150q87 90 87 140q0 58 -139 64v39z" />
    <glyph glyph-name="L" unicode="L" horiz-adv-x="1251" 
d="M602 1317q-114 -7 -148 -35q-43 -35 -43 -149v-969q0 -59 40 -73q32 -11 167 -11l107 1q54 1 93 4q90 8 149 33q125 51 206 238h51l-98 -356h-1102v39q105 7 138 36q40 36 40 148v910q0 113 -41 149q-31 26 -137 35v39h578v-39z" />
    <glyph glyph-name="M" unicode="M" horiz-adv-x="1820" 
d="M1767 1317q-107 -9 -138 -35q-40 -36 -40 -149v-910q0 -112 40 -148q32 -29 138 -36v-39h-574v39q120 6 153 43q34 38 34 164v919h-4l-521 -1165h-28l-510 1118h-4v-817q0 -155 40 -208q38 -49 152 -54v-39h-481v39q121 8 158 52q41 50 41 210v832q0 114 -41 149
q-34 28 -154 35v39h406l473 -1034l452 1034h408v-39z" />
    <glyph glyph-name="N" unicode="N" 
d="M1447 1317q-113 -13 -145 -47q-49 -51 -49 -215v-1078h-35l-901 1123h-4v-799q0 -155 40 -208q38 -49 152 -54v-39h-481v39q121 8 158 52q41 50 41 210v903q-61 74 -100 95q-34 18 -99 18v39h350l785 -985h4v684q0 165 -46 215q-35 38 -151 47v39h481v-39z" />
    <glyph glyph-name="O" unicode="O" 
d="M265 160q-196 197 -196 516q0 170 57 309q54 129 152 222q188 177 461 177q272 0 460 -177q99 -93 152 -222q57 -139 57 -309q0 -319 -195 -516q-188 -189 -474 -189t-474 189zM1042 193q133 167 133 485q0 168 -39 296q-35 116 -101 195q-117 142 -296 142t-297 -142
q-65 -79 -101 -195q-39 -128 -39 -296q0 -318 133 -485q117 -148 304 -148q186 0 303 148z" />
    <glyph glyph-name="P" unicode="P" horiz-adv-x="1138" 
d="M32 1356h541q230 0 374 -87q162 -98 162 -282q0 -103 -49 -186q-18 -29 -41 -56l-35 -34q-126 -121 -434 -121q-63 0 -137 6v-373q0 -111 37 -146t155 -38v-39h-573v39q121 9 151 53q21 31 21 154v887q0 109 -30 141t-142 43v39zM413 678q58 -6 123 -6h37l49 5
q67 8 117 34q66 33 103 92q44 72 44 180q0 102 -48 170q-40 57 -113 88q-56 25 -129 34q-27 3 -57 4l-42 1q-84 0 -84 -70v-532z" />
    <glyph glyph-name="Q" unicode="Q" 
d="M1435 -362q-19 -2 -49 -2l-47 -1q-221 0 -393 57q-194 64 -308 193l-96 113q-79 21 -154 66q-88 52 -154 129q-76 87 -118 200q-47 128 -47 283q0 170 57 308q54 129 152 222q189 178 461 178t460 -177q99 -93 152 -222q57 -139 57 -309q0 -161 -52 -294
q-47 -119 -133 -210q-153 -162 -351 -186q12 -24 75 -88q55 -56 87 -82q82 -65 166 -98q104 -41 235 -44v-36zM442 1169q-65 -79 -101 -196q-39 -129 -39 -297q0 -316 133 -484q117 -147 304 -147q186 0 303 147q133 168 133 484q0 168 -39 297q-35 117 -101 196
q-117 142 -296 142t-297 -142z" />
    <glyph glyph-name="R" unicode="R" horiz-adv-x="1366" 
d="M1349 0h-330l-487 631l-115 -4v-404q0 -107 31 -140q34 -38 153 -44v-39h-567v39q118 7 149 50q25 34 25 157v887q0 110 -33 143q-30 30 -141 41v39h565q84 0 158 -12q98 -15 171 -49q88 -41 136 -109q55 -78 55 -189q0 -96 -43 -166q-36 -60 -103 -101q-52 -32 -122 -53
q-26 -8 -56 -14q-12 -3 -25 -5l-21 -5l422 -518q74 -91 178 -96v-39zM417 702l34 1q19 0 36 1q42 1 77 5q92 9 157 34q81 31 125 88q50 67 50 170q0 95 -43 159q-36 53 -101 83q-51 23 -118 32q-24 3 -51 4l-39 1q-127 0 -127 -74v-504z" />
    <glyph glyph-name="S" unicode="S" horiz-adv-x="1138" 
d="M960 948h-51q-29 141 -123 239q-108 113 -258 113q-83 0 -141 -47q-65 -53 -65 -143q0 -101 106 -191q42 -34 110 -76l126 -75q77 -46 125 -79q66 -47 110 -93q107 -113 107 -254q0 -145 -107 -251q-121 -120 -326 -120q-52 0 -106 11q-40 8 -88 24l-69 24q-35 11 -54 11
q-64 0 -64 -68h-45l-61 435h47l2 -5q1 -3 2 -5l4 -10q5 -13 10 -24q12 -29 25 -54q35 -69 78 -120q55 -66 122 -102q80 -43 177 -43q116 0 184 72q62 65 62 155q0 96 -54 159q-67 79 -280 204q-83 48 -130 80q-62 43 -101 85q-89 97 -89 236q0 165 117 262q104 86 254 86
q42 0 89 -10q35 -8 80 -24l67 -24q32 -11 49 -11q37 0 56 26q6 10 11 23l4 20h43z" />
    <glyph glyph-name="T" unicode="T" horiz-adv-x="1251" 
d="M925 0h-598v39q132 6 166 50q26 33 26 157v1024h-110q-171 0 -231 -48q-61 -48 -95 -214h-49l12 348h1155l13 -348h-50q-31 166 -94 215q-60 47 -231 47h-111v-1047q0 -108 34 -142q37 -38 163 -42v-39z" />
    <glyph glyph-name="U" unicode="U" 
d="M1443 1317q-121 -13 -155 -57q-37 -48 -37 -205v-568q-1 -20 -1 -37q-2 -46 -8 -85q-14 -104 -58 -181q-55 -97 -157 -150q-121 -63 -307 -63q-177 0 -293 65q-98 53 -151 150q-41 75 -56 174q-5 36 -7 76l-1 697q0 112 -33 145q-33 31 -151 39v39h580v-39
q-121 -9 -154 -42t-33 -142l1 -711q1 -35 5 -65q10 -79 39 -137q37 -73 106 -112q81 -47 206 -47q236 0 335 162q23 39 34 94q14 70 14 185v553q0 158 -43 210q-37 45 -150 52v39h475v-39z" />
    <glyph glyph-name="V" unicode="V" 
d="M1427 1317q-74 -5 -108 -39q-35 -35 -81 -152l-454 -1149h-31l-504 1125q-61 135 -104 176q-38 36 -113 39v39h545v-39q-154 -8 -154 -76q0 -21 24 -82q18 -43 60 -137l309 -692l316 790q3 11 6 20q18 56 18 83q0 56 -45 77q-19 8 -48 12l-56 5v39h420v-39z" />
    <glyph glyph-name="W" unicode="W" horiz-adv-x="1933" 
d="M1908 1317q-124 -20 -161 -125l-165 -448l-56 -154q-60 -167 -108 -310q-54 -162 -97 -303h-31q-25 76 -69 194q-38 103 -89 236l-170 437l-315 -867h-31q-37 111 -95 276l-112 315q-116 320 -188 509q-54 139 -86 180q-43 53 -125 60v39h502v-39q-133 -6 -133 -70
q0 -19 7 -46q3 -10 7 -23l303 -791l219 578l-67 168q-49 122 -88 155q-34 27 -119 29v39h547v-39h-25q-15 -1 -27 -2q-30 -3 -51 -9q-55 -18 -55 -67q0 -22 16 -63q3 -8 8 -20l302 -775l256 694q32 86 32 148q0 53 -44 74q-18 9 -46 14q-17 3 -51 6v39h405v-39z" />
    <glyph glyph-name="X" unicode="X" 
d="M1425 1317q-94 -7 -140 -33q-66 -37 -165 -160l-299 -372l393 -562q99 -139 227 -151v-39h-608v39q158 9 158 70q0 24 -40 93l-35 56l-224 332l-244 -303q-47 -58 -69 -92q-37 -55 -37 -80q0 -44 47 -61q20 -7 50 -11l58 -4v-39h-477v39q82 6 130 45q41 33 167 188
l321 396l-223 327q-146 215 -219 272q-35 28 -73 39q-24 6 -78 11v39h618v-39q-156 -3 -156 -66q0 -31 36 -94q38 -66 139 -209l86 -121l231 283q82 103 82 139q0 42 -46 57q-18 6 -46 8l-51 3v39h487v-39z" />
    <glyph glyph-name="Y" unicode="Y" 
d="M1440 1317q-37 -4 -56 -10q-31 -8 -60 -29q-72 -49 -167 -195l-303 -462v-398q0 -113 36 -146q39 -37 175 -38v-39h-627v39q142 3 179 47q28 33 28 160v356l-268 393q-147 217 -210 273q-46 42 -122 49v39h573v-39q-145 -6 -145 -64q0 -37 35 -88l303 -454l313 498
q8 21 8 40q0 43 -46 58q-19 6 -46 8q-11 1 -25 2h-24v39h449v-39z" />
    <glyph glyph-name="Z" unicode="Z" horiz-adv-x="1251" 
d="M1222 360l-49 -360h-1155v31l895 1247h-453q-195 0 -272 -85q-30 -34 -48 -87q-10 -31 -24 -100h-53l41 350h1077v-31l-884 -1247h526q179 0 260 85q32 35 56 90q14 33 36 107h47z" />
    <glyph glyph-name="bracketleft" unicode="[" horiz-adv-x="681" 
d="M428 1305q-60 0 -81 -35q-7 -12 -10 -29q-1 -7 -1 -14v-1400q0 -9 1 -16q3 -20 11 -35q24 -44 88 -44h176v-51h-432v1675h432v-51h-184z" />
    <glyph glyph-name="backslash" unicode="\" horiz-adv-x="569" 
d="M119 1384l469 -1413h-139l-467 1413h137z" />
    <glyph glyph-name="bracketright" unicode="]" horiz-adv-x="681" 
d="M253 -268q60 0 81 34q8 12 10 30q1 6 1 14v1400q0 8 -1 15q-3 20 -11 36q-24 44 -88 44h-176v51h432v-1675h-432v51h184z" />
    <glyph glyph-name="asciicircum" unicode="^" horiz-adv-x="960" 
d="M49 608l371 748h123l370 -748h-139l-293 592l-293 -592h-139z" />
    <glyph glyph-name="underscore" unicode="_" horiz-adv-x="1024" 
d="M0 -256v102h1024v-102h-1024z" />
    <glyph glyph-name="grave" unicode="`" horiz-adv-x="681" 
d="M483 1346q-90 -58 -135 -127q-33 -51 -33 -91q0 -28 29 -28l18 4q12 4 31 4q50 0 83 -21q44 -26 44 -81q0 -61 -41 -93q-32 -26 -78 -26q-22 0 -46 7q-31 9 -55 27q-65 52 -65 162q0 97 92 198q75 83 137 103z" />
    <glyph glyph-name="a" unicode="a" horiz-adv-x="909" 
d="M587 549q-109 -36 -182 -78q-64 -37 -100 -78q-30 -34 -41 -71q-9 -27 -9 -60v-4q0 -160 135 -160q30 0 74 15l53 22q70 34 70 117v297zM904 82q-56 -66 -111 -89q-20 -9 -41 -12q-8 -1 -16 -1h-30q-10 0 -19 2q-23 5 -41 17q-50 35 -57 130q-72 -65 -135 -100
q-86 -49 -162 -49q-88 0 -150 55q-67 59 -67 158q0 140 131 230q58 40 160 85l221 90v125q0 98 -56 140q-22 17 -51 24q-23 6 -51 6q-55 0 -98 -26q-47 -30 -47 -74q0 -11 1 -23l9 -57q0 -88 -92 -88q-43 0 -68 32q-20 27 -20 58q0 77 78 144q95 83 256 83q107 0 176 -34
q59 -29 91 -84q25 -44 33 -107l4 -53l2 -493q1 -23 6 -38q13 -37 52 -37q29 0 54 13l38 26v-53z" />
    <glyph glyph-name="b" unicode="b" horiz-adv-x="1024" 
d="M313 143q0 -47 79 -76q61 -22 118 -22q156 0 222 133q26 51 37 119q9 53 9 115q0 161 -60 272q-71 129 -200 129q-66 0 -124 -33q-75 -43 -81 -121v-516zM141 1174q0 56 -11 75q-18 29 -79 29h-22q-15 -1 -23 -2v33q86 23 148 42q81 24 149 48l10 -4v-619h4q13 47 85 101
q88 65 192 65q174 0 275 -145q89 -128 89 -310q0 -76 -24 -157q-29 -93 -83 -166q-64 -84 -154 -131q-104 -53 -238 -53q-91 0 -198 37q-120 42 -120 94v1063z" />
    <glyph glyph-name="c" unicode="c" horiz-adv-x="909" 
d="M844 301q-153 -321 -410 -321q-144 0 -253 107q-130 127 -130 349q0 237 146 379q131 127 313 127q118 0 217 -63q88 -62 88 -144q0 -84 -94 -90q-73 -6 -101 94l-12 45q-15 56 -33 73q-28 26 -102 26q-34 0 -73 -15q-49 -18 -88 -55q-47 -44 -73 -111q-30 -78 -30 -184
q0 -173 92 -284q89 -107 221 -107q101 0 176 57q54 42 117 135z" />
    <glyph glyph-name="d" unicode="d" horiz-adv-x="1024" 
d="M696 680q-10 98 -75 155q-58 50 -136 50q-100 0 -170 -85q-84 -103 -84 -294q0 -212 91 -324q77 -96 192 -96q155 0 182 123v471zM1005 86q-30 -11 -73 -26l-228 -80l-8 6v125h-4q-36 -54 -89 -87q-74 -44 -175 -44q-44 0 -92 12q-70 19 -125 60q-70 53 -109 138
q-47 103 -47 248q0 202 126 353q127 151 298 151q117 0 217 -88v320q0 56 -11 75q-18 29 -79 29h-23q-16 -1 -26 -2v33q84 21 152 42q79 23 149 48l10 -4v-1162q0 -73 17 -92q26 -29 120 -22v-33z" />
    <glyph glyph-name="e" unicode="e" horiz-adv-x="909" 
d="M868 322q-12 -37 -35 -81q-34 -63 -79 -114q-59 -66 -131 -103q-87 -44 -189 -44q-173 0 -277 120q-106 123 -106 338q0 135 42 239q37 92 105 155q118 110 271 110t244 -87q100 -95 116 -288h-637q9 -129 43 -222q29 -84 79 -137q81 -87 204 -87q119 0 209 79
q34 29 65 70l24 35q5 7 10 16l9 15zM620 633q-1 12 -2 19l-12 59q-11 46 -29 76q-47 81 -153 81q-183 0 -226 -235h422z" />
    <glyph glyph-name="f" unicode="f" horiz-adv-x="681" 
d="M632 856h-250v-643q0 -106 25 -136q35 -43 165 -46v-31h-532v31q106 5 136 34q34 34 34 148v643h-168v66h168l1 53q1 37 5 70q10 90 40 158q39 89 110 137q84 59 213 59q204 0 204 -125q0 -86 -88 -86q-41 0 -92 77q-51 76 -100 76q-75 0 -104 -62q-19 -42 -19 -120v-237
h252v-66z" />
    <glyph glyph-name="g" unicode="g" horiz-adv-x="1024" 
d="M266 -281q82 -49 242 -49q378 0 378 199q0 63 -69 83q-29 9 -79 13q-21 1 -49 3q-19 0 -54 1q-246 8 -334 27q-101 -120 -101 -180q0 -57 66 -97zM358 468q56 -112 166 -112q90 0 127 82q13 28 19 65l3 29l-1 52q-2 22 -6 45q-11 61 -31 111q-26 65 -64 101
q-45 44 -106 44q-64 0 -105 -41q-49 -49 -49 -144q0 -140 47 -232zM792 795q1 -2 2 -5l6 -13q4 -10 7 -17q8 -20 12 -39q12 -47 12 -115q0 -148 -120 -233q-95 -68 -205 -68l-111 10q-31 -3 -77 -50q-46 -48 -46 -79t57 -44l52 -8l315 -15q142 -7 206 -92q23 -31 34 -70
q4 -16 6 -32q2 -13 2 -25q0 -82 -56 -152q-49 -61 -137 -108q-162 -86 -332 -86q-154 0 -259 58q-103 58 -103 140q0 63 61 132q47 53 140 118l-41 20q-21 12 -34 23q-34 27 -34 66l1 13q0 7 2 13q5 17 20 38q37 50 159 159q-190 84 -190 266q0 168 118 262q99 80 234 80
q73 0 199 -47q54 -21 113 -21h157v-79h-170z" />
    <glyph glyph-name="h" unicode="h" horiz-adv-x="1024" 
d="M997 0h-434v31q83 8 107 34q32 33 32 144v405q0 217 -158 217q-50 0 -102 -27q-62 -33 -121 -102v-493q0 -111 32 -144q24 -26 107 -34v-31h-442v31q86 11 107 38q24 31 24 140v965q0 56 -11 75q-18 29 -79 29h-22q-13 -1 -17 -2v33l143 42q83 25 148 48l10 -6v-619h4
q118 168 295 168q88 0 146 -39q49 -33 76 -93q20 -46 28 -108l3 -48l1 -445q0 -108 23 -138q19 -26 100 -40v-31z" />
    <glyph glyph-name="i" unicode="i" horiz-adv-x="569" 
d="M32 31q101 5 129 31q33 32 33 147v475q0 80 -24 107q-14 16 -48 16q-19 0 -42 -3l-40 -5v30q69 23 159 55l159 58l8 -6v-727q0 -107 23 -137q27 -35 128 -41v-31h-485v31zM183 1361q30 38 78 38q107 0 107 -105q0 -104 -107 -104q-49 0 -78 38q-24 30 -24 66t24 67z" />
    <glyph glyph-name="j" unicode="j" horiz-adv-x="569" 
d="M224 684q0 80 -24 107q-14 16 -48 16q-19 0 -42 -3l-44 -5v32q160 50 319 111l11 -6v-936q0 -200 -75 -313q-89 -133 -274 -133q-77 0 -131 28q-59 32 -59 86q0 78 82 78q46 0 96 -61q51 -62 86 -62q70 0 90 80q8 33 11 90q2 34 2 115v776zM213 1361q30 38 78 38
q107 0 107 -105q0 -104 -107 -104q-50 0 -79 38q-23 30 -23 66t24 67z" />
    <glyph glyph-name="k" unicode="k" horiz-adv-x="1024" 
d="M14 31q106 17 128 35q26 21 26 102v987q0 125 -93 125q-28 0 -61 -4v33l156 42q90 25 161 48l9 -4v-852l4 -4l276 245q47 44 47 70q0 19 -19 28q-23 11 -83 11v29h418v-31q-51 0 -76 -4q-40 -7 -83 -28q-94 -49 -284 -226l-59 -55l313 -398q70 -87 139 -122
q26 -14 55 -21l24 -4q10 -1 22 -2v-31h-447v31h39q43 0 43 32q0 9 -12 27l-313 418h-4v-371q0 -97 112 -104l41 -2v-31h-479v31z" />
    <glyph glyph-name="l" unicode="l" horiz-adv-x="569" 
d="M42 31q158 10 158 147v977q0 125 -92 125l-70 -4v33q90 22 163 42q87 23 163 48l8 -4v-1223q0 -86 32 -113q28 -23 121 -28v-31h-483v31z" />
    <glyph glyph-name="m" unicode="m" horiz-adv-x="1593" 
d="M175 692q0 86 -23 114q-14 17 -48 17q-33 0 -66 -8v35q149 41 287 92l14 -4v-154l85 64q43 31 77 50q79 44 154 44q92 0 151 -54q48 -44 68 -118l47 48q35 32 73 56q104 68 209 68q142 0 201 -125q23 -50 33 -119q8 -53 8 -120v-440q0 -10 1 -18q2 -21 9 -36
q19 -40 78 -49l53 -4v-31h-448v31q85 10 106 29q29 26 29 118v432q0 52 -3 80q-4 43 -16 72q-33 74 -130 74q-80 0 -139 -37q-51 -31 -89 -88v-516q0 -106 42 -140q28 -22 106 -24v-31h-459v31q80 5 104 25q35 28 35 120v445q0 215 -141 215q-90 0 -171 -57l-27 -22l-21 -19
q-17 -18 -17 -23v-578q0 -67 43 -90q18 -9 45 -13q17 -2 52 -3v-31h-455v31q39 1 57 4q28 4 45 17q41 29 41 122v518z" />
    <glyph glyph-name="n" unicode="n" horiz-adv-x="1024" 
d="M163 692q0 86 -23 114q-15 17 -49 17q-43 0 -59 -8v35q152 44 283 92l14 -4v-162l72 66q38 32 70 52q75 48 157 48q92 0 155 -59q85 -80 85 -248v-469q0 -125 125 -135v-31h-426v31q68 5 92 30q37 36 37 142v428q0 198 -158 198q-83 0 -203 -116v-576q0 -98 135 -106v-31
h-434v31q127 8 127 153v508z" />
    <glyph glyph-name="o" unicode="o" horiz-adv-x="1024" 
d="M832 816q130 -130 130 -349q0 -177 -110 -320q-60 -77 -142 -120q-91 -47 -202 -47q-197 0 -324 140q-125 138 -125 347q0 197 118 332q125 143 324 143q205 0 331 -126zM696 112q82 97 82 296q0 200 -76 333q-81 144 -217 144q-103 0 -169 -80q-73 -87 -73 -240
q0 -69 12 -146q14 -98 43 -175q35 -94 89 -146q63 -61 149 -61q96 0 160 75z" />
    <glyph glyph-name="p" unicode="p" horiz-adv-x="1024" 
d="M153 690q0 117 -77 117q-39 0 -58 -2v33q148 46 295 104l12 -4v-150l4 -4q47 62 105 101q86 57 190 57q142 0 238 -118q100 -124 100 -322q0 -197 -108 -350q-123 -172 -322 -172q-116 0 -207 88v-322q0 -97 35 -126q34 -28 146 -28v-36h-496v34q94 8 122 42
q21 25 21 100v958zM325 180q0 -40 63 -85q68 -50 146 -50q34 0 68 12q47 16 84 52q45 45 70 119q30 88 30 212l-1 30q-1 25 -4 49q-9 71 -31 128q-29 77 -78 120q-59 52 -146 52q-60 0 -123 -38q-69 -42 -78 -97v-504z" />
    <glyph glyph-name="q" unicode="q" horiz-adv-x="1024" 
d="M848 936l14 6l8 -8v-1223q0 -68 30 -92q21 -17 99 -35v-28h-483v34q110 5 149 42q33 32 33 114v381h-10q-28 -50 -118 -97q-97 -50 -185 -50q-146 0 -236 111q-100 122 -100 343q0 213 132 360q133 148 325 148q71 0 125 -19q34 -12 106 -53zM698 707l-3 31q-6 38 -22 67
q-46 80 -171 80q-277 0 -277 -398q0 -156 63 -262q71 -121 199 -121q55 0 103 19q73 27 93 59q13 20 15 78v447z" />
    <glyph glyph-name="r" unicode="r" horiz-adv-x="681" 
d="M155 684q0 80 -23 107q-14 16 -48 16q-33 0 -70 -8v32q161 53 303 111l10 -4v-182h5q123 186 243 186q111 0 111 -111q0 -90 -78 -90q-24 0 -45 12l-18 11l-46 38q-16 11 -32 11q-38 0 -88 -59q-52 -61 -52 -109v-461q0 -96 48 -128q33 -22 127 -25v-31h-492v31
q93 17 115 35q30 25 30 106v512z" />
    <glyph glyph-name="s" unicode="s" horiz-adv-x="796" 
d="M614 643q-31 144 -97 204q-51 48 -130 48q-77 0 -120 -47q-36 -38 -36 -86q0 -39 16 -71q21 -44 72 -75l221 -131q88 -53 124 -97q48 -60 48 -144q0 -124 -99 -199q-86 -65 -198 -65q-31 0 -68 6l-121 25q-29 6 -48 5q-29 0 -45 -24h-27v319h33l23 -90q18 -56 43 -94
q67 -102 198 -102q65 0 109 31q57 39 57 118q0 92 -107 152l-118 67q-57 32 -91 56q-47 32 -77 64q-72 77 -72 179q0 97 69 168q80 82 218 82q52 0 115 -20l42 -14q20 -7 31 -7q12 0 22 8q4 3 8 8l5 7h22l9 -281h-31z" />
    <glyph glyph-name="t" unicode="t" horiz-adv-x="569" 
d="M522 856h-207v-612q0 -16 1 -29q3 -36 12 -61q23 -68 91 -68q43 0 79 26q13 9 26 23l20 23l27 -23q-87 -155 -240 -155q-87 0 -133 53q-55 63 -55 207v616h-109q-8 4 -8 14q0 14 28 34l29 20q19 14 33 28q54 55 93 106l91 128q15 0 15 -27v-237h207v-66z" />
    <glyph glyph-name="u" unicode="u" horiz-adv-x="1024" 
d="M981 74q-74 -19 -148 -44l-137 -48l-4 4v170l-88 -88q-52 -52 -124 -74q-26 -8 -53 -12l-38 -2q-88 0 -154 51q-90 71 -90 215v516q0 82 -40 110q-16 11 -41 16q-10 2 -23 3l-23 2v29h299v-668q0 -16 5 -36q7 -29 21 -53q41 -67 128 -67t178 74q8 7 13 14q6 8 10 19
q10 25 10 71v482q0 70 -22 93q-31 33 -130 36v35h324v-703q0 -66 17 -87q26 -32 110 -30v-28z" />
    <glyph glyph-name="v" unicode="v" horiz-adv-x="1024" 
d="M976 891q-71 -6 -133 -160l-271 -678l-22 -51q-15 -31 -25 -31q-13 0 -22 15q-8 15 -33 82q-48 123 -150 366l-95 221q-48 109 -74 160q-36 72 -113 76v31h401v-31q-94 -8 -94 -62q0 -15 7 -38l221 -558q21 61 63 165q7 19 17 45l36 88q10 24 17 43q39 99 58 154
q24 70 24 95q0 64 -97 68v31h285v-31z" />
    <glyph glyph-name="w" unicode="w" 
d="M1421 922v-31q-45 -15 -84 -111l-282 -708q-41 -101 -58 -101q-15 0 -49 88l-186 484l-230 -492q-39 -80 -51 -80q-10 0 -21 19q-10 17 -32 71l-276 701q-52 124 -109 129v31h369v-31q-95 -8 -95 -70q0 -42 73 -225l69 -175q44 -112 73 -194l187 408q-55 167 -88 211
q-28 37 -94 45v31h415v-31q-118 -18 -118 -76q0 -27 43 -139l163 -438l185 454q35 79 35 131q0 49 -91 68v31h252z" />
    <glyph glyph-name="x" unicode="x" horiz-adv-x="1024" 
d="M452 403l-162 -251q-3 -5 -5 -8l-20 -33q-16 -29 -16 -43q4 -37 82 -37v-31h-297v31q48 5 71 19q33 20 79 85l233 338l-193 295q-58 87 -94 109q-25 16 -82 14v31h424v-31q-88 0 -88 -47q0 -24 47 -102l76 -119q96 138 116 169q13 22 17 33q4 10 4 19q0 42 -82 47v31h324
v-31q-58 -1 -110 -36q-19 -13 -35 -29q-14 -14 -21 -25l-170 -246l262 -401q51 -78 100 -106q19 -10 38 -14l16 -2l14 -1v-31h-411v31q81 2 81 53q0 19 -13 40l-16 21q-2 3 -3 5z" />
    <glyph glyph-name="y" unicode="y" horiz-adv-x="1024" 
d="M972 891q-8 -1 -10 -2q-7 -1 -12 -2q-14 -4 -25 -12q-31 -21 -51 -76l-316 -836q-155 -409 -348 -409q-149 0 -149 118q0 9 2 20q3 16 12 30q24 40 84 40q31 0 84 -18l35 -13q18 -5 26 -5q37 0 75 44q31 37 60 101q54 120 54 170q0 11 -16 48l-345 738q-16 34 -51 51
q-13 6 -29 10l-24 5v29h422v-31l-39 -2q-23 -3 -38 -8q-42 -13 -42 -50q0 -17 8 -41l13 -32l235 -518l174 491q1 4 2 6l8 21q4 11 7 20q16 44 16 56q0 60 -98 57v31h276v-31z" />
    <glyph glyph-name="z" unicode="z" horiz-adv-x="909" 
d="M827 0h-772v31l545 829h-283q-101 0 -137 -48q-22 -31 -35 -132h-37l6 242h711v-31l-551 -830h283q150 0 200 52q34 36 62 172l37 -9z" />
    <glyph glyph-name="braceleft" unicode="{" horiz-adv-x="983" 
d="M378 279q0 185 -174 233q174 45 174 231v365q0 171 90 234q73 51 248 51v-23q-186 -42 -186 -252v-344q0 -118 -34 -172q-40 -64 -153 -90v-4q113 -25 153 -89q34 -53 34 -171v-344q0 -210 186 -252v-23q-175 0 -248 52q-90 63 -90 235v363z" />
    <glyph glyph-name="bar" unicode="|" horiz-adv-x="409" 
d="M137 1384h135v-1413h-135v1413z" />
    <glyph glyph-name="braceright" unicode="}" horiz-adv-x="983" 
d="M604 743q0 -186 174 -231q-174 -48 -174 -233v-365q0 -171 -90 -234q-73 -51 -248 -51v23q186 42 186 252v344q0 118 34 172q40 64 153 90v4q-113 25 -153 89q-34 53 -34 171v344q0 210 -186 252v23q175 0 248 -52q90 -63 90 -235v-363z" />
    <glyph glyph-name="asciitilde" unicode="~" horiz-adv-x="1107" 
d="M1027 559q-29 -41 -48 -64q-28 -34 -55 -56q-68 -56 -153 -56q-52 0 -107 20q-41 15 -102 48q-59 33 -107 49q-64 22 -128 22q-61 0 -108 -47q-34 -34 -64 -100l-74 102q41 78 93 121q70 55 163 55q48 0 111 -19q47 -15 116 -46l112 -49q62 -25 97 -25q55 0 103 47
q30 29 77 101z" />
    <glyph glyph-name="dieresis" unicode="&#xa8;" horiz-adv-x="1024" 
 />
    <glyph glyph-name="copyright" unicode="&#xa9;" horiz-adv-x="1556" 
d="M1276 1177q202 -207 202 -501t-202 -499q-202 -206 -494 -206q-297 0 -502 206q-203 204 -203 499t203 501q205 207 502 207q292 0 494 -207zM360 1111q-170 -184 -170 -435q0 -249 171 -432q175 -187 421 -187q240 0 413 187q170 183 170 432q0 252 -169 436
q-172 186 -414 186q-247 0 -422 -187zM1119 506l-32 -144q0 -22 -54 -38l-86 -22q-65 -13 -129 -13q-190 0 -303 94q-127 106 -127 311q0 148 106 262q124 134 339 134q68 0 124 -13q21 -5 45 -13l42 -13q43 -12 43 -41v-144h-35q-7 76 -56 124q-60 59 -169 59
q-138 0 -211 -99q-68 -91 -70 -248q-2 -170 67 -267q76 -105 226 -105q94 0 159 52q54 44 89 124h32z" />
    <glyph glyph-name="registered" unicode="&#xae;" horiz-adv-x="1556" 
d="M448 1065h362q99 0 163 -45q73 -50 73 -141q0 -162 -162 -215l117 -162q86 -119 155 -174v-17h-131q-40 0 -99 94q-11 18 -30 48l-34 57q-46 76 -85 133h-98v-203q0 -66 12 -78t88 -20v-31h-331v31q76 8 88 20t12 78v494q0 69 -12 81t-88 19v31zM679 682h88
q141 0 141 186q0 158 -145 158h-84v-344zM1276 177q-202 -206 -494 -206q-297 0 -502 206q-203 204 -203 499t203 501q205 207 502 207q292 0 494 -207t202 -501t-202 -499zM1196 1112q-172 186 -414 186q-247 0 -422 -187q-170 -184 -170 -435q0 -249 171 -432
q175 -187 421 -187q240 0 413 187q170 183 170 432q0 252 -169 436z" />
    <glyph glyph-name="acute" unicode="&#xb4;" horiz-adv-x="1024" 
 />
    <glyph glyph-name="paragraph" unicode="&#xb6;" horiz-adv-x="1024" 
d="M929 1435v-70h-127v-1365h-82v1365h-166v-1365h-84v738q-174 8 -275.5 102.5t-101.5 245.5q0 157 107.5 253t285.5 96h443z" />
    <glyph glyph-name="Eth" unicode="&#xd0;" 
d="M32 1356h553q380 0 593 -169q224 -178 224 -513q0 -114 -35 -220q-41 -125 -124 -219q-96 -109 -242 -168q-165 -67 -387 -67h-582v39q115 6 148 41q32 34 32 143v422h-170v90h170v398q0 113 -31 144q-30 31 -149 40v39zM720 645h-299v-485q0 -84 123 -84h29q19 0 36 1
q47 2 89 8q121 17 213 65q120 63 187 177q81 138 81 345q0 138 -42 249q-48 125 -149 216q-81 72 -175 104q-114 39 -296 39q-64 0 -84 -25q-12 -14 -12 -55v-465h299v-90z" />
    <glyph glyph-name="onequarter" unicode="&#xbc;" horiz-adv-x="1536" 
d="M1470 184h-113v-184h-143v184h-369v101l416 544h96v-528h113v-117zM1214 662h-4l-273 -361h277v361zM382 -29h-100l928 1413h94zM466 553h-391v49q109 8 109 66l-1 546q0 11 -1 19q-3 18 -13 18q-12 0 -23 -3q-12 -3 -67 -23v47l242 112l28 -6v-702q0 -68 117 -74v-49z
" />
    <glyph glyph-name="onehalf" unicode="&#xbd;" horiz-adv-x="1536" 
d="M307 -29h-101l928 1413h94zM454 553h-391v49q109 8 109 66l-1 546q0 11 -1 19q-3 18 -13 18q-12 0 -23 -3q-12 -3 -67 -23v47l242 112l28 -6v-702q0 -68 117 -74v-49zM1452 0h-519v47l201 219q166 186 166 279q0 55 -35 102q-43 55 -112 55q-120 0 -179 -143l-51 29
q41 137 120 193q70 50 191 50q107 0 179 -59q75 -62 75 -162q0 -88 -63 -180q-24 -35 -57 -70l-228 -227h248q72 3 105 55l34 -14z" />
    <glyph glyph-name="threequarters" unicode="&#xbe;" horiz-adv-x="1536" 
d="M1470 184h-113v-184h-143v184h-369v101l416 544h96v-528h113v-117zM1214 662h-4l-273 -361h277v361zM382 -29h-100l928 1413h94zM190 1001q196 60 196 166q0 103 -116 103q-65 0 -111 -39q-18 -15 -36 -38l-30 -40l-51 37q48 103 128 153q65 41 143 41q115 0 179 -60
q50 -48 50 -105q0 -88 -123 -172q70 -26 114 -72q62 -67 62 -170q0 -95 -90 -172q-52 -44 -127 -69q-84 -27 -192 -27l-63 7q-14 3 -27 8q-66 26 -66 89q0 74 72 74q20 0 44 -13l42 -27q56 -40 92 -40q82 0 121 48q28 36 28 87q0 169 -190 178l-47 -6z" />
    <glyph glyph-name="Agrave" unicode="&#xc0;" 
d="M1445 0h-522v39q36 0 54 1q28 3 46 9q43 17 43 68q0 21 -15 66l-12 35l-96 224h-536l-94 -239q-17 -43 -17 -78q0 -56 54 -75q19 -7 46 -10q10 -1 21 -1h19v-39h-406v39q66 4 104 45q31 33 78 131l39 84q8 17 17 40l8 18q1 2 4 9l430 1014h41l510 -1163q48 -110 83 -143
q32 -30 101 -35v-39zM915 526l-238 564l-235 -564h473zM812 1473l-315 198q-11 7 -20 15l-19 19q-20 26 -20 54l1 12q2 12 8 22q16 30 56 30q39 0 90 -47l301 -303h-82z" />
    <glyph glyph-name="Aacute" unicode="&#xc1;" 
d="M1445 0h-522v39q36 0 54 1q28 3 46 9q43 17 43 68q0 21 -15 66l-12 35l-96 224h-536l-94 -239q-17 -43 -17 -78q0 -56 54 -75q19 -7 46 -10q10 -1 21 -1h19v-39h-406v39q66 4 104 45q31 33 78 131l39 84q8 17 17 40l8 18q1 2 4 9l430 1014h41l510 -1163q48 -110 83 -143
q32 -30 101 -35v-39zM915 526l-238 564l-235 -564h473zM589 1473l301 303q33 32 52 41l19 5l19 1q42 0 59 -30q5 -10 8 -22q1 -7 1 -14q0 -31 -23 -56q-9 -9 -20 -18l-334 -210h-82z" />
    <glyph glyph-name="uni1EA2" unicode="&#x1ea2;" 
d="M1445 0h-522v39q36 0 54 1q28 3 46 9q43 17 43 68q0 21 -15 66l-12 35l-96 224h-536l-94 -239q-17 -43 -17 -78q0 -56 54 -75q19 -7 46 -10q10 -1 21 -1h19v-39h-406v39q66 4 104 45q31 33 78 131l39 84q8 17 17 40l8 18q1 2 4 9l430 1014h41l510 -1163q48 -110 83 -143
q32 -30 101 -35v-39zM915 526l-238 564l-235 -564h473zM700 1444q0 41 11 83l9 27q3 9 6 14l24 51q31 63 31 115q0 38 -18 61q-23 27 -56 27q-21 0 -43 -12q-17 -10 -17 -24q0 -6 2 -9q3 -5 6 -8l12 -13q4 -4 5 -6q8 -13 8 -23q0 -44 -54 -44q-63 0 -63 61q0 58 56 95
q44 29 104 29q97 0 144 -52q33 -37 33 -89q0 -29 -25 -71q-17 -30 -42 -56q-37 -40 -54 -69q-16 -30 -27 -87h-52z" />
    <glyph glyph-name="Atilde" unicode="&#xc3;" 
d="M1445 0h-522v39q36 0 54 1q28 3 46 9q43 17 43 68q0 21 -15 66l-12 35l-96 224h-536l-94 -239q-17 -43 -17 -78q0 -56 54 -75q19 -7 46 -10q10 -1 21 -1h19v-39h-406v39q66 4 104 45q31 33 78 131l39 84q8 17 17 40l8 18q1 2 4 9l430 1014h41l510 -1163q48 -110 83 -143
q32 -30 101 -35v-39zM915 526l-238 564l-235 -564h473zM1077 1741l-1 -4l-18 -59q-15 -42 -36 -72q-57 -82 -161 -82q-43 0 -84 14l-39 15l-90 42q-45 23 -75 23q-51 0 -81 -34q-11 -13 -20 -31q-3 -7 -7 -15q-2 -6 -5 -14h-59q15 82 62 137q59 70 153 70q64 0 135 -37
l49 -25q11 -5 21 -10l26 -10q31 -11 51 -11q76 0 119 103h60z" />
    <glyph glyph-name="uni1EA0" unicode="&#x1ea0;" 
d="M1445 0h-522v39q36 0 54 1q28 3 46 9q43 17 43 68q0 21 -15 66l-12 35l-96 224h-536l-94 -239q-17 -43 -17 -78q0 -56 54 -75q19 -7 46 -10q10 -1 21 -1h19v-39h-406v39q66 4 104 45q31 33 78 131l39 84q8 17 17 40l8 18q1 2 4 9l430 1014h41l510 -1163q48 -110 83 -143
q32 -30 101 -35v-39zM915 526l-238 564l-235 -564h473zM573 -178q29 37 75 37q102 0 102 -102q0 -103 -102 -103q-48 0 -75 36q-23 30 -23 67q0 35 23 65z" />
    <glyph glyph-name="Acircumflex" unicode="&#xc2;" 
d="M1445 0h-522v39q36 0 54 1q28 3 46 9q43 17 43 68q0 21 -15 66l-12 35l-96 224h-536l-94 -239q-17 -43 -17 -78q0 -56 54 -75q19 -7 46 -10q10 -1 21 -1h19v-39h-406v39q66 4 104 45q31 33 78 131l39 84q8 17 17 40l8 18q1 2 4 9l430 1014h41l510 -1163q48 -110 83 -143
q32 -30 101 -35v-39zM915 526l-238 564l-235 -564h473zM988 1473l-249 210l-248 -210h-70l254 342h127l256 -342h-70z" />
    <glyph glyph-name="uni1EA6" unicode="&#x1ea6;" 
d="M1445 0h-522v39q36 0 54 1q28 3 46 9q43 17 43 68q0 21 -15 66l-12 35l-96 224h-536l-94 -239q-17 -43 -17 -78q0 -56 54 -75q19 -7 46 -10q10 -1 21 -1h19v-39h-406v39q66 4 104 45q31 33 78 131l39 84q8 17 17 40l8 18q1 2 4 9l430 1014h41l510 -1163q48 -110 83 -143
q32 -30 101 -35v-39zM915 526l-238 564l-235 -564h473zM978 1754l-315 198q-11 7 -20 15l-19 19q-20 26 -20 54l1 12q2 12 8 22q16 30 56 30q39 0 90 -47l301 -303h-82zM988 1473l-249 210l-248 -210h-70l254 342h127l256 -342h-70z" />
    <glyph glyph-name="uni1EA4" unicode="&#x1ea4;" 
d="M1445 0h-522v39q36 0 54 1q28 3 46 9q43 17 43 68q0 21 -15 66l-12 35l-96 224h-536l-94 -239q-17 -43 -17 -78q0 -56 54 -75q19 -7 46 -10q10 -1 21 -1h19v-39h-406v39q66 4 104 45q31 33 78 131l39 84q8 17 17 40l8 18q1 2 4 9l430 1014h41l510 -1163q48 -110 83 -143
q32 -30 101 -35v-39zM915 526l-238 564l-235 -564h473zM912 1735l301 303q33 32 52 41l19 5l19 1q42 0 59 -30q5 -10 8 -22q1 -7 1 -14q0 -31 -23 -56q-9 -9 -20 -18l-334 -210h-82zM988 1473l-249 210l-248 -210h-70l254 342h127l256 -342h-70z" />
    <glyph glyph-name="uni1EA8" unicode="&#x1ea8;" 
d="M1445 0h-522v39q36 0 54 1q28 3 46 9q43 17 43 68q0 21 -15 66l-12 35l-96 224h-536l-94 -239q-17 -43 -17 -78q0 -56 54 -75q19 -7 46 -10q10 -1 21 -1h19v-39h-406v39q66 4 104 45q31 33 78 131l39 84q8 17 17 40l8 18q1 2 4 9l430 1014h41l510 -1163q48 -110 83 -143
q32 -30 101 -35v-39zM915 526l-238 564l-235 -564h473zM927 1714q0 41 11 83l9 27q3 9 6 14l24 51q31 63 31 115q0 38 -18 61q-23 27 -56 27q-21 0 -43 -12q-17 -10 -17 -24q0 -6 2 -9q3 -5 6 -8l12 -13q4 -4 5 -6q8 -13 8 -23q0 -44 -54 -44q-63 0 -63 61q0 58 56 95
q44 29 104 29q97 0 144 -52q33 -37 33 -89q0 -29 -25 -71q-17 -30 -42 -56q-37 -40 -54 -69q-16 -30 -27 -87h-52zM988 1473l-249 210l-248 -210h-70l254 342h127l256 -342h-70z" />
    <glyph glyph-name="uni1EAA" unicode="&#x1eaa;" 
d="M1445 0h-522v39q36 0 54 1q28 3 46 9q43 17 43 68q0 21 -15 66l-12 35l-96 224h-536l-94 -239q-17 -43 -17 -78q0 -56 54 -75q19 -7 46 -10q10 -1 21 -1h19v-39h-406v39q66 4 104 45q31 33 78 131l39 84q8 17 17 40l8 18q1 2 4 9l430 1014h41l510 -1163q48 -110 83 -143
q32 -30 101 -35v-39zM915 526l-238 564l-235 -564h473zM1156 2038l-1 -4l-18 -59q-15 -42 -36 -72q-57 -82 -161 -82q-43 0 -84 14l-39 15l-90 42q-45 23 -75 23q-51 0 -81 -34q-11 -13 -20 -31q-3 -7 -7 -15q-2 -6 -5 -14h-59q15 82 62 137q59 70 153 70q64 0 135 -37
l49 -25q11 -5 21 -10l26 -10q31 -11 51 -11q76 0 119 103h60zM988 1473l-249 210l-248 -210h-70l254 342h127l256 -342h-70z" />
    <glyph glyph-name="uni1EAC" unicode="&#x1eac;" 
d="M1445 0h-522v39q36 0 54 1q28 3 46 9q43 17 43 68q0 21 -15 66l-12 35l-96 224h-536l-94 -239q-17 -43 -17 -78q0 -56 54 -75q19 -7 46 -10q10 -1 21 -1h19v-39h-406v39q66 4 104 45q31 33 78 131l39 84q8 17 17 40l8 18q1 2 4 9l430 1014h41l510 -1163q48 -110 83 -143
q32 -30 101 -35v-39zM915 526l-238 564l-235 -564h473zM573 -178q29 37 75 37q102 0 102 -102q0 -103 -102 -103q-48 0 -75 36q-23 30 -23 67q0 35 23 65zM988 1473l-249 210l-248 -210h-70l254 342h127l256 -342h-70z" />
    <glyph glyph-name="Abreve" unicode="&#x102;" 
d="M1445 0h-522v39q36 0 54 1q28 3 46 9q43 17 43 68q0 21 -15 66l-12 35l-96 224h-536l-94 -239q-17 -43 -17 -78q0 -56 54 -75q19 -7 46 -10q10 -1 21 -1h19v-39h-406v39q66 4 104 45q31 33 78 131l39 84q8 17 17 40l8 18q1 2 4 9l430 1014h41l510 -1163q48 -110 83 -143
q32 -30 101 -35v-39zM915 526l-238 564l-235 -564h473zM1023 1790q-1 -9 -1 -14l-2 -18q-3 -23 -8 -45q-14 -61 -39 -108q-34 -61 -87 -95q-65 -42 -156 -42q-120 0 -198 77q-87 87 -84 245h59q33 -199 228 -199q103 0 158 61q22 25 41 64q7 15 15 36l15 38h59z" />
    <glyph glyph-name="uni1EB0" unicode="&#x1eb0;" 
d="M1445 0h-522v39q36 0 54 1q28 3 46 9q43 17 43 68q0 21 -15 66l-12 35l-96 224h-536l-94 -239q-17 -43 -17 -78q0 -56 54 -75q19 -7 46 -10q10 -1 21 -1h19v-39h-406v39q66 4 104 45q31 33 78 131l39 84q8 17 17 40l8 18q1 2 4 9l430 1014h41l510 -1163q48 -110 83 -143
q32 -30 101 -35v-39zM915 526l-238 564l-235 -564h473zM786 1754l-315 198q-11 7 -20 15l-19 19q-20 26 -20 54l1 12q2 12 8 22q16 30 56 30q39 0 90 -47l301 -303h-82zM1023 1790q-1 -9 -1 -14l-2 -18q-3 -23 -8 -45q-14 -61 -39 -108q-34 -61 -87 -95q-65 -42 -156 -42
q-120 0 -198 77q-87 87 -84 245h59q33 -199 228 -199q103 0 158 61q22 25 41 64q7 15 15 36l15 38h59z" />
    <glyph glyph-name="uni1EAE" unicode="&#x1eae;" 
d="M1445 0h-522v39q36 0 54 1q28 3 46 9q43 17 43 68q0 21 -15 66l-12 35l-96 224h-536l-94 -239q-17 -43 -17 -78q0 -56 54 -75q19 -7 46 -10q10 -1 21 -1h19v-39h-406v39q66 4 104 45q31 33 78 131l39 84q8 17 17 40l8 18q1 2 4 9l430 1014h41l510 -1163q48 -110 83 -143
q32 -30 101 -35v-39zM915 526l-238 564l-235 -564h473zM685 1735l301 303q33 32 52 41l19 5l19 1q42 0 59 -30q5 -10 8 -22q1 -7 1 -14q0 -31 -23 -56q-9 -9 -20 -18l-334 -210h-82zM1023 1790q-1 -9 -1 -14l-2 -18q-3 -23 -8 -45q-14 -61 -39 -108q-34 -61 -87 -95
q-65 -42 -156 -42q-120 0 -198 77q-87 87 -84 245h59q33 -199 228 -199q103 0 158 61q22 25 41 64q7 15 15 36l15 38h59z" />
    <glyph glyph-name="uni1EB2" unicode="&#x1eb2;" 
d="M1445 0h-522v39q36 0 54 1q28 3 46 9q43 17 43 68q0 21 -15 66l-12 35l-96 224h-536l-94 -239q-17 -43 -17 -78q0 -56 54 -75q19 -7 46 -10q10 -1 21 -1h19v-39h-406v39q66 4 104 45q31 33 78 131l39 84q8 17 17 40l8 18q1 2 4 9l430 1014h41l510 -1163q48 -110 83 -143
q32 -30 101 -35v-39zM915 526l-238 564l-235 -564h473zM717 1714q0 41 11 83l9 27q3 9 6 14l24 51q31 63 31 115q0 38 -18 61q-23 27 -56 27q-21 0 -43 -12q-17 -10 -17 -24q0 -6 2 -9q3 -5 6 -8l12 -13q4 -4 5 -6q8 -13 8 -23q0 -44 -54 -44q-63 0 -63 61q0 58 56 95
q44 29 104 29q97 0 144 -52q33 -37 33 -89q0 -29 -25 -71q-17 -30 -42 -56q-37 -40 -54 -69q-16 -30 -27 -87h-52zM1023 1790q-1 -9 -1 -14l-2 -18q-3 -23 -8 -45q-14 -61 -39 -108q-34 -61 -87 -95q-65 -42 -156 -42q-120 0 -198 77q-87 87 -84 245h59q33 -199 228 -199
q103 0 158 61q22 25 41 64q7 15 15 36l15 38h59z" />
    <glyph glyph-name="uni1EB4" unicode="&#x1eb4;" 
d="M1445 0h-522v39q36 0 54 1q28 3 46 9q43 17 43 68q0 21 -15 66l-12 35l-96 224h-536l-94 -239q-17 -43 -17 -78q0 -56 54 -75q19 -7 46 -10q10 -1 21 -1h19v-39h-406v39q66 4 104 45q31 33 78 131l39 84q8 17 17 40l8 18q1 2 4 9l430 1014h41l510 -1163q48 -110 83 -143
q32 -30 101 -35v-39zM915 526l-238 564l-235 -564h473zM1156 2038l-1 -4l-18 -59q-15 -42 -36 -72q-57 -82 -161 -82q-43 0 -84 14l-39 15l-90 42q-45 23 -75 23q-51 0 -81 -34q-11 -13 -20 -31q-3 -7 -7 -15q-2 -6 -5 -14h-59q15 82 62 137q59 70 153 70q64 0 135 -37
l49 -25q11 -5 21 -10l26 -10q31 -11 51 -11q76 0 119 103h60zM1023 1790q-1 -9 -1 -14l-2 -18q-3 -23 -8 -45q-14 -61 -39 -108q-34 -61 -87 -95q-65 -42 -156 -42q-120 0 -198 77q-87 87 -84 245h59q33 -199 228 -199q103 0 158 61q22 25 41 64q7 15 15 36l15 38h59z" />
    <glyph glyph-name="uni1EB6" unicode="&#x1eb6;" 
d="M1445 0h-522v39q36 0 54 1q28 3 46 9q43 17 43 68q0 21 -15 66l-12 35l-96 224h-536l-94 -239q-17 -43 -17 -78q0 -56 54 -75q19 -7 46 -10q10 -1 21 -1h19v-39h-406v39q66 4 104 45q31 33 78 131l39 84q8 17 17 40l8 18q1 2 4 9l430 1014h41l510 -1163q48 -110 83 -143
q32 -30 101 -35v-39zM915 526l-238 564l-235 -564h473zM573 -178q29 37 75 37q102 0 102 -102q0 -103 -102 -103q-48 0 -75 36q-23 30 -23 67q0 35 23 65zM1023 1790q-1 -9 -1 -14l-2 -18q-3 -23 -8 -45q-14 -61 -39 -108q-34 -61 -87 -95q-65 -42 -156 -42q-120 0 -198 77
q-87 87 -84 245h59q33 -199 228 -199q103 0 158 61q22 25 41 64q7 15 15 36l15 38h59z" />
    <glyph glyph-name="Egrave" unicode="&#xc8;" horiz-adv-x="1251" 
d="M1130 0h-1106v39q105 7 138 36q40 36 40 148v910q0 113 -41 149q-31 26 -137 35v39h1087l7 -293h-52q-22 136 -81 176q-58 39 -230 39h-276q-68 0 -68 -70v-454h315q130 0 173 42q35 35 53 152h47v-475h-47q-19 123 -58 158q-41 36 -168 39h-315v-506q0 -64 38 -75
q40 -11 267 -11q192 0 287 56q94 57 162 212h57zM698 1473l-316 198q-11 7 -19 15l-20 19q-20 26 -20 54l1 12q3 12 8 22q17 30 57 30q38 0 90 -47l301 -303h-82z" />
    <glyph glyph-name="Eacute" unicode="&#xc9;" horiz-adv-x="1251" 
d="M1130 0h-1106v39q105 7 138 36q40 36 40 148v910q0 113 -41 149q-31 26 -137 35v39h1087l7 -293h-52q-22 136 -81 176q-58 39 -230 39h-276q-68 0 -68 -70v-454h315q130 0 173 42q35 35 53 152h47v-475h-47q-19 123 -58 158q-41 36 -168 39h-315v-506q0 -64 38 -75
q40 -11 267 -11q192 0 287 56q94 57 162 212h57zM475 1473l301 303q32 32 52 41l18 5l20 1q41 0 58 -30q6 -10 8 -22q1 -7 1 -14q0 -31 -23 -56q-8 -9 -20 -18l-334 -210h-81z" />
    <glyph glyph-name="uni1EBA" unicode="&#x1eba;" horiz-adv-x="1251" 
d="M1130 0h-1106v39q105 7 138 36q40 36 40 148v910q0 113 -41 149q-31 26 -137 35v39h1087l7 -293h-52q-22 136 -81 176q-58 39 -230 39h-276q-68 0 -68 -70v-454h315q130 0 173 42q35 35 53 152h47v-475h-47q-19 124 -58 158q-41 35 -168 37l-315 4v-508q0 -64 38 -75
q40 -11 267 -11q192 0 287 56q94 57 162 212h57zM613 1444q0 41 11 83l9 27q3 9 6 14l24 51q31 63 31 115q0 38 -18 61q-23 27 -56 27q-21 0 -43 -12q-17 -10 -17 -24q0 -6 2 -9q4 -5 6 -8l12 -13q4 -4 5 -6q8 -13 8 -23q0 -44 -54 -44q-63 0 -63 61q0 58 56 95
q44 29 104 29q97 0 144 -52q33 -37 33 -89q0 -29 -25 -71q-17 -30 -41 -56q-38 -40 -54 -69q-17 -30 -28 -87h-52z" />
    <glyph glyph-name="uni1EBC" unicode="&#x1ebc;" horiz-adv-x="1251" 
d="M1130 0h-1106v39q105 7 138 36q40 36 40 148v910q0 113 -41 149q-31 26 -137 35v39h1087l7 -293h-52q-22 136 -81 176q-58 39 -230 39h-276q-68 0 -68 -70v-454h315q130 0 173 42q35 35 53 152h47v-475h-47q-19 124 -58 158q-41 35 -168 37l-315 4v-508q0 -64 38 -75
q40 -11 267 -11q192 0 287 56q94 57 162 212h57zM1007 1741l-1 -4l-18 -59q-15 -42 -36 -72q-57 -82 -160 -82q-43 0 -85 14l-39 15l-89 42q-45 23 -76 23q-51 0 -81 -34q-11 -13 -20 -31q-3 -7 -7 -15q-2 -6 -5 -14h-59q15 82 62 137q60 70 153 70q64 0 135 -37l49 -25
l22 -10l25 -10q31 -11 51 -11q76 0 119 103h60z" />
    <glyph glyph-name="uni1EB8" unicode="&#x1eb8;" horiz-adv-x="1251" 
d="M1130 0h-1106v39q105 7 138 36q40 36 40 148v910q0 113 -41 149q-31 26 -137 35v39h1087l7 -293h-52q-22 136 -81 176q-58 39 -230 39h-276q-68 0 -68 -70v-454h315q130 0 173 42q35 35 53 152h47v-475h-47q-19 124 -58 158q-41 35 -168 37l-315 4v-508q0 -64 38 -75
q40 -11 267 -11q192 0 287 56q94 57 162 212h57zM573 -178q29 37 75 37q102 0 102 -102q0 -103 -102 -103q-48 0 -75 36q-23 30 -23 67q0 35 23 65z" />
    <glyph glyph-name="Ecircumflex" unicode="&#xca;" horiz-adv-x="1251" 
d="M1130 0h-1106v39q105 7 138 36q40 36 40 148v910q0 113 -41 149q-31 26 -137 35v39h1087l7 -293h-52q-22 136 -81 176q-58 39 -230 39h-276q-68 0 -68 -70v-454h315q130 0 173 42q35 35 53 152h47v-475h-47q-19 123 -58 158q-41 36 -168 39h-315v-506q0 -64 38 -75
q40 -11 267 -11q192 0 287 56q94 57 162 212h57zM874 1473l-250 210l-248 -210h-69l254 342h127l256 -342h-70z" />
    <glyph glyph-name="uni1EC0" unicode="&#x1ec0;" horiz-adv-x="1251" 
d="M1130 0h-1106v39q105 7 138 36q40 36 40 148v910q0 113 -41 149q-31 26 -137 35v39h1087l7 -293h-52q-22 136 -81 176q-58 39 -230 39h-276q-68 0 -68 -70v-454h315q130 0 173 42q35 35 53 152h47v-475h-47q-19 123 -58 158q-41 36 -168 39h-315v-506q0 -64 38 -75
q40 -11 267 -11q192 0 287 56q94 57 162 212h57zM864 1744l-316 198q-11 7 -19 15l-20 19q-20 26 -20 54l1 12q3 12 8 22q17 30 57 30q38 0 90 -47l301 -303h-82zM874 1473l-250 210l-248 -210h-69l254 342h127l256 -342h-70z" />
    <glyph glyph-name="uni1EBE" unicode="&#x1ebe;" horiz-adv-x="1251" 
d="M1130 0h-1106v39q105 7 138 36q40 36 40 148v910q0 113 -41 149q-31 26 -137 35v39h1087l7 -293h-52q-22 136 -81 176q-58 39 -230 39h-276q-68 0 -68 -70v-454h315q130 0 173 42q35 35 53 152h47v-475h-47q-19 123 -58 158q-41 36 -168 39h-315v-506q0 -64 38 -75
q40 -11 267 -11q192 0 287 56q94 57 162 212h57zM798 1735l301 303q32 32 52 41l18 5l20 1q41 0 58 -30q6 -10 8 -22q1 -7 1 -14q0 -31 -23 -56q-8 -9 -20 -18l-334 -210h-81zM874 1473l-250 210l-248 -210h-69l254 342h127l256 -342h-70z" />
    <glyph glyph-name="uni1EC2" unicode="&#x1ec2;" horiz-adv-x="1251" 
d="M1130 0h-1106v39q105 7 138 36q40 36 40 148v910q0 113 -41 149q-31 26 -137 35v39h1087l7 -293h-52q-22 136 -81 176q-58 39 -230 39h-276q-68 0 -68 -70v-454h315q130 0 173 42q35 35 53 152h47v-475h-47q-19 124 -58 158q-41 35 -168 37l-315 4v-508q0 -64 38 -75
q40 -11 267 -11q192 0 287 56q94 57 162 212h57zM840 1680q0 41 11 83l9 27q3 9 6 14l24 51q31 63 31 115q0 38 -18 61q-23 27 -56 27q-21 0 -43 -12q-17 -10 -17 -24q0 -6 2 -9q4 -5 6 -8l12 -13q4 -4 5 -6q8 -13 8 -23q0 -44 -54 -44q-63 0 -63 61q0 58 56 95
q44 29 104 29q97 0 144 -52q33 -37 33 -89q0 -29 -25 -71q-17 -30 -41 -56q-38 -40 -54 -69q-17 -30 -28 -87h-52zM874 1473l-250 210l-248 -210h-69l254 342h127l256 -342h-70z" />
    <glyph glyph-name="uni1EC4" unicode="&#x1ec4;" horiz-adv-x="1251" 
d="M1130 0h-1106v39q105 7 138 36q40 36 40 148v910q0 113 -41 149q-31 26 -137 35v39h1087l7 -293h-52q-22 136 -81 176q-58 39 -230 39h-276q-68 0 -68 -70v-454h315q130 0 173 42q35 35 53 152h47v-475h-47q-19 124 -58 158q-41 35 -168 37l-315 4v-508q0 -64 38 -75
q40 -11 267 -11q192 0 287 56q94 57 162 212h57zM1051 2082l-1 -4l-18 -59q-15 -42 -36 -72q-57 -82 -160 -82q-43 0 -85 14l-39 15l-89 42q-45 23 -76 23q-51 0 -81 -34q-11 -13 -20 -31q-3 -7 -7 -15q-2 -6 -5 -14h-59q15 82 62 137q60 70 153 70q64 0 135 -37l49 -25
l22 -10l25 -10q31 -11 51 -11q76 0 119 103h60zM874 1473l-250 210l-248 -210h-69l254 342h127l256 -342h-70z" />
    <glyph glyph-name="uni1EC6" unicode="&#x1ec6;" horiz-adv-x="1251" 
d="M1130 0h-1106v39q105 7 138 36q40 36 40 148v910q0 113 -41 149q-31 26 -137 35v39h1087l7 -293h-52q-22 136 -81 176q-58 39 -230 39h-276q-68 0 -68 -70v-454h315q130 0 173 42q35 35 53 152h47v-475h-47q-19 124 -58 158q-41 35 -168 37l-315 4v-508q0 -64 38 -75
q40 -11 267 -11q192 0 287 56q94 57 162 212h57zM573 -178q29 37 75 37q102 0 102 -102q0 -103 -102 -103q-48 0 -75 36q-23 30 -23 67q0 35 23 65zM874 1473l-250 210l-248 -210h-69l254 342h127l256 -342h-70z" />
    <glyph glyph-name="Igrave" unicode="&#xcc;" horiz-adv-x="681" 
d="M36 39q128 3 165 39q34 34 34 145v910q0 113 -36 145q-35 33 -163 39v39h608v-39q-121 -5 -156 -33q-44 -35 -44 -151v-910q0 -115 43 -150q37 -31 157 -34v-39h-608v39zM413 1473l-316 198q-11 7 -19 15l-19 19q-21 26 -21 54l1 12q3 12 8 22q17 30 57 30q38 0 90 -47
l301 -303h-82z" />
    <glyph glyph-name="Iacute" unicode="&#xcd;" horiz-adv-x="681" 
d="M36 39q128 3 165 39q34 34 34 145v910q0 113 -36 145q-35 33 -163 39v39h608v-39q-121 -5 -156 -33q-44 -35 -44 -151v-910q0 -115 43 -150q37 -31 157 -34v-39h-608v39zM190 1473l301 303q32 32 52 41l18 5l20 1q41 0 58 -30q6 -10 8 -22q1 -7 1 -14q0 -31 -23 -56
q-8 -9 -20 -18l-333 -210h-82z" />
    <glyph glyph-name="uni1EC8" unicode="&#x1ec8;" horiz-adv-x="681" 
d="M36 39q128 3 165 39q34 34 34 145v910q0 113 -36 145q-35 33 -163 39v39h608v-39q-121 -5 -156 -33q-44 -35 -44 -151v-910q0 -115 43 -150q37 -31 157 -34v-39h-608v39zM323 1444q0 41 12 83q3 12 9 27q3 9 6 14l24 51q31 63 31 115q0 38 -19 61q-22 27 -55 27
q-21 0 -43 -12q-17 -10 -17 -24q0 -6 2 -9q3 -5 6 -8l12 -13q4 -4 5 -6q7 -13 7 -23q0 -44 -53 -44q-63 0 -63 61q0 58 56 95q43 29 104 29q97 0 144 -52q33 -37 33 -89q0 -29 -25 -71q-17 -30 -42 -56q-37 -40 -54 -69q-17 -30 -27 -87h-53z" />
    <glyph glyph-name="Itilde" unicode="&#x128;" horiz-adv-x="681" 
d="M36 39q128 3 165 39q34 34 34 145v910q0 113 -36 145q-35 33 -163 39v39h608v-39q-121 -5 -156 -33q-44 -35 -44 -151v-910q0 -115 43 -150q37 -31 157 -34v-39h-608v39zM718 1741v-4l-19 -59q-15 -42 -35 -72q-57 -82 -161 -82q-43 0 -84 14l-39 15l-90 42
q-45 23 -75 23q-51 0 -81 -34q-12 -13 -20 -31q-4 -7 -7 -15q-2 -6 -5 -14h-59q14 82 62 137q59 70 153 70q64 0 135 -37l49 -25q10 -5 21 -10l26 -10q31 -11 51 -11q75 0 119 103h59z" />
    <glyph glyph-name="uni1ECA" unicode="&#x1eca;" horiz-adv-x="681" 
d="M36 39q128 3 165 39q34 34 34 145v910q0 113 -36 145q-35 33 -163 39v39h608v-39q-121 -5 -156 -33q-44 -35 -44 -151v-910q0 -115 43 -150q37 -31 157 -34v-39h-608v39zM264 -178q28 37 74 37q102 0 102 -102q0 -103 -102 -103q-47 0 -75 36q-23 30 -23 67q0 35 24 65z
" />
    <glyph glyph-name="Ograve" unicode="&#xd2;" 
d="M265 160q-196 197 -196 516q0 170 57 309q54 129 152 222q188 177 461 177q272 0 460 -177q99 -93 152 -222q57 -139 57 -309q0 -319 -195 -516q-188 -189 -474 -189t-474 189zM1042 193q133 167 133 485q0 168 -39 296q-35 116 -101 195q-117 142 -296 142t-297 -142
q-65 -79 -101 -195q-39 -128 -39 -296q0 -318 133 -485q117 -148 304 -148q186 0 303 148zM812 1473l-315 198q-11 7 -20 15l-19 19q-20 26 -20 54l1 12q2 12 8 22q16 30 56 30q39 0 90 -47l301 -303h-82z" />
    <glyph glyph-name="Oacute" unicode="&#xd3;" 
d="M265 160q-196 197 -196 516q0 170 57 309q54 129 152 222q188 177 461 177q272 0 460 -177q99 -93 152 -222q57 -139 57 -309q0 -319 -195 -516q-188 -189 -474 -189t-474 189zM1042 193q133 167 133 485q0 168 -39 296q-35 116 -101 195q-117 142 -296 142t-297 -142
q-65 -79 -101 -195q-39 -128 -39 -296q0 -318 133 -485q117 -148 304 -148q186 0 303 148zM589 1473l301 303q33 32 52 41l19 5l19 1q42 0 59 -30q5 -10 8 -22q1 -7 1 -14q0 -31 -23 -56q-9 -9 -20 -18l-334 -210h-82z" />
    <glyph glyph-name="uni1ECE" unicode="&#x1ece;" 
d="M265 160q-196 197 -196 516q0 170 57 309q54 129 152 222q188 177 461 177q272 0 460 -177q99 -93 152 -222q57 -139 57 -309q0 -319 -195 -516q-188 -189 -474 -189t-474 189zM1042 193q133 167 133 485q0 168 -39 296q-35 116 -101 195q-117 142 -296 142t-297 -142
q-65 -79 -101 -195q-39 -128 -39 -296q0 -318 133 -485q117 -148 304 -148q186 0 303 148zM682 1444q0 41 11 83l9 27q3 9 6 14l24 51q31 63 31 115q0 38 -18 61q-23 27 -56 27q-21 0 -43 -12q-17 -10 -17 -24q0 -6 2 -9q4 -5 6 -8l12 -13q4 -4 5 -6q8 -13 8 -23
q0 -44 -54 -44q-63 0 -63 61q0 58 56 95q44 29 104 29q97 0 144 -52q33 -37 33 -89q0 -29 -25 -71q-17 -30 -42 -56q-37 -40 -53 -69q-17 -30 -28 -87h-52z" />
    <glyph glyph-name="Otilde" unicode="&#xd5;" 
d="M265 160q-196 197 -196 516q0 170 57 309q54 129 152 222q188 177 461 177q272 0 460 -177q99 -93 152 -222q57 -139 57 -309q0 -319 -195 -516q-188 -189 -474 -189t-474 189zM1042 193q133 167 133 485q0 168 -39 296q-35 116 -101 195q-117 142 -296 142t-297 -142
q-65 -79 -101 -195q-39 -128 -39 -296q0 -318 133 -485q117 -148 304 -148q186 0 303 148zM1077 1741l-1 -4l-18 -59q-15 -42 -36 -72q-57 -82 -160 -82q-43 0 -85 14l-39 15l-89 42q-45 23 -76 23q-51 0 -81 -34q-11 -13 -20 -31q-3 -7 -7 -15q-2 -6 -5 -14h-59
q15 82 62 137q59 70 153 70q64 0 135 -37l49 -25l22 -10l25 -10q31 -11 51 -11q76 0 119 103h60z" />
    <glyph glyph-name="uni1ECC" unicode="&#x1ecc;" 
d="M265 160q-196 197 -196 516q0 170 57 309q54 129 152 222q188 177 461 177q272 0 460 -177q99 -93 152 -222q57 -139 57 -309q0 -319 -195 -516q-188 -189 -474 -189t-474 189zM1042 193q133 167 133 485q0 168 -39 296q-35 116 -101 195q-117 142 -296 142t-297 -142
q-65 -79 -101 -195q-39 -128 -39 -296q0 -318 133 -485q117 -148 304 -148q186 0 303 148zM662 -178q29 37 75 37q102 0 102 -102q0 -103 -102 -103q-48 0 -76 36q-23 30 -23 67q0 35 24 65z" />
    <glyph glyph-name="Ocircumflex" unicode="&#xd4;" 
d="M265 160q-196 197 -196 516q0 170 57 309q54 129 152 222q188 177 461 177q272 0 460 -177q99 -93 152 -222q57 -139 57 -309q0 -319 -195 -516q-188 -189 -474 -189t-474 189zM1042 193q133 167 133 485q0 168 -39 296q-35 116 -101 195q-117 142 -296 142t-297 -142
q-65 -79 -101 -195q-39 -128 -39 -296q0 -318 133 -485q117 -148 304 -148q186 0 303 148zM989 1473l-250 210l-248 -210h-70l254 342h127l256 -342h-69z" />
    <glyph glyph-name="uni1ED2" unicode="&#x1ed2;" 
d="M265 160q-196 197 -196 516q0 170 57 309q54 129 152 222q188 177 461 177q272 0 460 -177q99 -93 152 -222q57 -139 57 -309q0 -319 -195 -516q-188 -189 -474 -189t-474 189zM1042 193q133 167 133 485q0 168 -39 296q-35 116 -101 195q-117 142 -296 142t-297 -142
q-65 -79 -101 -195q-39 -128 -39 -296q0 -318 133 -485q117 -148 304 -148q186 0 303 148zM985 1753l-315 198q-11 7 -20 15l-19 19q-20 26 -20 54l1 12q2 12 8 22q16 30 56 30q39 0 90 -47l301 -303h-82zM989 1473l-250 210l-248 -210h-70l254 342h127l256 -342h-69z" />
    <glyph glyph-name="uni1ED0" unicode="&#x1ed0;" 
d="M265 160q-196 197 -196 516q0 170 57 309q54 129 152 222q188 177 461 177q272 0 460 -177q99 -93 152 -222q57 -139 57 -309q0 -319 -195 -516q-188 -189 -474 -189t-474 189zM1042 193q133 167 133 485q0 168 -39 296q-35 116 -101 195q-117 142 -296 142t-297 -142
q-65 -79 -101 -195q-39 -128 -39 -296q0 -318 133 -485q117 -148 304 -148q186 0 303 148zM922 1726l301 303q33 32 52 41l19 5l19 1q42 0 59 -30q5 -10 8 -22q1 -7 1 -14q0 -31 -23 -56q-9 -9 -20 -18l-334 -210h-82zM989 1473l-250 210l-248 -210h-70l254 342h127
l256 -342h-69z" />
    <glyph glyph-name="uni1ED4" unicode="&#x1ed4;" 
d="M265 160q-196 197 -196 516q0 170 57 309q54 129 152 222q188 177 461 177q272 0 460 -177q99 -93 152 -222q57 -139 57 -309q0 -319 -195 -516q-188 -189 -474 -189t-474 189zM1042 193q133 167 133 485q0 168 -39 296q-35 116 -101 195q-117 142 -296 142t-297 -142
q-65 -79 -101 -195q-39 -128 -39 -296q0 -318 133 -485q117 -148 304 -148q186 0 303 148zM976 1674q0 41 11 83l9 27q3 9 6 14l24 51q31 63 31 115q0 38 -18 61q-23 27 -56 27q-21 0 -43 -12q-17 -10 -17 -24q0 -6 2 -9q4 -5 6 -8l12 -13q4 -4 5 -6q8 -13 8 -23
q0 -44 -54 -44q-63 0 -63 61q0 58 56 95q44 29 104 29q97 0 144 -52q33 -37 33 -89q0 -29 -25 -71q-17 -30 -42 -56q-37 -40 -53 -69q-17 -30 -28 -87h-52zM989 1473l-250 210l-248 -210h-70l254 342h127l256 -342h-69z" />
    <glyph glyph-name="uni1ED6" unicode="&#x1ed6;" 
d="M265 160q-196 197 -196 516q0 170 57 309q54 129 152 222q188 177 461 177q272 0 460 -177q99 -93 152 -222q57 -139 57 -309q0 -319 -195 -516q-188 -189 -474 -189t-474 189zM1042 193q133 167 133 485q0 168 -39 296q-35 116 -101 195q-117 142 -296 142t-297 -142
q-65 -79 -101 -195q-39 -128 -39 -296q0 -318 133 -485q117 -148 304 -148q186 0 303 148zM1147 2064l-1 -4l-18 -59q-15 -42 -36 -72q-57 -82 -160 -82q-43 0 -85 14l-39 15l-89 42q-45 23 -76 23q-51 0 -81 -34q-11 -13 -20 -31q-3 -7 -7 -15q-2 -6 -5 -14h-59
q15 82 62 137q59 70 153 70q64 0 135 -37l49 -25l22 -10l25 -10q31 -11 51 -11q76 0 119 103h60zM989 1473l-250 210l-248 -210h-70l254 342h127l256 -342h-69z" />
    <glyph glyph-name="uni1ED8" unicode="&#x1ed8;" 
d="M265 160q-196 197 -196 516q0 170 57 309q54 129 152 222q188 177 461 177q272 0 460 -177q99 -93 152 -222q57 -139 57 -309q0 -319 -195 -516q-188 -189 -474 -189t-474 189zM1042 193q133 167 133 485q0 168 -39 296q-35 116 -101 195q-117 142 -296 142t-297 -142
q-65 -79 -101 -195q-39 -128 -39 -296q0 -318 133 -485q117 -148 304 -148q186 0 303 148zM662 -178q29 37 75 37q102 0 102 -102q0 -103 -102 -103q-48 0 -76 36q-23 30 -23 67q0 35 24 65zM989 1473l-250 210l-248 -210h-70l254 342h127l256 -342h-69z" />
    <glyph glyph-name="Ugrave" unicode="&#xd9;" 
d="M1443 1317q-121 -13 -155 -57q-37 -48 -37 -205v-568q-1 -20 -1 -37q-2 -46 -8 -85q-14 -104 -58 -181q-55 -97 -157 -150q-121 -63 -307 -63q-177 0 -293 65q-98 53 -151 150q-41 75 -56 174q-5 36 -7 76l-1 697q0 112 -33 145q-33 31 -151 39v39h580v-39
q-121 -9 -154 -42t-33 -142l1 -711q1 -35 5 -65q10 -79 39 -137q37 -73 106 -112q81 -47 206 -47q236 0 335 162q23 39 34 94q14 70 14 185v553q0 158 -43 210q-37 45 -150 52v39h475v-39zM812 1473l-315 198q-11 7 -20 15l-19 19q-20 26 -20 54l1 12q2 12 8 22q16 30 56 30
q39 0 90 -47l301 -303h-82z" />
    <glyph glyph-name="Uacute" unicode="&#xda;" 
d="M1443 1317q-121 -13 -155 -57q-37 -48 -37 -205v-568q-1 -20 -1 -37q-2 -46 -8 -85q-14 -104 -58 -181q-55 -97 -157 -150q-121 -63 -307 -63q-177 0 -293 65q-98 53 -151 150q-41 75 -56 174q-5 36 -7 76l-1 697q0 112 -33 145q-33 31 -151 39v39h580v-39
q-121 -9 -154 -42t-33 -142l1 -711q1 -35 5 -65q10 -79 39 -137q37 -73 106 -112q81 -47 206 -47q236 0 335 162q23 39 34 94q14 70 14 185v553q0 158 -43 210q-37 45 -150 52v39h475v-39zM753 1473l301 303q32 32 52 41l19 5l19 1q42 0 59 -30q5 -10 7 -22q2 -7 2 -14
q0 -31 -23 -56q-9 -9 -20 -18l-334 -210h-82z" />
    <glyph glyph-name="uni1EE6" unicode="&#x1ee6;" 
d="M1443 1317q-121 -13 -155 -57q-37 -48 -37 -205v-568q-1 -20 -1 -37q-2 -46 -8 -85q-14 -104 -58 -181q-55 -97 -157 -150q-121 -63 -307 -63q-177 0 -293 65q-98 53 -151 150q-41 75 -56 174q-5 36 -7 76l-1 697q0 112 -33 145q-33 31 -151 39v39h580v-39
q-121 -9 -154 -42t-33 -142l1 -711q1 -35 5 -65q10 -79 39 -137q37 -73 106 -112q81 -47 206 -47q236 0 335 162q23 39 34 94q14 70 14 185v553q0 158 -43 210q-37 45 -150 52v39h475v-39zM752 1444q0 41 11 83l9 27q3 9 6 14l24 51q31 63 31 115q0 38 -18 61q-23 27 -56 27
q-21 0 -43 -12q-17 -10 -17 -24q0 -6 2 -9q3 -5 6 -8l12 -13q4 -4 5 -6q8 -13 8 -23q0 -44 -54 -44q-63 0 -63 61q0 58 56 95q44 29 104 29q97 0 144 -52q33 -37 33 -89q0 -29 -25 -71q-17 -30 -42 -56q-37 -40 -54 -69q-16 -30 -27 -87h-52z" />
    <glyph glyph-name="Utilde" unicode="&#x168;" 
d="M1443 1317q-121 -13 -155 -57q-37 -48 -37 -205v-568q-1 -20 -1 -37q-2 -46 -8 -85q-14 -104 -58 -181q-55 -97 -157 -150q-121 -63 -307 -63q-177 0 -293 65q-98 53 -151 150q-41 75 -56 174q-5 36 -7 76l-1 697q0 112 -33 145q-33 31 -151 39v39h580v-39
q-121 -9 -154 -42t-33 -142l1 -711q1 -35 5 -65q10 -79 39 -137q37 -73 106 -112q81 -47 206 -47q236 0 335 162q23 39 34 94q14 70 14 185v553q0 158 -43 210q-37 45 -150 52v39h475v-39zM1120 1741l-1 -4l-18 -59q-15 -42 -36 -72q-57 -82 -160 -82q-43 0 -85 14l-39 15
l-89 42q-46 23 -76 23q-51 0 -81 -34q-11 -13 -20 -31q-3 -7 -7 -15q-2 -6 -5 -14h-59q15 82 62 137q59 70 153 70q64 0 135 -37l49 -25l22 -10l25 -10q31 -11 51 -11q76 0 119 103h60z" />
    <glyph glyph-name="uni1EE4" unicode="&#x1ee4;" 
d="M1443 1317q-121 -13 -155 -57q-37 -48 -37 -205v-568q-1 -20 -1 -37q-2 -46 -8 -85q-14 -104 -58 -181q-55 -97 -157 -150q-121 -63 -307 -63q-177 0 -293 65q-98 53 -151 150q-41 75 -56 174q-5 36 -7 76l-1 697q0 112 -33 145q-33 31 -151 39v39h580v-39
q-121 -9 -154 -42t-33 -142l1 -711q1 -35 5 -65q10 -79 39 -137q37 -73 106 -112q81 -47 206 -47q236 0 335 162q23 39 34 94q14 70 14 185v553q0 158 -43 210q-37 45 -150 52v39h475v-39zM686 -178q29 37 75 37q102 0 102 -102q0 -103 -102 -103q-48 0 -75 36
q-23 30 -23 67q0 35 23 65z" />
    <glyph glyph-name="Uhorn" unicode="&#x1af;" 
d="M1253 1142v-6q-3 -36 -3 -81v-568q0 -20 -1 -37q-1 -46 -7 -85q-15 -104 -58 -181q-55 -97 -157 -150q-121 -63 -307 -63q-177 0 -294 65q-97 53 -151 150q-41 75 -55 174q-5 36 -7 76l-1 697q0 112 -34 145q-32 31 -150 39v39h579v-39q-121 -9 -154 -42
q-32 -33 -32 -142l1 -711q1 -35 4 -65q10 -79 39 -137q37 -73 106 -112q81 -47 206 -47q236 0 336 162q23 39 34 94q13 70 13 185v553q0 158 -42 210q-37 45 -150 52v39h285v-150q41 36 67 76q34 52 34 91q0 29 -29 29l-18 -4q-13 -4 -31 -4q-127 0 -127 102q0 72 52 102
q18 10 40 14l29 3q9 0 19 -1q12 -2 24 -6q31 -8 55 -27q66 -51 66 -163q0 -96 -90 -195q-47 -52 -91 -81z" />
    <glyph glyph-name="uni1EEA" unicode="&#x1eea;" 
d="M812 1473l-315 198q-11 7 -20 15l-19 19q-21 26 -21 54l2 12q2 12 7 22q17 30 57 30q39 0 90 -47l301 -303h-82zM1253 1142v-6q-3 -36 -3 -81v-568q0 -20 -1 -37q-1 -46 -7 -85q-15 -104 -58 -181q-55 -97 -157 -150q-121 -63 -307 -63q-177 0 -294 65q-97 53 -151 150
q-41 75 -55 174q-5 36 -7 76l-1 697q0 112 -34 145q-32 31 -150 39v39h579v-39q-121 -9 -154 -42q-32 -33 -32 -142l1 -711q1 -35 4 -65q10 -79 39 -137q37 -73 106 -112q81 -47 206 -47q236 0 336 162q23 39 34 94q13 70 13 185v553q0 158 -42 210q-37 45 -150 52v39h285
v-150q41 36 67 76q34 52 34 91q0 29 -29 29l-18 -4q-13 -4 -31 -4q-127 0 -127 102q0 72 52 102q18 10 40 14l29 3q9 0 19 -1q12 -2 24 -6q31 -8 55 -27q66 -51 66 -163q0 -96 -90 -195q-47 -52 -91 -81z" />
    <glyph glyph-name="uni1EE8" unicode="&#x1ee8;" 
d="M753 1473l301 303q32 32 52 41l18 5l20 1q41 0 58 -30q6 -10 8 -22q1 -7 1 -14q0 -31 -23 -56q-8 -9 -20 -18l-333 -210h-82zM1253 1142v-6q-3 -36 -3 -81v-568q0 -20 -1 -37q-1 -46 -7 -85q-15 -104 -58 -181q-55 -97 -157 -150q-121 -63 -307 -63q-177 0 -294 65
q-97 53 -151 150q-41 75 -55 174q-5 36 -7 76l-1 697q0 112 -34 145q-32 31 -150 39v39h579v-39q-121 -9 -154 -42q-32 -33 -32 -142l1 -711q1 -35 4 -65q10 -79 39 -137q37 -73 106 -112q81 -47 206 -47q236 0 336 162q23 39 34 94q13 70 13 185v553q0 158 -42 210
q-37 45 -150 52v39h285v-150q41 36 67 76q34 52 34 91q0 29 -29 29l-18 -4q-13 -4 -31 -4q-127 0 -127 102q0 72 52 102q18 10 40 14l29 3q9 0 19 -1q12 -2 24 -6q31 -8 55 -27q66 -51 66 -163q0 -96 -90 -195q-47 -52 -91 -81z" />
    <glyph glyph-name="uni1EEC" unicode="&#x1eec;" 
d="M751 1444q0 41 12 83q3 12 9 27q3 9 6 14l24 51q31 63 31 115q0 38 -19 61q-22 27 -56 27q-20 0 -42 -12q-17 -10 -17 -24q0 -6 2 -9q3 -5 6 -8l12 -13q4 -4 5 -6q7 -13 7 -23q0 -44 -53 -44q-63 0 -63 61q0 58 56 95q43 29 104 29q96 0 144 -52q33 -37 33 -89
q0 -29 -25 -71q-17 -30 -42 -56q-37 -40 -54 -69q-17 -30 -27 -87h-53zM1253 1142v-6q-3 -36 -3 -81v-568q0 -20 -1 -37q-1 -46 -7 -85q-15 -104 -58 -181q-55 -97 -157 -150q-121 -63 -307 -63q-177 0 -294 65q-97 53 -151 150q-41 75 -55 174q-5 36 -7 76l-1 697
q0 112 -34 145q-32 31 -150 39v39h579v-39q-121 -9 -154 -42q-32 -33 -32 -142l1 -711q1 -35 4 -65q10 -79 39 -137q37 -73 106 -112q81 -47 206 -47q236 0 336 162q23 39 34 94q13 70 13 185v553q0 158 -42 210q-37 45 -150 52v39h285v-150q41 36 67 76q34 52 34 91
q0 29 -29 29l-18 -4q-13 -4 -31 -4q-127 0 -127 102q0 72 52 102q18 10 40 14l29 3q9 0 19 -1q12 -2 24 -6q31 -8 55 -27q66 -51 66 -163q0 -96 -90 -195q-47 -52 -91 -81z" />
    <glyph glyph-name="uni1EEE" unicode="&#x1eee;" 
d="M1119 1741l-1 -4l-18 -59q-15 -42 -35 -72q-57 -82 -161 -82q-43 0 -84 14l-40 15l-89 42q-45 23 -76 23q-50 0 -80 -34q-12 -13 -20 -31q-4 -7 -7 -15q-2 -6 -5 -14h-60q15 82 63 137q59 70 152 70q65 0 136 -37l49 -25q10 -5 21 -10l26 -10q31 -11 51 -11q75 0 119 103
h59zM1253 1142v-6q-3 -36 -3 -81v-568q0 -20 -1 -37q-1 -46 -7 -85q-15 -104 -58 -181q-55 -97 -157 -150q-121 -63 -307 -63q-177 0 -294 65q-97 53 -151 150q-41 75 -55 174q-5 36 -7 76l-1 697q0 112 -34 145q-32 31 -150 39v39h579v-39q-121 -9 -154 -42
q-32 -33 -32 -142l1 -711q1 -35 4 -65q10 -79 39 -137q37 -73 106 -112q81 -47 206 -47q236 0 336 162q23 39 34 94q13 70 13 185v553q0 158 -42 210q-37 45 -150 52v39h285v-150q41 36 67 76q34 52 34 91q0 29 -29 29l-18 -4q-13 -4 -31 -4q-127 0 -127 102q0 72 52 102
q18 10 40 14l29 3q9 0 19 -1q12 -2 24 -6q31 -8 55 -27q66 -51 66 -163q0 -96 -90 -195q-47 -52 -91 -81z" />
    <glyph glyph-name="uni1EF0" unicode="&#x1ef0;" 
d="M686 -178q29 37 75 37q102 0 102 -102q0 -103 -102 -103q-48 0 -76 36q-23 30 -23 67q0 35 24 65zM1253 1142v-6q-3 -36 -3 -81v-568q0 -20 -1 -37q-1 -46 -7 -85q-15 -104 -58 -181q-55 -97 -157 -150q-121 -63 -307 -63q-177 0 -294 65q-97 53 -151 150q-41 75 -55 174
q-5 36 -7 76l-1 697q0 112 -34 145q-32 31 -150 39v39h579v-39q-121 -9 -154 -42q-32 -33 -32 -142l1 -711q1 -35 4 -65q10 -79 39 -137q37 -73 106 -112q81 -47 206 -47q236 0 336 162q23 39 34 94q13 70 13 185v553q0 158 -42 210q-37 45 -150 52v39h285v-150q41 36 67 76
q34 52 34 91q0 29 -29 29l-18 -4q-13 -4 -31 -4q-127 0 -127 102q0 72 52 102q18 10 40 14l29 3q9 0 19 -1q12 -2 24 -6q31 -8 55 -27q66 -51 66 -163q0 -96 -90 -195q-47 -52 -91 -81z" />
    <glyph glyph-name="Ohorn" unicode="&#x1a0;" 
d="M265 160q-196 197 -196 516q0 170 57 309q54 129 152 222q188 177 461 177q272 0 460 -177q99 -93 152 -222q57 -139 57 -309q0 -319 -195 -516q-188 -189 -474 -189t-474 189zM1042 193q133 167 133 485q0 168 -39 296q-35 116 -101 195q-117 142 -296 142t-297 -142
q-65 -79 -101 -195q-39 -128 -39 -296q0 -318 133 -485q117 -148 304 -148q186 0 303 148zM1159 1156q90 57 135 126q33 52 33 91q0 29 -29 29l-18 -4q-12 -4 -31 -4q-127 0 -127 102q0 72 52 102q18 10 41 14l28 3q9 0 19 -1q13 -2 25 -6q30 -8 54 -27q66 -51 66 -163
q0 -96 -89 -195q-74 -82 -140 -106z" />
    <glyph glyph-name="uni1EDC" unicode="&#x1edc;" 
d="M1042 193q133 167 133 485q0 168 -39 296q-35 116 -101 195q-118 142 -297 142t-296 -142q-66 -79 -101 -195q-39 -128 -39 -296q0 -318 133 -485q117 -148 303 -148q187 0 304 148zM812 1473l-315 198q-11 7 -20 15l-19 19q-21 26 -21 54l2 12q2 12 7 22q17 30 57 30
q39 0 90 -47l301 -303h-82zM1247 1157q64 -76 104 -172q57 -139 57 -309q0 -319 -196 -516q-188 -189 -474 -189t-474 189q-195 197 -195 516q0 170 57 309q53 129 152 222q188 177 460 177q273 0 461 -177q7 -6 13 -13q51 41 81 88q34 52 34 91q0 29 -29 29l-18 -4
q-13 -4 -31 -4q-127 0 -127 102q0 72 52 102q18 10 40 14l29 3q9 0 19 -1q12 -2 24 -6q31 -8 55 -27q66 -51 66 -163q0 -96 -90 -195q-36 -40 -70 -66z" />
    <glyph glyph-name="uni1EDA" unicode="&#x1eda;" 
d="M1042 193q133 167 133 485q0 168 -39 296q-35 116 -101 195q-118 142 -297 142t-296 -142q-66 -79 -101 -195q-39 -128 -39 -296q0 -318 133 -485q117 -148 303 -148q187 0 304 148zM589 1473l301 303q32 32 52 41l18 5l20 1q42 0 58 -30q6 -10 8 -22q2 -7 2 -14
q0 -31 -23 -56q-9 -9 -21 -18l-333 -210h-82zM1247 1157q64 -76 104 -172q57 -139 57 -309q0 -319 -196 -516q-188 -189 -474 -189t-474 189q-195 197 -195 516q0 170 57 309q53 129 152 222q188 177 460 177q273 0 461 -177q7 -6 13 -13q51 41 81 88q34 52 34 91
q0 29 -29 29l-18 -4q-13 -4 -31 -4q-127 0 -127 102q0 72 52 102q18 10 40 14l29 3q9 0 19 -1q12 -2 24 -6q31 -8 55 -27q66 -51 66 -163q0 -96 -90 -195q-36 -40 -70 -66z" />
    <glyph glyph-name="uni1EDE" unicode="&#x1ede;" 
d="M1042 193q133 167 133 485q0 168 -39 296q-35 116 -101 195q-118 142 -297 142t-296 -142q-66 -79 -101 -195q-39 -128 -39 -296q0 -318 133 -485q117 -148 303 -148q187 0 304 148zM681 1444q0 41 12 83q3 12 9 27q3 9 6 14l24 51q31 63 31 115q0 38 -19 61
q-22 27 -56 27q-20 0 -42 -12q-17 -10 -17 -24q0 -6 2 -9q3 -5 6 -8l12 -13q4 -4 5 -6q7 -13 7 -23q0 -44 -53 -44q-63 0 -63 61q0 58 56 95q43 29 104 29q96 0 144 -52q33 -37 33 -89q0 -29 -25 -71q-17 -30 -42 -56q-37 -40 -54 -69q-17 -30 -27 -87h-53zM1247 1157
q64 -76 104 -172q57 -139 57 -309q0 -319 -196 -516q-188 -189 -474 -189t-474 189q-195 197 -195 516q0 170 57 309q53 129 152 222q188 177 460 177q273 0 461 -177q7 -6 13 -13q51 41 81 88q34 52 34 91q0 29 -29 29l-18 -4q-13 -4 -31 -4q-127 0 -127 102q0 72 52 102
q18 10 40 14l29 3q9 0 19 -1q12 -2 24 -6q31 -8 55 -27q66 -51 66 -163q0 -96 -90 -195q-36 -40 -70 -66z" />
    <glyph glyph-name="uni1EE0" unicode="&#x1ee0;" 
d="M1042 193q133 167 133 485q0 168 -39 296q-35 116 -101 195q-118 142 -297 142t-296 -142q-66 -79 -101 -195q-39 -128 -39 -296q0 -318 133 -485q117 -148 303 -148q187 0 304 148zM1076 1741l-1 -4l-18 -59q-15 -42 -35 -72q-57 -82 -161 -82q-43 0 -84 14l-40 15
l-89 42q-45 23 -76 23q-50 0 -80 -34q-12 -13 -20 -31q-4 -7 -7 -15q-2 -6 -5 -14h-60q15 82 63 137q59 70 152 70q65 0 136 -37l49 -25q10 -5 21 -10l26 -10q31 -11 51 -11q75 0 119 103h59zM1247 1157q64 -76 104 -172q57 -139 57 -309q0 -319 -196 -516
q-188 -189 -474 -189t-474 189q-195 197 -195 516q0 170 57 309q53 129 152 222q188 177 460 177q273 0 461 -177q7 -6 13 -13q51 41 81 88q34 52 34 91q0 29 -29 29l-18 -4q-13 -4 -31 -4q-127 0 -127 102q0 72 52 102q18 10 40 14l29 3q9 0 19 -1q12 -2 24 -6
q31 -8 55 -27q66 -51 66 -163q0 -96 -90 -195q-36 -40 -70 -66z" />
    <glyph glyph-name="uni1EE2" unicode="&#x1ee2;" 
d="M1042 193q133 167 133 485q0 168 -39 296q-35 116 -101 195q-118 142 -297 142t-296 -142q-66 -79 -101 -195q-39 -128 -39 -296q0 -318 133 -485q117 -148 303 -148q187 0 304 148zM662 -178q28 37 74 37q103 0 103 -102q0 -103 -103 -103q-47 0 -75 36q-23 30 -23 67
q0 35 24 65zM1247 1157q64 -76 104 -172q57 -139 57 -309q0 -319 -196 -516q-188 -189 -474 -189t-474 189q-195 197 -195 516q0 170 57 309q53 129 152 222q188 177 460 177q273 0 461 -177q7 -6 13 -13q51 41 81 88q34 52 34 91q0 29 -29 29l-18 -4q-13 -4 -31 -4
q-127 0 -127 102q0 72 52 102q18 10 40 14l29 3q9 0 19 -1q12 -2 24 -6q31 -8 55 -27q66 -51 66 -163q0 -96 -90 -195q-36 -40 -70 -66z" />
    <glyph glyph-name="Ygrave" unicode="&#x1ef2;" 
d="M1440 1317q-37 -4 -56 -10q-31 -8 -60 -29q-72 -49 -167 -195l-303 -462v-398q0 -113 36 -146q39 -37 175 -38v-39h-627v39q142 3 179 47q28 33 28 160v356l-268 393q-147 217 -210 273q-46 42 -122 49v39h573v-39q-145 -6 -145 -64q0 -37 35 -88l303 -454l313 498
q8 21 8 40q0 43 -46 58q-19 6 -46 8q-11 1 -25 2h-24v39h449v-39zM857 1473l-315 198q-11 7 -20 15l-19 19q-21 26 -21 54l2 12q2 12 7 22q17 30 57 30q39 0 90 -47l301 -303h-82z" />
    <glyph glyph-name="Yacute" unicode="&#xdd;" 
d="M1440 1317q-37 -4 -56 -10q-31 -8 -60 -29q-72 -49 -167 -195l-303 -462v-398q0 -113 36 -146q39 -37 175 -38v-39h-627v39q142 3 179 47q28 33 28 160v356l-268 393q-147 217 -210 273q-46 42 -122 49v39h573v-39q-145 -6 -145 -64q0 -37 35 -88l303 -454l313 498
q8 21 8 40q0 43 -46 58q-19 6 -46 8q-11 1 -25 2h-24v39h449v-39zM672 1473l301 303q32 32 52 41l18 5l20 1q41 0 58 -30q6 -10 8 -22q1 -7 1 -14q0 -31 -23 -56q-8 -9 -20 -18l-333 -210h-82z" />
    <glyph glyph-name="uni1EF6" unicode="&#x1ef6;" 
d="M1440 1317q-37 -4 -56 -10q-31 -8 -60 -29q-72 -49 -167 -195l-303 -462v-398q0 -113 36 -146q39 -37 175 -38v-39h-627v39q142 3 179 47q28 33 28 160v356l-268 393q-147 217 -210 273q-46 42 -122 49v39h573v-39q-145 -6 -145 -64q0 -37 35 -88l303 -454l313 498
q8 21 8 40q0 43 -46 58q-19 6 -46 8q-11 1 -25 2h-24v39h449v-39zM752 1444q0 41 12 83q3 12 9 27q3 9 5 14l25 51q31 63 31 115q0 38 -19 61q-22 27 -56 27q-20 0 -42 -12q-17 -10 -17 -24q0 -6 2 -9q3 -5 6 -8l12 -13q4 -4 5 -6q7 -13 7 -23q0 -44 -53 -44q-63 0 -63 61
q0 58 56 95q43 29 104 29q96 0 144 -52q33 -37 33 -89q0 -29 -25 -71q-17 -30 -42 -56q-37 -40 -54 -69q-17 -30 -27 -87h-53z" />
    <glyph glyph-name="uni1EF8" unicode="&#x1ef8;" 
d="M1440 1317q-37 -4 -56 -10q-31 -8 -60 -29q-72 -49 -167 -195l-303 -462v-398q0 -113 36 -146q39 -37 175 -38v-39h-627v39q142 3 179 47q28 33 28 160v356l-268 393q-147 217 -210 273q-46 42 -122 49v39h573v-39q-145 -6 -145 -64q0 -37 35 -88l303 -454l313 498
q8 21 8 40q0 43 -46 58q-19 6 -46 8q-11 1 -25 2h-24v39h449v-39zM1164 1741l-1 -4l-18 -59q-15 -42 -35 -72q-57 -82 -161 -82q-43 0 -84 14l-40 15l-89 42q-45 23 -76 23q-51 0 -81 -34q-11 -13 -19 -31q-4 -7 -7 -15q-2 -6 -5 -14h-60q15 82 63 137q59 70 152 70
q65 0 136 -37l49 -25q10 -5 21 -10l26 -10q30 -11 51 -11q75 0 119 103h59z" />
    <glyph glyph-name="uni1EF4" unicode="&#x1ef4;" 
d="M1440 1317q-37 -4 -56 -10q-31 -8 -60 -29q-72 -49 -167 -195l-303 -462v-398q0 -113 36 -146q39 -37 175 -38v-39h-627v39q142 3 179 47q28 33 28 160v356l-268 393q-147 217 -210 273q-46 42 -122 49v39h573v-39q-145 -6 -145 -64q0 -37 35 -88l303 -454l313 498
q8 21 8 40q0 43 -46 58q-19 6 -46 8q-11 1 -25 2h-24v39h449v-39zM677 -178q28 37 74 37q103 0 103 -102q0 -103 -103 -103q-47 0 -75 36q-23 30 -23 67q0 35 24 65z" />
    <glyph glyph-name="agrave" unicode="&#xe0;" horiz-adv-x="909" 
d="M587 549q-109 -36 -182 -78q-64 -37 -100 -78q-30 -34 -41 -71q-9 -27 -9 -60v-4q0 -160 135 -160q30 0 74 15l53 22q70 34 70 117v297zM904 82q-56 -66 -111 -89q-20 -9 -41 -12q-8 -1 -16 -1h-30q-10 0 -19 2q-23 5 -41 17q-50 35 -57 130q-72 -65 -135 -100
q-86 -49 -162 -49q-88 0 -150 55q-67 59 -67 158q0 140 131 230q58 40 160 85l221 90v125q0 98 -56 140q-22 17 -51 24q-23 6 -51 6q-55 0 -98 -26q-47 -30 -47 -74q0 -11 1 -23l9 -57q0 -88 -92 -88q-43 0 -68 32q-20 27 -20 58q0 77 78 144q95 83 256 83q107 0 176 -34
q59 -29 91 -84q25 -44 33 -107l4 -53l2 -493q1 -23 6 -38q13 -37 52 -37q29 0 54 13l38 26v-53zM528 1038l-316 199q-11 7 -19 15l-20 19q-20 25 -20 54l1 12q2 12 8 21q16 31 56 31q39 0 90 -48l302 -303h-82z" />
    <glyph glyph-name="aacute" unicode="&#xe1;" horiz-adv-x="909" 
d="M587 549q-109 -36 -182 -78q-64 -37 -100 -78q-30 -34 -41 -71q-9 -27 -9 -60v-4q0 -160 135 -160q30 0 74 15l53 22q70 34 70 117v297zM904 82q-56 -66 -111 -89q-20 -9 -41 -12q-8 -1 -16 -1h-30q-10 0 -19 2q-23 5 -41 17q-50 35 -57 130q-72 -65 -135 -100
q-86 -49 -162 -49q-88 0 -150 55q-67 59 -67 158q0 140 131 230q58 40 160 85l221 90v125q0 98 -56 140q-22 17 -51 24q-23 6 -51 6q-55 0 -98 -26q-47 -30 -47 -74q0 -11 1 -23l9 -57q0 -88 -92 -88q-43 0 -68 32q-20 27 -20 58q0 77 78 144q95 83 256 83q107 0 176 -34
q59 -29 91 -84q25 -44 33 -107l4 -53l2 -493q1 -23 6 -38q13 -37 52 -37q29 0 54 13l38 26v-53zM304 1038l301 303q33 33 52 42l19 5l20 1q41 0 58 -30q5 -10 8 -22q1 -8 1 -14q0 -31 -23 -56q-8 -9 -20 -18l-334 -211h-82z" />
    <glyph glyph-name="uni1EA3" unicode="&#x1ea3;" horiz-adv-x="909" 
d="M587 549q-109 -36 -182 -78q-64 -37 -100 -78q-30 -34 -41 -71q-9 -27 -9 -60v-4q0 -160 135 -160q30 0 74 15l53 22q70 34 70 117v297zM904 82q-56 -66 -111 -89q-20 -9 -41 -12q-8 -1 -16 -1h-30q-10 0 -19 2q-23 5 -41 17q-50 35 -57 130q-72 -65 -135 -100
q-86 -49 -162 -49q-88 0 -150 55q-67 59 -67 158q0 140 131 230q58 40 160 85l221 90v125q0 98 -56 140q-22 17 -51 24q-23 6 -51 6q-55 0 -98 -26q-47 -30 -47 -74q0 -11 1 -23l9 -57q0 -88 -92 -88q-43 0 -68 32q-20 27 -20 58q0 77 78 144q95 83 256 83q107 0 176 -34
q59 -29 91 -84q25 -44 33 -107l4 -53l2 -493q1 -23 6 -38q13 -37 52 -37q29 0 54 13l38 26v-53zM419 1016q0 41 11 83l9 27q3 9 6 14l24 51q31 63 31 115q0 38 -18 61q-23 27 -56 27q-21 0 -43 -12q-17 -10 -17 -24q0 -6 2 -9q3 -5 6 -8l12 -13q4 -4 5 -6q8 -13 8 -23
q0 -44 -54 -44q-63 0 -63 61q0 58 56 95q44 29 104 29q97 0 144 -52q33 -37 33 -89q0 -29 -25 -71q-17 -30 -42 -56q-37 -40 -54 -69q-17 -30 -27 -87h-52z" />
    <glyph glyph-name="atilde" unicode="&#xe3;" horiz-adv-x="909" 
d="M587 549q-109 -36 -182 -78q-64 -37 -100 -78q-30 -34 -41 -71q-9 -27 -9 -60v-4q0 -160 135 -160q30 0 74 15l53 22q70 34 70 117v297zM904 82q-56 -66 -111 -89q-20 -9 -41 -12q-8 -1 -16 -1h-30q-10 0 -19 2q-23 5 -41 17q-50 35 -57 130q-72 -65 -135 -100
q-86 -49 -162 -49q-88 0 -150 55q-67 59 -67 158q0 140 131 230q58 40 160 85l221 90v125q0 98 -56 140q-22 17 -51 24q-23 6 -51 6q-55 0 -98 -26q-47 -30 -47 -74q0 -11 1 -23l9 -57q0 -88 -92 -88q-43 0 -68 32q-20 27 -20 58q0 77 78 144q95 83 256 83q107 0 176 -34
q59 -29 91 -84q25 -44 33 -107l4 -53l2 -493q1 -23 6 -38q13 -37 52 -37q29 0 54 13l38 26v-53zM792 1307l-1 -4l-18 -60q-15 -41 -36 -71q-57 -82 -160 -82q-43 0 -85 13l-39 16l-89 42q-45 23 -76 23q-51 0 -81 -34q-11 -13 -20 -31q-3 -7 -6 -15q-3 -6 -6 -14h-59
q15 81 62 137q60 69 153 69q65 0 135 -36l49 -25l22 -10l25 -10q31 -11 52 -11q75 0 118 103h60z" />
    <glyph glyph-name="uni1EA1" unicode="&#x1ea1;" horiz-adv-x="909" 
d="M587 549q-109 -36 -182 -78q-64 -37 -100 -78q-30 -34 -41 -71q-9 -27 -9 -60v-4q0 -160 135 -160q30 0 74 15l53 22q70 34 70 117v297zM904 82q-56 -66 -111 -89q-20 -9 -41 -12q-8 -1 -16 -1h-30q-10 0 -19 2q-23 5 -41 17q-50 35 -57 130q-72 -65 -135 -100
q-86 -49 -162 -49q-88 0 -150 55q-67 59 -67 158q0 140 131 230q58 40 160 85l221 90v125q0 98 -56 140q-22 17 -51 24q-23 6 -51 6q-55 0 -98 -26q-47 -30 -47 -74q0 -11 1 -23l9 -57q0 -88 -92 -88q-43 0 -68 32q-20 27 -20 58q0 77 78 144q95 83 256 83q107 0 176 -34
q59 -29 91 -84q25 -44 33 -107l4 -53l2 -493q1 -23 6 -38q13 -37 52 -37q29 0 54 13l38 26v-53zM370 -178q29 37 75 37q102 0 102 -102q0 -103 -102 -103q-48 0 -76 36q-23 30 -23 67q0 35 24 65z" />
    <glyph glyph-name="acircumflex" unicode="&#xe2;" horiz-adv-x="909" 
d="M587 549q-109 -36 -182 -78q-64 -37 -100 -78q-30 -34 -41 -71q-9 -27 -9 -60v-4q0 -160 135 -160q30 0 74 15l53 22q70 34 70 117v297zM904 82q-56 -66 -111 -89q-20 -9 -41 -12q-8 -1 -16 -1h-30q-10 0 -19 2q-23 5 -41 17q-50 35 -57 130q-72 -65 -135 -100
q-86 -49 -162 -49q-88 0 -150 55q-67 59 -67 158q0 140 131 230q58 40 160 85l221 90v125q0 98 -56 140q-22 17 -51 24q-23 6 -51 6q-55 0 -98 -26q-47 -30 -47 -74q0 -11 1 -23l9 -57q0 -88 -92 -88q-43 0 -68 32q-20 27 -20 58q0 77 78 144q95 83 256 83q107 0 176 -34
q59 -29 91 -84q25 -44 33 -107l4 -53l2 -493q1 -23 6 -38q13 -37 52 -37q29 0 54 13l38 26v-53zM704 1038l-250 211l-248 -211h-70l254 342h127l256 -342h-69z" />
    <glyph glyph-name="uni1EA7" unicode="&#x1ea7;" horiz-adv-x="909" 
d="M587 549q-109 -36 -182 -78q-64 -37 -100 -78q-30 -34 -41 -71q-9 -27 -9 -60v-4q0 -160 135 -160q30 0 74 15l53 22q70 34 70 117v297zM904 82q-56 -66 -111 -89q-20 -9 -41 -12q-8 -1 -16 -1h-30q-10 0 -19 2q-23 5 -41 17q-50 35 -57 130q-72 -65 -135 -100
q-86 -49 -162 -49q-88 0 -150 55q-67 59 -67 158q0 140 131 230q58 40 160 85l221 90v125q0 98 -56 140q-22 17 -51 24q-23 6 -51 6q-55 0 -98 -26q-47 -30 -47 -74q0 -11 1 -23l9 -57q0 -88 -92 -88q-43 0 -68 32q-20 27 -20 58q0 77 78 144q95 83 256 83q107 0 176 -34
q59 -29 91 -84q25 -44 33 -107l4 -53l2 -493q1 -23 6 -38q13 -37 52 -37q29 0 54 13l38 26v-53zM729 1318l-316 199q-11 7 -19 15l-20 19q-20 25 -20 54l1 12q2 12 8 21q16 31 56 31q39 0 90 -48l302 -303h-82zM704 1038l-250 211l-248 -211h-70l254 342h127l256 -342h-69z
" />
    <glyph glyph-name="uni1EA5" unicode="&#x1ea5;" horiz-adv-x="909" 
d="M587 549q-109 -36 -182 -78q-64 -37 -100 -78q-30 -34 -41 -71q-9 -27 -9 -60v-4q0 -160 135 -160q30 0 74 15l53 22q70 34 70 117v297zM904 82q-56 -66 -111 -89q-20 -9 -41 -12q-8 -1 -16 -1h-30q-10 0 -19 2q-23 5 -41 17q-50 35 -57 130q-72 -65 -135 -100
q-86 -49 -162 -49q-88 0 -150 55q-67 59 -67 158q0 140 131 230q58 40 160 85l221 90v125q0 98 -56 140q-22 17 -51 24q-23 6 -51 6q-55 0 -98 -26q-47 -30 -47 -74q0 -11 1 -23l9 -57q0 -88 -92 -88q-43 0 -68 32q-20 27 -20 58q0 77 78 144q95 83 256 83q107 0 176 -34
q59 -29 91 -84q25 -44 33 -107l4 -53l2 -493q1 -23 6 -38q13 -37 52 -37q29 0 54 13l38 26v-53zM627 1318l301 303q33 33 52 42l19 5l20 1q41 0 58 -30q5 -10 8 -22q1 -8 1 -14q0 -31 -23 -56q-8 -9 -20 -18l-334 -211h-82zM704 1038l-250 211l-248 -211h-70l254 342h127
l256 -342h-69z" />
    <glyph glyph-name="uni1EA9" unicode="&#x1ea9;" horiz-adv-x="909" 
d="M587 549q-109 -36 -182 -78q-64 -37 -100 -78q-30 -34 -41 -71q-9 -27 -9 -60v-4q0 -160 135 -160q30 0 74 15l53 22q70 34 70 117v297zM904 82q-56 -66 -111 -89q-20 -9 -41 -12q-8 -1 -16 -1h-30q-10 0 -19 2q-23 5 -41 17q-50 35 -57 130q-72 -65 -135 -100
q-86 -49 -162 -49q-88 0 -150 55q-67 59 -67 158q0 140 131 230q58 40 160 85l221 90v125q0 98 -56 140q-22 17 -51 24q-23 6 -51 6q-55 0 -98 -26q-47 -30 -47 -74q0 -11 1 -23l9 -57q0 -88 -92 -88q-43 0 -68 32q-20 27 -20 58q0 77 78 144q95 83 256 83q107 0 176 -34
q59 -29 91 -84q25 -44 33 -107l4 -53l2 -493q1 -23 6 -38q13 -37 52 -37q29 0 54 13l38 26v-53zM671 1251q0 41 11 83l9 27q3 9 6 14l24 51q31 63 31 115q0 38 -18 61q-23 27 -56 27q-21 0 -43 -12q-17 -10 -17 -24q0 -6 2 -9q3 -5 6 -8l12 -13q4 -4 5 -6q8 -13 8 -23
q0 -44 -54 -44q-63 0 -63 61q0 58 56 95q44 29 104 29q97 0 144 -52q33 -37 33 -89q0 -29 -25 -71q-17 -30 -42 -56q-37 -40 -54 -69q-17 -30 -27 -87h-52zM704 1038l-250 211l-248 -211h-70l254 342h127l256 -342h-69z" />
    <glyph glyph-name="uni1EAB" unicode="&#x1eab;" horiz-adv-x="909" 
d="M587 549q-109 -36 -182 -78q-64 -37 -100 -78q-30 -34 -41 -71q-9 -27 -9 -60v-4q0 -160 135 -160q30 0 74 15l53 22q70 34 70 117v297zM904 82q-56 -66 -111 -89q-20 -9 -41 -12q-8 -1 -16 -1h-30q-10 0 -19 2q-23 5 -41 17q-50 35 -57 130q-72 -65 -135 -100
q-86 -49 -162 -49q-88 0 -150 55q-67 59 -67 158q0 140 131 230q58 40 160 85l221 90v125q0 98 -56 140q-22 17 -51 24q-23 6 -51 6q-55 0 -98 -26q-47 -30 -47 -74q0 -11 1 -23l9 -57q0 -88 -92 -88q-43 0 -68 32q-20 27 -20 58q0 77 78 144q95 83 256 83q107 0 176 -34
q59 -29 91 -84q25 -44 33 -107l4 -53l2 -493q1 -23 6 -38q13 -37 52 -37q29 0 54 13l38 26v-53zM897 1682l-1 -4l-18 -60q-15 -41 -36 -71q-57 -82 -160 -82q-43 0 -85 13l-39 16l-89 42q-45 23 -76 23q-51 0 -81 -34q-11 -13 -20 -31q-3 -7 -6 -15q-3 -6 -6 -14h-59
q15 81 62 137q60 69 153 69q65 0 135 -36l49 -25l22 -10l25 -10q31 -11 52 -11q75 0 118 103h60zM704 1038l-250 211l-248 -211h-70l254 342h127l256 -342h-69z" />
    <glyph glyph-name="uni1EAD" unicode="&#x1ead;" horiz-adv-x="909" 
d="M587 549q-109 -36 -182 -78q-64 -37 -100 -78q-30 -34 -41 -71q-9 -27 -9 -60v-4q0 -160 135 -160q30 0 74 15l53 22q70 34 70 117v297zM904 82q-56 -66 -111 -89q-20 -9 -41 -12q-8 -1 -16 -1h-30q-10 0 -19 2q-23 5 -41 17q-50 35 -57 130q-72 -65 -135 -100
q-86 -49 -162 -49q-88 0 -150 55q-67 59 -67 158q0 140 131 230q58 40 160 85l221 90v125q0 98 -56 140q-22 17 -51 24q-23 6 -51 6q-55 0 -98 -26q-47 -30 -47 -74q0 -11 1 -23l9 -57q0 -88 -92 -88q-43 0 -68 32q-20 27 -20 58q0 77 78 144q95 83 256 83q107 0 176 -34
q59 -29 91 -84q25 -44 33 -107l4 -53l2 -493q1 -23 6 -38q13 -37 52 -37q29 0 54 13l38 26v-53zM370 -178q29 37 75 37q102 0 102 -102q0 -103 -102 -103q-48 0 -76 36q-23 30 -23 67q0 35 24 65zM704 1038l-250 211l-248 -211h-70l254 342h127l256 -342h-69z" />
    <glyph glyph-name="abreve" unicode="&#x103;" horiz-adv-x="909" 
d="M587 549q-109 -36 -182 -78q-64 -37 -100 -78q-30 -34 -41 -71q-9 -27 -9 -60v-4q0 -160 135 -160q30 0 74 15l53 22q70 34 70 117v297zM904 82q-56 -66 -111 -89q-20 -9 -41 -12q-8 -1 -16 -1h-30q-10 0 -19 2q-23 5 -41 17q-50 35 -57 130q-72 -65 -135 -100
q-86 -49 -162 -49q-88 0 -150 55q-67 59 -67 158q0 140 131 230q58 40 160 85l221 90v125q0 98 -56 140q-22 17 -51 24q-23 6 -51 6q-55 0 -98 -26q-47 -30 -47 -74q0 -11 1 -23l9 -57q0 -88 -92 -88q-43 0 -68 32q-20 27 -20 58q0 77 78 144q95 83 256 83q107 0 176 -34
q59 -29 91 -84q25 -44 33 -107l4 -53l2 -493q1 -23 6 -38q13 -37 52 -37q29 0 54 13l38 26v-53zM743 1353q-1 -9 -2 -14l-2 -18q-3 -23 -8 -45q-13 -61 -39 -108q-33 -61 -87 -95q-64 -42 -155 -42q-121 0 -198 77q-88 87 -85 245h60q32 -199 227 -199q104 0 158 61
q22 25 41 64q7 15 16 36l14 38h60z" />
    <glyph glyph-name="uni1EB1" unicode="&#x1eb1;" horiz-adv-x="909" 
d="M587 549q-109 -36 -182 -78q-64 -37 -100 -78q-30 -34 -41 -71q-9 -27 -9 -60v-4q0 -160 135 -160q30 0 74 15l53 22q70 34 70 117v297zM904 82q-56 -66 -111 -89q-20 -9 -41 -12q-8 -1 -16 -1h-30q-10 0 -19 2q-23 5 -41 17q-50 35 -57 130q-72 -65 -135 -100
q-86 -49 -162 -49q-88 0 -150 55q-67 59 -67 158q0 140 131 230q58 40 160 85l221 90v125q0 98 -56 140q-22 17 -51 24q-23 6 -51 6q-55 0 -98 -26q-47 -30 -47 -74q0 -11 1 -23l9 -57q0 -88 -92 -88q-43 0 -68 32q-20 27 -20 58q0 77 78 144q95 83 256 83q107 0 176 -34
q59 -29 91 -84q25 -44 33 -107l4 -53l2 -493q1 -23 6 -38q13 -37 52 -37q29 0 54 13l38 26v-53zM511 1370l-316 199q-11 7 -19 15l-20 19q-20 25 -20 54l1 12q2 12 8 21q16 31 56 31q39 0 90 -48l302 -303h-82zM743 1353q-1 -9 -2 -14l-2 -18q-3 -23 -8 -45
q-13 -61 -39 -108q-33 -61 -87 -95q-64 -42 -155 -42q-121 0 -198 77q-88 87 -85 245h60q32 -199 227 -199q104 0 158 61q22 25 41 64q7 15 16 36l14 38h60z" />
    <glyph glyph-name="uni1EAF" unicode="&#x1eaf;" horiz-adv-x="909" 
d="M587 549q-109 -36 -182 -78q-64 -37 -100 -78q-30 -34 -41 -71q-9 -27 -9 -60v-4q0 -160 135 -160q30 0 74 15l53 22q70 34 70 117v297zM904 82q-56 -66 -111 -89q-20 -9 -41 -12q-8 -1 -16 -1h-30q-10 0 -19 2q-23 5 -41 17q-50 35 -57 130q-72 -65 -135 -100
q-86 -49 -162 -49q-88 0 -150 55q-67 59 -67 158q0 140 131 230q58 40 160 85l221 90v125q0 98 -56 140q-22 17 -51 24q-23 6 -51 6q-55 0 -98 -26q-47 -30 -47 -74q0 -11 1 -23l9 -57q0 -88 -92 -88q-43 0 -68 32q-20 27 -20 58q0 77 78 144q95 83 256 83q107 0 176 -34
q59 -29 91 -84q25 -44 33 -107l4 -53l2 -493q1 -23 6 -38q13 -37 52 -37q29 0 54 13l38 26v-53zM329 1397l301 303q33 33 52 42l19 5l20 1q41 0 58 -30q5 -10 8 -22q1 -8 1 -14q0 -31 -23 -56q-8 -9 -20 -18l-334 -211h-82zM743 1353q-1 -9 -2 -14l-2 -18q-3 -23 -8 -45
q-13 -61 -39 -108q-33 -61 -87 -95q-64 -42 -155 -42q-121 0 -198 77q-88 87 -85 245h60q32 -199 227 -199q104 0 158 61q22 25 41 64q7 15 16 36l14 38h60z" />
    <glyph glyph-name="uni1EB3" unicode="&#x1eb3;" horiz-adv-x="909" 
d="M587 549q-109 -36 -182 -78q-64 -37 -100 -78q-30 -34 -41 -71q-9 -27 -9 -60v-4q0 -160 135 -160q30 0 74 15l53 22q70 34 70 117v297zM904 82q-56 -66 -111 -89q-20 -9 -41 -12q-8 -1 -16 -1h-30q-10 0 -19 2q-23 5 -41 17q-50 35 -57 130q-72 -65 -135 -100
q-86 -49 -162 -49q-88 0 -150 55q-67 59 -67 158q0 140 131 230q58 40 160 85l221 90v125q0 98 -56 140q-22 17 -51 24q-23 6 -51 6q-55 0 -98 -26q-47 -30 -47 -74q0 -11 1 -23l9 -57q0 -88 -92 -88q-43 0 -68 32q-20 27 -20 58q0 77 78 144q95 83 256 83q107 0 176 -34
q59 -29 91 -84q25 -44 33 -107l4 -53l2 -493q1 -23 6 -38q13 -37 52 -37q29 0 54 13l38 26v-53zM435 1337q0 41 11 83l9 27q3 9 6 14l24 51q31 63 31 115q0 38 -18 61q-23 27 -56 27q-21 0 -43 -12q-17 -10 -17 -24q0 -6 2 -9q3 -5 6 -8l12 -13q4 -4 5 -6q8 -13 8 -23
q0 -44 -54 -44q-63 0 -63 61q0 58 56 95q44 29 104 29q97 0 144 -52q33 -37 33 -89q0 -29 -25 -71q-17 -30 -42 -56q-37 -40 -54 -69q-17 -30 -27 -87h-52zM743 1353q-1 -9 -2 -14l-2 -18q-3 -23 -8 -45q-13 -61 -39 -108q-33 -61 -87 -95q-64 -42 -155 -42q-121 0 -198 77
q-88 87 -85 245h60q32 -199 227 -199q104 0 158 61q22 25 41 64q7 15 16 36l14 38h60z" />
    <glyph glyph-name="uni1EB5" unicode="&#x1eb5;" horiz-adv-x="909" 
d="M587 549q-109 -36 -182 -78q-64 -37 -100 -78q-30 -34 -41 -71q-9 -27 -9 -60v-4q0 -160 135 -160q30 0 74 15l53 22q70 34 70 117v297zM904 82q-56 -66 -111 -89q-20 -9 -41 -12q-8 -1 -16 -1h-30q-10 0 -19 2q-23 5 -41 17q-50 35 -57 130q-72 -65 -135 -100
q-86 -49 -162 -49q-88 0 -150 55q-67 59 -67 158q0 140 131 230q58 40 160 85l221 90v125q0 98 -56 140q-22 17 -51 24q-23 6 -51 6q-55 0 -98 -26q-47 -30 -47 -74q0 -11 1 -23l9 -57q0 -88 -92 -88q-43 0 -68 32q-20 27 -20 58q0 77 78 144q95 83 256 83q107 0 176 -34
q59 -29 91 -84q25 -44 33 -107l4 -53l2 -493q1 -23 6 -38q13 -37 52 -37q29 0 54 13l38 26v-53zM889 1674l-1 -4l-18 -60q-15 -41 -36 -71q-57 -82 -160 -82q-43 0 -85 13l-39 16l-89 42q-45 23 -76 23q-51 0 -81 -34q-11 -13 -20 -31q-3 -7 -6 -15q-3 -6 -6 -14h-59
q15 81 62 137q60 69 153 69q65 0 135 -36l49 -25l22 -10l25 -10q31 -11 52 -11q75 0 118 103h60zM743 1353q-1 -9 -2 -14l-2 -18q-3 -23 -8 -45q-13 -61 -39 -108q-33 -61 -87 -95q-64 -42 -155 -42q-121 0 -198 77q-88 87 -85 245h60q32 -199 227 -199q104 0 158 61
q22 25 41 64q7 15 16 36l14 38h60z" />
    <glyph glyph-name="uni1EB7" unicode="&#x1eb7;" horiz-adv-x="909" 
d="M587 549q-109 -36 -182 -78q-64 -37 -100 -78q-30 -34 -41 -71q-9 -27 -9 -60v-4q0 -160 135 -160q30 0 74 15l53 22q70 34 70 117v297zM904 82q-56 -66 -111 -89q-20 -9 -41 -12q-8 -1 -16 -1h-30q-10 0 -19 2q-23 5 -41 17q-50 35 -57 130q-72 -65 -135 -100
q-86 -49 -162 -49q-88 0 -150 55q-67 59 -67 158q0 140 131 230q58 40 160 85l221 90v125q0 98 -56 140q-22 17 -51 24q-23 6 -51 6q-55 0 -98 -26q-47 -30 -47 -74q0 -11 1 -23l9 -57q0 -88 -92 -88q-43 0 -68 32q-20 27 -20 58q0 77 78 144q95 83 256 83q107 0 176 -34
q59 -29 91 -84q25 -44 33 -107l4 -53l2 -493q1 -23 6 -38q13 -37 52 -37q29 0 54 13l38 26v-53zM370 -178q29 37 75 37q102 0 102 -102q0 -103 -102 -103q-48 0 -76 36q-23 30 -23 67q0 35 24 65zM743 1353q-1 -9 -2 -14l-2 -18q-3 -23 -8 -45q-13 -61 -39 -108
q-33 -61 -87 -95q-64 -42 -155 -42q-121 0 -198 77q-88 87 -85 245h60q32 -199 227 -199q104 0 158 61q22 25 41 64q7 15 16 36l14 38h60z" />
    <glyph glyph-name="egrave" unicode="&#xe8;" horiz-adv-x="909" 
d="M868 322q-12 -37 -35 -81q-34 -63 -79 -114q-59 -66 -131 -103q-87 -44 -189 -44q-173 0 -277 120q-106 123 -106 338q0 135 42 239q37 92 105 155q118 110 271 110t244 -87q100 -95 116 -288h-637q9 -129 43 -222q29 -84 79 -137q81 -87 204 -87q119 0 209 79
q34 29 65 70l24 35q5 7 10 16l9 15zM620 633q-1 12 -2 19l-12 59q-11 46 -29 76q-47 81 -153 81q-183 0 -226 -235h422zM528 1038l-315 199q-11 7 -20 15l-19 19q-21 25 -21 54l2 12q2 12 7 21q17 31 57 31q39 0 90 -48l301 -303h-82z" />
    <glyph glyph-name="eacute" unicode="&#xe9;" horiz-adv-x="909" 
d="M868 322q-12 -37 -35 -81q-34 -63 -79 -114q-59 -66 -131 -103q-87 -44 -189 -44q-173 0 -277 120q-106 123 -106 338q0 135 42 239q37 92 105 155q118 110 271 110t244 -87q100 -95 116 -288h-637q9 -129 43 -222q29 -84 79 -137q81 -87 204 -87q119 0 209 79
q34 29 65 70l24 35q5 7 10 16l9 15zM620 633q-1 12 -2 19l-12 59q-11 46 -29 76q-47 81 -153 81q-183 0 -226 -235h422zM387 1038l301 303q32 33 52 42l18 5l20 1q42 0 58 -30q6 -10 8 -22q2 -8 2 -14q0 -31 -23 -56q-9 -9 -21 -18l-333 -211h-82z" />
    <glyph glyph-name="uni1EBB" unicode="&#x1ebb;" horiz-adv-x="909" 
d="M868 322q-12 -37 -35 -81q-34 -63 -79 -114q-59 -66 -131 -103q-87 -44 -189 -44q-173 0 -277 120q-106 123 -106 338q0 135 42 239q37 92 105 155q118 110 271 110t244 -87q100 -95 116 -288h-637q9 -129 43 -222q29 -84 79 -137q81 -87 204 -87q119 0 209 79
q34 29 65 70l24 35q5 7 10 16l9 15zM620 633q-1 12 -2 19l-12 59q-11 46 -29 76q-47 81 -153 81q-183 0 -226 -235h422zM419 1016q0 41 12 83q3 12 9 27q3 9 5 14l24 51q32 63 32 115q0 38 -19 61q-22 27 -56 27q-20 0 -43 -12q-16 -10 -16 -24q0 -6 1 -9q4 -5 7 -8l12 -13
q4 -4 5 -6q7 -13 7 -23q0 -44 -53 -44q-63 0 -63 61q0 58 56 95q43 29 104 29q96 0 144 -52q32 -37 32 -89q0 -29 -24 -71q-17 -30 -42 -56q-37 -40 -54 -69q-17 -30 -27 -87h-53z" />
    <glyph glyph-name="uni1EBD" unicode="&#x1ebd;" horiz-adv-x="909" 
d="M868 322q-12 -37 -35 -81q-34 -63 -79 -114q-59 -66 -131 -103q-87 -44 -189 -44q-173 0 -277 120q-106 123 -106 338q0 135 42 239q37 92 105 155q118 110 271 110t244 -87q100 -95 116 -288h-637q9 -129 43 -222q29 -84 79 -137q81 -87 204 -87q119 0 209 79
q34 29 65 70l24 35q5 7 10 16l9 15zM620 633q-1 12 -2 19l-12 59q-11 46 -29 76q-47 81 -153 81q-183 0 -226 -235h422zM818 1307l-1 -4l-18 -60q-15 -41 -35 -71q-57 -82 -161 -82q-43 0 -84 13l-40 16l-89 42q-45 23 -75 23q-51 0 -81 -34q-12 -13 -20 -31q-4 -7 -7 -15
q-2 -6 -5 -14h-59q14 81 62 137q59 69 153 69q64 0 135 -36l49 -25q10 -5 21 -10l26 -10q31 -11 51 -11q75 0 119 103h59z" />
    <glyph glyph-name="uni1EB9" unicode="&#x1eb9;" horiz-adv-x="909" 
d="M868 322q-12 -37 -35 -81q-34 -63 -79 -114q-59 -66 -131 -103q-87 -44 -189 -44q-173 0 -277 120q-106 123 -106 338q0 135 42 239q37 92 105 155q118 110 271 110t244 -87q100 -95 116 -288h-637q9 -129 43 -222q29 -84 79 -137q81 -87 204 -87q119 0 209 79
q34 29 65 70l24 35q5 7 10 16l9 15zM620 633q-1 12 -2 19l-12 59q-11 46 -29 76q-47 81 -153 81q-183 0 -226 -235h422zM371 -178q28 37 74 37q103 0 103 -102q0 -103 -103 -103q-47 0 -75 36q-23 30 -23 67q0 35 24 65z" />
    <glyph glyph-name="ecircumflex" unicode="&#xea;" horiz-adv-x="909" 
d="M868 322q-12 -37 -35 -81q-34 -63 -79 -114q-59 -66 -131 -103q-87 -44 -189 -44q-173 0 -277 120q-106 123 -106 338q0 135 42 239q37 92 105 155q118 110 271 110t244 -87q100 -95 116 -288h-637q9 -129 43 -222q29 -84 79 -137q81 -87 204 -87q119 0 209 79
q34 29 65 70l24 35q5 7 10 16l9 15zM620 633q-1 12 -2 19l-12 59q-11 46 -29 76q-47 81 -153 81q-183 0 -226 -235h422zM704 1038l-250 211l-247 -211h-70l254 342h127l256 -342h-70z" />
    <glyph glyph-name="uni1EC1" unicode="&#x1ec1;" horiz-adv-x="909" 
d="M868 322q-12 -37 -35 -81q-34 -63 -79 -114q-59 -66 -131 -103q-87 -44 -189 -44q-173 0 -277 120q-106 123 -106 338q0 135 42 239q37 92 105 155q118 110 271 110t244 -87q100 -95 116 -288h-637q9 -129 43 -222q29 -84 79 -137q81 -87 204 -87q119 0 209 79
q34 29 65 70l24 35q5 7 10 16l9 15zM620 633q-1 12 -2 19l-12 59q-11 46 -29 76q-47 81 -153 81q-183 0 -226 -235h422zM711 1326l-315 199q-11 7 -20 15l-19 19q-21 25 -21 54l2 12q2 12 7 21q17 31 57 31q39 0 90 -48l301 -303h-82zM704 1038l-250 211l-247 -211h-70
l254 342h127l256 -342h-70z" />
    <glyph glyph-name="uni1EBF" unicode="&#x1ebf;" horiz-adv-x="909" 
d="M868 322q-12 -37 -35 -81q-34 -63 -79 -114q-59 -66 -131 -103q-87 -44 -189 -44q-173 0 -277 120q-106 123 -106 338q0 135 42 239q37 92 105 155q118 110 271 110t244 -87q100 -95 116 -288h-637q9 -129 43 -222q29 -84 79 -137q81 -87 204 -87q119 0 209 79
q34 29 65 70l24 35q5 7 10 16l9 15zM620 633q-1 12 -2 19l-12 59q-11 46 -29 76q-47 81 -153 81q-183 0 -226 -235h422zM632 1309l301 303q32 33 52 42l18 5l20 1q42 0 58 -30q6 -10 8 -22q2 -8 2 -14q0 -31 -23 -56q-9 -9 -21 -18l-333 -211h-82zM704 1038l-250 211
l-247 -211h-70l254 342h127l256 -342h-70z" />
    <glyph glyph-name="uni1EC3" unicode="&#x1ec3;" horiz-adv-x="909" 
d="M868 322q-12 -37 -35 -81q-34 -63 -79 -114q-59 -66 -131 -103q-87 -44 -189 -44q-173 0 -277 120q-106 123 -106 338q0 135 42 239q37 92 105 155q118 110 271 110t244 -87q100 -95 116 -288h-637q9 -129 43 -222q29 -84 79 -137q81 -87 204 -87q119 0 209 79
q34 29 65 70l24 35q5 7 10 16l9 15zM620 633q-1 12 -2 19l-12 59q-11 46 -29 76q-47 81 -153 81q-183 0 -226 -235h422zM672 1269q0 41 12 83q3 12 9 27q3 9 5 14l24 51q32 63 32 115q0 38 -19 61q-22 27 -56 27q-20 0 -43 -12q-16 -10 -16 -24q0 -6 1 -9q4 -5 7 -8l12 -13
q4 -4 5 -6q7 -13 7 -23q0 -44 -53 -44q-63 0 -63 61q0 58 56 95q43 29 104 29q96 0 144 -52q32 -37 32 -89q0 -29 -24 -71q-17 -30 -42 -56q-37 -40 -54 -69q-17 -30 -27 -87h-53zM704 1038l-250 211l-247 -211h-70l254 342h127l256 -342h-70z" />
    <glyph glyph-name="uni1EC5" unicode="&#x1ec5;" horiz-adv-x="909" 
d="M868 322q-12 -37 -35 -81q-34 -63 -79 -114q-59 -66 -131 -103q-87 -44 -189 -44q-173 0 -277 120q-106 123 -106 338q0 135 42 239q37 92 105 155q118 110 271 110t244 -87q100 -95 116 -288h-637q9 -129 43 -222q29 -84 79 -137q81 -87 204 -87q119 0 209 79
q34 29 65 70l24 35q5 7 10 16l9 15zM620 633q-1 12 -2 19l-12 59q-11 46 -29 76q-47 81 -153 81q-183 0 -226 -235h422zM896 1665l-1 -4l-18 -60q-15 -41 -35 -71q-57 -82 -161 -82q-43 0 -84 13l-40 16l-89 42q-45 23 -75 23q-51 0 -81 -34q-12 -13 -20 -31q-4 -7 -7 -15
q-2 -6 -5 -14h-59q14 81 62 137q59 69 153 69q64 0 135 -36l49 -25q10 -5 21 -10l26 -10q31 -11 51 -11q75 0 119 103h59zM704 1038l-250 211l-247 -211h-70l254 342h127l256 -342h-70z" />
    <glyph glyph-name="uni1EC7" unicode="&#x1ec7;" horiz-adv-x="909" 
d="M868 322q-12 -37 -35 -81q-34 -63 -79 -114q-59 -66 -131 -103q-87 -44 -189 -44q-173 0 -277 120q-106 123 -106 338q0 135 42 239q37 92 105 155q118 110 271 110t244 -87q100 -95 116 -288h-637q9 -129 43 -222q29 -84 79 -137q81 -87 204 -87q119 0 209 79
q34 29 65 70l24 35q5 7 10 16l9 15zM620 633q-1 12 -2 19l-12 59q-11 46 -29 76q-47 81 -153 81q-183 0 -226 -235h422zM371 -178q28 37 74 37q103 0 103 -102q0 -103 -103 -103q-47 0 -75 36q-23 30 -23 67q0 35 24 65zM704 1038l-250 211l-247 -211h-70l254 342h127
l256 -342h-70z" />
    <glyph glyph-name="igrave" unicode="&#xec;" horiz-adv-x="569" 
d="M33 31q101 5 129 31q33 32 33 147v475q0 80 -24 107q-14 16 -48 16q-19 0 -41 -3l-41 -5v30l318 113l8 -6v-727q0 -107 23 -137q27 -35 129 -41v-31h-486v31zM359 1038l-316 199q-11 7 -19 15l-20 19q-20 25 -20 54l1 12q3 12 8 21q17 31 57 31q38 0 90 -48l301 -303h-82
z" />
    <glyph glyph-name="iacute" unicode="&#xed;" horiz-adv-x="569" 
d="M32 31q101 5 129 31q33 32 33 147v475q0 80 -24 107q-14 16 -48 16q-19 0 -42 -3l-40 -5v30l318 113l8 -6v-727q0 -107 23 -137q27 -35 128 -41v-31h-485v31zM134 1038l301 303q33 33 52 42l19 5l20 1q41 0 58 -30q6 -10 8 -22q1 -8 1 -14q0 -31 -23 -56q-8 -9 -20 -18
l-334 -211h-82z" />
    <glyph glyph-name="uni1EC9" unicode="&#x1ec9;" horiz-adv-x="569" 
d="M32 31q101 5 129 31q33 32 33 147v475q0 80 -24 107q-14 16 -48 16q-19 0 -42 -3l-40 -5v30q69 23 159 55l159 58l8 -6v-727q0 -107 23 -137q27 -35 128 -41v-31h-485v31zM227 1016q0 41 11 83l9 27q3 9 6 14l24 51q31 63 31 115q0 38 -18 61q-23 27 -56 27
q-21 0 -43 -12q-17 -10 -17 -24q0 -6 2 -9q3 -5 6 -8l12 -13q4 -4 5 -6q8 -13 8 -23q0 -44 -54 -44q-63 0 -63 61q0 58 56 95q44 29 104 29q97 0 144 -52q33 -37 33 -89q0 -29 -25 -71q-17 -30 -42 -56q-37 -40 -54 -69q-17 -30 -27 -87h-52z" />
    <glyph glyph-name="itilde" unicode="&#x129;" horiz-adv-x="569" 
d="M32 31q101 5 129 31q33 32 33 147v475q0 80 -24 107q-14 16 -48 16q-19 0 -42 -3l-40 -5v30q69 23 159 55l159 58l8 -6v-727q0 -107 23 -137q27 -35 128 -41v-31h-485v31zM635 1307l-1 -4l-18 -60q-15 -41 -36 -71q-57 -82 -160 -82q-43 0 -85 13l-39 16l-89 42
q-45 23 -76 23q-51 0 -81 -34q-11 -13 -20 -31q-3 -7 -6 -15q-3 -6 -6 -14h-59q15 81 62 137q60 69 153 69q65 0 135 -36l49 -25l22 -10l25 -10q31 -11 52 -11q75 0 118 103h60z" />
    <glyph glyph-name="uni1ECB" unicode="&#x1ecb;" horiz-adv-x="569" 
d="M32 31q101 5 129 31q33 32 33 147v475q0 80 -24 107q-14 16 -48 16q-19 0 -42 -3l-40 -5v30q69 23 159 55l159 58l8 -6v-727q0 -107 23 -137q27 -35 128 -41v-31h-485v31zM183 1361q30 38 78 38q107 0 107 -105q0 -104 -107 -104q-49 0 -78 38q-24 30 -24 66t24 67z
M204 -178q29 37 75 37q102 0 102 -102q0 -103 -102 -103q-48 0 -76 36q-23 30 -23 67q0 35 24 65z" />
    <glyph glyph-name="ograve" unicode="&#xf2;" horiz-adv-x="1024" 
d="M832 816q130 -130 130 -349q0 -177 -110 -320q-60 -77 -142 -120q-91 -47 -202 -47q-197 0 -324 140q-125 138 -125 347q0 197 118 332q125 143 324 143q205 0 331 -126zM696 112q82 97 82 296q0 200 -76 333q-81 144 -217 144q-103 0 -169 -80q-73 -87 -73 -240
q0 -69 12 -146q14 -98 43 -175q35 -94 89 -146q63 -61 149 -61q96 0 160 75zM585 1038l-315 199q-11 7 -20 15l-19 19q-20 25 -20 54l1 12q2 12 8 21q16 31 56 31q39 0 90 -48l301 -303h-82z" />
    <glyph glyph-name="oacute" unicode="&#xf3;" horiz-adv-x="1024" 
d="M832 816q130 -130 130 -349q0 -177 -110 -320q-60 -77 -142 -120q-91 -47 -202 -47q-197 0 -324 140q-125 138 -125 347q0 197 118 332q125 143 324 143q205 0 331 -126zM696 112q82 97 82 296q0 200 -76 333q-81 144 -217 144q-103 0 -169 -80q-73 -87 -73 -240
q0 -69 12 -146q14 -98 43 -175q35 -94 89 -146q63 -61 149 -61q96 0 160 75zM362 1038l301 303q33 33 52 42l19 5l19 1q42 0 59 -30q5 -10 8 -22q1 -8 1 -14q0 -31 -23 -56q-9 -9 -20 -18l-334 -211h-82z" />
    <glyph glyph-name="uni1ECF" unicode="&#x1ecf;" horiz-adv-x="1024" 
d="M832 816q130 -130 130 -349q0 -177 -110 -320q-60 -77 -142 -120q-91 -47 -202 -47q-197 0 -324 140q-125 138 -125 347q0 197 118 332q125 143 324 143q205 0 331 -126zM696 112q82 97 82 296q0 200 -76 333q-81 144 -217 144q-103 0 -169 -80q-73 -87 -73 -240
q0 -69 12 -146q14 -98 43 -175q35 -94 89 -146q63 -61 149 -61q96 0 160 75zM454 1016q0 41 11 83l9 27q3 9 6 14l24 51q31 63 31 115q0 38 -18 61q-22 27 -56 27q-21 0 -43 -12q-17 -10 -17 -24q0 -6 2 -9q4 -5 6 -8l13 -13q4 -4 4 -6q8 -13 8 -23q0 -44 -54 -44
q-62 0 -62 61q0 58 56 95q43 29 103 29q97 0 144 -52q33 -37 33 -89q0 -29 -25 -71q-17 -30 -41 -56q-37 -40 -54 -69q-17 -30 -27 -87h-53z" />
    <glyph glyph-name="otilde" unicode="&#xf5;" horiz-adv-x="1024" 
d="M832 816q130 -130 130 -349q0 -177 -110 -320q-60 -77 -142 -120q-91 -47 -202 -47q-197 0 -324 140q-125 138 -125 347q0 197 118 332q125 143 324 143q205 0 331 -126zM696 112q82 97 82 296q0 200 -76 333q-81 144 -217 144q-103 0 -169 -80q-73 -87 -73 -240
q0 -69 12 -146q14 -98 43 -175q35 -94 89 -146q63 -61 149 -61q96 0 160 75zM850 1307l-1 -4l-18 -60q-15 -41 -36 -71q-57 -82 -161 -82q-43 0 -84 13l-39 16l-90 42q-45 23 -75 23q-51 0 -81 -34q-11 -13 -20 -31q-3 -7 -7 -15q-2 -6 -5 -14h-59q15 81 62 137
q59 69 153 69q64 0 135 -36l49 -25q11 -5 21 -10l26 -10q31 -11 51 -11q76 0 119 103h60z" />
    <glyph glyph-name="uni1ECD" unicode="&#x1ecd;" horiz-adv-x="1024" 
d="M832 816q130 -130 130 -349q0 -177 -110 -320q-60 -77 -142 -120q-91 -47 -202 -47q-197 0 -324 140q-125 138 -125 347q0 197 118 332q125 143 324 143q205 0 331 -126zM696 112q82 97 82 296q0 200 -76 333q-81 144 -217 144q-103 0 -169 -80q-73 -87 -73 -240
q0 -69 12 -146q14 -98 43 -175q35 -94 89 -146q63 -61 149 -61q96 0 160 75zM434 -178q29 37 75 37q102 0 102 -102q0 -103 -102 -103q-48 0 -76 36q-23 30 -23 67q0 35 24 65z" />
    <glyph glyph-name="ocircumflex" unicode="&#xf4;" horiz-adv-x="1024" 
d="M832 816q130 -130 130 -349q0 -177 -110 -320q-60 -77 -142 -120q-91 -47 -202 -47q-197 0 -324 140q-125 138 -125 347q0 197 118 332q125 143 324 143q205 0 331 -126zM696 112q82 97 82 296q0 200 -76 333q-81 144 -217 144q-103 0 -169 -80q-73 -87 -73 -240
q0 -69 12 -146q14 -98 43 -175q35 -94 89 -146q63 -61 149 -61q96 0 160 75zM761 1038l-249 211l-248 -211h-70l254 342h127l256 -342h-70z" />
    <glyph glyph-name="uni1ED3" unicode="&#x1ed3;" horiz-adv-x="1024" 
d="M832 816q130 -130 130 -349q0 -177 -110 -320q-60 -77 -142 -120q-91 -47 -202 -47q-197 0 -324 140q-125 138 -125 347q0 197 118 332q125 143 324 143q205 0 331 -126zM696 112q82 97 82 296q0 200 -76 333q-81 144 -217 144q-103 0 -169 -80q-73 -87 -73 -240
q0 -69 12 -146q14 -98 43 -175q35 -94 89 -146q63 -61 149 -61q96 0 160 75zM760 1326l-315 199q-11 7 -20 15l-19 19q-20 25 -20 54l1 12q2 12 8 21q16 31 56 31q39 0 90 -48l301 -303h-82zM762 1038l-250 211l-248 -211h-69l254 342h126l256 -342h-69z" />
    <glyph glyph-name="uni1ED1" unicode="&#x1ed1;" horiz-adv-x="1024" 
d="M832 816q130 -130 130 -349q0 -177 -110 -320q-60 -77 -142 -120q-91 -47 -202 -47q-197 0 -324 140q-125 138 -125 347q0 197 118 332q125 143 324 143q205 0 331 -126zM696 112q82 97 82 296q0 200 -76 333q-81 144 -217 144q-103 0 -169 -80q-73 -87 -73 -240
q0 -69 12 -146q14 -98 43 -175q35 -94 89 -146q63 -61 149 -61q96 0 160 75zM685 1309l301 303q33 33 52 42l19 5l19 1q42 0 59 -30q5 -10 8 -22q1 -8 1 -14q0 -31 -23 -56q-9 -9 -20 -18l-334 -211h-82zM762 1038l-250 211l-248 -211h-69l254 342h126l256 -342h-69z" />
    <glyph glyph-name="uni1ED5" unicode="&#x1ed5;" horiz-adv-x="1024" 
d="M832 816q130 -130 130 -349q0 -177 -110 -320q-60 -77 -142 -120q-91 -47 -202 -47q-197 0 -324 140q-125 138 -125 347q0 197 118 332q125 143 324 143q205 0 331 -126zM696 112q82 97 82 296q0 200 -76 333q-81 144 -217 144q-103 0 -169 -80q-73 -87 -73 -240
q0 -69 12 -146q14 -98 43 -175q35 -94 89 -146q63 -61 149 -61q96 0 160 75zM707 1278q0 41 11 83l9 27q3 9 6 14l24 51q31 63 31 115q0 38 -18 61q-22 27 -56 27q-21 0 -43 -12q-17 -10 -17 -24q0 -6 2 -9q4 -5 6 -8l13 -13q4 -4 4 -6q8 -13 8 -23q0 -44 -54 -44
q-62 0 -62 61q0 58 56 95q43 29 103 29q97 0 144 -52q33 -37 33 -89q0 -29 -25 -71q-17 -30 -41 -56q-37 -40 -54 -69q-17 -30 -27 -87h-53zM762 1038l-250 211l-248 -211h-69l254 342h126l256 -342h-69z" />
    <glyph glyph-name="uni1ED7" unicode="&#x1ed7;" horiz-adv-x="1024" 
d="M832 816q130 -130 130 -349q0 -177 -110 -320q-60 -77 -142 -120q-91 -47 -202 -47q-197 0 -324 140q-125 138 -125 347q0 197 118 332q125 143 324 143q205 0 331 -126zM696 112q82 97 82 296q0 200 -76 333q-81 144 -217 144q-103 0 -169 -80q-73 -87 -73 -240
q0 -69 12 -146q14 -98 43 -175q35 -94 89 -146q63 -61 149 -61q96 0 160 75zM928 1656l-1 -4l-18 -60q-15 -41 -36 -71q-57 -82 -161 -82q-43 0 -84 13l-39 16l-90 42q-45 23 -75 23q-51 0 -81 -34q-11 -13 -20 -31q-3 -7 -7 -15q-2 -6 -5 -14h-59q15 81 62 137
q59 69 153 69q64 0 135 -36l49 -25q11 -5 21 -10l26 -10q31 -11 51 -11q76 0 119 103h60zM762 1038l-250 211l-248 -211h-69l254 342h126l256 -342h-69z" />
    <glyph glyph-name="uni1ED9" unicode="&#x1ed9;" horiz-adv-x="1024" 
d="M832 816q130 -130 130 -349q0 -177 -110 -320q-60 -77 -142 -120q-91 -47 -202 -47q-197 0 -324 140q-125 138 -125 347q0 197 118 332q125 143 324 143q205 0 331 -126zM696 112q82 97 82 296q0 200 -76 333q-81 144 -217 144q-103 0 -169 -80q-73 -87 -73 -240
q0 -69 12 -146q14 -98 43 -175q35 -94 89 -146q63 -61 149 -61q96 0 160 75zM434 -178q29 37 75 37q102 0 102 -102q0 -103 -102 -103q-48 0 -76 36q-23 30 -23 67q0 35 24 65zM762 1038l-250 211l-248 -211h-69l254 342h126l256 -342h-69z" />
    <glyph glyph-name="glyph217" unicode="&#xf9;" horiz-adv-x="1024" 
d="M981 74q-74 -19 -148 -44l-137 -48l-4 4v170l-88 -88q-52 -52 -124 -74q-26 -8 -53 -12l-38 -2q-88 0 -154 51q-90 71 -90 215v516q0 82 -40 110q-16 11 -41 16q-10 2 -23 3l-23 2v29h299v-668q0 -16 5 -36q7 -29 21 -53q41 -67 128 -67t178 74q8 7 13 14q6 8 10 19
q10 25 10 71v482q0 70 -22 93q-31 33 -130 36v35h324v-703q0 -63 15 -85q23 -32 97 -32h15v-28zM585 1038l-315 199q-11 7 -20 15l-19 19q-20 25 -20 54l1 12q2 12 7 21q17 31 57 31q39 0 90 -48l301 -303h-82z" />
    <glyph glyph-name="glyph218" unicode="&#xfa;" horiz-adv-x="1024" 
d="M981 74q-74 -19 -148 -44l-137 -48l-4 4v170l-88 -88q-52 -52 -124 -74q-26 -8 -53 -12l-38 -2q-88 0 -154 51q-90 71 -90 215v516q0 82 -40 110q-16 11 -41 16q-10 2 -23 3l-23 2v29h299v-668q0 -16 5 -36q7 -29 21 -53q41 -67 128 -67t178 74q8 7 13 14q6 8 10 19
q10 25 10 71v482q0 70 -22 93q-31 33 -130 36v35h324v-703q0 -63 15 -85q23 -32 97 -32h15v-28zM362 1038l301 303q33 33 52 42l19 5l19 1q42 0 59 -30q5 -10 7 -22q2 -8 2 -14q0 -31 -23 -56q-9 -9 -20 -18l-334 -211h-82z" />
    <glyph glyph-name="uni1EE7" unicode="&#x1ee7;" horiz-adv-x="1024" 
d="M981 74q-74 -19 -148 -44l-137 -48l-4 4v170l-88 -88q-52 -52 -124 -74q-26 -8 -53 -12l-38 -2q-88 0 -154 51q-90 71 -90 215v516q0 82 -40 110q-16 11 -41 16q-10 2 -23 3l-23 2v29h299v-668q0 -16 5 -36q7 -29 21 -53q41 -67 128 -67t178 74q8 7 13 14q6 8 10 19
q10 25 10 71v482q0 70 -22 93q-31 33 -130 36v35h324v-703q0 -66 17 -87q26 -32 110 -30v-28zM454 1016q0 41 11 83l9 27q3 9 6 14l24 51q31 63 31 115q0 38 -19 61q-22 27 -55 27q-21 0 -43 -12q-17 -10 -17 -24q0 -6 2 -9q3 -5 6 -8l12 -13q4 -4 5 -6q7 -13 7 -23
q0 -44 -53 -44q-63 0 -63 61q0 58 56 95q43 29 104 29q97 0 144 -52q33 -37 33 -89q0 -29 -25 -71q-17 -30 -42 -56q-37 -40 -54 -69q-17 -30 -27 -87h-52z" />
    <glyph glyph-name="utilde" unicode="&#x169;" horiz-adv-x="1024" 
d="M981 74q-74 -19 -148 -44l-137 -48l-4 4v170l-88 -88q-52 -52 -124 -74q-26 -8 -53 -12l-38 -2q-88 0 -154 51q-90 71 -90 215v516q0 82 -40 110q-16 11 -41 16q-10 2 -23 3l-23 2v29h299v-668q0 -16 5 -36q7 -29 21 -53q41 -67 128 -67t178 74q8 7 13 14q6 8 10 19
q10 25 10 71v482q0 70 -22 93q-31 33 -130 36v35h324v-703q0 -66 17 -87q26 -32 110 -30v-28zM849 1307l-1 -4l-18 -60q-15 -41 -35 -71q-57 -82 -161 -82q-43 0 -84 13l-40 16l-89 42q-45 23 -76 23q-51 0 -81 -34q-11 -13 -20 -31q-3 -7 -6 -15q-2 -6 -5 -14h-60
q15 81 62 137q60 69 153 69q65 0 135 -36l50 -25q10 -5 21 -10l25 -10q31 -11 52 -11q75 0 119 103h59z" />
    <glyph glyph-name="uni1EE5" unicode="&#x1ee5;" horiz-adv-x="1024" 
d="M981 74q-74 -19 -148 -44l-137 -48l-4 4v170l-88 -88q-52 -52 -124 -74q-26 -8 -53 -12l-38 -2q-88 0 -154 51q-90 71 -90 215v516q0 82 -40 110q-16 11 -41 16q-10 2 -23 3l-23 2v29h299v-668q0 -16 5 -36q7 -29 21 -53q41 -67 128 -67t178 74q8 7 13 14q6 8 10 19
q10 25 10 71v482q0 70 -22 93q-31 33 -130 36v35h324v-703q0 -66 17 -87q26 -32 110 -30v-28zM434 -178q28 37 74 37q103 0 103 -102q0 -103 -103 -103q-47 0 -75 36q-23 30 -23 67q0 35 24 65z" />
    <glyph glyph-name="uhorn" unicode="&#x1b0;" horiz-adv-x="1024" 
d="M854 746v-527q0 -66 17 -87q26 -32 110 -30v-28q-74 -19 -148 -44l-137 -48l-4 4v170l-88 -88q-52 -52 -123 -74q-27 -8 -54 -12l-38 -2q-87 0 -153 51q-91 71 -91 215v516q0 82 -40 110q-16 11 -41 16q-10 2 -22 3l-24 2v29h299v-668q0 -16 5 -36q7 -29 22 -53
q40 -67 127 -67q88 0 178 74q8 7 13 14q6 8 11 19q9 25 9 71v482q0 70 -22 93q-30 33 -130 36v35h324v-121q38 33 61 69q30 45 30 80q0 25 -26 25l-16 -4q-11 -3 -27 -3q-111 0 -111 90q0 63 45 89q16 9 36 13l25 2q8 0 17 -1q11 -2 21 -5q27 -7 48 -24q58 -45 58 -143
q0 -84 -79 -171q-43 -47 -82 -72z" />
    <glyph glyph-name="uni1EEB" unicode="&#x1eeb;" horiz-adv-x="1024" 
d="M585 1038l-315 199q-11 7 -20 15l-19 19q-20 25 -20 54l1 12q2 12 7 21q17 31 57 31q39 0 90 -48l301 -303h-82zM854 746v-527q0 -63 15 -85q23 -32 97 -32h15v-28q-74 -19 -148 -44l-137 -48l-4 4v170l-88 -88q-52 -52 -124 -74q-26 -8 -53 -12l-38 -2q-88 0 -154 51
q-90 71 -90 215v516q0 82 -40 110q-16 11 -41 16q-10 2 -23 3l-23 2v29h299v-668q0 -16 5 -36q7 -29 21 -53q41 -67 128 -67t178 74q8 7 13 14q6 8 10 19q10 25 10 71v482q0 70 -22 93q-31 33 -130 36v35h324v-121q38 33 61 69q30 45 30 80q0 25 -26 25l-16 -4
q-11 -3 -27 -3q-111 0 -111 90q0 63 45 89q16 9 36 13l25 2q8 0 17 -1q11 -2 21 -5q27 -7 48 -24q58 -45 58 -143q0 -84 -79 -171q-43 -47 -82 -72z" />
    <glyph glyph-name="uni1EE9" unicode="&#x1ee9;" horiz-adv-x="1024" 
d="M362 1038l301 303q33 33 52 42l19 5l19 1q42 0 59 -30q5 -10 7 -22q2 -8 2 -14q0 -31 -23 -56q-9 -9 -20 -18l-334 -211h-82zM854 746v-527q0 -63 15 -85q23 -32 97 -32h15v-28q-74 -19 -148 -44l-137 -48l-4 4v170l-88 -88q-52 -52 -124 -74q-26 -8 -53 -12l-38 -2
q-88 0 -154 51q-90 71 -90 215v516q0 82 -40 110q-16 11 -41 16q-10 2 -23 3l-23 2v29h299v-668q0 -16 5 -36q7 -29 21 -53q41 -67 128 -67t178 74q8 7 13 14q6 8 10 19q10 25 10 71v482q0 70 -22 93q-31 33 -130 36v35h324v-121q38 33 61 69q30 45 30 80q0 25 -26 25
l-16 -4q-11 -3 -27 -3q-111 0 -111 90q0 63 45 89q16 9 36 13l25 2q8 0 17 -1q11 -2 21 -5q27 -7 48 -24q58 -45 58 -143q0 -84 -79 -171q-43 -47 -82 -72z" />
    <glyph glyph-name="uni1EED" unicode="&#x1eed;" horiz-adv-x="1024" 
d="M454 1016q0 41 11 83l9 27q3 9 6 14l24 51q31 63 31 115q0 38 -18 61q-22 27 -56 27q-21 0 -43 -12q-17 -10 -17 -24q0 -6 2 -9q4 -5 6 -8l13 -13q4 -4 4 -6q8 -13 8 -23q0 -44 -54 -44q-62 0 -62 61q0 58 56 95q43 29 103 29q97 0 144 -52q33 -37 33 -89q0 -29 -25 -71
q-17 -30 -41 -56q-37 -40 -54 -69q-17 -30 -27 -87h-53zM854 746v-527q0 -66 17 -87q26 -32 110 -30v-28q-74 -19 -148 -44l-137 -48l-4 4v170l-88 -88q-52 -52 -123 -74q-27 -8 -54 -12l-38 -2q-87 0 -153 51q-91 71 -91 215v516q0 82 -40 110q-16 11 -41 16q-10 2 -22 3
l-24 2v29h299v-668q0 -16 5 -36q7 -29 22 -53q40 -67 127 -67q88 0 178 74q8 7 13 14q6 8 11 19q9 25 9 71v482q0 70 -22 93q-30 33 -130 36v35h324v-121q38 33 61 69q30 45 30 80q0 25 -26 25l-16 -4q-11 -3 -27 -3q-111 0 -111 90q0 63 45 89q16 9 36 13l25 2q8 0 17 -1
q11 -2 21 -5q27 -7 48 -24q58 -45 58 -143q0 -84 -79 -171q-43 -47 -82 -72z" />
    <glyph glyph-name="uni1EEF" unicode="&#x1eef;" horiz-adv-x="1024" 
d="M850 1394l-1 -4l-18 -60q-15 -41 -36 -71q-57 -82 -161 -82q-43 0 -84 13l-39 16l-90 42q-45 23 -75 23q-51 0 -81 -34q-11 -13 -20 -31q-3 -7 -7 -15q-2 -6 -5 -14h-59q15 81 62 137q59 69 153 69q64 0 135 -36l49 -25q11 -5 21 -10l26 -10q31 -11 51 -11q76 0 119 103
h60zM854 746v-527q0 -66 17 -87q26 -32 110 -30v-28q-74 -19 -148 -44l-137 -48l-4 4v170l-88 -88q-52 -52 -123 -74q-27 -8 -54 -12l-38 -2q-87 0 -153 51q-91 71 -91 215v516q0 82 -40 110q-16 11 -41 16q-10 2 -22 3l-24 2v29h299v-668q0 -16 5 -36q7 -29 22 -53
q40 -67 127 -67q88 0 178 74q8 7 13 14q6 8 11 19q9 25 9 71v482q0 70 -22 93q-30 33 -130 36v35h324v-121q38 33 61 69q30 45 30 80q0 25 -26 25l-16 -4q-11 -3 -27 -3q-111 0 -111 90q0 63 45 89q16 9 36 13l25 2q8 0 17 -1q11 -2 21 -5q27 -7 48 -24q58 -45 58 -143
q0 -84 -79 -171q-43 -47 -82 -72z" />
    <glyph glyph-name="uni1EF1" unicode="&#x1ef1;" horiz-adv-x="1024" 
d="M434 -178q29 37 75 37q102 0 102 -102q0 -103 -102 -103q-48 0 -76 36q-23 30 -23 67q0 35 24 65zM854 746v-527q0 -66 17 -87q26 -32 110 -30v-28q-74 -19 -148 -44l-137 -48l-4 4v170l-88 -88q-52 -52 -123 -74q-27 -8 -54 -12l-38 -2q-87 0 -153 51q-91 71 -91 215
v516q0 82 -40 110q-16 11 -41 16q-10 2 -22 3l-24 2v29h299v-668q0 -16 5 -36q7 -29 22 -53q40 -67 127 -67q88 0 178 74q8 7 13 14q6 8 11 19q9 25 9 71v482q0 70 -22 93q-30 33 -130 36v35h324v-121q38 33 61 69q30 45 30 80q0 25 -26 25l-16 -4q-11 -3 -27 -3
q-111 0 -111 90q0 63 45 89q16 9 36 13l25 2q8 0 17 -1q11 -2 21 -5q27 -7 48 -24q58 -45 58 -143q0 -84 -79 -171q-43 -47 -82 -72z" />
    <glyph glyph-name="ohorn" unicode="&#x1a1;" horiz-adv-x="1024" 
d="M697 112q81 97 81 296q0 200 -76 333q-81 144 -217 144q-102 0 -169 -80q-72 -87 -72 -240q0 -69 11 -146q14 -98 43 -175q35 -94 89 -146q63 -61 150 -61q96 0 160 75zM868 777q95 -122 95 -310q0 -177 -111 -320q-60 -77 -142 -120q-91 -47 -202 -47q-197 0 -323 140
q-126 138 -126 347q0 197 119 332q125 143 324 143q205 0 331 -126l5 -5q30 28 50 59q30 45 30 80q0 25 -26 25l-16 -4q-11 -3 -27 -3q-111 0 -111 90q0 63 45 89q16 9 36 13l25 2q8 0 17 -1q11 -2 21 -5q27 -7 48 -24q58 -45 58 -143q0 -84 -79 -171q-21 -23 -41 -41z" />
    <glyph glyph-name="uni1EDD" unicode="&#x1edd;" horiz-adv-x="1024" 
d="M696 112q82 97 82 296q0 200 -76 333q-81 144 -217 144q-103 0 -169 -80q-73 -87 -73 -240q0 -69 12 -146q14 -98 43 -175q35 -94 89 -146q63 -61 149 -61q96 0 160 75zM585 1038l-315 199q-11 7 -20 15l-19 19q-20 25 -20 54l1 12q2 12 8 21q16 31 56 31q39 0 90 -48
l301 -303h-82zM867 776q95 -122 95 -309q0 -177 -110 -320q-60 -77 -142 -120q-91 -47 -202 -47q-197 0 -324 140q-125 138 -125 347q0 197 118 332q125 143 324 143q205 0 331 -126l5 -5q31 28 51 59q30 45 30 80q0 25 -26 25l-16 -4q-11 -3 -27 -3q-111 0 -111 90
q0 63 45 89q16 9 36 13l25 2q8 0 17 -1q11 -2 21 -5q27 -7 48 -24q58 -45 58 -143q0 -84 -79 -171q-21 -24 -42 -42z" />
    <glyph glyph-name="uni1EDB" unicode="&#x1edb;" horiz-adv-x="1024" 
d="M696 112q82 97 82 296q0 200 -76 333q-81 144 -217 144q-103 0 -169 -80q-73 -87 -73 -240q0 -69 12 -146q14 -98 43 -175q35 -94 89 -146q63 -61 149 -61q96 0 160 75zM362 1038l301 303q33 33 52 42l19 5l19 1q42 0 59 -30q5 -10 8 -22q1 -8 1 -14q0 -31 -23 -56
q-9 -9 -20 -18l-334 -211h-82zM867 776q95 -122 95 -309q0 -177 -110 -320q-60 -77 -142 -120q-91 -47 -202 -47q-197 0 -324 140q-125 138 -125 347q0 197 118 332q125 143 324 143q205 0 331 -126l5 -5q31 28 51 59q30 45 30 80q0 25 -26 25l-16 -4q-11 -3 -27 -3
q-111 0 -111 90q0 63 45 89q16 9 36 13l25 2q8 0 17 -1q11 -2 21 -5q27 -7 48 -24q58 -45 58 -143q0 -84 -79 -171q-21 -24 -42 -42z" />
    <glyph glyph-name="uni1EDF" unicode="&#x1edf;" horiz-adv-x="1024" 
d="M696 112q82 97 82 296q0 200 -76 333q-81 144 -217 144q-103 0 -169 -80q-73 -87 -73 -240q0 -69 12 -146q14 -98 43 -175q35 -94 89 -146q63 -61 149 -61q96 0 160 75zM454 1016q0 41 11 83l9 27q3 9 6 14l24 51q31 63 31 115q0 38 -18 61q-22 27 -56 27q-21 0 -43 -12
q-17 -10 -17 -24q0 -6 2 -9q4 -5 6 -8l13 -13q4 -4 4 -6q8 -13 8 -23q0 -44 -54 -44q-62 0 -62 61q0 58 56 95q43 29 103 29q97 0 144 -52q33 -37 33 -89q0 -29 -25 -71q-17 -30 -41 -56q-37 -40 -54 -69q-17 -30 -27 -87h-53zM867 776q95 -122 95 -309q0 -177 -110 -320
q-60 -77 -142 -120q-91 -47 -202 -47q-197 0 -324 140q-125 138 -125 347q0 197 118 332q125 143 324 143q205 0 331 -126l5 -5q31 28 51 59q30 45 30 80q0 25 -26 25l-16 -4q-11 -3 -27 -3q-111 0 -111 90q0 63 45 89q16 9 36 13l25 2q8 0 17 -1q11 -2 21 -5q27 -7 48 -24
q58 -45 58 -143q0 -84 -79 -171q-21 -24 -42 -42z" />
    <glyph glyph-name="uni1EE1" unicode="&#x1ee1;" horiz-adv-x="1024" 
d="M696 112q82 97 82 296q0 200 -76 333q-81 144 -217 144q-103 0 -169 -80q-73 -87 -73 -240q0 -69 12 -146q14 -98 43 -175q35 -94 89 -146q63 -61 149 -61q96 0 160 75zM874 1395l-1 -4l-18 -60q-15 -41 -36 -71q-57 -82 -161 -82q-43 0 -84 13l-39 16l-90 42
q-45 23 -75 23q-51 0 -81 -34q-11 -13 -20 -31q-3 -7 -7 -15q-2 -6 -5 -14h-59q15 81 62 137q59 69 153 69q64 0 135 -36l49 -25q11 -5 21 -10l26 -10q31 -11 51 -11q76 0 119 103h60zM867 776q95 -122 95 -309q0 -177 -110 -320q-60 -77 -142 -120q-91 -47 -202 -47
q-197 0 -324 140q-125 138 -125 347q0 197 118 332q125 143 324 143q205 0 331 -126l5 -5q31 28 51 59q30 45 30 80q0 25 -26 25l-16 -4q-11 -3 -27 -3q-111 0 -111 90q0 63 45 89q16 9 36 13l25 2q8 0 17 -1q11 -2 21 -5q27 -7 48 -24q58 -45 58 -143q0 -84 -79 -171
q-21 -24 -42 -42z" />
    <glyph glyph-name="uni1EE3" unicode="&#x1ee3;" horiz-adv-x="1024" 
d="M696 112q82 97 82 296q0 200 -76 333q-81 144 -217 144q-103 0 -169 -80q-73 -87 -73 -240q0 -69 12 -146q14 -98 43 -175q35 -94 89 -146q63 -61 149 -61q96 0 160 75zM434 -178q29 37 75 37q102 0 102 -102q0 -103 -102 -103q-48 0 -76 36q-23 30 -23 67q0 35 24 65z
M867 776q95 -122 95 -309q0 -177 -110 -320q-60 -77 -142 -120q-91 -47 -202 -47q-197 0 -324 140q-125 138 -125 347q0 197 118 332q125 143 324 143q205 0 331 -126l5 -5q31 28 51 59q30 45 30 80q0 25 -26 25l-16 -4q-11 -3 -27 -3q-111 0 -111 90q0 63 45 89q16 9 36 13
l25 2q8 0 17 -1q11 -2 21 -5q27 -7 48 -24q58 -45 58 -143q0 -84 -79 -171q-21 -24 -42 -42z" />
    <glyph glyph-name="ygrave" unicode="&#x1ef3;" horiz-adv-x="1024" 
d="M972 891q-8 -1 -10 -2q-7 -1 -12 -2q-14 -4 -25 -12q-31 -21 -51 -76l-316 -836q-155 -409 -348 -409q-149 0 -149 118q0 9 2 20q3 16 12 30q24 40 84 40q31 0 84 -18l35 -13q18 -5 26 -5q37 0 75 44q31 37 60 101q54 120 54 170q0 11 -16 48l-345 738q-16 34 -51 51
q-13 6 -29 10l-24 5v29h422v-31l-39 -2q-23 -3 -38 -8q-42 -13 -42 -50q0 -17 8 -41l13 -32l235 -518l174 491q1 4 2 6l8 21q4 11 7 20q16 44 16 56q0 60 -98 57v31h276v-31z" />
    <glyph glyph-name="glyph235" unicode="&#xfd;" horiz-adv-x="1024" 
d="M972 891q-8 -1 -10 -2q-7 -1 -12 -2q-14 -4 -25 -12q-31 -21 -51 -76l-316 -836q-155 -409 -348 -409q-149 0 -149 118q0 9 2 20q3 16 12 30q24 40 84 40q31 0 84 -18l35 -13q18 -5 26 -5q37 0 75 44q31 37 60 101q54 120 54 170q0 11 -16 48l-345 738q-16 34 -51 51
q-13 6 -29 10l-24 5v29h422v-31l-39 -2q-23 -3 -38 -8q-42 -13 -42 -50q0 -17 8 -41l13 -32l235 -518l174 491q1 4 2 6l8 21q4 11 7 20q16 44 16 56q0 57 -90 57h-8v31h276v-31zM444 1038l301 303q32 33 52 42l18 5l20 1q41 0 58 -30q6 -10 8 -22q1 -8 1 -14q0 -31 -23 -56
q-8 -9 -20 -18l-333 -211h-82z" />
    <glyph glyph-name="uni1EF7" unicode="&#x1ef7;" horiz-adv-x="1024" 
d="M972 891q-8 -1 -10 -2q-7 -1 -12 -2q-14 -4 -25 -12q-31 -21 -51 -76l-316 -836q-155 -409 -348 -409q-149 0 -149 118q0 9 2 20q3 16 12 30q24 40 84 40q31 0 84 -18l35 -13q18 -5 26 -5q37 0 75 44q31 37 60 101q54 120 54 170q0 11 -16 48l-345 738q-16 34 -51 51
q-13 6 -29 10l-24 5v29h422v-31l-39 -2q-23 -3 -38 -8q-42 -13 -42 -50q0 -17 8 -41l13 -32l235 -518l174 491q1 4 2 6l8 21q4 11 7 20q16 44 16 56q0 60 -98 57v31h276v-31zM514 1016q0 41 12 83q3 12 9 27q3 9 5 14l25 51q31 63 31 115q0 38 -19 61q-22 27 -56 27
q-20 0 -42 -12q-17 -10 -17 -24q0 -6 2 -9q3 -5 6 -8l12 -13q4 -4 5 -6q7 -13 7 -23q0 -44 -53 -44q-63 0 -63 61q0 58 56 95q43 29 104 29q96 0 144 -52q33 -37 33 -89q0 -29 -25 -71q-17 -30 -42 -56q-37 -40 -54 -69q-17 -30 -27 -87h-53z" />
    <glyph glyph-name="uni1EF9" unicode="&#x1ef9;" horiz-adv-x="1024" 
d="M972 891q-8 -1 -10 -2q-7 -1 -12 -2q-14 -4 -25 -12q-31 -21 -51 -76l-316 -836q-155 -409 -348 -409q-149 0 -149 118q0 9 2 20q3 16 12 30q24 40 84 40q31 0 84 -18l35 -13q18 -5 26 -5q37 0 75 44q31 37 60 101q54 120 54 170q0 11 -16 48l-345 738q-16 34 -51 51
q-13 6 -29 10l-24 5v29h422v-31l-39 -2q-23 -3 -38 -8q-42 -13 -42 -50q0 -17 8 -41l13 -32l235 -518l174 491q1 4 2 6l8 21q4 11 7 20q16 44 16 56q0 60 -98 57v31h276v-31zM902 1307l-1 -4l-18 -60q-15 -41 -36 -71q-57 -82 -160 -82q-43 0 -85 13l-39 16l-89 42
q-45 23 -76 23q-51 0 -81 -34q-11 -13 -20 -31q-3 -7 -6 -15q-3 -6 -6 -14h-59q15 81 62 137q60 69 153 69q65 0 135 -36l49 -25l22 -10l25 -10q31 -11 52 -11q75 0 118 103h60z" />
    <glyph glyph-name="uni1EF5" unicode="&#x1ef5;" horiz-adv-x="1024" 
d="M972 891q-8 -1 -10 -2q-7 -1 -12 -2q-14 -4 -25 -12q-31 -21 -51 -76l-316 -836q-155 -409 -348 -409q-149 0 -149 118q0 9 2 20q3 16 12 30q24 40 84 40q31 0 84 -18l35 -13q18 -5 26 -5q37 0 75 44q31 37 60 101q54 120 54 170q0 11 -16 48l-345 738q-16 34 -51 51
q-13 6 -29 10l-24 5v29h422v-31l-39 -2q-23 -3 -38 -8q-42 -13 -42 -50q0 -17 8 -41l13 -32l235 -518l174 491q1 4 2 6l8 21q4 11 7 20q16 44 16 56q0 60 -98 57v31h276v-31zM564 -178q29 37 75 37q102 0 102 -102q0 -103 -102 -103q-48 0 -75 36q-23 30 -23 67q0 35 23 65z
" />
    <glyph glyph-name="divide" unicode="&#xf7;" horiz-adv-x="1706" 
 />
    <glyph glyph-name="ugrave" horiz-adv-x="582" 
 />
    <glyph glyph-name="uacute" horiz-adv-x="580" 
 />
    <glyph glyph-name="yacute" horiz-adv-x="629" 
 />
    <glyph glyph-name="Ccaron" unicode="&#x10c;" horiz-adv-x="1274" 
 />
    <glyph glyph-name="ccaron" unicode="&#x10d;" horiz-adv-x="922" 
 />
    <glyph glyph-name="Dslash" unicode="&#x110;" 
d="M32 1356h553q380 0 593 -169q224 -178 224 -513q0 -114 -35 -220q-41 -125 -124 -219q-96 -109 -242 -168q-165 -67 -387 -67h-582v39q115 6 148 41q32 34 32 143v422h-170v90h170v398q0 113 -31 144q-30 31 -149 40v39zM720 645h-299v-485q0 -84 123 -84h29q19 0 36 1
q47 2 89 8q121 17 213 65q120 63 187 177q81 138 81 345q0 138 -42 249q-48 125 -149 216q-81 72 -175 104q-114 39 -296 39q-64 0 -84 -25q-12 -14 -12 -55v-465h299v-90z" />
    <glyph glyph-name="dcroat" unicode="&#x111;" horiz-adv-x="1024" 
d="M696 680q-10 98 -74 155q-58 50 -137 50q-100 0 -170 -85q-84 -103 -84 -294q0 -212 91 -324q77 -96 192 -96q155 0 182 123v471zM868 1037v-804q0 -73 18 -92q25 -29 120 -22v-33q-31 -11 -74 -26l-227 -80l-9 6v125h-4q-36 -54 -89 -87q-73 -44 -175 -44q-44 0 -92 12
q-70 19 -124 60q-71 53 -110 138q-47 103 -47 248q0 202 126 353q127 151 298 151q117 0 217 -88v183h-380v94h380v43q0 56 -11 75q-18 29 -79 29h-23q-15 -1 -26 -2v33q84 21 152 42q80 23 149 48l10 -4v-264h134v-94h-134z" />
    <glyph glyph-name="quoteleft" unicode="&#x2018;" horiz-adv-x="681" 
d="M483 1346q-90 -58 -135 -127q-33 -51 -33 -91q0 -28 29 -28l18 4q12 4 31 4q50 0 83 -21q44 -26 44 -81q0 -61 -41 -93q-32 -26 -78 -26q-22 0 -46 7q-31 9 -55 27q-65 52 -65 162q0 97 92 198q75 83 137 103z" />
    <glyph glyph-name="quoteright" unicode="&#x2019;" horiz-adv-x="681" 
d="M272 926q90 57 135 126q33 51 33 91q0 28 -29 28l-18 -4q-13 -4 -31 -4q-50 0 -83 21q-44 26 -44 82q0 60 40 92q33 26 79 26q22 0 46 -6q30 -9 54 -28q66 -51 66 -162q0 -97 -92 -198q-76 -82 -138 -103z" />
    <glyph glyph-name="quotedblleft" unicode="&#x201c;" horiz-adv-x="909" 
d="M336 1346q-90 -58 -135 -127q-33 -51 -33 -91q0 -28 29 -28l18 4q12 4 31 4q50 0 83 -21q44 -26 44 -81q0 -61 -41 -93q-32 -26 -78 -26q-22 0 -46 7q-31 9 -55 27q-65 52 -65 162q0 97 92 198q75 83 137 103zM811 1346q-90 -58 -135 -127q-33 -51 -33 -91q0 -28 29 -28
l18 4q12 4 31 4q50 0 83 -21q44 -26 44 -81q0 -61 -40 -93q-33 -26 -79 -26q-22 0 -46 7q-31 9 -55 27q-65 52 -65 162q0 97 92 198q75 83 138 103z" />
    <glyph glyph-name="quotedblright" unicode="&#x201d;" horiz-adv-x="909" 
d="M98 926q90 57 135 126q33 51 33 91q0 28 -29 28l-18 -4q-13 -4 -31 -4q-50 0 -83 21q-44 26 -44 82q0 60 40 92q33 26 79 26q22 0 46 -6q30 -9 54 -28q66 -51 66 -162q0 -97 -92 -198q-76 -82 -138 -103zM573 926q90 57 135 126q33 51 33 91q0 28 -29 28l-18 -4
q-12 -4 -31 -4q-50 0 -83 21q-44 26 -44 82q0 60 40 92q33 26 79 26q22 0 46 -6q31 -9 55 -28q65 -51 65 -162q0 -97 -92 -198q-75 -82 -138 -103z" />
    <glyph glyph-name="ellipsis" unicode="&#x2026;" horiz-adv-x="2048" 
d="M267 4q-40 31 -40 84q0 117 113 117q114 0 114 -117q0 -51 -41 -84q-34 -27 -73 -27q-40 0 -73 27zM949 4q-40 31 -40 84q0 117 113 117q114 0 114 -117q0 -51 -41 -84q-34 -27 -73 -27q-40 0 -73 27zM1631 4q-40 31 -40 84q0 117 113 117q114 0 114 -117q0 -51 -41 -84
q-34 -27 -73 -27q-40 0 -73 27z" />
  </font>
</defs>
</svg>
