<?xml version="1.0" standalone="no"?>
<!DOCTYPE svg PUBLIC "-//W3C//DTD SVG 1.1//EN" "http://www.w3.org/Graphics/SVG/1.1/DTD/svg11.dtd" >
<svg xmlns="http://www.w3.org/2000/svg" xmlns:xlink="http://www.w3.org/1999/xlink" version="1.1">
<metadata>
Created by FontForge 20150318 at Thu Apr  9 09:19:01 2015
 By uniteet7
Copyright (c) 2014 by . All rights reserved.
</metadata>
<defs>
<font id="GothamRoundedMedium-Medium" horiz-adv-x="587" >
  <font-face 
    font-family="Gotham Rounded Medium"
    font-weight="500"
    font-stretch="normal"
    units-per-em="1000"
    panose-1="2 0 0 0 0 0 0 0 0 0"
    ascent="800"
    descent="-200"
    x-height="528"
    cap-height="705"
    bbox="-49 -275 1180 1131.5"
    underline-thickness="50"
    underline-position="-50"
    unicode-range="U+000D-FB04"
  />
<missing-glyph horiz-adv-x="500" 
d="M0 800h500v-1000h-500v1000zM250 360l179 390h-358zM222 300l-172 376v-752zM278 300l172 -376v752zM71 -150h358l-179 390z" />
    <glyph glyph-name=".notdef" horiz-adv-x="500" 
d="M0 800h500v-1000h-500v1000zM250 360l179 390h-358zM222 300l-172 376v-752zM278 300l172 -376v752zM71 -150h358l-179 390z" />
    <glyph glyph-name="NUL" horiz-adv-x="0" 
 />
    <glyph glyph-name="NUL" horiz-adv-x="0" 
 />
    <glyph glyph-name="nonmarkingreturn" unicode="&#xd;" horiz-adv-x="300" 
 />
    <glyph glyph-name="space" unicode=" " horiz-adv-x="300" 
 />
    <glyph glyph-name="D" unicode="D" horiz-adv-x="782" 
d="M90 638q0 26 18 44t44 18h199q82 0 150.5 -26.5t118 -73.5t76.5 -110.5t27 -137.5v-2q0 -74 -27 -138t-76.5 -111t-118 -74t-150.5 -27h-199q-26 0 -44 18t-18 44v576zM351 112q55 0 100 17.5t76.5 49t49 75t17.5 94.5v2q0 51 -17.5 95t-49 75.5t-76.5 49.5t-100 18h-138
v-476h138z" />
    <glyph glyph-name="E" unicode="E" horiz-adv-x="670" 
d="M152 0q-26 0 -44 18t-18 44v576q0 26 18 44t44 18h407q23 0 39 -16t16 -39t-16 -39t-39 -16h-346v-182h301q23 0 39 -16.5t16 -39.5t-16 -38.5t-39 -15.5h-301v-188h351q23 0 39 -16t16 -39t-16 -39t-39 -16h-412v0z" />
    <glyph glyph-name="F" unicode="F" horiz-adv-x="656" 
d="M90 638q0 26 18 44t44 18h408q23 0 39.5 -16.5t16.5 -39.5t-16.5 -39.5t-39.5 -16.5h-347v-191h302q23 0 39.5 -16.5t16.5 -39.5t-16.5 -39.5t-39.5 -16.5h-302v-229q0 -26 -17.5 -43.5t-43.5 -17.5t-44 17.5t-18 43.5v582z" />
    <glyph glyph-name="G" unicode="G" horiz-adv-x="784" 
d="M422 -12q-82 0 -149 27.5t-114.5 76t-73.5 114t-26 142.5v2q0 73 26.5 139t74.5 115.5t114.5 78.5t145.5 29t135 -18t104 -53q9 -7 17 -19.5t8 -30.5q0 -25 -17.5 -43t-43.5 -18q-12 0 -21 4.5t-17 9.5q-34 25 -73.5 40t-96.5 15q-48 0 -89.5 -20t-72 -53.5t-48 -78.5
t-17.5 -95v-2q0 -54 17 -100t48.5 -79t75 -52t97.5 -19q50 0 93.5 14.5t75.5 38.5v131h-138q-23 0 -39 15t-16 38t16 38.5t39 15.5h195q26 0 44 -18t18 -44v-187q0 -51 -43 -78q-45 -30 -107.5 -53t-141.5 -23z" />
    <glyph glyph-name="H" unicode="H" horiz-adv-x="760" 
d="M90 644q0 26 18 43.5t44 17.5t43.5 -17.5t17.5 -43.5v-235h334v235q0 26 17.5 43.5t43.5 17.5t44 -17.5t18 -43.5v-588q0 -26 -18 -43.5t-44 -17.5t-43.5 17.5t-17.5 43.5v239h-334v-239q0 -26 -17.5 -43.5t-43.5 -17.5t-44 17.5t-18 43.5v588z" />
    <glyph glyph-name="I" unicode="I" horiz-adv-x="317" 
d="M97 644q0 26 18 43.5t44 17.5t43.5 -17.5t17.5 -43.5v-588q0 -26 -17.5 -43.5t-43.5 -17.5t-44 17.5t-18 43.5v588z" />
    <glyph glyph-name="J" unicode="J" horiz-adv-x="560" 
d="M245 -10q-64 0 -111 22t-80 55q-8 8 -14.5 20t-6.5 26q0 25 17 42t42 17q12 0 21 -3.5t17 -10.5q26 -26 52.5 -40t61.5 -14q51 0 82 33.5t31 104.5v402q0 26 18 43.5t44 17.5t44 -17.5t18 -43.5v-406q0 -63 -17.5 -109t-48.5 -77t-74 -46.5t-96 -15.5z" />
    <glyph glyph-name="K" unicode="K" horiz-adv-x="713" 
d="M90 644q0 26 18 43.5t44 17.5t43.5 -17.5t17.5 -43.5v-296l332 334q11 11 22.5 17t28.5 6q26 0 41.5 -17t15.5 -40q0 -26 -22 -46l-218 -210l236 -293q8 -10 12.5 -20t4.5 -24q0 -26 -18 -43t-44 -17q-18 0 -30 8t-22 21l-225 287l-114 -110v-145q0 -26 -17.5 -43.5
t-43.5 -17.5t-44 17.5t-18 43.5v588z" />
    <glyph glyph-name="L" unicode="L" horiz-adv-x="619" 
d="M90 644q0 26 18 43.5t44 17.5t43.5 -17.5t17.5 -43.5v-532h317q23 0 39.5 -16.5t16.5 -39.5t-16.5 -39.5t-39.5 -16.5h-378q-26 0 -44 18t-18 44v582z" />
    <glyph glyph-name="M" unicode="M" horiz-adv-x="868" 
d="M90 642q0 26 18 44t44 18h13q20 0 34 -9.5t23 -23.5l212 -332l213 333q20 32 56 32h13q26 0 44 -18t18 -44v-586q0 -26 -18 -43.5t-44 -17.5q-25 0 -43 18t-18 43v420l-171 -257q-10 -15 -22.5 -23.5t-29.5 -8.5t-29 8.5t-22 23.5l-170 255v-419q0 -26 -17.5 -43
t-43.5 -17t-43 17t-17 43v587z" />
    <glyph glyph-name="N" unicode="N" horiz-adv-x="790" 
d="M90 642q0 26 18 44t44 18h13q23 0 37 -10t27 -26l350 -453v430q0 25 17.5 42.5t42.5 17.5q26 0 43.5 -17.5t17.5 -42.5v-588q0 -26 -17 -43.5t-43 -17.5h-5q-22 0 -36.5 10t-27.5 27l-360 466v-444q0 -25 -17.5 -42.5t-42.5 -17.5q-26 0 -43.5 17.5t-17.5 42.5v587z" />
    <glyph glyph-name="O" unicode="O" horiz-adv-x="850" 
d="M424 -12q-81 0 -148 28.5t-115 77.5t-75 114.5t-27 139.5v2q0 74 27 139.5t76 115t116 78.5t148 29t148 -28.5t115 -77.5t75 -114.5t27 -139.5v-2q0 -74 -27 -139.5t-76 -115t-116 -78.5t-148 -29zM426 102q52 0 95.5 19.5t74.5 52.5t48.5 78t17.5 96v2q0 51 -17.5 96.5
t-49 79t-75.5 53.5t-96 20t-95.5 -19.5t-74.5 -53t-48.5 -78.5t-17.5 -96v-2q0 -51 17.5 -96t49 -79t75.5 -53.5t96 -19.5z" />
    <glyph glyph-name="P" unicode="P" horiz-adv-x="668" 
d="M90 638q0 26 18 44t44 18h214q61 0 110.5 -16.5t84 -47.5t53 -74t18.5 -96v-2q0 -59 -22 -103.5t-60 -74.5t-89 -45.5t-109 -15.5h-139v-169q0 -26 -17.5 -43.5t-43.5 -17.5t-44 17.5t-18 43.5v582zM356 336q70 0 110.5 35t40.5 90v2q0 62 -41 93.5t-110 31.5h-143v-252
h143z" />
    <glyph glyph-name="Q" unicode="Q" horiz-adv-x="850" 
d="M424 -12q-81 0 -148 28.5t-115 77.5t-75 114.5t-27 139.5v2q0 74 27 139.5t76 115t116 78.5t148 29t148 -28.5t115 -77.5t75 -114.5t27 -139.5v-2q0 -60 -18.5 -114.5t-52.5 -100.5l45 -37q11 -9 17 -20.5t6 -27.5q0 -24 -17 -41.5t-41 -17.5q-25 0 -43 18l-50 45
q-45 -32 -98.5 -49t-114.5 -17zM460 208q-11 9 -17 20.5t-6 27.5q0 24 17 41.5t41 17.5q14 0 23 -4.5t20 -13.5l90 -82q34 59 34 133v2q0 51 -17.5 96.5t-49 79t-75.5 53.5t-96 20t-95.5 -19.5t-74.5 -53t-48.5 -78.5t-17.5 -96v-2q0 -51 17.5 -96t49 -79t75.5 -53.5
t96 -19.5q35 0 65 8.5t56 23.5z" />
    <glyph glyph-name="Q.alt" horiz-adv-x="850" 
d="M791 350q0 -77 -28.5 -143.5t-80.5 -117.5l75 -76q13 -14 19.5 -26.5t6.5 -27.5q0 -29 -20.5 -47.5t-46.5 -18.5q-35 0 -63 32l-86 90q-32 -13 -68 -20t-75 -7q-81 0 -148 28.5t-115 77.5t-75 114.5t-27 139.5v2q0 74 27 139.5t76 115t116 78.5t148 29t148 -28.5
t115 -77.5t75 -114.5t27 -139.5v-2zM662 350q0 51 -17.5 96.5t-49 79t-75.5 53.5t-96 20t-95.5 -19.5t-74.5 -53t-48.5 -78.5t-17.5 -96v-2q0 -51 17.5 -96t49 -79t75.5 -53.5t96 -19.5t95.5 19.5t74.5 52.5t48.5 78t17.5 96v2z" />
    <glyph glyph-name="R" unicode="R" horiz-adv-x="723" 
d="M90 638q0 26 18 44t44 18h250q66 0 117 -18.5t85 -51.5q28 -29 43 -67t15 -84v-2q0 -42 -11.5 -76t-32.5 -60t-50.5 -44t-64.5 -29l134 -169q9 -11 14.5 -22t5.5 -25q0 -26 -18 -41.5t-41 -15.5q-21 0 -35 9t-25 23l-170 217h-155v-188q0 -26 -17.5 -43.5t-43.5 -17.5
t-44 17.5t-18 43.5v582zM393 353q66 0 105 31.5t39 85.5v2q0 57 -38 86.5t-107 29.5h-179v-235h180z" />
    <glyph glyph-name="S" unicode="S" horiz-adv-x="640" 
d="M335 -10q-145 0 -263 88q-11 8 -17.5 20t-6.5 27q0 24 17 40.5t41 16.5q13 0 21.5 -3t14.5 -8q44 -35 91.5 -53.5t104.5 -18.5t90.5 24.5t33.5 63.5v2q0 19 -6.5 33.5t-24 27.5t-48 24t-79.5 22q-56 13 -99.5 29.5t-73 40t-45 57.5t-15.5 82v2q0 45 18 82.5t49.5 64
t75.5 41.5t96 15q66 0 120 -16.5t102 -48.5q11 -6 19 -18.5t8 -30.5q0 -24 -17 -40.5t-41 -16.5q-17 0 -32 9q-41 26 -80 39.5t-81 13.5q-54 0 -84 -24t-30 -59v-2q0 -20 7 -35.5t26 -28t51 -23.5t83 -23q55 -14 97 -31t70.5 -41.5t42.5 -57t14 -75.5v-2q0 -49 -18.5 -88
t-51.5 -66t-79 -41t-101 -14z" />
    <glyph glyph-name="T" unicode="T" horiz-adv-x="648" 
d="M262 586h-170q-24 0 -40.5 17t-16.5 40t16.5 40t40.5 17h465q23 0 39.5 -17t16.5 -40t-16.5 -40t-39.5 -17h-171v-530q0 -26 -18 -43.5t-44 -17.5t-44 17.5t-18 43.5v530z" />
    <glyph glyph-name="U" unicode="U" horiz-adv-x="757" 
d="M377 -11q-68 0 -123 19.5t-94 58.5t-60 96.5t-21 133.5v347q0 26 18 43.5t44 17.5t43.5 -17.5t17.5 -43.5v-342q0 -98 47 -148.5t130 -50.5q82 0 129 48.5t47 145.5v347q0 26 18 43.5t44 17.5t43.5 -17.5t17.5 -43.5v-341q0 -78 -21.5 -137t-60.5 -98.5t-94.5 -59
t-124.5 -19.5z" />
    <glyph glyph-name="V" unicode="V" horiz-adv-x="733" 
d="M363 -10q-26 0 -43 13.5t-27 36.5l-245 576q-3 7 -5 14t-2 15q0 25 18 42.5t44 17.5q24 0 39.5 -12t23.5 -32l202 -505l205 509q6 16 21.5 28t37.5 12q26 0 43.5 -17t17.5 -42q0 -7 -2 -14t-4 -12l-246 -580q-10 -23 -27.5 -36.5t-43.5 -13.5h-7v0z" />
    <glyph glyph-name="W" unicode="W" horiz-adv-x="1099" 
d="M47 621q-5 12 -5 24q0 26 18.5 43t44.5 17q23 0 39 -12.5t22 -32.5l161 -481l158 479q8 22 23.5 35.5t38.5 13.5h9q23 0 39 -13.5t23 -35.5l158 -479l161 482q7 19 22 31.5t38 12.5q25 0 43 -17t18 -42q0 -6 -2 -13t-4 -12l-207 -580q-8 -23 -24.5 -37t-39.5 -14h-12
q-23 0 -39 13.5t-24 37.5l-156 457l-156 -457q-8 -24 -24.5 -37.5t-39.5 -13.5h-12q-23 0 -39 13.5t-25 37.5z" />
    <glyph glyph-name="X" unicode="X" horiz-adv-x="714" 
d="M54 52q0 13 5 24t13 22l208 258l-196 243q-8 10 -13.5 21.5t-5.5 24.5q0 26 17.5 43t43.5 17q20 0 32.5 -7.5t23.5 -22.5l177 -233l175 229q12 17 26 25.5t34 8.5t38 -15t18 -41q0 -14 -5 -25t-14 -22l-196 -244l206 -257q8 -10 13.5 -21t5.5 -25q0 -26 -17.5 -43
t-43.5 -17q-20 0 -32.5 7.5t-23.5 22.5l-188 245l-185 -241q-13 -17 -26.5 -25.5t-33.5 -8.5q-21 0 -38.5 15.5t-17.5 41.5z" />
    <glyph glyph-name="Y" unicode="Y" horiz-adv-x="696" 
d="M287 272l-241 331q-6 9 -10 19.5t-4 23.5q0 25 18 42t44 17q20 0 34.5 -10t25.5 -27l195 -281l198 282q11 17 25 27t34 10q27 0 43.5 -17.5t16.5 -42.5q0 -13 -5 -24t-12 -20l-239 -327v-219q0 -26 -18 -43.5t-44 -17.5t-43.5 17.5t-17.5 43.5v216z" />
    <glyph glyph-name="Z" unicode="Z" horiz-adv-x="702" 
d="M116 0q-22 0 -38.5 16t-16.5 38v3q0 31 23 57l394 477h-351q-22 0 -38 15.5t-16 38.5t16 39t38 16h460q23 0 39 -16t16 -38v-3q0 -29 -22 -57l-395 -477h364q23 0 39 -16t16 -39t-16 -38.5t-39 -15.5h-473v0z" />
    <glyph glyph-name="a" unicode="a" 
d="M228 -11q-37 0 -71 10.5t-59.5 31t-41 51t-15.5 70.5v2q0 43 16 75t44.5 53t69 31.5t88.5 10.5q45 0 78 -6t64 -16v13q0 57 -33.5 86t-97.5 29q-35 0 -63.5 -5.5t-53.5 -15.5q-11 -3 -19 -3q-21 0 -36 14.5t-15 35.5q0 17 9.5 30t23.5 18q38 14 78 22.5t92 8.5
q118 0 175 -59q29 -29 43 -70t14 -93v-260q0 -25 -17 -41.5t-42 -16.5q-26 0 -42.5 15.5t-16.5 35.5v20q-27 -32 -69 -54.5t-103 -22.5zM262 77q30 0 56 8t44.5 23t29.5 36t11 46v36q-23 9 -53.5 15t-66.5 6q-59 0 -91.5 -23t-32.5 -65v-2q0 -38 29.5 -59t73.5 -21z" />
    <glyph glyph-name="a.alt" horiz-adv-x="671" 
d="M474 474q0 25 17.5 42.5t42.5 17.5q26 0 43.5 -17.5t17.5 -43.5v-418q0 -26 -17.5 -43t-42.5 -17q-26 0 -43.5 17t-17.5 43v33q-29 -41 -72.5 -70t-107.5 -29q-47 0 -91 18t-78 53t-55 86t-21 117v2q0 66 20.5 117t54.5 86t78.5 53t91.5 18q33 0 59.5 -7.5t48.5 -20.5
t40 -29.5t32 -35.5v28zM323 434q-31 0 -58.5 -11.5t-48.5 -33.5t-33 -53.5t-12 -70.5v-2q0 -38 12 -69.5t33 -53.5t48.5 -34t58.5 -12q30 0 58 12t49 34.5t33.5 53.5t12.5 69v2q0 38 -12.5 69.5t-33.5 53.5t-49 34t-58 12z" />
    <glyph glyph-name="b" unicode="b" horiz-adv-x="671" 
d="M76 675q0 26 17 43t43 17t43.5 -17t17.5 -43v-235q29 41 72 70t108 29q46 0 90.5 -18t78.5 -53t55 -86t21 -117v-2q0 -66 -20.5 -117t-55 -86t-78.5 -53t-91 -18q-66 0 -109 28t-71 65v-27q0 -25 -17.5 -42.5t-43.5 -17.5q-25 0 -42.5 17.5t-17.5 42.5v620zM348 94
q31 0 58.5 12t48 33.5t32.5 53t12 70.5v2q0 38 -12 69.5t-32.5 53.5t-48 34t-58.5 12t-59 -12t-49 -34.5t-33.5 -53.5t-12.5 -69v-2q0 -38 12.5 -69t33.5 -53.5t49 -34.5t59 -12z" />
    <glyph glyph-name="c" unicode="c" horiz-adv-x="571" 
d="M320 -12q-59 0 -109 21.5t-86.5 58.5t-57 87t-20.5 106v2q0 56 20.5 106.5t57.5 88t87 59.5t110 22q63 0 107 -18.5t78 -47.5q6 -5 12.5 -16t6.5 -26q0 -23 -16.5 -39t-39.5 -16q-11 0 -20.5 3.5t-15.5 8.5q-23 20 -50 32.5t-63 12.5q-33 0 -61 -13.5t-48.5 -36
t-32 -53.5t-11.5 -65v-2q0 -35 11.5 -66t32.5 -54t50 -36t64 -13q36 0 64.5 13t53.5 34q5 5 13.5 9t19.5 4q22 0 37 -15.5t15 -37.5q0 -24 -17 -38q-35 -34 -80.5 -54.5t-111.5 -20.5z" />
    <glyph glyph-name="d" unicode="d" horiz-adv-x="671" 
d="M595 55q0 -26 -17.5 -43t-42.5 -17q-26 0 -43.5 17t-17.5 43v33q-29 -41 -72.5 -70t-107.5 -29q-47 0 -91 18t-78 53t-55 86t-21 117v2q0 66 20.5 117t54.5 86t78.5 53t91.5 18q33 0 59.5 -7.5t48.5 -20.5t40 -29.5t32 -35.5v229q0 26 17.5 43t42.5 17q26 0 43.5 -17
t17.5 -43v-620zM323 434q-31 0 -58.5 -11.5t-48.5 -33.5t-33 -53.5t-12 -70.5v-2q0 -38 12 -69.5t33 -53.5t48.5 -34t58.5 -12q30 0 58 12t49 34.5t33.5 53.5t12.5 69v2q0 38 -12.5 69.5t-33.5 53.5t-49 34t-58 12z" />
    <glyph glyph-name="e" unicode="e" horiz-adv-x="604" 
d="M438 301q-3 29 -13 54.5t-27 44t-40.5 29.5t-53.5 11q-56 0 -92.5 -38.5t-44.5 -100.5h271zM508 58q-36 -32 -82 -51t-108 -19q-57 0 -106.5 20t-86 56t-57.5 86.5t-21 111.5v2q0 57 19 107t53.5 87.5t81.5 59t104 21.5q63 0 110 -23.5t78.5 -61t47 -83.5t15.5 -92
q0 -26 -17 -42t-40 -16h-331q10 -65 51.5 -99.5t100.5 -34.5q38 0 68.5 12.5t56.5 33.5q7 5 13.5 8t17.5 3q20 0 34 -14t14 -35q0 -11 -4.5 -20.5t-11.5 -16.5z" />
    <glyph glyph-name="f" unicode="f" horiz-adv-x="376" 
d="M103 424h-21q-21 0 -36 14.5t-15 35.5t15 36t36 15h21v39q0 87 43 130q42 42 119 42q18 0 33 -1.5t28 -3.5q17 -2 29.5 -16t12.5 -34q0 -21 -15 -36t-36 -14q-5 1 -12 1.5t-13 0.5q-70 0 -70 -80v-29h94q22 0 36.5 -14.5t14.5 -35.5t-15 -35.5t-36 -14.5h-92v-369
q0 -25 -17.5 -42.5t-43.5 -17.5q-25 0 -42.5 17.5t-17.5 42.5v369z" />
    <glyph glyph-name="g" unicode="g" horiz-adv-x="671" 
d="M311 -162q-56 0 -106 12t-98 35q-34 13 -34 48q0 20 15 35t36 15q12 0 22 -5q36 -20 76 -31t86 -11q81 0 124 41t43 121v41q-33 -43 -77 -70t-109 -27q-47 0 -90 17t-76.5 48.5t-53.5 77.5t-20 104v2q0 58 20 104.5t53.5 78t77 48.5t89.5 17q67 0 110.5 -26.5t74.5 -63.5
v25q0 25 17.5 42.5t42.5 17.5q26 0 43.5 -17.5t17.5 -43.5v-365q0 -132 -67 -199q-36 -36 -90.5 -53.5t-126.5 -17.5zM321 145q31 0 59.5 10.5t49.5 29.5t33.5 46t12.5 59v2q0 32 -12.5 59t-33.5 46t-49.5 29.5t-59.5 10.5q-32 0 -59 -10.5t-47.5 -29.5t-32 -45.5
t-11.5 -59.5v-2q0 -32 12 -59t32 -46t47.5 -29.5t58.5 -10.5z" />
    <glyph glyph-name="h" unicode="h" horiz-adv-x="620" 
d="M76 675q0 25 17 42.5t43 17.5t43.5 -17.5t17.5 -42.5v-228q13 18 28.5 35t36 29.5t45 20t55.5 7.5q90 0 139 -55t49 -147v-282q0 -26 -17 -43t-43 -17t-43.5 17t-17.5 43v245q0 62 -29.5 95.5t-83.5 33.5q-53 0 -86 -34.5t-33 -96.5v-243q0 -26 -17.5 -43t-43.5 -17
q-25 0 -42.5 17t-17.5 43v620z" />
    <glyph glyph-name="i" unicode="i" horiz-adv-x="286" 
d="M74 670q0 27 20 43t49 16t49 -16t20 -43v-6q0 -27 -20 -43.5t-49 -16.5t-49 16.5t-20 43.5v6zM83 473q0 26 17 43.5t43 17.5t43.5 -17.5t17.5 -43.5v-418q0 -26 -17.5 -43t-43.5 -17q-25 0 -42.5 17t-17.5 43v418z" />
    <glyph glyph-name="j" unicode="j" horiz-adv-x="286" 
d="M49 -163q-29 1 -47.5 13t-18.5 37q0 23 14 36.5t34 13.5q2 0 4 -0.5t3 -0.5q20 0 32.5 13.5t12.5 43.5v480q0 26 17 43.5t43 17.5t43.5 -17.5t17.5 -43.5v-480q0 -81 -39.5 -118.5t-106.5 -37.5h-9zM74 670q0 27 20 43t49 16t49 -16t20 -43v-6q0 -27 -20 -43.5t-49 -16.5
t-49 16.5t-20 43.5v6z" />
    <glyph glyph-name="k" unicode="k" horiz-adv-x="580" 
d="M76 675q0 25 17 42.5t43 17.5t43.5 -17.5t17.5 -42.5v-390l227 223q12 12 24 19t28 7q24 0 38.5 -16.5t14.5 -38.5q0 -15 -7 -27t-20 -24l-140 -129l160 -209q8 -11 12 -20t4 -20q0 -25 -17 -40t-40 -15q-18 0 -30 6.5t-23 20.5l-151 201l-80 -76v-92q0 -26 -17.5 -43
t-43.5 -17q-25 0 -42.5 17t-17.5 43v620z" />
    <glyph glyph-name="l" unicode="l" horiz-adv-x="286" 
d="M83 675q0 25 17 42.5t43 17.5t43.5 -17.5t17.5 -42.5v-620q0 -26 -17.5 -43t-43.5 -17q-25 0 -42.5 17t-17.5 43v620z" />
    <glyph glyph-name="m" unicode="m" horiz-adv-x="950" 
d="M76 473q0 26 17 43.5t43 17.5t43.5 -17.5t17.5 -43.5v-25q13 18 28 34t34.5 29t44 20.5t54.5 7.5q57 0 97 -25.5t61 -67.5q32 42 75 67.5t103 25.5q87 0 136 -52.5t49 -149.5v-282q0 -26 -17 -43t-43 -17t-43.5 17t-17.5 43v245q0 63 -28 96t-79 33q-50 0 -81.5 -33.5
t-31.5 -97.5v-243q0 -26 -17.5 -43t-42.5 -17q-26 0 -43.5 17t-17.5 43v246q0 62 -28 95t-79 33t-82 -35t-31 -96v-243q0 -26 -17.5 -43t-43.5 -17q-25 0 -42.5 17t-17.5 43v418z" />
    <glyph glyph-name="n" unicode="n" horiz-adv-x="620" 
d="M76 473q0 26 17 43.5t43 17.5t43.5 -17.5t17.5 -43.5v-26q13 18 28.5 35t36 29.5t45 20t55.5 7.5q90 0 139 -55t49 -147v-282q0 -26 -17 -43t-43 -17t-43.5 17t-17.5 43v245q0 62 -29.5 95.5t-83.5 33.5q-53 0 -86 -34.5t-33 -96.5v-243q0 -26 -17.5 -43t-43.5 -17
q-25 0 -42.5 17t-17.5 43v418z" />
    <glyph glyph-name="o" unicode="o" horiz-adv-x="657" 
d="M327 -12q-60 0 -111.5 21.5t-89 58.5t-58.5 87t-21 106v2q0 57 21.5 107t59 87.5t89 59.5t112.5 22t112.5 -21.5t89 -59t58.5 -87t21 -106.5v-2q0 -56 -21.5 -106t-59 -87.5t-89.5 -59.5t-113 -22zM329 94q37 0 66.5 13.5t50.5 36t32 53t11 64.5v2q0 35 -12 66t-33.5 54
t-51 36.5t-65.5 13.5t-65.5 -13.5t-50.5 -36t-32 -53.5t-11 -65v-2q0 -35 12 -65.5t33.5 -53.5t51 -36.5t64.5 -13.5z" />
    <glyph glyph-name="p" unicode="p" horiz-adv-x="671" 
d="M76 473q0 26 17 43.5t43 17.5t43.5 -17.5t17.5 -43.5v-33q29 41 72 70t108 29q46 0 90.5 -18t78.5 -53t55 -86t21 -117v-2q0 -66 -20.5 -117t-55 -86t-78.5 -53t-91 -18q-66 0 -109 28t-71 65v-187q0 -26 -17.5 -43t-43.5 -17q-25 0 -42.5 17t-17.5 43v578zM348 94
q31 0 58.5 12t48 33.5t32.5 53t12 70.5v2q0 38 -12 69.5t-32.5 53.5t-48 34t-58.5 12t-59 -12t-49 -34.5t-33.5 -53.5t-12.5 -69v-2q0 -38 12.5 -69t33.5 -53.5t49 -34.5t59 -12z" />
    <glyph glyph-name="q" unicode="q" horiz-adv-x="671" 
d="M595 -105q0 -26 -17.5 -43t-42.5 -17q-26 0 -43.5 17t-17.5 43v193q-29 -41 -72.5 -70t-107.5 -29q-47 0 -91 18t-78 53t-55 86t-21 117v2q0 66 20.5 117t54.5 86t78.5 53t91.5 18q33 0 59.5 -7.5t48.5 -20.5t40 -29.5t32 -35.5v28q0 25 17.5 42.5t42.5 17.5
q26 0 43.5 -17.5t17.5 -43.5v-578zM323 434q-31 0 -58.5 -11.5t-48.5 -33.5t-33 -53.5t-12 -70.5v-2q0 -38 12 -69.5t33 -53.5t48.5 -34t58.5 -12q30 0 58 12t49 34.5t33.5 53.5t12.5 69v2q0 38 -12.5 69.5t-33.5 53.5t-49 34t-58 12z" />
    <glyph glyph-name="r" unicode="r" horiz-adv-x="413" 
d="M76 473q0 26 17 43.5t43 17.5t43.5 -17.5t17.5 -43.5v-54q21 50 57 83t76 33q29 0 44.5 -17t15.5 -43q0 -24 -14 -39t-34 -19q-65 -11 -105 -61.5t-40 -144.5v-156q0 -25 -17.5 -42.5t-43.5 -17.5q-25 0 -42.5 17t-17.5 43v418z" />
    <glyph glyph-name="s" unicode="s" horiz-adv-x="501" 
d="M257 -10q-51 0 -103 15.5t-98 47.5q-10 5 -16.5 16t-6.5 26q0 20 14 34.5t35 14.5q14 0 26 -7q38 -26 77 -38.5t75 -12.5q39 0 60.5 15.5t21.5 41.5v2q0 15 -9.5 26t-26 19t-38 15t-44.5 14q-29 8 -58.5 19t-53 28.5t-38.5 43.5t-15 64v2q0 37 14.5 67t40 51t60 32
t73.5 11q42 0 85 -11.5t81 -31.5q13 -7 21 -18.5t8 -27.5q0 -21 -14.5 -35t-35.5 -14q-8 0 -13 1.5t-11 4.5q-32 17 -64 26.5t-60 9.5q-35 0 -54.5 -14.5t-19.5 -37.5v-2q0 -15 10 -25.5t26.5 -19t38 -16t44.5 -14.5q29 -9 58 -21t52.5 -29.5t38.5 -42.5t15 -61v-2
q0 -42 -15 -73t-41.5 -51.5t-62.5 -31t-77 -10.5z" />
    <glyph glyph-name="t" unicode="t" horiz-adv-x="411" 
d="M253 -9q-33 0 -61 8t-48.5 26t-31.5 47.5t-11 73.5v278h-20q-22 0 -37 15t-15 37t15 37t37 15h20v90q0 25 17.5 42.5t43.5 17.5q25 0 42.5 -17.5t17.5 -42.5v-90h95q22 0 37.5 -15t15.5 -37t-15.5 -37t-37.5 -15h-95v-259q0 -35 17 -50.5t48 -15.5q11 0 19 1.5t11 1.5
q20 0 35.5 -14.5t15.5 -35.5q0 -17 -9.5 -29.5t-22.5 -17.5q-20 -7 -39.5 -10.5t-43.5 -3.5z" />
    <glyph glyph-name="u" unicode="u" horiz-adv-x="620" 
d="M545 55q0 -25 -17.5 -42.5t-43.5 -17.5q-25 0 -43 17t-18 43v27q-26 -38 -65 -65.5t-100 -27.5q-90 0 -139 55t-49 148v281q0 26 17.5 43.5t42.5 17.5q26 0 43.5 -17.5t17.5 -43.5v-245q0 -62 29.5 -95t83.5 -33q53 0 86 34t33 96v243q0 26 17.5 43.5t43.5 17.5
q25 0 43 -17.5t18 -43.5v-418z" />
    <glyph glyph-name="v" unicode="v" horiz-adv-x="586" 
d="M365 43q-11 -23 -27.5 -38t-41.5 -15h-6q-25 0 -41.5 14.5t-27.5 38.5l-176 403q-2 7 -4.5 14.5t-2.5 15.5q0 23 17.5 40.5t42.5 17.5t38.5 -12.5t21.5 -31.5l136 -350l138 352q7 16 20 29t37 13q25 0 42 -16.5t17 -41.5q0 -8 -2.5 -16t-4.5 -13l-176 -404v0z" />
    <glyph glyph-name="w" unicode="w" horiz-adv-x="853" 
d="M253 -9q-23 0 -40.5 13t-26.5 41l-142 402q-2 6 -4 14.5t-2 16.5q0 22 16 39t43 17q23 0 37.5 -13.5t21.5 -34.5l102 -320l103 320q7 21 23 34.5t39 13.5h7q23 0 39 -13.5t23 -34.5l104 -320l103 321q6 20 20.5 33.5t38.5 13.5q25 0 41 -16.5t16 -39.5q0 -7 -1.5 -14.5
t-3.5 -12.5l-144 -406q-10 -28 -27.5 -41t-39.5 -13h-4q-23 0 -40.5 13t-25.5 39l-103 314l-104 -314q-8 -26 -25.5 -39t-39.5 -13h-4v0z" />
    <glyph glyph-name="x" unicode="x" horiz-adv-x="573" 
d="M48 46q0 23 17 42l150 180l-139 165q-10 12 -15 23t-5 23q0 26 16.5 41t39.5 15q18 0 31.5 -8t24.5 -22l119 -156l121 155q11 14 23.5 22.5t28.5 8.5q24 0 40.5 -15t16.5 -38q0 -13 -4.5 -22.5t-12.5 -18.5l-143 -171l148 -175q10 -12 15 -23t5 -23q0 -26 -16.5 -41
t-39.5 -15q-18 0 -31.5 8t-24.5 23l-128 165l-128 -165q-11 -13 -23.5 -22t-29.5 -9q-23 0 -39.5 15t-16.5 38z" />
    <glyph glyph-name="y" unicode="y" 
d="M172 -163q-26 0 -45.5 3.5t-38.5 11.5q-14 5 -26 16.5t-12 33.5q0 23 14.5 36.5t34.5 13.5q8 0 12.5 -1t9.5 -3q11 -3 20 -5t22 -2q27 0 43.5 12.5t31.5 43.5l4 11l-196 438q-7 16 -7 29q0 26 17 42.5t43 16.5q23 0 37 -12.5t22 -33.5l142 -351l132 351q8 19 21.5 32.5
t36.5 13.5q24 0 41 -16.5t17 -40.5q0 -8 -1.5 -16t-3.5 -13l-193 -463q-17 -41 -35 -69t-39 -45.5t-46.5 -25.5t-57.5 -8z" />
    <glyph glyph-name="z" unicode="z" horiz-adv-x="560" 
d="M108 0q-26 0 -42.5 14t-16.5 35v2q0 17 6.5 30t20.5 28l281 320h-249q-21 0 -35.5 14.5t-14.5 34.5q0 21 14.5 35.5t35.5 14.5h348q25 0 41.5 -13.5t16.5 -34.5v-3q0 -17 -6 -30t-20 -28l-282 -320h260q21 0 35.5 -14.5t14.5 -35.5q0 -20 -14.5 -34.5t-35.5 -14.5h-358v0
z" />
    <glyph glyph-name="Aacute" unicode="&#xc1;" horiz-adv-x="773" 
d="M42 52q0 12 8 28l260 580q11 23 29.5 36.5t44.5 13.5h6q26 0 44 -13.5t29 -36.5l260 -580q7 -13 7 -26q0 -25 -16.5 -42t-41.5 -17q-22 0 -37 11.5t-23 31.5l-57 131h-340l-59 -135q-16 -39 -57 -39q-24 0 -40.5 16.5t-16.5 40.5zM508 278l-123 283l-123 -283h246z
M382 763q-13 0 -21.5 5.5t-8.5 15.5q0 5 2.5 11t5.5 11l57 88q18 29 48 29q12 0 24.5 -3.5t23 -9t17.5 -12.5t7 -14q0 -15 -17 -30l-67 -64q-18 -17 -34 -22t-37 -5z" />
    <glyph glyph-name="aacute" unicode="&#xe1;" 
d="M228 -11q-37 0 -71 10.5t-59.5 31t-41 51t-15.5 70.5v2q0 43 16 75t44.5 53t69 31.5t88.5 10.5q45 0 78 -6t64 -16v13q0 57 -33.5 86t-97.5 29q-35 0 -63.5 -5.5t-53.5 -15.5q-11 -3 -19 -3q-21 0 -36 14.5t-15 35.5q0 17 9.5 30t23.5 18q38 14 78 22.5t92 8.5
q118 0 175 -59q29 -29 43 -70t14 -93v-260q0 -25 -17 -41.5t-42 -16.5q-26 0 -42.5 15.5t-16.5 35.5v20q-27 -32 -69 -54.5t-103 -22.5zM262 77q30 0 56 8t44.5 23t29.5 36t11 46v36q-23 9 -53.5 15t-66.5 6q-59 0 -91.5 -23t-32.5 -65v-2q0 -38 29.5 -59t73.5 -21zM291 590
q-13 0 -21.5 5.5t-8.5 15.5q0 5 2.5 11t5.5 11l57 88q18 29 48 29q12 0 24.5 -3.5t23 -9t17.5 -12.5t7 -14q0 -15 -17 -30l-67 -64q-18 -17 -34 -22t-37 -5z" />
    <glyph glyph-name="aacute.alt" horiz-adv-x="671" 
d="M338 590q-13 0 -21.5 5.5t-8.5 15.5q0 5 2.5 11t5.5 11l57 88q18 29 48 29q12 0 24.5 -3.5t23 -9t17.5 -12.5t7 -14q0 -15 -17 -30l-67 -64q-18 -17 -34 -22t-37 -5zM474 474q0 25 17.5 42.5t42.5 17.5q26 0 43.5 -17.5t17.5 -43.5v-418q0 -26 -17.5 -43t-42.5 -17
q-26 0 -43.5 17t-17.5 43v33q-29 -41 -72.5 -70t-107.5 -29q-47 0 -91 18t-78 53t-55 86t-21 117v2q0 66 20.5 117t54.5 86t78.5 53t91.5 18q33 0 59.5 -7.5t48.5 -20.5t40 -29.5t32 -35.5v28zM323 434q-31 0 -58.5 -11.5t-48.5 -33.5t-33 -53.5t-12 -70.5v-2
q0 -38 12 -69.5t33 -53.5t48.5 -34t58.5 -12q30 0 58 12t49 34.5t33.5 53.5t12.5 69v2q0 38 -12.5 69.5t-33.5 53.5t-49 34t-58 12z" />
    <glyph glyph-name="Abreve" unicode="&#x102;" horiz-adv-x="773" 
d="M42 52q0 12 8 28l260 580q11 23 29.5 36.5t44.5 13.5h6q26 0 44 -13.5t29 -36.5l260 -580q7 -13 7 -26q0 -25 -16.5 -42t-41.5 -17q-22 0 -37 11.5t-23 31.5l-57 131h-340l-59 -135q-16 -39 -57 -39q-24 0 -40.5 16.5t-16.5 40.5zM508 278l-123 283l-123 -283h246z
M385 766q-53 0 -92 21t-61 59q-8 16 -8 31q0 18 12 30.5t30 12.5q16 0 24.5 -7t13.5 -16q11 -20 30 -33t51 -13t51 13t30 33q5 9 13.5 16t24.5 7q18 0 30 -12.5t12 -30.5q0 -15 -8 -31q-22 -38 -60.5 -59t-92.5 -21z" />
    <glyph glyph-name="abreve" unicode="&#x103;" 
d="M228 -11q-37 0 -71 10.5t-59.5 31t-41 51t-15.5 70.5v2q0 43 16 75t44.5 53t69 31.5t88.5 10.5q45 0 78 -6t64 -16v13q0 57 -33.5 86t-97.5 29q-35 0 -63.5 -5.5t-53.5 -15.5q-11 -3 -19 -3q-21 0 -36 14.5t-15 35.5q0 17 9.5 30t23.5 18q38 14 78 22.5t92 8.5
q118 0 175 -59q29 -29 43 -70t14 -93v-260q0 -25 -17 -41.5t-42 -16.5q-26 0 -42.5 15.5t-16.5 35.5v20q-27 -32 -69 -54.5t-103 -22.5zM262 77q30 0 56 8t44.5 23t29.5 36t11 46v36q-23 9 -53.5 15t-66.5 6q-59 0 -91.5 -23t-32.5 -65v-2q0 -38 29.5 -59t73.5 -21zM294 593
q-53 0 -92 21t-61 59q-8 16 -8 31q0 18 12 30.5t30 12.5q16 0 24.5 -7t13.5 -16q11 -20 30 -33t51 -13t51 13t30 33q5 9 13.5 16t24.5 7q18 0 30 -12.5t12 -30.5q0 -15 -8 -31q-22 -38 -60.5 -59t-92.5 -21z" />
    <glyph glyph-name="abreve.alt" horiz-adv-x="671" 
d="M474 474q0 25 17.5 42.5t42.5 17.5q26 0 43.5 -17.5t17.5 -43.5v-418q0 -26 -17.5 -43t-42.5 -17q-26 0 -43.5 17t-17.5 43v33q-29 -41 -72.5 -70t-107.5 -29q-47 0 -91 18t-78 53t-55 86t-21 117v2q0 66 20.5 117t54.5 86t78.5 53t91.5 18q33 0 59.5 -7.5t48.5 -20.5
t40 -29.5t32 -35.5v28zM323 434q-31 0 -58.5 -11.5t-48.5 -33.5t-33 -53.5t-12 -70.5v-2q0 -38 12 -69.5t33 -53.5t48.5 -34t58.5 -12q30 0 58 12t49 34.5t33.5 53.5t12.5 69v2q0 38 -12.5 69.5t-33.5 53.5t-49 34t-58 12zM341 593q-53 0 -92 21t-61 59q-8 16 -8 31
q0 18 12 30.5t30 12.5q16 0 24.5 -7t13.5 -16q11 -20 30 -33t51 -13t51 13t30 33q5 9 13.5 16t24.5 7q18 0 30 -12.5t12 -30.5q0 -15 -8 -31q-22 -38 -60.5 -59t-92.5 -21z" />
    <glyph glyph-name="Acircumflex" unicode="&#xc2;" horiz-adv-x="773" 
d="M42 52q0 12 8 28l260 580q11 23 29.5 36.5t44.5 13.5h6q26 0 44 -13.5t29 -36.5l260 -580q7 -13 7 -26q0 -25 -16.5 -42t-41.5 -17q-22 0 -37 11.5t-23 31.5l-57 131h-340l-59 -135q-16 -39 -57 -39q-24 0 -40.5 16.5t-16.5 40.5zM508 278l-123 283l-123 -283h246z
M332 790q-20 -17 -36.5 -22t-37.5 -5q-11 0 -19 5t-8 15q0 5 3.5 11.5t8.5 12.5l66 83q11 14 24 21.5t34 7.5h36q21 0 34 -7.5t24 -21.5l66 -83q5 -6 8.5 -12.5t3.5 -11.5q0 -10 -8.5 -15t-20.5 -5q-21 0 -37.5 5t-36.5 22l-52 45z" />
    <glyph glyph-name="acircumflex" unicode="&#xe2;" 
d="M228 -11q-37 0 -71 10.5t-59.5 31t-41 51t-15.5 70.5v2q0 43 16 75t44.5 53t69 31.5t88.5 10.5q45 0 78 -6t64 -16v13q0 57 -33.5 86t-97.5 29q-35 0 -63.5 -5.5t-53.5 -15.5q-11 -3 -19 -3q-21 0 -36 14.5t-15 35.5q0 17 9.5 30t23.5 18q38 14 78 22.5t92 8.5
q118 0 175 -59q29 -29 43 -70t14 -93v-260q0 -25 -17 -41.5t-42 -16.5q-26 0 -42.5 15.5t-16.5 35.5v20q-27 -32 -69 -54.5t-103 -22.5zM262 77q30 0 56 8t44.5 23t29.5 36t11 46v36q-23 9 -53.5 15t-66.5 6q-59 0 -91.5 -23t-32.5 -65v-2q0 -38 29.5 -59t73.5 -21zM241 617
q-20 -17 -36.5 -22t-37.5 -5q-11 0 -19 5t-8 15q0 5 3.5 11.5t8.5 12.5l66 83q11 14 24 21.5t34 7.5h36q21 0 34 -7.5t24 -21.5l66 -83q5 -6 8.5 -12.5t3.5 -11.5q0 -10 -8.5 -15t-20.5 -5q-21 0 -37.5 5t-36.5 22l-52 45z" />
    <glyph glyph-name="acircumflex.alt" horiz-adv-x="671" 
d="M288 617q-20 -17 -36.5 -22t-37.5 -5q-11 0 -19 5t-8 15q0 5 3.5 11.5t8.5 12.5l66 83q11 14 24 21.5t34 7.5h36q21 0 34 -7.5t24 -21.5l66 -83q5 -6 8.5 -12.5t3.5 -11.5q0 -10 -8.5 -15t-20.5 -5q-21 0 -37.5 5t-36.5 22l-52 45zM474 474q0 25 17.5 42.5t42.5 17.5
q26 0 43.5 -17.5t17.5 -43.5v-418q0 -26 -17.5 -43t-42.5 -17q-26 0 -43.5 17t-17.5 43v33q-29 -41 -72.5 -70t-107.5 -29q-47 0 -91 18t-78 53t-55 86t-21 117v2q0 66 20.5 117t54.5 86t78.5 53t91.5 18q33 0 59.5 -7.5t48.5 -20.5t40 -29.5t32 -35.5v28zM323 434
q-31 0 -58.5 -11.5t-48.5 -33.5t-33 -53.5t-12 -70.5v-2q0 -38 12 -69.5t33 -53.5t48.5 -34t58.5 -12q30 0 58 12t49 34.5t33.5 53.5t12.5 69v2q0 38 -12.5 69.5t-33.5 53.5t-49 34t-58 12z" />
    <glyph glyph-name="Adieresis" unicode="&#xc4;" horiz-adv-x="773" 
d="M42 52q0 12 8 28l260 580q11 23 29.5 36.5t44.5 13.5h6q26 0 44 -13.5t29 -36.5l260 -580q7 -13 7 -26q0 -25 -16.5 -42t-41.5 -17q-22 0 -37 11.5t-23 31.5l-57 131h-340l-59 -135q-16 -39 -57 -39q-24 0 -40.5 16.5t-16.5 40.5zM508 278l-123 283l-123 -283h246z
M485 893q27 0 46 -17.5t19 -44.5v-7q0 -27 -19 -44t-46 -17q-28 0 -47 17t-19 44v7q0 27 19 44.5t47 17.5zM286 893q27 0 46 -17.5t19 -44.5v-7q0 -27 -19 -44t-46 -17q-28 0 -47 17t-19 44v7q0 27 19 44.5t47 17.5z" />
    <glyph glyph-name="adieresis" unicode="&#xe4;" 
d="M228 -11q-37 0 -71 10.5t-59.5 31t-41 51t-15.5 70.5v2q0 43 16 75t44.5 53t69 31.5t88.5 10.5q45 0 78 -6t64 -16v13q0 57 -33.5 86t-97.5 29q-35 0 -63.5 -5.5t-53.5 -15.5q-11 -3 -19 -3q-21 0 -36 14.5t-15 35.5q0 17 9.5 30t23.5 18q38 14 78 22.5t92 8.5
q118 0 175 -59q29 -29 43 -70t14 -93v-260q0 -25 -17 -41.5t-42 -16.5q-26 0 -42.5 15.5t-16.5 35.5v20q-27 -32 -69 -54.5t-103 -22.5zM262 77q30 0 56 8t44.5 23t29.5 36t11 46v36q-23 9 -53.5 15t-66.5 6q-59 0 -91.5 -23t-32.5 -65v-2q0 -38 29.5 -59t73.5 -21zM394 720
q27 0 46 -17.5t19 -44.5v-7q0 -27 -19 -44t-46 -17q-28 0 -47 17t-19 44v7q0 27 19 44.5t47 17.5zM195 720q27 0 46 -17.5t19 -44.5v-7q0 -27 -19 -44t-46 -17q-28 0 -47 17t-19 44v7q0 27 19 44.5t47 17.5z" />
    <glyph glyph-name="adieresis.alt" horiz-adv-x="671" 
d="M441 720q27 0 46 -17.5t19 -44.5v-7q0 -27 -19 -44t-46 -17q-28 0 -47 17t-19 44v7q0 27 19 44.5t47 17.5zM242 720q27 0 46 -17.5t19 -44.5v-7q0 -27 -19 -44t-46 -17q-28 0 -47 17t-19 44v7q0 27 19 44.5t47 17.5zM474 474q0 25 17.5 42.5t42.5 17.5q26 0 43.5 -17.5
t17.5 -43.5v-418q0 -26 -17.5 -43t-42.5 -17q-26 0 -43.5 17t-17.5 43v33q-29 -41 -72.5 -70t-107.5 -29q-47 0 -91 18t-78 53t-55 86t-21 117v2q0 66 20.5 117t54.5 86t78.5 53t91.5 18q33 0 59.5 -7.5t48.5 -20.5t40 -29.5t32 -35.5v28zM323 434q-31 0 -58.5 -11.5
t-48.5 -33.5t-33 -53.5t-12 -70.5v-2q0 -38 12 -69.5t33 -53.5t48.5 -34t58.5 -12q30 0 58 12t49 34.5t33.5 53.5t12.5 69v2q0 38 -12.5 69.5t-33.5 53.5t-49 34t-58 12z" />
    <glyph glyph-name="AE" unicode="&#xc6;" horiz-adv-x="1045" 
d="M34 45q0 20 10 35l337 577q11 20 28.5 31.5t43.5 11.5h481q23 0 39 -16t16 -39t-16 -39t-39 -16h-324v-182h279q23 0 39 -16.5t16 -39.5t-16 -38.5t-39 -15.5h-279v-188h329q23 0 39 -16t16 -39t-16 -39t-39 -16h-390q-26 0 -44 18t-18 44v107h-264l-81 -141
q-20 -34 -54 -34q-23 0 -38.5 14.5t-15.5 36.5zM487 278v315h-20l-181 -315h201z" />
    <glyph glyph-name="ae" unicode="&#xe6;" horiz-adv-x="952" 
d="M786 301q-3 29 -13 54.5t-27 44t-40.5 29.5t-53.5 11q-56 0 -93 -38.5t-45 -100.5h272zM260 78q44 0 83 18t74 50q-8 19 -13 38.5t-7 42.5q-23 8 -52.5 14t-63.5 6q-58 0 -90 -23t-32 -65v-2q0 -37 29.5 -58t71.5 -21zM855 58q-36 -32 -81.5 -51t-108.5 -19
q-62 0 -115 24t-89 66q-45 -37 -99.5 -63t-121.5 -26q-41 0 -77.5 11t-63.5 31.5t-42.5 51t-15.5 69.5v2q0 43 16 75t44.5 53t68 31.5t87.5 10.5q44 0 76.5 -6t63.5 -16v13q0 57 -33 86t-96 29q-34 0 -61.5 -5.5t-53.5 -15.5q-11 -3 -19 -3q-21 0 -36 14.5t-15 35.5
q0 17 9.5 30t23.5 18q38 15 77.5 23t90.5 8q137 0 186 -86q32 42 79 66t106 24q62 0 108.5 -23.5t77.5 -61t46.5 -83.5t15.5 -92q0 -26 -16.5 -42t-40.5 -16h-330q10 -65 51.5 -99.5t99.5 -34.5q39 0 69.5 12.5t56.5 33.5q13 11 30 11q21 0 35 -14t14 -35q0 -22 -17 -37z
" />
    <glyph glyph-name="AEacute" unicode="&#x1fc;" horiz-adv-x="1045" 
d="M618 753q-13 0 -21.5 5.5t-8.5 15.5q0 5 2.5 11t5.5 11l57 88q18 29 48 29q12 0 24.5 -3.5t23 -9t17.5 -12.5t7 -14q0 -15 -17 -30l-67 -64q-18 -17 -34 -22t-37 -5zM34 45q0 20 10 35l337 577q11 20 28.5 31.5t43.5 11.5h481q23 0 39 -16t16 -39t-16 -39t-39 -16h-324
v-182h279q23 0 39 -16.5t16 -39.5t-16 -38.5t-39 -15.5h-279v-188h329q23 0 39 -16t16 -39t-16 -39t-39 -16h-390q-26 0 -44 18t-18 44v107h-264l-81 -141q-20 -34 -54 -34q-23 0 -38.5 14.5t-15.5 36.5zM487 278v315h-20l-181 -315h201z" />
    <glyph glyph-name="aeacute" unicode="&#x1fd;" horiz-adv-x="952" 
d="M469 590q-13 0 -21.5 5.5t-8.5 15.5q0 5 2.5 11t5.5 11l57 88q18 29 48 29q12 0 24.5 -3.5t23 -9t17.5 -12.5t7 -14q0 -15 -17 -30l-67 -64q-18 -17 -34 -22t-37 -5zM786 301q-3 29 -13 54.5t-27 44t-40.5 29.5t-53.5 11q-56 0 -93 -38.5t-45 -100.5h272zM260 78
q44 0 83 18t74 50q-8 19 -13 38.5t-7 42.5q-23 8 -52.5 14t-63.5 6q-58 0 -90 -23t-32 -65v-2q0 -37 29.5 -58t71.5 -21zM855 58q-36 -32 -81.5 -51t-108.5 -19q-62 0 -115 24t-89 66q-45 -37 -99.5 -63t-121.5 -26q-41 0 -77.5 11t-63.5 31.5t-42.5 51t-15.5 69.5v2
q0 43 16 75t44.5 53t68 31.5t87.5 10.5q44 0 76.5 -6t63.5 -16v13q0 57 -33 86t-96 29q-34 0 -61.5 -5.5t-53.5 -15.5q-11 -3 -19 -3q-21 0 -36 14.5t-15 35.5q0 17 9.5 30t23.5 18q38 15 77.5 23t90.5 8q137 0 186 -86q32 42 79 66t106 24q62 0 108.5 -23.5t77.5 -61
t46.5 -83.5t15.5 -92q0 -26 -16.5 -42t-40.5 -16h-330q10 -65 51.5 -99.5t99.5 -34.5q39 0 69.5 12.5t56.5 33.5q13 11 30 11q21 0 35 -14t14 -35q0 -22 -17 -37z" />
    <glyph glyph-name="Agrave" unicode="&#xc0;" horiz-adv-x="773" 
d="M42 52q0 12 8 28l260 580q11 23 29.5 36.5t44.5 13.5h6q26 0 44 -13.5t29 -36.5l260 -580q7 -13 7 -26q0 -25 -16.5 -42t-41.5 -17q-22 0 -37 11.5t-23 31.5l-57 131h-340l-59 -135q-16 -39 -57 -39q-24 0 -40.5 16.5t-16.5 40.5zM508 278l-123 283l-123 -283h246z
M389 763q-21 0 -37 5t-33 22l-68 64q-17 15 -17 30q0 7 6.5 14t17 12.5t23.5 9t25 3.5q30 0 48 -29l57 -88q3 -5 6 -11t3 -11q0 -10 -8.5 -15.5t-22.5 -5.5z" />
    <glyph glyph-name="agrave" unicode="&#xe0;" 
d="M228 -11q-37 0 -71 10.5t-59.5 31t-41 51t-15.5 70.5v2q0 43 16 75t44.5 53t69 31.5t88.5 10.5q45 0 78 -6t64 -16v13q0 57 -33.5 86t-97.5 29q-35 0 -63.5 -5.5t-53.5 -15.5q-11 -3 -19 -3q-21 0 -36 14.5t-15 35.5q0 17 9.5 30t23.5 18q38 14 78 22.5t92 8.5
q118 0 175 -59q29 -29 43 -70t14 -93v-260q0 -25 -17 -41.5t-42 -16.5q-26 0 -42.5 15.5t-16.5 35.5v20q-27 -32 -69 -54.5t-103 -22.5zM262 77q30 0 56 8t44.5 23t29.5 36t11 46v36q-23 9 -53.5 15t-66.5 6q-59 0 -91.5 -23t-32.5 -65v-2q0 -38 29.5 -59t73.5 -21zM297 590
q-21 0 -37 5t-33 22l-68 64q-17 15 -17 30q0 7 6.5 14t17 12.5t23.5 9t25 3.5q30 0 48 -29l57 -88q3 -5 6 -11t3 -11q0 -10 -8.5 -15.5t-22.5 -5.5z" />
    <glyph glyph-name="agrave.alt" horiz-adv-x="671" 
d="M474 474q0 25 17.5 42.5t42.5 17.5q26 0 43.5 -17.5t17.5 -43.5v-418q0 -26 -17.5 -43t-42.5 -17q-26 0 -43.5 17t-17.5 43v33q-29 -41 -72.5 -70t-107.5 -29q-47 0 -91 18t-78 53t-55 86t-21 117v2q0 66 20.5 117t54.5 86t78.5 53t91.5 18q33 0 59.5 -7.5t48.5 -20.5
t40 -29.5t32 -35.5v28zM323 434q-31 0 -58.5 -11.5t-48.5 -33.5t-33 -53.5t-12 -70.5v-2q0 -38 12 -69.5t33 -53.5t48.5 -34t58.5 -12q30 0 58 12t49 34.5t33.5 53.5t12.5 69v2q0 38 -12.5 69.5t-33.5 53.5t-49 34t-58 12zM344 590q-21 0 -37 5t-33 22l-68 64q-17 15 -17 30
q0 7 6.5 14t17 12.5t23.5 9t25 3.5q30 0 48 -29l57 -88q3 -5 6 -11t3 -11q0 -10 -8.5 -15.5t-22.5 -5.5z" />
    <glyph glyph-name="Amacron" unicode="&#x100;" horiz-adv-x="773" 
d="M42 52q0 12 8 28l260 580q11 23 29.5 36.5t44.5 13.5h6q26 0 44 -13.5t29 -36.5l260 -580q7 -13 7 -26q0 -25 -16.5 -42t-41.5 -17q-22 0 -37 11.5t-23 31.5l-57 131h-340l-59 -135q-16 -39 -57 -39q-24 0 -40.5 16.5t-16.5 40.5zM508 278l-123 283l-123 -283h246z
M252 779q-18 0 -31 13t-13 31t13 31t31 13h266q18 0 31 -13t13 -31t-13 -31t-31 -13h-266z" />
    <glyph glyph-name="amacron" unicode="&#x101;" 
d="M228 -11q-37 0 -71 10.5t-59.5 31t-41 51t-15.5 70.5v2q0 43 16 75t44.5 53t69 31.5t88.5 10.5q45 0 78 -6t64 -16v13q0 57 -33.5 86t-97.5 29q-35 0 -63.5 -5.5t-53.5 -15.5q-11 -3 -19 -3q-21 0 -36 14.5t-15 35.5q0 17 9.5 30t23.5 18q38 14 78 22.5t92 8.5
q118 0 175 -59q29 -29 43 -70t14 -93v-260q0 -25 -17 -41.5t-42 -16.5q-26 0 -42.5 15.5t-16.5 35.5v20q-27 -32 -69 -54.5t-103 -22.5zM262 77q30 0 56 8t44.5 23t29.5 36t11 46v36q-23 9 -53.5 15t-66.5 6q-59 0 -91.5 -23t-32.5 -65v-2q0 -38 29.5 -59t73.5 -21zM161 606
q-18 0 -31 13t-13 31t13 31t31 13h266q18 0 31 -13t13 -31t-13 -31t-31 -13h-266z" />
    <glyph glyph-name="amacron.alt" horiz-adv-x="671" 
d="M474 474q0 25 17.5 42.5t42.5 17.5q26 0 43.5 -17.5t17.5 -43.5v-418q0 -26 -17.5 -43t-42.5 -17q-26 0 -43.5 17t-17.5 43v33q-29 -41 -72.5 -70t-107.5 -29q-47 0 -91 18t-78 53t-55 86t-21 117v2q0 66 20.5 117t54.5 86t78.5 53t91.5 18q33 0 59.5 -7.5t48.5 -20.5
t40 -29.5t32 -35.5v28zM323 434q-31 0 -58.5 -11.5t-48.5 -33.5t-33 -53.5t-12 -70.5v-2q0 -38 12 -69.5t33 -53.5t48.5 -34t58.5 -12q30 0 58 12t49 34.5t33.5 53.5t12.5 69v2q0 38 -12.5 69.5t-33.5 53.5t-49 34t-58 12zM208 606q-18 0 -31 13t-13 31t13 31t31 13h266
q18 0 31 -13t13 -31t-13 -31t-31 -13h-266z" />
    <glyph glyph-name="Aogonek" unicode="&#x104;" horiz-adv-x="790" 
d="M50 52q0 7 2.5 13.5t5.5 14.5l260 580q11 23 29.5 36.5t44.5 13.5h7q26 0 44 -13.5t29 -36.5l261 -582q7 -16 7 -26q0 -14 -5.5 -24.5t-17.5 -23.5q-21 -20 -29.5 -36t-8.5 -31q0 -18 11.5 -27t32.5 -14q33 -8 33 -31q0 -31 -40 -31q-24 0 -47 4.5t-41 15t-29 26
t-11 38.5q0 25 12 46t34 44l-71 161h-340l-58 -135q-17 -39 -58 -39q-24 0 -40.5 16.5t-16.5 40.5zM516 278l-123 283l-123 -283h246z" />
    <glyph glyph-name="aogonek" unicode="&#x105;" 
d="M362 -85q0 25 13 47.5t40 48.5q-4 3 -6.5 10.5t-4.5 15.5t-3 16t-1 12v1q-27 -32 -69 -54.5t-103 -22.5q-37 0 -71 10.5t-59.5 31t-41 51t-15.5 70.5v2q0 43 16 75t44.5 53t69 31.5t88.5 10.5q45 0 78 -6t64 -16v13q0 57 -33.5 86t-97.5 29q-35 0 -63.5 -5.5t-53.5 -15.5
q-11 -3 -19 -3q-21 0 -36 14.5t-15 35.5q0 17 9.5 30t23.5 18q38 14 78 22.5t92 8.5q118 0 175 -59q29 -29 43 -70t14 -93v-261q0 -15 -5.5 -25.5t-18.5 -22.5q-22 -21 -31 -36.5t-9 -31.5q0 -17 11 -26t32 -14q33 -8 33 -31q0 -31 -40 -31q-24 0 -47 4.5t-41 14.5t-29 25.5
t-11 36.5zM262 77q30 0 56 8t44.5 23t29.5 36t11 46v36q-23 9 -53.5 15t-66.5 6q-59 0 -91.5 -23t-32.5 -65v-2q0 -38 29.5 -59t73.5 -21z" />
    <glyph glyph-name="aogonek.alt" horiz-adv-x="671" 
d="M323 434q-31 0 -58.5 -11.5t-48.5 -33.5t-33 -53.5t-12 -70.5v-2q0 -38 12 -69.5t33 -53.5t48.5 -34t58.5 -12q30 0 58 12t49 34.5t33.5 53.5t12.5 69v2q0 38 -12.5 69.5t-33.5 53.5t-49 34t-58 12zM474 474q0 25 17.5 42.5t42.5 17.5q26 0 43.5 -17.5t17.5 -43.5v-421
q0 -15 -5 -25.5t-19 -22.5q-22 -21 -30.5 -36.5t-8.5 -31.5q0 -17 10.5 -26t31.5 -14q33 -8 33 -31q0 -31 -39 -31q-24 0 -47 4.5t-41 14.5t-29 25.5t-11 36.5q0 27 14.5 51t38.5 45q-5 4 -8.5 13.5t-5.5 20.5t-3.5 21.5t-1.5 16.5v5q-29 -41 -72.5 -70t-107.5 -29
q-47 0 -91 18t-78 53t-55 86t-21 117v2q0 66 20.5 117t54.5 86t78.5 53t91.5 18q33 0 59.5 -7.5t48.5 -20.5t40 -29.5t32 -35.5v28z" />
    <glyph glyph-name="Aring" unicode="&#xc5;" horiz-adv-x="790" 
d="M732 79q7 -13 7 -25q0 -24 -17 -41.5t-42 -17.5q-22 0 -36.5 11.5t-23.5 31.5l-57 131h-340l-58 -135q-8 -18 -22.5 -28.5t-34.5 -10.5q-25 0 -41.5 17t-16.5 40q0 7 2.5 13.5t4.5 12.5l272 606q-21 14 -34.5 37t-13.5 50v2q0 22 9.5 42t25 35t36 23.5t43.5 8.5
q22 0 43 -8.5t36.5 -23.5t25 -35t9.5 -42v-2q0 -26 -13 -49.5t-35 -37.5zM395 710q26 0 44 18t18 43v2q0 25 -18 43t-44 18t-44 -18t-18 -43v-2q0 -25 18 -43t44 -18zM516 278l-123 283l-123 -283h246z" />
    <glyph glyph-name="aring" unicode="&#xe5;" 
d="M228 -11q-37 0 -71 10.5t-59.5 31t-41 51t-15.5 70.5v2q0 43 16 75t44.5 53t69 31.5t88.5 10.5q45 0 78 -6t64 -16v13q0 57 -33.5 86t-97.5 29q-35 0 -63.5 -5.5t-53.5 -15.5q-11 -3 -19 -3q-21 0 -36 14.5t-15 35.5q0 17 9.5 30t23.5 18q38 14 78 22.5t92 8.5
q118 0 175 -59q29 -29 43 -70t14 -93v-260q0 -25 -17 -41.5t-42 -16.5q-26 0 -42.5 15.5t-16.5 35.5v20q-27 -32 -69 -54.5t-103 -22.5zM294 593q-23 0 -43.5 8.5t-36 23.5t-25 35t-9.5 42v2q0 22 9.5 42t25 35t36 23.5t43.5 8.5q22 0 43 -8.5t36.5 -23.5t25 -35t9.5 -42v-2
q0 -22 -9.5 -42t-25 -35t-36.5 -23.5t-43 -8.5zM262 77q30 0 56 8t44.5 23t29.5 36t11 46v36q-23 9 -53.5 15t-66.5 6q-59 0 -91.5 -23t-32.5 -65v-2q0 -38 29.5 -59t73.5 -21zM294 641q26 0 44 18t18 43v2q0 25 -18 43t-44 18t-44 -18t-18 -43v-2q0 -25 18 -43t44 -18z" />
    <glyph glyph-name="aring.alt" horiz-adv-x="671" 
d="M341 593q-23 0 -43.5 8.5t-36 23.5t-25 35t-9.5 42v2q0 22 9.5 42t25 35t36 23.5t43.5 8.5q22 0 43 -8.5t36.5 -23.5t25 -35t9.5 -42v-2q0 -22 -9.5 -42t-25 -35t-36.5 -23.5t-43 -8.5zM341 641q26 0 44 18t18 43v2q0 25 -18 43t-44 18t-44 -18t-18 -43v-2q0 -25 18 -43
t44 -18zM474 474q0 25 17.5 42.5t42.5 17.5q26 0 43.5 -17.5t17.5 -43.5v-418q0 -26 -17.5 -43t-42.5 -17q-26 0 -43.5 17t-17.5 43v33q-29 -41 -72.5 -70t-107.5 -29q-47 0 -91 18t-78 53t-55 86t-21 117v2q0 66 20.5 117t54.5 86t78.5 53t91.5 18q33 0 59.5 -7.5
t48.5 -20.5t40 -29.5t32 -35.5v28zM323 434q-31 0 -58.5 -11.5t-48.5 -33.5t-33 -53.5t-12 -70.5v-2q0 -38 12 -69.5t33 -53.5t48.5 -34t58.5 -12q30 0 58 12t49 34.5t33.5 53.5t12.5 69v2q0 38 -12.5 69.5t-33.5 53.5t-49 34t-58 12z" />
    <glyph glyph-name="aring.alt2" 
d="M228 -11q-37 0 -71 10.5t-59.5 31t-41 51t-15.5 70.5v2q0 43 16 75t44.5 53t69 31.5t88.5 10.5q45 0 78 -6t64 -16v13q0 57 -33.5 86t-97.5 29q-35 0 -63.5 -5.5t-53.5 -15.5q-11 -3 -19 -3q-21 0 -36 14.5t-15 35.5q0 17 9.5 30t23.5 18q22 8 44.5 14.5t46.5 10.5
q-26 29 -26 68v2q0 22 9 42t25 35t36.5 23.5t43.5 8.5q22 0 43 -8.5t36.5 -23.5t25 -35t9.5 -42v-2q0 -22 -9 -41t-25 -33q54 -14 86 -47q29 -29 43 -70t14 -93v-260q0 -25 -17 -41.5t-42 -16.5q-26 0 -42.5 15.5t-16.5 35.5v20q-27 -32 -69 -54.5t-103 -22.5zM262 77
q30 0 56 8t44.5 23t29.5 36t11 46v36q-23 9 -53.5 15t-66.5 6q-59 0 -91.5 -23t-32.5 -65v-2q0 -38 29.5 -59t73.5 -21zM295 536q25 0 43.5 18t18.5 43v2q0 25 -18 43t-44 18t-44 -18t-18 -43v-2q0 -25 18 -43t44 -18z" />
    <glyph glyph-name="Aringacute" unicode="&#x1fa;" horiz-adv-x="790" 
d="M392 907q-13 0 -21.5 5.5t-8.5 15.5q0 5 2.5 11t5.5 11l57 88q18 29 48 29q12 0 24.5 -3.5t23 -9t17.5 -12.5t7 -14q0 -15 -17 -30l-67 -64q-18 -17 -34 -22t-37 -5zM732 79q7 -13 7 -25q0 -24 -17 -41.5t-42 -17.5q-22 0 -36.5 11.5t-23.5 31.5l-57 131h-340l-58 -135
q-8 -18 -22.5 -28.5t-34.5 -10.5q-25 0 -41.5 17t-16.5 40q0 7 2.5 13.5t4.5 12.5l272 606q-21 14 -34.5 37t-13.5 50v2q0 22 9.5 42t25 35t36 23.5t43.5 8.5q22 0 43 -8.5t36.5 -23.5t25 -35t9.5 -42v-2q0 -26 -13 -49.5t-35 -37.5zM395 710q26 0 44 18t18 43v2
q0 25 -18 43t-44 18t-44 -18t-18 -43v-2q0 -25 18 -43t44 -18zM516 278l-123 283l-123 -283h246z" />
    <glyph glyph-name="aringacute" unicode="&#x1fb;" 
d="M228 -11q-37 0 -71 10.5t-59.5 31t-41 51t-15.5 70.5v2q0 43 16 75t44.5 53t69 31.5t88.5 10.5q45 0 78 -6t64 -16v13q0 57 -33.5 86t-97.5 29q-35 0 -63.5 -5.5t-53.5 -15.5q-11 -3 -19 -3q-21 0 -36 14.5t-15 35.5q0 17 9.5 30t23.5 18q38 14 78 22.5t92 8.5
q118 0 175 -59q29 -29 43 -70t14 -93v-260q0 -25 -17 -41.5t-42 -16.5q-26 0 -42.5 15.5t-16.5 35.5v20q-27 -32 -69 -54.5t-103 -22.5zM294 593q-23 0 -43.5 8.5t-36 23.5t-25 35t-9.5 42v2q0 22 9.5 42t25 35t36 23.5t43.5 8.5q22 0 43 -8.5t36.5 -23.5t25 -35t9.5 -42v-2
q0 -22 -9.5 -42t-25 -35t-36.5 -23.5t-43 -8.5zM262 77q30 0 56 8t44.5 23t29.5 36t11 46v36q-23 9 -53.5 15t-66.5 6q-59 0 -91.5 -23t-32.5 -65v-2q0 -38 29.5 -59t73.5 -21zM291 843q-13 0 -21.5 5.5t-8.5 15.5q0 5 2.5 11t5.5 11l57 88q18 29 48 29q12 0 24.5 -3.5
t23 -9t17.5 -12.5t7 -14q0 -15 -17 -30l-67 -64q-18 -17 -34 -22t-37 -5zM294 641q26 0 44 18t18 43v2q0 25 -18 43t-44 18t-44 -18t-18 -43v-2q0 -25 18 -43t44 -18z" />
    <glyph glyph-name="aringacute.alt" horiz-adv-x="671" 
d="M338 843q-13 0 -21.5 5.5t-8.5 15.5q0 5 2.5 11t5.5 11l57 88q18 29 48 29q12 0 24.5 -3.5t23 -9t17.5 -12.5t7 -14q0 -15 -17 -30l-67 -64q-18 -17 -34 -22t-37 -5zM341 593q-23 0 -43.5 8.5t-36 23.5t-25 35t-9.5 42v2q0 22 9.5 42t25 35t36 23.5t43.5 8.5
q22 0 43 -8.5t36.5 -23.5t25 -35t9.5 -42v-2q0 -22 -9.5 -42t-25 -35t-36.5 -23.5t-43 -8.5zM341 641q26 0 44 18t18 43v2q0 25 -18 43t-44 18t-44 -18t-18 -43v-2q0 -25 18 -43t44 -18zM474 474q0 25 17.5 42.5t42.5 17.5q26 0 43.5 -17.5t17.5 -43.5v-418q0 -26 -17.5 -43
t-42.5 -17q-26 0 -43.5 17t-17.5 43v33q-29 -41 -72.5 -70t-107.5 -29q-47 0 -91 18t-78 53t-55 86t-21 117v2q0 66 20.5 117t54.5 86t78.5 53t91.5 18q33 0 59.5 -7.5t48.5 -20.5t40 -29.5t32 -35.5v28zM323 434q-31 0 -58.5 -11.5t-48.5 -33.5t-33 -53.5t-12 -70.5v-2
q0 -38 12 -69.5t33 -53.5t48.5 -34t58.5 -12q30 0 58 12t49 34.5t33.5 53.5t12.5 69v2q0 38 -12.5 69.5t-33.5 53.5t-49 34t-58 12z" />
    <glyph glyph-name="aringacute.alt2" 
d="M228 -11q-37 0 -71 10.5t-59.5 31t-41 51t-15.5 70.5v2q0 43 16 75t44.5 53t69 31.5t88.5 10.5q45 0 78 -6t64 -16v13q0 57 -33.5 86t-97.5 29q-35 0 -63.5 -5.5t-53.5 -15.5q-11 -3 -19 -3q-21 0 -36 14.5t-15 35.5q0 17 9.5 30t23.5 18q22 8 44.5 14.5t46.5 10.5
q-26 29 -26 68v2q0 22 9 42t25 35t36.5 23.5t43.5 8.5q22 0 43 -8.5t36.5 -23.5t25 -35t9.5 -42v-2q0 -22 -9 -41t-25 -33q54 -14 86 -47q29 -29 43 -70t14 -93v-260q0 -25 -17 -41.5t-42 -16.5q-26 0 -42.5 15.5t-16.5 35.5v20q-27 -32 -69 -54.5t-103 -22.5zM262 77
q30 0 56 8t44.5 23t29.5 36t11 46v36q-23 9 -53.5 15t-66.5 6q-59 0 -91.5 -23t-32.5 -65v-2q0 -38 29.5 -59t73.5 -21zM295 536q25 0 43.5 18t18.5 43v2q0 25 -18 43t-44 18t-44 -18t-18 -43v-2q0 -25 18 -43t44 -18zM291 738q-13 0 -21.5 5.5t-8.5 15.5q0 5 2.5 11t5.5 11
l57 88q18 29 48 29q12 0 24.5 -3.5t23 -9t17.5 -12.5t7 -14q0 -15 -17 -30l-67 -64q-18 -17 -34 -22t-37 -5z" />
    <glyph glyph-name="Atilde" unicode="&#xc3;" horiz-adv-x="773" 
d="M42 52q0 12 8 28l260 580q11 23 29.5 36.5t44.5 13.5h6q26 0 44 -13.5t29 -36.5l260 -580q7 -13 7 -26q0 -25 -16.5 -42t-41.5 -17q-22 0 -37 11.5t-23 31.5l-57 131h-340l-59 -135q-16 -39 -57 -39q-24 0 -40.5 16.5t-16.5 40.5zM508 278l-123 283l-123 -283h246z
M277 776q-5 -8 -13 -14t-20 -6q-15 0 -26 10t-11 23q0 5 1 11.5t3 11.5q16 44 39 67.5t63 23.5q21 0 41 -6.5t38.5 -14t34.5 -13.5t30 -6q17 0 27 7.5t19 24.5q5 8 13.5 14t19.5 6q15 0 26 -10t11 -23q0 -5 -1 -11.5t-3 -11.5q-16 -44 -39 -67.5t-63 -23.5q-21 0 -41 6
t-38.5 13.5t-35 14t-29.5 6.5q-17 0 -27 -7.5t-19 -24.5z" />
    <glyph glyph-name="atilde" unicode="&#xe3;" 
d="M228 -11q-37 0 -71 10.5t-59.5 31t-41 51t-15.5 70.5v2q0 43 16 75t44.5 53t69 31.5t88.5 10.5q45 0 78 -6t64 -16v13q0 57 -33.5 86t-97.5 29q-35 0 -63.5 -5.5t-53.5 -15.5q-11 -3 -19 -3q-21 0 -36 14.5t-15 35.5q0 17 9.5 30t23.5 18q38 14 78 22.5t92 8.5
q118 0 175 -59q29 -29 43 -70t14 -93v-260q0 -25 -17 -41.5t-42 -16.5q-26 0 -42.5 15.5t-16.5 35.5v20q-27 -32 -69 -54.5t-103 -22.5zM186 603q-5 -8 -13 -14t-20 -6q-15 0 -26 10t-11 23q0 5 1 11.5t3 11.5q16 44 39 67.5t63 23.5q21 0 41 -6.5t38.5 -14t34.5 -13.5
t30 -6q17 0 27 7.5t19 24.5q5 8 13.5 14t19.5 6q15 0 26 -10t11 -23q0 -5 -1 -11.5t-3 -11.5q-16 -44 -39 -67.5t-63 -23.5q-21 0 -41 6t-38.5 13.5t-35 14t-29.5 6.5q-17 0 -27 -7.5t-19 -24.5zM262 77q30 0 56 8t44.5 23t29.5 36t11 46v36q-23 9 -53.5 15t-66.5 6
q-59 0 -91.5 -23t-32.5 -65v-2q0 -38 29.5 -59t73.5 -21z" />
    <glyph glyph-name="atilde.alt" horiz-adv-x="671" 
d="M474 474q0 25 17.5 42.5t42.5 17.5q26 0 43.5 -17.5t17.5 -43.5v-418q0 -26 -17.5 -43t-42.5 -17q-26 0 -43.5 17t-17.5 43v33q-29 -41 -72.5 -70t-107.5 -29q-47 0 -91 18t-78 53t-55 86t-21 117v2q0 66 20.5 117t54.5 86t78.5 53t91.5 18q33 0 59.5 -7.5t48.5 -20.5
t40 -29.5t32 -35.5v28zM323 434q-31 0 -58.5 -11.5t-48.5 -33.5t-33 -53.5t-12 -70.5v-2q0 -38 12 -69.5t33 -53.5t48.5 -34t58.5 -12q30 0 58 12t49 34.5t33.5 53.5t12.5 69v2q0 38 -12.5 69.5t-33.5 53.5t-49 34t-58 12zM232 603q-5 -8 -13 -14t-20 -6q-15 0 -26 10
t-11 23q0 5 1 11.5t3 11.5q16 44 39 67.5t63 23.5q21 0 41 -6.5t38.5 -14t34.5 -13.5t30 -6q17 0 27 7.5t19 24.5q5 8 13.5 14t19.5 6q15 0 26 -10t11 -23q0 -5 -1 -11.5t-3 -11.5q-16 -44 -39 -67.5t-63 -23.5q-21 0 -41 6t-38.5 13.5t-35 14t-29.5 6.5q-17 0 -27 -7.5
t-19 -24.5z" />
    <glyph glyph-name="Cacute" unicode="&#x106;" horiz-adv-x="738" 
d="M405 763q-13 0 -21.5 5.5t-8.5 15.5q0 5 2.5 11t5.5 11l57 88q18 29 48 29q12 0 24.5 -3.5t23 -9t17.5 -12.5t7 -14q0 -15 -17 -30l-67 -64q-18 -17 -34 -22t-37 -5zM415 -12q-77 0 -142 28t-112.5 76.5t-74.5 114.5t-27 141v2q0 75 26.5 140.5t74.5 115t114 78t146 28.5
q81 0 137.5 -22t102.5 -57q10 -8 17 -20t7 -29q0 -26 -17.5 -43t-43.5 -17q-13 0 -22 3.5t-15 8.5q-36 29 -76 46t-91 17q-50 0 -92.5 -19.5t-73 -53t-48 -78.5t-17.5 -96v-2q0 -51 17 -96.5t48 -79t73.5 -53t92.5 -19.5q56 0 96.5 17.5t78.5 49.5q7 6 16.5 10t20.5 4
q23 0 40.5 -17t17.5 -40q0 -14 -6 -25t-14 -19q-50 -44 -109.5 -69t-144.5 -25z" />
    <glyph glyph-name="cacute" unicode="&#x107;" horiz-adv-x="571" 
d="M312 590q-13 0 -21.5 5.5t-8.5 15.5q0 5 2.5 11t5.5 11l57 88q18 29 48 29q12 0 24.5 -3.5t23 -9t17.5 -12.5t7 -14q0 -15 -17 -30l-67 -64q-18 -17 -34 -22t-37 -5zM320 -12q-59 0 -109 21.5t-86.5 58.5t-57 87t-20.5 106v2q0 56 20.5 106.5t57.5 88t87 59.5t110 22
q63 0 107 -18.5t78 -47.5q6 -5 12.5 -16t6.5 -26q0 -23 -16.5 -39t-39.5 -16q-11 0 -20.5 3.5t-15.5 8.5q-23 20 -50 32.5t-63 12.5q-33 0 -61 -13.5t-48.5 -36t-32 -53.5t-11.5 -65v-2q0 -35 11.5 -66t32.5 -54t50 -36t64 -13q36 0 64.5 13t53.5 34q5 5 13.5 9t19.5 4
q22 0 37 -15.5t15 -37.5q0 -24 -17 -38q-35 -34 -80.5 -54.5t-111.5 -20.5z" />
    <glyph glyph-name="Ccaron" unicode="&#x10c;" horiz-adv-x="738" 
d="M461 893q20 17 36.5 22t37.5 5q12 0 19.5 -5t7.5 -15q0 -6 -3.5 -12t-8.5 -12l-66 -83q-11 -14 -24 -21.5t-34 -7.5h-36q-21 0 -34 7.5t-24 21.5l-66 83q-5 6 -8.5 12t-3.5 12q0 10 8.5 15t20.5 5q21 0 37.5 -5t36.5 -22l52 -45zM415 -12q-77 0 -142 28t-112.5 76.5
t-74.5 114.5t-27 141v2q0 75 26.5 140.5t74.5 115t114 78t146 28.5q81 0 137.5 -22t102.5 -57q10 -8 17 -20t7 -29q0 -26 -17.5 -43t-43.5 -17q-13 0 -22 3.5t-15 8.5q-36 29 -76 46t-91 17q-50 0 -92.5 -19.5t-73 -53t-48 -78.5t-17.5 -96v-2q0 -51 17 -96.5t48 -79
t73.5 -53t92.5 -19.5q56 0 96.5 17.5t78.5 49.5q7 6 16.5 10t20.5 4q23 0 40.5 -17t17.5 -40q0 -14 -6 -25t-14 -19q-50 -44 -109.5 -69t-144.5 -25z" />
    <glyph glyph-name="ccaron" unicode="&#x10d;" horiz-adv-x="571" 
d="M368 720q20 17 36.5 22t37.5 5q12 0 19.5 -5t7.5 -15q0 -6 -3.5 -12t-8.5 -12l-66 -83q-11 -14 -24 -21.5t-34 -7.5h-36q-21 0 -34 7.5t-24 21.5l-66 83q-5 6 -8.5 12t-3.5 12q0 10 8.5 15t20.5 5q21 0 37.5 -5t36.5 -22l52 -45zM320 -12q-59 0 -109 21.5t-86.5 58.5
t-57 87t-20.5 106v2q0 56 20.5 106.5t57.5 88t87 59.5t110 22q63 0 107 -18.5t78 -47.5q6 -5 12.5 -16t6.5 -26q0 -23 -16.5 -39t-39.5 -16q-11 0 -20.5 3.5t-15.5 8.5q-23 20 -50 32.5t-63 12.5q-33 0 -61 -13.5t-48.5 -36t-32 -53.5t-11.5 -65v-2q0 -35 11.5 -66t32.5 -54
t50 -36t64 -13q36 0 64.5 13t53.5 34q5 5 13.5 9t19.5 4q22 0 37 -15.5t15 -37.5q0 -24 -17 -38q-35 -34 -80.5 -54.5t-111.5 -20.5z" />
    <glyph glyph-name="Ccedilla" unicode="&#xc7;" horiz-adv-x="738" 
d="M669 82q-47 -42 -101.5 -66t-131.5 -27l-51 -120q-6 -14 -14.5 -21.5t-24.5 -7.5q-9 0 -21 4t-23 10t-18.5 14t-7.5 16q0 12 8 23l60 88q-63 12 -115 43.5t-90 78t-59 106t-21 125.5v2q0 75 26.5 140.5t74.5 115t114 78t146 28.5q81 0 137.5 -22t102.5 -57q10 -8 17 -20
t7 -29q0 -26 -17.5 -43t-43.5 -17q-13 0 -22 3.5t-15 8.5q-36 29 -76 46t-91 17q-50 0 -92.5 -19.5t-73 -53t-48 -78.5t-17.5 -96v-2q0 -51 17 -96.5t48 -79t73.5 -53t92.5 -19.5q56 0 96.5 17.5t78.5 49.5q7 6 16.5 10t20.5 4q23 0 40.5 -17t17.5 -40q0 -14 -6 -25t-14 -19
z" />
    <glyph glyph-name="ccedilla" unicode="&#xe7;" horiz-adv-x="571" 
d="M512 63q-32 -31 -72.5 -51t-97.5 -23l-52 -120q-6 -14 -14.5 -21.5t-24.5 -7.5q-9 0 -21 4t-23 10t-18.5 14t-7.5 16q0 12 8 23l61 90q-45 11 -82.5 35.5t-64 59.5t-41.5 78t-15 91v2q0 56 20.5 106.5t57.5 88t87 59.5t110 22q63 0 107 -18.5t78 -47.5q6 -5 12.5 -16
t6.5 -26q0 -23 -16.5 -39t-39.5 -16q-11 0 -20.5 3.5t-15.5 8.5q-23 20 -50 32.5t-63 12.5q-33 0 -61 -13.5t-48.5 -36t-32 -53.5t-11.5 -65v-2q0 -35 11.5 -66t32.5 -54t50 -36t64 -13q36 0 64.5 13t53.5 34q5 5 13.5 9t19.5 4q22 0 37 -15.5t15 -37.5q0 -24 -17 -38z" />
    <glyph glyph-name="Cdotaccent" unicode="&#x10a;" horiz-adv-x="738" 
d="M415 -12q-77 0 -142 28t-112.5 76.5t-74.5 114.5t-27 141v2q0 75 26.5 140.5t74.5 115t114 78t146 28.5q81 0 137.5 -22t102.5 -57q10 -8 17 -20t7 -29q0 -26 -17.5 -43t-43.5 -17q-13 0 -22 3.5t-15 8.5q-36 29 -76 46t-91 17q-50 0 -92.5 -19.5t-73 -53t-48 -78.5
t-17.5 -96v-2q0 -51 17 -96.5t48 -79t73.5 -53t92.5 -19.5q56 0 96.5 17.5t78.5 49.5q7 6 16.5 10t20.5 4q23 0 40.5 -17t17.5 -40q0 -14 -6 -25t-14 -19q-50 -44 -109.5 -69t-144.5 -25zM476 824q0 -28 -20 -44.5t-48 -16.5t-47.5 16.5t-19.5 44.5v7q0 28 19.5 45t47.5 17
t48 -17t20 -45v-7z" />
    <glyph glyph-name="cdotaccent" unicode="&#x10b;" horiz-adv-x="571" 
d="M320 -12q-59 0 -109 21.5t-86.5 58.5t-57 87t-20.5 106v2q0 56 20.5 106.5t57.5 88t87 59.5t110 22q63 0 107 -18.5t78 -47.5q6 -5 12.5 -16t6.5 -26q0 -23 -16.5 -39t-39.5 -16q-11 0 -20.5 3.5t-15.5 8.5q-23 20 -50 32.5t-63 12.5q-33 0 -61 -13.5t-48.5 -36
t-32 -53.5t-11.5 -65v-2q0 -35 11.5 -66t32.5 -54t50 -36t64 -13q36 0 64.5 13t53.5 34q5 5 13.5 9t19.5 4q22 0 37 -15.5t15 -37.5q0 -24 -17 -38q-35 -34 -80.5 -54.5t-111.5 -20.5zM383 651q0 -28 -20 -44.5t-48 -16.5t-47.5 16.5t-19.5 44.5v7q0 28 19.5 45t47.5 17
t48 -17t20 -45v-7z" />
    <glyph glyph-name="Dcaron" unicode="&#x10e;" horiz-adv-x="782" 
d="M430 883q20 17 36.5 22t37.5 5q12 0 19.5 -5t7.5 -15q0 -6 -3.5 -12t-8.5 -12l-66 -83q-11 -14 -24 -21.5t-34 -7.5h-36q-21 0 -34 7.5t-24 21.5l-66 83q-5 6 -8.5 12t-3.5 12q0 10 8.5 15t20.5 5q21 0 37.5 -5t36.5 -22l52 -45zM90 638q0 26 18 44t44 18h199
q82 0 150.5 -26.5t118 -73.5t76.5 -110.5t27 -137.5v-2q0 -74 -27 -138t-76.5 -111t-118 -74t-150.5 -27h-199q-26 0 -44 18t-18 44v576zM351 112q55 0 100 17.5t76.5 49t49 75t17.5 94.5v2q0 51 -17.5 95t-49 75.5t-76.5 49.5t-100 18h-138v-476h138z" />
    <glyph glyph-name="dcaron" unicode="&#x10f;" horiz-adv-x="671" 
d="M654 691q1 19 12.5 31.5t31.5 12.5h18q14 0 22.5 -7.5t8.5 -21.5q0 -11 -4 -23l-37 -121q-4 -12 -10.5 -18.5t-18.5 -6.5t-19.5 8t-6.5 22zM595 55q0 -26 -17.5 -43t-42.5 -17q-26 0 -43.5 17t-17.5 43v33q-29 -41 -72.5 -70t-107.5 -29q-47 0 -91 18t-78 53t-55 86
t-21 117v2q0 66 20.5 117t54.5 86t78.5 53t91.5 18q33 0 59.5 -7.5t48.5 -20.5t40 -29.5t32 -35.5v229q0 26 17.5 43t42.5 17q26 0 43.5 -17t17.5 -43v-620zM323 434q-31 0 -58.5 -11.5t-48.5 -33.5t-33 -53.5t-12 -70.5v-2q0 -38 12 -69.5t33 -53.5t48.5 -34t58.5 -12
q30 0 58 12t49 34.5t33.5 53.5t12.5 69v2q0 38 -12.5 69.5t-33.5 53.5t-49 34t-58 12z" />
    <glyph glyph-name="Dcroat" unicode="&#x110;" horiz-adv-x="812" 
d="M120 407v231q0 26 18 44t44 18h199q82 0 150.5 -26.5t118 -73.5t76.5 -110.5t27 -137.5v-2q0 -74 -27 -138t-76.5 -111t-118 -74t-150.5 -27h-199q-26 0 -44 18t-18 44v235h-26q-23 0 -38.5 16t-15.5 39t15.5 39t38.5 16h26zM242 407h127q23 0 38.5 -16t15.5 -39
t-15.5 -39t-38.5 -16h-127v-185h139q55 0 100 17.5t76.5 49t49 75t17.5 94.5v2q0 51 -17.5 95t-49 75.5t-76.5 49.5t-100 18h-139v-181z" />
    <glyph glyph-name="dcroat" unicode="&#x111;" horiz-adv-x="671" 
d="M595 674h38q15 0 25.5 -11t10.5 -25q0 -15 -10.5 -25.5t-25.5 -10.5h-38v-547q0 -26 -17.5 -43t-42.5 -17q-26 0 -43.5 17t-17.5 43v33q-29 -41 -72.5 -70t-107.5 -29q-47 0 -91 18t-78 53t-55 86t-21 117v2q0 66 20.5 117t54.5 86t78.5 53t91.5 18q33 0 59.5 -7.5
t48.5 -20.5t40 -29.5t32 -35.5v156h-133q-15 0 -25.5 10.5t-10.5 25.5q0 14 10.5 25t25.5 11h133v1q0 26 17.5 43t42.5 17q26 0 43.5 -17t17.5 -43v-1zM323 434q-31 0 -58.5 -11.5t-48.5 -33.5t-33 -53.5t-12 -70.5v-2q0 -38 12 -69.5t33 -53.5t48.5 -34t58.5 -12
q30 0 58 12t49 34.5t33.5 53.5t12.5 69v2q0 38 -12.5 69.5t-33.5 53.5t-49 34t-58 12z" />
    <glyph glyph-name="Eacute" unicode="&#xc9;" horiz-adv-x="670" 
d="M348 753q-13 0 -21.5 5.5t-8.5 15.5q0 5 2.5 11t5.5 11l57 88q18 29 48 29q12 0 24.5 -3.5t23 -9t17.5 -12.5t7 -14q0 -15 -17 -30l-67 -64q-18 -17 -34 -22t-37 -5zM152 0q-26 0 -44 18t-18 44v576q0 26 18 44t44 18h407q23 0 39 -16t16 -39t-16 -39t-39 -16h-346v-182
h301q23 0 39 -16.5t16 -39.5t-16 -38.5t-39 -15.5h-301v-188h351q23 0 39 -16t16 -39t-16 -39t-39 -16h-412z" />
    <glyph glyph-name="eacute" unicode="&#xe9;" horiz-adv-x="604" 
d="M300 590q-13 0 -21.5 5.5t-8.5 15.5q0 5 2.5 11t5.5 11l57 88q18 29 48 29q12 0 24.5 -3.5t23 -9t17.5 -12.5t7 -14q0 -15 -17 -30l-67 -64q-18 -17 -34 -22t-37 -5zM438 301q-3 29 -13 54.5t-27 44t-40.5 29.5t-53.5 11q-56 0 -92.5 -38.5t-44.5 -100.5h271zM508 58
q-36 -32 -82 -51t-108 -19q-57 0 -106.5 20t-86 56t-57.5 86.5t-21 111.5v2q0 57 19 107t53.5 87.5t81.5 59t104 21.5q63 0 110 -23.5t78.5 -61t47 -83.5t15.5 -92q0 -26 -17 -42t-40 -16h-331q10 -65 51.5 -99.5t100.5 -34.5q38 0 68.5 12.5t56.5 33.5q7 5 13.5 8t17.5 3
q20 0 34 -14t14 -35q0 -11 -4.5 -20.5t-11.5 -16.5z" />
    <glyph glyph-name="Ebreve" unicode="&#x114;" horiz-adv-x="670" 
d="M152 0q-26 0 -44 18t-18 44v576q0 26 18 44t44 18h407q23 0 39 -16t16 -39t-16 -39t-39 -16h-346v-182h301q23 0 39 -16.5t16 -39.5t-16 -38.5t-39 -15.5h-301v-188h351q23 0 39 -16t16 -39t-16 -39t-39 -16h-412zM351 756q-53 0 -92 21t-61 59q-8 16 -8 31q0 18 12 30.5
t30 12.5q16 0 24.5 -7t13.5 -16q11 -20 30 -33t51 -13t51 13t30 33q5 9 13.5 16t24.5 7q18 0 30 -12.5t12 -30.5q0 -15 -8 -31q-22 -38 -60.5 -59t-92.5 -21z" />
    <glyph glyph-name="ebreve" unicode="&#x115;" horiz-adv-x="604" 
d="M438 301q-3 29 -13 54.5t-27 44t-40.5 29.5t-53.5 11q-56 0 -92.5 -38.5t-44.5 -100.5h271zM508 58q-36 -32 -82 -51t-108 -19q-57 0 -106.5 20t-86 56t-57.5 86.5t-21 111.5v2q0 57 19 107t53.5 87.5t81.5 59t104 21.5q63 0 110 -23.5t78.5 -61t47 -83.5t15.5 -92
q0 -26 -17 -42t-40 -16h-331q10 -65 51.5 -99.5t100.5 -34.5q38 0 68.5 12.5t56.5 33.5q7 5 13.5 8t17.5 3q20 0 34 -14t14 -35q0 -11 -4.5 -20.5t-11.5 -16.5zM303 593q-53 0 -92 21t-61 59q-8 16 -8 31q0 18 12 30.5t30 12.5q16 0 24.5 -7t13.5 -16q11 -20 30 -33t51 -13
t51 13t30 33q5 9 13.5 16t24.5 7q18 0 30 -12.5t12 -30.5q0 -15 -8 -31q-22 -38 -60.5 -59t-92.5 -21z" />
    <glyph glyph-name="Ecaron" unicode="&#x11a;" horiz-adv-x="670" 
d="M404 883q20 17 36.5 22t37.5 5q12 0 19.5 -5t7.5 -15q0 -6 -3.5 -12t-8.5 -12l-66 -83q-11 -14 -24 -21.5t-34 -7.5h-36q-21 0 -34 7.5t-24 21.5l-66 83q-5 6 -8.5 12t-3.5 12q0 10 8.5 15t20.5 5q21 0 37.5 -5t36.5 -22l52 -45zM152 0q-26 0 -44 18t-18 44v576
q0 26 18 44t44 18h407q23 0 39 -16t16 -39t-16 -39t-39 -16h-346v-182h301q23 0 39 -16.5t16 -39.5t-16 -38.5t-39 -15.5h-301v-188h351q23 0 39 -16t16 -39t-16 -39t-39 -16h-412z" />
    <glyph glyph-name="ecaron" unicode="&#x11b;" horiz-adv-x="604" 
d="M356 720q20 17 36.5 22t37.5 5q12 0 19.5 -5t7.5 -15q0 -6 -3.5 -12t-8.5 -12l-66 -83q-11 -14 -24 -21.5t-34 -7.5h-36q-21 0 -34 7.5t-24 21.5l-66 83q-5 6 -8.5 12t-3.5 12q0 10 8.5 15t20.5 5q21 0 37.5 -5t36.5 -22l52 -45zM438 301q-3 29 -13 54.5t-27 44
t-40.5 29.5t-53.5 11q-56 0 -92.5 -38.5t-44.5 -100.5h271zM508 58q-36 -32 -82 -51t-108 -19q-57 0 -106.5 20t-86 56t-57.5 86.5t-21 111.5v2q0 57 19 107t53.5 87.5t81.5 59t104 21.5q63 0 110 -23.5t78.5 -61t47 -83.5t15.5 -92q0 -26 -17 -42t-40 -16h-331
q10 -65 51.5 -99.5t100.5 -34.5q38 0 68.5 12.5t56.5 33.5q7 5 13.5 8t17.5 3q20 0 34 -14t14 -35q0 -11 -4.5 -20.5t-11.5 -16.5z" />
    <glyph glyph-name="Ecircumflex" unicode="&#xca;" horiz-adv-x="670" 
d="M298 780q-20 -17 -36.5 -22t-37.5 -5q-11 0 -19 5t-8 15q0 5 3.5 11.5t8.5 12.5l66 83q11 14 24 21.5t34 7.5h36q21 0 34 -7.5t24 -21.5l66 -83q5 -6 8.5 -12.5t3.5 -11.5q0 -10 -8.5 -15t-20.5 -5q-21 0 -37.5 5t-36.5 22l-52 45zM152 0q-26 0 -44 18t-18 44v576
q0 26 18 44t44 18h407q23 0 39 -16t16 -39t-16 -39t-39 -16h-346v-182h301q23 0 39 -16.5t16 -39.5t-16 -38.5t-39 -15.5h-301v-188h351q23 0 39 -16t16 -39t-16 -39t-39 -16h-412z" />
    <glyph glyph-name="ecircumflex" unicode="&#xea;" horiz-adv-x="604" 
d="M250 617q-20 -17 -36.5 -22t-37.5 -5q-11 0 -19 5t-8 15q0 5 3.5 11.5t8.5 12.5l66 83q11 14 24 21.5t34 7.5h36q21 0 34 -7.5t24 -21.5l66 -83q5 -6 8.5 -12.5t3.5 -11.5q0 -10 -8.5 -15t-20.5 -5q-21 0 -37.5 5t-36.5 22l-52 45zM438 301q-3 29 -13 54.5t-27 44
t-40.5 29.5t-53.5 11q-56 0 -92.5 -38.5t-44.5 -100.5h271zM508 58q-36 -32 -82 -51t-108 -19q-57 0 -106.5 20t-86 56t-57.5 86.5t-21 111.5v2q0 57 19 107t53.5 87.5t81.5 59t104 21.5q63 0 110 -23.5t78.5 -61t47 -83.5t15.5 -92q0 -26 -17 -42t-40 -16h-331
q10 -65 51.5 -99.5t100.5 -34.5q38 0 68.5 12.5t56.5 33.5q7 5 13.5 8t17.5 3q20 0 34 -14t14 -35q0 -11 -4.5 -20.5t-11.5 -16.5z" />
    <glyph glyph-name="Edieresis" unicode="&#xcb;" horiz-adv-x="670" 
d="M451 883q27 0 46 -17.5t19 -44.5v-7q0 -27 -19 -44t-46 -17q-28 0 -47 17t-19 44v7q0 27 19 44.5t47 17.5zM252 883q27 0 46 -17.5t19 -44.5v-7q0 -27 -19 -44t-46 -17q-28 0 -47 17t-19 44v7q0 27 19 44.5t47 17.5zM152 0q-26 0 -44 18t-18 44v576q0 26 18 44t44 18h407
q23 0 39 -16t16 -39t-16 -39t-39 -16h-346v-182h301q23 0 39 -16.5t16 -39.5t-16 -38.5t-39 -15.5h-301v-188h351q23 0 39 -16t16 -39t-16 -39t-39 -16h-412z" />
    <glyph glyph-name="edieresis" unicode="&#xeb;" horiz-adv-x="604" 
d="M403 720q27 0 46 -17.5t19 -44.5v-7q0 -27 -19 -44t-46 -17q-28 0 -47 17t-19 44v7q0 27 19 44.5t47 17.5zM204 720q27 0 46 -17.5t19 -44.5v-7q0 -27 -19 -44t-46 -17q-28 0 -47 17t-19 44v7q0 27 19 44.5t47 17.5zM438 301q-3 29 -13 54.5t-27 44t-40.5 29.5t-53.5 11
q-56 0 -92.5 -38.5t-44.5 -100.5h271zM508 58q-36 -32 -82 -51t-108 -19q-57 0 -106.5 20t-86 56t-57.5 86.5t-21 111.5v2q0 57 19 107t53.5 87.5t81.5 59t104 21.5q63 0 110 -23.5t78.5 -61t47 -83.5t15.5 -92q0 -26 -17 -42t-40 -16h-331q10 -65 51.5 -99.5t100.5 -34.5
q38 0 68.5 12.5t56.5 33.5q7 5 13.5 8t17.5 3q20 0 34 -14t14 -35q0 -11 -4.5 -20.5t-11.5 -16.5z" />
    <glyph glyph-name="Edotaccent" unicode="&#x116;" horiz-adv-x="670" 
d="M152 0q-26 0 -44 18t-18 44v576q0 26 18 44t44 18h407q23 0 39 -16t16 -39t-16 -39t-39 -16h-346v-182h301q23 0 39 -16.5t16 -39.5t-16 -38.5t-39 -15.5h-301v-188h351q23 0 39 -16t16 -39t-16 -39t-39 -16h-412zM419 814q0 -28 -20 -44.5t-48 -16.5t-47.5 16.5
t-19.5 44.5v7q0 28 19.5 45t47.5 17t48 -17t20 -45v-7z" />
    <glyph glyph-name="edotaccent" unicode="&#x117;" horiz-adv-x="604" 
d="M438 301q-3 29 -13 54.5t-27 44t-40.5 29.5t-53.5 11q-56 0 -92.5 -38.5t-44.5 -100.5h271zM508 58q-36 -32 -82 -51t-108 -19q-57 0 -106.5 20t-86 56t-57.5 86.5t-21 111.5v2q0 57 19 107t53.5 87.5t81.5 59t104 21.5q63 0 110 -23.5t78.5 -61t47 -83.5t15.5 -92
q0 -26 -17 -42t-40 -16h-331q10 -65 51.5 -99.5t100.5 -34.5q38 0 68.5 12.5t56.5 33.5q7 5 13.5 8t17.5 3q20 0 34 -14t14 -35q0 -11 -4.5 -20.5t-11.5 -16.5zM371 651q0 -28 -20 -44.5t-48 -16.5t-47.5 16.5t-19.5 44.5v7q0 28 19.5 45t47.5 17t48 -17t20 -45v-7z" />
    <glyph glyph-name="Egrave" unicode="&#xc8;" horiz-adv-x="670" 
d="M152 0q-26 0 -44 18t-18 44v576q0 26 18 44t44 18h407q23 0 39 -16t16 -39t-16 -39t-39 -16h-346v-182h301q23 0 39 -16.5t16 -39.5t-16 -38.5t-39 -15.5h-301v-188h351q23 0 39 -16t16 -39t-16 -39t-39 -16h-412zM354 753q-21 0 -37 5t-33 22l-68 64q-17 15 -17 30
q0 7 6.5 14t17 12.5t23.5 9t25 3.5q30 0 48 -29l57 -88q3 -5 6 -11t3 -11q0 -10 -8.5 -15.5t-22.5 -5.5z" />
    <glyph glyph-name="egrave" unicode="&#xe8;" horiz-adv-x="604" 
d="M438 301q-3 29 -13 54.5t-27 44t-40.5 29.5t-53.5 11q-56 0 -92.5 -38.5t-44.5 -100.5h271zM508 58q-36 -32 -82 -51t-108 -19q-57 0 -106.5 20t-86 56t-57.5 86.5t-21 111.5v2q0 57 19 107t53.5 87.5t81.5 59t104 21.5q63 0 110 -23.5t78.5 -61t47 -83.5t15.5 -92
q0 -26 -17 -42t-40 -16h-331q10 -65 51.5 -99.5t100.5 -34.5q38 0 68.5 12.5t56.5 33.5q7 5 13.5 8t17.5 3q20 0 34 -14t14 -35q0 -11 -4.5 -20.5t-11.5 -16.5zM306 590q-21 0 -37 5t-33 22l-68 64q-17 15 -17 30q0 7 6.5 14t17 12.5t23.5 9t25 3.5q30 0 48 -29l57 -88
q3 -5 6 -11t3 -11q0 -10 -8.5 -15.5t-22.5 -5.5z" />
    <glyph glyph-name="Emacron" unicode="&#x112;" horiz-adv-x="670" 
d="M152 0q-26 0 -44 18t-18 44v576q0 26 18 44t44 18h407q23 0 39 -16t16 -39t-16 -39t-39 -16h-346v-182h301q23 0 39 -16.5t16 -39.5t-16 -38.5t-39 -15.5h-301v-188h351q23 0 39 -16t16 -39t-16 -39t-39 -16h-412zM218 769q-18 0 -31 13t-13 31t13 31t31 13h266
q18 0 31 -13t13 -31t-13 -31t-31 -13h-266z" />
    <glyph glyph-name="emacron" unicode="&#x113;" horiz-adv-x="604" 
d="M438 301q-3 29 -13 54.5t-27 44t-40.5 29.5t-53.5 11q-56 0 -92.5 -38.5t-44.5 -100.5h271zM508 58q-36 -32 -82 -51t-108 -19q-57 0 -106.5 20t-86 56t-57.5 86.5t-21 111.5v2q0 57 19 107t53.5 87.5t81.5 59t104 21.5q63 0 110 -23.5t78.5 -61t47 -83.5t15.5 -92
q0 -26 -17 -42t-40 -16h-331q10 -65 51.5 -99.5t100.5 -34.5q38 0 68.5 12.5t56.5 33.5q7 5 13.5 8t17.5 3q20 0 34 -14t14 -35q0 -11 -4.5 -20.5t-11.5 -16.5zM170 606q-18 0 -31 13t-13 31t13 31t31 13h266q18 0 31 -13t13 -31t-13 -31t-31 -13h-266z" />
    <glyph glyph-name="Eogonek" unicode="&#x118;" horiz-adv-x="670" 
d="M152 0q-26 0 -44 18t-18 44v576q0 26 18 44t44 18h407q23 0 39 -16t16 -39t-16 -39t-39 -16h-346v-182h301q23 0 39 -16.5t16 -39.5t-16 -38.5t-39 -15.5h-301v-188h350q24 0 40 -15.5t16 -35.5t-8 -31t-23 -25q-22 -19 -32 -34t-10 -32q0 -18 11.5 -27t31.5 -14
q34 -7 34 -31q0 -31 -40 -31q-24 0 -47 4.5t-41.5 14.5t-29.5 26t-11 39t11 42.5t30 39.5h-343v0z" />
    <glyph glyph-name="eogonek" unicode="&#x119;" horiz-adv-x="604" 
d="M556 279q0 -26 -17 -42t-40 -16h-331q10 -65 51.5 -99.5t100.5 -34.5q38 0 68.5 12.5t56.5 33.5q7 5 13.5 8t17.5 3q20 0 34 -14t14 -35q0 -11 -4.5 -20t-11.5 -17q-8 -7 -13 -12t-9.5 -9t-9.5 -8.5t-11 -10.5q-26 -25 -35 -42t-9 -34q0 -22 11.5 -31.5t32.5 -14.5
q33 -8 33 -31q0 -31 -39 -31q-54 0 -91.5 21t-37.5 65q0 18 8.5 35.5t25.5 36.5q-11 -2 -22.5 -3t-23.5 -1q-57 0 -106.5 20t-86 56t-57.5 86.5t-21 111.5v2q0 57 19 107t53.5 87.5t81.5 59t104 21.5q63 0 110 -23.5t78.5 -61t47 -83.5t15.5 -92zM438 301q-3 29 -13 54.5
t-27 44t-40.5 29.5t-53.5 11q-56 0 -92.5 -38.5t-44.5 -100.5h271z" />
    <glyph glyph-name="Eth" unicode="&#xd0;" horiz-adv-x="812" 
d="M120 407v231q0 26 18 44t44 18h199q82 0 150.5 -26.5t118 -73.5t76.5 -110.5t27 -137.5v-2q0 -74 -27 -138t-76.5 -111t-118 -74t-150.5 -27h-199q-26 0 -44 18t-18 44v235h-26q-23 0 -38.5 16t-15.5 39t15.5 39t38.5 16h26zM242 407h127q23 0 38.5 -16t15.5 -39
t-15.5 -39t-38.5 -16h-127v-185h139q55 0 100 17.5t76.5 49t49 75t17.5 94.5v2q0 51 -17.5 95t-49 75.5t-76.5 49.5t-100 18h-139v-181z" />
    <glyph glyph-name="eth" unicode="&#xf0;" horiz-adv-x="642" 
d="M314 588l-109 -48q-8 -3 -17 -3q-16 0 -27 11t-11 27q0 14 7.5 22.5t19.5 13.5l91 40q-10 14 -10 32q0 23 16 39t39 16q17 0 28.5 -7.5t19.5 -19.5l11 -16l87 38q5 2 9 3t8 1q16 0 27 -11.5t11 -27.5q0 -14 -7.5 -22.5t-18.5 -13.5l-72 -31l90 -128q22 -33 38.5 -62.5
t27.5 -59t16 -59.5t5 -63q0 -55 -19 -104t-54.5 -86t-87 -59t-116.5 -22q-58 0 -107.5 20.5t-85.5 56t-56 83t-20 101.5q0 53 18 96.5t49 75t73.5 48.5t91.5 17q43 0 75 -10.5t64 -30.5zM474 247q0 31 -11.5 58.5t-32 47.5t-49.5 32t-64 12t-62.5 -11.5t-47.5 -32t-30.5 -48
t-10.5 -59.5q0 -31 11.5 -59t32 -49.5t49 -34t62.5 -12.5q35 0 63 12.5t48 33.5t31 49.5t11 60.5z" />
    <glyph glyph-name="Gbreve" unicode="&#x11e;" horiz-adv-x="784" 
d="M422 -12q-82 0 -149 27.5t-114.5 76t-73.5 114t-26 142.5v2q0 73 26.5 139t74.5 115.5t114.5 78.5t145.5 29t135 -18t104 -53q9 -7 17 -19.5t8 -30.5q0 -25 -17.5 -43t-43.5 -18q-12 0 -21 4.5t-17 9.5q-34 25 -73.5 40t-96.5 15q-48 0 -89.5 -20t-72 -53.5t-48 -78.5
t-17.5 -95v-2q0 -54 17 -100t48.5 -79t75 -52t97.5 -19q50 0 93.5 14.5t75.5 38.5v131h-138q-23 0 -39 15t-16 38t16 38.5t39 15.5h195q26 0 44 -18t18 -44v-187q0 -51 -43 -78q-45 -30 -107.5 -53t-141.5 -23zM412 766q-53 0 -92 21t-61 59q-8 16 -8 31q0 18 12 30.5
t30 12.5q16 0 24.5 -7t13.5 -16q11 -20 30 -33t51 -13t51 13t30 33q5 9 13.5 16t24.5 7q18 0 30 -12.5t12 -30.5q0 -15 -8 -31q-22 -38 -60.5 -59t-92.5 -21z" />
    <glyph glyph-name="gbreve" unicode="&#x11f;" horiz-adv-x="671" 
d="M311 -162q-56 0 -106 12t-98 35q-34 13 -34 48q0 20 15 35t36 15q12 0 22 -5q36 -20 76 -31t86 -11q81 0 124 41t43 121v41q-33 -43 -77 -70t-109 -27q-47 0 -90 17t-76.5 48.5t-53.5 77.5t-20 104v2q0 58 20 104.5t53.5 78t77 48.5t89.5 17q67 0 110.5 -26.5t74.5 -63.5
v25q0 25 17.5 42.5t42.5 17.5q26 0 43.5 -17.5t17.5 -43.5v-365q0 -132 -67 -199q-36 -36 -90.5 -53.5t-126.5 -17.5zM321 145q31 0 59.5 10.5t49.5 29.5t33.5 46t12.5 59v2q0 32 -12.5 59t-33.5 46t-49.5 29.5t-59.5 10.5q-32 0 -59 -10.5t-47.5 -29.5t-32 -45.5
t-11.5 -59.5v-2q0 -32 12 -59t32 -46t47.5 -29.5t58.5 -10.5zM326 593q-53 0 -92 21t-61 59q-8 16 -8 31q0 18 12 30.5t30 12.5q16 0 24.5 -7t13.5 -16q11 -20 30 -33t51 -13t51 13t30 33q5 9 13.5 16t24.5 7q18 0 30 -12.5t12 -30.5q0 -15 -8 -31q-22 -38 -60.5 -59
t-92.5 -21z" />
    <glyph glyph-name="Gcommaaccent" unicode="&#x122;" horiz-adv-x="784" 
d="M403 -169q-23 4 -38.5 17t-15.5 36v2q0 23 17 38t44 15q29 0 46.5 -19t17.5 -51v-3q0 -38 -10.5 -63.5t-32.5 -44.5q-17 -15 -41 -24t-45 -9q-14 0 -20 6.5t-6 14.5q0 16 21 21q65 14 63 64zM422 -12q-82 0 -149 27.5t-114.5 76t-73.5 114t-26 142.5v2q0 73 26.5 139
t74.5 115.5t114.5 78.5t145.5 29t135 -18t104 -53q9 -7 17 -19.5t8 -30.5q0 -25 -17.5 -43t-43.5 -18q-12 0 -21 4.5t-17 9.5q-34 25 -73.5 40t-96.5 15q-48 0 -89.5 -20t-72 -53.5t-48 -78.5t-17.5 -95v-2q0 -54 17 -100t48.5 -79t75 -52t97.5 -19q50 0 93.5 14.5
t75.5 38.5v131h-138q-23 0 -39 15t-16 38t16 38.5t39 15.5h195q26 0 44 -18t18 -44v-187q0 -51 -43 -78q-45 -30 -107.5 -53t-141.5 -23z" />
    <glyph glyph-name="gcommaaccent" unicode="&#x123;" horiz-adv-x="671" 
d="M333 697q23 -4 38.5 -17t15.5 -36v-2q0 -23 -17 -38t-44 -15q-29 0 -46.5 19t-17.5 51v3q0 38 10.5 63.5t32.5 44.5q17 15 41 24t45 9q14 0 20 -6.5t6 -14.5q0 -17 -21 -21q-65 -14 -63 -64zM311 -162q-56 0 -106 12t-98 35q-34 13 -34 48q0 20 15 35t36 15q12 0 22 -5
q36 -20 76 -31t86 -11q81 0 124 41t43 121v41q-33 -43 -77 -70t-109 -27q-47 0 -90 17t-76.5 48.5t-53.5 77.5t-20 104v2q0 58 20 104.5t53.5 78t77 48.5t89.5 17q67 0 110.5 -26.5t74.5 -63.5v25q0 25 17.5 42.5t42.5 17.5q26 0 43.5 -17.5t17.5 -43.5v-365
q0 -132 -67 -199q-36 -36 -90.5 -53.5t-126.5 -17.5zM321 145q31 0 59.5 10.5t49.5 29.5t33.5 46t12.5 59v2q0 32 -12.5 59t-33.5 46t-49.5 29.5t-59.5 10.5q-32 0 -59 -10.5t-47.5 -29.5t-32 -45.5t-11.5 -59.5v-2q0 -32 12 -59t32 -46t47.5 -29.5t58.5 -10.5z" />
    <glyph glyph-name="Gdotaccent" unicode="&#x120;" horiz-adv-x="784" 
d="M422 -12q-82 0 -149 27.5t-114.5 76t-73.5 114t-26 142.5v2q0 73 26.5 139t74.5 115.5t114.5 78.5t145.5 29t135 -18t104 -53q9 -7 17 -19.5t8 -30.5q0 -25 -17.5 -43t-43.5 -18q-12 0 -21 4.5t-17 9.5q-34 25 -73.5 40t-96.5 15q-48 0 -89.5 -20t-72 -53.5t-48 -78.5
t-17.5 -95v-2q0 -54 17 -100t48.5 -79t75 -52t97.5 -19q50 0 93.5 14.5t75.5 38.5v131h-138q-23 0 -39 15t-16 38t16 38.5t39 15.5h195q26 0 44 -18t18 -44v-187q0 -51 -43 -78q-45 -30 -107.5 -53t-141.5 -23zM480 824q0 -28 -20 -44.5t-48 -16.5t-47.5 16.5t-19.5 44.5v7
q0 28 19.5 45t47.5 17t48 -17t20 -45v-7z" />
    <glyph glyph-name="gdotaccent" unicode="&#x121;" horiz-adv-x="671" 
d="M311 -162q-56 0 -106 12t-98 35q-34 13 -34 48q0 20 15 35t36 15q12 0 22 -5q36 -20 76 -31t86 -11q81 0 124 41t43 121v41q-33 -43 -77 -70t-109 -27q-47 0 -90 17t-76.5 48.5t-53.5 77.5t-20 104v2q0 58 20 104.5t53.5 78t77 48.5t89.5 17q67 0 110.5 -26.5t74.5 -63.5
v25q0 25 17.5 42.5t42.5 17.5q26 0 43.5 -17.5t17.5 -43.5v-365q0 -132 -67 -199q-36 -36 -90.5 -53.5t-126.5 -17.5zM321 145q31 0 59.5 10.5t49.5 29.5t33.5 46t12.5 59v2q0 32 -12.5 59t-33.5 46t-49.5 29.5t-59.5 10.5q-32 0 -59 -10.5t-47.5 -29.5t-32 -45.5
t-11.5 -59.5v-2q0 -32 12 -59t32 -46t47.5 -29.5t58.5 -10.5zM394 651q0 -28 -20 -44.5t-48 -16.5t-47.5 16.5t-19.5 44.5v7q0 28 19.5 45t47.5 17t48 -17t20 -45v-7z" />
    <glyph glyph-name="Hbar" unicode="&#x126;" horiz-adv-x="778" 
d="M99 511h-33q-18 0 -31 13t-13 30q0 18 13 31t31 13h33v46q0 26 18 43.5t44 17.5t43.5 -17.5t17.5 -43.5v-46h334v46q0 26 17.5 43.5t43.5 17.5t44 -17.5t18 -43.5v-46h32q18 0 31 -13t13 -31q0 -17 -13 -30t-31 -13h-32v-455q0 -26 -18 -43.5t-44 -17.5t-43.5 17.5
t-17.5 43.5v239h-334v-239q0 -26 -17.5 -43.5t-43.5 -17.5t-44 17.5t-18 43.5v455zM556 409v102h-334v-102h334z" />
    <glyph glyph-name="hbar" unicode="&#x127;" horiz-adv-x="620" 
d="M76 602h-38q-15 0 -25.5 10.5t-10.5 25.5q0 14 10.5 25t25.5 11h38v1q0 25 17 42.5t43 17.5t43.5 -17.5t17.5 -42.5v-1h133q15 0 25.5 -11t10.5 -25q0 -15 -10.5 -25.5t-25.5 -10.5h-133v-155q13 18 28.5 35t36 29.5t45 20t55.5 7.5q90 0 139 -55t49 -147v-282
q0 -26 -17 -43t-43 -17t-43.5 17t-17.5 43v245q0 62 -29.5 95.5t-83.5 33.5q-53 0 -86 -34.5t-33 -96.5v-243q0 -26 -17.5 -43t-43.5 -17q-25 0 -42.5 17t-17.5 43v547z" />
    <glyph glyph-name="Iacute" unicode="&#xcd;" horiz-adv-x="317" 
d="M97 644q0 26 18 43.5t44 17.5t43.5 -17.5t17.5 -43.5v-588q0 -26 -17.5 -43.5t-43.5 -17.5t-44 17.5t-18 43.5v588zM156 753q-13 0 -21.5 5.5t-8.5 15.5q0 5 2.5 11t5.5 11l57 88q18 29 48 29q12 0 24.5 -3.5t23 -9t17.5 -12.5t7 -14q0 -15 -17 -30l-67 -64
q-18 -17 -34 -22t-37 -5z" />
    <glyph glyph-name="iacute" unicode="&#xed;" horiz-adv-x="286" 
d="M140 590q-13 0 -21.5 5.5t-8.5 15.5q0 5 2.5 11t5.5 11l57 88q18 29 48 29q12 0 24.5 -3.5t23 -9t17.5 -12.5t7 -14q0 -15 -17 -30l-67 -64q-18 -17 -34 -22t-37 -5zM83 473q0 26 17 43.5t43 17.5t43.5 -17.5t17.5 -43.5v-418q0 -26 -17.5 -43t-43.5 -17q-25 0 -42.5 17
t-17.5 43v418z" />
    <glyph glyph-name="Ibreve" unicode="&#x12c;" horiz-adv-x="317" 
d="M97 644q0 26 18 43.5t44 17.5t43.5 -17.5t17.5 -43.5v-588q0 -26 -17.5 -43.5t-43.5 -17.5t-44 17.5t-18 43.5v588zM159 756q-53 0 -92 21t-61 59q-8 16 -8 31q0 18 12 30.5t30 12.5q16 0 24.5 -7t13.5 -16q11 -20 30 -33t51 -13t51 13t30 33q5 9 13.5 16t24.5 7
q18 0 30 -12.5t12 -30.5q0 -15 -8 -31q-22 -38 -60.5 -59t-92.5 -21z" />
    <glyph glyph-name="ibreve" unicode="&#x12d;" horiz-adv-x="286" 
d="M83 473q0 26 17 43.5t43 17.5t43.5 -17.5t17.5 -43.5v-418q0 -26 -17.5 -43t-43.5 -17q-25 0 -42.5 17t-17.5 43v418zM143 593q-53 0 -92 21t-61 59q-8 16 -8 31q0 18 12 30.5t30 12.5q16 0 24.5 -7t13.5 -16q11 -20 30 -33t51 -13t51 13t30 33q5 9 13.5 16t24.5 7
q18 0 30 -12.5t12 -30.5q0 -15 -8 -31q-22 -38 -60.5 -59t-92.5 -21z" />
    <glyph glyph-name="Icircumflex" unicode="&#xce;" horiz-adv-x="317" 
d="M97 644q0 26 18 43.5t44 17.5t43.5 -17.5t17.5 -43.5v-588q0 -26 -17.5 -43.5t-43.5 -17.5t-44 17.5t-18 43.5v588zM106 780q-20 -17 -36.5 -22t-37.5 -5q-11 0 -19 5t-8 15q0 5 3.5 11.5t8.5 12.5l66 83q11 14 24 21.5t34 7.5h36q21 0 34 -7.5t24 -21.5l66 -83
q5 -6 8.5 -12.5t3.5 -11.5q0 -10 -8.5 -15t-20.5 -5q-21 0 -37.5 5t-36.5 22l-52 45z" />
    <glyph glyph-name="icircumflex" unicode="&#xee;" horiz-adv-x="286" 
d="M90 617q-20 -17 -36.5 -22t-37.5 -5q-11 0 -19 5t-8 15q0 5 3.5 11.5t8.5 12.5l66 83q11 14 24 21.5t34 7.5h36q21 0 34 -7.5t24 -21.5l66 -83q5 -6 8.5 -12.5t3.5 -11.5q0 -10 -8.5 -15t-20.5 -5q-21 0 -37.5 5t-36.5 22l-52 45zM83 473q0 26 17 43.5t43 17.5
t43.5 -17.5t17.5 -43.5v-418q0 -26 -17.5 -43t-43.5 -17q-25 0 -42.5 17t-17.5 43v418z" />
    <glyph glyph-name="Idieresis" unicode="&#xcf;" horiz-adv-x="317" 
d="M97 644q0 26 18 43.5t44 17.5t43.5 -17.5t17.5 -43.5v-588q0 -26 -17.5 -43.5t-43.5 -17.5t-44 17.5t-18 43.5v588zM259 883q27 0 46 -17.5t19 -44.5v-7q0 -27 -19 -44t-46 -17q-28 0 -47 17t-19 44v7q0 27 19 44.5t47 17.5zM60 883q27 0 46 -17.5t19 -44.5v-7
q0 -27 -19 -44t-46 -17q-28 0 -47 17t-19 44v7q0 27 19 44.5t47 17.5z" />
    <glyph glyph-name="idieresis" unicode="&#xef;" horiz-adv-x="286" 
d="M243 720q27 0 46 -17.5t19 -44.5v-7q0 -27 -19 -44t-46 -17q-28 0 -47 17t-19 44v7q0 27 19 44.5t47 17.5zM44 720q27 0 46 -17.5t19 -44.5v-7q0 -27 -19 -44t-46 -17q-28 0 -47 17t-19 44v7q0 27 19 44.5t47 17.5zM83 473q0 26 17 43.5t43 17.5t43.5 -17.5t17.5 -43.5
v-418q0 -26 -17.5 -43t-43.5 -17q-25 0 -42.5 17t-17.5 43v418z" />
    <glyph glyph-name="Idotaccent" unicode="&#x130;" horiz-adv-x="317" 
d="M97 644q0 26 18 43.5t44 17.5t43.5 -17.5t17.5 -43.5v-588q0 -26 -17.5 -43.5t-43.5 -17.5t-44 17.5t-18 43.5v588zM227 814q0 -28 -20 -44.5t-48 -16.5t-47.5 16.5t-19.5 44.5v7q0 28 19.5 45t47.5 17t48 -17t20 -45v-7z" />
    <glyph glyph-name="dotlessi" unicode="&#x131;" horiz-adv-x="286" 
d="M83 473q0 26 17 43.5t43 17.5t43.5 -17.5t17.5 -43.5v-418q0 -26 -17.5 -43t-43.5 -17q-25 0 -42.5 17t-17.5 43v418z" />
    <glyph glyph-name="Igrave" unicode="&#xcc;" horiz-adv-x="317" 
d="M97 644q0 26 18 43.5t44 17.5t43.5 -17.5t17.5 -43.5v-588q0 -26 -17.5 -43.5t-43.5 -17.5t-44 17.5t-18 43.5v588zM162 753q-21 0 -37 5t-33 22l-68 64q-17 15 -17 30q0 7 6.5 14t17 12.5t23.5 9t25 3.5q30 0 48 -29l57 -88q3 -5 6 -11t3 -11q0 -10 -8.5 -15.5
t-22.5 -5.5z" />
    <glyph glyph-name="igrave" unicode="&#xec;" horiz-adv-x="286" 
d="M83 473q0 26 17 43.5t43 17.5t43.5 -17.5t17.5 -43.5v-418q0 -26 -17.5 -43t-43.5 -17q-25 0 -42.5 17t-17.5 43v418zM146 590q-21 0 -37 5t-33 22l-68 64q-17 15 -17 30q0 7 6.5 14t17 12.5t23.5 9t25 3.5q30 0 48 -29l57 -88q3 -5 6 -11t3 -11q0 -10 -8.5 -15.5
t-22.5 -5.5z" />
    <glyph glyph-name="Imacron" unicode="&#x12a;" horiz-adv-x="317" 
d="M97 644q0 26 18 43.5t44 17.5t43.5 -17.5t17.5 -43.5v-588q0 -26 -17.5 -43.5t-43.5 -17.5t-44 17.5t-18 43.5v588zM26 769q-18 0 -31 13t-13 31t13 31t31 13h266q18 0 31 -13t13 -31t-13 -31t-31 -13h-266z" />
    <glyph glyph-name="imacron" unicode="&#x12b;" horiz-adv-x="286" 
d="M83 473q0 26 17 43.5t43 17.5t43.5 -17.5t17.5 -43.5v-418q0 -26 -17.5 -43t-43.5 -17q-25 0 -42.5 17t-17.5 43v418zM10 606q-18 0 -31 13t-13 31t13 31t31 13h266q18 0 31 -13t13 -31t-13 -31t-31 -13h-266z" />
    <glyph glyph-name="Iogonek" unicode="&#x12e;" horiz-adv-x="317" 
d="M67 -82q0 24 12 45.5t36 47.5q-18 16 -18 41v592q0 26 18 43.5t44 17.5t43.5 -17.5t17.5 -43.5v-589q0 -15 -5 -26t-18 -24q-22 -23 -30.5 -38t-8.5 -30q0 -18 11.5 -27t32.5 -14q34 -7 34 -31q0 -31 -40 -31q-24 0 -47.5 4.5t-41.5 15t-29 26t-11 38.5z" />
    <glyph glyph-name="iogonek" unicode="&#x12f;" horiz-adv-x="286" 
d="M204 52q0 -15 -5.5 -25.5t-18.5 -22.5q-22 -21 -31 -36.5t-9 -31.5q0 -17 11 -26t32 -14q33 -8 33 -31q0 -31 -40 -31q-24 0 -47 4.5t-41 14.5t-29 25.5t-11 36.5q0 27 15 51t38 45q-18 16 -18 40v422q0 26 17 43.5t43 17.5t43.5 -17.5t17.5 -43.5v-421zM74 670
q0 27 20 43t49 16t49 -16t20 -43v-6q0 -27 -20 -43.5t-49 -16.5t-49 16.5t-20 43.5v6z" />
    <glyph glyph-name="Kcommaaccent" unicode="&#x136;" horiz-adv-x="713" 
d="M356 -161q-23 4 -38.5 17t-15.5 36v2q0 23 17 38t44 15q29 0 46.5 -19t17.5 -51v-3q0 -38 -10.5 -63.5t-32.5 -44.5q-17 -15 -41 -24t-45 -9q-14 0 -20 6.5t-6 14.5q0 16 21 21q65 14 63 64zM90 644q0 26 18 43.5t44 17.5t43.5 -17.5t17.5 -43.5v-296l332 334
q11 11 22.5 17t28.5 6q26 0 41.5 -17t15.5 -40q0 -26 -22 -46l-218 -210l236 -293q8 -10 12.5 -20t4.5 -24q0 -26 -18 -43t-44 -17q-18 0 -30 8t-22 21l-225 287l-114 -110v-145q0 -26 -17.5 -43.5t-43.5 -17.5t-44 17.5t-18 43.5v588z" />
    <glyph glyph-name="kcommaaccent" unicode="&#x137;" horiz-adv-x="580" 
d="M295 -166q-23 4 -38.5 17t-15.5 36v2q0 23 17 38t44 15q29 0 46.5 -19t17.5 -51v-3q0 -38 -10.5 -63.5t-32.5 -44.5q-17 -15 -41 -24t-45 -9q-14 0 -20 6.5t-6 14.5q0 16 21 21q65 14 63 64zM76 675q0 25 17 42.5t43 17.5t43.5 -17.5t17.5 -42.5v-390l227 223
q12 12 24 19t28 7q24 0 38.5 -16.5t14.5 -38.5q0 -15 -7 -27t-20 -24l-140 -129l160 -209q8 -11 12 -20t4 -20q0 -25 -17 -40t-40 -15q-18 0 -30 6.5t-23 20.5l-151 201l-80 -76v-92q0 -26 -17.5 -43t-43.5 -17q-25 0 -42.5 17t-17.5 43v620z" />
    <glyph glyph-name="Lacute" unicode="&#x139;" horiz-adv-x="619" 
d="M169 753q-13 0 -21.5 5.5t-8.5 15.5q0 5 2.5 11t5.5 11l57 88q18 29 48 29q12 0 24.5 -3.5t23 -9t17.5 -12.5t7 -14q0 -15 -17 -30l-67 -64q-18 -17 -34 -22t-37 -5zM90 644q0 26 18 43.5t44 17.5t43.5 -17.5t17.5 -43.5v-532h317q23 0 39.5 -16.5t16.5 -39.5
t-16.5 -39.5t-39.5 -16.5h-378q-26 0 -44 18t-18 44v582z" />
    <glyph glyph-name="lacute" unicode="&#x13a;" horiz-adv-x="286" 
d="M141 770q-13 0 -21.5 5.5t-8.5 15.5q0 5 2.5 11t5.5 11l57 88q18 29 48 29q12 0 24.5 -3.5t23 -9t17.5 -12.5t7 -14q0 -15 -17 -30l-67 -64q-18 -17 -34 -22t-37 -5zM83 675q0 25 17 42.5t43 17.5t43.5 -17.5t17.5 -42.5v-620q0 -26 -17.5 -43t-43.5 -17q-25 0 -42.5 17
t-17.5 43v620z" />
    <glyph glyph-name="Lcaron" unicode="&#x13d;" horiz-adv-x="619" 
d="M300 658q1 19 12.5 31.5t31.5 12.5h18q14 0 22.5 -7.5t8.5 -21.5q0 -11 -4 -23l-37 -121q-4 -12 -10.5 -18.5t-18.5 -6.5t-19.5 8t-6.5 22zM90 644q0 26 18 43.5t44 17.5t43.5 -17.5t17.5 -43.5v-532h317q23 0 39.5 -16.5t16.5 -39.5t-16.5 -39.5t-39.5 -16.5h-378
q-26 0 -44 18t-18 44v582z" />
    <glyph glyph-name="lcaron" unicode="&#x13e;" horiz-adv-x="286" 
d="M263 691q1 19 12.5 31.5t31.5 12.5h18q14 0 22.5 -7.5t8.5 -21.5q0 -11 -4 -23l-37 -121q-4 -12 -10.5 -18.5t-18.5 -6.5t-19.5 8t-6.5 22zM83 675q0 25 17 42.5t43 17.5t43.5 -17.5t17.5 -42.5v-620q0 -26 -17.5 -43t-43.5 -17q-25 0 -42.5 17t-17.5 43v620z" />
    <glyph glyph-name="Lcommaaccent" unicode="&#x13b;" horiz-adv-x="619" 
d="M325 -166q-23 4 -38.5 17t-15.5 36v2q0 23 17 38t44 15q29 0 46.5 -19t17.5 -51v-3q0 -38 -10.5 -63.5t-32.5 -44.5q-17 -15 -41 -24t-45 -9q-14 0 -20 6.5t-6 14.5q0 16 21 21q65 14 63 64zM90 644q0 26 18 43.5t44 17.5t43.5 -17.5t17.5 -43.5v-532h317
q23 0 39.5 -16.5t16.5 -39.5t-16.5 -39.5t-39.5 -16.5h-378q-26 0 -44 18t-18 44v582z" />
    <glyph glyph-name="lcommaaccent" unicode="&#x13c;" horiz-adv-x="286" 
d="M135 -166q-23 4 -38.5 17t-15.5 36v2q0 23 17 38t44 15q29 0 46.5 -19t17.5 -51v-3q0 -38 -10.5 -63.5t-32.5 -44.5q-17 -15 -41 -24t-45 -9q-14 0 -20 6.5t-6 14.5q0 16 21 21q65 14 63 64zM83 675q0 25 17 42.5t43 17.5t43.5 -17.5t17.5 -42.5v-620q0 -26 -17.5 -43
t-43.5 -17q-25 0 -42.5 17t-17.5 43v620z" />
    <glyph glyph-name="Ldot" unicode="&#x13f;" horiz-adv-x="619" 
d="M90 644q0 26 18 43.5t44 17.5t43.5 -17.5t17.5 -43.5v-532h317q23 0 39.5 -16.5t16.5 -39.5t-16.5 -39.5t-39.5 -16.5h-378q-26 0 -44 18t-18 44v582zM543 374q0 -28 -20 -44.5t-48 -16.5t-47.5 16.5t-19.5 44.5v7q0 28 19.5 45t47.5 17t48 -17t20 -45v-7z" />
    <glyph glyph-name="ldot" unicode="&#x140;" horiz-adv-x="367" 
d="M382 369q0 -23 -15.5 -39t-39.5 -16t-39.5 16t-15.5 39v11q0 23 15.5 39t39.5 16t39.5 -16t15.5 -39v-11zM83 675q0 25 17 42.5t43 17.5t43.5 -17.5t17.5 -42.5v-620q0 -26 -17.5 -43t-43.5 -17q-25 0 -42.5 17t-17.5 43v620z" />
    <glyph glyph-name="Lslash" unicode="&#x141;" horiz-adv-x="649" 
d="M242 315v-203h318q23 0 39.5 -16.5t16.5 -39.5t-16.5 -39.5t-39.5 -16.5h-378q-26 0 -44 18t-18 44v216l-6 -2q-5 -1 -11 -2t-9 -1q-23 0 -38.5 16.5t-15.5 39.5q0 20 11 33.5t28 18.5l41 12v251q0 26 17.5 43.5t43.5 17.5t43.5 -17.5t17.5 -43.5v-214l133 40q5 2 11 2.5
t9 0.5q23 0 38.5 -16t15.5 -39q0 -20 -11 -33.5t-28 -18.5z" />
    <glyph glyph-name="lslash" unicode="&#x142;" horiz-adv-x="346" 
d="M233 332v-277q0 -26 -17 -43t-43 -17q-25 0 -42.5 17t-17.5 43v241l-9 -2q-5 -2 -11 -2.5t-9 -0.5q-23 0 -38.5 16t-15.5 39q0 20 11 33.5t28 18.5q6 2 13 4q6 2 13.5 4t17.5 5v264q0 25 17 42.5t43 17.5t43 -17.5t17 -42.5v-228l9 3q5 2 11 2.5t9 0.5q23 0 38.5 -16
t15.5 -39q0 -20 -11 -33.5t-28 -18.5z" />
    <glyph glyph-name="Nacute" unicode="&#x143;" horiz-adv-x="790" 
d="M391 753q-13 0 -21.5 5.5t-8.5 15.5q0 5 2.5 11t5.5 11l57 88q18 29 48 29q12 0 24.5 -3.5t23 -9t17.5 -12.5t7 -14q0 -15 -17 -30l-67 -64q-18 -17 -34 -22t-37 -5zM90 642q0 26 18 44t44 18h13q23 0 37 -10t27 -26l350 -453v430q0 25 17.5 42.5t42.5 17.5
q26 0 43.5 -17.5t17.5 -42.5v-588q0 -26 -17 -43.5t-43 -17.5h-5q-22 0 -36.5 10t-27.5 27l-360 466v-444q0 -25 -17.5 -42.5t-42.5 -17.5q-26 0 -43.5 17.5t-17.5 42.5v587z" />
    <glyph glyph-name="nacute" unicode="&#x144;" horiz-adv-x="620" 
d="M309 590q-13 0 -21.5 5.5t-8.5 15.5q0 5 2.5 11t5.5 11l57 88q18 29 48 29q12 0 24.5 -3.5t23 -9t17.5 -12.5t7 -14q0 -15 -17 -30l-67 -64q-18 -17 -34 -22t-37 -5zM76 473q0 26 17 43.5t43 17.5t43.5 -17.5t17.5 -43.5v-26q13 18 28.5 35t36 29.5t45 20t55.5 7.5
q90 0 139 -55t49 -147v-282q0 -26 -17 -43t-43 -17t-43.5 17t-17.5 43v245q0 62 -29.5 95.5t-83.5 33.5q-53 0 -86 -34.5t-33 -96.5v-243q0 -26 -17.5 -43t-43.5 -17q-25 0 -42.5 17t-17.5 43v418z" />
    <glyph glyph-name="Ncaron" unicode="&#x147;" horiz-adv-x="790" 
d="M448 883q20 17 36.5 22t37.5 5q12 0 19.5 -5t7.5 -15q0 -6 -3.5 -12t-8.5 -12l-66 -83q-11 -14 -24 -21.5t-34 -7.5h-36q-21 0 -34 7.5t-24 21.5l-66 83q-5 6 -8.5 12t-3.5 12q0 10 8.5 15t20.5 5q21 0 37.5 -5t36.5 -22l52 -45zM90 642q0 26 18 44t44 18h13q23 0 37 -10
t27 -26l350 -453v430q0 25 17.5 42.5t42.5 17.5q26 0 43.5 -17.5t17.5 -42.5v-588q0 -26 -17 -43.5t-43 -17.5h-5q-22 0 -36.5 10t-27.5 27l-360 466v-444q0 -25 -17.5 -42.5t-42.5 -17.5q-26 0 -43.5 17.5t-17.5 42.5v587z" />
    <glyph glyph-name="ncaron" unicode="&#x148;" horiz-adv-x="620" 
d="M365 720q20 17 36.5 22t37.5 5q12 0 19.5 -5t7.5 -15q0 -6 -3.5 -12t-8.5 -12l-66 -83q-11 -14 -24 -21.5t-34 -7.5h-36q-21 0 -34 7.5t-24 21.5l-66 83q-5 6 -8.5 12t-3.5 12q0 10 8.5 15t20.5 5q21 0 37.5 -5t36.5 -22l52 -45zM76 473q0 26 17 43.5t43 17.5t43.5 -17.5
t17.5 -43.5v-26q13 18 28.5 35t36 29.5t45 20t55.5 7.5q90 0 139 -55t49 -147v-282q0 -26 -17 -43t-43 -17t-43.5 17t-17.5 43v245q0 62 -29.5 95.5t-83.5 33.5q-53 0 -86 -34.5t-33 -96.5v-243q0 -26 -17.5 -43t-43.5 -17q-25 0 -42.5 17t-17.5 43v418z" />
    <glyph glyph-name="Ncommaaccent" unicode="&#x145;" horiz-adv-x="790" 
d="M386 -161q-23 4 -38.5 17t-15.5 36v2q0 23 17 38t44 15q29 0 46.5 -19t17.5 -51v-3q0 -38 -10.5 -63.5t-32.5 -44.5q-17 -15 -41 -24t-45 -9q-14 0 -20 6.5t-6 14.5q0 16 21 21q65 14 63 64zM90 642q0 26 18 44t44 18h13q23 0 37 -10t27 -26l350 -453v430q0 25 17.5 42.5
t42.5 17.5q26 0 43.5 -17.5t17.5 -42.5v-588q0 -26 -17 -43.5t-43 -17.5h-5q-22 0 -36.5 10t-27.5 27l-360 466v-444q0 -25 -17.5 -42.5t-42.5 -17.5q-26 0 -43.5 17.5t-17.5 42.5v587z" />
    <glyph glyph-name="ncommaaccent" unicode="&#x146;" horiz-adv-x="620" 
d="M304 -166q-23 4 -38.5 17t-15.5 36v2q0 23 17 38t44 15q29 0 46.5 -19t17.5 -51v-3q0 -38 -10.5 -63.5t-32.5 -44.5q-17 -15 -41 -24t-45 -9q-14 0 -20 6.5t-6 14.5q0 16 21 21q65 14 63 64zM76 473q0 26 17 43.5t43 17.5t43.5 -17.5t17.5 -43.5v-26q13 18 28.5 35
t36 29.5t45 20t55.5 7.5q90 0 139 -55t49 -147v-282q0 -26 -17 -43t-43 -17t-43.5 17t-17.5 43v245q0 62 -29.5 95.5t-83.5 33.5q-53 0 -86 -34.5t-33 -96.5v-243q0 -26 -17.5 -43t-43.5 -17q-25 0 -42.5 17t-17.5 43v418z" />
    <glyph glyph-name="Ntilde" unicode="&#xd1;" horiz-adv-x="790" 
d="M90 642q0 26 18 44t44 18h13q23 0 37 -10t27 -26l350 -453v430q0 25 17.5 42.5t42.5 17.5q26 0 43.5 -17.5t17.5 -42.5v-588q0 -26 -17 -43.5t-43 -17.5h-5q-22 0 -36.5 10t-27.5 27l-360 466v-444q0 -25 -17.5 -42.5t-42.5 -17.5q-26 0 -43.5 17.5t-17.5 42.5v587z
M286 766q-5 -8 -13 -14t-20 -6q-15 0 -26 10t-11 23q0 5 1 11.5t3 11.5q16 44 39 67.5t63 23.5q21 0 41 -6.5t38.5 -14t34.5 -13.5t30 -6q17 0 27 7.5t19 24.5q5 8 13.5 14t19.5 6q15 0 26 -10t11 -23q0 -5 -1 -11.5t-3 -11.5q-16 -44 -39 -67.5t-63 -23.5q-21 0 -41 6
t-38.5 13.5t-35 14t-29.5 6.5q-17 0 -27 -7.5t-19 -24.5z" />
    <glyph glyph-name="ntilde" unicode="&#xf1;" horiz-adv-x="620" 
d="M76 473q0 26 17 43.5t43 17.5t43.5 -17.5t17.5 -43.5v-26q13 18 28.5 35t36 29.5t45 20t55.5 7.5q90 0 139 -55t49 -147v-282q0 -26 -17 -43t-43 -17t-43.5 17t-17.5 43v245q0 62 -29.5 95.5t-83.5 33.5q-53 0 -86 -34.5t-33 -96.5v-243q0 -26 -17.5 -43t-43.5 -17
q-25 0 -42.5 17t-17.5 43v418zM203 603q-5 -8 -13 -14t-20 -6q-15 0 -26 10t-11 23q0 5 1 11.5t3 11.5q16 44 39 67.5t63 23.5q21 0 41 -6.5t38.5 -14t34.5 -13.5t30 -6q17 0 27 7.5t19 24.5q5 8 13.5 14t19.5 6q15 0 26 -10t11 -23q0 -5 -1 -11.5t-3 -11.5
q-16 -44 -39 -67.5t-63 -23.5q-21 0 -41 6t-38.5 13.5t-35 14t-29.5 6.5q-17 0 -27 -7.5t-19 -24.5z" />
    <glyph glyph-name="Oacute" unicode="&#xd3;" horiz-adv-x="850" 
d="M421 763q-13 0 -21.5 5.5t-8.5 15.5q0 5 2.5 11t5.5 11l57 88q18 29 48 29q12 0 24.5 -3.5t23 -9t17.5 -12.5t7 -14q0 -15 -17 -30l-67 -64q-18 -17 -34 -22t-37 -5zM424 -12q-81 0 -148 28.5t-115 77.5t-75 114.5t-27 139.5v2q0 74 27 139.5t76 115t116 78.5t148 29
t148 -28.5t115 -77.5t75 -114.5t27 -139.5v-2q0 -74 -27 -139.5t-76 -115t-116 -78.5t-148 -29zM426 102q52 0 95.5 19.5t74.5 52.5t48.5 78t17.5 96v2q0 51 -17.5 96.5t-49 79t-75.5 53.5t-96 20t-95.5 -19.5t-74.5 -53t-48.5 -78.5t-17.5 -96v-2q0 -51 17.5 -96t49 -79
t75.5 -53.5t96 -19.5z" />
    <glyph glyph-name="oacute" unicode="&#xf3;" horiz-adv-x="657" 
d="M325 590q-13 0 -21.5 5.5t-8.5 15.5q0 5 2.5 11t5.5 11l57 88q18 29 48 29q12 0 24.5 -3.5t23 -9t17.5 -12.5t7 -14q0 -15 -17 -30l-67 -64q-18 -17 -34 -22t-37 -5zM327 -12q-60 0 -111.5 21.5t-89 58.5t-58.5 87t-21 106v2q0 57 21.5 107t59 87.5t89 59.5t112.5 22
t112.5 -21.5t89 -59t58.5 -87t21 -106.5v-2q0 -56 -21.5 -106t-59 -87.5t-89.5 -59.5t-113 -22zM329 94q37 0 66.5 13.5t50.5 36t32 53t11 64.5v2q0 35 -12 66t-33.5 54t-51 36.5t-65.5 13.5t-65.5 -13.5t-50.5 -36t-32 -53.5t-11 -65v-2q0 -35 12 -65.5t33.5 -53.5
t51 -36.5t64.5 -13.5z" />
    <glyph glyph-name="Obreve" unicode="&#x14e;" horiz-adv-x="850" 
d="M424 -12q-81 0 -148 28.5t-115 77.5t-75 114.5t-27 139.5v2q0 74 27 139.5t76 115t116 78.5t148 29t148 -28.5t115 -77.5t75 -114.5t27 -139.5v-2q0 -74 -27 -139.5t-76 -115t-116 -78.5t-148 -29zM426 102q52 0 95.5 19.5t74.5 52.5t48.5 78t17.5 96v2q0 51 -17.5 96.5
t-49 79t-75.5 53.5t-96 20t-95.5 -19.5t-74.5 -53t-48.5 -78.5t-17.5 -96v-2q0 -51 17.5 -96t49 -79t75.5 -53.5t96 -19.5zM425 766q-53 0 -92 21t-61 59q-8 16 -8 31q0 18 12 30.5t30 12.5q16 0 24.5 -7t13.5 -16q11 -20 30 -33t51 -13t51 13t30 33q5 9 13.5 16t24.5 7
q18 0 30 -12.5t12 -30.5q0 -15 -8 -31q-22 -38 -60.5 -59t-92.5 -21z" />
    <glyph glyph-name="obreve" unicode="&#x14f;" horiz-adv-x="657" 
d="M327 -12q-60 0 -111.5 21.5t-89 58.5t-58.5 87t-21 106v2q0 57 21.5 107t59 87.5t89 59.5t112.5 22t112.5 -21.5t89 -59t58.5 -87t21 -106.5v-2q0 -56 -21.5 -106t-59 -87.5t-89.5 -59.5t-113 -22zM329 94q37 0 66.5 13.5t50.5 36t32 53t11 64.5v2q0 35 -12 66t-33.5 54
t-51 36.5t-65.5 13.5t-65.5 -13.5t-50.5 -36t-32 -53.5t-11 -65v-2q0 -35 12 -65.5t33.5 -53.5t51 -36.5t64.5 -13.5zM328 593q-53 0 -92 21t-61 59q-8 16 -8 31q0 18 12 30.5t30 12.5q16 0 24.5 -7t13.5 -16q11 -20 30 -33t51 -13t51 13t30 33q5 9 13.5 16t24.5 7
q18 0 30 -12.5t12 -30.5q0 -15 -8 -31q-22 -38 -60.5 -59t-92.5 -21z" />
    <glyph glyph-name="Ocircumflex" unicode="&#xd4;" horiz-adv-x="850" 
d="M372 790q-20 -17 -36.5 -22t-37.5 -5q-11 0 -19 5t-8 15q0 5 3.5 11.5t8.5 12.5l66 83q11 14 24 21.5t34 7.5h36q21 0 34 -7.5t24 -21.5l66 -83q5 -6 8.5 -12.5t3.5 -11.5q0 -10 -8.5 -15t-20.5 -5q-21 0 -37.5 5t-36.5 22l-52 45zM424 -12q-81 0 -148 28.5t-115 77.5
t-75 114.5t-27 139.5v2q0 74 27 139.5t76 115t116 78.5t148 29t148 -28.5t115 -77.5t75 -114.5t27 -139.5v-2q0 -74 -27 -139.5t-76 -115t-116 -78.5t-148 -29zM426 102q52 0 95.5 19.5t74.5 52.5t48.5 78t17.5 96v2q0 51 -17.5 96.5t-49 79t-75.5 53.5t-96 20t-95.5 -19.5
t-74.5 -53t-48.5 -78.5t-17.5 -96v-2q0 -51 17.5 -96t49 -79t75.5 -53.5t96 -19.5z" />
    <glyph glyph-name="ocircumflex" unicode="&#xf4;" horiz-adv-x="657" 
d="M275 617q-20 -17 -36.5 -22t-37.5 -5q-11 0 -19 5t-8 15q0 5 3.5 11.5t8.5 12.5l66 83q11 14 24 21.5t34 7.5h36q21 0 34 -7.5t24 -21.5l66 -83q5 -6 8.5 -12.5t3.5 -11.5q0 -10 -8.5 -15t-20.5 -5q-21 0 -37.5 5t-36.5 22l-52 45zM327 -12q-60 0 -111.5 21.5t-89 58.5
t-58.5 87t-21 106v2q0 57 21.5 107t59 87.5t89 59.5t112.5 22t112.5 -21.5t89 -59t58.5 -87t21 -106.5v-2q0 -56 -21.5 -106t-59 -87.5t-89.5 -59.5t-113 -22zM329 94q37 0 66.5 13.5t50.5 36t32 53t11 64.5v2q0 35 -12 66t-33.5 54t-51 36.5t-65.5 13.5t-65.5 -13.5
t-50.5 -36t-32 -53.5t-11 -65v-2q0 -35 12 -65.5t33.5 -53.5t51 -36.5t64.5 -13.5z" />
    <glyph glyph-name="Odieresis" unicode="&#xd6;" horiz-adv-x="850" 
d="M525 893q27 0 46 -17.5t19 -44.5v-7q0 -27 -19 -44t-46 -17q-28 0 -47 17t-19 44v7q0 27 19 44.5t47 17.5zM326 893q27 0 46 -17.5t19 -44.5v-7q0 -27 -19 -44t-46 -17q-28 0 -47 17t-19 44v7q0 27 19 44.5t47 17.5zM424 -12q-81 0 -148 28.5t-115 77.5t-75 114.5
t-27 139.5v2q0 74 27 139.5t76 115t116 78.5t148 29t148 -28.5t115 -77.5t75 -114.5t27 -139.5v-2q0 -74 -27 -139.5t-76 -115t-116 -78.5t-148 -29zM426 102q52 0 95.5 19.5t74.5 52.5t48.5 78t17.5 96v2q0 51 -17.5 96.5t-49 79t-75.5 53.5t-96 20t-95.5 -19.5t-74.5 -53
t-48.5 -78.5t-17.5 -96v-2q0 -51 17.5 -96t49 -79t75.5 -53.5t96 -19.5z" />
    <glyph glyph-name="odieresis" unicode="&#xf6;" horiz-adv-x="657" 
d="M428 720q27 0 46 -17.5t19 -44.5v-7q0 -27 -19 -44t-46 -17q-28 0 -47 17t-19 44v7q0 27 19 44.5t47 17.5zM229 720q27 0 46 -17.5t19 -44.5v-7q0 -27 -19 -44t-46 -17q-28 0 -47 17t-19 44v7q0 27 19 44.5t47 17.5zM327 -12q-60 0 -111.5 21.5t-89 58.5t-58.5 87
t-21 106v2q0 57 21.5 107t59 87.5t89 59.5t112.5 22t112.5 -21.5t89 -59t58.5 -87t21 -106.5v-2q0 -56 -21.5 -106t-59 -87.5t-89.5 -59.5t-113 -22zM329 94q37 0 66.5 13.5t50.5 36t32 53t11 64.5v2q0 35 -12 66t-33.5 54t-51 36.5t-65.5 13.5t-65.5 -13.5t-50.5 -36
t-32 -53.5t-11 -65v-2q0 -35 12 -65.5t33.5 -53.5t51 -36.5t64.5 -13.5z" />
    <glyph glyph-name="OE" unicode="&#x152;" horiz-adv-x="1098" 
d="M431 0q-83 0 -151 26.5t-117.5 73t-76.5 110.5t-27 138v2q0 74 27 138t76.5 111t117.5 74t151 27h556q23 0 39.5 -16t16.5 -39t-16.5 -39t-39.5 -16h-324v-182h279q23 0 39.5 -16.5t16.5 -39.5t-16.5 -38.5t-39.5 -15.5h-279v-188h329q23 0 39.5 -16t16.5 -39t-16.5 -39
t-39.5 -16h-561zM540 112v476h-109q-55 0 -100 -17.5t-76.5 -49t-49 -75t-17.5 -94.5v-2q0 -51 17.5 -95t49 -75.5t76.5 -49.5t100 -18h109z" />
    <glyph glyph-name="oe" unicode="&#x153;" horiz-adv-x="1040" 
d="M874 301q-3 29 -13.5 54.5t-27 44t-40 29.5t-53.5 11q-57 0 -93.5 -38.5t-44.5 -100.5h272zM326 94q36 0 64.5 13.5t49 36t31.5 53t11 64.5v2q0 35 -12 66t-33 54t-50 36.5t-63 13.5q-36 0 -64.5 -13.5t-49 -36.5t-31.5 -53.5t-11 -64.5v-2q0 -35 11.5 -65.5t32.5 -53.5
t50 -36.5t64 -13.5zM943 58q-36 -32 -82 -51t-107 -19q-69 0 -126 29.5t-92 81.5q-35 -51 -90.5 -81t-124.5 -30q-57 0 -107 21.5t-87 58.5t-58.5 87t-21.5 106v2q0 57 21.5 107t59 87.5t88.5 59.5t110 22q68 0 122.5 -29.5t88.5 -79.5q33 50 85.5 79.5t118.5 29.5
q63 0 109.5 -23.5t78 -61t47 -83.5t15.5 -92q0 -26 -16.5 -42t-40.5 -16h-331q11 -65 52.5 -99.5t99.5 -34.5q38 0 68.5 12.5t56.5 33.5q14 11 31 11q21 0 34.5 -14t13.5 -35q0 -23 -16 -37z" />
    <glyph glyph-name="Ograve" unicode="&#xd2;" horiz-adv-x="850" 
d="M424 -12q-81 0 -148 28.5t-115 77.5t-75 114.5t-27 139.5v2q0 74 27 139.5t76 115t116 78.5t148 29t148 -28.5t115 -77.5t75 -114.5t27 -139.5v-2q0 -74 -27 -139.5t-76 -115t-116 -78.5t-148 -29zM426 102q52 0 95.5 19.5t74.5 52.5t48.5 78t17.5 96v2q0 51 -17.5 96.5
t-49 79t-75.5 53.5t-96 20t-95.5 -19.5t-74.5 -53t-48.5 -78.5t-17.5 -96v-2q0 -51 17.5 -96t49 -79t75.5 -53.5t96 -19.5zM428 763q-21 0 -37 5t-33 22l-68 64q-17 15 -17 30q0 7 6.5 14t17 12.5t23.5 9t25 3.5q30 0 48 -29l57 -88q3 -5 6 -11t3 -11q0 -10 -8.5 -15.5
t-22.5 -5.5z" />
    <glyph glyph-name="ograve" unicode="&#xf2;" horiz-adv-x="657" 
d="M327 -12q-60 0 -111.5 21.5t-89 58.5t-58.5 87t-21 106v2q0 57 21.5 107t59 87.5t89 59.5t112.5 22t112.5 -21.5t89 -59t58.5 -87t21 -106.5v-2q0 -56 -21.5 -106t-59 -87.5t-89.5 -59.5t-113 -22zM329 94q37 0 66.5 13.5t50.5 36t32 53t11 64.5v2q0 35 -12 66t-33.5 54
t-51 36.5t-65.5 13.5t-65.5 -13.5t-50.5 -36t-32 -53.5t-11 -65v-2q0 -35 12 -65.5t33.5 -53.5t51 -36.5t64.5 -13.5zM331 590q-21 0 -37 5t-33 22l-68 64q-17 15 -17 30q0 7 6.5 14t17 12.5t23.5 9t25 3.5q30 0 48 -29l57 -88q3 -5 6 -11t3 -11q0 -10 -8.5 -15.5
t-22.5 -5.5z" />
    <glyph glyph-name="Ohungarumlaut" unicode="&#x150;" horiz-adv-x="850" 
d="M503 763q-13 0 -21 5.5t-8 15.5q0 5 2.5 11t5.5 11l58 88q8 14 18.5 21.5t27.5 7.5q12 0 24 -3.5t22.5 -8.5t17 -12t6.5 -14q0 -9 -4.5 -16t-12.5 -15l-67 -64q-18 -17 -33 -22t-36 -5zM320 763q-13 0 -21 5.5t-8 15.5q0 5 2.5 11t5.5 11l58 88q17 29 46 29q12 0 24 -3.5
t22.5 -8.5t17 -12t6.5 -14q0 -9 -4.5 -16t-12.5 -15l-67 -64q-17 -17 -32.5 -22t-36.5 -5zM424 -12q-81 0 -148 28.5t-115 77.5t-75 114.5t-27 139.5v2q0 74 27 139.5t76 115t116 78.5t148 29t148 -28.5t115 -77.5t75 -114.5t27 -139.5v-2q0 -74 -27 -139.5t-76 -115
t-116 -78.5t-148 -29zM426 102q52 0 95.5 19.5t74.5 52.5t48.5 78t17.5 96v2q0 51 -17.5 96.5t-49 79t-75.5 53.5t-96 20t-95.5 -19.5t-74.5 -53t-48.5 -78.5t-17.5 -96v-2q0 -51 17.5 -96t49 -79t75.5 -53.5t96 -19.5z" />
    <glyph glyph-name="ohungarumlaut" unicode="&#x151;" horiz-adv-x="657" 
d="M407 590q-13 0 -21 5.5t-8 15.5q0 5 2.5 11t5.5 11l58 88q8 14 18.5 21.5t27.5 7.5q12 0 24 -3.5t22.5 -8.5t17 -12t6.5 -14q0 -9 -4.5 -16t-12.5 -15l-67 -64q-18 -17 -33 -22t-36 -5zM224 590q-13 0 -21 5.5t-8 15.5q0 5 2.5 11t5.5 11l58 88q17 29 46 29q12 0 24 -3.5
t22.5 -8.5t17 -12t6.5 -14q0 -9 -4.5 -16t-12.5 -15l-67 -64q-17 -17 -32.5 -22t-36.5 -5zM327 -12q-60 0 -111.5 21.5t-89 58.5t-58.5 87t-21 106v2q0 57 21.5 107t59 87.5t89 59.5t112.5 22t112.5 -21.5t89 -59t58.5 -87t21 -106.5v-2q0 -56 -21.5 -106t-59 -87.5
t-89.5 -59.5t-113 -22zM329 94q37 0 66.5 13.5t50.5 36t32 53t11 64.5v2q0 35 -12 66t-33.5 54t-51 36.5t-65.5 13.5t-65.5 -13.5t-50.5 -36t-32 -53.5t-11 -65v-2q0 -35 12 -65.5t33.5 -53.5t51 -36.5t64.5 -13.5z" />
    <glyph glyph-name="Omacron" unicode="&#x14c;" horiz-adv-x="850" 
d="M292 779q-18 0 -31 13t-13 31t13 31t31 13h266q18 0 31 -13t13 -31t-13 -31t-31 -13h-266zM424 -12q-81 0 -148 28.5t-115 77.5t-75 114.5t-27 139.5v2q0 74 27 139.5t76 115t116 78.5t148 29t148 -28.5t115 -77.5t75 -114.5t27 -139.5v-2q0 -74 -27 -139.5t-76 -115
t-116 -78.5t-148 -29zM426 102q52 0 95.5 19.5t74.5 52.5t48.5 78t17.5 96v2q0 51 -17.5 96.5t-49 79t-75.5 53.5t-96 20t-95.5 -19.5t-74.5 -53t-48.5 -78.5t-17.5 -96v-2q0 -51 17.5 -96t49 -79t75.5 -53.5t96 -19.5z" />
    <glyph glyph-name="omacron" unicode="&#x14d;" horiz-adv-x="657" 
d="M195 606q-18 0 -31 13t-13 31t13 31t31 13h266q18 0 31 -13t13 -31t-13 -31t-31 -13h-266zM327 -12q-60 0 -111.5 21.5t-89 58.5t-58.5 87t-21 106v2q0 57 21.5 107t59 87.5t89 59.5t112.5 22t112.5 -21.5t89 -59t58.5 -87t21 -106.5v-2q0 -56 -21.5 -106t-59 -87.5
t-89.5 -59.5t-113 -22zM329 94q37 0 66.5 13.5t50.5 36t32 53t11 64.5v2q0 35 -12 66t-33.5 54t-51 36.5t-65.5 13.5t-65.5 -13.5t-50.5 -36t-32 -53.5t-11 -65v-2q0 -35 12 -65.5t33.5 -53.5t51 -36.5t64.5 -13.5z" />
    <glyph glyph-name="Oslash" unicode="&#xd8;" horiz-adv-x="850" 
d="M424 -12q-64 0 -118.5 17.5t-99.5 49.5l-48 -48q-15 -17 -38 -17q-19 0 -31 11.5t-12 28.5q0 11 5 20.5t12 16.5l47 49q-39 48 -60.5 107t-21.5 125v2q0 74 27 139.5t76 115t116 78.5t148 29q63 0 118 -18t100 -50l48 49q17 17 38 17q19 0 31 -11.5t12 -27.5
q0 -12 -5 -21.5t-12 -16.5l-47 -49q39 -48 60.5 -107t21.5 -125v-2q0 -74 -27 -139.5t-76 -115t-116 -78.5t-148 -29zM186 350q0 -40 11 -76t31 -67l334 349q-29 21 -63.5 33t-74.5 12q-52 0 -96 -19.5t-75.5 -53.5t-49 -79.5t-17.5 -96.5v-2zM426 99q52 0 96 19.5
t75.5 53.5t49 79.5t17.5 96.5v2q0 40 -11 76t-31 67l-335 -350q29 -21 64 -32.5t75 -11.5z" />
    <glyph glyph-name="oslash" unicode="&#xf8;" horiz-adv-x="657" 
d="M327 -12q-47 0 -87.5 12.5t-74.5 35.5l-29 -30q-18 -18 -38 -18q-16 0 -27.5 11t-11.5 26q0 12 5 21t12 16l29 30q-28 35 -43 78t-15 91v2q0 57 21.5 107t59 87.5t89 59.5t112.5 22q46 0 87 -13t75 -36l30 31q18 18 38 18q16 0 27.5 -10.5t11.5 -25.5q0 -12 -5 -21
t-12 -17l-30 -30q28 -35 43.5 -78.5t15.5 -91.5v-2q0 -56 -21.5 -106t-59 -87.5t-89.5 -59.5t-113 -22zM165 263q0 -47 22 -88l229 234q-19 13 -41.5 20t-47.5 7q-37 0 -67 -13.5t-51 -37t-32.5 -54.5t-11.5 -66v-2zM329 91q37 0 67.5 13.5t51.5 37t32.5 54t11.5 65.5v2
q0 48 -23 88l-229 -234q38 -26 89 -26z" />
    <glyph glyph-name="Oslashacute" unicode="&#x1fe;" horiz-adv-x="850" 
d="M424 -12q-64 0 -118.5 17.5t-99.5 49.5l-48 -48q-15 -17 -38 -17q-19 0 -31 11.5t-12 28.5q0 11 5 20.5t12 16.5l47 49q-39 48 -60.5 107t-21.5 125v2q0 74 27 139.5t76 115t116 78.5t148 29q63 0 118 -18t100 -50l48 49q17 17 38 17q19 0 31 -11.5t12 -27.5
q0 -12 -5 -21.5t-12 -16.5l-47 -49q39 -48 60.5 -107t21.5 -125v-2q0 -74 -27 -139.5t-76 -115t-116 -78.5t-148 -29zM426 99q52 0 96 19.5t75.5 53.5t49 79.5t17.5 96.5v2q0 40 -11 76t-31 67l-335 -350q29 -21 64 -32.5t75 -11.5zM186 350q0 -40 11 -76t31 -67l334 349
q-29 21 -63.5 33t-74.5 12q-52 0 -96 -19.5t-75.5 -53.5t-49 -79.5t-17.5 -96.5v-2zM421 763q-13 0 -21.5 5.5t-8.5 15.5q0 5 2.5 11t5.5 11l57 88q18 29 48 29q12 0 24.5 -3.5t23 -9t17.5 -12.5t7 -14q0 -15 -17 -30l-67 -64q-18 -17 -34 -22t-37 -5z" />
    <glyph glyph-name="oslashacute" unicode="&#x1ff;" horiz-adv-x="657" 
d="M327 -12q-47 0 -87.5 12.5t-74.5 35.5l-29 -30q-18 -18 -38 -18q-16 0 -27.5 11t-11.5 26q0 12 5 21t12 16l29 30q-28 35 -43 78t-15 91v2q0 57 21.5 107t59 87.5t89 59.5t112.5 22q46 0 87 -13t75 -36l30 31q18 18 38 18q16 0 27.5 -10.5t11.5 -25.5q0 -12 -5 -21
t-12 -17l-30 -30q28 -35 43.5 -78.5t15.5 -91.5v-2q0 -56 -21.5 -106t-59 -87.5t-89.5 -59.5t-113 -22zM165 263q0 -47 22 -88l229 234q-19 13 -41.5 20t-47.5 7q-37 0 -67 -13.5t-51 -37t-32.5 -54.5t-11.5 -66v-2zM329 91q37 0 67.5 13.5t51.5 37t32.5 54t11.5 65.5v2
q0 48 -23 88l-229 -234q38 -26 89 -26zM325 590q-13 0 -21.5 5.5t-8.5 15.5q0 5 2.5 11t5.5 11l57 88q18 29 48 29q12 0 24.5 -3.5t23 -9t17.5 -12.5t7 -14q0 -15 -17 -30l-67 -64q-18 -17 -34 -22t-37 -5z" />
    <glyph glyph-name="Otilde" unicode="&#xd5;" horiz-adv-x="850" 
d="M424 -12q-81 0 -148 28.5t-115 77.5t-75 114.5t-27 139.5v2q0 74 27 139.5t76 115t116 78.5t148 29t148 -28.5t115 -77.5t75 -114.5t27 -139.5v-2q0 -74 -27 -139.5t-76 -115t-116 -78.5t-148 -29zM426 102q52 0 95.5 19.5t74.5 52.5t48.5 78t17.5 96v2q0 51 -17.5 96.5
t-49 79t-75.5 53.5t-96 20t-95.5 -19.5t-74.5 -53t-48.5 -78.5t-17.5 -96v-2q0 -51 17.5 -96t49 -79t75.5 -53.5t96 -19.5zM316 776q-5 -8 -13 -14t-20 -6q-15 0 -26 10t-11 23q0 5 1 11.5t3 11.5q16 44 39 67.5t63 23.5q21 0 41 -6.5t38.5 -14t34.5 -13.5t30 -6
q17 0 27 7.5t19 24.5q5 8 13.5 14t19.5 6q15 0 26 -10t11 -23q0 -5 -1 -11.5t-3 -11.5q-16 -44 -39 -67.5t-63 -23.5q-21 0 -41 6t-38.5 13.5t-35 14t-29.5 6.5q-17 0 -27 -7.5t-19 -24.5z" />
    <glyph glyph-name="otilde" unicode="&#xf5;" horiz-adv-x="657" 
d="M327 -12q-60 0 -111.5 21.5t-89 58.5t-58.5 87t-21 106v2q0 57 21.5 107t59 87.5t89 59.5t112.5 22t112.5 -21.5t89 -59t58.5 -87t21 -106.5v-2q0 -56 -21.5 -106t-59 -87.5t-89.5 -59.5t-113 -22zM329 94q37 0 66.5 13.5t50.5 36t32 53t11 64.5v2q0 35 -12 66t-33.5 54
t-51 36.5t-65.5 13.5t-65.5 -13.5t-50.5 -36t-32 -53.5t-11 -65v-2q0 -35 12 -65.5t33.5 -53.5t51 -36.5t64.5 -13.5zM219 603q-5 -8 -13 -14t-20 -6q-15 0 -26 10t-11 23q0 5 1 11.5t3 11.5q16 44 39 67.5t63 23.5q21 0 41 -6.5t38.5 -14t34.5 -13.5t30 -6q17 0 27 7.5
t19 24.5q5 8 13.5 14t19.5 6q15 0 26 -10t11 -23q0 -5 -1 -11.5t-3 -11.5q-16 -44 -39 -67.5t-63 -23.5q-21 0 -41 6t-38.5 13.5t-35 14t-29.5 6.5q-17 0 -27 -7.5t-19 -24.5z" />
    <glyph glyph-name="Racute" unicode="&#x154;" horiz-adv-x="723" 
d="M90 638q0 26 18 44t44 18h250q66 0 117 -18.5t85 -51.5q28 -29 43 -67t15 -84v-2q0 -42 -11.5 -76t-32.5 -60t-50.5 -44t-64.5 -29l134 -169q9 -11 14.5 -22t5.5 -25q0 -26 -18 -41.5t-41 -15.5q-21 0 -35 9t-25 23l-170 217h-155v-188q0 -26 -17.5 -43.5t-43.5 -17.5
t-44 17.5t-18 43.5v582zM393 353q66 0 105 31.5t39 85.5v2q0 57 -38 86.5t-107 29.5h-179v-235h180zM365 753q-13 0 -21.5 5.5t-8.5 15.5q0 5 2.5 11t5.5 11l57 88q18 29 48 29q12 0 24.5 -3.5t23 -9t17.5 -12.5t7 -14q0 -15 -17 -30l-67 -64q-18 -17 -34 -22t-37 -5z" />
    <glyph glyph-name="racute" unicode="&#x155;" horiz-adv-x="413" 
d="M220 590q-13 0 -21.5 5.5t-8.5 15.5q0 5 2.5 11t5.5 11l57 88q18 29 48 29q12 0 24.5 -3.5t23 -9t17.5 -12.5t7 -14q0 -15 -17 -30l-67 -64q-18 -17 -34 -22t-37 -5zM76 473q0 26 17 43.5t43 17.5t43.5 -17.5t17.5 -43.5v-54q21 50 57 83t76 33q29 0 44.5 -17t15.5 -43
q0 -24 -14 -39t-34 -19q-65 -11 -105 -61.5t-40 -144.5v-156q0 -25 -17.5 -42.5t-43.5 -17.5q-25 0 -42.5 17t-17.5 43v418z" />
    <glyph glyph-name="Rcaron" unicode="&#x158;" horiz-adv-x="723" 
d="M90 638q0 26 18 44t44 18h250q66 0 117 -18.5t85 -51.5q28 -29 43 -67t15 -84v-2q0 -42 -11.5 -76t-32.5 -60t-50.5 -44t-64.5 -29l134 -169q9 -11 14.5 -22t5.5 -25q0 -26 -18 -41.5t-41 -15.5q-21 0 -35 9t-25 23l-170 217h-155v-188q0 -26 -17.5 -43.5t-43.5 -17.5
t-44 17.5t-18 43.5v582zM393 353q66 0 105 31.5t39 85.5v2q0 57 -38 86.5t-107 29.5h-179v-235h180zM421 883q20 17 36.5 22t37.5 5q12 0 19.5 -5t7.5 -15q0 -6 -3.5 -12t-8.5 -12l-66 -83q-11 -14 -24 -21.5t-34 -7.5h-36q-21 0 -34 7.5t-24 21.5l-66 83q-5 6 -8.5 12
t-3.5 12q0 10 8.5 15t20.5 5q21 0 37.5 -5t36.5 -22l52 -45z" />
    <glyph glyph-name="rcaron" unicode="&#x159;" horiz-adv-x="413" 
d="M277 720q20 17 36.5 22t37.5 5q12 0 19.5 -5t7.5 -15q0 -6 -3.5 -12t-8.5 -12l-66 -83q-11 -14 -24 -21.5t-34 -7.5h-36q-21 0 -34 7.5t-24 21.5l-66 83q-5 6 -8.5 12t-3.5 12q0 10 8.5 15t20.5 5q21 0 37.5 -5t36.5 -22l52 -45zM76 473q0 26 17 43.5t43 17.5t43.5 -17.5
t17.5 -43.5v-54q21 50 57 83t76 33q29 0 44.5 -17t15.5 -43q0 -24 -14 -39t-34 -19q-65 -11 -105 -61.5t-40 -144.5v-156q0 -25 -17.5 -42.5t-43.5 -17.5q-25 0 -42.5 17t-17.5 43v418z" />
    <glyph glyph-name="Rcommaaccent" unicode="&#x156;" horiz-adv-x="723" 
d="M90 638q0 26 18 44t44 18h250q66 0 117 -18.5t85 -51.5q28 -29 43 -67t15 -84v-2q0 -42 -11.5 -76t-32.5 -60t-50.5 -44t-64.5 -29l134 -169q9 -11 14.5 -22t5.5 -25q0 -26 -18 -41.5t-41 -15.5q-21 0 -35 9t-25 23l-170 217h-155v-188q0 -26 -17.5 -43.5t-43.5 -17.5
t-44 17.5t-18 43.5v582zM393 353q66 0 105 31.5t39 85.5v2q0 57 -38 86.5t-107 29.5h-179v-235h180zM360 -161q-23 4 -38.5 17t-15.5 36v2q0 23 17 38t44 15q29 0 46.5 -19t17.5 -51v-3q0 -38 -10.5 -63.5t-32.5 -44.5q-17 -15 -41 -24t-45 -9q-14 0 -20 6.5t-6 14.5
q0 16 21 21q65 14 63 64z" />
    <glyph glyph-name="rcommaaccent" unicode="&#x157;" horiz-adv-x="413" 
d="M135 -166q-23 4 -38.5 17t-15.5 36v2q0 23 17 38t44 15q29 0 46.5 -19t17.5 -51v-3q0 -38 -10.5 -63.5t-32.5 -44.5q-17 -15 -41 -24t-45 -9q-14 0 -20 6.5t-6 14.5q0 16 21 21q65 14 63 64zM76 473q0 26 17 43.5t43 17.5t43.5 -17.5t17.5 -43.5v-54q21 50 57 83t76 33
q29 0 44.5 -17t15.5 -43q0 -24 -14 -39t-34 -19q-65 -11 -105 -61.5t-40 -144.5v-156q0 -25 -17.5 -42.5t-43.5 -17.5q-25 0 -42.5 17t-17.5 43v418z" />
    <glyph glyph-name="Sacute" unicode="&#x15a;" horiz-adv-x="640" 
d="M322 763q-13 0 -21.5 5.5t-8.5 15.5q0 5 2.5 11t5.5 11l57 88q18 29 48 29q12 0 24.5 -3.5t23 -9t17.5 -12.5t7 -14q0 -15 -17 -30l-67 -64q-18 -17 -34 -22t-37 -5zM335 -10q-145 0 -263 88q-11 8 -17.5 20t-6.5 27q0 24 17 40.5t41 16.5q13 0 21.5 -3t14.5 -8
q44 -35 91.5 -53.5t104.5 -18.5t90.5 24.5t33.5 63.5v2q0 19 -6.5 33.5t-24 27.5t-48 24t-79.5 22q-56 13 -99.5 29.5t-73 40t-45 57.5t-15.5 82v2q0 45 18 82.5t49.5 64t75.5 41.5t96 15q66 0 120 -16.5t102 -48.5q11 -6 19 -18.5t8 -30.5q0 -24 -17 -40.5t-41 -16.5
q-17 0 -32 9q-41 26 -80 39.5t-81 13.5q-54 0 -84 -24t-30 -59v-2q0 -20 7 -35.5t26 -28t51 -23.5t83 -23q55 -14 97 -31t70.5 -41.5t42.5 -57t14 -75.5v-2q0 -49 -18.5 -88t-51.5 -66t-79 -41t-101 -14z" />
    <glyph glyph-name="sacute" unicode="&#x15b;" horiz-adv-x="501" 
d="M250 590q-13 0 -21.5 5.5t-8.5 15.5q0 5 2.5 11t5.5 11l57 88q18 29 48 29q12 0 24.5 -3.5t23 -9t17.5 -12.5t7 -14q0 -15 -17 -30l-67 -64q-18 -17 -34 -22t-37 -5zM257 -10q-51 0 -103 15.5t-98 47.5q-10 5 -16.5 16t-6.5 26q0 20 14 34.5t35 14.5q14 0 26 -7
q38 -26 77 -38.5t75 -12.5q39 0 60.5 15.5t21.5 41.5v2q0 15 -9.5 26t-26 19t-38 15t-44.5 14q-29 8 -58.5 19t-53 28.5t-38.5 43.5t-15 64v2q0 37 14.5 67t40 51t60 32t73.5 11q42 0 85 -11.5t81 -31.5q13 -7 21 -18.5t8 -27.5q0 -21 -14.5 -35t-35.5 -14q-8 0 -13 1.5
t-11 4.5q-32 17 -64 26.5t-60 9.5q-35 0 -54.5 -14.5t-19.5 -37.5v-2q0 -15 10 -25.5t26.5 -19t38 -16t44.5 -14.5q29 -9 58 -21t52.5 -29.5t38.5 -42.5t15 -61v-2q0 -42 -15 -73t-41.5 -51.5t-62.5 -31t-77 -10.5z" />
    <glyph glyph-name="Scaron" unicode="&#x160;" horiz-adv-x="640" 
d="M378 893q20 17 36.5 22t37.5 5q12 0 19.5 -5t7.5 -15q0 -6 -3.5 -12t-8.5 -12l-66 -83q-11 -14 -24 -21.5t-34 -7.5h-36q-21 0 -34 7.5t-24 21.5l-66 83q-5 6 -8.5 12t-3.5 12q0 10 8.5 15t20.5 5q21 0 37.5 -5t36.5 -22l52 -45zM335 -10q-145 0 -263 88q-11 8 -17.5 20
t-6.5 27q0 24 17 40.5t41 16.5q13 0 21.5 -3t14.5 -8q44 -35 91.5 -53.5t104.5 -18.5t90.5 24.5t33.5 63.5v2q0 19 -6.5 33.5t-24 27.5t-48 24t-79.5 22q-56 13 -99.5 29.5t-73 40t-45 57.5t-15.5 82v2q0 45 18 82.5t49.5 64t75.5 41.5t96 15q66 0 120 -16.5t102 -48.5
q11 -6 19 -18.5t8 -30.5q0 -24 -17 -40.5t-41 -16.5q-17 0 -32 9q-41 26 -80 39.5t-81 13.5q-54 0 -84 -24t-30 -59v-2q0 -20 7 -35.5t26 -28t51 -23.5t83 -23q55 -14 97 -31t70.5 -41.5t42.5 -57t14 -75.5v-2q0 -49 -18.5 -88t-51.5 -66t-79 -41t-101 -14z" />
    <glyph glyph-name="scaron" unicode="&#x161;" horiz-adv-x="501" 
d="M306 720q20 17 36.5 22t37.5 5q12 0 19.5 -5t7.5 -15q0 -6 -3.5 -12t-8.5 -12l-66 -83q-11 -14 -24 -21.5t-34 -7.5h-36q-21 0 -34 7.5t-24 21.5l-66 83q-5 6 -8.5 12t-3.5 12q0 10 8.5 15t20.5 5q21 0 37.5 -5t36.5 -22l52 -45zM257 -10q-51 0 -103 15.5t-98 47.5
q-10 5 -16.5 16t-6.5 26q0 20 14 34.5t35 14.5q14 0 26 -7q38 -26 77 -38.5t75 -12.5q39 0 60.5 15.5t21.5 41.5v2q0 15 -9.5 26t-26 19t-38 15t-44.5 14q-29 8 -58.5 19t-53 28.5t-38.5 43.5t-15 64v2q0 37 14.5 67t40 51t60 32t73.5 11q42 0 85 -11.5t81 -31.5
q13 -7 21 -18.5t8 -27.5q0 -21 -14.5 -35t-35.5 -14q-8 0 -13 1.5t-11 4.5q-32 17 -64 26.5t-60 9.5q-35 0 -54.5 -14.5t-19.5 -37.5v-2q0 -15 10 -25.5t26.5 -19t38 -16t44.5 -14.5q29 -9 58 -21t52.5 -29.5t38.5 -42.5t15 -61v-2q0 -42 -15 -73t-41.5 -51.5t-62.5 -31
t-77 -10.5z" />
    <glyph glyph-name="Scedilla" unicode="&#x15e;" horiz-adv-x="640" 
d="M585 199q0 -45 -15.5 -81t-43 -62.5t-66.5 -42.5t-86 -21l-53 -123q-6 -14 -14.5 -21.5t-24.5 -7.5q-9 0 -21 4t-23 10t-18.5 14t-7.5 16q0 12 8 23l59 87q-56 7 -108 28t-99 56q-11 8 -17.5 20t-6.5 27q0 24 17 40.5t41 16.5q13 0 21.5 -3t14.5 -8q44 -35 91.5 -53.5
t104.5 -18.5t90.5 24.5t33.5 63.5v2q0 19 -6.5 33.5t-24 27.5t-48 24t-79.5 22q-56 13 -99.5 29.5t-73 40t-45 57.5t-15.5 82v2q0 45 18 82.5t49.5 64t75.5 41.5t96 15q66 0 120 -16.5t102 -48.5q11 -6 19 -18.5t8 -30.5q0 -24 -17 -40.5t-41 -16.5q-17 0 -32 9
q-41 26 -80 39.5t-81 13.5q-54 0 -84 -24t-30 -59v-2q0 -20 7 -35.5t26 -28t51 -23.5t83 -23q55 -14 97 -31t70.5 -41.5t42.5 -57t14 -75.5v-2v0z" />
    <glyph glyph-name="scedilla" unicode="&#x15f;" horiz-adv-x="501" 
d="M453 156q0 -74 -45.5 -115t-114.5 -49l-53 -123q-6 -14 -14.5 -21.5t-24.5 -7.5q-9 0 -21 4t-23 10t-18.5 14t-7.5 16q0 12 8 23l60 88q-76 12 -143 58q-10 5 -16.5 16t-6.5 26q0 20 14 34.5t35 14.5q14 0 26 -7q38 -26 77 -38.5t75 -12.5q39 0 60.5 15.5t21.5 41.5v2
q0 15 -9.5 26t-26 19t-38 15t-44.5 14q-29 8 -58.5 19t-53 28.5t-38.5 43.5t-15 64v2q0 37 14.5 67t40 51t60 32t73.5 11q42 0 85 -11.5t81 -31.5q13 -7 21 -18.5t8 -27.5q0 -21 -14.5 -35t-35.5 -14q-8 0 -13 1.5t-11 4.5q-32 17 -64 26.5t-60 9.5q-35 0 -54.5 -14.5
t-19.5 -37.5v-2q0 -15 10 -25.5t26.5 -19t38 -16t44.5 -14.5q29 -9 58 -21t52.5 -29.5t38.5 -42.5t15 -61v-2v0z" />
    <glyph glyph-name="Scommaaccent" unicode="&#x218;" horiz-adv-x="640" 
d="M316 -169q-23 4 -38.5 17t-15.5 36v2q0 23 17 38t44 15q29 0 46.5 -19t17.5 -51v-3q0 -38 -10.5 -63.5t-32.5 -44.5q-17 -15 -41 -24t-45 -9q-14 0 -20 6.5t-6 14.5q0 16 21 21q65 14 63 64zM335 -10q-145 0 -263 88q-11 8 -17.5 20t-6.5 27q0 24 17 40.5t41 16.5
q13 0 21.5 -3t14.5 -8q44 -35 91.5 -53.5t104.5 -18.5t90.5 24.5t33.5 63.5v2q0 19 -6.5 33.5t-24 27.5t-48 24t-79.5 22q-56 13 -99.5 29.5t-73 40t-45 57.5t-15.5 82v2q0 45 18 82.5t49.5 64t75.5 41.5t96 15q66 0 120 -16.5t102 -48.5q11 -6 19 -18.5t8 -30.5
q0 -24 -17 -40.5t-41 -16.5q-17 0 -32 9q-41 26 -80 39.5t-81 13.5q-54 0 -84 -24t-30 -59v-2q0 -20 7 -35.5t26 -28t51 -23.5t83 -23q55 -14 97 -31t70.5 -41.5t42.5 -57t14 -75.5v-2q0 -49 -18.5 -88t-51.5 -66t-79 -41t-101 -14z" />
    <glyph glyph-name="scommaaccent" unicode="&#x219;" horiz-adv-x="501" 
d="M245 -166q-23 4 -38.5 17t-15.5 36v2q0 23 17 38t44 15q29 0 46.5 -19t17.5 -51v-3q0 -38 -10.5 -63.5t-32.5 -44.5q-17 -15 -41 -24t-45 -9q-14 0 -20 6.5t-6 14.5q0 16 21 21q65 14 63 64zM257 -10q-51 0 -103 15.5t-98 47.5q-10 5 -16.5 16t-6.5 26q0 20 14 34.5
t35 14.5q14 0 26 -7q38 -26 77 -38.5t75 -12.5q39 0 60.5 15.5t21.5 41.5v2q0 15 -9.5 26t-26 19t-38 15t-44.5 14q-29 8 -58.5 19t-53 28.5t-38.5 43.5t-15 64v2q0 37 14.5 67t40 51t60 32t73.5 11q42 0 85 -11.5t81 -31.5q13 -7 21 -18.5t8 -27.5q0 -21 -14.5 -35
t-35.5 -14q-8 0 -13 1.5t-11 4.5q-32 17 -64 26.5t-60 9.5q-35 0 -54.5 -14.5t-19.5 -37.5v-2q0 -15 10 -25.5t26.5 -19t38 -16t44.5 -14.5q29 -9 58 -21t52.5 -29.5t38.5 -42.5t15 -61v-2q0 -42 -15 -73t-41.5 -51.5t-62.5 -31t-77 -10.5z" />
    <glyph glyph-name="Tcaron" unicode="&#x164;" horiz-adv-x="648" 
d="M377 883q20 17 36.5 22t37.5 5q12 0 19.5 -5t7.5 -15q0 -6 -3.5 -12t-8.5 -12l-66 -83q-11 -14 -24 -21.5t-34 -7.5h-36q-21 0 -34 7.5t-24 21.5l-66 83q-5 6 -8.5 12t-3.5 12q0 10 8.5 15t20.5 5q21 0 37.5 -5t36.5 -22l52 -45zM262 586h-170q-24 0 -40.5 17t-16.5 40
t16.5 40t40.5 17h465q23 0 39.5 -17t16.5 -40t-16.5 -40t-39.5 -17h-171v-530q0 -26 -18 -43.5t-44 -17.5t-44 17.5t-18 43.5v530z" />
    <glyph glyph-name="tcaron" unicode="&#x165;" horiz-adv-x="411" 
d="M308 736q1 19 12.5 31.5t31.5 12.5h18q14 0 22.5 -7.5t8.5 -21.5q0 -11 -4 -23l-37 -121q-4 -12 -10.5 -18.5t-18.5 -6.5t-19.5 8t-6.5 22zM253 -9q-33 0 -61 8t-48.5 26t-31.5 47.5t-11 73.5v278h-20q-22 0 -37 15t-15 37t15 37t37 15h20v90q0 25 17.5 42.5t43.5 17.5
q25 0 42.5 -17.5t17.5 -42.5v-90h95q22 0 37.5 -15t15.5 -37t-15.5 -37t-37.5 -15h-95v-259q0 -35 17 -50.5t48 -15.5q11 0 19 1.5t11 1.5q20 0 35.5 -14.5t15.5 -35.5q0 -17 -9.5 -29.5t-22.5 -17.5q-20 -7 -39.5 -10.5t-43.5 -3.5z" />
    <glyph glyph-name="Tcommaaccent" unicode="&#x162;" horiz-adv-x="648" 
d="M315 -166q-23 4 -38.5 17t-15.5 36v2q0 23 17 38t44 15q29 0 46.5 -19t17.5 -51v-3q0 -38 -10.5 -63.5t-32.5 -44.5q-17 -15 -41 -24t-45 -9q-14 0 -20 6.5t-6 14.5q0 16 21 21q65 14 63 64zM262 586h-170q-24 0 -40.5 17t-16.5 40t16.5 40t40.5 17h465q23 0 39.5 -17
t16.5 -40t-16.5 -40t-39.5 -17h-171v-530q0 -26 -18 -43.5t-44 -17.5t-44 17.5t-18 43.5v530z" />
    <glyph glyph-name="tcommaaccent" unicode="&#x163;" horiz-adv-x="411" 
d="M215 -166q-23 4 -38.5 17t-15.5 36v2q0 23 17 38t44 15q29 0 46.5 -19t17.5 -51v-3q0 -38 -10.5 -63.5t-32.5 -44.5q-17 -15 -41 -24t-45 -9q-14 0 -20 6.5t-6 14.5q0 16 21 21q65 14 63 64zM253 -9q-33 0 -61 8t-48.5 26t-31.5 47.5t-11 73.5v278h-20q-22 0 -37 15
t-15 37t15 37t37 15h20v90q0 25 17.5 42.5t43.5 17.5q25 0 42.5 -17.5t17.5 -42.5v-90h95q22 0 37.5 -15t15.5 -37t-15.5 -37t-37.5 -15h-95v-259q0 -35 17 -50.5t48 -15.5q11 0 19 1.5t11 1.5q20 0 35.5 -14.5t15.5 -35.5q0 -17 -9.5 -29.5t-22.5 -17.5q-20 -7 -39.5 -10.5
t-43.5 -3.5z" />
    <glyph glyph-name="Thorn" unicode="&#xde;" horiz-adv-x="673" 
d="M90 644q0 26 18 43.5t44 17.5t43.5 -17.5t17.5 -43.5v-53h153q61 0 110.5 -16.5t84 -47.5t53 -74t18.5 -96v-2q0 -59 -22 -104t-60 -75t-89 -45t-109 -15h-139v-60q0 -26 -17.5 -43.5t-43.5 -17.5t-44 17.5t-18 43.5v588zM356 226q70 0 110.5 35.5t40.5 90.5v2
q0 62 -41 93.5t-110 31.5h-143v-253h143z" />
    <glyph glyph-name="thorn" unicode="&#xfe;" horiz-adv-x="671" 
d="M76 675q0 26 17 43t43 17t43.5 -17t17.5 -43v-235q29 41 72 70t108 29q46 0 90.5 -18t78.5 -53t55 -86t21 -117v-2q0 -66 -20.5 -117t-55 -86t-78.5 -53t-91 -18q-66 0 -109 28t-71 65v-187q0 -26 -17.5 -43t-43.5 -17q-25 0 -42.5 17t-17.5 43v780zM348 94q31 0 58.5 12
t48 33.5t32.5 53t12 70.5v2q0 38 -12 69.5t-32.5 53.5t-48 34t-58.5 12t-59 -12t-49 -34.5t-33.5 -53.5t-12.5 -69v-2q0 -38 12.5 -69t33.5 -53.5t49 -34.5t59 -12z" />
    <glyph glyph-name="Uacute" unicode="&#xda;" horiz-adv-x="757" 
d="M375 753q-13 0 -21.5 5.5t-8.5 15.5q0 5 2.5 11t5.5 11l57 88q18 29 48 29q12 0 24.5 -3.5t23 -9t17.5 -12.5t7 -14q0 -15 -17 -30l-67 -64q-18 -17 -34 -22t-37 -5zM377 -11q-68 0 -123 19.5t-94 58.5t-60 96.5t-21 133.5v347q0 26 18 43.5t44 17.5t43.5 -17.5
t17.5 -43.5v-342q0 -98 47 -148.5t130 -50.5q82 0 129 48.5t47 145.5v347q0 26 18 43.5t44 17.5t43.5 -17.5t17.5 -43.5v-341q0 -78 -21.5 -137t-60.5 -98.5t-94.5 -59t-124.5 -19.5z" />
    <glyph glyph-name="uacute" unicode="&#xfa;" horiz-adv-x="620" 
d="M303 590q-13 0 -21.5 5.5t-8.5 15.5q0 5 2.5 11t5.5 11l57 88q18 29 48 29q12 0 24.5 -3.5t23 -9t17.5 -12.5t7 -14q0 -15 -17 -30l-67 -64q-18 -17 -34 -22t-37 -5zM545 55q0 -25 -17.5 -42.5t-43.5 -17.5q-25 0 -43 17t-18 43v27q-26 -38 -65 -65.5t-100 -27.5
q-90 0 -139 55t-49 148v281q0 26 17.5 43.5t42.5 17.5q26 0 43.5 -17.5t17.5 -43.5v-245q0 -62 29.5 -95t83.5 -33q53 0 86 34t33 96v243q0 26 17.5 43.5t43.5 17.5q25 0 43 -17.5t18 -43.5v-418z" />
    <glyph glyph-name="Ubreve" unicode="&#x16c;" horiz-adv-x="757" 
d="M377 -11q-68 0 -123 19.5t-94 58.5t-60 96.5t-21 133.5v347q0 26 18 43.5t44 17.5t43.5 -17.5t17.5 -43.5v-342q0 -98 47 -148.5t130 -50.5q82 0 129 48.5t47 145.5v347q0 26 18 43.5t44 17.5t43.5 -17.5t17.5 -43.5v-341q0 -78 -21.5 -137t-60.5 -98.5t-94.5 -59
t-124.5 -19.5zM378 752q-53 0 -92 21t-61 59q-8 16 -8 31q0 18 12 30.5t30 12.5q16 0 24.5 -7t13.5 -16q11 -20 30 -33t51 -13t51 13t30 33q5 9 13.5 16t24.5 7q18 0 30 -12.5t12 -30.5q0 -15 -8 -31q-22 -38 -60.5 -59t-92.5 -21z" />
    <glyph glyph-name="ubreve" unicode="&#x16d;" horiz-adv-x="620" 
d="M545 55q0 -25 -17.5 -42.5t-43.5 -17.5q-25 0 -43 17t-18 43v27q-26 -38 -65 -65.5t-100 -27.5q-90 0 -139 55t-49 148v281q0 26 17.5 43.5t42.5 17.5q26 0 43.5 -17.5t17.5 -43.5v-245q0 -62 29.5 -95t83.5 -33q53 0 86 34t33 96v243q0 26 17.5 43.5t43.5 17.5
q25 0 43 -17.5t18 -43.5v-418zM306 593q-53 0 -92 21t-61 59q-8 16 -8 31q0 18 12 30.5t30 12.5q16 0 24.5 -7t13.5 -16q11 -20 30 -33t51 -13t51 13t30 33q5 9 13.5 16t24.5 7q18 0 30 -12.5t12 -30.5q0 -15 -8 -31q-22 -38 -60.5 -59t-92.5 -21z" />
    <glyph glyph-name="Ucircumflex" unicode="&#xdb;" horiz-adv-x="757" 
d="M325 780q-20 -17 -36.5 -22t-37.5 -5q-11 0 -19 5t-8 15q0 5 3.5 11.5t8.5 12.5l66 83q11 14 24 21.5t34 7.5h36q21 0 34 -7.5t24 -21.5l66 -83q5 -6 8.5 -12.5t3.5 -11.5q0 -10 -8.5 -15t-20.5 -5q-21 0 -37.5 5t-36.5 22l-52 45zM377 -11q-68 0 -123 19.5t-94 58.5
t-60 96.5t-21 133.5v347q0 26 18 43.5t44 17.5t43.5 -17.5t17.5 -43.5v-342q0 -98 47 -148.5t130 -50.5q82 0 129 48.5t47 145.5v347q0 26 18 43.5t44 17.5t43.5 -17.5t17.5 -43.5v-341q0 -78 -21.5 -137t-60.5 -98.5t-94.5 -59t-124.5 -19.5z" />
    <glyph glyph-name="ucircumflex" unicode="&#xfb;" horiz-adv-x="620" 
d="M253 617q-20 -17 -36.5 -22t-37.5 -5q-11 0 -19 5t-8 15q0 5 3.5 11.5t8.5 12.5l66 83q11 14 24 21.5t34 7.5h36q21 0 34 -7.5t24 -21.5l66 -83q5 -6 8.5 -12.5t3.5 -11.5q0 -10 -8.5 -15t-20.5 -5q-21 0 -37.5 5t-36.5 22l-52 45zM545 55q0 -25 -17.5 -42.5t-43.5 -17.5
q-25 0 -43 17t-18 43v27q-26 -38 -65 -65.5t-100 -27.5q-90 0 -139 55t-49 148v281q0 26 17.5 43.5t42.5 17.5q26 0 43.5 -17.5t17.5 -43.5v-245q0 -62 29.5 -95t83.5 -33q53 0 86 34t33 96v243q0 26 17.5 43.5t43.5 17.5q25 0 43 -17.5t18 -43.5v-418z" />
    <glyph glyph-name="Udieresis" unicode="&#xdc;" horiz-adv-x="757" 
d="M478 883q27 0 46 -17.5t19 -44.5v-7q0 -27 -19 -44t-46 -17q-28 0 -47 17t-19 44v7q0 27 19 44.5t47 17.5zM279 883q27 0 46 -17.5t19 -44.5v-7q0 -27 -19 -44t-46 -17q-28 0 -47 17t-19 44v7q0 27 19 44.5t47 17.5zM377 -11q-68 0 -123 19.5t-94 58.5t-60 96.5
t-21 133.5v347q0 26 18 43.5t44 17.5t43.5 -17.5t17.5 -43.5v-342q0 -98 47 -148.5t130 -50.5q82 0 129 48.5t47 145.5v347q0 26 18 43.5t44 17.5t43.5 -17.5t17.5 -43.5v-341q0 -78 -21.5 -137t-60.5 -98.5t-94.5 -59t-124.5 -19.5z" />
    <glyph glyph-name="udieresis" unicode="&#xfc;" horiz-adv-x="620" 
d="M406 720q27 0 46 -17.5t19 -44.5v-7q0 -27 -19 -44t-46 -17q-28 0 -47 17t-19 44v7q0 27 19 44.5t47 17.5zM207 720q27 0 46 -17.5t19 -44.5v-7q0 -27 -19 -44t-46 -17q-28 0 -47 17t-19 44v7q0 27 19 44.5t47 17.5zM545 55q0 -25 -17.5 -42.5t-43.5 -17.5q-25 0 -43 17
t-18 43v27q-26 -38 -65 -65.5t-100 -27.5q-90 0 -139 55t-49 148v281q0 26 17.5 43.5t42.5 17.5q26 0 43.5 -17.5t17.5 -43.5v-245q0 -62 29.5 -95t83.5 -33q53 0 86 34t33 96v243q0 26 17.5 43.5t43.5 17.5q25 0 43 -17.5t18 -43.5v-418z" />
    <glyph glyph-name="Ugrave" unicode="&#xd9;" horiz-adv-x="757" 
d="M377 -11q-68 0 -123 19.5t-94 58.5t-60 96.5t-21 133.5v347q0 26 18 43.5t44 17.5t43.5 -17.5t17.5 -43.5v-342q0 -98 47 -148.5t130 -50.5q82 0 129 48.5t47 145.5v347q0 26 18 43.5t44 17.5t43.5 -17.5t17.5 -43.5v-341q0 -78 -21.5 -137t-60.5 -98.5t-94.5 -59
t-124.5 -19.5zM381 753q-21 0 -37 5t-33 22l-68 64q-17 15 -17 30q0 7 6.5 14t17 12.5t23.5 9t25 3.5q30 0 48 -29l57 -88q3 -5 6 -11t3 -11q0 -10 -8.5 -15.5t-22.5 -5.5z" />
    <glyph glyph-name="ugrave" unicode="&#xf9;" horiz-adv-x="620" 
d="M545 55q0 -25 -17.5 -42.5t-43.5 -17.5q-25 0 -43 17t-18 43v27q-26 -38 -65 -65.5t-100 -27.5q-90 0 -139 55t-49 148v281q0 26 17.5 43.5t42.5 17.5q26 0 43.5 -17.5t17.5 -43.5v-245q0 -62 29.5 -95t83.5 -33q53 0 86 34t33 96v243q0 26 17.5 43.5t43.5 17.5
q25 0 43 -17.5t18 -43.5v-418zM309 590q-21 0 -37 5t-33 22l-68 64q-17 15 -17 30q0 7 6.5 14t17 12.5t23.5 9t25 3.5q30 0 48 -29l57 -88q3 -5 6 -11t3 -11q0 -10 -8.5 -15.5t-22.5 -5.5z" />
    <glyph glyph-name="Uhungarumlaut" unicode="&#x170;" horiz-adv-x="757" 
d="M377 -11q-68 0 -123 19.5t-94 58.5t-60 96.5t-21 133.5v347q0 26 18 43.5t44 17.5t43.5 -17.5t17.5 -43.5v-342q0 -98 47 -148.5t130 -50.5q82 0 129 48.5t47 145.5v347q0 26 18 43.5t44 17.5t43.5 -17.5t17.5 -43.5v-341q0 -78 -21.5 -137t-60.5 -98.5t-94.5 -59
t-124.5 -19.5zM457 753q-13 0 -21 5.5t-8 15.5q0 5 2.5 11t5.5 11l58 88q8 14 18.5 21.5t27.5 7.5q12 0 24 -3.5t22.5 -8.5t17 -12t6.5 -14q0 -9 -4.5 -16t-12.5 -15l-67 -64q-18 -17 -33 -22t-36 -5zM274 753q-13 0 -21 5.5t-8 15.5q0 5 2.5 11t5.5 11l58 88q17 29 46 29
q12 0 24 -3.5t22.5 -8.5t17 -12t6.5 -14q0 -9 -4.5 -16t-12.5 -15l-67 -64q-17 -17 -32.5 -22t-36.5 -5z" />
    <glyph glyph-name="uhungarumlaut" unicode="&#x171;" horiz-adv-x="620" 
d="M545 55q0 -25 -17.5 -42.5t-43.5 -17.5q-25 0 -43 17t-18 43v27q-26 -38 -65 -65.5t-100 -27.5q-90 0 -139 55t-49 148v281q0 26 17.5 43.5t42.5 17.5q26 0 43.5 -17.5t17.5 -43.5v-245q0 -62 29.5 -95t83.5 -33q53 0 86 34t33 96v243q0 26 17.5 43.5t43.5 17.5
q25 0 43 -17.5t18 -43.5v-418zM385 590q-13 0 -21 5.5t-8 15.5q0 5 2.5 11t5.5 11l58 88q8 14 18.5 21.5t27.5 7.5q12 0 24 -3.5t22.5 -8.5t17 -12t6.5 -14q0 -9 -4.5 -16t-12.5 -15l-67 -64q-18 -17 -33 -22t-36 -5zM202 590q-13 0 -21 5.5t-8 15.5q0 5 2.5 11t5.5 11
l58 88q17 29 46 29q12 0 24 -3.5t22.5 -8.5t17 -12t6.5 -14q0 -9 -4.5 -16t-12.5 -15l-67 -64q-17 -17 -32.5 -22t-36.5 -5z" />
    <glyph glyph-name="Umacron" unicode="&#x16a;" horiz-adv-x="757" 
d="M377 -11q-68 0 -123 19.5t-94 58.5t-60 96.5t-21 133.5v347q0 26 18 43.5t44 17.5t43.5 -17.5t17.5 -43.5v-342q0 -98 47 -148.5t130 -50.5q82 0 129 48.5t47 145.5v347q0 26 18 43.5t44 17.5t43.5 -17.5t17.5 -43.5v-341q0 -78 -21.5 -137t-60.5 -98.5t-94.5 -59
t-124.5 -19.5zM245 769q-18 0 -31 13t-13 31t13 31t31 13h266q18 0 31 -13t13 -31t-13 -31t-31 -13h-266z" />
    <glyph glyph-name="umacron" unicode="&#x16b;" horiz-adv-x="620" 
d="M545 55q0 -25 -17.5 -42.5t-43.5 -17.5q-25 0 -43 17t-18 43v27q-26 -38 -65 -65.5t-100 -27.5q-90 0 -139 55t-49 148v281q0 26 17.5 43.5t42.5 17.5q26 0 43.5 -17.5t17.5 -43.5v-245q0 -62 29.5 -95t83.5 -33q53 0 86 34t33 96v243q0 26 17.5 43.5t43.5 17.5
q25 0 43 -17.5t18 -43.5v-418zM173 606q-18 0 -31 13t-13 31t13 31t31 13h266q18 0 31 -13t13 -31t-13 -31t-31 -13h-266z" />
    <glyph glyph-name="Uogonek" unicode="&#x172;" horiz-adv-x="757" 
d="M294 -82q0 20 8.5 38t24.5 36q-115 14 -181.5 90t-66.5 215v347q0 26 18 43.5t44 17.5t43.5 -17.5t17.5 -43.5v-342q0 -98 47 -148.5t130 -50.5q82 0 129 48.5t47 145.5v347q0 26 18 43.5t44 17.5t43.5 -17.5t17.5 -43.5v-341q0 -147 -72.5 -225t-195.5 -87
q-14 -15 -19 -28t-5 -26q0 -18 11.5 -27t32.5 -14q33 -8 33 -31q0 -31 -40 -31q-24 0 -47 4.5t-41.5 15t-29.5 26t-11 38.5z" />
    <glyph glyph-name="uogonek" unicode="&#x173;" horiz-adv-x="620" 
d="M545 52q0 -15 -5.5 -25.5t-18.5 -22.5q-22 -21 -31 -36.5t-9 -31.5q0 -17 11 -26t32 -14q33 -8 33 -31q0 -31 -40 -31q-24 0 -47 4.5t-41 14.5t-29 25.5t-11 36.5q0 27 15 51t38 45q-5 4 -8.5 12.5t-5.5 18.5t-3.5 20t-1.5 16v4q-26 -38 -65 -65.5t-100 -27.5
q-90 0 -139 55t-49 148v281q0 26 17.5 43.5t42.5 17.5q26 0 43.5 -17.5t17.5 -43.5v-245q0 -62 29.5 -95t83.5 -33q53 0 86 34t33 96v243q0 26 17.5 43.5t43.5 17.5q25 0 43 -17.5t18 -43.5v-421z" />
    <glyph glyph-name="Uring" unicode="&#x16e;" horiz-adv-x="757" 
d="M378 742q-23 0 -43.5 8.5t-36 23.5t-25 35t-9.5 42v2q0 22 9.5 42t25 35t36 23.5t43.5 8.5q22 0 43 -8.5t36.5 -23.5t25 -35t9.5 -42v-2q0 -22 -9.5 -42t-25 -35t-36.5 -23.5t-43 -8.5zM378 790q26 0 44 18t18 43v2q0 25 -18 43t-44 18t-44 -18t-18 -43v-2q0 -25 18 -43
t44 -18zM377 -11q-68 0 -123 19.5t-94 58.5t-60 96.5t-21 133.5v347q0 26 18 43.5t44 17.5t43.5 -17.5t17.5 -43.5v-342q0 -98 47 -148.5t130 -50.5q82 0 129 48.5t47 145.5v347q0 26 18 43.5t44 17.5t43.5 -17.5t17.5 -43.5v-341q0 -78 -21.5 -137t-60.5 -98.5t-94.5 -59
t-124.5 -19.5z" />
    <glyph glyph-name="uring" unicode="&#x16f;" horiz-adv-x="620" 
d="M306 592q-23 0 -43.5 8.5t-36 23.5t-25 35t-9.5 42v2q0 22 9.5 42t25 35t36 23.5t43.5 8.5q22 0 43 -8.5t36.5 -23.5t25 -35t9.5 -42v-2q0 -22 -9.5 -42t-25 -35t-36.5 -23.5t-43 -8.5zM306 640q26 0 44 18t18 43v2q0 25 -18 43t-44 18t-44 -18t-18 -43v-2q0 -25 18 -43
t44 -18zM545 55q0 -25 -17.5 -42.5t-43.5 -17.5q-25 0 -43 17t-18 43v27q-26 -38 -65 -65.5t-100 -27.5q-90 0 -139 55t-49 148v281q0 26 17.5 43.5t42.5 17.5q26 0 43.5 -17.5t17.5 -43.5v-245q0 -62 29.5 -95t83.5 -33q53 0 86 34t33 96v243q0 26 17.5 43.5t43.5 17.5
q25 0 43 -17.5t18 -43.5v-418z" />
    <glyph glyph-name="Wacute" unicode="&#x1e82;" horiz-adv-x="1099" 
d="M546 753q-13 0 -21.5 5.5t-8.5 15.5q0 5 2.5 11t5.5 11l57 88q18 29 48 29q12 0 24.5 -3.5t23 -9t17.5 -12.5t7 -14q0 -15 -17 -30l-67 -64q-18 -17 -34 -22t-37 -5zM47 621q-5 12 -5 24q0 26 18.5 43t44.5 17q23 0 39 -12.5t22 -32.5l161 -481l158 479q8 22 23.5 35.5
t38.5 13.5h9q23 0 39 -13.5t23 -35.5l158 -479l161 482q7 19 22 31.5t38 12.5q25 0 43 -17t18 -42q0 -6 -2 -13t-4 -12l-207 -580q-8 -23 -24.5 -37t-39.5 -14h-12q-23 0 -39 13.5t-24 37.5l-156 457l-156 -457q-8 -24 -24.5 -37.5t-39.5 -13.5h-12q-23 0 -39 13.5t-25 37.5
z" />
    <glyph glyph-name="wacute" unicode="&#x1e83;" horiz-adv-x="853" 
d="M422 590q-13 0 -21.5 5.5t-8.5 15.5q0 5 2.5 11t5.5 11l57 88q18 29 48 29q12 0 24.5 -3.5t23 -9t17.5 -12.5t7 -14q0 -15 -17 -30l-67 -64q-18 -17 -34 -22t-37 -5zM253 -9q-23 0 -40.5 13t-26.5 41l-142 402q-2 6 -4 14.5t-2 16.5q0 22 16 39t43 17q23 0 37.5 -13.5
t21.5 -34.5l102 -320l103 320q7 21 23 34.5t39 13.5h7q23 0 39 -13.5t23 -34.5l104 -320l103 321q6 20 20.5 33.5t38.5 13.5q25 0 41 -16.5t16 -39.5q0 -7 -1.5 -14.5t-3.5 -12.5l-144 -406q-10 -28 -27.5 -41t-39.5 -13h-4q-23 0 -40.5 13t-25.5 39l-103 314l-104 -314
q-8 -26 -25.5 -39t-39.5 -13h-4z" />
    <glyph glyph-name="Wcircumflex" unicode="&#x174;" horiz-adv-x="1099" 
d="M496 780q-20 -17 -36.5 -22t-37.5 -5q-11 0 -19 5t-8 15q0 5 3.5 11.5t8.5 12.5l66 83q11 14 24 21.5t34 7.5h36q21 0 34 -7.5t24 -21.5l66 -83q5 -6 8.5 -12.5t3.5 -11.5q0 -10 -8.5 -15t-20.5 -5q-21 0 -37.5 5t-36.5 22l-52 45zM47 621q-5 12 -5 24q0 26 18.5 43
t44.5 17q23 0 39 -12.5t22 -32.5l161 -481l158 479q8 22 23.5 35.5t38.5 13.5h9q23 0 39 -13.5t23 -35.5l158 -479l161 482q7 19 22 31.5t38 12.5q25 0 43 -17t18 -42q0 -6 -2 -13t-4 -12l-207 -580q-8 -23 -24.5 -37t-39.5 -14h-12q-23 0 -39 13.5t-24 37.5l-156 457
l-156 -457q-8 -24 -24.5 -37.5t-39.5 -13.5h-12q-23 0 -39 13.5t-25 37.5z" />
    <glyph glyph-name="wcircumflex" unicode="&#x175;" horiz-adv-x="853" 
d="M372 617q-20 -17 -36.5 -22t-37.5 -5q-11 0 -19 5t-8 15q0 5 3.5 11.5t8.5 12.5l66 83q11 14 24 21.5t34 7.5h36q21 0 34 -7.5t24 -21.5l66 -83q5 -6 8.5 -12.5t3.5 -11.5q0 -10 -8.5 -15t-20.5 -5q-21 0 -37.5 5t-36.5 22l-52 45zM253 -9q-23 0 -40.5 13t-26.5 41
l-142 402q-2 6 -4 14.5t-2 16.5q0 22 16 39t43 17q23 0 37.5 -13.5t21.5 -34.5l102 -320l103 320q7 21 23 34.5t39 13.5h7q23 0 39 -13.5t23 -34.5l104 -320l103 321q6 20 20.5 33.5t38.5 13.5q25 0 41 -16.5t16 -39.5q0 -7 -1.5 -14.5t-3.5 -12.5l-144 -406
q-10 -28 -27.5 -41t-39.5 -13h-4q-23 0 -40.5 13t-25.5 39l-103 314l-104 -314q-8 -26 -25.5 -39t-39.5 -13h-4z" />
    <glyph glyph-name="Wdieresis" unicode="&#x1e84;" horiz-adv-x="1099" 
d="M649 883q27 0 46 -17.5t19 -44.5v-7q0 -27 -19 -44t-46 -17q-28 0 -47 17t-19 44v7q0 27 19 44.5t47 17.5zM450 883q27 0 46 -17.5t19 -44.5v-7q0 -27 -19 -44t-46 -17q-28 0 -47 17t-19 44v7q0 27 19 44.5t47 17.5zM47 621q-5 12 -5 24q0 26 18.5 43t44.5 17
q23 0 39 -12.5t22 -32.5l161 -481l158 479q8 22 23.5 35.5t38.5 13.5h9q23 0 39 -13.5t23 -35.5l158 -479l161 482q7 19 22 31.5t38 12.5q25 0 43 -17t18 -42q0 -6 -2 -13t-4 -12l-207 -580q-8 -23 -24.5 -37t-39.5 -14h-12q-23 0 -39 13.5t-24 37.5l-156 457l-156 -457
q-8 -24 -24.5 -37.5t-39.5 -13.5h-12q-23 0 -39 13.5t-25 37.5z" />
    <glyph glyph-name="wdieresis" unicode="&#x1e85;" horiz-adv-x="853" 
d="M525 720q27 0 46 -17.5t19 -44.5v-7q0 -27 -19 -44t-46 -17q-28 0 -47 17t-19 44v7q0 27 19 44.5t47 17.5zM326 720q27 0 46 -17.5t19 -44.5v-7q0 -27 -19 -44t-46 -17q-28 0 -47 17t-19 44v7q0 27 19 44.5t47 17.5zM253 -9q-23 0 -40.5 13t-26.5 41l-142 402
q-2 6 -4 14.5t-2 16.5q0 22 16 39t43 17q23 0 37.5 -13.5t21.5 -34.5l102 -320l103 320q7 21 23 34.5t39 13.5h7q23 0 39 -13.5t23 -34.5l104 -320l103 321q6 20 20.5 33.5t38.5 13.5q25 0 41 -16.5t16 -39.5q0 -7 -1.5 -14.5t-3.5 -12.5l-144 -406q-10 -28 -27.5 -41
t-39.5 -13h-4q-23 0 -40.5 13t-25.5 39l-103 314l-104 -314q-8 -26 -25.5 -39t-39.5 -13h-4z" />
    <glyph glyph-name="Wgrave" unicode="&#x1e80;" horiz-adv-x="1099" 
d="M47 621q-5 12 -5 24q0 26 18.5 43t44.5 17q23 0 39 -12.5t22 -32.5l161 -481l158 479q8 22 23.5 35.5t38.5 13.5h9q23 0 39 -13.5t23 -35.5l158 -479l161 482q7 19 22 31.5t38 12.5q25 0 43 -17t18 -42q0 -6 -2 -13t-4 -12l-207 -580q-8 -23 -24.5 -37t-39.5 -14h-12
q-23 0 -39 13.5t-24 37.5l-156 457l-156 -457q-8 -24 -24.5 -37.5t-39.5 -13.5h-12q-23 0 -39 13.5t-25 37.5zM552 753q-21 0 -37 5t-33 22l-68 64q-17 15 -17 30q0 7 6.5 14t17 12.5t23.5 9t25 3.5q30 0 48 -29l57 -88q3 -5 6 -11t3 -11q0 -10 -8.5 -15.5t-22.5 -5.5z" />
    <glyph glyph-name="wgrave" unicode="&#x1e81;" horiz-adv-x="853" 
d="M253 -9q-23 0 -40.5 13t-26.5 41l-142 402q-2 6 -4 14.5t-2 16.5q0 22 16 39t43 17q23 0 37.5 -13.5t21.5 -34.5l102 -320l103 320q7 21 23 34.5t39 13.5h7q23 0 39 -13.5t23 -34.5l104 -320l103 321q6 20 20.5 33.5t38.5 13.5q25 0 41 -16.5t16 -39.5q0 -7 -1.5 -14.5
t-3.5 -12.5l-144 -406q-10 -28 -27.5 -41t-39.5 -13h-4q-23 0 -40.5 13t-25.5 39l-103 314l-104 -314q-8 -26 -25.5 -39t-39.5 -13h-4zM428 590q-21 0 -37 5t-33 22l-68 64q-17 15 -17 30q0 7 6.5 14t17 12.5t23.5 9t25 3.5q30 0 48 -29l57 -88q3 -5 6 -11t3 -11
q0 -10 -8.5 -15.5t-22.5 -5.5z" />
    <glyph glyph-name="Yacute" unicode="&#xdd;" horiz-adv-x="696" 
d="M287 272l-241 331q-6 9 -10 19.5t-4 23.5q0 25 18 42t44 17q20 0 34.5 -10t25.5 -27l195 -281l198 282q11 17 25 27t34 10q27 0 43.5 -17.5t16.5 -42.5q0 -13 -5 -24t-12 -20l-239 -327v-219q0 -26 -18 -43.5t-44 -17.5t-43.5 17.5t-17.5 43.5v216zM345 753
q-13 0 -21.5 5.5t-8.5 15.5q0 5 2.5 11t5.5 11l57 88q18 29 48 29q12 0 24.5 -3.5t23 -9t17.5 -12.5t7 -14q0 -15 -17 -30l-67 -64q-18 -17 -34 -22t-37 -5z" />
    <glyph glyph-name="yacute" unicode="&#xfd;" 
d="M172 -163q-26 0 -45.5 3.5t-38.5 11.5q-14 5 -26 16.5t-12 33.5q0 23 14.5 36.5t34.5 13.5q8 0 12.5 -1t9.5 -3q11 -3 20 -5t22 -2q27 0 43.5 12.5t31.5 43.5l4 11l-196 438q-7 16 -7 29q0 26 17 42.5t43 16.5q23 0 37 -12.5t22 -33.5l142 -351l132 351q8 19 21.5 32.5
t36.5 13.5q24 0 41 -16.5t17 -40.5q0 -8 -1.5 -16t-3.5 -13l-193 -463q-17 -41 -35 -69t-39 -45.5t-46.5 -25.5t-57.5 -8zM291 590q-13 0 -21.5 5.5t-8.5 15.5q0 5 2.5 11t5.5 11l57 88q18 29 48 29q12 0 24.5 -3.5t23 -9t17.5 -12.5t7 -14q0 -15 -17 -30l-67 -64
q-18 -17 -34 -22t-37 -5z" />
    <glyph glyph-name="Ycircumflex" unicode="&#x176;" horiz-adv-x="696" 
d="M287 272l-241 331q-6 9 -10 19.5t-4 23.5q0 25 18 42t44 17q20 0 34.5 -10t25.5 -27l195 -281l198 282q11 17 25 27t34 10q27 0 43.5 -17.5t16.5 -42.5q0 -13 -5 -24t-12 -20l-239 -327v-219q0 -26 -18 -43.5t-44 -17.5t-43.5 17.5t-17.5 43.5v216zM295 780
q-20 -17 -36.5 -22t-37.5 -5q-11 0 -19 5t-8 15q0 5 3.5 11.5t8.5 12.5l66 83q11 14 24 21.5t34 7.5h36q21 0 34 -7.5t24 -21.5l66 -83q5 -6 8.5 -12.5t3.5 -11.5q0 -10 -8.5 -15t-20.5 -5q-21 0 -37.5 5t-36.5 22l-52 45z" />
    <glyph glyph-name="ycircumflex" unicode="&#x177;" 
d="M172 -163q-26 0 -45.5 3.5t-38.5 11.5q-14 5 -26 16.5t-12 33.5q0 23 14.5 36.5t34.5 13.5q8 0 12.5 -1t9.5 -3q11 -3 20 -5t22 -2q27 0 43.5 12.5t31.5 43.5l4 11l-196 438q-7 16 -7 29q0 26 17 42.5t43 16.5q23 0 37 -12.5t22 -33.5l142 -351l132 351q8 19 21.5 32.5
t36.5 13.5q24 0 41 -16.5t17 -40.5q0 -8 -1.5 -16t-3.5 -13l-193 -463q-17 -41 -35 -69t-39 -45.5t-46.5 -25.5t-57.5 -8zM241 617q-20 -17 -36.5 -22t-37.5 -5q-11 0 -19 5t-8 15q0 5 3.5 11.5t8.5 12.5l66 83q11 14 24 21.5t34 7.5h36q21 0 34 -7.5t24 -21.5l66 -83
q5 -6 8.5 -12.5t3.5 -11.5q0 -10 -8.5 -15t-20.5 -5q-21 0 -37.5 5t-36.5 22l-52 45z" />
    <glyph glyph-name="Ydieresis" unicode="&#x178;" horiz-adv-x="696" 
d="M287 272l-241 331q-6 9 -10 19.5t-4 23.5q0 25 18 42t44 17q20 0 34.5 -10t25.5 -27l195 -281l198 282q11 17 25 27t34 10q27 0 43.5 -17.5t16.5 -42.5q0 -13 -5 -24t-12 -20l-239 -327v-219q0 -26 -18 -43.5t-44 -17.5t-43.5 17.5t-17.5 43.5v216zM448 883
q27 0 46 -17.5t19 -44.5v-7q0 -27 -19 -44t-46 -17q-28 0 -47 17t-19 44v7q0 27 19 44.5t47 17.5zM249 883q27 0 46 -17.5t19 -44.5v-7q0 -27 -19 -44t-46 -17q-28 0 -47 17t-19 44v7q0 27 19 44.5t47 17.5z" />
    <glyph glyph-name="ydieresis" unicode="&#xff;" 
d="M172 -163q-26 0 -45.5 3.5t-38.5 11.5q-14 5 -26 16.5t-12 33.5q0 23 14.5 36.5t34.5 13.5q8 0 12.5 -1t9.5 -3q11 -3 20 -5t22 -2q27 0 43.5 12.5t31.5 43.5l4 11l-196 438q-7 16 -7 29q0 26 17 42.5t43 16.5q23 0 37 -12.5t22 -33.5l142 -351l132 351q8 19 21.5 32.5
t36.5 13.5q24 0 41 -16.5t17 -40.5q0 -8 -1.5 -16t-3.5 -13l-193 -463q-17 -41 -35 -69t-39 -45.5t-46.5 -25.5t-57.5 -8zM394 720q27 0 46 -17.5t19 -44.5v-7q0 -27 -19 -44t-46 -17q-28 0 -47 17t-19 44v7q0 27 19 44.5t47 17.5zM195 720q27 0 46 -17.5t19 -44.5v-7
q0 -27 -19 -44t-46 -17q-28 0 -47 17t-19 44v7q0 27 19 44.5t47 17.5z" />
    <glyph glyph-name="Ygrave" unicode="&#x1ef2;" horiz-adv-x="696" 
d="M287 272l-241 331q-6 9 -10 19.5t-4 23.5q0 25 18 42t44 17q20 0 34.5 -10t25.5 -27l195 -281l198 282q11 17 25 27t34 10q27 0 43.5 -17.5t16.5 -42.5q0 -13 -5 -24t-12 -20l-239 -327v-219q0 -26 -18 -43.5t-44 -17.5t-43.5 17.5t-17.5 43.5v216zM351 753q-21 0 -37 5
t-33 22l-68 64q-17 15 -17 30q0 7 6.5 14t17 12.5t23.5 9t25 3.5q30 0 48 -29l57 -88q3 -5 6 -11t3 -11q0 -10 -8.5 -15.5t-22.5 -5.5z" />
    <glyph glyph-name="ygrave" unicode="&#x1ef3;" 
d="M172 -163q-26 0 -45.5 3.5t-38.5 11.5q-14 5 -26 16.5t-12 33.5q0 23 14.5 36.5t34.5 13.5q8 0 12.5 -1t9.5 -3q11 -3 20 -5t22 -2q27 0 43.5 12.5t31.5 43.5l4 11l-196 438q-7 16 -7 29q0 26 17 42.5t43 16.5q23 0 37 -12.5t22 -33.5l142 -351l132 351q8 19 21.5 32.5
t36.5 13.5q24 0 41 -16.5t17 -40.5q0 -8 -1.5 -16t-3.5 -13l-193 -463q-17 -41 -35 -69t-39 -45.5t-46.5 -25.5t-57.5 -8zM297 590q-21 0 -37 5t-33 22l-68 64q-17 15 -17 30q0 7 6.5 14t17 12.5t23.5 9t25 3.5q30 0 48 -29l57 -88q3 -5 6 -11t3 -11q0 -10 -8.5 -15.5
t-22.5 -5.5z" />
    <glyph glyph-name="Zacute" unicode="&#x179;" horiz-adv-x="702" 
d="M354 753q-13 0 -21.5 5.5t-8.5 15.5q0 5 2.5 11t5.5 11l57 88q18 29 48 29q12 0 24.5 -3.5t23 -9t17.5 -12.5t7 -14q0 -15 -17 -30l-67 -64q-18 -17 -34 -22t-37 -5zM116 0q-22 0 -38.5 16t-16.5 38v3q0 31 23 57l394 477h-351q-22 0 -38 15.5t-16 38.5t16 39t38 16h460
q23 0 39 -16t16 -38v-3q0 -29 -22 -57l-395 -477h364q23 0 39 -16t16 -39t-16 -38.5t-39 -15.5h-473z" />
    <glyph glyph-name="zacute" unicode="&#x17a;" horiz-adv-x="560" 
d="M279 590q-13 0 -21.5 5.5t-8.5 15.5q0 5 2.5 11t5.5 11l57 88q18 29 48 29q12 0 24.5 -3.5t23 -9t17.5 -12.5t7 -14q0 -15 -17 -30l-67 -64q-18 -17 -34 -22t-37 -5zM108 0q-26 0 -42.5 14t-16.5 35v2q0 17 6.5 30t20.5 28l281 320h-249q-21 0 -35.5 14.5t-14.5 34.5
q0 21 14.5 35.5t35.5 14.5h348q25 0 41.5 -13.5t16.5 -34.5v-3q0 -17 -6 -30t-20 -28l-282 -320h260q21 0 35.5 -14.5t14.5 -35.5q0 -20 -14.5 -34.5t-35.5 -14.5h-358z" />
    <glyph glyph-name="Zcaron" unicode="&#x17d;" horiz-adv-x="702" 
d="M410 883q20 17 36.5 22t37.5 5q12 0 19.5 -5t7.5 -15q0 -6 -3.5 -12t-8.5 -12l-66 -83q-11 -14 -24 -21.5t-34 -7.5h-36q-21 0 -34 7.5t-24 21.5l-66 83q-5 6 -8.5 12t-3.5 12q0 10 8.5 15t20.5 5q21 0 37.5 -5t36.5 -22l52 -45zM116 0q-22 0 -38.5 16t-16.5 38v3
q0 31 23 57l394 477h-351q-22 0 -38 15.5t-16 38.5t16 39t38 16h460q23 0 39 -16t16 -38v-3q0 -29 -22 -57l-395 -477h364q23 0 39 -16t16 -39t-16 -38.5t-39 -15.5h-473z" />
    <glyph glyph-name="zcaron" unicode="&#x17e;" horiz-adv-x="560" 
d="M335 720q20 17 36.5 22t37.5 5q12 0 19.5 -5t7.5 -15q0 -6 -3.5 -12t-8.5 -12l-66 -83q-11 -14 -24 -21.5t-34 -7.5h-36q-21 0 -34 7.5t-24 21.5l-66 83q-5 6 -8.5 12t-3.5 12q0 10 8.5 15t20.5 5q21 0 37.5 -5t36.5 -22l52 -45zM108 0q-26 0 -42.5 14t-16.5 35v2
q0 17 6.5 30t20.5 28l281 320h-249q-21 0 -35.5 14.5t-14.5 34.5q0 21 14.5 35.5t35.5 14.5h348q25 0 41.5 -13.5t16.5 -34.5v-3q0 -17 -6 -30t-20 -28l-282 -320h260q21 0 35.5 -14.5t14.5 -35.5q0 -20 -14.5 -34.5t-35.5 -14.5h-358z" />
    <glyph glyph-name="Zdotaccent" unicode="&#x17b;" horiz-adv-x="702" 
d="M116 0q-22 0 -38.5 16t-16.5 38v3q0 31 23 57l394 477h-351q-22 0 -38 15.5t-16 38.5t16 39t38 16h460q23 0 39 -16t16 -38v-3q0 -29 -22 -57l-395 -477h364q23 0 39 -16t16 -39t-16 -38.5t-39 -15.5h-473zM425 814q0 -28 -20 -44.5t-48 -16.5t-47.5 16.5t-19.5 44.5v7
q0 28 19.5 45t47.5 17t48 -17t20 -45v-7z" />
    <glyph glyph-name="zdotaccent" unicode="&#x17c;" horiz-adv-x="560" 
d="M108 0q-26 0 -42.5 14t-16.5 35v2q0 17 6.5 30t20.5 28l281 320h-249q-21 0 -35.5 14.5t-14.5 34.5q0 21 14.5 35.5t35.5 14.5h348q25 0 41.5 -13.5t16.5 -34.5v-3q0 -17 -6 -30t-20 -28l-282 -320h260q21 0 35.5 -14.5t14.5 -35.5q0 -20 -14.5 -34.5t-35.5 -14.5h-358z
M350 651q0 -28 -20 -44.5t-48 -16.5t-47.5 16.5t-19.5 44.5v7q0 28 19.5 45t47.5 17t48 -17t20 -45v-7z" />
    <glyph glyph-name="schwa" unicode="&#x259;" horiz-adv-x="604" 
d="M166 227q3 -29 13 -54.5t27 -44.5t40.5 -29.5t53.5 -10.5q56 0 92.5 38.5t44.5 100.5h-271zM96 470q36 32 82 51t108 19q57 0 106.5 -20t86 -56t57.5 -86.5t21 -111.5v-2q0 -57 -19 -107t-53.5 -87.5t-81.5 -59t-104 -21.5q-63 0 -110 23.5t-78.5 61t-47 83.5t-15.5 92
q0 26 17 42t40 16h331q-10 65 -51.5 99.5t-100.5 34.5q-38 0 -68.5 -12.5t-56.5 -33.5q-7 -5 -13.5 -8t-17.5 -3q-20 0 -34 14t-14 35q0 11 4.5 20.5t11.5 16.5z" />
    <glyph glyph-name="germandbls" unicode="&#xdf;" horiz-adv-x="620" 
d="M291 47q0 18 11.5 30.5t31.5 17.5q54 8 85 33t31 71v2q0 43 -32 68t-83 38q-17 5 -30.5 17.5t-13.5 35.5q0 18 7.5 30t18.5 20q39 22 65.5 52t26.5 74v2q0 44 -27.5 70t-73.5 26q-50 0 -81 -34.5t-31 -93.5v-452q0 -25 -17.5 -42t-43.5 -17q-25 0 -42 17t-17 42v448
q0 54 16.5 97.5t47.5 74t75 47t99 16.5q51 0 91 -14.5t68 -40t42.5 -60t14.5 -73.5v-2q0 -34 -9 -60.5t-24.5 -47t-35.5 -36t-42 -27.5q29 -10 56.5 -25t48.5 -36.5t34 -50.5t13 -66v-2q0 -49 -19.5 -86t-51 -61.5t-72 -37.5t-82.5 -14q-26 0 -40.5 14t-14.5 36z" />
    <glyph glyph-name="f_f" unicode="&#xfb00;" horiz-adv-x="752" 
d="M103 424h-21q-21 0 -36 14.5t-15 35.5t15 36t36 15h21v39q0 87 43 130q42 42 119 42q18 0 33 -1.5t28 -3.5q17 -2 29.5 -16t12.5 -34q0 -21 -15 -36t-36 -14q-5 1 -12 1.5t-13 0.5q-70 0 -70 -80v-29h94q22 0 36.5 -14.5t14.5 -35.5t-15 -35.5t-36 -14.5h-92v-369
q0 -25 -17.5 -42.5t-43.5 -17.5q-25 0 -42.5 17.5t-17.5 42.5v369zM479 424h-21q-21 0 -36 14.5t-15 35.5t15 36t36 15h21v39q0 87 43 130q42 42 119 42q18 0 33 -1.5t28 -3.5q17 -2 29.5 -16t12.5 -34q0 -21 -15 -36t-36 -14q-5 1 -12 1.5t-13 0.5q-70 0 -70 -80v-29h94
q22 0 36.5 -14.5t14.5 -35.5t-15 -35.5t-36 -14.5h-92v-369q0 -25 -17.5 -42.5t-43.5 -17.5q-25 0 -42.5 17.5t-17.5 42.5v369z" />
    <glyph glyph-name="fi" unicode="&#xfb01;" horiz-adv-x="662" 
d="M450 670q0 27 20 43t49 16t49 -16t20 -43v-6q0 -27 -20 -43.5t-49 -16.5t-49 16.5t-20 43.5v6zM459 473q0 26 17 43.5t43 17.5t43.5 -17.5t17.5 -43.5v-418q0 -26 -17.5 -43t-43.5 -17q-25 0 -42.5 17t-17.5 43v418zM103 424h-21q-21 0 -36 14.5t-15 35.5t15 36t36 15h21
v39q0 87 43 130q42 42 119 42q18 0 33 -1.5t28 -3.5q17 -2 29.5 -16t12.5 -34q0 -21 -15 -36t-36 -14q-5 1 -12 1.5t-13 0.5q-70 0 -70 -80v-29h94q22 0 36.5 -14.5t14.5 -35.5t-15 -35.5t-36 -14.5h-92v-369q0 -25 -17.5 -42.5t-43.5 -17.5q-25 0 -42.5 17.5t-17.5 42.5
v369z" />
    <glyph glyph-name="fl" unicode="&#xfb02;" horiz-adv-x="662" 
d="M459 675q0 25 17 42.5t43 17.5t43.5 -17.5t17.5 -42.5v-620q0 -26 -17.5 -43t-43.5 -17q-25 0 -42.5 17t-17.5 43v620zM103 424h-21q-21 0 -36 14.5t-15 35.5t15 36t36 15h21v39q0 87 43 130q42 42 119 42q18 0 33 -1.5t28 -3.5q17 -2 29.5 -16t12.5 -34q0 -21 -15 -36
t-36 -14q-5 1 -12 1.5t-13 0.5q-70 0 -70 -80v-29h94q22 0 36.5 -14.5t14.5 -35.5t-15 -35.5t-36 -14.5h-92v-369q0 -25 -17.5 -42.5t-43.5 -17.5q-25 0 -42.5 17.5t-17.5 42.5v369z" />
    <glyph glyph-name="f_f_i" unicode="&#xfb03;" horiz-adv-x="1038" 
d="M826 670q0 27 20 43t49 16t49 -16t20 -43v-6q0 -27 -20 -43.5t-49 -16.5t-49 16.5t-20 43.5v6zM835 473q0 26 17 43.5t43 17.5t43.5 -17.5t17.5 -43.5v-418q0 -26 -17.5 -43t-43.5 -17q-25 0 -42.5 17t-17.5 43v418zM103 424h-21q-21 0 -36 14.5t-15 35.5t15 36t36 15h21
v39q0 87 43 130q42 42 119 42q18 0 33 -1.5t28 -3.5q17 -2 29.5 -16t12.5 -34q0 -21 -15 -36t-36 -14q-5 1 -12 1.5t-13 0.5q-70 0 -70 -80v-29h94q22 0 36.5 -14.5t14.5 -35.5t-15 -35.5t-36 -14.5h-92v-369q0 -25 -17.5 -42.5t-43.5 -17.5q-25 0 -42.5 17.5t-17.5 42.5
v369zM479 424h-21q-21 0 -36 14.5t-15 35.5t15 36t36 15h21v39q0 87 43 130q42 42 119 42q18 0 33 -1.5t28 -3.5q17 -2 29.5 -16t12.5 -34q0 -21 -15 -36t-36 -14q-5 1 -12 1.5t-13 0.5q-70 0 -70 -80v-29h94q22 0 36.5 -14.5t14.5 -35.5t-15 -35.5t-36 -14.5h-92v-369
q0 -25 -17.5 -42.5t-43.5 -17.5q-25 0 -42.5 17.5t-17.5 42.5v369z" />
    <glyph glyph-name="f_f_l" unicode="&#xfb04;" horiz-adv-x="1038" 
d="M103 424h-21q-21 0 -36 14.5t-15 35.5t15 36t36 15h21v39q0 87 43 130q42 42 119 42q18 0 33 -1.5t28 -3.5q17 -2 29.5 -16t12.5 -34q0 -21 -15 -36t-36 -14q-5 1 -12 1.5t-13 0.5q-70 0 -70 -80v-29h94q22 0 36.5 -14.5t14.5 -35.5t-15 -35.5t-36 -14.5h-92v-369
q0 -25 -17.5 -42.5t-43.5 -17.5q-25 0 -42.5 17.5t-17.5 42.5v369zM479 424h-21q-21 0 -36 14.5t-15 35.5t15 36t36 15h21v39q0 87 43 130q42 42 119 42q18 0 33 -1.5t28 -3.5q17 -2 29.5 -16t12.5 -34q0 -21 -15 -36t-36 -14q-5 1 -12 1.5t-13 0.5q-70 0 -70 -80v-29h94
q22 0 36.5 -14.5t14.5 -35.5t-15 -35.5t-36 -14.5h-92v-369q0 -25 -17.5 -42.5t-43.5 -17.5q-25 0 -42.5 17.5t-17.5 42.5v369zM835 675q0 25 17 42.5t43 17.5t43.5 -17.5t17.5 -42.5v-620q0 -26 -17.5 -43t-43.5 -17q-25 0 -42.5 17t-17.5 43v620z" />
    <glyph glyph-name="zero" unicode="0" horiz-adv-x="724" 
d="M361 -12q-69 0 -125 28t-96 77t-61.5 114.5t-21.5 140.5v2q0 75 22 141t62 115t96.5 77.5t125.5 28.5t125 -28t95.5 -77t61.5 -114.5t22 -140.5v-2q0 -75 -22 -141t-62 -115t-96.5 -77.5t-125.5 -28.5zM363 99q41 0 73.5 19.5t55.5 53.5t35.5 79.5t12.5 96.5v2
q0 52 -13 97.5t-36 79.5t-56.5 54t-73.5 20q-41 0 -73.5 -19.5t-55.5 -53t-35.5 -79t-12.5 -97.5v-2q0 -52 12.5 -97.5t36 -79.5t56.5 -54t74 -20z" />
    <glyph glyph-name="one" unicode="1" horiz-adv-x="396" 
d="M178 584l-72 -22q-11 -3 -22 -3q-22 0 -38 15.5t-16 36.5q0 20 11 34t30 19l106 34q18 5 32 8t28 3h2q26 0 43.5 -17.5t17.5 -43.5v-592q0 -26 -17.5 -43.5t-43.5 -17.5q-25 0 -43 17.5t-18 43.5v528z" />
    <glyph glyph-name="two" unicode="2" horiz-adv-x="613" 
d="M43 58q0 35 32 61l215 183q36 30 61 54.5t40.5 46.5t22.5 43t7 45q0 52 -32.5 80.5t-80.5 28.5q-42 0 -74 -19.5t-64 -58.5q-7 -8 -17.5 -13.5t-25.5 -5.5q-23 0 -39.5 16.5t-16.5 39.5q0 21 14 38q21 27 44.5 48t51.5 35.5t61.5 22t74.5 7.5q51 0 93.5 -15t73 -42.5
t47.5 -66t17 -85.5v-2q0 -41 -11 -74.5t-33.5 -64.5t-57 -62.5t-80.5 -69.5l-144 -120h284q23 0 38.5 -15.5t15.5 -38.5t-15.5 -38.5t-38.5 -15.5h-397q-29 0 -47.5 15.5t-18.5 42.5z" />
    <glyph glyph-name="three" unicode="3" horiz-adv-x="618" 
d="M311 -12q-78 0 -136 24.5t-101 66.5q-8 7 -14 18.5t-6 25.5q0 24 17.5 41.5t41.5 17.5q14 0 23.5 -4.5t17.5 -11.5q33 -33 71.5 -50t87.5 -17q52 0 86.5 29t34.5 77v2q0 52 -43.5 80t-117.5 28h-25q-22 0 -37.5 15.5t-15.5 37.5q0 12 6 24t20 26l164 175h-254
q-23 0 -38.5 15.5t-15.5 37.5q0 23 15.5 38.5t38.5 15.5h358q26 0 43.5 -14.5t17.5 -39.5q0 -22 -9.5 -36.5t-25.5 -30.5l-165 -171q40 -5 77 -18t65.5 -36.5t46 -58.5t17.5 -83v-2q0 -48 -18 -89t-50 -70.5t-77 -46t-100 -16.5z" />
    <glyph glyph-name="three.alt" horiz-adv-x="610" 
d="M311 -12q-72 0 -131 23.5t-104 63.5q-10 8 -16.5 19t-6.5 27q0 25 17 41.5t41 16.5q22 0 38 -14q33 -31 73 -48.5t91 -17.5q58 0 91.5 27.5t33.5 74.5v2q0 48 -40.5 73t-113.5 25h-29q-21 0 -36.5 15.5t-15.5 36.5t15.5 36.5t36.5 15.5h32q61 0 96.5 27.5t35.5 72.5v2
q0 42 -32 68t-89 26q-42 0 -74.5 -17t-61.5 -47q-8 -8 -16.5 -12.5t-22.5 -4.5q-24 0 -40.5 16.5t-16.5 39.5q0 12 4.5 22.5t12.5 18.5q40 44 91.5 69.5t125.5 25.5q54 0 98.5 -14t76 -39t49 -59.5t17.5 -74.5v-2q0 -66 -30.5 -104.5t-73.5 -59.5q26 -10 48.5 -24t39 -33
t26 -44t9.5 -57v-2q0 -45 -17 -83.5t-49 -67t-78.5 -44.5t-104.5 -16z" />
    <glyph glyph-name="four" unicode="4" horiz-adv-x="682" 
d="M412 157h-313q-25 0 -42.5 16t-17.5 42q0 18 6.5 33.5t20.5 31.5l329 390q17 20 32.5 30t42.5 10q25 0 42.5 -17t17.5 -42v-393h54q22 0 36.5 -15t14.5 -36t-14.5 -35.5t-36.5 -14.5h-54v-104q0 -25 -17 -41.5t-42 -16.5t-42 16.5t-17 41.5v104zM412 258v277l-230 -277
h230z" />
    <glyph glyph-name="five" unicode="5" horiz-adv-x="623" 
d="M308 -12q-72 0 -126.5 21.5t-97.5 54.5q-11 9 -18 21t-7 27q0 24 17.5 41.5t41.5 17.5q21 0 36 -12q36 -29 73 -44t79 -15q60 0 98 32.5t38 88.5v2q0 54 -40.5 85t-104.5 31q-26 0 -45 -4t-33.5 -8.5t-24.5 -8t-17 -3.5q-14 0 -27 5.5t-31 18.5q-26 18 -24 54l15 252
q2 24 17.5 39.5t38.5 15.5h317q23 0 39 -16t16 -39t-16 -38.5t-39 -15.5h-263l-11 -164q25 9 50.5 14.5t60.5 5.5q51 0 95.5 -13.5t77.5 -41t52 -69t19 -96.5v-2q0 -53 -19 -97t-53 -75t-81 -48t-103 -17z" />
    <glyph glyph-name="six" unicode="6" horiz-adv-x="656" 
d="M337 -12q-65 0 -112.5 19.5t-82.5 54.5q-20 20 -35.5 44.5t-26.5 56t-17 72.5t-6 94v2q0 80 19 149.5t56.5 121t94 81t130.5 29.5q54 0 97 -13.5t78 -36.5q14 -9 22.5 -21.5t8.5 -31.5q0 -24 -17.5 -40.5t-41.5 -16.5q-8 0 -16 2.5t-15 6.5q-29 19 -57 29t-63 10
q-39 0 -69.5 -16.5t-51.5 -46.5t-33 -70.5t-14 -88.5q14 13 30 26t36.5 22.5t45.5 15.5t56 6q51 0 95.5 -14.5t77.5 -43t52 -69.5t19 -93v-2q0 -52 -20 -96t-55 -75.5t-82.5 -49t-102.5 -17.5zM334 95q66 0 103 36t37 90v2q0 53 -38.5 87.5t-104.5 34.5q-33 0 -59 -10
t-44.5 -26.5t-28.5 -39t-10 -47.5v-2q0 -54 39.5 -89.5t105.5 -35.5z" />
    <glyph glyph-name="seven" unicode="7" horiz-adv-x="609" 
d="M137 50q0 8 3 19t8 19l272 504h-303q-23 0 -38.5 15.5t-15.5 38.5t15.5 38.5t38.5 15.5h393q26 0 41 -14.5t15 -40.5q0 -14 -4.5 -29.5t-12.5 -29.5l-290 -550q-22 -41 -59 -41q-25 0 -44 14.5t-19 40.5z" />
    <glyph glyph-name="eight" unicode="8" horiz-adv-x="630" 
d="M315 -10q-57 0 -106 14.5t-85 40.5t-56 63.5t-20 82.5v2q0 63 33 104t93 66q-45 23 -73.5 60t-28.5 96v2q0 40 18.5 74.5t50.5 60t76.5 40t97.5 14.5q52 0 97 -14.5t77 -39.5t50.5 -60t18.5 -75v-2q0 -59 -28.5 -96t-73.5 -60q58 -26 92 -65.5t34 -102.5v-2
q0 -47 -20 -84.5t-56 -64t-85 -40.5t-106 -14zM315 404q54 0 89.5 29t35.5 74v2q0 41 -34 69.5t-91 28.5t-91 -28.5t-34 -68.5v-2q0 -46 35.5 -75t89.5 -29zM315 93q69 0 108 30.5t39 74.5v2q0 24 -11.5 43.5t-31 33.5t-46.5 21.5t-58 7.5t-58 -7.5t-46.5 -21.5t-30.5 -33.5
t-11 -43.5v-2q0 -43 38.5 -74t107.5 -31z" />
    <glyph glyph-name="nine" unicode="9" horiz-adv-x="656" 
d="M299 -12q-60 0 -105 16t-84 42q-13 8 -20.5 21t-7.5 30q0 24 17 40t41 16q17 0 34 -10q31 -22 61.5 -32.5t66.5 -10.5q39 0 69.5 16t52 45.5t33.5 70t14 88.5q-26 -32 -66.5 -53t-97.5 -21q-56 0 -101.5 15.5t-78 44.5t-50.5 70t-18 92v2q0 51 19 95.5t53.5 77t82.5 51
t106 18.5q66 0 111.5 -18.5t83.5 -55.5q38 -39 61 -101.5t23 -165.5v-2q0 -84 -20.5 -154.5t-59 -120.5t-94 -78t-126.5 -28zM325 349q33 0 59.5 10t45 27.5t28 40t9.5 48.5v2q0 55 -39.5 92t-106.5 37q-33 0 -58.5 -10t-43.5 -28t-27.5 -41.5t-9.5 -50.5v-2q0 -55 38.5 -90
t104.5 -35z" />
    <glyph glyph-name="period" unicode="." horiz-adv-x="269" 
d="M64 74q0 29 20 49t51 20q30 0 50 -20t20 -49v-10q0 -29 -20 -49t-50 -20q-31 0 -51 20t-20 49v10v0z" />
    <glyph glyph-name="comma" unicode="," horiz-adv-x="269" 
d="M30 -117q0 11 6.5 18t16.5 9q71 23 68 90q-22 6 -39.5 23.5t-17.5 44.5v8q0 29 18.5 48t49.5 19q34 0 53 -23.5t19 -64.5v-11q0 -51 -13 -86.5t-36 -59.5q-20 -20 -46.5 -31.5t-47.5 -11.5q-16 0 -23.5 8.5t-7.5 19.5z" />
    <glyph glyph-name="colon" unicode=":" horiz-adv-x="279" 
d="M69 464q0 30 20 50t51 20q30 0 50 -20t20 -50v-9q0 -30 -20 -50t-50 -20q-31 0 -51 20t-20 50v9zM69 74q0 29 20 49t51 20q30 0 50 -20t20 -49v-10q0 -29 -20 -49t-50 -20q-31 0 -51 20t-20 49v10z" />
    <glyph glyph-name="semicolon" unicode=";" horiz-adv-x="279" 
d="M69 464q0 30 20 50t51 20q30 0 50 -20t20 -50v-9q0 -30 -20 -50t-50 -20q-31 0 -51 20t-20 50v9zM35 -117q0 11 6.5 18t16.5 9q71 23 68 90q-22 6 -39.5 23.5t-17.5 44.5v8q0 29 18.5 48t49.5 19q34 0 53 -23.5t19 -64.5v-11q0 -51 -13 -86.5t-36 -59.5
q-20 -20 -46.5 -31.5t-47.5 -11.5q-16 0 -23.5 8.5t-7.5 19.5z" />
    <glyph glyph-name="ellipsis" unicode="&#x2026;" horiz-adv-x="792" 
d="M590 74q0 29 19 49t50 20t50 -20t19 -49v-10q0 -29 -19 -49t-50 -20t-50 20t-19 49v10zM327 74q0 29 19 49t50 20t50 -20t19 -49v-10q0 -29 -19 -49t-50 -20t-50 20t-19 49v10zM64 74q0 29 19 49t50 20t50 -20t19 -49v-10q0 -29 -19 -49t-50 -20t-50 20t-19 49v10z" />
    <glyph glyph-name="periodcentered" unicode="&#xb7;" horiz-adv-x="269" 
d="M64 311q0 29 20.5 49t50.5 20q29 0 49.5 -20t20.5 -49v-9q0 -30 -20.5 -50t-49.5 -20q-30 0 -50.5 20t-20.5 50v9v0z" />
    <glyph glyph-name="bullet" unicode="&#x2022;" horiz-adv-x="491" 
d="M246 211q-29 0 -55 11t-45.5 30t-30.5 44.5t-11 54.5v2q0 29 11.5 55t31 45t45 30t54.5 11q28 0 54 -11t45 -30t30.5 -45t11.5 -55v-2q0 -29 -11 -54.5t-30.5 -44.5t-45 -30t-54.5 -11z" />
    <glyph glyph-name="ampersand" unicode="&#x26;" horiz-adv-x="696" 
d="M600 -10q-14 0 -23.5 4.5t-19.5 14.5l-73 74q-45 -43 -98 -68t-118 -25q-49 0 -91 14t-72.5 40.5t-48 63.5t-17.5 82v2q0 68 38.5 116.5t110.5 79.5q-30 38 -44 73t-14 73v2q0 35 14 67t40 56t63 38.5t84 14.5q42 0 76 -13t58.5 -36t38 -54t13.5 -66v-2q0 -69 -42 -112.5
t-111 -69.5l119 -121q16 23 30 48t28 52q4 8 15.5 18.5t30.5 10.5q22 0 37.5 -15.5t15.5 -36.5q0 -13 -7 -27q-35 -65 -76 -123l78 -78q9 -9 14 -18.5t5 -23.5q0 -23 -15.5 -39t-38.5 -16zM298 425q54 20 82 45.5t28 63.5v2q0 35 -22 57t-57 22q-38 0 -61 -23.5t-23 -60.5
v-2q0 -26 12 -49t41 -55zM280 92q37 0 70 16.5t63 45.5l-156 159q-50 -22 -72 -52.5t-22 -64.5v-2q0 -45 33 -73.5t84 -28.5z" />
    <glyph glyph-name="exclam" unicode="!" horiz-adv-x="302" 
d="M80 660q-2 18 8 30.5t27 12.5h72q17 0 27.5 -12.5t8.5 -30.5l-35 -408q-2 -17 -12 -26.5t-25 -9.5t-24.5 9.5t-11.5 26.5zM80 74q0 29 20.5 49t50.5 20q31 0 51 -20t20 -49v-10q0 -29 -20 -49t-51 -20q-30 0 -50.5 20t-20.5 49v10z" />
    <glyph glyph-name="exclamdown" unicode="&#xa1;" horiz-adv-x="302" 
d="M223 40q2 -18 -8.5 -30.5t-27.5 -12.5h-72q-17 0 -27 12.5t-8 30.5l35 408q2 17 11.5 26.5t24.5 9.5t25 -9.5t12 -26.5zM222 627q0 -30 -20 -50t-51 -20q-30 0 -50.5 20t-20.5 50v9q0 29 20.5 49t50.5 20q31 0 51 -20t20 -49v-9z" />
    <glyph glyph-name="question" unicode="?" horiz-adv-x="541" 
d="M245 216q-17 0 -29 11.5t-14 28.5l-10 86q-3 20 8 34t31 16q71 7 108.5 33.5t37.5 74.5v2q0 42 -30.5 68.5t-84.5 26.5q-40 0 -73 -14t-63 -41q-8 -6 -17 -10t-20 -4q-23 0 -39.5 16t-16.5 39q0 11 4.5 22.5t15.5 20.5q40 38 91.5 60.5t120.5 22.5q52 0 95.5 -14
t74.5 -40.5t48 -64t17 -84.5v-2q0 -47 -16 -82t-43.5 -59t-64 -39t-78.5 -22l-4 -46q-3 -17 -14.5 -28.5t-28.5 -11.5h-6zM174 74q0 29 20 49t51 20t51 -20t20 -49v-10q0 -29 -20 -49t-51 -20t-51 20t-20 49v10z" />
    <glyph glyph-name="questiondown" unicode="&#xbf;" horiz-adv-x="541" 
d="M296 484q17 0 29 -11.5t14 -28.5l10 -86q3 -20 -8 -33.5t-31 -16.5q-71 -7 -108 -33.5t-37 -74.5v-2q0 -42 30 -68.5t84 -26.5q40 0 73 14t63 41q17 14 37 14q23 0 39.5 -16t16.5 -39q0 -11 -4.5 -22.5t-15.5 -20.5q-40 -38 -91.5 -60.5t-120.5 -22.5q-53 0 -96 14
t-73.5 40.5t-47.5 64t-17 84.5v2q0 48 16 82.5t43 59t63.5 39t78.5 21.5l5 46q2 17 13.5 28.5t28.5 11.5h6zM367 627q0 -30 -20 -50t-51 -20t-51 20t-20 50v9q0 29 20 49t51 20t51 -20t20 -49v-9z" />
    <glyph glyph-name="quotedblleft" unicode="&#x201c;" horiz-adv-x="501" 
d="M467 676q0 -11 -6.5 -17.5t-17.5 -9.5q-71 -22 -68 -89q22 -6 39.5 -23.5t17.5 -44.5v-8q0 -29 -18.5 -48t-49.5 -19q-33 0 -52.5 23.5t-19.5 64.5v10q0 51 13 87t36 59q20 20 46.5 31.5t47.5 11.5q16 0 24 -8t8 -20zM235 676q0 -11 -6.5 -17.5t-17.5 -9.5
q-71 -22 -68 -89q22 -6 39.5 -23.5t17.5 -44.5v-8q0 -29 -18.5 -48t-49.5 -19q-33 0 -52.5 23.5t-19.5 64.5v10q0 51 13 87t37 59q20 20 46 31.5t48 11.5q16 0 23.5 -8t7.5 -20z" />
    <glyph glyph-name="quotedblright" unicode="&#x201d;" horiz-adv-x="501" 
d="M35 446q0 11 6.5 17.5t16.5 9.5q71 22 68 90q-22 5 -39.5 22.5t-17.5 44.5v8q0 29 18.5 48t49.5 19q33 0 52.5 -23.5t19.5 -64.5v-10q0 -51 -13 -87t-36 -59q-20 -20 -46.5 -31.5t-47.5 -11.5q-16 0 -23.5 8t-7.5 20zM266 446q0 11 6.5 17.5t17.5 9.5q71 22 68 90
q-22 5 -39.5 22.5t-17.5 44.5v8q0 29 18.5 48t49.5 19q33 0 52.5 -23.5t19.5 -64.5v-10q0 -51 -13 -87t-37 -59q-20 -20 -46 -31.5t-48 -11.5q-16 0 -23.5 8t-7.5 20z" />
    <glyph glyph-name="quoteleft" unicode="&#x2018;" horiz-adv-x="269" 
d="M235 676q0 -11 -6.5 -17.5t-17.5 -9.5q-71 -22 -68 -89q22 -6 39.5 -23.5t17.5 -44.5v-8q0 -29 -18.5 -48t-49.5 -19q-33 0 -52.5 23.5t-19.5 64.5v10q0 51 13 87t37 59q20 20 46 31.5t48 11.5q16 0 23.5 -8t7.5 -20z" />
    <glyph glyph-name="quoteright" unicode="&#x2019;" horiz-adv-x="269" 
d="M35 446q0 11 6.5 17.5t16.5 9.5q71 22 68 90q-22 5 -39.5 22.5t-17.5 44.5v8q0 29 18.5 48t49.5 19q33 0 52.5 -23.5t19.5 -64.5v-10q0 -51 -13 -87t-36 -59q-20 -20 -46.5 -31.5t-47.5 -11.5q-16 0 -23.5 8t-7.5 20z" />
    <glyph glyph-name="quotedblbase" unicode="&#x201e;" horiz-adv-x="501" 
d="M30 -117q0 11 6.5 18t16.5 9q71 23 68 90q-22 6 -39.5 23.5t-17.5 44.5v8q0 29 18.5 48t49.5 19q34 0 53 -23.5t19 -64.5v-11q0 -51 -13 -86.5t-36 -59.5q-20 -20 -46.5 -31.5t-47.5 -11.5q-16 0 -23.5 8.5t-7.5 19.5zM261 -117q0 11 6.5 18t17.5 9q71 23 68 90
q-22 6 -39.5 23.5t-17.5 44.5v8q0 29 18.5 48t49.5 19q33 0 52.5 -24t19.5 -64v-11q0 -51 -13 -86.5t-37 -59.5q-20 -20 -46 -31.5t-48 -11.5q-16 0 -23.5 8.5t-7.5 19.5z" />
    <glyph glyph-name="quotesinglbase" unicode="&#x201a;" horiz-adv-x="269" 
d="M30 -117q0 11 6.5 18t16.5 9q71 23 68 90q-22 6 -39.5 23.5t-17.5 44.5v8q0 29 18.5 48t49.5 19q34 0 53 -23.5t19 -64.5v-11q0 -51 -13 -86.5t-36 -59.5q-20 -20 -46.5 -31.5t-47.5 -11.5q-16 0 -23.5 8.5t-7.5 19.5z" />
    <glyph glyph-name="guillemotleft" unicode="&#xab;" horiz-adv-x="606" 
d="M489 42q-14 0 -24.5 6t-17.5 15l-129 166q-7 9 -11 17t-4 18q0 17 15 35l126 163q8 11 19.5 17.5t25.5 6.5q21 0 35 -15t14 -35q0 -10 -4 -18.5t-10 -15.5l-105 -137l107 -140q13 -16 13 -33q-1 -21 -15 -35.5t-35 -14.5zM237 42q-14 0 -24.5 6t-17.5 15l-129 166
q-7 9 -10.5 17t-3.5 18q0 18 14 35l126 163q8 11 20 17.5t26 6.5q20 0 34 -15t14 -35q0 -10 -4 -18.5t-9 -15.5l-106 -137l108 -140q12 -15 12 -33q0 -21 -14.5 -35.5t-35.5 -14.5z" />
    <glyph glyph-name="guillemotright" unicode="&#xbb;" horiz-adv-x="606" 
d="M369 486q14 0 24.5 -6.5t17.5 -15.5l129 -165q7 -9 11 -17t4 -19q0 -10 -4 -18t-11 -17l-126 -162q-8 -11 -20 -17.5t-26 -6.5q-20 0 -34 15t-14 35q0 9 4 18t9 16l106 136l-108 140q-12 16 -12 34q0 21 14.5 35.5t35.5 14.5zM117 486q14 0 24.5 -6.5t17.5 -15.5
l129 -165q7 -9 11 -17t4 -19q0 -10 -4 -18t-11 -17l-126 -162q-8 -11 -19.5 -17.5t-25.5 -6.5q-21 0 -35 15t-14 35q0 9 4 18t10 16l105 136l-107 140q-13 16 -13 34q1 21 15 35.5t35 14.5z" />
    <glyph glyph-name="guilsinglleft" unicode="&#x2039;" horiz-adv-x="354" 
d="M237 42q-14 0 -24.5 6t-17.5 15l-129 166q-7 9 -10.5 17t-3.5 18q0 18 14 35l126 163q8 11 20 17.5t26 6.5q20 0 34 -15t14 -35q0 -10 -4 -18.5t-9 -15.5l-106 -137l108 -140q12 -15 12 -33q0 -21 -14.5 -35.5t-35.5 -14.5z" />
    <glyph glyph-name="guilsinglright" unicode="&#x203a;" horiz-adv-x="354" 
d="M117 486q14 0 24.5 -6.5t17.5 -15.5l129 -165q7 -9 11 -17t4 -19q0 -10 -4 -18t-11 -17l-126 -162q-8 -11 -19.5 -17.5t-25.5 -6.5q-21 0 -35 15t-14 35q0 9 4 18t10 16l105 136l-107 140q-13 16 -13 34q1 21 15 35.5t35 14.5z" />
    <glyph glyph-name="hyphen" unicode="-" horiz-adv-x="408" 
d="M110 247q-24 0 -41.5 17.5t-17.5 41.5q0 25 17.5 42.5t41.5 17.5h188q24 0 41.5 -17.5t17.5 -42.5q0 -24 -17.5 -41.5t-41.5 -17.5h-188v0z" />
    <glyph glyph-name="endash" unicode="&#x2013;" horiz-adv-x="528" 
d="M108 249q-23 0 -40 17t-17 40q0 24 17 41t40 17h312q23 0 40 -17t17 -41q0 -23 -17 -40t-40 -17h-312v0z" />
    <glyph glyph-name="emdash" unicode="&#x2014;" horiz-adv-x="898" 
d="M108 249q-23 0 -40 17t-17 40q0 24 17 41t40 17h682q23 0 40 -17t17 -41q0 -23 -17 -40t-40 -17h-682v0z" />
    <glyph glyph-name="underscore" unicode="_" horiz-adv-x="600" 
d="M-2 -160q-20 0 -33.5 13.5t-13.5 33.5t13.5 33.5t33.5 13.5h604q20 0 33.5 -13.5t13.5 -33.5t-13.5 -33.5t-33.5 -13.5h-604v0z" />
    <glyph glyph-name="slash" unicode="/" horiz-adv-x="521" 
d="M0 -87q0 7 2 13t4 11l409 838q14 28 44 28q20 0 33.5 -13.5t13.5 -32.5q0 -7 -1.5 -13t-3.5 -11l-410 -838q-14 -28 -43 -28q-20 0 -34 13.5t-14 32.5z" />
    <glyph glyph-name="backslash" unicode="\" horiz-adv-x="521" 
d="M521 -87q0 -19 -14 -32.5t-34 -13.5q-29 0 -43 28l-410 838q-2 5 -3.5 11t-1.5 13q0 19 13.5 32.5t33.5 13.5q30 0 44 -28l409 -838q2 -5 4 -11t2 -13z" />
    <glyph glyph-name="bar" unicode="|" horiz-adv-x="331" 
d="M117 755q0 20 14 34t34 14t34.5 -14t14.5 -34v-840q0 -20 -14.5 -34t-34.5 -14t-34 14t-14 34v840z" />
    <glyph glyph-name="parenleft" unicode="(" horiz-adv-x="441" 
d="M346 -135q-10 0 -18 2.5t-11 4.5q-125 75 -189.5 176.5t-64.5 238.5t64.5 238.5t189.5 176.5q3 2 11 4.5t18 2.5q18 0 32 -15t14 -34q0 -26 -20 -41q-96 -67 -142 -146t-46 -186t46 -186t142 -146q20 -15 20 -41q0 -19 -14 -34t-32 -15z" />
    <glyph glyph-name="parenright" unicode=")" horiz-adv-x="441" 
d="M94 -135q-18 0 -32 15t-14 34q0 14 6 24t15 17q95 67 141.5 146t46.5 186t-46.5 186t-141.5 146q-9 7 -15 17t-6 24q0 19 14 34t32 15q11 0 18.5 -2.5t10.5 -4.5q125 -75 190 -176.5t65 -238.5t-65 -238.5t-190 -176.5q-3 -2 -10.5 -4.5t-18.5 -2.5z" />
    <glyph glyph-name="bracketleft" unicode="[" horiz-adv-x="455" 
d="M88 640q0 25 17 42.5t42 17.5h206q20 0 34 -14t14 -34t-14 -33.5t-34 -13.5h-149v-640h149q20 0 34 -13.5t14 -33.5t-14 -34t-34 -14h-206q-25 0 -42 17.5t-17 42.5v710z" />
    <glyph glyph-name="bracketright" unicode="]" horiz-adv-x="455" 
d="M367 -70q0 -25 -17.5 -42.5t-42.5 -17.5h-206q-20 0 -33.5 14t-13.5 34t13.5 33.5t33.5 13.5h150v640h-150q-20 0 -33.5 13.5t-13.5 33.5t13.5 34t33.5 14h206q25 0 42.5 -17.5t17.5 -42.5v-710z" />
    <glyph glyph-name="braceleft" unicode="{" horiz-adv-x="487" 
d="M385 -135q-58 13 -96 31t-60 42t-31 54t-9 67q0 6 0.5 15.5t0.5 20t0.5 20.5t0.5 16q0 55 -21.5 80.5t-72.5 27.5q-24 2 -37.5 15t-13.5 33t13.5 33t37.5 15q51 2 72.5 27.5t21.5 81.5q0 6 -0.5 16t-0.5 20.5t-0.5 20t-0.5 15.5q0 36 9 66t31 54t60 42t96 31q23 5 39 -7
t16 -34q0 -18 -9.5 -28t-18.5 -13q-36 -11 -58 -23t-34 -27t-15.5 -34.5t-3.5 -44.5q0 -15 1 -36.5t1 -37.5q0 -59 -27 -90t-77 -47q51 -17 77.5 -47.5t26.5 -89.5q0 -16 -1 -37.5t-1 -36.5q0 -26 3.5 -45t15.5 -34t34 -27t58 -23q9 -3 18.5 -13t9.5 -28q0 -22 -16 -34
t-39 -7z" />
    <glyph glyph-name="braceright" unicode="}" horiz-adv-x="487" 
d="M102 709q58 -13 96 -31t60 -42t31 -54t9 -66q0 -6 -0.5 -15.5t-0.5 -20t-0.5 -20.5t-0.5 -16q0 -56 22 -81.5t73 -27.5q23 -2 36.5 -15t13.5 -33t-13.5 -33t-36.5 -15q-51 -2 -73 -27.5t-22 -80.5q0 -6 0.5 -16t0.5 -20.5t0.5 -20t0.5 -15.5q0 -37 -9 -67t-31 -54
t-60 -42t-96 -31q-23 -5 -39 7t-16 34q0 18 9.5 28t19.5 13q36 11 57.5 23t33.5 27t15.5 34t3.5 45q0 15 -1 36.5t-1 37.5q0 59 27 90t77 47q-51 17 -77.5 47.5t-26.5 89.5q0 16 1 37.5t1 36.5q0 25 -3.5 44.5t-15.5 34.5t-33.5 27t-57.5 23q-10 3 -19.5 13t-9.5 28
q0 22 16 34t39 7z" />
    <glyph glyph-name="at" unicode="@" horiz-adv-x="980" 
d="M499 -162q-96 0 -177.5 34.5t-141.5 94t-93.5 138.5t-33.5 169t34 169.5t93 139t139 94.5t172 35t171.5 -33t138.5 -87.5t92.5 -126t33.5 -149.5q0 -63 -16 -110t-42.5 -77.5t-61.5 -46t-74 -15.5q-59 0 -95 21t-53 49q-27 -28 -64.5 -49t-90.5 -21q-38 0 -70.5 13.5
t-57.5 38t-39 59.5t-14 78q0 53 19 99t51 79.5t72.5 52.5t84.5 19q54 0 87.5 -22t53.5 -52l3 18q9 50 52 50q22 0 37.5 -17t10.5 -44l-38 -214q-2 -14 -3.5 -25t-1.5 -18q0 -32 20.5 -51.5t57.5 -19.5q27 0 51 13t42 38.5t28.5 64t10.5 89.5q0 69 -30 133.5t-83 114.5
t-125.5 80t-157.5 30t-158 -31.5t-126 -86t-83.5 -127.5t-30.5 -155q0 -83 30 -155.5t84 -126.5t128.5 -85t163.5 -31q72 0 128 15.5t110 46.5q4 3 11 3t11.5 -5.5t4.5 -12.5q0 -11 -9 -15q-56 -33 -118.5 -51.5t-137.5 -18.5zM457 154q27 0 52 12.5t44 34t30.5 50.5
t11.5 61q0 48 -30 78t-75 30q-27 0 -52 -12t-44 -33t-30.5 -50t-11.5 -63q0 -52 29 -80t76 -28z" />
    <glyph glyph-name="copyright" unicode="&#xa9;" horiz-adv-x="830" 
d="M414 -12q-76 0 -142 28.5t-114.5 77.5t-76.5 114.5t-28 139.5v2q0 74 28 139.5t77 115t115.5 78.5t142.5 29t142 -28.5t114.5 -77.5t76.5 -114.5t28 -139.5v-2q0 -74 -28 -139.5t-77 -115t-115.5 -78.5t-142.5 -29zM414 24q69 0 128.5 26t103 70t68.5 103.5t25 126.5v2
q0 67 -24.5 126t-68 103t-102.5 69.5t-128 25.5t-128.5 -26t-103 -70t-68.5 -103.5t-25 -126.5v-2q0 -67 24.5 -126t68 -103t102.5 -69.5t128 -25.5zM419 159q-41 0 -76.5 15t-61 41.5t-40 61.5t-14.5 76v2q0 40 14.5 75.5t40 62.5t61.5 42.5t78 15.5q46 0 76 -11.5
t54 -31.5q7 -5 11.5 -12.5t4.5 -17.5q0 -16 -10.5 -26.5t-25.5 -10.5q-11 0 -24 10q-17 14 -38.5 23t-47.5 9t-47.5 -10t-37 -27.5t-24.5 -40.5t-9 -49v-2q0 -26 9 -49t24.5 -40.5t37 -27.5t47.5 -10q29 0 50.5 9.5t41.5 26.5q4 3 9 6t13 3q14 0 24.5 -10.5t10.5 -24.5
q0 -16 -11 -25q-28 -24 -60 -38.5t-80 -14.5z" />
    <glyph glyph-name="published" unicode="&#x2117;" horiz-adv-x="830" 
d="M414 -12q-76 0 -142 28.5t-114.5 77.5t-76.5 114.5t-28 139.5v2q0 74 28 139.5t77 115t115.5 78.5t142.5 29t142 -28.5t114.5 -77.5t76.5 -114.5t28 -139.5v-2q0 -74 -28 -139.5t-77 -115t-115.5 -78.5t-142.5 -29zM414 24q69 0 128.5 26t103 70t68.5 103.5t25 126.5v2
q0 67 -24.5 126t-68 103t-102.5 69.5t-128 25.5t-128.5 -26t-103 -70t-68.5 -103.5t-25 -126.5v-2q0 -67 24.5 -126t68 -103t102.5 -69.5t128 -25.5zM286 510q0 15 11 26t26 11h116q68 0 107.5 -34.5t39.5 -93.5v-2q0 -32 -12.5 -56.5t-33.5 -41t-49.5 -24.5t-59.5 -8h-71
v-88q0 -16 -11 -26.5t-26 -10.5t-26 10.5t-11 26.5v311zM433 352q36 0 57 17.5t21 46.5v2q0 31 -21 47t-57 16h-73v-129h73z" />
    <glyph glyph-name="registered.alt" horiz-adv-x="830" 
d="M414 -12q-76 0 -142 28.5t-114.5 77.5t-76.5 114.5t-28 139.5v2q0 74 28 139.5t77 115t115.5 78.5t142.5 29t142 -28.5t114.5 -77.5t76.5 -114.5t28 -139.5v-2q0 -74 -28 -139.5t-77 -115t-115.5 -78.5t-142.5 -29zM414 24q69 0 128.5 26t103 70t68.5 103.5t25 126.5v2
q0 67 -24.5 126t-68 103t-102.5 69.5t-128 25.5t-128.5 -26t-103 -70t-68.5 -103.5t-25 -126.5v-2q0 -67 24.5 -126t68 -103t102.5 -69.5t128 -25.5zM269 514q0 15 10.5 25.5t25.5 10.5h133q38 0 67 -10.5t48 -29.5q31 -31 31 -80v-2q0 -44 -23 -72t-61 -41l72 -90
q10 -10 10 -25q0 -14 -10 -24.5t-24 -10.5q-11 0 -17.5 4t-13.5 13l-95 120h-81v-101q0 -15 -11 -25.5t-25 -10.5q-15 0 -25.5 10.5t-10.5 25.5v313zM435 365q35 0 55 16t20 43v2q0 29 -20 44t-55 15h-94v-120h94z" />
    <glyph glyph-name="registered" unicode="&#xae;" horiz-adv-x="382" 
d="M191 360q-37 0 -68.5 14t-55 37.5t-37 55t-13.5 67.5v1q0 36 13.5 67.5t37 55.5t55.5 38t68 14q37 0 68.5 -14t55 -37.5t37 -55t13.5 -67.5v-1q0 -36 -13.5 -67.5t-37 -55.5t-55.5 -38t-68 -14zM191 379q33 0 61 12.5t48.5 33.5t32.5 49.5t12 60.5v1q0 32 -11.5 60
t-32.5 49t-49 33.5t-61 12.5t-61 -12.5t-48.5 -33.5t-32.5 -49.5t-12 -60.5v-1q0 -32 11.5 -60t32.5 -49t49 -33.5t61 -12.5zM119 606q0 10 6.5 16.5t15.5 6.5h63q32 0 52.5 -15t20.5 -45q0 -20 -9.5 -34t-26.5 -21l27 -33q6 -6 6 -16q0 -9 -6 -15t-16 -6q-6 0 -10 2.5
t-8 6.5l-42 52h-29v-39q0 -9 -6.5 -15.5t-15.5 -6.5t-15.5 6.5t-6.5 15.5v140zM201 541q31 0 31 25t-31 25h-38v-50h38z" />
    <glyph glyph-name="servicemark" unicode="&#x2120;" horiz-adv-x="705" 
d="M356 674q0 12 8.5 20.5t20.5 8.5h7q9 0 15.5 -4.5t10.5 -10.5l93 -148l94 148q9 15 25 15h7q12 0 20 -8.5t8 -20.5v-259q0 -12 -8 -20t-20 -8t-20 8t-8 20v180l-74 -112q-10 -15 -24 -15q-16 0 -26 15l-72 111v-179q0 -12 -8.5 -20t-20.5 -8q-11 0 -19.5 8t-8.5 20v259z
M33 448q0 11 7 18t18 7q10 0 18 -6q20 -14 44 -23.5t51 -9.5q29 0 44.5 11t15.5 29q0 17 -15 27t-58 20q-51 12 -82 30.5t-31 60.5v1q0 41 31 67t83 26q33 0 59 -8.5t44 -20.5q15 -9 15 -24q0 -11 -7.5 -18.5t-18.5 -7.5q-9 0 -16 5q-16 10 -35 17t-42 7q-27 0 -41.5 -10.5
t-14.5 -26.5q0 -18 16 -28t59 -20q51 -11 81 -31t30 -60q0 -44 -33.5 -69t-86.5 -25q-33 0 -65.5 11t-56.5 28q-13 10 -13 23z" />
    <glyph glyph-name="trademark" unicode="&#x2122;" horiz-adv-x="690" 
d="M121 646h-74q-11 0 -18.5 8t-7.5 19t7.5 19t18.5 8h207q11 0 18.5 -8t7.5 -19t-7.5 -19t-18.5 -8h-74v-230q0 -12 -8.5 -20.5t-21.5 -8.5q-12 0 -20.5 8.5t-8.5 20.5v230zM341 674q0 12 8.5 20.5t20.5 8.5h7q10 0 16.5 -4.5t10.5 -10.5l92 -148l94 148q9 15 26 15h7
q11 0 19.5 -8.5t8.5 -20.5v-259q0 -12 -8.5 -20t-20.5 -8q-11 0 -19.5 8t-8.5 20v180l-73 -112q-5 -7 -10.5 -11t-14.5 -4q-15 0 -25 15l-73 111v-179q0 -12 -8.5 -20t-19.5 -8q-12 0 -20.5 8t-8.5 20v259z" />
    <glyph glyph-name="asterisk" unicode="*" horiz-adv-x="430" 
d="M194 504l-75 -55q-7 -5 -12.5 -7.5t-12.5 -2.5q-14 0 -23.5 10t-9.5 24q0 11 7.5 19t15.5 12l88 38l-88 39q-9 4 -16 12t-7 19q0 14 10 23.5t24 9.5q11 0 24 -10l75 -55l-10 89q-2 16 7 27t24 11t24 -10.5t7 -26.5l-10 -90l75 55q13 10 25 10q14 0 23.5 -9.5t9.5 -23.5
q0 -12 -7 -19.5t-16 -11.5l-88 -39l88 -38q9 -4 16 -12t7 -20q0 -14 -10 -23.5t-24 -9.5q-6 0 -11.5 2.5t-12.5 7.5l-75 55l10 -89q2 -16 -7 -27t-24 -11t-24 10.5t-7 26.5z" />
    <glyph glyph-name="dagger" unicode="&#x2020;" horiz-adv-x="410" 
d="M178 513l-90 -7q-16 -2 -26.5 8.5t-10.5 25.5q0 14 10.5 24.5t25.5 8.5l90 -7l-9 98q-2 18 9.5 29.5t27.5 11.5t27.5 -11.5t9.5 -29.5l-8 -98l89 7q16 2 26 -8.5t10 -24.5q0 -15 -10.5 -25.5t-26.5 -8.5l-89 7l7 -242q1 -17 -9.5 -27.5t-25.5 -10.5t-25.5 10.5t-9.5 26.5
z" />
    <glyph glyph-name="daggerdbl" unicode="&#x2021;" horiz-adv-x="430" 
d="M187 134l-90 -7q-15 -2 -25.5 8.5t-10.5 24.5q0 15 10.5 25.5t26.5 8.5l89 -7l-8 163l8 163l-89 -7q-16 -2 -26.5 8.5t-10.5 25.5q0 14 10.5 24.5t25.5 8.5l90 -7l-9 98q-2 18 9.5 29.5t27.5 11.5t27.5 -11.5t9.5 -29.5l-8 -98l89 7q16 2 26 -8.5t10 -24.5
q0 -15 -10.5 -25.5t-26.5 -8.5l-89 7l8 -163l-8 -163l89 7q16 2 26.5 -8.5t10.5 -25.5q0 -14 -10 -24.5t-26 -8.5l-89 7l8 -98q2 -18 -9.5 -29.5t-27.5 -11.5t-27.5 11.5t-9.5 29.5z" />
    <glyph glyph-name="dollar" unicode="$" horiz-adv-x="642" 
d="M285 720q0 18 13 30.5t31 12.5t30.5 -12.5t12.5 -30.5v-22q45 -5 82.5 -19t72.5 -36q12 -7 21 -18.5t9 -29.5q0 -23 -16.5 -39t-39.5 -16q-15 0 -30 9q-54 33 -103 44v-192q114 -29 165.5 -77.5t51.5 -128.5q0 -41 -15.5 -75t-43.5 -59t-67 -41t-87 -20v-60
q0 -18 -12.5 -30.5t-30.5 -12.5t-31 12.5t-13 30.5v62q-57 6 -108 26t-97 52q-27 17 -27 48q0 23 16 39t39 16q19 0 33 -11q35 -26 70.5 -42.5t77.5 -24.5v197q-55 14 -95 32t-66.5 42.5t-39.5 57t-13 74.5q0 40 15 73.5t43 58.5t66.5 40t85.5 19v21zM467 188q0 33 -20.5 55
t-78.5 40v-182q48 5 73.5 28t25.5 59zM193 515q0 -16 4 -29t15 -24t29.5 -21t47.5 -19v177q-48 -5 -72 -28t-24 -56z" />
    <glyph glyph-name="sterling" unicode="&#xa3;" horiz-adv-x="644" 
d="M58 43q0 15 8 27t25 17l51 15v176h-32q-22 0 -37 15t-15 37q0 21 15 36.5t37 15.5h32v92q0 55 16 99.5t46 74.5q60 62 168 62q69 0 115.5 -23t79.5 -58q8 -8 13.5 -19t5.5 -25q0 -26 -17.5 -43t-43.5 -17q-17 0 -27.5 6t-16.5 13q-23 25 -47.5 38.5t-59.5 13.5
q-24 0 -42 -7t-32 -21q-33 -35 -33 -97v-89h202q21 0 36.5 -15.5t15.5 -36.5q0 -22 -15.5 -37t-36.5 -15h-202v-171h276q23 0 38.5 -15.5t15.5 -38.5t-15.5 -38t-38.5 -15h-438q-21 0 -34 12.5t-13 30.5z" />
    <glyph glyph-name="Euro" unicode="&#x20ac;" horiz-adv-x="720" 
d="M670 140q0 -11 -3.5 -20.5t-8.5 -14.5q-41 -53 -94 -85t-130 -32q-56 0 -102.5 17t-83.5 48t-63.5 75t-40.5 97h-54q-18 0 -30.5 12.5t-12.5 30.5q0 17 12.5 30t30.5 13h39q-1 9 -1 18.5v19.5v23t2 23h-40q-18 0 -30.5 12.5t-12.5 29.5q0 18 12.5 30.5t30.5 12.5h56
q15 51 41 93.5t62.5 73t82 48t98.5 17.5q79 0 131 -28.5t91 -73.5q6 -6 11 -16.5t5 -24.5q0 -24 -17.5 -41t-41.5 -17q-16 0 -26.5 6t-16.5 14q-29 35 -60.5 53t-78.5 18q-54 0 -93.5 -32.5t-60.5 -89.5h178q17 0 29.5 -12.5t12.5 -30.5q0 -17 -12.5 -29.5t-29.5 -12.5h-197
q-2 -11 -2 -22v-22v-20.5t1 -19.5h198q17 0 29.5 -13t12.5 -30q0 -18 -12.5 -30.5t-29.5 -12.5h-180q21 -60 62.5 -93.5t101.5 -33.5q45 0 76.5 20.5t60.5 55.5q17 20 43 20q23 0 39 -15.5t16 -38.5z" />
    <glyph glyph-name="yen" unicode="&#xa5;" horiz-adv-x="686" 
d="M402 191h154q18 0 31 -13t13 -32q0 -18 -13 -31t-31 -13h-154v-48q0 -25 -17 -42t-42 -17t-42 17t-17 42v48h-154q-18 0 -31 13t-13 31q0 19 13 32t31 13h154v73h-154q-18 0 -31 13t-13 31q0 19 13 32t31 13h119l-184 252q-15 21 -15 42q0 23 17.5 40.5t43.5 17.5
q20 0 33.5 -9t24.5 -25l175 -261l177 260q9 14 22.5 24.5t33.5 10.5q24 0 41.5 -15.5t17.5 -41.5q0 -23 -15 -43l-186 -252h121q18 0 31 -13t13 -32q0 -18 -13 -31t-31 -13h-154v-73z" />
    <glyph glyph-name="cent" unicode="&#xa2;" horiz-adv-x="581" 
d="M230 96q-39 14 -72 39t-56.5 58.5t-36.5 74t-13 85.5v2q0 57 20.5 107t57 87.5t87 59t109.5 21.5h8l9 46q3 15 14 25t29 10q20 0 33 -15t8 -37l-8 -42q28 -9 51.5 -23.5t43.5 -31.5q7 -6 12.5 -16t5.5 -25q0 -23 -15.5 -38.5t-38.5 -15.5q-11 0 -20 3.5t-14 8.5
q-12 10 -24 18t-26 14l-64 -326q35 1 64 13.5t54 34.5q6 5 13.5 8.5t20.5 3.5q20 0 34.5 -15t14.5 -36q0 -23 -16 -37q-35 -34 -82.5 -55.5t-111.5 -21.5h-7l-11 -56q-3 -15 -14 -25t-28 -10q-20 0 -33.5 15t-8.5 37zM170 355q0 -51 22.5 -91.5t62.5 -61.5l63 323
q-32 -1 -59 -14.5t-47 -36.5t-31 -53t-11 -64v-2z" />
    <glyph glyph-name="florin" unicode="&#x192;" horiz-adv-x="527" 
d="M106 -7q-31 0 -48 14t-17 37q0 20 13.5 34t36.5 16q27 2 42 18t21 49l35 195h-34q-21 0 -36 14.5t-15 35.5t15 36t36 15h51l18 94q14 76 54 115.5t121 39.5q26 0 52 -3q18 -2 31.5 -16t13.5 -35t-14.5 -35.5t-35.5 -14.5q-3 0 -9.5 1t-14.5 1q-35 0 -54 -18t-27 -60
l-12 -69h81q22 0 36.5 -15t14.5 -36t-14.5 -35.5t-36.5 -14.5h-99l-38 -213q-14 -81 -56 -115.5t-111 -34.5z" />
    <glyph glyph-name="numbersign" unicode="#" horiz-adv-x="700" 
d="M132 161h-46q-22 0 -37 15t-15 37q0 21 15 36.5t37 15.5h64l30 174h-58q-21 0 -36.5 15.5t-15.5 36.5t15.5 36.5t36.5 15.5h76l20 119q3 20 17.5 31.5t34.5 11.5q25 0 40 -19t12 -42l-18 -101h157l20 119q3 20 18 31.5t35 11.5q24 0 39.5 -19t11.5 -42l-17 -101h46
q21 0 36.5 -15t15.5 -37q0 -21 -15.5 -36.5t-36.5 -15.5h-64l-30 -174h57q22 0 37 -15t15 -37q0 -21 -15 -36.5t-37 -15.5h-75l-21 -123q-3 -19 -17.5 -31t-34.5 -12q-25 0 -40.5 19t-11.5 42l19 105h-157l-21 -123q-3 -17 -16.5 -30t-36.5 -13q-24 0 -39.5 17.5t-11.5 43.5
zM413 265l30 174h-156l-30 -174h156z" />
    <glyph glyph-name="paragraph" unicode="&#xb6;" horiz-adv-x="557" 
d="M346 244h-18q-62 0 -114.5 14.5t-91 43t-60.5 71t-22 98.5v2q0 53 20 95t55.5 71.5t85.5 45t110 15.5h97q26 0 44 -18t18 -44v-582q0 -26 -18 -43.5t-44 -17.5t-44 17.5t-18 43.5v188z" />
    <glyph glyph-name="section" unicode="&#xa7;" horiz-adv-x="632" 
d="M326 -10q-64 0 -115.5 19t-92.5 53q-7 6 -12.5 15.5t-5.5 22.5q0 21 14.5 35.5t35.5 14.5q10 0 18 -3.5t13 -8.5q32 -26 67 -41t77 -15q40 0 60.5 14t20.5 35v2q0 11 -6 20t-21 17t-40.5 16t-64.5 17q-58 13 -99 27.5t-67 31.5t-38 38.5t-12 48.5v2q0 49 30.5 76.5
t76.5 39.5q-27 17 -41 41.5t-14 53.5v2q0 67 52 106.5t144 39.5q64 0 115.5 -19t92.5 -53q7 -6 12.5 -15.5t5.5 -22.5q0 -21 -14.5 -35t-35.5 -14q-10 0 -18 3t-13 8q-32 26 -67 41t-77 15q-40 0 -60.5 -13.5t-20.5 -35.5v-2q0 -10 5.5 -19t20 -17t40 -16.5t66.5 -17.5
q58 -13 99 -27.5t67 -31.5t38 -38.5t12 -48.5v-2q0 -48 -30.5 -76t-76.5 -40q26 -16 41 -41t15 -54v-2q0 -66 -52.5 -106t-144.5 -40zM388 278q34 0 55.5 15.5t21.5 38.5v2q0 22 -26.5 38t-90.5 32q-38 10 -62.5 14t-41.5 4q-34 0 -55.5 -15.5t-21.5 -38.5v-2
q0 -22 26.5 -38t91.5 -32q38 -10 62 -14t41 -4z" />
    <glyph glyph-name="ordfeminine" unicode="&#xaa;" horiz-adv-x="390" 
d="M159 403q-21 0 -39.5 6t-32.5 17t-22.5 28t-8.5 39v2q0 47 33.5 70t86.5 23q24 0 41.5 -3t34.5 -8v5q0 61 -70 61q-18 0 -32 -3t-26 -8q-9 -3 -15 -3q-13 0 -21.5 8.5t-8.5 20.5q0 21 19 28q21 8 42.5 12.5t50.5 4.5q65 0 97 -33q16 -15 23.5 -38t7.5 -51v-144
q0 -14 -10.5 -23.5t-24.5 -9.5q-13 0 -23 8.5t-10 22.5v8q-16 -18 -38 -29t-54 -11zM77 282q-12 0 -20.5 8.5t-8.5 20.5t8.5 20.5t20.5 8.5h222q12 0 21 -8.5t9 -20.5t-9 -20.5t-21 -8.5h-222zM177 454q32 0 53.5 17t21.5 43v18q-13 5 -28 8t-35 3q-30 0 -47 -12t-17 -33v-2
q0 -20 14.5 -31t37.5 -11z" />
    <glyph glyph-name="ordmasculine" unicode="&#xba;" horiz-adv-x="390" 
d="M194 402q-32 0 -59.5 12t-47.5 32t-31.5 47.5t-11.5 58.5v2q0 31 11.5 58.5t32 48t48 32.5t60.5 12t60.5 -12t47.5 -32t31 -47.5t11 -58.5v-2q0 -31 -11.5 -58.5t-32 -48t-48 -32.5t-60.5 -12zM75 282q-12 0 -20.5 8.5t-8.5 20.5t8.5 20.5t20.5 8.5h240q12 0 20.5 -8.5
t8.5 -20.5t-8.5 -20.5t-20.5 -8.5h-240zM196 464q37 0 58.5 26t21.5 62v2q0 36 -23 62.5t-59 26.5t-58 -26t-22 -62v-2q0 -36 23 -62.5t59 -26.5z" />
    <glyph glyph-name="degree" unicode="&#xb0;" horiz-adv-x="471" 
d="M236 381q-33 0 -63 13t-53.5 35.5t-37 51.5t-13.5 62v2q0 33 13.5 62t37 51t53.5 35t63 13t63 -13t53 -35t36.5 -51t13.5 -62v-2q0 -33 -13.5 -62t-36.5 -51.5t-53 -35.5t-63 -13zM236 447q20 0 37.5 8t30 21t19.5 30.5t7 36.5v2q0 19 -7 36.5t-19.5 30.5t-30 20.5
t-37.5 7.5q-21 0 -38 -7.5t-30 -20.5t-20 -30.5t-7 -36.5v-2q0 -19 7 -36.5t20 -30.5t30 -21t38 -8z" />
    <glyph glyph-name="percent" unicode="%" horiz-adv-x="849" 
d="M212 350q-37 0 -67 14t-51.5 38.5t-33.5 56.5t-12 68v2q0 37 12 69.5t34 57t52.5 38.5t67.5 14t67.5 -14t52 -38.5t33 -56.5t11.5 -68v-2q0 -36 -12 -68.5t-33.5 -57t-52.5 -39t-68 -14.5zM154 34q0 8 2.5 14.5t6.5 11.5l459 627q5 9 14 13.5t20 4.5q17 0 28.5 -11
t11.5 -28q0 -8 -2.5 -14.5t-6.5 -11.5l-459 -627q-12 -18 -35 -18q-17 0 -28 11t-11 28zM635 -8q-37 0 -67 14t-51.5 38.5t-33.5 56.5t-12 68v2q0 37 12 69.5t34 57t52.5 38.5t67.5 14t67 -14t51.5 -38.5t33.5 -56.5t12 -68v-2q0 -36 -12 -68.5t-34 -57t-52.5 -39
t-67.5 -14.5zM214 427q35 0 55 29.5t20 70.5v2q0 42 -21.5 72t-55.5 30q-35 0 -55 -29.5t-20 -70.5v-2q0 -43 21.5 -72.5t55.5 -29.5zM637 69q35 0 55 29.5t20 70.5v2q0 42 -21.5 72t-55.5 30q-35 0 -55 -29.5t-20 -70.5v-2q0 -43 21.5 -72.5t55.5 -29.5z" />
    <glyph glyph-name="quotedbl" unicode="&#x22;" horiz-adv-x="487" 
d="M299 647q2 24 17 40t40 16h40q14 0 23 -8.5t9 -24.5q0 -5 -1 -10.5t-3 -11.5l-73 -222q-5 -14 -13.5 -22.5t-22.5 -8.5t-24.5 10.5t-8.5 27.5zM80 647q2 24 17 40t40 16h39q14 0 23.5 -8.5t9.5 -24.5q0 -5 -1 -10.5t-3 -11.5l-73 -222q-5 -14 -13.5 -22.5t-22.5 -8.5
q-15 0 -25 10.5t-9 27.5z" />
    <glyph glyph-name="quotesingle" unicode="'" horiz-adv-x="269" 
d="M80 647q2 24 17 40t40 16h39q14 0 24 -8.5t10 -24.5q0 -5 -1 -10.5t-3 -11.5l-73 -222q-11 -31 -37 -31q-15 0 -25 10.5t-9 27.5z" />
    <glyph glyph-name="plus" unicode="+" horiz-adv-x="634" 
d="M260 297h-142q-23 0 -39 16t-16 39t16 39t39 16h142v139q0 24 16.5 40.5t40.5 16.5q23 0 40 -16.5t17 -40.5v-139h142q23 0 39 -16t16 -39t-16 -39t-39 -16h-142v-139q0 -24 -17 -40.5t-40 -16.5q-24 0 -40.5 16.5t-16.5 40.5v139z" />
    <glyph glyph-name="minus" unicode="&#x2212;" horiz-adv-x="634" 
d="M119 295q-23 0 -39.5 16.5t-16.5 39.5q0 24 16.5 40.5t39.5 16.5h395q24 0 40.5 -16.5t16.5 -40.5q0 -23 -16.5 -39.5t-40.5 -16.5h-395z" />
    <glyph glyph-name="divide" unicode="&#xf7;" horiz-adv-x="634" 
d="M115 300q-22 0 -37 15.5t-15 36.5t15 36.5t37 15.5h404q22 0 37 -15.5t15 -36.5t-15 -36.5t-37 -15.5h-404zM317 629q29 0 49 -19.5t20 -46.5v-5q0 -28 -20 -47.5t-49 -19.5t-49 19.5t-20 47.5v5q0 27 20 46.5t49 19.5zM317 213q29 0 49 -19.5t20 -47.5v-5q0 -28 -20 -47
t-49 -19t-49 19t-20 47v5q0 28 20 47.5t49 19.5z" />
    <glyph glyph-name="equal" unicode="=" horiz-adv-x="634" 
d="M127 421q-23 0 -39.5 16.5t-16.5 39.5t16.5 39.5t39.5 16.5h380q23 0 39.5 -16.5t16.5 -39.5t-16.5 -39.5t-39.5 -16.5h-380zM127 171q-23 0 -39.5 16.5t-16.5 39.5t16.5 39.5t39.5 16.5h380q23 0 39.5 -16.5t16.5 -39.5t-16.5 -39.5t-39.5 -16.5h-380z" />
    <glyph glyph-name="multiply" unicode="&#xd7;" horiz-adv-x="634" 
d="M390 353l131 -128q17 -17 17 -40t-15.5 -38.5t-38.5 -15.5q-13 0 -22.5 4.5t-17.5 11.5l-128 132l-129 -131q-15 -17 -39 -17q-22 0 -37 15t-15 37q0 24 18 40l130 128l-132 128q-7 8 -11.5 17.5t-4.5 22.5q0 23 15.5 38.5t38.5 15.5t40 -17l128 -131l129 131
q15 17 38 17t38 -15t15 -38t-18 -39z" />
    <glyph glyph-name="less" unicode="&#x3c;" horiz-adv-x="634" 
d="M497 96q-7 0 -14 2.5t-13 5.5l-361 177q-23 11 -35.5 27.5t-12.5 39.5v8q0 23 12.5 39.5t35.5 27.5l361 177q8 4 15 6t16 2q20 1 34.5 -14t14.5 -37q0 -34 -34 -50l-329 -154l329 -155q34 -16 34 -51q0 -23 -15 -37t-38 -14z" />
    <glyph glyph-name="greater" unicode="&#x3e;" horiz-adv-x="634" 
d="M137 608q7 0 14 -2.5t13 -5.5l360 -177q49 -22 49 -67v-8q0 -45 -49 -67l-360 -177q-8 -4 -15 -6t-16 -2q-20 -1 -34.5 14t-14.5 37q0 17 9 29.5t25 19.5l329 155l-329 155q-34 16 -34 51q0 23 15 37t38 14z" />
    <glyph glyph-name="plusminus" unicode="&#xb1;" horiz-adv-x="634" 
d="M263 373h-141q-22 0 -37.5 15.5t-15.5 37.5t15.5 37.5t37.5 15.5h141l-1 135q0 23 16 39t39 16t39 -16t16 -39l-1 -135h140q23 0 38.5 -15.5t15.5 -37.5t-15.5 -37.5t-38.5 -15.5h-140l1 -135q0 -23 -16 -39t-39 -16t-39 16t-16 39zM120 0q-21 0 -36 15t-15 36
q0 22 15 37t36 15h394q21 0 36 -15t15 -37q0 -21 -15 -36t-36 -15h-394z" />
    <glyph glyph-name="C" unicode="C" horiz-adv-x="738" 
d="M415 -12q-77 0 -142 28t-112.5 76.5t-74.5 114.5t-27 141v2q0 75 26.5 140.5t74.5 115t114 78t146 28.5q81 0 137.5 -22t102.5 -57q10 -8 17 -20t7 -29q0 -26 -17.5 -43t-43.5 -17q-13 0 -22 3.5t-15 8.5q-36 29 -76 46t-91 17q-50 0 -92.5 -19.5t-73 -53t-48 -78.5
t-17.5 -96v-2q0 -51 17 -96.5t48 -79t73.5 -53t92.5 -19.5q56 0 96.5 17.5t78.5 49.5q7 6 16.5 10t20.5 4q23 0 40.5 -17t17.5 -40q0 -14 -6 -25t-14 -19q-50 -44 -109.5 -69t-144.5 -25z" />
    <glyph glyph-name="uni00A0" unicode="&#xa0;" horiz-adv-x="300" 
 />
    <glyph glyph-name="emspace" unicode="&#x2003;" horiz-adv-x="1000" 
 />
    <glyph glyph-name="enspace" unicode="&#x2002;" horiz-adv-x="500" 
 />
    <glyph glyph-name="threeperemspace" unicode="&#x2004;" horiz-adv-x="333" 
 />
    <glyph glyph-name="fourperemspace" unicode="&#x2005;" horiz-adv-x="250" 
 />
    <glyph glyph-name="thinspace" unicode="&#x2009;" horiz-adv-x="133" 
 />
    <glyph glyph-name="hairspace" unicode="&#x200a;" horiz-adv-x="75" 
 />
    <glyph glyph-name="A" unicode="A" horiz-adv-x="773" 
d="M42 52q0 12 8 28l260 580q11 23 29.5 36.5t44.5 13.5h6q26 0 44 -13.5t29 -36.5l260 -580q7 -13 7 -26q0 -25 -16.5 -42t-41.5 -17q-22 0 -37 11.5t-23 31.5l-57 131h-340l-59 -135q-16 -39 -57 -39q-24 0 -40.5 16.5t-16.5 40.5zM508 278l-123 283l-123 -283h246z" />
    <glyph glyph-name="hfjslug" horiz-adv-x="694" 
d="M436 -200l-8 14h-163l-8 -14h-207v303q14 0 23 9t9 23q0 13 -9 22.5t-23 9.5v554h100l30 79h334l29 -79h101v-921h-208zM400 391h15v78h38v14h-38v66h43v14h-58v-172zM184 391h15v79h47v-79h15v172h-15v-79h-47v79h-15v-172zM460 394q10 -4 21 -4q31 0 31 36v137h-16
v-137q0 -22 -16 -22q-5 0 -10.5 1.5t-9.5 3.5v-15zM358 468q-2 -7 -4 -15t-4 -15h-1l-16 31q10 9 16.5 19.5t6.5 22.5q0 13 -6.5 22t-20.5 9q-13 0 -20.5 -9t-7.5 -22q0 -11 4 -19.5t10 -19.5q-23 -18 -23 -47q0 -17 8 -27t21 -10q19 0 29 24h1l12 -24l12 6l-17 32
q4 9 7 18.5t6 20.5zM523 277h8v12l8 8l15 -20h10l-20 26l18 20h-10l-20 -24h-1v24h-8v-46zM498 277h9l-12 17q10 4 10 14q0 15 -17 15h-20v-46h8v15h12zM426 276q11 0 17.5 7t6.5 17q0 9 -6.5 16.5t-17.5 7.5t-17.5 -7.5t-6.5 -16.5q0 -10 6.5 -17t17.5 -7zM357 323h-9
l18 -29v-17h8v17l18 29h-9l-13 -22zM193 277h34v7h-26v13h23v7h-23v12h26v7h-34v-46zM132 277h8v32l25 -32h7v46h-8v-32l-25 32h-7v-46zM255 276h8l11 34h1l11 -34h8l14 47h-8l-10 -35h-1l-11 35h-7l-11 -35h-1l-10 35h-8zM327 479l-8.5 17t-3.5 15q0 19 14 19q13 0 13 -19
q0 -16 -15 -32zM342 423q-8 -21 -20 -21q-16 0 -16 25q0 10 4.5 19t11.5 16zM476 299v17h11q10 0 10 -8q0 -9 -10 -9h-11zM426 283q-8 0 -12 5t-4 12q0 6 4 11.5t12 5.5t12 -5.5t4 -11.5q0 -7 -4 -12t-12 -5z" />
    <glyph glyph-name="i.dot" horiz-adv-x="286" 
d="M74 670q0 27 20 43t49 16t49 -16t20 -43v-6q0 -27 -20 -43.5t-49 -16.5t-49 16.5t-20 43.5v6zM83 473q0 26 17 43.5t43 17.5t43.5 -17.5t17.5 -43.5v-418q0 -26 -17.5 -43t-43.5 -17q-25 0 -42.5 17t-17.5 43v418z" />
    <glyph glyph-name="acute" unicode="&#xb4;" horiz-adv-x="500" 
d="M207 590q-13 0 -21.5 5.5t-8.5 15.5q0 5 2.5 11t5.5 11l57 88q18 29 48 29q12 0 24.5 -3.5t23 -9t17.5 -12.5t7 -14q0 -15 -17 -30l-67 -64q-18 -17 -34 -22t-37 -5z" />
    <glyph glyph-name="hungarumlaut" unicode="&#x2dd;" horiz-adv-x="500" 
d="M283 590q-13 0 -21 5.5t-8 15.5q0 5 2.5 11t5.5 11l58 88q8 14 18.5 21.5t27.5 7.5q12 0 24 -3.5t22.5 -8.5t17 -12t6.5 -14q0 -9 -4.5 -16t-12.5 -15l-67 -64q-18 -17 -33 -22t-36 -5zM100 590q-13 0 -21 5.5t-8 15.5q0 5 2.5 11t5.5 11l58 88q17 29 46 29q12 0 24 -3.5
t22.5 -8.5t17 -12t6.5 -14q0 -9 -4.5 -16t-12.5 -15l-67 -64q-17 -17 -32.5 -22t-36.5 -5z" />
    <glyph glyph-name="caron.alt" horiz-adv-x="500" 
d="M208 688q1 19 12.5 31.5t31.5 12.5h18q14 0 22.5 -7.5t8.5 -21.5q0 -11 -4 -23l-37 -121q-4 -12 -10.5 -18.5t-18.5 -6.5t-19.5 8t-6.5 22z" />
    <glyph glyph-name="grave" unicode="`" horiz-adv-x="500" 
d="M293 590q-21 0 -37 5t-33 22l-68 64q-17 15 -17 30q0 7 6.5 14t17 12.5t23.5 9t25 3.5q30 0 48 -29l57 -88q3 -5 6 -11t3 -11q0 -10 -8.5 -15.5t-22.5 -5.5z" />
    <glyph glyph-name="circumflex" unicode="&#x2c6;" horiz-adv-x="500" 
d="M197 617q-20 -17 -36.5 -22t-37.5 -5q-11 0 -19 5t-8 15q0 5 3.5 11.5t8.5 12.5l66 83q11 14 24 21.5t34 7.5h36q21 0 34 -7.5t24 -21.5l66 -83q5 -6 8.5 -12.5t3.5 -11.5q0 -10 -8.5 -15t-20.5 -5q-21 0 -37.5 5t-36.5 22l-52 45z" />
    <glyph glyph-name="caron" unicode="&#x2c7;" horiz-adv-x="500" 
d="M303 720q20 17 36.5 22t37.5 5q12 0 19.5 -5t7.5 -15q0 -6 -3.5 -12t-8.5 -12l-66 -83q-11 -14 -24 -21.5t-34 -7.5h-36q-21 0 -34 7.5t-24 21.5l-66 83q-5 6 -8.5 12t-3.5 12q0 10 8.5 15t20.5 5q21 0 37.5 -5t36.5 -22l52 -45z" />
    <glyph glyph-name="breve" unicode="&#x2d8;" horiz-adv-x="500" 
d="M250 593q-53 0 -92 21t-61 59q-8 16 -8 31q0 18 12 30.5t30 12.5q16 0 24.5 -7t13.5 -16q11 -20 30 -33t51 -13t51 13t30 33q5 9 13.5 16t24.5 7q18 0 30 -12.5t12 -30.5q0 -15 -8 -31q-22 -38 -60.5 -59t-92.5 -21z" />
    <glyph glyph-name="tilde" unicode="&#x2dc;" horiz-adv-x="500" 
d="M137 603q-5 -8 -13 -14t-20 -6q-15 0 -26 10t-11 23q0 5 1 11.5t3 11.5q16 44 39 67.5t63 23.5q21 0 41 -6.5t38.5 -14t34.5 -13.5t30 -6q17 0 27 7.5t19 24.5q5 8 13.5 14t19.5 6q15 0 26 -10t11 -23q0 -5 -1 -11.5t-3 -11.5q-16 -44 -39 -67.5t-63 -23.5q-21 0 -41 6
t-38.5 13.5t-35 14t-29.5 6.5q-17 0 -27 -7.5t-19 -24.5z" />
    <glyph glyph-name="macron" unicode="&#xaf;" horiz-adv-x="500" 
d="M117 606q-18 0 -31 13t-13 31t13 31t31 13h266q18 0 31 -13t13 -31t-13 -31t-31 -13h-266z" />
    <glyph glyph-name="dieresis" unicode="&#xa8;" horiz-adv-x="500" 
d="M350 720q27 0 46 -17.5t19 -44.5v-7q0 -27 -19 -44t-46 -17q-28 0 -47 17t-19 44v7q0 27 19 44.5t47 17.5zM151 720q27 0 46 -17.5t19 -44.5v-7q0 -27 -19 -44t-46 -17q-28 0 -47 17t-19 44v7q0 27 19 44.5t47 17.5z" />
    <glyph glyph-name="dotaccent" unicode="&#x2d9;" horiz-adv-x="500" 
d="M318 651q0 -28 -20 -44.5t-48 -16.5t-47.5 16.5t-19.5 44.5v7q0 28 19.5 45t47.5 17t48 -17t20 -45v-7z" />
    <glyph glyph-name="ring" unicode="&#x2da;" horiz-adv-x="500" 
d="M250 593q-23 0 -43.5 8.5t-36 23.5t-25 35t-9.5 42v2q0 22 9.5 42t25 35t36 23.5t43.5 8.5q22 0 43 -8.5t36.5 -23.5t25 -35t9.5 -42v-2q0 -22 -9.5 -42t-25 -35t-36.5 -23.5t-43 -8.5zM250 641q26 0 44 18t18 43v2q0 25 -18 43t-44 18t-44 -18t-18 -43v-2q0 -25 18 -43
t44 -18z" />
    <glyph glyph-name="asciicircum" unicode="^" horiz-adv-x="500" 
d="M177 532q-20 -26 -35 -35t-37 -9q-12 0 -20 5.5t-8 14.5q0 13 12 30l95 130q12 17 26 26.5t35 9.5h9q21 0 35 -9.5t27 -26.5l95 -130q11 -17 11 -30q0 -9 -8 -14.5t-20 -5.5q-23 0 -38 9t-35 35l-72 93z" />
    <glyph glyph-name="asciitilde" unicode="~" horiz-adv-x="495" 
d="M134 247q-5 -8 -13 -14t-19 -6q-15 0 -26 10t-11 24q0 4 1 10.5t3 11.5q16 44 38.5 67.5t63.5 23.5q21 0 41 -6t38 -13.5t34.5 -13.5t29.5 -6q18 0 28 7t19 24q5 8 13 14.5t19 6.5q15 0 26 -10.5t11 -23.5q0 -5 -1 -11.5t-3 -11.5q-16 -44 -38.5 -67.5t-63.5 -23.5
q-21 0 -41 6t-38 13.5t-34.5 14t-29.5 6.5q-18 0 -28 -7.5t-19 -24.5z" />
    <glyph glyph-name="commaaccent" unicode="&#x326;" horiz-adv-x="500" 
d="M242 -166q-23 4 -38.5 17t-15.5 36v2q0 23 17 38t44 15q29 0 46.5 -19t17.5 -51v-3q0 -38 -10.5 -63.5t-32.5 -44.5q-17 -15 -41 -24t-45 -9q-14 0 -20 6.5t-6 14.5q0 16 21 21q65 14 63 64z" />
    <glyph glyph-name="cedilla" unicode="&#xb8;" horiz-adv-x="500" 
d="M251 -131q-6 -14 -14.5 -21.5t-24.5 -7.5q-9 0 -21 4t-23 10t-18.5 14t-7.5 16q0 12 8 23l71 103h91z" />
    <glyph glyph-name="ogonek" unicode="&#x2db;" horiz-adv-x="500" 
d="M182 -82q0 26 14 48.5t38 45.5l81 -5q-23 -21 -32 -37.5t-9 -32.5q0 -18 11.5 -27t32.5 -14q33 -8 33 -31q0 -31 -40 -31q-24 0 -47 4.5t-41.5 15t-29.5 26t-11 38.5z" />
    <glyph glyph-name="fraction" unicode="&#x2044;" horiz-adv-x="459" 
d="M-40 -57q0 13 7 27l419 768q13 25 43 25q20 0 34 -13t14 -33q0 -13 -7 -27l-419 -768q-13 -25 -43 -25q-20 0 -34 13t-14 33z" />
    <glyph glyph-name="perthousand" unicode="&#x2030;" horiz-adv-x="1228" 
d="M212 350q-37 0 -67 14t-51.5 38.5t-33.5 56.5t-12 68v2q0 37 12 69.5t34 57t52.5 38.5t67.5 14t67.5 -14t52 -38.5t33 -56.5t11.5 -68v-2q0 -36 -12 -68.5t-33.5 -57t-52.5 -39t-68 -14.5zM154 34q0 8 2.5 14.5t6.5 11.5l459 627q5 9 14 13.5t20 4.5q17 0 28.5 -11
t11.5 -28q0 -8 -2.5 -14.5t-6.5 -11.5l-459 -627q-12 -18 -35 -18q-17 0 -28 11t-11 28zM1014 -8q-37 0 -67 14t-51.5 38.5t-33.5 56.5t-12 68v2q0 37 12 69.5t34 57t52.5 38.5t67.5 14t67 -14t51.5 -38.5t33.5 -56.5t12 -68v-2q0 -36 -12 -68.5t-34 -57t-52.5 -39
t-67.5 -14.5zM635 -8q-37 0 -67 14t-51.5 38.5t-33.5 56.5t-12 68v2q0 37 12 69.5t34 57t52.5 38.5t67.5 14t67 -14t51.5 -38.5t33.5 -56.5t12 -68v-2q0 -36 -12 -68.5t-34 -57t-52.5 -39t-67.5 -14.5zM214 427q35 0 55 29.5t20 70.5v2q0 42 -21.5 72t-55.5 30
q-35 0 -55 -29.5t-20 -70.5v-2q0 -43 21.5 -72.5t55.5 -29.5zM1016 69q35 0 55 29.5t20 70.5v2q0 42 -21.5 72t-55.5 30q-35 0 -55 -29.5t-20 -70.5v-2q0 -43 21.5 -72.5t55.5 -29.5zM637 69q35 0 55 29.5t20 70.5v2q0 42 -21.5 72t-55.5 30q-35 0 -55 -29.5t-20 -70.5v-2
q0 -43 21.5 -72.5t55.5 -29.5z" />
    <glyph glyph-name="Ohorn" unicode="&#x1a0;" horiz-adv-x="850" 
d="M691 605q48 -49 74 -114t26 -139v-2q0 -74 -27 -139.5t-76 -115t-116 -78.5t-148 -29t-148 28.5t-115 77.5t-75 114.5t-27 139.5v2q0 74 27 139.5t76 115t116 78.5t148 29q62 0 115 -16.5t97 -46.5q14 24 13 52q-22 6 -39.5 23.5t-17.5 44.5v8q0 29 18.5 48t49.5 19
q34 0 53 -23.5t19 -64.5v-11q0 -48 -11.5 -82t-31.5 -58zM662 350q0 51 -17.5 96.5t-49 79t-75.5 53.5t-96 20t-95.5 -19.5t-74.5 -53t-48.5 -78.5t-17.5 -96v-2q0 -51 17.5 -96t49 -79t75.5 -53.5t96 -19.5t95.5 19.5t74.5 52.5t48.5 78t17.5 96v2z" />
    <glyph glyph-name="ohorn" unicode="&#x1a1;" horiz-adv-x="657" 
d="M545 443q31 -36 48 -81.5t17 -96.5v-2q0 -56 -21.5 -106t-59 -87.5t-89.5 -59.5t-113 -22q-60 0 -111.5 21.5t-89 58.5t-58.5 87t-21 106v2q0 57 21.5 107t59 87.5t89 59.5t112.5 22q48 0 89.5 -13.5t76.5 -37.5q18 25 17 58q-22 6 -39.5 23.5t-17.5 44.5v8q0 29 18.5 48
t49.5 19q34 0 53 -23.5t19 -64.5v-11q0 -51 -13 -86.5t-36 -59.5q0 -1 -1 -1zM489 263q0 35 -12 66t-33.5 54t-51 36.5t-65.5 13.5t-65.5 -13.5t-50.5 -36t-32 -53.5t-11 -65v-2q0 -35 12 -65.5t33.5 -53.5t51 -36.5t64.5 -13.5q37 0 66.5 13.5t50.5 36t32 53t11 64.5v2z
" />
    <glyph glyph-name="Uhorn" unicode="&#x1af;" horiz-adv-x="757" 
d="M714 849q34 0 53 -23.5t19 -64.5v-11q0 -51 -13 -86.5t-36 -59.5q-27 -25 -59 -36v-265q0 -78 -21.5 -137t-60.5 -98.5t-94.5 -59t-124.5 -19.5q-68 0 -123 19.5t-94 58.5t-60 96.5t-21 133.5v347q0 26 18 43.5t44 17.5t43.5 -17.5t17.5 -43.5v-342q0 -98 47 -148.5
t130 -50.5q82 0 129 48.5t47 145.5v347q0 26 18 43.5t44 17.5t43.5 -17.5t17.5 -43.5v-4q27 25 25 66q-22 6 -39.5 23.5t-17.5 44.5v8q0 29 18.5 48t49.5 19z" />
    <glyph glyph-name="uhorn" unicode="&#x1b0;" horiz-adv-x="620" 
d="M585 681q34 0 53 -23.5t19 -64.5v-11q0 -51 -13 -86.5t-36 -59.5q-29 -27 -63 -38v-343q0 -25 -17.5 -42.5t-43.5 -17.5q-25 0 -43 17t-18 43v27q-26 -38 -65 -65.5t-100 -27.5q-90 0 -139 55t-49 148v281q0 26 17.5 43.5t42.5 17.5q26 0 43.5 -17.5t17.5 -43.5v-245
q0 -62 29.5 -95t83.5 -33q53 0 86 34t33 96v243q0 26 17.5 43.5t43.5 17.5q25 0 43 -17.5t18 -43.5v-5q31 26 29 70q-22 6 -39.5 23.5t-17.5 44.5v8q0 29 18.5 48t49.5 19z" />
    <glyph glyph-name="uni1EA0" unicode="&#x1ea0;" horiz-adv-x="773" 
d="M316 -110q0 29 20 49t51 20q30 0 50 -20t20 -49v-10q0 -29 -20 -49t-50 -20q-31 0 -51 20t-20 49v10zM42 52q0 12 8 28l260 580q11 23 29.5 36.5t44.5 13.5h6q26 0 44 -13.5t29 -36.5l260 -580q7 -13 7 -26q0 -25 -16.5 -42t-41.5 -17q-22 0 -37 11.5t-23 31.5l-57 131
h-340l-59 -135q-16 -39 -57 -39q-24 0 -40.5 16.5t-16.5 40.5zM508 278l-123 283l-123 -283h246z" />
    <glyph glyph-name="uni1EA1" unicode="&#x1ea1;" 
d="M210 -121q0 29 20 49t51 20q30 0 50 -20t20 -49v-10q0 -29 -20 -49t-50 -20q-31 0 -51 20t-20 49v10zM228 -11q-37 0 -71 10.5t-59.5 31t-41 51t-15.5 70.5v2q0 43 16 75t44.5 53t69 31.5t88.5 10.5q45 0 78 -6t64 -16v13q0 57 -33.5 86t-97.5 29q-35 0 -63.5 -5.5
t-53.5 -15.5q-11 -3 -19 -3q-21 0 -36 14.5t-15 35.5q0 17 9.5 30t23.5 18q38 14 78 22.5t92 8.5q118 0 175 -59q29 -29 43 -70t14 -93v-260q0 -25 -17 -41.5t-42 -16.5q-26 0 -42.5 15.5t-16.5 35.5v20q-27 -32 -69 -54.5t-103 -22.5zM262 77q30 0 56 8t44.5 23t29.5 36
t11 46v36q-23 9 -53.5 15t-66.5 6q-59 0 -91.5 -23t-32.5 -65v-2q0 -38 29.5 -59t73.5 -21z" />
    <glyph glyph-name="uni1EA2" unicode="&#x1ea2;" horiz-adv-x="773" 
d="M463 941q30 -26 27 -63q-4 -51 -64 -69q-5 -1 -11 -3l-3 -33q-2 -11 -8 -16q-6 -4 -14 -6q-3 -1 -7 -1q-6 0 -9 1q-9 3 -15 9q-2 2 -2 4.5t-1 7.5v14v17q0 5 0.5 9t0.5 7q2 17 14 28q4 4 7 6q2 1 4 1.5t4 2.5q1 1 2 1l15 6q20 8 24 13t4 6q1 5 0 6.5t-2 3.5h-1
q-6 6 -12 9t-12 3q-2 1 -4.5 0.5t-4.5 -0.5q-3 0 -7 -2q-3 -2 -6 -3.5t-6 -3.5q-2 -2 -5 -3.5t-6 -3.5h-1q-9 -6 -18 -6q-11 0 -18 10q-17 22 3 42q19 16 39 24q20 6 40 4q29 -3 53 -22zM42 52q0 12 8 28l260 580q11 23 29.5 36.5t44.5 13.5h6q26 0 44 -13.5t29 -36.5
l260 -580q7 -13 7 -26q0 -25 -16.5 -42t-41.5 -17q-22 0 -37 11.5t-23 31.5l-57 131h-340l-59 -135q-16 -39 -57 -39q-24 0 -40.5 16.5t-16.5 40.5zM508 278l-123 283l-123 -283h246z" />
    <glyph glyph-name="uni1EA3" unicode="&#x1ea3;" 
d="M367 772q30 -26 27 -63q-4 -51 -64 -69q-5 -1 -11 -3l-3 -33q-2 -11 -8 -16q-6 -4 -14 -6q-3 -1 -7 -1q-6 0 -9 1q-9 3 -15 9q-2 2 -2 4.5t-1 7.5v14v17q0 5 0.5 9t0.5 7q2 17 14 28q4 4 7 6q2 1 4 1.5t4 2.5q1 1 2 1l15 6q20 8 24 13t4 6q1 5 0 6.5t-2 3.5h-1
q-6 6 -12 9t-12 3q-2 1 -4.5 0.5t-4.5 -0.5q-3 0 -7 -2q-3 -2 -6 -3.5t-6 -3.5q-2 -2 -5 -3.5t-6 -3.5h-1q-9 -6 -18 -6q-11 0 -18 10q-17 22 3 42q19 16 39 24q20 6 40 4q29 -3 53 -22zM228 -11q-37 0 -71 10.5t-59.5 31t-41 51t-15.5 70.5v2q0 43 16 75t44.5 53t69 31.5
t88.5 10.5q45 0 78 -6t64 -16v13q0 57 -33.5 86t-97.5 29q-35 0 -63.5 -5.5t-53.5 -15.5q-11 -3 -19 -3q-21 0 -36 14.5t-15 35.5q0 17 9.5 30t23.5 18q38 14 78 22.5t92 8.5q118 0 175 -59q29 -29 43 -70t14 -93v-260q0 -25 -17 -41.5t-42 -16.5q-26 0 -42.5 15.5
t-16.5 35.5v20q-27 -32 -69 -54.5t-103 -22.5zM262 77q30 0 56 8t44.5 23t29.5 36t11 46v36q-23 9 -53.5 15t-66.5 6q-59 0 -91.5 -23t-32.5 -65v-2q0 -38 29.5 -59t73.5 -21z" />
    <glyph glyph-name="uni1EA4" unicode="&#x1ea4;" horiz-adv-x="773" 
d="M42 52q0 12 8 28l260 580q11 23 29.5 36.5t44.5 13.5h6q26 0 44 -13.5t29 -36.5l260 -580q7 -13 7 -26q0 -25 -16.5 -42t-41.5 -17q-22 0 -37 11.5t-23 31.5l-57 131h-340l-59 -135q-16 -39 -57 -39q-24 0 -40.5 16.5t-16.5 40.5zM508 278l-123 283l-123 -283h246z
M332 790q-20 -17 -36.5 -22t-37.5 -5q-11 0 -19 5t-8 15q0 5 3.5 11.5t8.5 12.5l66 83q11 14 24 21.5t34 7.5h36q21 0 34 -7.5t24 -21.5l66 -83q5 -6 8.5 -12.5t3.5 -11.5q0 -10 -8.5 -15t-20.5 -5q-21 0 -37.5 5t-36.5 22l-52 45zM499 900q-13 0 -21.5 5.5t-8.5 15.5
q0 5 2.5 11t5.5 11l57 88q18 29 48 29q12 0 24.5 -3.5t23 -9t17.5 -12.5t7 -14q0 -15 -17 -30l-67 -64q-18 -17 -34 -22t-37 -5z" />
    <glyph glyph-name="uni1EA5" unicode="&#x1ea5;" 
d="M228 -11q-37 0 -71 10.5t-59.5 31t-41 51t-15.5 70.5v2q0 43 16 75t44.5 53t69 31.5t88.5 10.5q45 0 78 -6t64 -16v13q0 57 -33.5 86t-97.5 29q-35 0 -63.5 -5.5t-53.5 -15.5q-11 -3 -19 -3q-21 0 -36 14.5t-15 35.5q0 17 9.5 30t23.5 18q38 14 78 22.5t92 8.5
q118 0 175 -59q29 -29 43 -70t14 -93v-260q0 -25 -17 -41.5t-42 -16.5q-26 0 -42.5 15.5t-16.5 35.5v20q-27 -32 -69 -54.5t-103 -22.5zM262 77q30 0 56 8t44.5 23t29.5 36t11 46v36q-23 9 -53.5 15t-66.5 6q-59 0 -91.5 -23t-32.5 -65v-2q0 -38 29.5 -59t73.5 -21zM241 617
q-20 -17 -36.5 -22t-37.5 -5q-11 0 -19 5t-8 15q0 5 3.5 11.5t8.5 12.5l66 83q11 14 24 21.5t34 7.5h36q21 0 34 -7.5t24 -21.5l66 -83q5 -6 8.5 -12.5t3.5 -11.5q0 -10 -8.5 -15t-20.5 -5q-21 0 -37.5 5t-36.5 22l-52 45zM414 725q-13 0 -21.5 5.5t-8.5 15.5q0 5 2.5 11
t5.5 11l57 88q18 29 48 29q12 0 24.5 -3.5t23 -9t17.5 -12.5t7 -14q0 -15 -17 -30l-67 -64q-18 -17 -34 -22t-37 -5z" />
    <glyph glyph-name="uni1EA6" unicode="&#x1ea6;" horiz-adv-x="773" 
d="M42 52q0 12 8 28l260 580q11 23 29.5 36.5t44.5 13.5h6q26 0 44 -13.5t29 -36.5l260 -580q7 -13 7 -26q0 -25 -16.5 -42t-41.5 -17q-22 0 -37 11.5t-23 31.5l-57 131h-340l-59 -135q-16 -39 -57 -39q-24 0 -40.5 16.5t-16.5 40.5zM508 278l-123 283l-123 -283h246z
M332 790q-20 -17 -36.5 -22t-37.5 -5q-11 0 -19 5t-8 15q0 5 3.5 11.5t8.5 12.5l66 83q11 14 24 21.5t34 7.5h36q21 0 34 -7.5t24 -21.5l66 -83q5 -6 8.5 -12.5t3.5 -11.5q0 -10 -8.5 -15t-20.5 -5q-21 0 -37.5 5t-36.5 22l-52 45zM540 890q-21 0 -37 5t-33 22l-68 64
q-17 15 -17 30q0 7 6.5 14t17 12.5t23.5 9t25 3.5q30 0 48 -29l57 -88q3 -5 6 -11t3 -11q0 -10 -8.5 -15.5t-22.5 -5.5z" />
    <glyph glyph-name="uni1EA7" unicode="&#x1ea7;" 
d="M228 -11q-37 0 -71 10.5t-59.5 31t-41 51t-15.5 70.5v2q0 43 16 75t44.5 53t69 31.5t88.5 10.5q45 0 78 -6t64 -16v13q0 57 -33.5 86t-97.5 29q-35 0 -63.5 -5.5t-53.5 -15.5q-11 -3 -19 -3q-21 0 -36 14.5t-15 35.5q0 17 9.5 30t23.5 18q38 14 78 22.5t92 8.5
q118 0 175 -59q29 -29 43 -70t14 -93v-260q0 -25 -17 -41.5t-42 -16.5q-26 0 -42.5 15.5t-16.5 35.5v20q-27 -32 -69 -54.5t-103 -22.5zM262 77q30 0 56 8t44.5 23t29.5 36t11 46v36q-23 9 -53.5 15t-66.5 6q-59 0 -91.5 -23t-32.5 -65v-2q0 -38 29.5 -59t73.5 -21zM241 617
q-20 -17 -36.5 -22t-37.5 -5q-11 0 -19 5t-8 15q0 5 3.5 11.5t8.5 12.5l66 83q11 14 24 21.5t34 7.5h36q21 0 34 -7.5t24 -21.5l66 -83q5 -6 8.5 -12.5t3.5 -11.5q0 -10 -8.5 -15t-20.5 -5q-21 0 -37.5 5t-36.5 22l-52 45zM450 718q-21 0 -37 5t-33 22l-68 64q-17 15 -17 30
q0 7 6.5 14t17 12.5t23.5 9t25 3.5q30 0 48 -29l57 -88q3 -5 6 -11t3 -11q0 -10 -8.5 -15.5t-22.5 -5.5z" />
    <glyph glyph-name="uni1EA8" unicode="&#x1ea8;" horiz-adv-x="773" 
d="M579 1092q30 -26 27 -63q-4 -51 -64 -69q-5 -1 -11 -3l-3 -33q-2 -11 -8 -16q-6 -4 -14 -6q-3 -1 -7 -1q-6 0 -9 1q-9 3 -15 9q-2 2 -2 4.5t-1 7.5v14v17q0 5 0.5 9t0.5 7q2 17 14 28q4 4 7 6q2 1 4 1.5t4 2.5q1 1 2 1l15 6q20 8 24 13t4 6q1 5 0 6.5t-2 3.5h-1
q-6 6 -12 9t-12 3q-2 1 -4.5 0.5t-4.5 -0.5q-3 0 -7 -2q-3 -2 -6 -3.5t-6 -3.5q-2 -2 -5 -3.5t-6 -3.5h-1q-9 -6 -18 -6q-11 0 -18 10q-17 22 3 42q19 16 39 24q20 6 40 4q29 -3 53 -22zM42 52q0 12 8 28l260 580q11 23 29.5 36.5t44.5 13.5h6q26 0 44 -13.5t29 -36.5
l260 -580q7 -13 7 -26q0 -25 -16.5 -42t-41.5 -17q-22 0 -37 11.5t-23 31.5l-57 131h-340l-59 -135q-16 -39 -57 -39q-24 0 -40.5 16.5t-16.5 40.5zM508 278l-123 283l-123 -283h246zM332 790q-20 -17 -36.5 -22t-37.5 -5q-11 0 -19 5t-8 15q0 5 3.5 11.5t8.5 12.5l66 83
q11 14 24 21.5t34 7.5h36q21 0 34 -7.5t24 -21.5l66 -83q5 -6 8.5 -12.5t3.5 -11.5q0 -10 -8.5 -15t-20.5 -5q-21 0 -37.5 5t-36.5 22l-52 45z" />
    <glyph glyph-name="uni1EA9" unicode="&#x1ea9;" 
d="M493 921q30 -26 27 -63q-4 -51 -64 -69q-5 -1 -11 -3l-3 -33q-2 -11 -8 -16q-6 -4 -14 -6q-3 -1 -7 -1q-6 0 -9 1q-9 3 -15 9q-2 2 -2 4.5t-1 7.5v14v17q0 5 0.5 9t0.5 7q2 17 14 28q4 4 7 6q2 1 4 1.5t4 2.5q1 1 2 1l15 6q20 8 24 13t4 6q1 5 0 6.5t-2 3.5h-1
q-6 6 -12 9t-12 3q-2 1 -4.5 0.5t-4.5 -0.5q-3 0 -7 -2q-3 -2 -6 -3.5t-6 -3.5q-2 -2 -5 -3.5t-6 -3.5h-1q-9 -6 -18 -6q-11 0 -18 10q-17 22 3 42q19 16 39 24q20 6 40 4q29 -3 53 -22zM228 -11q-37 0 -71 10.5t-59.5 31t-41 51t-15.5 70.5v2q0 43 16 75t44.5 53t69 31.5
t88.5 10.5q45 0 78 -6t64 -16v13q0 57 -33.5 86t-97.5 29q-35 0 -63.5 -5.5t-53.5 -15.5q-11 -3 -19 -3q-21 0 -36 14.5t-15 35.5q0 17 9.5 30t23.5 18q38 14 78 22.5t92 8.5q118 0 175 -59q29 -29 43 -70t14 -93v-260q0 -25 -17 -41.5t-42 -16.5q-26 0 -42.5 15.5
t-16.5 35.5v20q-27 -32 -69 -54.5t-103 -22.5zM262 77q30 0 56 8t44.5 23t29.5 36t11 46v36q-23 9 -53.5 15t-66.5 6q-59 0 -91.5 -23t-32.5 -65v-2q0 -38 29.5 -59t73.5 -21zM241 617q-20 -17 -36.5 -22t-37.5 -5q-11 0 -19 5t-8 15q0 5 3.5 11.5t8.5 12.5l66 83
q11 14 24 21.5t34 7.5h36q21 0 34 -7.5t24 -21.5l66 -83q5 -6 8.5 -12.5t3.5 -11.5q0 -10 -8.5 -15t-20.5 -5q-21 0 -37.5 5t-36.5 22l-52 45z" />
    <glyph glyph-name="uni1EAA" unicode="&#x1eaa;" horiz-adv-x="773" 
d="M42 52q0 12 8 28l260 580q11 23 29.5 36.5t44.5 13.5h6q26 0 44 -13.5t29 -36.5l260 -580q7 -13 7 -26q0 -25 -16.5 -42t-41.5 -17q-22 0 -37 11.5t-23 31.5l-57 131h-340l-59 -135q-16 -39 -57 -39q-24 0 -40.5 16.5t-16.5 40.5zM508 278l-123 283l-123 -283h246z
M332 790q-20 -17 -36.5 -22t-37.5 -5q-11 0 -19 5t-8 15q0 5 3.5 11.5t8.5 12.5l66 83q11 14 24 21.5t34 7.5h36q21 0 34 -7.5t24 -21.5l66 -83q5 -6 8.5 -12.5t3.5 -11.5q0 -10 -8.5 -15t-20.5 -5q-21 0 -37.5 5t-36.5 22l-52 45zM273 960q-5 -8 -13 -14t-20 -6
q-15 0 -26 10t-11 23q0 5 1 11.5t3 11.5q16 44 39 67.5t63 23.5q21 0 41 -6.5t38.5 -14t34.5 -13.5t30 -6q17 0 27 7.5t19 24.5q5 8 13.5 14t19.5 6q15 0 26 -10t11 -23q0 -5 -1 -11.5t-3 -11.5q-16 -44 -39 -67.5t-63 -23.5q-21 0 -41 6t-38.5 13.5t-35 14t-29.5 6.5
q-17 0 -27 -7.5t-19 -24.5z" />
    <glyph glyph-name="uni1EAB" unicode="&#x1eab;" 
d="M228 -11q-37 0 -71 10.5t-59.5 31t-41 51t-15.5 70.5v2q0 43 16 75t44.5 53t69 31.5t88.5 10.5q45 0 78 -6t64 -16v13q0 57 -33.5 86t-97.5 29q-35 0 -63.5 -5.5t-53.5 -15.5q-11 -3 -19 -3q-21 0 -36 14.5t-15 35.5q0 17 9.5 30t23.5 18q38 14 78 22.5t92 8.5
q118 0 175 -59q29 -29 43 -70t14 -93v-260q0 -25 -17 -41.5t-42 -16.5q-26 0 -42.5 15.5t-16.5 35.5v20q-27 -32 -69 -54.5t-103 -22.5zM262 77q30 0 56 8t44.5 23t29.5 36t11 46v36q-23 9 -53.5 15t-66.5 6q-59 0 -91.5 -23t-32.5 -65v-2q0 -38 29.5 -59t73.5 -21zM241 617
q-20 -17 -36.5 -22t-37.5 -5q-11 0 -19 5t-8 15q0 5 3.5 11.5t8.5 12.5l66 83q11 14 24 21.5t34 7.5h36q21 0 34 -7.5t24 -21.5l66 -83q5 -6 8.5 -12.5t3.5 -11.5q0 -10 -8.5 -15t-20.5 -5q-21 0 -37.5 5t-36.5 22l-52 45zM180 789q-5 -8 -13 -14t-20 -6q-15 0 -26 10
t-11 23q0 5 1 11.5t3 11.5q16 44 39 67.5t63 23.5q21 0 41 -6.5t38.5 -14t34.5 -13.5t30 -6q17 0 27 7.5t19 24.5q5 8 13.5 14t19.5 6q15 0 26 -10t11 -23q0 -5 -1 -11.5t-3 -11.5q-16 -44 -39 -67.5t-63 -23.5q-21 0 -41 6t-38.5 13.5t-35 14t-29.5 6.5q-17 0 -27 -7.5
t-19 -24.5z" />
    <glyph glyph-name="uni1EAC.001" horiz-adv-x="773" 
d="M333 617q-20 -17 -36.5 -22t-37.5 -5q-11 0 -19 5t-8 15q0 5 3.5 11.5t8.5 12.5l66 83q11 14 24 21.5t34 7.5h36q21 0 34 -7.5t24 -21.5l66 -83q5 -6 8.5 -12.5t3.5 -11.5q0 -10 -8.5 -15t-20.5 -5q-21 0 -37.5 5t-36.5 22l-52 45z" />
    <glyph glyph-name="uni1EAC" unicode="&#x1eac;" horiz-adv-x="773" 
d="M316 -110q0 29 20 49t51 20q30 0 50 -20t20 -49v-10q0 -29 -20 -49t-50 -20q-31 0 -51 20t-20 49v10zM42 52q0 12 8 28l260 580q11 23 29.5 36.5t44.5 13.5h6q26 0 44 -13.5t29 -36.5l260 -580q7 -13 7 -26q0 -25 -16.5 -42t-41.5 -17q-22 0 -37 11.5t-23 31.5l-57 131
h-340l-59 -135q-16 -39 -57 -39q-24 0 -40.5 16.5t-16.5 40.5zM508 278l-123 283l-123 -283h246zM332 790q-20 -17 -36.5 -22t-37.5 -5q-11 0 -19 5t-8 15q0 5 3.5 11.5t8.5 12.5l66 83q11 14 24 21.5t34 7.5h36q21 0 34 -7.5t24 -21.5l66 -83q5 -6 8.5 -12.5t3.5 -11.5
q0 -10 -8.5 -15t-20.5 -5q-21 0 -37.5 5t-36.5 22l-52 45z" />
    <glyph glyph-name="uni1EAD.001" 
d="M240 617q-20 -17 -36.5 -22t-37.5 -5q-11 0 -19 5t-8 15q0 5 3.5 11.5t8.5 12.5l66 83q11 14 24 21.5t34 7.5h36q21 0 34 -7.5t24 -21.5l66 -83q5 -6 8.5 -12.5t3.5 -11.5q0 -10 -8.5 -15t-20.5 -5q-21 0 -37.5 5t-36.5 22l-52 45z" />
    <glyph glyph-name="uni1EAD" unicode="&#x1ead;" 
d="M210 -121q0 29 20 49t51 20q30 0 50 -20t20 -49v-10q0 -29 -20 -49t-50 -20q-31 0 -51 20t-20 49v10zM228 -11q-37 0 -71 10.5t-59.5 31t-41 51t-15.5 70.5v2q0 43 16 75t44.5 53t69 31.5t88.5 10.5q45 0 78 -6t64 -16v13q0 57 -33.5 86t-97.5 29q-35 0 -63.5 -5.5
t-53.5 -15.5q-11 -3 -19 -3q-21 0 -36 14.5t-15 35.5q0 17 9.5 30t23.5 18q38 14 78 22.5t92 8.5q118 0 175 -59q29 -29 43 -70t14 -93v-260q0 -25 -17 -41.5t-42 -16.5q-26 0 -42.5 15.5t-16.5 35.5v20q-27 -32 -69 -54.5t-103 -22.5zM262 77q30 0 56 8t44.5 23t29.5 36
t11 46v36q-23 9 -53.5 15t-66.5 6q-59 0 -91.5 -23t-32.5 -65v-2q0 -38 29.5 -59t73.5 -21zM241 617q-20 -17 -36.5 -22t-37.5 -5q-11 0 -19 5t-8 15q0 5 3.5 11.5t8.5 12.5l66 83q11 14 24 21.5t34 7.5h36q21 0 34 -7.5t24 -21.5l66 -83q5 -6 8.5 -12.5t3.5 -11.5
q0 -10 -8.5 -15t-20.5 -5q-21 0 -37.5 5t-36.5 22l-52 45z" />
    <glyph glyph-name="uni1EAE" unicode="&#x1eae;" horiz-adv-x="773" 
d="M42 52q0 12 8 28l260 580q11 23 29.5 36.5t44.5 13.5h6q26 0 44 -13.5t29 -36.5l260 -580q7 -13 7 -26q0 -25 -16.5 -42t-41.5 -17q-22 0 -37 11.5t-23 31.5l-57 131h-340l-59 -135q-16 -39 -57 -39q-24 0 -40.5 16.5t-16.5 40.5zM508 278l-123 283l-123 -283h246z
M385 766q-53 0 -92 21t-61 59q-8 16 -8 31q0 18 12 30.5t30 12.5q16 0 24.5 -7t13.5 -16q11 -20 30 -33t51 -13t51 13t30 33q5 9 13.5 16t24.5 7q18 0 30 -12.5t12 -30.5q0 -15 -8 -31q-22 -38 -60.5 -59t-92.5 -21zM385 922q-13 0 -21.5 5.5t-8.5 15.5q0 5 2.5 11t5.5 11
l57 88q18 29 48 29q12 0 24.5 -3.5t23 -9t17.5 -12.5t7 -14q0 -15 -17 -30l-67 -64q-18 -17 -34 -22t-37 -5z" />
    <glyph glyph-name="uni1EAF" unicode="&#x1eaf;" 
d="M228 -11q-37 0 -71 10.5t-59.5 31t-41 51t-15.5 70.5v2q0 43 16 75t44.5 53t69 31.5t88.5 10.5q45 0 78 -6t64 -16v13q0 57 -33.5 86t-97.5 29q-35 0 -63.5 -5.5t-53.5 -15.5q-11 -3 -19 -3q-21 0 -36 14.5t-15 35.5q0 17 9.5 30t23.5 18q38 14 78 22.5t92 8.5
q118 0 175 -59q29 -29 43 -70t14 -93v-260q0 -25 -17 -41.5t-42 -16.5q-26 0 -42.5 15.5t-16.5 35.5v20q-27 -32 -69 -54.5t-103 -22.5zM262 77q30 0 56 8t44.5 23t29.5 36t11 46v36q-23 9 -53.5 15t-66.5 6q-59 0 -91.5 -23t-32.5 -65v-2q0 -38 29.5 -59t73.5 -21zM294 593
q-53 0 -92 21t-61 59q-8 16 -8 31q0 18 12 30.5t30 12.5q16 0 24.5 -7t13.5 -16q11 -20 30 -33t51 -13t51 13t30 33q5 9 13.5 16t24.5 7q18 0 30 -12.5t12 -30.5q0 -15 -8 -31q-22 -38 -60.5 -59t-92.5 -21zM279 745q-13 0 -21.5 5.5t-8.5 15.5q0 5 2.5 11t5.5 11l57 88
q18 29 48 29q12 0 24.5 -3.5t23 -9t17.5 -12.5t7 -14q0 -15 -17 -30l-67 -64q-18 -17 -34 -22t-37 -5z" />
    <glyph glyph-name="uni1EB0" unicode="&#x1eb0;" horiz-adv-x="773" 
d="M42 52q0 12 8 28l260 580q11 23 29.5 36.5t44.5 13.5h6q26 0 44 -13.5t29 -36.5l260 -580q7 -13 7 -26q0 -25 -16.5 -42t-41.5 -17q-22 0 -37 11.5t-23 31.5l-57 131h-340l-59 -135q-16 -39 -57 -39q-24 0 -40.5 16.5t-16.5 40.5zM508 278l-123 283l-123 -283h246z
M385 766q-53 0 -92 21t-61 59q-8 16 -8 31q0 18 12 30.5t30 12.5q16 0 24.5 -7t13.5 -16q11 -20 30 -33t51 -13t51 13t30 33q5 9 13.5 16t24.5 7q18 0 30 -12.5t12 -30.5q0 -15 -8 -31q-22 -38 -60.5 -59t-92.5 -21zM407 913q-21 0 -37 5t-33 22l-68 64q-17 15 -17 30
q0 7 6.5 14t17 12.5t23.5 9t25 3.5q30 0 48 -29l57 -88q3 -5 6 -11t3 -11q0 -10 -8.5 -15.5t-22.5 -5.5z" />
    <glyph glyph-name="uni1EB1" unicode="&#x1eb1;" 
d="M228 -11q-37 0 -71 10.5t-59.5 31t-41 51t-15.5 70.5v2q0 43 16 75t44.5 53t69 31.5t88.5 10.5q45 0 78 -6t64 -16v13q0 57 -33.5 86t-97.5 29q-35 0 -63.5 -5.5t-53.5 -15.5q-11 -3 -19 -3q-21 0 -36 14.5t-15 35.5q0 17 9.5 30t23.5 18q38 14 78 22.5t92 8.5
q118 0 175 -59q29 -29 43 -70t14 -93v-260q0 -25 -17 -41.5t-42 -16.5q-26 0 -42.5 15.5t-16.5 35.5v20q-27 -32 -69 -54.5t-103 -22.5zM262 77q30 0 56 8t44.5 23t29.5 36t11 46v36q-23 9 -53.5 15t-66.5 6q-59 0 -91.5 -23t-32.5 -65v-2q0 -38 29.5 -59t73.5 -21zM294 593
q-53 0 -92 21t-61 59q-8 16 -8 31q0 18 12 30.5t30 12.5q16 0 24.5 -7t13.5 -16q11 -20 30 -33t51 -13t51 13t30 33q5 9 13.5 16t24.5 7q18 0 30 -12.5t12 -30.5q0 -15 -8 -31q-22 -38 -60.5 -59t-92.5 -21zM319 734q-21 0 -37 5t-33 22l-68 64q-17 15 -17 30q0 7 6.5 14
t17 12.5t23.5 9t25 3.5q30 0 48 -29l57 -88q3 -5 6 -11t3 -11q0 -10 -8.5 -15.5t-22.5 -5.5z" />
    <glyph glyph-name="uni1EB2" unicode="&#x1eb2;" horiz-adv-x="773" 
d="M483 1109q30 -26 27 -63q-4 -51 -64 -69q-5 -1 -11 -3l-3 -33q-2 -11 -8 -16q-6 -4 -14 -6q-3 -1 -7 -1q-6 0 -9 1q-9 3 -15 9q-2 2 -2 4.5t-1 7.5v14v17q0 5 0.5 9t0.5 7q2 17 14 28q4 4 7 6q2 1 4 1.5t4 2.5q1 1 2 1l15 6q20 8 24 13t4 6q1 5 0 6.5t-2 3.5h-1
q-6 6 -12 9t-12 3q-2 1 -4.5 0.5t-4.5 -0.5q-3 0 -7 -2q-3 -2 -6 -3.5t-6 -3.5q-2 -2 -5 -3.5t-6 -3.5h-1q-9 -6 -18 -6q-11 0 -18 10q-17 22 3 42q19 16 39 24q20 6 40 4q29 -3 53 -22zM42 52q0 12 8 28l260 580q11 23 29.5 36.5t44.5 13.5h6q26 0 44 -13.5t29 -36.5
l260 -580q7 -13 7 -26q0 -25 -16.5 -42t-41.5 -17q-22 0 -37 11.5t-23 31.5l-57 131h-340l-59 -135q-16 -39 -57 -39q-24 0 -40.5 16.5t-16.5 40.5zM508 278l-123 283l-123 -283h246zM385 766q-53 0 -92 21t-61 59q-8 16 -8 31q0 18 12 30.5t30 12.5q16 0 24.5 -7t13.5 -16
q11 -20 30 -33t51 -13t51 13t30 33q5 9 13.5 16t24.5 7q18 0 30 -12.5t12 -30.5q0 -15 -8 -31q-22 -38 -60.5 -59t-92.5 -21z" />
    <glyph glyph-name="uni1EB3" unicode="&#x1eb3;" 
d="M396 935q30 -26 27 -63q-4 -51 -64 -69q-5 -1 -11 -3l-3 -33q-2 -11 -8 -16q-6 -4 -14 -6q-3 -1 -7 -1q-6 0 -9 1q-9 3 -15 9q-2 2 -2 4.5t-1 7.5v14v17q0 5 0.5 9t0.5 7q2 17 14 28q4 4 7 6q2 1 4 1.5t4 2.5q1 1 2 1l15 6q20 8 24 13t4 6q1 5 0 6.5t-2 3.5h-1
q-6 6 -12 9t-12 3q-2 1 -4.5 0.5t-4.5 -0.5q-3 0 -7 -2q-3 -2 -6 -3.5t-6 -3.5q-2 -2 -5 -3.5t-6 -3.5h-1q-9 -6 -18 -6q-11 0 -18 10q-17 22 3 42q19 16 39 24q20 6 40 4q29 -3 53 -22zM228 -11q-37 0 -71 10.5t-59.5 31t-41 51t-15.5 70.5v2q0 43 16 75t44.5 53t69 31.5
t88.5 10.5q45 0 78 -6t64 -16v13q0 57 -33.5 86t-97.5 29q-35 0 -63.5 -5.5t-53.5 -15.5q-11 -3 -19 -3q-21 0 -36 14.5t-15 35.5q0 17 9.5 30t23.5 18q38 14 78 22.5t92 8.5q118 0 175 -59q29 -29 43 -70t14 -93v-260q0 -25 -17 -41.5t-42 -16.5q-26 0 -42.5 15.5
t-16.5 35.5v20q-27 -32 -69 -54.5t-103 -22.5zM262 77q30 0 56 8t44.5 23t29.5 36t11 46v36q-23 9 -53.5 15t-66.5 6q-59 0 -91.5 -23t-32.5 -65v-2q0 -38 29.5 -59t73.5 -21zM294 593q-53 0 -92 21t-61 59q-8 16 -8 31q0 18 12 30.5t30 12.5q16 0 24.5 -7t13.5 -16
q11 -20 30 -33t51 -13t51 13t30 33q5 9 13.5 16t24.5 7q18 0 30 -12.5t12 -30.5q0 -15 -8 -31q-22 -38 -60.5 -59t-92.5 -21z" />
    <glyph glyph-name="uni1EB4" unicode="&#x1eb4;" horiz-adv-x="773" 
d="M42 52q0 12 8 28l260 580q11 23 29.5 36.5t44.5 13.5h6q26 0 44 -13.5t29 -36.5l260 -580q7 -13 7 -26q0 -25 -16.5 -42t-41.5 -17q-22 0 -37 11.5t-23 31.5l-57 131h-340l-59 -135q-16 -39 -57 -39q-24 0 -40.5 16.5t-16.5 40.5zM508 278l-123 283l-123 -283h246z
M385 766q-53 0 -92 21t-61 59q-8 16 -8 31q0 18 12 30.5t30 12.5q16 0 24.5 -7t13.5 -16q11 -20 30 -33t51 -13t51 13t30 33q5 9 13.5 16t24.5 7q18 0 30 -12.5t12 -30.5q0 -15 -8 -31q-22 -38 -60.5 -59t-92.5 -21zM273 963q-5 -8 -13 -14t-20 -6q-15 0 -26 10t-11 23
q0 5 1 11.5t3 11.5q16 44 39 67.5t63 23.5q21 0 41 -6.5t38.5 -14t34.5 -13.5t30 -6q17 0 27 7.5t19 24.5q5 8 13.5 14t19.5 6q15 0 26 -10t11 -23q0 -5 -1 -11.5t-3 -11.5q-16 -44 -39 -67.5t-63 -23.5q-21 0 -41 6t-38.5 13.5t-35 14t-29.5 6.5q-17 0 -27 -7.5t-19 -24.5z
" />
    <glyph glyph-name="uni1EB5" unicode="&#x1eb5;" 
d="M228 -11q-37 0 -71 10.5t-59.5 31t-41 51t-15.5 70.5v2q0 43 16 75t44.5 53t69 31.5t88.5 10.5q45 0 78 -6t64 -16v13q0 57 -33.5 86t-97.5 29q-35 0 -63.5 -5.5t-53.5 -15.5q-11 -3 -19 -3q-21 0 -36 14.5t-15 35.5q0 17 9.5 30t23.5 18q38 14 78 22.5t92 8.5
q118 0 175 -59q29 -29 43 -70t14 -93v-260q0 -25 -17 -41.5t-42 -16.5q-26 0 -42.5 15.5t-16.5 35.5v20q-27 -32 -69 -54.5t-103 -22.5zM262 77q30 0 56 8t44.5 23t29.5 36t11 46v36q-23 9 -53.5 15t-66.5 6q-59 0 -91.5 -23t-32.5 -65v-2q0 -38 29.5 -59t73.5 -21zM294 593
q-53 0 -92 21t-61 59q-8 16 -8 31q0 18 12 30.5t30 12.5q16 0 24.5 -7t13.5 -16q11 -20 30 -33t51 -13t51 13t30 33q5 9 13.5 16t24.5 7q18 0 30 -12.5t12 -30.5q0 -15 -8 -31q-22 -38 -60.5 -59t-92.5 -21zM180 790q-5 -8 -13 -14t-20 -6q-15 0 -26 10t-11 23q0 5 1 11.5
t3 11.5q16 44 39 67.5t63 23.5q21 0 41 -6.5t38.5 -14t34.5 -13.5t30 -6q17 0 27 7.5t19 24.5q5 8 13.5 14t19.5 6q15 0 26 -10t11 -23q0 -5 -1 -11.5t-3 -11.5q-16 -44 -39 -67.5t-63 -23.5q-21 0 -41 6t-38.5 13.5t-35 14t-29.5 6.5q-17 0 -27 -7.5t-19 -24.5z" />
    <glyph glyph-name="uni1EB6.001" horiz-adv-x="773" 
d="M386 593q-53 0 -92 21t-61 59q-8 16 -8 31q0 18 12 30.5t30 12.5q16 0 24.5 -7t13.5 -16q11 -20 30 -33t51 -13t51 13t30 33q5 9 13.5 16t24.5 7q18 0 30 -12.5t12 -30.5q0 -15 -8 -31q-22 -38 -60.5 -59t-92.5 -21z" />
    </font>
</defs>
</svg>
