<?xml version="1.0" standalone="no"?>
<!DOCTYPE svg PUBLIC "-//W3C//DTD SVG 1.1//EN" "http://www.w3.org/Graphics/SVG/1.1/DTD/svg11.dtd" >
<svg xmlns="http://www.w3.org/2000/svg" xmlns:xlink="http://www.w3.org/1999/xlink" version="1.1">
<metadata>
Created by FontForge 20150715 at Mon Feb  1 09:14:57 2016
 By Jimmy Wärting
Copyright (c) 2014 by 0. All rights reserved.
</metadata>
<defs>
<font id="GothamRoundedBook" horiz-adv-x="579" >
  <font-face 
    font-family="Gotham Rounded Book"
    font-weight="400"
    font-stretch="normal"
    units-per-em="1000"
    panose-1="0 0 0 0 0 0 0 0 0 0"
    ascent="800"
    descent="-200"
    x-height="517"
    cap-height="705"
    bbox="-48 -243 1159 1084.9"
    underline-thickness="50"
    underline-position="-100"
    unicode-range="U+000D-FB04"
  />
<missing-glyph horiz-adv-x="500" 
d="M0 800h500v-1000h-500v1000zM250 360l179 390h-358zM222 300l-172 376v-752zM278 300l172 -376v752zM71 -150h358l-179 390z" />
    <glyph glyph-name=".notdef" horiz-adv-x="500" 
d="M0 800h500v-1000h-500v1000zM250 360l179 390h-358zM222 300l-172 376v-752zM278 300l172 -376v752zM71 -150h358l-179 390z" />
    <glyph glyph-name="NUL" horiz-adv-x="0" 
 />
    <glyph glyph-name="NUL" horiz-adv-x="0" 
 />
    <glyph glyph-name="nonmarkingreturn" unicode="&#xd;" horiz-adv-x="300" 
 />
    <glyph glyph-name="space" unicode=" " horiz-adv-x="300" 
 />
    <glyph glyph-name="D" unicode="D" horiz-adv-x="782" 
d="M99 660q0 17 11.5 28.5t27.5 11.5h204q82 0 150.5 -26.5t118 -73.5t76.5 -110.5t27 -137.5v-2q0 -74 -27 -138t-76.5 -111t-118 -74t-150.5 -27h-204q-16 0 -27.5 11.5t-11.5 28.5v620zM342 73q66 0 120 21t91.5 58t58 87.5t20.5 108.5v2q0 58 -20.5 108.5t-58 88
t-91.5 59t-120 21.5h-164v-554h164z" />
    <glyph glyph-name="E" unicode="E" horiz-adv-x="670" 
d="M138 0q-16 0 -27.5 11.5t-11.5 28.5v620q0 17 11.5 28.5t27.5 11.5h435q15 0 25.5 -10.5t10.5 -25.5t-10.5 -25.5t-25.5 -10.5h-395v-239h350q15 0 25.5 -11t10.5 -25q0 -15 -10.5 -25.5t-25.5 -10.5h-350v-245h400q15 0 25.5 -10.5t10.5 -25.5t-10.5 -25.5t-25.5 -10.5
h-440v0z" />
    <glyph glyph-name="F" unicode="F" horiz-adv-x="656" 
d="M99 660q0 17 11.5 28.5t27.5 11.5h433q15 0 25.5 -10.5t10.5 -25.5t-10.5 -26t-25.5 -11h-393v-250h348q15 0 25.5 -10.5t10.5 -25.5t-10.5 -25.5t-25.5 -10.5h-348v-270q0 -17 -11.5 -28.5t-28.5 -11.5q-16 0 -27.5 11.5t-11.5 28.5v625z" />
    <glyph glyph-name="G" unicode="G" horiz-adv-x="784" 
d="M424 -12q-83 0 -148.5 28t-112 77t-71 114.5t-24.5 140.5v2q0 72 25.5 137.5t71.5 115.5t110.5 79.5t143.5 29.5q80 0 135.5 -20t103.5 -55q7 -5 11.5 -13t4.5 -19q0 -17 -11.5 -28.5t-27.5 -11.5q-12 0 -25 10q-38 29 -83 46.5t-111 17.5q-58 0 -107 -23t-84 -62
t-55 -91.5t-20 -110.5v-2q0 -63 19.5 -116t55.5 -92t87 -61t115 -22q60 0 113 20.5t89 49.5v174h-188q-14 0 -24.5 10.5t-10.5 24.5q0 15 10.5 25.5t24.5 10.5h225q16 0 27.5 -11.5t11.5 -28.5v-213q0 -30 -27 -48q-48 -35 -112 -60t-142 -25z" />
    <glyph glyph-name="H" unicode="H" horiz-adv-x="760" 
d="M99 665q0 17 11.5 28.5t27.5 11.5q17 0 28.5 -11.5t11.5 -28.5v-276h404v276q0 17 11.5 28.5t28.5 11.5q16 0 27.5 -11.5t11.5 -28.5v-630q0 -17 -11.5 -28.5t-27.5 -11.5q-17 0 -28.5 11.5t-11.5 28.5v280h-404v-280q0 -17 -11.5 -28.5t-28.5 -11.5q-16 0 -27.5 11.5
t-11.5 28.5v630z" />
    <glyph glyph-name="I" unicode="I" horiz-adv-x="291" 
d="M106 665q0 17 11.5 28.5t27.5 11.5q17 0 28.5 -11.5t11.5 -28.5v-630q0 -17 -11.5 -28.5t-28.5 -11.5q-16 0 -27.5 11.5t-11.5 28.5v630z" />
    <glyph glyph-name="J" unicode="J" horiz-adv-x="553" 
d="M247 -10q-69 0 -117.5 28t-80.5 72q-11 11 -11 27t11.5 27.5t27.5 11.5q10 0 16.5 -4.5t11.5 -9.5q29 -39 62 -59t82 -20q59 0 98 42.5t39 125.5v434q0 17 11.5 28.5t28.5 11.5t28 -11.5t11 -28.5v-433q0 -62 -17 -108t-47 -76q-60 -58 -154 -58z" />
    <glyph glyph-name="K" unicode="K" horiz-adv-x="714" 
d="M99 665q0 17 11.5 28.5t27.5 11.5q17 0 28.5 -11.5t11.5 -28.5v-383l399 409q7 6 14 10t17 4q16 0 27 -12t11 -27t-13 -28l-248 -246l266 -328q5 -7 8 -13.5t3 -15.5q0 -16 -11.5 -28t-28.5 -12q-11 0 -19 5t-13 13l-261 325l-151 -151v-152q0 -17 -11.5 -28.5
t-28.5 -11.5q-16 0 -27.5 11.5t-11.5 28.5v630z" />
    <glyph glyph-name="L" unicode="L" horiz-adv-x="619" 
d="M99 665q0 17 11.5 28.5t27.5 11.5q17 0 28.5 -11.5t11.5 -28.5v-592h363q15 0 25.5 -11t10.5 -26t-10.5 -25.5t-25.5 -10.5h-403q-16 0 -27.5 11.5t-11.5 28.5v625z" />
    <glyph glyph-name="M" unicode="M" horiz-adv-x="868" 
d="M99 664q0 16 11.5 27.5t27.5 11.5h9q13 0 22 -6t15 -15l250 -376l250 376q13 21 37 21h9q16 0 27.5 -11.5t11.5 -27.5v-629q0 -17 -11.5 -28.5t-27.5 -11.5q-17 0 -28.5 12t-11.5 28v522l-224 -329q-14 -20 -33 -20q-20 0 -34 20l-223 328v-522q0 -17 -11 -28t-28 -11
q-16 0 -27 11t-11 28v630z" />
    <glyph glyph-name="N" unicode="N" horiz-adv-x="790" 
d="M99 664q0 16 11.5 27.5t27.5 11.5h11q14 0 23 -6t17 -17l425 -542v528q0 16 11 27.5t28 11.5q16 0 27 -11.5t11 -27.5v-632q0 -16 -10 -26.5t-26 -10.5h-4q-13 0 -22.5 6.5t-18.5 17.5l-434 555v-542q0 -16 -11 -27.5t-28 -11.5q-16 0 -27 11.5t-11 27.5v630z" />
    <glyph glyph-name="O" unicode="O" horiz-adv-x="850" 
d="M424 -12q-80 0 -145.5 29t-112.5 78.5t-72.5 115t-25.5 137.5v2q0 72 26 138t73 115.5t113 79t146 29.5t145.5 -29t112.5 -78.5t72.5 -115t25.5 -137.5v-2q0 -72 -26 -138t-73 -115.5t-113 -79t-146 -29.5zM426 61q60 0 110.5 22.5t86.5 61.5t56.5 91t20.5 112v2
q0 60 -20.5 112.5t-57.5 91.5t-87.5 62t-110.5 23t-110.5 -22.5t-86.5 -61.5t-56.5 -91t-20.5 -112v-2q0 -60 20.5 -112.5t57.5 -91.5t87.5 -62t110.5 -23z" />
    <glyph glyph-name="P" unicode="P" horiz-adv-x="668" 
d="M99 660q0 17 11.5 28.5t27.5 11.5h223q59 0 107.5 -15.5t83 -44t53 -69.5t18.5 -93v-2q0 -57 -22 -99.5t-59.5 -71.5t-87.5 -43.5t-106 -14.5h-170v-212q0 -17 -11.5 -28.5t-28.5 -11.5q-16 0 -27.5 11.5t-11.5 28.5v625zM351 319q43 0 78.5 11t61 31.5t39 48.5t13.5 63
v2q0 75 -51.5 113.5t-136.5 38.5h-177v-308h173z" />
    <glyph glyph-name="Q" unicode="Q" horiz-adv-x="850" 
d="M424 -12q-80 0 -145.5 29t-112.5 78.5t-72.5 115t-25.5 137.5v2q0 72 26 138t73 115.5t113 79t146 29.5t145.5 -29t112.5 -78.5t72.5 -115t25.5 -137.5v-2q0 -66 -21.5 -126t-61.5 -109l66 -55q16 -14 16 -33q0 -16 -11 -27.5t-28 -11.5q-9 0 -16 3.5t-14 9.5l-68 61
q-45 -35 -100 -54.5t-120 -19.5zM482 204q-8 7 -12.5 14t-4.5 18q0 17 11.5 28.5t27.5 11.5q10 0 16.5 -3.5t13.5 -9.5l107 -98q29 38 44 84t15 99v2q0 60 -20.5 112.5t-57.5 91.5t-87.5 62t-110.5 23t-110.5 -22.5t-86.5 -61.5t-56.5 -91t-20.5 -112v-2q0 -60 20.5 -112.5
t57.5 -91.5t87.5 -62t110.5 -23q47 0 88 13.5t74 38.5z" />
    <glyph glyph-name="Q.alt" horiz-adv-x="850" 
d="M782 350q0 -82 -32.5 -154t-91.5 -123l106 -103q8 -8 12.5 -15.5t4.5 -18.5q0 -18 -13 -30t-30 -12q-19 0 -36 17l-118 113q-35 -17 -75 -26.5t-85 -9.5q-80 0 -145.5 29t-112.5 78.5t-72.5 115t-25.5 137.5v2q0 72 26 138t73 115.5t113 79t146 29.5t145.5 -29
t112.5 -78.5t72.5 -115t25.5 -137.5v-2zM700 350q0 60 -20.5 112.5t-57.5 91.5t-87.5 62t-110.5 23t-110.5 -22.5t-86.5 -61.5t-56.5 -91t-20.5 -112v-2q0 -60 20.5 -112.5t57.5 -91.5t87.5 -62t110.5 -23t110.5 22.5t86.5 61.5t56.5 91t20.5 112v2z" />
    <glyph glyph-name="R" unicode="R" horiz-adv-x="723" 
d="M99 660q0 17 11.5 28.5t27.5 11.5h262q65 0 115.5 -18.5t83.5 -51.5q26 -26 40 -61t14 -77v-2q0 -43 -14 -77t-38.5 -59.5t-59 -42t-75.5 -24.5l174 -224q13 -15 13 -29q0 -16 -12.5 -27.5t-27.5 -11.5q-12 0 -21 6t-16 15l-197 256h-201v-237q0 -17 -11.5 -28.5
t-28.5 -11.5q-16 0 -27.5 11.5t-11.5 28.5v625zM393 343q39 0 72 10t57 28.5t37.5 45t13.5 60.5v2q0 65 -47 101.5t-132 36.5h-216v-284h215z" />
    <glyph glyph-name="S" unicode="S" horiz-adv-x="640" 
d="M339 -10q-77 0 -141.5 23.5t-123.5 70.5q-15 10 -15 30q0 17 11 28t27 11q15 0 24 -9q50 -42 102 -62.5t119 -20.5q71 0 113.5 33.5t42.5 85.5v2q0 24 -8 43.5t-28 35.5t-55.5 29t-90.5 25q-60 13 -104.5 30t-73.5 41t-43 56t-14 75v2q0 41 17 76t48 60.5t73 40t92 14.5
q69 0 122 -17t101 -52q6 -5 11.5 -13t5.5 -19q0 -16 -11 -27t-27 -11q-13 0 -23 7q-45 32 -88.5 46.5t-92.5 14.5q-69 0 -109 -32.5t-40 -80.5v-2q0 -25 8 -44.5t29 -36t58 -30t95 -25.5q117 -26 172.5 -72t55.5 -126v-2q0 -45 -18 -81.5t-49.5 -62.5t-75.5 -40t-96 -14z
" />
    <glyph glyph-name="T" unicode="T" horiz-adv-x="648" 
d="M284 627h-203q-15 0 -26 10.5t-11 25.5t11 26t26 11h486q15 0 26 -11t11 -26t-11 -25.5t-26 -10.5h-203v-592q0 -17 -11.5 -28.5t-28.5 -11.5t-28.5 11.5t-11.5 28.5v592z" />
    <glyph glyph-name="U" unicode="U" horiz-adv-x="759" 
d="M379 -11q-65 0 -118.5 19.5t-92 58t-59.5 95.5t-21 131v372q0 17 11.5 28.5t27.5 11.5q17 0 28.5 -11.5t11.5 -28.5v-367q0 -114 57 -175t157 -61q97 0 154 58t57 173v372q0 17 11.5 28.5t28.5 11.5q16 0 27.5 -11.5t11.5 -28.5v-366q0 -77 -21 -135t-59.5 -97t-92 -58.5
t-119.5 -19.5z" />
    <glyph glyph-name="V" unicode="V" horiz-adv-x="744" 
d="M370 -8q-17 0 -28.5 9t-17.5 24l-270 623q-4 8 -4 18q0 15 11.5 27t28.5 12q15 0 25.5 -8.5t15.5 -21.5l242 -580l243 582q5 11 15 19.5t24 8.5q17 0 28 -11.5t11 -26.5q0 -9 -3 -16l-271 -626q-7 -15 -18 -24t-28 -9h-4v0z" />
    <glyph glyph-name="W" unicode="W" horiz-adv-x="1101" 
d="M57 647q-2 5 -3 9t-1 9q0 16 12 28t29 12q15 0 25.5 -9.5t15.5 -23.5l193 -556l183 558q5 14 14 22.5t25 8.5h5q15 0 24.5 -8.5t14.5 -22.5l183 -558l194 558q5 14 14.5 22.5t23.5 8.5q16 0 28 -12t12 -27q0 -5 -1.5 -9.5t-3.5 -9.5l-224 -622q-5 -15 -15.5 -24.5
t-25.5 -9.5h-6q-15 0 -25.5 9.5t-15.5 24.5l-182 538l-181 -538q-5 -15 -15.5 -24.5t-25.5 -9.5h-6q-30 0 -41 34z" />
    <glyph glyph-name="X" unicode="X" horiz-adv-x="719" 
d="M66 32q0 15 11 28l234 297l-222 280q-5 7 -9 14t-4 16q0 15 11 26.5t28 11.5q12 0 19.5 -5.5t15.5 -14.5l211 -274l208 271q8 10 16.5 16.5t21.5 6.5q14 0 25 -10.5t11 -26.5q0 -15 -11 -28l-223 -282l231 -295q13 -15 13 -29q0 -16 -11 -27.5t-28 -11.5q-12 0 -19.5 5.5
t-15.5 14.5l-221 287l-218 -284q-8 -10 -16.5 -16.5t-22.5 -6.5t-24.5 10.5t-10.5 26.5z" />
    <glyph glyph-name="Y" unicode="Y" horiz-adv-x="708" 
d="M314 275l-260 364q-9 14 -9 27q0 16 12 27.5t29 11.5q13 0 21.5 -6.5t16.5 -17.5l231 -333l233 333q8 11 16 17.5t21 6.5q17 0 28 -11.5t11 -27.5q0 -8 -3.5 -15.5t-7.5 -13.5l-259 -360v-242q0 -17 -11.5 -28.5t-28.5 -11.5t-28.5 11.5t-11.5 28.5v240z" />
    <glyph glyph-name="Z" unicode="Z" horiz-adv-x="693" 
d="M104 0q-15 0 -26 10t-11 24v2q0 11 3.5 19t10.5 16l439 558h-406q-15 0 -25.5 10.5t-10.5 24.5q0 15 10.5 25.5t25.5 10.5h477q14 0 25 -10t11 -24v-2q0 -11 -3.5 -19t-10.5 -16l-439 -558h422q15 0 25.5 -10.5t10.5 -24.5q0 -15 -10.5 -25.5t-25.5 -10.5h-492v0z" />
    <glyph glyph-name="a" unicode="a" 
d="M240 -11q-36 0 -70.5 10t-62 30.5t-44 50.5t-16.5 70v2q0 41 16 72t45.5 52t70 32t89.5 11q50 0 87 -6t72 -16v18q0 70 -40.5 105.5t-113.5 35.5q-39 0 -72 -8t-62 -21q-8 -3 -14 -3q-14 0 -24 9.5t-10 23.5q0 12 6.5 20.5t14.5 11.5q38 17 78.5 26t90.5 9q110 0 167 -57
q53 -53 53 -151v-283q0 -17 -10.5 -27.5t-26.5 -10.5q-17 0 -27 10.5t-10 25.5v47q-27 -35 -72.5 -62t-114.5 -27zM255 50q36 0 67.5 10.5t55 29t37 44t13.5 56.5v50q-29 8 -66.5 15t-85.5 7q-73 0 -112 -29t-39 -78v-2q0 -24 10.5 -43.5t28.5 -32.5t41.5 -20t49.5 -7z" />
    <glyph glyph-name="a.alt" horiz-adv-x="664" 
d="M501 483q0 16 10.5 27.5t27.5 11.5t28 -11.5t11 -27.5v-449q0 -17 -11 -28t-27 -11q-17 0 -28 11t-11 28v70q-16 -23 -35.5 -44t-43.5 -37t-53.5 -25t-65.5 -9q-47 0 -91 18t-79 52.5t-56 84t-21 113.5v2q0 63 21 113t56 84.5t79 53t91 18.5q36 0 66 -9t54 -24t43.5 -35
t34.5 -42v65zM317 459q-38 0 -71 -13.5t-57.5 -39t-39 -62.5t-14.5 -84v-2q0 -46 15 -83t40 -63t58 -40t69 -14t69.5 14.5t60 41t42 63t15.5 81.5v2q0 45 -15.5 81.5t-42 62.5t-60 40.5t-69.5 14.5z" />
    <glyph glyph-name="b" unicode="b" horiz-adv-x="664" 
d="M86 696q0 17 11 28t27 11q17 0 28 -11t11 -28v-283q16 23 35.5 44t43.5 36.5t53.5 25t65.5 9.5q46 0 90.5 -18t79.5 -52.5t56 -84t21 -113.5v-2q0 -63 -21 -113t-55.5 -84.5t-79 -53t-91.5 -18.5q-36 0 -66 9t-54 24t-43.5 35t-34.5 42v-65q0 -16 -10.5 -27.5
t-27.5 -11.5t-28 11.5t-11 27.5v662zM347 58q37 0 70.5 13.5t58 39t39 62.5t14.5 84v2q0 46 -14.5 83t-39.5 63t-58 40t-70 14q-36 0 -69.5 -14.5t-60 -41t-42 -63t-15.5 -80.5v-2q0 -45 15.5 -82t42 -63t60 -40.5t69.5 -14.5z" />
    <glyph glyph-name="c" unicode="c" horiz-adv-x="571" 
d="M319 -12q-57 0 -105.5 21.5t-84 58t-55.5 85.5t-20 103v2q0 55 20 104t55.5 86t84 58.5t105.5 21.5q65 0 110 -21.5t80 -53.5q5 -4 8.5 -11t3.5 -16q0 -16 -11 -26.5t-26 -10.5q-14 0 -25 9q-28 26 -61 44t-80 18q-39 0 -73 -15.5t-59 -42.5t-39 -63.5t-14 -78.5v-2
q0 -42 14.5 -78.5t40 -64t60 -43t75.5 -15.5q45 0 80 18t64 45q4 4 9 7t13 3q14 0 24.5 -10.5t10.5 -24.5t-10 -24q-37 -37 -83 -60t-112 -23z" />
    <glyph glyph-name="d" unicode="d" horiz-adv-x="664" 
d="M578 34q0 -17 -11 -28t-27 -11q-17 0 -28 11t-11 28v70q-16 -23 -35.5 -44t-43.5 -37t-53.5 -25t-65.5 -9q-47 0 -91 18t-79 52.5t-56 84t-21 113.5v2q0 63 21 113t56 84.5t79 53t91 18.5q36 0 66 -9t54 -24t43.5 -35t34.5 -42v278q0 17 10.5 28t27.5 11t28 -11t11 -28
v-662zM317 459q-38 0 -71 -13.5t-57.5 -39t-39 -62.5t-14.5 -84v-2q0 -46 15 -83t40 -63t58 -40t69 -14t69.5 14.5t60 41t42 63t15.5 81.5v2q0 45 -15.5 81.5t-42 62.5t-60 40.5t-69.5 14.5z" />
    <glyph glyph-name="e" unicode="e" horiz-adv-x="592" 
d="M465 287q-3 35 -14.5 67t-32 56t-50 38.5t-68.5 14.5q-34 0 -63 -13.5t-51 -37t-36 -55.5t-18 -70h333zM507 66q-37 -35 -83 -56.5t-112 -21.5q-53 0 -100 19.5t-82 55t-55.5 85t-20.5 109.5v2q0 56 18.5 105t51.5 85.5t78.5 57.5t99.5 21q57 0 102 -21.5t75.5 -58
t46.5 -84t16 -98.5q0 -16 -11 -26t-25 -10h-374q4 -42 20 -74.5t40.5 -55t55.5 -34t66 -11.5q48 0 84 17t65 43q11 9 22 9q14 0 24 -9.5t10 -23.5q0 -15 -12 -25z" />
    <glyph glyph-name="f" unicode="f" horiz-adv-x="367" 
d="M115 449h-42q-14 0 -23.5 10t-9.5 24t9.5 23.5t23.5 9.5h42v45q0 88 45 133q40 40 111 40q35 0 61 -6q11 -2 19.5 -11t8.5 -22q0 -15 -11 -25t-26 -8q-10 2 -20.5 3.5t-21.5 1.5q-90 0 -90 -110v-42h134q14 0 24 -9.5t10 -23.5t-10 -23.5t-24 -9.5h-133v-415
q0 -16 -10.5 -27.5t-27.5 -11.5t-28 11.5t-11 27.5v415z" />
    <glyph glyph-name="g" unicode="g" horiz-adv-x="664" 
d="M315 -162q-117 0 -216 61q-20 10 -20 32q0 13 10.5 23.5t24.5 10.5q9 0 17 -5q41 -27 86.5 -41.5t96.5 -14.5q86 0 137 46.5t51 137.5v61q-34 -45 -83 -77t-120 -32q-47 0 -90.5 17t-77.5 48.5t-54.5 76t-20.5 100.5v2q0 57 20.5 102t54.5 76.5t78 48.5t90 17
q36 0 66.5 -8.5t55 -22.5t44.5 -33t36 -40v59q0 16 10.5 27.5t27.5 11.5t28 -11.5t11 -27.5v-393q0 -60 -17 -105.5t-49 -77.5q-35 -35 -85 -52t-112 -17zM314 108q37 0 71 12.5t60.5 36t42.5 55.5t16 71v2q0 40 -16 72t-42.5 55t-60.5 35.5t-71 12.5t-69.5 -12.5t-57 -35
t-38.5 -54.5t-14 -72v-2q0 -39 14.5 -71.5t39 -55.5t57 -36t68.5 -13z" />
    <glyph glyph-name="h" unicode="h" horiz-adv-x="616" 
d="M86 696q0 16 11 27.5t27 11.5q17 0 28 -11.5t11 -27.5v-269q26 42 68 71.5t109 29.5q47 0 83.5 -15t62 -42.5t39 -65.5t13.5 -84v-287q0 -17 -11 -28t-27 -11q-17 0 -28 11t-11 28v268q0 72 -37 114t-106 42q-33 0 -61.5 -11.5t-49.5 -33t-32.5 -51.5t-11.5 -66v-262
q0 -17 -10.5 -28t-27.5 -11t-28 11t-11 28v662z" />
    <glyph glyph-name="i" unicode="i" horiz-adv-x="263" 
d="M86 679q0 19 13 30t32 11q20 0 33 -11t13 -30v-13q0 -18 -13 -29.5t-33 -11.5q-19 0 -32 11.5t-13 29.5v13zM93 483q0 16 11 27.5t27 11.5q17 0 28 -11t11 -28v-449q0 -17 -10.5 -28t-27.5 -11t-28 11t-11 28v449z" />
    <glyph glyph-name="j" unicode="j" horiz-adv-x="263" 
d="M86 679q0 19 13 30t32 11q20 0 33 -11t13 -30v-13q0 -18 -13 -29.5t-33 -11.5q-19 0 -32 11.5t-13 29.5v13zM47 -163q-13 0 -18 1q-17 1 -28 9t-11 24q0 14 9.5 23t22.5 9q5 0 9 -0.5t8 -0.5q24 0 39 16t15 50v515q0 16 11 27.5t27 11.5q17 0 28 -11t11 -28v-513
q0 -69 -33 -101t-90 -32z" />
    <glyph glyph-name="k" unicode="k" horiz-adv-x="568" 
d="M86 696q0 16 11 27.5t27 11.5q17 0 28 -11.5t11 -27.5v-474l280 285q13 15 30 15q16 0 25.5 -11t9.5 -25q0 -9 -3.5 -15.5t-11.5 -14.5l-169 -166l185 -233q10 -13 10 -26q0 -16 -10.5 -26t-26.5 -10q-19 0 -33 18l-179 226l-107 -106v-99q0 -17 -10.5 -28t-27.5 -11
t-28 11t-11 28v662z" />
    <glyph glyph-name="l" unicode="l" horiz-adv-x="263" 
d="M93 696q0 16 11 27.5t27 11.5q17 0 28 -11.5t11 -27.5v-662q0 -17 -10.5 -28t-27.5 -11t-28 11t-11 28v662z" />
    <glyph glyph-name="m" unicode="m" horiz-adv-x="951" 
d="M86 483q0 16 11 27.5t27 11.5q17 0 28 -11t11 -28v-53q13 19 28.5 37t35.5 31.5t45 21.5t58 8q63 0 104 -29.5t62 -73.5q14 21 31.5 40t39.5 33t49.5 22t61.5 8q90 0 141 -55.5t51 -152.5v-286q0 -17 -11 -28t-27 -11q-17 0 -28 11t-11 28v268q0 75 -35.5 115.5
t-98.5 40.5q-29 0 -55 -10.5t-45.5 -31t-30.5 -50.5t-11 -68v-264q0 -17 -11 -28t-28 -11q-16 0 -27 11t-11 28v270q0 73 -35.5 113.5t-97.5 40.5q-31 0 -57 -12t-45.5 -34t-30.5 -51.5t-11 -65.5v-261q0 -17 -10.5 -28t-27.5 -11t-28 11t-11 28v449z" />
    <glyph glyph-name="n" unicode="n" horiz-adv-x="616" 
d="M86 483q0 16 11 27.5t27 11.5q17 0 28 -11t11 -28v-56q26 42 68 71.5t109 29.5q47 0 83.5 -15t62 -42.5t39 -65.5t13.5 -84v-287q0 -17 -11 -28t-27 -11q-17 0 -28 11t-11 28v268q0 72 -37 114t-106 42q-33 0 -61.5 -11.5t-49.5 -33t-32.5 -51.5t-11.5 -66v-262
q0 -17 -10.5 -28t-27.5 -11t-28 11t-11 28v449z" />
    <glyph glyph-name="o" unicode="o" horiz-adv-x="646" 
d="M322 -12q-58 0 -107 21.5t-85 58t-56 85t-20 103.5v2q0 55 20 104t56 86t85.5 58.5t108.5 21.5q58 0 107.5 -21.5t85.5 -58t56 -85t20 -103.5v-2q0 -55 -20.5 -104t-56.5 -86t-86 -58.5t-108 -21.5zM324 57q42 0 77 16t60 43t39 63t14 77v2q0 42 -14.5 78.5t-40.5 64
t-61 43.5t-76 16q-42 0 -77 -16t-59.5 -43t-38.5 -63.5t-14 -77.5v-2q0 -42 14.5 -78.5t40 -63.5t60.5 -43t76 -16z" />
    <glyph glyph-name="p" unicode="p" horiz-adv-x="664" 
d="M86 483q0 17 11 28t27 11q17 0 28 -11t11 -28v-70q16 23 35.5 44t43.5 36.5t53.5 25t65.5 9.5q46 0 90.5 -18t79.5 -52.5t56 -84t21 -113.5v-2q0 -63 -21 -113t-55.5 -84.5t-79 -53t-91.5 -18.5q-36 0 -66 9t-54 24t-43.5 35t-34.5 42v-225q0 -17 -10.5 -28t-27.5 -11
t-28 11t-11 28v609zM347 58q37 0 70.5 13.5t58 39t39 62.5t14.5 84v2q0 46 -14.5 83t-39.5 63t-58 40t-70 14q-36 0 -69.5 -14.5t-60 -41t-42 -63t-15.5 -80.5v-2q0 -45 15.5 -82t42 -63t60 -40.5t69.5 -14.5z" />
    <glyph glyph-name="q" unicode="q" horiz-adv-x="664" 
d="M578 -126q0 -17 -11 -28t-27 -11q-17 0 -28 11t-11 28v230q-16 -23 -35.5 -44t-43.5 -37t-53.5 -25t-65.5 -9q-47 0 -91 18t-79 52.5t-56 84t-21 113.5v2q0 63 21 113t56 84.5t79 53t91 18.5q36 0 66 -9t54 -24t43.5 -35t34.5 -42v65q0 16 10.5 27.5t27.5 11.5t28 -11.5
t11 -27.5v-609zM317 459q-38 0 -71 -13.5t-57.5 -39t-39 -62.5t-14.5 -84v-2q0 -46 15 -83t40 -63t58 -40t69 -14t69.5 14.5t60 41t42 63t15.5 81.5v2q0 45 -15.5 81.5t-42 62.5t-60 40.5t-69.5 14.5z" />
    <glyph glyph-name="r" unicode="r" horiz-adv-x="405" 
d="M86 483q0 16 11 27.5t27 11.5q17 0 28 -11t11 -28v-97q14 32 34.5 57.5t44.5 43.5t49.5 27.5t49.5 9.5q17 0 27.5 -11t10.5 -28q0 -16 -9.5 -26.5t-24.5 -12.5q-38 -5 -71 -21t-57.5 -45.5t-39 -71.5t-14.5 -98v-176q0 -16 -10.5 -27.5t-27.5 -11.5t-28 11t-11 28v449z
" />
    <glyph glyph-name="s" unicode="s" horiz-adv-x="498" 
d="M257 -10q-51 0 -104 17.5t-95 47.5q-5 4 -9.5 11t-4.5 17q0 14 10 23.5t24 9.5q11 0 19 -6q81 -55 164 -55q47 0 77 22t30 60v2q0 19 -10.5 33t-28.5 24.5t-41.5 18.5t-48.5 15q-30 9 -60.5 19.5t-55 26.5t-40 40t-15.5 60v2q0 33 13 60.5t36.5 47t56 30t70.5 10.5
q42 0 84.5 -12t80.5 -32q8 -5 13.5 -13t5.5 -19q0 -14 -10 -23.5t-24 -9.5q-9 0 -17 4q-33 19 -67.5 29.5t-67.5 10.5q-46 0 -73 -21.5t-27 -53.5v-2q0 -18 11 -31.5t29.5 -23.5t42.5 -18t50 -16q30 -9 59.5 -20t53.5 -28t38.5 -41t14.5 -59v-2q0 -37 -14.5 -65.5t-39 -48.5
t-58 -30.5t-72.5 -10.5z" />
    <glyph glyph-name="t" unicode="t" horiz-adv-x="404" 
d="M259 -9q-31 0 -58 8t-46.5 25.5t-30.5 45.5t-11 67v312h-42q-14 0 -24 10t-10 24t10 24t24 10h42v122q0 16 10.5 27.5t27.5 11.5q16 0 27.5 -11.5t11.5 -27.5v-122h134q14 0 24.5 -10t10.5 -24t-10.5 -24t-24.5 -10h-134v-302q0 -48 24 -67t63 -19q20 0 31 3.5t16 3.5
q14 0 23.5 -9.5t9.5 -23.5q0 -22 -22 -30q-17 -7 -35 -10.5t-41 -3.5z" />
    <glyph glyph-name="u" unicode="u" horiz-adv-x="616" 
d="M529 34q0 -16 -10.5 -27.5t-27.5 -11.5q-16 0 -27 11t-11 28v56q-26 -42 -68 -71.5t-109 -29.5q-47 0 -83.5 15t-62 42.5t-39 65.5t-13.5 84v287q0 17 10.5 28t27.5 11q16 0 27.5 -11t11.5 -28v-268q0 -72 37 -114t106 -42q33 0 61.5 11.5t49 33t32.5 51.5t12 66v262
q0 17 10.5 28t27.5 11q16 0 27 -11t11 -28v-449z" />
    <glyph glyph-name="v" unicode="v" horiz-adv-x="584" 
d="M337 25q-7 -15 -17 -24t-26 -9h-4q-16 0 -26.5 9t-17.5 24l-194 438q-2 5 -3.5 10.5t-1.5 10.5q0 15 11 26.5t28 11.5t25.5 -8.5t13.5 -21.5l167 -404l170 406q4 11 12.5 19.5t23.5 8.5q16 0 27 -11t11 -27q0 -9 -4 -19l-195 -440v0z" />
    <glyph glyph-name="w" unicode="w" horiz-adv-x="858" 
d="M255 -8q-31 0 -43 35l-157 437q-2 5 -3.5 10.5t-1.5 10.5q0 14 11 25.5t28 11.5q15 0 24.5 -9t14.5 -23l130 -388l131 389q5 14 14 22.5t24 8.5h4q16 0 25.5 -8.5t14.5 -22.5l130 -389l132 390q4 12 12.5 21t24.5 9q17 0 27.5 -11t10.5 -25q0 -5 -1.5 -10.5t-3.5 -10.5
l-158 -438q-6 -17 -17 -26t-25 -9h-3q-31 0 -42 35l-129 377l-130 -377q-11 -35 -42 -35h-2v0z" />
    <glyph glyph-name="x" unicode="x" horiz-adv-x="571" 
d="M60 30q0 15 10 25l169 208l-159 195q-12 13 -12 28q0 17 10.5 26.5t25.5 9.5q11 0 19 -5t15 -13l149 -189l148 188q7 8 14.5 13.5t18.5 5.5q15 0 25 -10t10 -25q0 -13 -10 -25l-161 -197l168 -206q11 -14 11 -28q0 -16 -10.5 -26t-25.5 -10q-11 0 -19 5t-15 13l-157 199
l-156 -198q-7 -8 -14.5 -13.5t-18.5 -5.5q-15 0 -25 10.5t-10 24.5z" />
    <glyph glyph-name="y" unicode="y" horiz-adv-x="587" 
d="M161 -163q-26 0 -45.5 4t-39.5 11q-9 4 -16.5 11.5t-7.5 21.5t10 23.5t23 9.5q5 0 9.5 -1t9.5 -3q11 -4 23.5 -6.5t32.5 -2.5q36 0 59.5 22t44.5 70l4 8l-216 458q-5 12 -5 21q0 16 11 27t28 11q16 0 25 -8.5t14 -21.5l180 -406l160 407q5 12 13.5 20.5t23.5 8.5
q16 0 27 -11t11 -27q0 -5 -1 -9.5t-3 -9.5l-202 -482q-34 -80 -74.5 -113t-98.5 -33z" />
    <glyph glyph-name="z" unicode="z" horiz-adv-x="556" 
d="M93 0q-15 0 -26 9t-11 22v2q0 18 16 35l327 384h-302q-14 0 -23.5 9t-9.5 23t9.5 23.5t23.5 9.5h369q16 0 26.5 -9t10.5 -22v-2q0 -18 -16 -35l-327 -384h315q14 0 23.5 -9.5t9.5 -22.5q0 -14 -9.5 -23.5t-23.5 -9.5h-382v0z" />
    <glyph glyph-name="Aacute" unicode="&#xc1;" horiz-adv-x="784" 
d="M51 31q0 11 5 21l284 621q8 17 19.5 26t30.5 9h4q35 0 49 -35l284 -620q5 -12 5 -20q0 -16 -11 -27t-27 -11q-14 0 -24 8.5t-15 20.5l-73 161h-384l-73 -163q-11 -27 -38 -27q-15 0 -25.5 10.5t-10.5 25.5zM551 257l-161 358l-161 -358h322zM389 768q-19 0 -19 14
q0 8 5 15l60 91q15 23 36 23q18 0 36 -9.5t18 -20.5q0 -6 -4 -11.5t-10 -11.5l-75 -71q-12 -12 -22.5 -15.5t-24.5 -3.5z" />
    <glyph glyph-name="aacute" unicode="&#xe1;" 
d="M240 -11q-36 0 -70.5 10t-62 30.5t-44 50.5t-16.5 70v2q0 41 16 72t45.5 52t70 32t89.5 11q50 0 87 -6t72 -16v18q0 70 -40.5 105.5t-113.5 35.5q-39 0 -72 -8t-62 -21q-8 -3 -14 -3q-14 0 -24 9.5t-10 23.5q0 12 6.5 20.5t14.5 11.5q38 17 78.5 26t90.5 9q110 0 167 -57
q53 -53 53 -151v-283q0 -17 -10.5 -27.5t-26.5 -10.5q-17 0 -27 10.5t-10 25.5v47q-27 -35 -72.5 -62t-114.5 -27zM255 50q36 0 67.5 10.5t55 29t37 44t13.5 56.5v50q-29 8 -66.5 15t-85.5 7q-73 0 -112 -29t-39 -78v-2q0 -24 10.5 -43.5t28.5 -32.5t41.5 -20t49.5 -7z
M287 591q-19 0 -19 14q0 8 5 15l60 91q15 23 36 23q18 0 36 -9.5t18 -20.5q0 -6 -4 -11.5t-10 -11.5l-75 -71q-12 -12 -22.5 -15.5t-24.5 -3.5z" />
    <glyph glyph-name="aacute.alt" horiz-adv-x="664" 
d="M333 591q-19 0 -19 14q0 8 5 15l60 91q15 23 36 23q18 0 36 -9.5t18 -20.5q0 -6 -4 -11.5t-10 -11.5l-75 -71q-12 -12 -22.5 -15.5t-24.5 -3.5zM501 483q0 16 10.5 27.5t27.5 11.5t28 -11.5t11 -27.5v-449q0 -17 -11 -28t-27 -11q-17 0 -28 11t-11 28v70
q-16 -23 -35.5 -44t-43.5 -37t-53.5 -25t-65.5 -9q-47 0 -91 18t-79 52.5t-56 84t-21 113.5v2q0 63 21 113t56 84.5t79 53t91 18.5q36 0 66 -9t54 -24t43.5 -35t34.5 -42v65zM317 459q-38 0 -71 -13.5t-57.5 -39t-39 -62.5t-14.5 -84v-2q0 -46 15 -83t40 -63t58 -40t69 -14
t69.5 14.5t60 41t42 63t15.5 81.5v2q0 45 -15.5 81.5t-42 62.5t-60 40.5t-69.5 14.5z" />
    <glyph glyph-name="Abreve" unicode="&#x102;" horiz-adv-x="784" 
d="M51 31q0 11 5 21l284 621q8 17 19.5 26t30.5 9h4q35 0 49 -35l284 -620q5 -12 5 -20q0 -16 -11 -27t-27 -11q-14 0 -24 8.5t-15 20.5l-73 161h-384l-73 -163q-11 -27 -38 -27q-15 0 -25.5 10.5t-10.5 25.5zM551 257l-161 358l-161 -358h322zM391 770q-92 0 -132 73
q-5 8 -7.5 17.5t-2.5 17.5q0 13 7.5 21.5t20.5 8.5q11 0 17 -5.5t11 -13.5q10 -24 30.5 -39.5t55.5 -15.5t55.5 15.5t30.5 39.5q5 8 11 13.5t17 5.5q13 0 20.5 -8.5t7.5 -21.5q0 -8 -2.5 -17.5t-7.5 -17.5q-40 -73 -132 -73z" />
    <glyph glyph-name="abreve" unicode="&#x103;" 
d="M240 -11q-36 0 -70.5 10t-62 30.5t-44 50.5t-16.5 70v2q0 41 16 72t45.5 52t70 32t89.5 11q50 0 87 -6t72 -16v18q0 70 -40.5 105.5t-113.5 35.5q-39 0 -72 -8t-62 -21q-8 -3 -14 -3q-14 0 -24 9.5t-10 23.5q0 12 6.5 20.5t14.5 11.5q38 17 78.5 26t90.5 9q110 0 167 -57
q53 -53 53 -151v-283q0 -17 -10.5 -27.5t-26.5 -10.5q-17 0 -27 10.5t-10 25.5v47q-27 -35 -72.5 -62t-114.5 -27zM255 50q36 0 67.5 10.5t55 29t37 44t13.5 56.5v50q-29 8 -66.5 15t-85.5 7q-73 0 -112 -29t-39 -78v-2q0 -24 10.5 -43.5t28.5 -32.5t41.5 -20t49.5 -7z
M289 593q-92 0 -132 73q-5 8 -7.5 17.5t-2.5 17.5q0 13 7.5 21.5t20.5 8.5q11 0 17 -5.5t11 -13.5q10 -24 30.5 -39.5t55.5 -15.5t55.5 15.5t30.5 39.5q5 8 11 13.5t17 5.5q13 0 20.5 -8.5t7.5 -21.5q0 -8 -2.5 -17.5t-7.5 -17.5q-40 -73 -132 -73z" />
    <glyph glyph-name="abreve.alt" horiz-adv-x="664" 
d="M501 483q0 16 10.5 27.5t27.5 11.5t28 -11.5t11 -27.5v-449q0 -17 -11 -28t-27 -11q-17 0 -28 11t-11 28v70q-16 -23 -35.5 -44t-43.5 -37t-53.5 -25t-65.5 -9q-47 0 -91 18t-79 52.5t-56 84t-21 113.5v2q0 63 21 113t56 84.5t79 53t91 18.5q36 0 66 -9t54 -24t43.5 -35
t34.5 -42v65zM317 459q-38 0 -71 -13.5t-57.5 -39t-39 -62.5t-14.5 -84v-2q0 -46 15 -83t40 -63t58 -40t69 -14t69.5 14.5t60 41t42 63t15.5 81.5v2q0 45 -15.5 81.5t-42 62.5t-60 40.5t-69.5 14.5zM335 593q-92 0 -132 73q-5 8 -7.5 17.5t-2.5 17.5q0 13 7.5 21.5t20.5 8.5
q11 0 17 -5.5t11 -13.5q10 -24 30.5 -39.5t55.5 -15.5t55.5 15.5t30.5 39.5q5 8 11 13.5t17 5.5q13 0 20.5 -8.5t7.5 -21.5q0 -8 -2.5 -17.5t-7.5 -17.5q-40 -73 -132 -73z" />
    <glyph glyph-name="Acircumflex" unicode="&#xc2;" horiz-adv-x="784" 
d="M51 31q0 11 5 21l284 621q8 17 19.5 26t30.5 9h4q35 0 49 -35l284 -620q5 -12 5 -20q0 -16 -11 -27t-27 -11q-14 0 -24 8.5t-15 20.5l-73 161h-384l-73 -163q-11 -27 -38 -27q-15 0 -25.5 10.5t-10.5 25.5zM551 257l-161 358l-161 -358h322zM331 787q-13 -12 -23.5 -15.5
t-24.5 -3.5q-18 0 -18 14q0 5 7 17l70 86q8 10 17 16t23 6h18q14 0 23 -6t17 -16l70 -86q7 -12 7 -17q0 -14 -19 -14q-14 0 -25 3.5t-24 15.5l-59 52z" />
    <glyph glyph-name="acircumflex" unicode="&#xe2;" 
d="M240 -11q-36 0 -70.5 10t-62 30.5t-44 50.5t-16.5 70v2q0 41 16 72t45.5 52t70 32t89.5 11q50 0 87 -6t72 -16v18q0 70 -40.5 105.5t-113.5 35.5q-39 0 -72 -8t-62 -21q-8 -3 -14 -3q-14 0 -24 9.5t-10 23.5q0 12 6.5 20.5t14.5 11.5q38 17 78.5 26t90.5 9q110 0 167 -57
q53 -53 53 -151v-283q0 -17 -10.5 -27.5t-26.5 -10.5q-17 0 -27 10.5t-10 25.5v47q-27 -35 -72.5 -62t-114.5 -27zM255 50q36 0 67.5 10.5t55 29t37 44t13.5 56.5v50q-29 8 -66.5 15t-85.5 7q-73 0 -112 -29t-39 -78v-2q0 -24 10.5 -43.5t28.5 -32.5t41.5 -20t49.5 -7z
M229 610q-13 -12 -23.5 -15.5t-24.5 -3.5q-18 0 -18 14q0 5 7 17l70 86q8 10 17 16t23 6h18q14 0 23 -6t17 -16l70 -86q7 -12 7 -17q0 -14 -19 -14q-14 0 -25 3.5t-24 15.5l-59 52z" />
    <glyph glyph-name="acircumflex.alt" horiz-adv-x="664" 
d="M275 610q-13 -12 -23.5 -15.5t-24.5 -3.5q-18 0 -18 14q0 5 7 17l70 86q8 10 17 16t23 6h18q14 0 23 -6t17 -16l70 -86q7 -12 7 -17q0 -14 -19 -14q-14 0 -25 3.5t-24 15.5l-59 52zM501 483q0 16 10.5 27.5t27.5 11.5t28 -11.5t11 -27.5v-449q0 -17 -11 -28t-27 -11
q-17 0 -28 11t-11 28v70q-16 -23 -35.5 -44t-43.5 -37t-53.5 -25t-65.5 -9q-47 0 -91 18t-79 52.5t-56 84t-21 113.5v2q0 63 21 113t56 84.5t79 53t91 18.5q36 0 66 -9t54 -24t43.5 -35t34.5 -42v65zM317 459q-38 0 -71 -13.5t-57.5 -39t-39 -62.5t-14.5 -84v-2
q0 -46 15 -83t40 -63t58 -40t69 -14t69.5 14.5t60 41t42 63t15.5 81.5v2q0 45 -15.5 81.5t-42 62.5t-60 40.5t-69.5 14.5z" />
    <glyph glyph-name="Adieresis" unicode="&#xc4;" horiz-adv-x="784" 
d="M51 31q0 11 5 21l284 621q8 17 19.5 26t30.5 9h4q35 0 49 -35l284 -620q5 -12 5 -20q0 -16 -11 -27t-27 -11q-14 0 -24 8.5t-15 20.5l-73 161h-384l-73 -163q-11 -27 -38 -27q-15 0 -25.5 10.5t-10.5 25.5zM551 257l-161 358l-161 -358h322zM480 872q20 0 33.5 -12.5
t13.5 -32.5v-15q0 -20 -13.5 -32.5t-33.5 -12.5t-33.5 12.5t-13.5 32.5v15q0 20 13.5 32.5t33.5 12.5zM302 872q20 0 33.5 -12.5t13.5 -32.5v-15q0 -20 -13.5 -32.5t-33.5 -12.5t-33.5 12.5t-13.5 32.5v15q0 20 13.5 32.5t33.5 12.5z" />
    <glyph glyph-name="adieresis" unicode="&#xe4;" 
d="M240 -11q-36 0 -70.5 10t-62 30.5t-44 50.5t-16.5 70v2q0 41 16 72t45.5 52t70 32t89.5 11q50 0 87 -6t72 -16v18q0 70 -40.5 105.5t-113.5 35.5q-39 0 -72 -8t-62 -21q-8 -3 -14 -3q-14 0 -24 9.5t-10 23.5q0 12 6.5 20.5t14.5 11.5q38 17 78.5 26t90.5 9q110 0 167 -57
q53 -53 53 -151v-283q0 -17 -10.5 -27.5t-26.5 -10.5q-17 0 -27 10.5t-10 25.5v47q-27 -35 -72.5 -62t-114.5 -27zM255 50q36 0 67.5 10.5t55 29t37 44t13.5 56.5v50q-29 8 -66.5 15t-85.5 7q-73 0 -112 -29t-39 -78v-2q0 -24 10.5 -43.5t28.5 -32.5t41.5 -20t49.5 -7z
M378 695q20 0 33.5 -12.5t13.5 -32.5v-15q0 -20 -13.5 -32.5t-33.5 -12.5t-33.5 12.5t-13.5 32.5v15q0 20 13.5 32.5t33.5 12.5zM200 695q20 0 33.5 -12.5t13.5 -32.5v-15q0 -20 -13.5 -32.5t-33.5 -12.5t-33.5 12.5t-13.5 32.5v15q0 20 13.5 32.5t33.5 12.5z" />
    <glyph glyph-name="adieresis.alt" horiz-adv-x="664" 
d="M424 695q20 0 33.5 -12.5t13.5 -32.5v-15q0 -20 -13.5 -32.5t-33.5 -12.5t-33.5 12.5t-13.5 32.5v15q0 20 13.5 32.5t33.5 12.5zM246 695q20 0 33.5 -12.5t13.5 -32.5v-15q0 -20 -13.5 -32.5t-33.5 -12.5t-33.5 12.5t-13.5 32.5v15q0 20 13.5 32.5t33.5 12.5zM501 483
q0 16 10.5 27.5t27.5 11.5t28 -11.5t11 -27.5v-449q0 -17 -11 -28t-27 -11q-17 0 -28 11t-11 28v70q-16 -23 -35.5 -44t-43.5 -37t-53.5 -25t-65.5 -9q-47 0 -91 18t-79 52.5t-56 84t-21 113.5v2q0 63 21 113t56 84.5t79 53t91 18.5q36 0 66 -9t54 -24t43.5 -35t34.5 -42v65
zM317 459q-38 0 -71 -13.5t-57.5 -39t-39 -62.5t-14.5 -84v-2q0 -46 15 -83t40 -63t58 -40t69 -14t69.5 14.5t60 41t42 63t15.5 81.5v2q0 45 -15.5 81.5t-42 62.5t-60 40.5t-69.5 14.5z" />
    <glyph glyph-name="AE" unicode="&#xc6;" horiz-adv-x="1045" 
d="M34 29q0 5 2.5 11t4.5 11l372 623q8 12 18 19t26 7h491q15 0 25.5 -10.5t10.5 -25.5t-10.5 -25.5t-25.5 -10.5h-377v-239h332q15 0 25.5 -11t10.5 -25q0 -15 -10.5 -25.5t-25.5 -10.5h-332v-245h382q15 0 25.5 -10.5t10.5 -25.5t-10.5 -25.5t-25.5 -10.5h-422
q-17 0 -28.5 11.5t-11.5 28.5v145h-286l-101 -169q-11 -21 -34 -21q-14 0 -25 10t-11 24zM491 257v373h-23l-221 -373h244z" />
    <glyph glyph-name="ae" unicode="&#xe6;" horiz-adv-x="953" 
d="M826 287q-3 35 -14.5 67t-32 56t-50 38.5t-67.5 14.5q-34 0 -63.5 -13.5t-51.5 -37t-36 -55.5t-18 -70h333zM251 51q57 0 103.5 25.5t82.5 66.5q-18 45 -21 98q-29 8 -65 14.5t-79 6.5q-71 0 -109 -29t-38 -78v-2q0 -24 10 -43t27 -32t40 -20t49 -7zM869 66
q-38 -35 -84 -56.5t-112 -21.5q-63 0 -116.5 27.5t-88.5 76.5q-42 -43 -98 -73t-128 -30q-38 0 -73 10t-62 30.5t-43.5 50.5t-16.5 70v2q0 41 16 72t45 52t68.5 32t87.5 11t83 -6t70 -16v18q0 70 -38.5 105.5t-110.5 35.5q-37 0 -68 -7.5t-61 -21.5q-8 -3 -14 -3
q-14 0 -24 9.5t-10 23.5q0 12 6.5 20.5t14.5 11.5q38 17 77 26t87 9q74 0 122 -27.5t68 -83.5q31 53 82.5 84t115.5 31q57 0 101.5 -21.5t75.5 -58t47 -84t16 -98.5q0 -16 -11 -26t-26 -10h-373q4 -42 20 -74.5t40.5 -55t55.5 -34t65 -11.5q49 0 85 17t65 43q5 4 9.5 6.5
t11.5 2.5q14 0 24 -9.5t10 -23.5t-11 -25z" />
    <glyph glyph-name="AEacute" unicode="&#x1fc;" horiz-adv-x="1045" 
d="M627 758q-19 0 -19 14q0 8 5 15l60 91q15 23 36 23q18 0 36 -9.5t18 -20.5q0 -6 -4 -11.5t-10 -11.5l-75 -71q-12 -12 -22.5 -15.5t-24.5 -3.5zM34 29q0 5 2.5 11t4.5 11l372 623q8 12 18 19t26 7h491q15 0 25.5 -10.5t10.5 -25.5t-10.5 -25.5t-25.5 -10.5h-377v-239h332
q15 0 25.5 -11t10.5 -25q0 -15 -10.5 -25.5t-25.5 -10.5h-332v-245h382q15 0 25.5 -10.5t10.5 -25.5t-10.5 -25.5t-25.5 -10.5h-422q-17 0 -28.5 11.5t-11.5 28.5v145h-286l-101 -169q-11 -21 -34 -21q-14 0 -25 10t-11 24zM491 257v373h-23l-221 -373h244z" />
    <glyph glyph-name="aeacute" unicode="&#x1fd;" horiz-adv-x="953" 
d="M473 591q-19 0 -19 14q0 8 5 15l60 91q15 23 36 23q18 0 36 -9.5t18 -20.5q0 -6 -4 -11.5t-10 -11.5l-75 -71q-12 -12 -22.5 -15.5t-24.5 -3.5zM826 287q-3 35 -14.5 67t-32 56t-50 38.5t-67.5 14.5q-34 0 -63.5 -13.5t-51.5 -37t-36 -55.5t-18 -70h333zM251 51
q57 0 103.5 25.5t82.5 66.5q-18 45 -21 98q-29 8 -65 14.5t-79 6.5q-71 0 -109 -29t-38 -78v-2q0 -24 10 -43t27 -32t40 -20t49 -7zM869 66q-38 -35 -84 -56.5t-112 -21.5q-63 0 -116.5 27.5t-88.5 76.5q-42 -43 -98 -73t-128 -30q-38 0 -73 10t-62 30.5t-43.5 50.5
t-16.5 70v2q0 41 16 72t45 52t68.5 32t87.5 11t83 -6t70 -16v18q0 70 -38.5 105.5t-110.5 35.5q-37 0 -68 -7.5t-61 -21.5q-8 -3 -14 -3q-14 0 -24 9.5t-10 23.5q0 12 6.5 20.5t14.5 11.5q38 17 77 26t87 9q74 0 122 -27.5t68 -83.5q31 53 82.5 84t115.5 31
q57 0 101.5 -21.5t75.5 -58t47 -84t16 -98.5q0 -16 -11 -26t-26 -10h-373q4 -42 20 -74.5t40.5 -55t55.5 -34t65 -11.5q49 0 85 17t65 43q5 4 9.5 6.5t11.5 2.5q14 0 24 -9.5t10 -23.5t-11 -25z" />
    <glyph glyph-name="Agrave" unicode="&#xc0;" horiz-adv-x="784" 
d="M51 31q0 11 5 21l284 621q8 17 19.5 26t30.5 9h4q35 0 49 -35l284 -620q5 -12 5 -20q0 -16 -11 -27t-27 -11q-14 0 -24 8.5t-15 20.5l-73 161h-384l-73 -163q-11 -27 -38 -27q-15 0 -25.5 10.5t-10.5 25.5zM551 257l-161 358l-161 -358h322zM393 768q-14 0 -24.5 3.5
t-22.5 15.5l-75 71q-6 6 -10 11.5t-4 11.5q0 11 18 20.5t36 9.5q21 0 36 -23l60 -91q5 -7 5 -15q0 -14 -19 -14z" />
    <glyph glyph-name="agrave" unicode="&#xe0;" 
d="M240 -11q-36 0 -70.5 10t-62 30.5t-44 50.5t-16.5 70v2q0 41 16 72t45.5 52t70 32t89.5 11q50 0 87 -6t72 -16v18q0 70 -40.5 105.5t-113.5 35.5q-39 0 -72 -8t-62 -21q-8 -3 -14 -3q-14 0 -24 9.5t-10 23.5q0 12 6.5 20.5t14.5 11.5q38 17 78.5 26t90.5 9q110 0 167 -57
q53 -53 53 -151v-283q0 -17 -10.5 -27.5t-26.5 -10.5q-17 0 -27 10.5t-10 25.5v47q-27 -35 -72.5 -62t-114.5 -27zM255 50q36 0 67.5 10.5t55 29t37 44t13.5 56.5v50q-29 8 -66.5 15t-85.5 7q-73 0 -112 -29t-39 -78v-2q0 -24 10.5 -43.5t28.5 -32.5t41.5 -20t49.5 -7z
M292 591q-14 0 -24.5 3.5t-22.5 15.5l-75 71q-6 6 -10 11.5t-4 11.5q0 11 18 20.5t36 9.5q21 0 36 -23l60 -91q5 -7 5 -15q0 -14 -19 -14z" />
    <glyph glyph-name="agrave.alt" horiz-adv-x="664" 
d="M501 483q0 16 10.5 27.5t27.5 11.5t28 -11.5t11 -27.5v-449q0 -17 -11 -28t-27 -11q-17 0 -28 11t-11 28v70q-16 -23 -35.5 -44t-43.5 -37t-53.5 -25t-65.5 -9q-47 0 -91 18t-79 52.5t-56 84t-21 113.5v2q0 63 21 113t56 84.5t79 53t91 18.5q36 0 66 -9t54 -24t43.5 -35
t34.5 -42v65zM317 459q-38 0 -71 -13.5t-57.5 -39t-39 -62.5t-14.5 -84v-2q0 -46 15 -83t40 -63t58 -40t69 -14t69.5 14.5t60 41t42 63t15.5 81.5v2q0 45 -15.5 81.5t-42 62.5t-60 40.5t-69.5 14.5zM337 591q-14 0 -24.5 3.5t-22.5 15.5l-75 71q-6 6 -10 11.5t-4 11.5
q0 11 18 20.5t36 9.5q21 0 36 -23l60 -91q5 -7 5 -15q0 -14 -19 -14z" />
    <glyph glyph-name="Amacron" unicode="&#x100;" horiz-adv-x="784" 
d="M51 31q0 11 5 21l284 621q8 17 19.5 26t30.5 9h4q35 0 49 -35l284 -620q5 -12 5 -20q0 -16 -11 -27t-27 -11q-14 0 -24 8.5t-15 20.5l-73 161h-384l-73 -163q-11 -27 -38 -27q-15 0 -25.5 10.5t-10.5 25.5zM551 257l-161 358l-161 -358h322zM259 792q-14 0 -23 9.5
t-9 22.5t9 22.5t23 9.5h264q14 0 23 -9.5t9 -22.5t-9 -22.5t-23 -9.5h-264z" />
    <glyph glyph-name="amacron" unicode="&#x101;" 
d="M240 -11q-36 0 -70.5 10t-62 30.5t-44 50.5t-16.5 70v2q0 41 16 72t45.5 52t70 32t89.5 11q50 0 87 -6t72 -16v18q0 70 -40.5 105.5t-113.5 35.5q-39 0 -72 -8t-62 -21q-8 -3 -14 -3q-14 0 -24 9.5t-10 23.5q0 12 6.5 20.5t14.5 11.5q38 17 78.5 26t90.5 9q110 0 167 -57
q53 -53 53 -151v-283q0 -17 -10.5 -27.5t-26.5 -10.5q-17 0 -27 10.5t-10 25.5v47q-27 -35 -72.5 -62t-114.5 -27zM255 50q36 0 67.5 10.5t55 29t37 44t13.5 56.5v50q-29 8 -66.5 15t-85.5 7q-73 0 -112 -29t-39 -78v-2q0 -24 10.5 -43.5t28.5 -32.5t41.5 -20t49.5 -7z
M157 615q-14 0 -23 9.5t-9 22.5t9 22.5t23 9.5h264q14 0 23 -9.5t9 -22.5t-9 -22.5t-23 -9.5h-264z" />
    <glyph glyph-name="amacron.alt" horiz-adv-x="664" 
d="M501 483q0 16 10.5 27.5t27.5 11.5t28 -11.5t11 -27.5v-449q0 -17 -11 -28t-27 -11q-17 0 -28 11t-11 28v70q-16 -23 -35.5 -44t-43.5 -37t-53.5 -25t-65.5 -9q-47 0 -91 18t-79 52.5t-56 84t-21 113.5v2q0 63 21 113t56 84.5t79 53t91 18.5q36 0 66 -9t54 -24t43.5 -35
t34.5 -42v65zM317 459q-38 0 -71 -13.5t-57.5 -39t-39 -62.5t-14.5 -84v-2q0 -46 15 -83t40 -63t58 -40t69 -14t69.5 14.5t60 41t42 63t15.5 81.5v2q0 45 -15.5 81.5t-42 62.5t-60 40.5t-69.5 14.5zM203 615q-14 0 -23 9.5t-9 22.5t9 22.5t23 9.5h264q14 0 23 -9.5t9 -22.5
t-9 -22.5t-23 -9.5h-264z" />
    <glyph glyph-name="Aogonek" unicode="&#x104;" horiz-adv-x="790" 
d="M54 31q0 8 5 21l284 621q16 35 50 35h4q19 0 30.5 -9t19.5 -26l285 -624q5 -10 5 -20q0 -9 -3.5 -16t-12.5 -16q-23 -20 -33.5 -36.5t-10.5 -33.5q0 -20 13.5 -29.5t36.5 -14.5q29 -6 29 -24q0 -23 -28 -23q-14 0 -33.5 3t-38.5 12t-32 24.5t-13 40.5q0 26 14.5 47
t40.5 44l-80 178h-385l-73 -163q-11 -27 -37 -27q-16 0 -26.5 10.5t-10.5 25.5zM554 257l-160 358l-162 -358h322z" />
    <glyph glyph-name="aogonek" unicode="&#x105;" 
d="M374 -85q0 26 14.5 48t43.5 47q-2 1 -2.5 11t-1.5 22t-1 22v12v1q-27 -35 -72.5 -62t-114.5 -27q-36 0 -70.5 10t-62 30.5t-44 50.5t-16.5 70v2q0 41 16 72t45.5 52t70 32t89.5 11q50 0 87 -6t72 -16v18q0 70 -40.5 105.5t-113.5 35.5q-39 0 -72 -8t-62 -21q-8 -3 -14 -3
q-14 0 -24 9.5t-10 23.5q0 12 6.5 20.5t14.5 11.5q38 17 78.5 26t90.5 9q110 0 167 -57q53 -53 53 -151v-285q0 -11 -3.5 -18.5t-14.5 -16.5q-23 -20 -33 -35.5t-10 -33.5q0 -20 13 -29.5t36 -14.5q29 -6 29 -24q0 -23 -27 -23q-14 0 -34 3t-38.5 12t-31.5 24.5t-13 39.5z
M255 50q36 0 67.5 10.5t55 29t37 44t13.5 56.5v50q-29 8 -66.5 15t-85.5 7q-73 0 -112 -29t-39 -78v-2q0 -24 10.5 -43.5t28.5 -32.5t41.5 -20t49.5 -7z" />
    <glyph glyph-name="aogonek.alt" horiz-adv-x="664" 
d="M317 459q-38 0 -71 -13.5t-57.5 -39t-39 -62.5t-14.5 -84v-2q0 -46 15 -83t40 -63t58 -40t69 -14t69.5 14.5t60 41t42 63t15.5 81.5v2q0 45 -15.5 81.5t-42 62.5t-60 40.5t-69.5 14.5zM501 483q0 16 10.5 27.5t27.5 11.5t28 -11.5t11 -27.5v-452q0 -11 -4 -18.5
t-14 -16.5q-23 -20 -33.5 -35.5t-10.5 -33.5q0 -20 13 -29.5t36 -14.5q17 -3 23.5 -9t6.5 -15q0 -23 -28 -23q-14 0 -33.5 3t-38.5 12t-32 24.5t-13 39.5q0 27 15.5 49t42.5 45q-2 1 -3 15t-2 30.5t-1.5 31t-0.5 16.5v2q-16 -23 -35.5 -44t-43.5 -37t-53.5 -25t-65.5 -9
q-47 0 -91 18t-79 52.5t-56 84t-21 113.5v2q0 63 21 113t56 84.5t79 53t91 18.5q36 0 66 -9t54 -24t43.5 -35t34.5 -42v65z" />
    <glyph glyph-name="Aring" unicode="&#xc5;" horiz-adv-x="790" 
d="M732 50q3 -9 3 -16q0 -15 -11 -27t-28 -12q-14 0 -23 8.5t-15 20.5l-72 161h-385l-73 -163q-5 -11 -14 -19t-23 -8q-16 0 -26.5 11.5t-10.5 25.5q0 5 1 8.5t3 8.5l288 631q-24 12 -39.5 35t-15.5 51v2q0 20 8.5 38t23 31.5t33 21.5t39.5 8t39.5 -8t33 -21.5t23 -31.5
t8.5 -38v-2q0 -28 -15.5 -51t-39.5 -35zM395 705q25 0 43.5 18t18.5 43v2q0 25 -18 43t-44 18t-44 -18t-18 -43v-2q0 -25 18.5 -43t43.5 -18zM554 257l-160 358l-162 -358h322z" />
    <glyph glyph-name="aring" unicode="&#xe5;" 
d="M240 -11q-36 0 -70.5 10t-62 30.5t-44 50.5t-16.5 70v2q0 41 16 72t45.5 52t70 32t89.5 11q50 0 87 -6t72 -16v18q0 70 -40.5 105.5t-113.5 35.5q-39 0 -72 -8t-62 -21q-8 -3 -14 -3q-14 0 -24 9.5t-10 23.5q0 12 6.5 20.5t14.5 11.5q38 17 78.5 26t90.5 9q110 0 167 -57
q53 -53 53 -151v-283q0 -17 -10.5 -27.5t-26.5 -10.5q-17 0 -27 10.5t-10 25.5v47q-27 -35 -72.5 -62t-114.5 -27zM255 50q36 0 67.5 10.5t55 29t37 44t13.5 56.5v50q-29 8 -66.5 15t-85.5 7q-73 0 -112 -29t-39 -78v-2q0 -24 10.5 -43.5t28.5 -32.5t41.5 -20t49.5 -7z
M289 593q-21 0 -39.5 8t-33 21.5t-23 31.5t-8.5 38v2q0 20 8.5 38t23 31.5t33 21.5t39.5 8t39.5 -8t33 -21.5t23 -31.5t8.5 -38v-2q0 -20 -8.5 -38t-23 -31.5t-33 -21.5t-39.5 -8zM289 631q25 0 43.5 18t18.5 43v2q0 25 -18 43t-44 18t-44 -18t-18 -43v-2q0 -25 18.5 -43
t43.5 -18z" />
    <glyph glyph-name="aring.alt" horiz-adv-x="664" 
d="M335 593q-21 0 -39.5 8t-33 21.5t-23 31.5t-8.5 38v2q0 20 8.5 38t23 31.5t33 21.5t39.5 8t39.5 -8t33 -21.5t23 -31.5t8.5 -38v-2q0 -20 -8.5 -38t-23 -31.5t-33 -21.5t-39.5 -8zM335 631q25 0 43.5 18t18.5 43v2q0 25 -18 43t-44 18t-44 -18t-18 -43v-2q0 -25 18.5 -43
t43.5 -18zM501 483q0 16 10.5 27.5t27.5 11.5t28 -11.5t11 -27.5v-449q0 -17 -11 -28t-27 -11q-17 0 -28 11t-11 28v70q-16 -23 -35.5 -44t-43.5 -37t-53.5 -25t-65.5 -9q-47 0 -91 18t-79 52.5t-56 84t-21 113.5v2q0 63 21 113t56 84.5t79 53t91 18.5q36 0 66 -9t54 -24
t43.5 -35t34.5 -42v65zM317 459q-38 0 -71 -13.5t-57.5 -39t-39 -62.5t-14.5 -84v-2q0 -46 15 -83t40 -63t58 -40t69 -14t69.5 14.5t60 41t42 63t15.5 81.5v2q0 45 -15.5 81.5t-42 62.5t-60 40.5t-69.5 14.5z" />
    <glyph glyph-name="aring.alt2" 
d="M240 -11q-36 0 -70.5 10t-62 30.5t-44 50.5t-16.5 70v2q0 41 16 72t45.5 52t70 32t89.5 11q50 0 87 -6t72 -16v18q0 70 -40.5 105.5t-113.5 35.5q-39 0 -72 -8t-62 -21q-8 -3 -14 -3q-14 0 -24 9.5t-10 23.5q0 12 6.5 20.5t14.5 11.5q25 11 50.5 18.5t52.5 12.5
q-29 26 -29 66v2q0 21 8.5 39t23 31.5t33 21.5t39.5 8t39.5 -8t33 -21.5t23 -31.5t8.5 -39v-2q0 -22 -9.5 -40t-25.5 -31q53 -13 89 -48q53 -53 53 -151v-283q0 -17 -10.5 -27.5t-26.5 -10.5q-17 0 -27 10.5t-10 25.5v47q-27 -35 -72.5 -62t-114.5 -27zM255 50
q36 0 67.5 10.5t55 29t37 44t13.5 56.5v50q-29 8 -66.5 15t-85.5 7q-73 0 -112 -29t-39 -78v-2q0 -24 10.5 -43.5t28.5 -32.5t41.5 -20t49.5 -7zM290 525q25 0 43.5 18t18.5 43v2q0 25 -18 43t-44 18t-44 -18t-18 -43v-2q0 -25 18.5 -43t43.5 -18z" />
    <glyph glyph-name="Aringacute" unicode="&#x1fa;" horiz-adv-x="790" 
d="M393 897q-19 0 -19 14q0 8 5 15l60 91q15 23 36 23q18 0 36 -9.5t18 -20.5q0 -6 -4 -11.5t-10 -11.5l-75 -71q-12 -12 -22.5 -15.5t-24.5 -3.5zM732 50q3 -9 3 -16q0 -15 -11 -27t-28 -12q-14 0 -23 8.5t-15 20.5l-72 161h-385l-73 -163q-5 -11 -14 -19t-23 -8
q-16 0 -26.5 11.5t-10.5 25.5q0 5 1 8.5t3 8.5l288 631q-24 12 -39.5 35t-15.5 51v2q0 20 8.5 38t23 31.5t33 21.5t39.5 8t39.5 -8t33 -21.5t23 -31.5t8.5 -38v-2q0 -28 -15.5 -51t-39.5 -35zM395 705q25 0 43.5 18t18.5 43v2q0 25 -18 43t-44 18t-44 -18t-18 -43v-2
q0 -25 18.5 -43t43.5 -18zM554 257l-160 358l-162 -358h322z" />
    <glyph glyph-name="aringacute" unicode="&#x1fb;" 
d="M240 -11q-36 0 -70.5 10t-62 30.5t-44 50.5t-16.5 70v2q0 41 16 72t45.5 52t70 32t89.5 11q50 0 87 -6t72 -16v18q0 70 -40.5 105.5t-113.5 35.5q-39 0 -72 -8t-62 -21q-8 -3 -14 -3q-14 0 -24 9.5t-10 23.5q0 12 6.5 20.5t14.5 11.5q38 17 78.5 26t90.5 9q110 0 167 -57
q53 -53 53 -151v-283q0 -17 -10.5 -27.5t-26.5 -10.5q-17 0 -27 10.5t-10 25.5v47q-27 -35 -72.5 -62t-114.5 -27zM255 50q36 0 67.5 10.5t55 29t37 44t13.5 56.5v50q-29 8 -66.5 15t-85.5 7q-73 0 -112 -29t-39 -78v-2q0 -24 10.5 -43.5t28.5 -32.5t41.5 -20t49.5 -7z
M289 593q-21 0 -39.5 8t-33 21.5t-23 31.5t-8.5 38v2q0 20 8.5 38t23 31.5t33 21.5t39.5 8t39.5 -8t33 -21.5t23 -31.5t8.5 -38v-2q0 -20 -8.5 -38t-23 -31.5t-33 -21.5t-39.5 -8zM289 631q25 0 43.5 18t18.5 43v2q0 25 -18 43t-44 18t-44 -18t-18 -43v-2q0 -25 18.5 -43
t43.5 -18zM287 827q-19 0 -19 14q0 8 5 15l60 91q15 23 36 23q18 0 36 -9.5t18 -20.5q0 -6 -4 -11.5t-10 -11.5l-75 -71q-12 -12 -22.5 -15.5t-24.5 -3.5z" />
    <glyph glyph-name="aringacute.alt" horiz-adv-x="664" 
d="M333 827q-19 0 -19 14q0 8 5 15l60 91q15 23 36 23q18 0 36 -9.5t18 -20.5q0 -6 -4 -11.5t-10 -11.5l-75 -71q-12 -12 -22.5 -15.5t-24.5 -3.5zM335 593q-21 0 -39.5 8t-33 21.5t-23 31.5t-8.5 38v2q0 20 8.5 38t23 31.5t33 21.5t39.5 8t39.5 -8t33 -21.5t23 -31.5
t8.5 -38v-2q0 -20 -8.5 -38t-23 -31.5t-33 -21.5t-39.5 -8zM335 631q25 0 43.5 18t18.5 43v2q0 25 -18 43t-44 18t-44 -18t-18 -43v-2q0 -25 18.5 -43t43.5 -18zM501 483q0 16 10.5 27.5t27.5 11.5t28 -11.5t11 -27.5v-449q0 -17 -11 -28t-27 -11q-17 0 -28 11t-11 28v70
q-16 -23 -35.5 -44t-43.5 -37t-53.5 -25t-65.5 -9q-47 0 -91 18t-79 52.5t-56 84t-21 113.5v2q0 63 21 113t56 84.5t79 53t91 18.5q36 0 66 -9t54 -24t43.5 -35t34.5 -42v65zM317 459q-38 0 -71 -13.5t-57.5 -39t-39 -62.5t-14.5 -84v-2q0 -46 15 -83t40 -63t58 -40t69 -14
t69.5 14.5t60 41t42 63t15.5 81.5v2q0 45 -15.5 81.5t-42 62.5t-60 40.5t-69.5 14.5z" />
    <glyph glyph-name="aringacute.alt2" 
d="M240 -11q-36 0 -70.5 10t-62 30.5t-44 50.5t-16.5 70v2q0 41 16 72t45.5 52t70 32t89.5 11q50 0 87 -6t72 -16v18q0 70 -40.5 105.5t-113.5 35.5q-39 0 -72 -8t-62 -21q-8 -3 -14 -3q-14 0 -24 9.5t-10 23.5q0 12 6.5 20.5t14.5 11.5q25 11 50.5 18.5t52.5 12.5
q-29 26 -29 66v2q0 21 8.5 39t23 31.5t33 21.5t39.5 8t39.5 -8t33 -21.5t23 -31.5t8.5 -39v-2q0 -22 -9.5 -40t-25.5 -31q53 -13 89 -48q53 -53 53 -151v-283q0 -17 -10.5 -27.5t-26.5 -10.5q-17 0 -27 10.5t-10 25.5v47q-27 -35 -72.5 -62t-114.5 -27zM255 50
q36 0 67.5 10.5t55 29t37 44t13.5 56.5v50q-29 8 -66.5 15t-85.5 7q-73 0 -112 -29t-39 -78v-2q0 -24 10.5 -43.5t28.5 -32.5t41.5 -20t49.5 -7zM290 525q25 0 43.5 18t18.5 43v2q0 25 -18 43t-44 18t-44 -18t-18 -43v-2q0 -25 18.5 -43t43.5 -18zM287 721q-19 0 -19 14
q0 8 5 15l60 91q15 23 36 23q18 0 36 -9.5t18 -20.5q0 -6 -4 -11.5t-10 -11.5l-75 -71q-12 -12 -22.5 -15.5t-24.5 -3.5z" />
    <glyph glyph-name="Atilde" unicode="&#xc3;" horiz-adv-x="784" 
d="M51 31q0 11 5 21l284 621q8 17 19.5 26t30.5 9h4q35 0 49 -35l284 -620q5 -12 5 -20q0 -16 -11 -27t-27 -11q-14 0 -24 8.5t-15 20.5l-73 161h-384l-73 -163q-11 -27 -38 -27q-15 0 -25.5 10.5t-10.5 25.5zM551 257l-161 358l-161 -358h322zM284 777q-3 -6 -8.5 -11.5
t-14.5 -5.5q-11 0 -18.5 7t-7.5 17q0 3 1 8t2 8q15 44 35.5 62.5t52.5 18.5q17 0 35 -6.5t36 -14t34 -13.5t29 -6q17 0 27 8t19 27q3 6 9 11.5t14 5.5q11 0 18.5 -7t7.5 -17q0 -3 -1 -7.5t-2 -8.5q-15 -44 -35.5 -62.5t-52.5 -18.5q-17 0 -35 6t-36 13.5t-34 14t-29 6.5
q-17 0 -27 -8t-19 -27z" />
    <glyph glyph-name="atilde" unicode="&#xe3;" 
d="M240 -11q-36 0 -70.5 10t-62 30.5t-44 50.5t-16.5 70v2q0 41 16 72t45.5 52t70 32t89.5 11q50 0 87 -6t72 -16v18q0 70 -40.5 105.5t-113.5 35.5q-39 0 -72 -8t-62 -21q-8 -3 -14 -3q-14 0 -24 9.5t-10 23.5q0 12 6.5 20.5t14.5 11.5q38 17 78.5 26t90.5 9q110 0 167 -57
q53 -53 53 -151v-283q0 -17 -10.5 -27.5t-26.5 -10.5q-17 0 -27 10.5t-10 25.5v47q-27 -35 -72.5 -62t-114.5 -27zM255 50q36 0 67.5 10.5t55 29t37 44t13.5 56.5v50q-29 8 -66.5 15t-85.5 7q-73 0 -112 -29t-39 -78v-2q0 -24 10.5 -43.5t28.5 -32.5t41.5 -20t49.5 -7z
M182 600q-3 -6 -8.5 -11.5t-14.5 -5.5q-11 0 -18.5 7t-7.5 17q0 3 1 8t2 8q15 44 35.5 62.5t52.5 18.5q17 0 35 -6.5t36 -14t34 -13.5t29 -6q17 0 27 8t19 27q3 6 9 11.5t14 5.5q11 0 18.5 -7t7.5 -17q0 -3 -1 -7.5t-2 -8.5q-15 -44 -35.5 -62.5t-52.5 -18.5q-17 0 -35 6
t-36 13.5t-34 14t-29 6.5q-17 0 -27 -8t-19 -27z" />
    <glyph glyph-name="atilde.alt" horiz-adv-x="664" 
d="M501 483q0 16 10.5 27.5t27.5 11.5t28 -11.5t11 -27.5v-449q0 -17 -11 -28t-27 -11q-17 0 -28 11t-11 28v70q-16 -23 -35.5 -44t-43.5 -37t-53.5 -25t-65.5 -9q-47 0 -91 18t-79 52.5t-56 84t-21 113.5v2q0 63 21 113t56 84.5t79 53t91 18.5q36 0 66 -9t54 -24t43.5 -35
t34.5 -42v65zM317 459q-38 0 -71 -13.5t-57.5 -39t-39 -62.5t-14.5 -84v-2q0 -46 15 -83t40 -63t58 -40t69 -14t69.5 14.5t60 41t42 63t15.5 81.5v2q0 45 -15.5 81.5t-42 62.5t-60 40.5t-69.5 14.5zM228 600q-3 -6 -8.5 -11.5t-14.5 -5.5q-11 0 -18.5 7t-7.5 17q0 3 1 8t2 8
q15 44 35.5 62.5t52.5 18.5q17 0 35 -6.5t36 -14t34 -13.5t29 -6q17 0 27 8t19 27q3 6 9 11.5t14 5.5q11 0 18.5 -7t7.5 -17q0 -3 -1 -7.5t-2 -8.5q-15 -44 -35.5 -62.5t-52.5 -18.5q-17 0 -35 6t-36 13.5t-34 14t-29 6.5q-17 0 -27 -8t-19 -27z" />
    <glyph glyph-name="Cacute" unicode="&#x106;" horiz-adv-x="738" 
d="M412 768q-19 0 -19 14q0 8 5 15l60 91q15 23 36 23q18 0 36 -9.5t18 -20.5q0 -6 -4 -11.5t-10 -11.5l-75 -71q-12 -12 -22.5 -15.5t-24.5 -3.5zM419 -12q-76 0 -140 28t-111 76.5t-73.5 114.5t-26.5 141v2q0 74 26.5 140t73.5 115.5t112 78t142 28.5q85 0 143 -25
t107 -66q6 -5 11 -13t5 -19q0 -16 -12 -27.5t-28 -11.5q-8 0 -14.5 3t-11.5 6q-41 36 -88.5 58t-112.5 22q-58 0 -107.5 -22t-86 -61t-57 -91.5t-20.5 -112.5v-2q0 -61 20.5 -113.5t57 -91.5t86 -61.5t107.5 -22.5q66 0 114.5 21.5t93.5 63.5q11 11 25 11q15 0 26.5 -11.5
t11.5 -26.5q0 -9 -4 -16t-9 -12q-26 -24 -53.5 -43t-59 -32.5t-68 -20.5t-79.5 -7z" />
    <glyph glyph-name="cacute" unicode="&#x107;" horiz-adv-x="571" 
d="M311 591q-19 0 -19 14q0 8 5 15l60 91q15 23 36 23q18 0 36 -9.5t18 -20.5q0 -6 -4 -11.5t-10 -11.5l-75 -71q-12 -12 -22.5 -15.5t-24.5 -3.5zM319 -12q-57 0 -105.5 21.5t-84 58t-55.5 85.5t-20 103v2q0 55 20 104t55.5 86t84 58.5t105.5 21.5q65 0 110 -21.5t80 -53.5
q5 -4 8.5 -11t3.5 -16q0 -16 -11 -26.5t-26 -10.5q-14 0 -25 9q-28 26 -61 44t-80 18q-39 0 -73 -15.5t-59 -42.5t-39 -63.5t-14 -78.5v-2q0 -42 14.5 -78.5t40 -64t60 -43t75.5 -15.5q45 0 80 18t64 45q4 4 9 7t13 3q14 0 24.5 -10.5t10.5 -24.5t-10 -24q-37 -37 -83 -60
t-112 -23z" />
    <glyph glyph-name="Ccaron" unicode="&#x10c;" horiz-adv-x="738" 
d="M474 889q13 11 23.5 14.5t24.5 3.5q18 0 18 -14q0 -6 -7 -16l-70 -86q-8 -11 -17 -17t-23 -6h-18q-14 0 -23 6t-17 17l-70 86q-7 10 -7 16q0 14 19 14q14 0 25 -3.5t24 -14.5l59 -53zM419 -12q-76 0 -140 28t-111 76.5t-73.5 114.5t-26.5 141v2q0 74 26.5 140t73.5 115.5
t112 78t142 28.5q85 0 143 -25t107 -66q6 -5 11 -13t5 -19q0 -16 -12 -27.5t-28 -11.5q-8 0 -14.5 3t-11.5 6q-41 36 -88.5 58t-112.5 22q-58 0 -107.5 -22t-86 -61t-57 -91.5t-20.5 -112.5v-2q0 -61 20.5 -113.5t57 -91.5t86 -61.5t107.5 -22.5q66 0 114.5 21.5t93.5 63.5
q11 11 25 11q15 0 26.5 -11.5t11.5 -26.5q0 -9 -4 -16t-9 -12q-26 -24 -53.5 -43t-59 -32.5t-68 -20.5t-79.5 -7z" />
    <glyph glyph-name="ccaron" unicode="&#x10d;" horiz-adv-x="571" 
d="M374 712q13 11 23.5 14.5t24.5 3.5q18 0 18 -14q0 -6 -7 -16l-70 -86q-8 -11 -17 -17t-23 -6h-18q-14 0 -23 6t-17 17l-70 86q-7 10 -7 16q0 14 19 14q14 0 25 -3.5t24 -14.5l59 -53zM319 -12q-57 0 -105.5 21.5t-84 58t-55.5 85.5t-20 103v2q0 55 20 104t55.5 86
t84 58.5t105.5 21.5q65 0 110 -21.5t80 -53.5q5 -4 8.5 -11t3.5 -16q0 -16 -11 -26.5t-26 -10.5q-14 0 -25 9q-28 26 -61 44t-80 18q-39 0 -73 -15.5t-59 -42.5t-39 -63.5t-14 -78.5v-2q0 -42 14.5 -78.5t40 -64t60 -43t75.5 -15.5q45 0 80 18t64 45q4 4 9 7t13 3
q14 0 24.5 -10.5t10.5 -24.5t-10 -24q-37 -37 -83 -60t-112 -23z" />
    <glyph glyph-name="Ccedilla" unicode="&#xc7;" horiz-adv-x="738" 
d="M679 91q-50 -45 -107 -72.5t-137 -30.5l-53 -114q-5 -11 -11.5 -17t-19.5 -6q-7 0 -15.5 3t-15.5 7.5t-12 10t-5 11.5q0 7 6 18l62 90q-66 9 -122 39.5t-96 78t-62.5 109t-22.5 130.5v2q0 74 26.5 140t73.5 115.5t112 78t142 28.5q85 0 143 -25t107 -66q6 -5 11 -13
t5 -19q0 -16 -12 -27.5t-28 -11.5q-8 0 -14.5 3t-11.5 6q-41 36 -88.5 58t-112.5 22q-58 0 -107.5 -22t-86 -61t-57 -91.5t-20.5 -112.5v-2q0 -61 20.5 -113.5t57 -91.5t86 -61.5t107.5 -22.5q66 0 114.5 21.5t93.5 63.5q11 11 25 11q15 0 26.5 -11.5t11.5 -26.5
q0 -9 -4 -16t-9 -12z" />
    <glyph glyph-name="ccedilla" unicode="&#xe7;" horiz-adv-x="571" 
d="M514 71q-35 -35 -77.5 -57.5t-102.5 -24.5l-53 -115q-5 -11 -11.5 -17t-19.5 -6q-7 0 -15.5 3t-15.5 7.5t-12 10t-5 11.5q0 7 6 18l63 92q-48 8 -87.5 32t-68.5 59.5t-45 79.5t-16 92v2q0 55 20 104t55.5 86t84 58.5t105.5 21.5q65 0 110 -21.5t80 -53.5q5 -4 8.5 -11
t3.5 -16q0 -16 -11 -26.5t-26 -10.5q-14 0 -25 9q-28 26 -61 44t-80 18q-39 0 -73 -15.5t-59 -42.5t-39 -63.5t-14 -78.5v-2q0 -42 14.5 -78.5t40 -64t60 -43t75.5 -15.5q45 0 80 18t64 45q4 4 9 7t13 3q14 0 24.5 -10.5t10.5 -24.5t-10 -24z" />
    <glyph glyph-name="Cdotaccent" unicode="&#x10a;" horiz-adv-x="738" 
d="M419 -12q-76 0 -140 28t-111 76.5t-73.5 114.5t-26.5 141v2q0 74 26.5 140t73.5 115.5t112 78t142 28.5q85 0 143 -25t107 -66q6 -5 11 -13t5 -19q0 -16 -12 -27.5t-28 -11.5q-8 0 -14.5 3t-11.5 6q-41 36 -88.5 58t-112.5 22q-58 0 -107.5 -22t-86 -61t-57 -91.5
t-20.5 -112.5v-2q0 -61 20.5 -113.5t57 -91.5t86 -61.5t107.5 -22.5q66 0 114.5 21.5t93.5 63.5q11 11 25 11q15 0 26.5 -11.5t11.5 -26.5q0 -9 -4 -16t-9 -12q-26 -24 -53.5 -43t-59 -32.5t-68 -20.5t-79.5 -7zM462 813q0 -20 -14 -33t-34 -13t-34 13t-14 33v14
q0 20 14 32.5t34 12.5t34 -12.5t14 -32.5v-14z" />
    <glyph glyph-name="cdotaccent" unicode="&#x10b;" horiz-adv-x="571" 
d="M319 -12q-57 0 -105.5 21.5t-84 58t-55.5 85.5t-20 103v2q0 55 20 104t55.5 86t84 58.5t105.5 21.5q65 0 110 -21.5t80 -53.5q5 -4 8.5 -11t3.5 -16q0 -16 -11 -26.5t-26 -10.5q-14 0 -25 9q-28 26 -61 44t-80 18q-39 0 -73 -15.5t-59 -42.5t-39 -63.5t-14 -78.5v-2
q0 -42 14.5 -78.5t40 -64t60 -43t75.5 -15.5q45 0 80 18t64 45q4 4 9 7t13 3q14 0 24.5 -10.5t10.5 -24.5t-10 -24q-37 -37 -83 -60t-112 -23zM362 636q0 -20 -14 -33t-34 -13t-34 13t-14 33v14q0 20 14 32.5t34 12.5t34 -12.5t14 -32.5v-14z" />
    <glyph glyph-name="Dcaron" unicode="&#x10e;" horiz-adv-x="782" 
d="M435 879q13 11 23.5 14.5t24.5 3.5q18 0 18 -14q0 -6 -7 -16l-70 -86q-8 -11 -17 -17t-23 -6h-18q-14 0 -23 6t-17 17l-70 86q-7 10 -7 16q0 14 19 14q14 0 25 -3.5t24 -14.5l59 -53zM99 660q0 17 11.5 28.5t27.5 11.5h204q82 0 150.5 -26.5t118 -73.5t76.5 -110.5
t27 -137.5v-2q0 -74 -27 -138t-76.5 -111t-118 -74t-150.5 -27h-204q-16 0 -27.5 11.5t-11.5 28.5v620zM342 73q66 0 120 21t91.5 58t58 87.5t20.5 108.5v2q0 58 -20.5 108.5t-58 88t-91.5 59t-120 21.5h-164v-554h164z" />
    <glyph glyph-name="dcaron" unicode="&#x10f;" horiz-adv-x="664" 
d="M651 702q3 32 34 32h15q22 0 22 -21q0 -9 -5 -24l-35 -106q-6 -20 -22 -20q-8 0 -14 5t-4 18zM578 34q0 -17 -11 -28t-27 -11q-17 0 -28 11t-11 28v70q-16 -23 -35.5 -44t-43.5 -37t-53.5 -25t-65.5 -9q-47 0 -91 18t-79 52.5t-56 84t-21 113.5v2q0 63 21 113t56 84.5
t79 53t91 18.5q36 0 66 -9t54 -24t43.5 -35t34.5 -42v278q0 17 10.5 28t27.5 11t28 -11t11 -28v-662zM317 459q-38 0 -71 -13.5t-57.5 -39t-39 -62.5t-14.5 -84v-2q0 -46 15 -83t40 -63t58 -40t69 -14t69.5 14.5t60 41t42 63t15.5 81.5v2q0 45 -15.5 81.5t-42 62.5t-60 40.5
t-69.5 14.5z" />
    <glyph glyph-name="Dcroat" unicode="&#x110;" horiz-adv-x="812" 
d="M129 388v272q0 17 11.5 28.5t27.5 11.5h204q82 0 150.5 -26.5t118 -73.5t76.5 -110.5t27 -137.5v-2q0 -74 -27 -138t-76.5 -111t-118 -74t-150.5 -27h-204q-16 0 -27.5 11.5t-11.5 28.5v276h-44q-15 0 -25.5 10.5t-10.5 25.5t10.5 25.5t25.5 10.5h44zM208 388h179
q14 0 25 -10.5t11 -25.5t-11 -25.5t-25 -10.5h-179v-243h164q66 0 120 21t91.5 58t58 87.5t20.5 108.5v2q0 58 -20.5 108.5t-58 88t-91.5 59t-120 21.5h-164v-239z" />
    <glyph glyph-name="dcroat" unicode="&#x111;" horiz-adv-x="664" 
d="M578 667h46q11 0 19.5 -8t8.5 -19t-8.5 -19.5t-19.5 -8.5h-46v-578q0 -17 -11 -28t-27 -11q-17 0 -28 11t-11 28v70q-16 -23 -35.5 -44t-43.5 -37t-53.5 -25t-65.5 -9q-47 0 -91 18t-79 52.5t-56 84t-21 113.5v2q0 63 21 113t56 84.5t79 53t91 18.5q36 0 66 -9t54 -24
t43.5 -35t34.5 -42v194h-154q-11 0 -19 8.5t-8 19.5t8 19t19 8h154v29q0 17 10.5 28t27.5 11t28 -11t11 -28v-29zM317 459q-38 0 -71 -13.5t-57.5 -39t-39 -62.5t-14.5 -84v-2q0 -46 15 -83t40 -63t58 -40t69 -14t69.5 14.5t60 41t42 63t15.5 81.5v2q0 45 -15.5 81.5
t-42 62.5t-60 40.5t-69.5 14.5z" />
    <glyph glyph-name="Eacute" unicode="&#xc9;" horiz-adv-x="670" 
d="M351 758q-19 0 -19 14q0 8 5 15l60 91q15 23 36 23q18 0 36 -9.5t18 -20.5q0 -6 -4 -11.5t-10 -11.5l-75 -71q-12 -12 -22.5 -15.5t-24.5 -3.5zM138 0q-16 0 -27.5 11.5t-11.5 28.5v620q0 17 11.5 28.5t27.5 11.5h435q15 0 25.5 -10.5t10.5 -25.5t-10.5 -25.5
t-25.5 -10.5h-395v-239h350q15 0 25.5 -11t10.5 -25q0 -15 -10.5 -25.5t-25.5 -10.5h-350v-245h400q15 0 25.5 -10.5t10.5 -25.5t-10.5 -25.5t-25.5 -10.5h-440z" />
    <glyph glyph-name="eacute" unicode="&#xe9;" horiz-adv-x="592" 
d="M299 591q-19 0 -19 14q0 8 5 15l60 91q15 23 36 23q18 0 36 -9.5t18 -20.5q0 -6 -4 -11.5t-10 -11.5l-75 -71q-12 -12 -22.5 -15.5t-24.5 -3.5zM465 287q-3 35 -14.5 67t-32 56t-50 38.5t-68.5 14.5q-34 0 -63 -13.5t-51 -37t-36 -55.5t-18 -70h333zM507 66
q-37 -35 -83 -56.5t-112 -21.5q-53 0 -100 19.5t-82 55t-55.5 85t-20.5 109.5v2q0 56 18.5 105t51.5 85.5t78.5 57.5t99.5 21q57 0 102 -21.5t75.5 -58t46.5 -84t16 -98.5q0 -16 -11 -26t-25 -10h-374q4 -42 20 -74.5t40.5 -55t55.5 -34t66 -11.5q48 0 84 17t65 43
q11 9 22 9q14 0 24 -9.5t10 -23.5q0 -15 -12 -25z" />
    <glyph glyph-name="Ebreve" unicode="&#x114;" horiz-adv-x="670" 
d="M138 0q-16 0 -27.5 11.5t-11.5 28.5v620q0 17 11.5 28.5t27.5 11.5h435q15 0 25.5 -10.5t10.5 -25.5t-10.5 -25.5t-25.5 -10.5h-395v-239h350q15 0 25.5 -11t10.5 -25q0 -15 -10.5 -25.5t-25.5 -10.5h-350v-245h400q15 0 25.5 -10.5t10.5 -25.5t-10.5 -25.5t-25.5 -10.5
h-440zM353 760q-92 0 -132 73q-5 8 -7.5 17.5t-2.5 17.5q0 13 7.5 21.5t20.5 8.5q11 0 17 -5.5t11 -13.5q10 -24 30.5 -39.5t55.5 -15.5t55.5 15.5t30.5 39.5q5 8 11 13.5t17 5.5q13 0 20.5 -8.5t7.5 -21.5q0 -8 -2.5 -17.5t-7.5 -17.5q-40 -73 -132 -73z" />
    <glyph glyph-name="ebreve" unicode="&#x115;" horiz-adv-x="592" 
d="M465 287q-3 35 -14.5 67t-32 56t-50 38.5t-68.5 14.5q-34 0 -63 -13.5t-51 -37t-36 -55.5t-18 -70h333zM507 66q-37 -35 -83 -56.5t-112 -21.5q-53 0 -100 19.5t-82 55t-55.5 85t-20.5 109.5v2q0 56 18.5 105t51.5 85.5t78.5 57.5t99.5 21q57 0 102 -21.5t75.5 -58
t46.5 -84t16 -98.5q0 -16 -11 -26t-25 -10h-374q4 -42 20 -74.5t40.5 -55t55.5 -34t66 -11.5q48 0 84 17t65 43q11 9 22 9q14 0 24 -9.5t10 -23.5q0 -15 -12 -25zM301 593q-92 0 -132 73q-5 8 -7.5 17.5t-2.5 17.5q0 13 7.5 21.5t20.5 8.5q11 0 17 -5.5t11 -13.5
q10 -24 30.5 -39.5t55.5 -15.5t55.5 15.5t30.5 39.5q5 8 11 13.5t17 5.5q13 0 20.5 -8.5t7.5 -21.5q0 -8 -2.5 -17.5t-7.5 -17.5q-40 -73 -132 -73z" />
    <glyph glyph-name="Ecaron" unicode="&#x11a;" horiz-adv-x="670" 
d="M413 879q13 11 23.5 14.5t24.5 3.5q18 0 18 -14q0 -6 -7 -16l-70 -86q-8 -11 -17 -17t-23 -6h-18q-14 0 -23 6t-17 17l-70 86q-7 10 -7 16q0 14 19 14q14 0 25 -3.5t24 -14.5l59 -53zM138 0q-16 0 -27.5 11.5t-11.5 28.5v620q0 17 11.5 28.5t27.5 11.5h435
q15 0 25.5 -10.5t10.5 -25.5t-10.5 -25.5t-25.5 -10.5h-395v-239h350q15 0 25.5 -11t10.5 -25q0 -15 -10.5 -25.5t-25.5 -10.5h-350v-245h400q15 0 25.5 -10.5t10.5 -25.5t-10.5 -25.5t-25.5 -10.5h-440z" />
    <glyph glyph-name="ecaron" unicode="&#x11b;" horiz-adv-x="592" 
d="M361 712q13 11 23.5 14.5t24.5 3.5q18 0 18 -14q0 -6 -7 -16l-70 -86q-8 -11 -17 -17t-23 -6h-18q-14 0 -23 6t-17 17l-70 86q-7 10 -7 16q0 14 19 14q14 0 25 -3.5t24 -14.5l59 -53zM465 287q-3 35 -14.5 67t-32 56t-50 38.5t-68.5 14.5q-34 0 -63 -13.5t-51 -37
t-36 -55.5t-18 -70h333zM507 66q-37 -35 -83 -56.5t-112 -21.5q-53 0 -100 19.5t-82 55t-55.5 85t-20.5 109.5v2q0 56 18.5 105t51.5 85.5t78.5 57.5t99.5 21q57 0 102 -21.5t75.5 -58t46.5 -84t16 -98.5q0 -16 -11 -26t-25 -10h-374q4 -42 20 -74.5t40.5 -55t55.5 -34
t66 -11.5q48 0 84 17t65 43q11 9 22 9q14 0 24 -9.5t10 -23.5q0 -15 -12 -25z" />
    <glyph glyph-name="Ecircumflex" unicode="&#xca;" horiz-adv-x="670" 
d="M293 777q-13 -12 -23.5 -15.5t-24.5 -3.5q-18 0 -18 14q0 5 7 17l70 86q8 10 17 16t23 6h18q14 0 23 -6t17 -16l70 -86q7 -12 7 -17q0 -14 -19 -14q-14 0 -25 3.5t-24 15.5l-59 52zM138 0q-16 0 -27.5 11.5t-11.5 28.5v620q0 17 11.5 28.5t27.5 11.5h435q15 0 25.5 -10.5
t10.5 -25.5t-10.5 -25.5t-25.5 -10.5h-395v-239h350q15 0 25.5 -11t10.5 -25q0 -15 -10.5 -25.5t-25.5 -10.5h-350v-245h400q15 0 25.5 -10.5t10.5 -25.5t-10.5 -25.5t-25.5 -10.5h-440z" />
    <glyph glyph-name="ecircumflex" unicode="&#xea;" horiz-adv-x="592" 
d="M241 610q-13 -12 -23.5 -15.5t-24.5 -3.5q-18 0 -18 14q0 5 7 17l70 86q8 10 17 16t23 6h18q14 0 23 -6t17 -16l70 -86q7 -12 7 -17q0 -14 -19 -14q-14 0 -25 3.5t-24 15.5l-59 52zM465 287q-3 35 -14.5 67t-32 56t-50 38.5t-68.5 14.5q-34 0 -63 -13.5t-51 -37
t-36 -55.5t-18 -70h333zM507 66q-37 -35 -83 -56.5t-112 -21.5q-53 0 -100 19.5t-82 55t-55.5 85t-20.5 109.5v2q0 56 18.5 105t51.5 85.5t78.5 57.5t99.5 21q57 0 102 -21.5t75.5 -58t46.5 -84t16 -98.5q0 -16 -11 -26t-25 -10h-374q4 -42 20 -74.5t40.5 -55t55.5 -34
t66 -11.5q48 0 84 17t65 43q11 9 22 9q14 0 24 -9.5t10 -23.5q0 -15 -12 -25z" />
    <glyph glyph-name="Edieresis" unicode="&#xcb;" horiz-adv-x="670" 
d="M442 862q20 0 33.5 -12.5t13.5 -32.5v-15q0 -20 -13.5 -32.5t-33.5 -12.5t-33.5 12.5t-13.5 32.5v15q0 20 13.5 32.5t33.5 12.5zM264 862q20 0 33.5 -12.5t13.5 -32.5v-15q0 -20 -13.5 -32.5t-33.5 -12.5t-33.5 12.5t-13.5 32.5v15q0 20 13.5 32.5t33.5 12.5zM138 0
q-16 0 -27.5 11.5t-11.5 28.5v620q0 17 11.5 28.5t27.5 11.5h435q15 0 25.5 -10.5t10.5 -25.5t-10.5 -25.5t-25.5 -10.5h-395v-239h350q15 0 25.5 -11t10.5 -25q0 -15 -10.5 -25.5t-25.5 -10.5h-350v-245h400q15 0 25.5 -10.5t10.5 -25.5t-10.5 -25.5t-25.5 -10.5h-440z" />
    <glyph glyph-name="edieresis" unicode="&#xeb;" horiz-adv-x="592" 
d="M390 695q20 0 33.5 -12.5t13.5 -32.5v-15q0 -20 -13.5 -32.5t-33.5 -12.5t-33.5 12.5t-13.5 32.5v15q0 20 13.5 32.5t33.5 12.5zM212 695q20 0 33.5 -12.5t13.5 -32.5v-15q0 -20 -13.5 -32.5t-33.5 -12.5t-33.5 12.5t-13.5 32.5v15q0 20 13.5 32.5t33.5 12.5zM465 287
q-3 35 -14.5 67t-32 56t-50 38.5t-68.5 14.5q-34 0 -63 -13.5t-51 -37t-36 -55.5t-18 -70h333zM507 66q-37 -35 -83 -56.5t-112 -21.5q-53 0 -100 19.5t-82 55t-55.5 85t-20.5 109.5v2q0 56 18.5 105t51.5 85.5t78.5 57.5t99.5 21q57 0 102 -21.5t75.5 -58t46.5 -84
t16 -98.5q0 -16 -11 -26t-25 -10h-374q4 -42 20 -74.5t40.5 -55t55.5 -34t66 -11.5q48 0 84 17t65 43q11 9 22 9q14 0 24 -9.5t10 -23.5q0 -15 -12 -25z" />
    <glyph glyph-name="Edotaccent" unicode="&#x116;" horiz-adv-x="670" 
d="M138 0q-16 0 -27.5 11.5t-11.5 28.5v620q0 17 11.5 28.5t27.5 11.5h435q15 0 25.5 -10.5t10.5 -25.5t-10.5 -25.5t-25.5 -10.5h-395v-239h350q15 0 25.5 -11t10.5 -25q0 -15 -10.5 -25.5t-25.5 -10.5h-350v-245h400q15 0 25.5 -10.5t10.5 -25.5t-10.5 -25.5t-25.5 -10.5
h-440zM401 803q0 -20 -14 -33t-34 -13t-34 13t-14 33v14q0 20 14 32.5t34 12.5t34 -12.5t14 -32.5v-14z" />
    <glyph glyph-name="edotaccent" unicode="&#x117;" horiz-adv-x="592" 
d="M465 287q-3 35 -14.5 67t-32 56t-50 38.5t-68.5 14.5q-34 0 -63 -13.5t-51 -37t-36 -55.5t-18 -70h333zM507 66q-37 -35 -83 -56.5t-112 -21.5q-53 0 -100 19.5t-82 55t-55.5 85t-20.5 109.5v2q0 56 18.5 105t51.5 85.5t78.5 57.5t99.5 21q57 0 102 -21.5t75.5 -58
t46.5 -84t16 -98.5q0 -16 -11 -26t-25 -10h-374q4 -42 20 -74.5t40.5 -55t55.5 -34t66 -11.5q48 0 84 17t65 43q11 9 22 9q14 0 24 -9.5t10 -23.5q0 -15 -12 -25zM349 636q0 -20 -14 -33t-34 -13t-34 13t-14 33v14q0 20 14 32.5t34 12.5t34 -12.5t14 -32.5v-14z" />
    <glyph glyph-name="Egrave" unicode="&#xc8;" horiz-adv-x="670" 
d="M138 0q-16 0 -27.5 11.5t-11.5 28.5v620q0 17 11.5 28.5t27.5 11.5h435q15 0 25.5 -10.5t10.5 -25.5t-10.5 -25.5t-25.5 -10.5h-395v-239h350q15 0 25.5 -11t10.5 -25q0 -15 -10.5 -25.5t-25.5 -10.5h-350v-245h400q15 0 25.5 -10.5t10.5 -25.5t-10.5 -25.5t-25.5 -10.5
h-440zM355 758q-14 0 -24.5 3.5t-22.5 15.5l-75 71q-6 6 -10 11.5t-4 11.5q0 11 18 20.5t36 9.5q21 0 36 -23l60 -91q5 -7 5 -15q0 -14 -19 -14z" />
    <glyph glyph-name="egrave" unicode="&#xe8;" horiz-adv-x="592" 
d="M465 287q-3 35 -14.5 67t-32 56t-50 38.5t-68.5 14.5q-34 0 -63 -13.5t-51 -37t-36 -55.5t-18 -70h333zM507 66q-37 -35 -83 -56.5t-112 -21.5q-53 0 -100 19.5t-82 55t-55.5 85t-20.5 109.5v2q0 56 18.5 105t51.5 85.5t78.5 57.5t99.5 21q57 0 102 -21.5t75.5 -58
t46.5 -84t16 -98.5q0 -16 -11 -26t-25 -10h-374q4 -42 20 -74.5t40.5 -55t55.5 -34t66 -11.5q48 0 84 17t65 43q11 9 22 9q14 0 24 -9.5t10 -23.5q0 -15 -12 -25zM303 591q-14 0 -24.5 3.5t-22.5 15.5l-75 71q-6 6 -10 11.5t-4 11.5q0 11 18 20.5t36 9.5q21 0 36 -23l60 -91
q5 -7 5 -15q0 -14 -19 -14z" />
    <glyph glyph-name="Emacron" unicode="&#x112;" horiz-adv-x="670" 
d="M138 0q-16 0 -27.5 11.5t-11.5 28.5v620q0 17 11.5 28.5t27.5 11.5h435q15 0 25.5 -10.5t10.5 -25.5t-10.5 -25.5t-25.5 -10.5h-395v-239h350q15 0 25.5 -11t10.5 -25q0 -15 -10.5 -25.5t-25.5 -10.5h-350v-245h400q15 0 25.5 -10.5t10.5 -25.5t-10.5 -25.5t-25.5 -10.5
h-440zM221 782q-14 0 -23 9.5t-9 22.5t9 22.5t23 9.5h264q14 0 23 -9.5t9 -22.5t-9 -22.5t-23 -9.5h-264z" />
    <glyph glyph-name="emacron" unicode="&#x113;" horiz-adv-x="592" 
d="M465 287q-3 35 -14.5 67t-32 56t-50 38.5t-68.5 14.5q-34 0 -63 -13.5t-51 -37t-36 -55.5t-18 -70h333zM507 66q-37 -35 -83 -56.5t-112 -21.5q-53 0 -100 19.5t-82 55t-55.5 85t-20.5 109.5v2q0 56 18.5 105t51.5 85.5t78.5 57.5t99.5 21q57 0 102 -21.5t75.5 -58
t46.5 -84t16 -98.5q0 -16 -11 -26t-25 -10h-374q4 -42 20 -74.5t40.5 -55t55.5 -34t66 -11.5q48 0 84 17t65 43q11 9 22 9q14 0 24 -9.5t10 -23.5q0 -15 -12 -25zM169 615q-14 0 -23 9.5t-9 22.5t9 22.5t23 9.5h264q14 0 23 -9.5t9 -22.5t-9 -22.5t-23 -9.5h-264z" />
    <glyph glyph-name="Eogonek" unicode="&#x118;" horiz-adv-x="670" 
d="M138 0q-16 0 -27.5 11.5t-11.5 28.5v620q0 17 11.5 28.5t27.5 11.5h435q15 0 25.5 -10.5t10.5 -25.5t-10.5 -25.5t-25.5 -10.5h-395v-239h350q15 0 25.5 -11t10.5 -25q0 -15 -10.5 -25.5t-25.5 -10.5h-350v-245h399q17 0 27 -9.5t10 -23.5q0 -13 -5.5 -21t-16.5 -16
q-29 -23 -42 -39.5t-13 -36.5t12.5 -29t35.5 -14q17 -3 23.5 -9t6.5 -15q0 -23 -28 -23q-14 0 -33.5 3t-38.5 12t-32 24.5t-13 40.5q0 23 13.5 43.5t37.5 40.5h-383v0z" />
    <glyph glyph-name="eogonek" unicode="&#x119;" horiz-adv-x="592" 
d="M542 266q0 -16 -11 -26t-25 -10h-374q4 -42 20 -74.5t40.5 -55t55.5 -34t66 -11.5q48 0 84 17t65 43q11 9 22 9q14 0 24 -9.5t10 -23.5q0 -15 -12 -25q-11 -11 -19 -18t-21 -18q-39 -34 -52 -55.5t-13 -41.5q0 -24 13.5 -34.5t36.5 -15.5q17 -3 23.5 -9t6.5 -15
q0 -23 -28 -23q-20 0 -41 4.5t-38 14.5t-27.5 26t-10.5 39q0 38 36 74q-29 -6 -61 -6q-53 0 -100 19.5t-82 55t-55.5 85t-20.5 109.5v2q0 56 18.5 105t51.5 85.5t78.5 57.5t99.5 21q57 0 102 -21.5t75.5 -58t46.5 -84t16 -98.5zM465 287q-3 35 -14.5 67t-32 56t-50 38.5
t-68.5 14.5q-34 0 -63 -13.5t-51 -37t-36 -55.5t-18 -70h333z" />
    <glyph glyph-name="Eth" unicode="&#xd0;" horiz-adv-x="812" 
d="M129 388v272q0 17 11.5 28.5t27.5 11.5h204q82 0 150.5 -26.5t118 -73.5t76.5 -110.5t27 -137.5v-2q0 -74 -27 -138t-76.5 -111t-118 -74t-150.5 -27h-204q-16 0 -27.5 11.5t-11.5 28.5v276h-44q-15 0 -25.5 10.5t-10.5 25.5t10.5 25.5t25.5 10.5h44zM208 388h179
q14 0 25 -10.5t11 -25.5t-11 -25.5t-25 -10.5h-179v-243h164q66 0 120 21t91.5 58t58 87.5t20.5 108.5v2q0 58 -20.5 108.5t-58 88t-91.5 59t-120 21.5h-164v-239z" />
    <glyph glyph-name="eth" unicode="&#xf0;" horiz-adv-x="633" 
d="M322 614l-116 -56q-8 -3 -14 -3q-12 0 -20 8.5t-8 20.5q0 10 5 16t13 10l107 50l-10 15q-8 11 -8 24q0 15 10.5 25.5t26.5 10.5q11 0 19 -5t13 -13l17 -25l87 41q6 3 14 3q11 0 19.5 -8.5t8.5 -20.5q0 -10 -5.5 -16t-13.5 -10l-78 -36l101 -149q21 -30 37.5 -59t27.5 -58
t17 -60.5t6 -66.5q0 -53 -18.5 -101t-53 -84t-84 -57.5t-110.5 -21.5q-56 0 -103 20.5t-81.5 55.5t-54 82t-19.5 100q0 54 19 98t51.5 75.5t75.5 49t91 17.5q54 0 91.5 -16t70.5 -39zM499 244q0 37 -14.5 70t-40 57.5t-60 39t-75.5 14.5t-73.5 -14t-55.5 -38.5t-35.5 -58
t-12.5 -71.5q0 -37 13.5 -70.5t38.5 -59.5t58.5 -41.5t74.5 -15.5t74.5 15t57.5 41t37 60t13 72z" />
    <glyph glyph-name="Gbreve" unicode="&#x11e;" horiz-adv-x="784" 
d="M424 -12q-83 0 -148.5 28t-112 77t-71 114.5t-24.5 140.5v2q0 72 25.5 137.5t71.5 115.5t110.5 79.5t143.5 29.5q80 0 135.5 -20t103.5 -55q7 -5 11.5 -13t4.5 -19q0 -17 -11.5 -28.5t-27.5 -11.5q-12 0 -25 10q-38 29 -83 46.5t-111 17.5q-58 0 -107 -23t-84 -62
t-55 -91.5t-20 -110.5v-2q0 -63 19.5 -116t55.5 -92t87 -61t115 -22q60 0 113 20.5t89 49.5v174h-188q-14 0 -24.5 10.5t-10.5 24.5q0 15 10.5 25.5t24.5 10.5h225q16 0 27.5 -11.5t11.5 -28.5v-213q0 -30 -27 -48q-48 -35 -112 -60t-142 -25zM412 770q-92 0 -132 73
q-5 8 -7.5 17.5t-2.5 17.5q0 13 7.5 21.5t20.5 8.5q11 0 17 -5.5t11 -13.5q10 -24 30.5 -39.5t55.5 -15.5t55.5 15.5t30.5 39.5q5 8 11 13.5t17 5.5q13 0 20.5 -8.5t7.5 -21.5q0 -8 -2.5 -17.5t-7.5 -17.5q-40 -73 -132 -73z" />
    <glyph glyph-name="gbreve" unicode="&#x11f;" horiz-adv-x="664" 
d="M315 -162q-117 0 -216 61q-20 10 -20 32q0 13 10.5 23.5t24.5 10.5q9 0 17 -5q41 -27 86.5 -41.5t96.5 -14.5q86 0 137 46.5t51 137.5v61q-34 -45 -83 -77t-120 -32q-47 0 -90.5 17t-77.5 48.5t-54.5 76t-20.5 100.5v2q0 57 20.5 102t54.5 76.5t78 48.5t90 17
q36 0 66.5 -8.5t55 -22.5t44.5 -33t36 -40v59q0 16 10.5 27.5t27.5 11.5t28 -11.5t11 -27.5v-393q0 -60 -17 -105.5t-49 -77.5q-35 -35 -85 -52t-112 -17zM314 108q37 0 71 12.5t60.5 36t42.5 55.5t16 71v2q0 40 -16 72t-42.5 55t-60.5 35.5t-71 12.5t-69.5 -12.5t-57 -35
t-38.5 -54.5t-14 -72v-2q0 -39 14.5 -71.5t39 -55.5t57 -36t68.5 -13zM328 593q-92 0 -132 73q-5 8 -7.5 17.5t-2.5 17.5q0 13 7.5 21.5t20.5 8.5q11 0 17 -5.5t11 -13.5q10 -24 30.5 -39.5t55.5 -15.5t55.5 15.5t30.5 39.5q5 8 11 13.5t17 5.5q13 0 20.5 -8.5t7.5 -21.5
q0 -8 -2.5 -17.5t-7.5 -17.5q-40 -73 -132 -73z" />
    <glyph glyph-name="Gcommaaccent" unicode="&#x122;" horiz-adv-x="784" 
d="M405 -155q-17 3 -28.5 13t-11.5 28v5q0 18 13 30.5t33 12.5t33.5 -14t13.5 -38v-5q0 -33 -7.5 -54t-24.5 -36q-14 -14 -36 -22t-36 -8q-9 0 -14 4.5t-5 9.5q0 13 17 17q29 8 41.5 21t11.5 36zM424 -12q-83 0 -148.5 28t-112 77t-71 114.5t-24.5 140.5v2q0 72 25.5 137.5
t71.5 115.5t110.5 79.5t143.5 29.5q80 0 135.5 -20t103.5 -55q7 -5 11.5 -13t4.5 -19q0 -17 -11.5 -28.5t-27.5 -11.5q-12 0 -25 10q-38 29 -83 46.5t-111 17.5q-58 0 -107 -23t-84 -62t-55 -91.5t-20 -110.5v-2q0 -63 19.5 -116t55.5 -92t87 -61t115 -22q60 0 113 20.5
t89 49.5v174h-188q-14 0 -24.5 10.5t-10.5 24.5q0 15 10.5 25.5t24.5 10.5h225q16 0 27.5 -11.5t11.5 -28.5v-213q0 -30 -27 -48q-48 -35 -112 -60t-142 -25z" />
    <glyph glyph-name="gcommaaccent" unicode="&#x123;" horiz-adv-x="664" 
d="M334 679q17 -3 28.5 -13t11.5 -28v-5q0 -18 -13 -30.5t-33 -12.5t-33.5 14t-13.5 38v5q0 33 7.5 54t24.5 36q14 14 36 22t36 8q9 0 14 -4.5t5 -9.5q0 -13 -17 -17q-29 -8 -41.5 -21t-11.5 -36zM315 -162q-117 0 -216 61q-20 10 -20 32q0 13 10.5 23.5t24.5 10.5
q9 0 17 -5q41 -27 86.5 -41.5t96.5 -14.5q86 0 137 46.5t51 137.5v61q-34 -45 -83 -77t-120 -32q-47 0 -90.5 17t-77.5 48.5t-54.5 76t-20.5 100.5v2q0 57 20.5 102t54.5 76.5t78 48.5t90 17q36 0 66.5 -8.5t55 -22.5t44.5 -33t36 -40v59q0 16 10.5 27.5t27.5 11.5t28 -11.5
t11 -27.5v-393q0 -60 -17 -105.5t-49 -77.5q-35 -35 -85 -52t-112 -17zM314 108q37 0 71 12.5t60.5 36t42.5 55.5t16 71v2q0 40 -16 72t-42.5 55t-60.5 35.5t-71 12.5t-69.5 -12.5t-57 -35t-38.5 -54.5t-14 -72v-2q0 -39 14.5 -71.5t39 -55.5t57 -36t68.5 -13z" />
    <glyph glyph-name="Gdotaccent" unicode="&#x120;" horiz-adv-x="784" 
d="M424 -12q-83 0 -148.5 28t-112 77t-71 114.5t-24.5 140.5v2q0 72 25.5 137.5t71.5 115.5t110.5 79.5t143.5 29.5q80 0 135.5 -20t103.5 -55q7 -5 11.5 -13t4.5 -19q0 -17 -11.5 -28.5t-27.5 -11.5q-12 0 -25 10q-38 29 -83 46.5t-111 17.5q-58 0 -107 -23t-84 -62
t-55 -91.5t-20 -110.5v-2q0 -63 19.5 -116t55.5 -92t87 -61t115 -22q60 0 113 20.5t89 49.5v174h-188q-14 0 -24.5 10.5t-10.5 24.5q0 15 10.5 25.5t24.5 10.5h225q16 0 27.5 -11.5t11.5 -28.5v-213q0 -30 -27 -48q-48 -35 -112 -60t-142 -25zM460 813q0 -20 -14 -33
t-34 -13t-34 13t-14 33v14q0 20 14 32.5t34 12.5t34 -12.5t14 -32.5v-14z" />
    <glyph glyph-name="gdotaccent" unicode="&#x121;" horiz-adv-x="664" 
d="M315 -162q-117 0 -216 61q-20 10 -20 32q0 13 10.5 23.5t24.5 10.5q9 0 17 -5q41 -27 86.5 -41.5t96.5 -14.5q86 0 137 46.5t51 137.5v61q-34 -45 -83 -77t-120 -32q-47 0 -90.5 17t-77.5 48.5t-54.5 76t-20.5 100.5v2q0 57 20.5 102t54.5 76.5t78 48.5t90 17
q36 0 66.5 -8.5t55 -22.5t44.5 -33t36 -40v59q0 16 10.5 27.5t27.5 11.5t28 -11.5t11 -27.5v-393q0 -60 -17 -105.5t-49 -77.5q-35 -35 -85 -52t-112 -17zM314 108q37 0 71 12.5t60.5 36t42.5 55.5t16 71v2q0 40 -16 72t-42.5 55t-60.5 35.5t-71 12.5t-69.5 -12.5t-57 -35
t-38.5 -54.5t-14 -72v-2q0 -39 14.5 -71.5t39 -55.5t57 -36t68.5 -13zM376 636q0 -20 -14 -33t-34 -13t-34 13t-14 33v14q0 20 14 32.5t34 12.5t34 -12.5t14 -32.5v-14z" />
    <glyph glyph-name="Hbar" unicode="&#x126;" horiz-adv-x="804" 
d="M120 511h-47q-13 0 -22 8.5t-9 21.5q0 12 9 21t22 9h47v94q0 17 11.5 28.5t27.5 11.5q17 0 28.5 -11.5t11.5 -28.5v-94h404v94q0 17 11.5 28.5t28.5 11.5q16 0 27.5 -11.5t11.5 -28.5v-94h49q12 0 21 -9t9 -21q0 -13 -9 -21.5t-21 -8.5h-49v-476q0 -17 -11.5 -28.5
t-27.5 -11.5q-17 0 -28.5 11.5t-11.5 28.5v280h-404v-280q0 -17 -11.5 -28.5t-28.5 -11.5q-16 0 -27.5 11.5t-11.5 28.5v476zM603 389v122h-404v-122h404z" />
    <glyph glyph-name="hbar" unicode="&#x127;" horiz-adv-x="616" 
d="M86 612h-46q-11 0 -19.5 8.5t-8.5 19.5t8.5 19t19.5 8h46v29q0 16 11 27.5t27 11.5q17 0 28 -11.5t11 -27.5v-29h154q11 0 19.5 -8t8.5 -19t-8.5 -19.5t-19.5 -8.5h-154v-185q26 42 68 71.5t109 29.5q47 0 83.5 -15t62 -42.5t39 -65.5t13.5 -84v-287q0 -17 -11 -28
t-27 -11q-17 0 -28 11t-11 28v268q0 72 -37 114t-106 42q-33 0 -61.5 -11.5t-49.5 -33t-32.5 -51.5t-11.5 -66v-262q0 -17 -10.5 -28t-27.5 -11t-28 11t-11 28v578z" />
    <glyph glyph-name="Iacute" unicode="&#xcd;" horiz-adv-x="291" 
d="M106 665q0 17 11.5 28.5t27.5 11.5q17 0 28.5 -11.5t11.5 -28.5v-630q0 -17 -11.5 -28.5t-28.5 -11.5q-16 0 -27.5 11.5t-11.5 28.5v630zM144 758q-19 0 -19 14q0 8 5 15l60 91q15 23 36 23q18 0 36 -9.5t18 -20.5q0 -6 -4 -11.5t-10 -11.5l-75 -71q-12 -12 -22.5 -15.5
t-24.5 -3.5z" />
    <glyph glyph-name="iacute" unicode="&#xed;" horiz-adv-x="263" 
d="M130 591q-19 0 -19 14q0 8 5 15l60 91q15 23 36 23q18 0 36 -9.5t18 -20.5q0 -6 -4 -11.5t-10 -11.5l-75 -71q-12 -12 -22.5 -15.5t-24.5 -3.5zM93 483q0 16 11 27.5t27 11.5q17 0 28 -11t11 -28v-449q0 -17 -10.5 -28t-27.5 -11t-28 11t-11 28v449z" />
    <glyph glyph-name="Ibreve" unicode="&#x12c;" horiz-adv-x="291" 
d="M106 665q0 17 11.5 28.5t27.5 11.5q17 0 28.5 -11.5t11.5 -28.5v-630q0 -17 -11.5 -28.5t-28.5 -11.5q-16 0 -27.5 11.5t-11.5 28.5v630zM146 760q-92 0 -132 73q-5 8 -7.5 17.5t-2.5 17.5q0 13 7.5 21.5t20.5 8.5q11 0 17 -5.5t11 -13.5q10 -24 30.5 -39.5t55.5 -15.5
t55.5 15.5t30.5 39.5q5 8 11 13.5t17 5.5q13 0 20.5 -8.5t7.5 -21.5q0 -8 -2.5 -17.5t-7.5 -17.5q-40 -73 -132 -73z" />
    <glyph glyph-name="ibreve" unicode="&#x12d;" horiz-adv-x="263" 
d="M93 483q0 16 11 27.5t27 11.5q17 0 28 -11t11 -28v-449q0 -17 -10.5 -28t-27.5 -11t-28 11t-11 28v449zM132 593q-92 0 -132 73q-5 8 -7.5 17.5t-2.5 17.5q0 13 7.5 21.5t20.5 8.5q11 0 17 -5.5t11 -13.5q10 -24 30.5 -39.5t55.5 -15.5t55.5 15.5t30.5 39.5q5 8 11 13.5
t17 5.5q13 0 20.5 -8.5t7.5 -21.5q0 -8 -2.5 -17.5t-7.5 -17.5q-40 -73 -132 -73z" />
    <glyph glyph-name="Icircumflex" unicode="&#xce;" horiz-adv-x="291" 
d="M106 665q0 17 11.5 28.5t27.5 11.5q17 0 28.5 -11.5t11.5 -28.5v-630q0 -17 -11.5 -28.5t-28.5 -11.5q-16 0 -27.5 11.5t-11.5 28.5v630zM86 777q-13 -12 -23.5 -15.5t-24.5 -3.5q-18 0 -18 14q0 5 7 17l70 86q8 10 17 16t23 6h18q14 0 23 -6t17 -16l70 -86q7 -12 7 -17
q0 -14 -19 -14q-14 0 -25 3.5t-24 15.5l-59 52z" />
    <glyph glyph-name="icircumflex" unicode="&#xee;" horiz-adv-x="263" 
d="M72 610q-13 -12 -23.5 -15.5t-24.5 -3.5q-18 0 -18 14q0 5 7 17l70 86q8 10 17 16t23 6h18q14 0 23 -6t17 -16l70 -86q7 -12 7 -17q0 -14 -19 -14q-14 0 -25 3.5t-24 15.5l-59 52zM93 483q0 16 11 27.5t27 11.5q17 0 28 -11t11 -28v-449q0 -17 -10.5 -28t-27.5 -11
t-28 11t-11 28v449z" />
    <glyph glyph-name="Idieresis" unicode="&#xcf;" horiz-adv-x="291" 
d="M106 665q0 17 11.5 28.5t27.5 11.5q17 0 28.5 -11.5t11.5 -28.5v-630q0 -17 -11.5 -28.5t-28.5 -11.5q-16 0 -27.5 11.5t-11.5 28.5v630zM235 862q20 0 33.5 -12.5t13.5 -32.5v-15q0 -20 -13.5 -32.5t-33.5 -12.5t-33.5 12.5t-13.5 32.5v15q0 20 13.5 32.5t33.5 12.5z
M57 862q20 0 33.5 -12.5t13.5 -32.5v-15q0 -20 -13.5 -32.5t-33.5 -12.5t-33.5 12.5t-13.5 32.5v15q0 20 13.5 32.5t33.5 12.5z" />
    <glyph glyph-name="idieresis" unicode="&#xef;" horiz-adv-x="263" 
d="M221 695q20 0 33.5 -12.5t13.5 -32.5v-15q0 -20 -13.5 -32.5t-33.5 -12.5t-33.5 12.5t-13.5 32.5v15q0 20 13.5 32.5t33.5 12.5zM43 695q20 0 33.5 -12.5t13.5 -32.5v-15q0 -20 -13.5 -32.5t-33.5 -12.5t-33.5 12.5t-13.5 32.5v15q0 20 13.5 32.5t33.5 12.5zM93 483
q0 16 11 27.5t27 11.5q17 0 28 -11t11 -28v-449q0 -17 -10.5 -28t-27.5 -11t-28 11t-11 28v449z" />
    <glyph glyph-name="Idotaccent" unicode="&#x130;" horiz-adv-x="291" 
d="M106 665q0 17 11.5 28.5t27.5 11.5q17 0 28.5 -11.5t11.5 -28.5v-630q0 -17 -11.5 -28.5t-28.5 -11.5q-16 0 -27.5 11.5t-11.5 28.5v630zM194 803q0 -20 -14 -33t-34 -13t-34 13t-14 33v14q0 20 14 32.5t34 12.5t34 -12.5t14 -32.5v-14z" />
    <glyph glyph-name="dotlessi" unicode="&#x131;" horiz-adv-x="263" 
d="M93 483q0 16 11 27.5t27 11.5q17 0 28 -11t11 -28v-449q0 -17 -10.5 -28t-27.5 -11t-28 11t-11 28v449z" />
    <glyph glyph-name="Igrave" unicode="&#xcc;" horiz-adv-x="291" 
d="M106 665q0 17 11.5 28.5t27.5 11.5q17 0 28.5 -11.5t11.5 -28.5v-630q0 -17 -11.5 -28.5t-28.5 -11.5q-16 0 -27.5 11.5t-11.5 28.5v630zM148 758q-14 0 -24.5 3.5t-22.5 15.5l-75 71q-6 6 -10 11.5t-4 11.5q0 11 18 20.5t36 9.5q21 0 36 -23l60 -91q5 -7 5 -15
q0 -14 -19 -14z" />
    <glyph glyph-name="igrave" unicode="&#xec;" horiz-adv-x="263" 
d="M93 483q0 16 11 27.5t27 11.5q17 0 28 -11t11 -28v-449q0 -17 -10.5 -28t-27.5 -11t-28 11t-11 28v449zM134 591q-14 0 -24.5 3.5t-22.5 15.5l-75 71q-6 6 -10 11.5t-4 11.5q0 11 18 20.5t36 9.5q21 0 36 -23l60 -91q5 -7 5 -15q0 -14 -19 -14z" />
    <glyph glyph-name="Imacron" unicode="&#x12a;" horiz-adv-x="291" 
d="M106 665q0 17 11.5 28.5t27.5 11.5q17 0 28.5 -11.5t11.5 -28.5v-630q0 -17 -11.5 -28.5t-28.5 -11.5q-16 0 -27.5 11.5t-11.5 28.5v630zM14 782q-14 0 -23 9.5t-9 22.5t9 22.5t23 9.5h264q14 0 23 -9.5t9 -22.5t-9 -22.5t-23 -9.5h-264z" />
    <glyph glyph-name="imacron" unicode="&#x12b;" horiz-adv-x="263" 
d="M93 483q0 16 11 27.5t27 11.5q17 0 28 -11t11 -28v-449q0 -17 -10.5 -28t-27.5 -11t-28 11t-11 28v449zM0 615q-14 0 -23 9.5t-9 22.5t9 22.5t23 9.5h264q14 0 23 -9.5t9 -22.5t-9 -22.5t-23 -9.5h-264z" />
    <glyph glyph-name="Iogonek" unicode="&#x12e;" horiz-adv-x="291" 
d="M58 -84q0 26 14 47.5t41 44.5q-7 6 -7 16v641q0 17 11.5 28.5t27.5 11.5q17 0 28.5 -11.5t11.5 -28.5v-633q0 -11 -4 -19t-13 -16q-24 -22 -34 -37t-10 -33q0 -20 13.5 -29.5t36.5 -14.5q29 -6 29 -24q0 -23 -27 -23q-14 0 -34 3t-39 12t-32 24.5t-13 40.5z" />
    <glyph glyph-name="iogonek" unicode="&#x12f;" horiz-adv-x="263" 
d="M170 31q0 -11 -3.5 -18.5t-14.5 -16.5q-23 -20 -33 -35.5t-10 -33.5q0 -20 13 -29.5t36 -14.5q29 -6 29 -24q0 -23 -27 -23q-14 0 -34 3t-38.5 12t-31.5 24.5t-13 39.5q0 27 15 49t43 45q-8 6 -8 16v458q0 16 11 27.5t27 11.5q17 0 28 -11t11 -28v-452zM86 679
q0 19 13 30t32 11q20 0 33 -11t13 -30v-13q0 -18 -13 -29.5t-33 -11.5q-19 0 -32 11.5t-13 29.5v13z" />
    <glyph glyph-name="Kcommaaccent" unicode="&#x136;" horiz-adv-x="714" 
d="M356 -149q-17 3 -28.5 13t-11.5 28v5q0 18 13 30.5t33 12.5t33.5 -14t13.5 -38v-5q0 -33 -7.5 -54t-24.5 -36q-14 -14 -36 -22t-36 -8q-9 0 -14 4.5t-5 9.5q0 13 17 17q29 8 41.5 21t11.5 36zM99 665q0 17 11.5 28.5t27.5 11.5q17 0 28.5 -11.5t11.5 -28.5v-383l399 409
q7 6 14 10t17 4q16 0 27 -12t11 -27t-13 -28l-248 -246l266 -328q5 -7 8 -13.5t3 -15.5q0 -16 -11.5 -28t-28.5 -12q-11 0 -19 5t-13 13l-261 325l-151 -151v-152q0 -17 -11.5 -28.5t-28.5 -11.5q-16 0 -27.5 11.5t-11.5 28.5v630z" />
    <glyph glyph-name="kcommaaccent" unicode="&#x137;" horiz-adv-x="568" 
d="M292 -154q-17 3 -28.5 13t-11.5 28v5q0 18 13 30.5t33 12.5t33.5 -14t13.5 -38v-5q0 -33 -7.5 -54t-24.5 -36q-14 -14 -36 -22t-36 -8q-9 0 -14 4.5t-5 9.5q0 13 17 17q29 8 41.5 21t11.5 36zM86 696q0 16 11 27.5t27 11.5q17 0 28 -11.5t11 -27.5v-474l280 285
q13 15 30 15q16 0 25.5 -11t9.5 -25q0 -9 -3.5 -15.5t-11.5 -14.5l-169 -166l185 -233q10 -13 10 -26q0 -16 -10.5 -26t-26.5 -10q-19 0 -33 18l-179 226l-107 -106v-99q0 -17 -10.5 -28t-27.5 -11t-28 11t-11 28v662z" />
    <glyph glyph-name="Lacute" unicode="&#x139;" horiz-adv-x="619" 
d="M152 758q-19 0 -19 14q0 8 5 15l60 91q15 23 36 23q18 0 36 -9.5t18 -20.5q0 -6 -4 -11.5t-10 -11.5l-75 -71q-12 -12 -22.5 -15.5t-24.5 -3.5zM99 665q0 17 11.5 28.5t27.5 11.5q17 0 28.5 -11.5t11.5 -28.5v-592h363q15 0 25.5 -11t10.5 -26t-10.5 -25.5t-25.5 -10.5
h-403q-16 0 -27.5 11.5t-11.5 28.5v625z" />
    <glyph glyph-name="lacute" unicode="&#x13a;" horiz-adv-x="263" 
d="M132 779q-19 0 -19 14q0 8 5 15l60 91q15 23 36 23q18 0 36 -9.5t18 -20.5q0 -6 -4 -11.5t-10 -11.5l-75 -71q-12 -12 -22.5 -15.5t-24.5 -3.5zM93 696q0 16 11 27.5t27 11.5q17 0 28 -11.5t11 -27.5v-662q0 -17 -10.5 -28t-27.5 -11t-28 11t-11 28v662z" />
    <glyph glyph-name="Lcaron" unicode="&#x13d;" horiz-adv-x="619" 
d="M279 670q3 32 34 32h15q22 0 22 -21q0 -9 -5 -24l-35 -106q-6 -20 -22 -20q-8 0 -14 5t-4 18zM99 665q0 17 11.5 28.5t27.5 11.5q17 0 28.5 -11.5t11.5 -28.5v-592h363q15 0 25.5 -11t10.5 -26t-10.5 -25.5t-25.5 -10.5h-403q-16 0 -27.5 11.5t-11.5 28.5v625z" />
    <glyph glyph-name="lcaron" unicode="&#x13e;" horiz-adv-x="263" 
d="M245 701q3 32 34 32h15q22 0 22 -21q0 -9 -5 -24l-35 -106q-6 -20 -22 -20q-8 0 -14 5t-4 18zM93 696q0 16 11 27.5t27 11.5q17 0 28 -11.5t11 -27.5v-662q0 -17 -10.5 -28t-27.5 -11t-28 11t-11 28v662z" />
    <glyph glyph-name="Lcommaaccent" unicode="&#x13b;" horiz-adv-x="619" 
d="M325 -154q-17 3 -28.5 13t-11.5 28v5q0 18 13 30.5t33 12.5t33.5 -14t13.5 -38v-5q0 -33 -7.5 -54t-24.5 -36q-14 -14 -36 -22t-36 -8q-9 0 -14 4.5t-5 9.5q0 13 17 17q29 8 41.5 21t11.5 36zM99 665q0 17 11.5 28.5t27.5 11.5q17 0 28.5 -11.5t11.5 -28.5v-592h363
q15 0 25.5 -11t10.5 -26t-10.5 -25.5t-25.5 -10.5h-403q-16 0 -27.5 11.5t-11.5 28.5v625z" />
    <glyph glyph-name="lcommaaccent" unicode="&#x13c;" horiz-adv-x="263" 
d="M125 -154q-17 3 -28.5 13t-11.5 28v5q0 18 13 30.5t33 12.5t33.5 -14t13.5 -38v-5q0 -33 -7.5 -54t-24.5 -36q-14 -14 -36 -22t-36 -8q-9 0 -14 4.5t-5 9.5q0 13 17 17q29 8 41.5 21t11.5 36zM93 696q0 16 11 27.5t27 11.5q17 0 28 -11.5t11 -27.5v-662q0 -17 -10.5 -28
t-27.5 -11t-28 11t-11 28v662z" />
    <glyph glyph-name="Ldot" unicode="&#x13f;" horiz-adv-x="619" 
d="M99 665q0 17 11.5 28.5t27.5 11.5q17 0 28.5 -11.5t11.5 -28.5v-592h363q15 0 25.5 -11t10.5 -26t-10.5 -25.5t-25.5 -10.5h-403q-16 0 -27.5 11.5t-11.5 28.5v625zM512 362q0 -20 -14 -33t-34 -13t-34 13t-14 33v14q0 20 14 32.5t34 12.5t34 -12.5t14 -32.5v-14z" />
    <glyph glyph-name="ldot" unicode="&#x140;" horiz-adv-x="331" 
d="M341 362q0 -18 -12 -31t-31 -13q-18 0 -30.5 13t-12.5 31v14q0 18 12.5 31t30.5 13q19 0 31 -13t12 -31v-14zM93 696q0 16 11 27.5t27 11.5q17 0 28 -11.5t11 -27.5v-662q0 -17 -10.5 -28t-27.5 -11t-28 11t-11 28v662z" />
    <glyph glyph-name="Lslash" unicode="&#x141;" horiz-adv-x="649" 
d="M207 325v-252h364q15 0 25.5 -11t10.5 -26t-10.5 -25.5t-25.5 -10.5h-403q-16 0 -27.5 11.5t-11.5 28.5v262l-29 -9q-4 -2 -9 -2.5t-8 -0.5q-14 0 -24 10t-10 25q0 14 7.5 22t18.5 12l54 16v290q0 17 11 28.5t28 11.5t28 -11.5t11 -28.5v-266l169 52q4 1 9 2t8 1
q15 0 25 -10.5t10 -25.5q0 -13 -7.5 -21.5t-18.5 -11.5z" />
    <glyph glyph-name="lslash" unicode="&#x142;" horiz-adv-x="323" 
d="M200 344v-310q0 -17 -10.5 -28t-27.5 -11t-27.5 11t-10.5 28v287l-31 -9q-8 -3 -16 -3q-15 0 -25 10t-10 25q0 14 7.5 22t18.5 12q7 2 16 5q8 2 18 5t22 7v301q0 16 10.5 27.5t26.5 11.5q17 0 28 -11.5t11 -27.5v-278l30 9q4 2 9 2.5t8 0.5q14 0 24 -10t10 -25
q0 -14 -7 -22t-18 -12z" />
    <glyph glyph-name="Nacute" unicode="&#x143;" horiz-adv-x="790" 
d="M392 758q-19 0 -19 14q0 8 5 15l60 91q15 23 36 23q18 0 36 -9.5t18 -20.5q0 -6 -4 -11.5t-10 -11.5l-75 -71q-12 -12 -22.5 -15.5t-24.5 -3.5zM99 664q0 16 11.5 27.5t27.5 11.5h11q14 0 23 -6t17 -17l425 -542v528q0 16 11 27.5t28 11.5q16 0 27 -11.5t11 -27.5v-632
q0 -16 -10 -26.5t-26 -10.5h-4q-13 0 -22.5 6.5t-18.5 17.5l-434 555v-542q0 -16 -11 -27.5t-28 -11.5q-16 0 -27 11.5t-11 27.5v630z" />
    <glyph glyph-name="nacute" unicode="&#x144;" horiz-adv-x="616" 
d="M309 591q-19 0 -19 14q0 8 5 15l60 91q15 23 36 23q18 0 36 -9.5t18 -20.5q0 -6 -4 -11.5t-10 -11.5l-75 -71q-12 -12 -22.5 -15.5t-24.5 -3.5zM86 483q0 16 11 27.5t27 11.5q17 0 28 -11t11 -28v-56q26 42 68 71.5t109 29.5q47 0 83.5 -15t62 -42.5t39 -65.5t13.5 -84
v-287q0 -17 -11 -28t-27 -11q-17 0 -28 11t-11 28v268q0 72 -37 114t-106 42q-33 0 -61.5 -11.5t-49.5 -33t-32.5 -51.5t-11.5 -66v-262q0 -17 -10.5 -28t-27.5 -11t-28 11t-11 28v449z" />
    <glyph glyph-name="Ncaron" unicode="&#x147;" horiz-adv-x="790" 
d="M455 879q13 11 23.5 14.5t24.5 3.5q18 0 18 -14q0 -6 -7 -16l-70 -86q-8 -11 -17 -17t-23 -6h-18q-14 0 -23 6t-17 17l-70 86q-7 10 -7 16q0 14 19 14q14 0 25 -3.5t24 -14.5l59 -53zM99 664q0 16 11.5 27.5t27.5 11.5h11q14 0 23 -6t17 -17l425 -542v528q0 16 11 27.5
t28 11.5q16 0 27 -11.5t11 -27.5v-632q0 -16 -10 -26.5t-26 -10.5h-4q-13 0 -22.5 6.5t-18.5 17.5l-434 555v-542q0 -16 -11 -27.5t-28 -11.5q-16 0 -27 11.5t-11 27.5v630z" />
    <glyph glyph-name="ncaron" unicode="&#x148;" horiz-adv-x="616" 
d="M371 712q13 11 23.5 14.5t24.5 3.5q18 0 18 -14q0 -6 -7 -16l-70 -86q-8 -11 -17 -17t-23 -6h-18q-14 0 -23 6t-17 17l-70 86q-7 10 -7 16q0 14 19 14q14 0 25 -3.5t24 -14.5l59 -53zM86 483q0 16 11 27.5t27 11.5q17 0 28 -11t11 -28v-56q26 42 68 71.5t109 29.5
q47 0 83.5 -15t62 -42.5t39 -65.5t13.5 -84v-287q0 -17 -11 -28t-27 -11q-17 0 -28 11t-11 28v268q0 72 -37 114t-106 42q-33 0 -61.5 -11.5t-49.5 -33t-32.5 -51.5t-11.5 -66v-262q0 -17 -10.5 -28t-27.5 -11t-28 11t-11 28v449z" />
    <glyph glyph-name="Ncommaaccent" unicode="&#x145;" horiz-adv-x="790" 
d="M388 -149q-17 3 -28.5 13t-11.5 28v5q0 18 13 30.5t33 12.5t33.5 -14t13.5 -38v-5q0 -33 -7.5 -54t-24.5 -36q-14 -14 -36 -22t-36 -8q-9 0 -14 4.5t-5 9.5q0 13 17 17q29 8 41.5 21t11.5 36zM99 664q0 16 11.5 27.5t27.5 11.5h11q14 0 23 -6t17 -17l425 -542v528
q0 16 11 27.5t28 11.5q16 0 27 -11.5t11 -27.5v-632q0 -16 -10 -26.5t-26 -10.5h-4q-13 0 -22.5 6.5t-18.5 17.5l-434 555v-542q0 -16 -11 -27.5t-28 -11.5q-16 0 -27 11.5t-11 27.5v630z" />
    <glyph glyph-name="ncommaaccent" unicode="&#x146;" horiz-adv-x="616" 
d="M304 -154q-17 3 -28.5 13t-11.5 28v5q0 18 13 30.5t33 12.5t33.5 -14t13.5 -38v-5q0 -33 -7.5 -54t-24.5 -36q-14 -14 -36 -22t-36 -8q-9 0 -14 4.5t-5 9.5q0 13 17 17q29 8 41.5 21t11.5 36zM86 483q0 16 11 27.5t27 11.5q17 0 28 -11t11 -28v-56q26 42 68 71.5
t109 29.5q47 0 83.5 -15t62 -42.5t39 -65.5t13.5 -84v-287q0 -17 -11 -28t-27 -11q-17 0 -28 11t-11 28v268q0 72 -37 114t-106 42q-33 0 -61.5 -11.5t-49.5 -33t-32.5 -51.5t-11.5 -66v-262q0 -17 -10.5 -28t-27.5 -11t-28 11t-11 28v449z" />
    <glyph glyph-name="Ntilde" unicode="&#xd1;" horiz-adv-x="790" 
d="M99 664q0 16 11.5 27.5t27.5 11.5h11q14 0 23 -6t17 -17l425 -542v528q0 16 11 27.5t28 11.5q16 0 27 -11.5t11 -27.5v-632q0 -16 -10 -26.5t-26 -10.5h-4q-13 0 -22.5 6.5t-18.5 17.5l-434 555v-542q0 -16 -11 -27.5t-28 -11.5q-16 0 -27 11.5t-11 27.5v630zM287 767
q-3 -6 -8.5 -11.5t-14.5 -5.5q-11 0 -18.5 7t-7.5 17q0 3 1 8t2 8q15 44 35.5 62.5t52.5 18.5q17 0 35 -6.5t36 -14t34 -13.5t29 -6q17 0 27 8t19 27q3 6 9 11.5t14 5.5q11 0 18.5 -7t7.5 -17q0 -3 -1 -7.5t-2 -8.5q-15 -44 -35.5 -62.5t-52.5 -18.5q-17 0 -35 6t-36 13.5
t-34 14t-29 6.5q-17 0 -27 -8t-19 -27z" />
    <glyph glyph-name="ntilde" unicode="&#xf1;" horiz-adv-x="616" 
d="M86 483q0 16 11 27.5t27 11.5q17 0 28 -11t11 -28v-56q26 42 68 71.5t109 29.5q47 0 83.5 -15t62 -42.5t39 -65.5t13.5 -84v-287q0 -17 -11 -28t-27 -11q-17 0 -28 11t-11 28v268q0 72 -37 114t-106 42q-33 0 -61.5 -11.5t-49.5 -33t-32.5 -51.5t-11.5 -66v-262
q0 -17 -10.5 -28t-27.5 -11t-28 11t-11 28v449zM204 600q-3 -6 -8.5 -11.5t-14.5 -5.5q-11 0 -18.5 7t-7.5 17q0 3 1 8t2 8q15 44 35.5 62.5t52.5 18.5q17 0 35 -6.5t36 -14t34 -13.5t29 -6q17 0 27 8t19 27q3 6 9 11.5t14 5.5q11 0 18.5 -7t7.5 -17q0 -3 -1 -7.5t-2 -8.5
q-15 -44 -35.5 -62.5t-52.5 -18.5q-17 0 -35 6t-36 13.5t-34 14t-29 6.5q-17 0 -27 -8t-19 -27z" />
    <glyph glyph-name="Oacute" unicode="&#xd3;" horiz-adv-x="850" 
d="M422 768q-19 0 -19 14q0 8 5 15l60 91q15 23 36 23q18 0 36 -9.5t18 -20.5q0 -6 -4 -11.5t-10 -11.5l-75 -71q-12 -12 -22.5 -15.5t-24.5 -3.5zM424 -12q-80 0 -145.5 29t-112.5 78.5t-72.5 115t-25.5 137.5v2q0 72 26 138t73 115.5t113 79t146 29.5t145.5 -29
t112.5 -78.5t72.5 -115t25.5 -137.5v-2q0 -72 -26 -138t-73 -115.5t-113 -79t-146 -29.5zM426 61q60 0 110.5 22.5t86.5 61.5t56.5 91t20.5 112v2q0 60 -20.5 112.5t-57.5 91.5t-87.5 62t-110.5 23t-110.5 -22.5t-86.5 -61.5t-56.5 -91t-20.5 -112v-2q0 -60 20.5 -112.5
t57.5 -91.5t87.5 -62t110.5 -23z" />
    <glyph glyph-name="oacute" unicode="&#xf3;" horiz-adv-x="646" 
d="M321 591q-19 0 -19 14q0 8 5 15l60 91q15 23 36 23q18 0 36 -9.5t18 -20.5q0 -6 -4 -11.5t-10 -11.5l-75 -71q-12 -12 -22.5 -15.5t-24.5 -3.5zM322 -12q-58 0 -107 21.5t-85 58t-56 85t-20 103.5v2q0 55 20 104t56 86t85.5 58.5t108.5 21.5q58 0 107.5 -21.5t85.5 -58
t56 -85t20 -103.5v-2q0 -55 -20.5 -104t-56.5 -86t-86 -58.5t-108 -21.5zM324 57q42 0 77 16t60 43t39 63t14 77v2q0 42 -14.5 78.5t-40.5 64t-61 43.5t-76 16q-42 0 -77 -16t-59.5 -43t-38.5 -63.5t-14 -77.5v-2q0 -42 14.5 -78.5t40 -63.5t60.5 -43t76 -16z" />
    <glyph glyph-name="Obreve" unicode="&#x14e;" horiz-adv-x="850" 
d="M424 -12q-80 0 -145.5 29t-112.5 78.5t-72.5 115t-25.5 137.5v2q0 72 26 138t73 115.5t113 79t146 29.5t145.5 -29t112.5 -78.5t72.5 -115t25.5 -137.5v-2q0 -72 -26 -138t-73 -115.5t-113 -79t-146 -29.5zM426 61q60 0 110.5 22.5t86.5 61.5t56.5 91t20.5 112v2
q0 60 -20.5 112.5t-57.5 91.5t-87.5 62t-110.5 23t-110.5 -22.5t-86.5 -61.5t-56.5 -91t-20.5 -112v-2q0 -60 20.5 -112.5t57.5 -91.5t87.5 -62t110.5 -23zM425 770q-92 0 -132 73q-5 8 -7.5 17.5t-2.5 17.5q0 13 7.5 21.5t20.5 8.5q11 0 17 -5.5t11 -13.5
q10 -24 30.5 -39.5t55.5 -15.5t55.5 15.5t30.5 39.5q5 8 11 13.5t17 5.5q13 0 20.5 -8.5t7.5 -21.5q0 -8 -2.5 -17.5t-7.5 -17.5q-40 -73 -132 -73z" />
    <glyph glyph-name="obreve" unicode="&#x14f;" horiz-adv-x="646" 
d="M322 -12q-58 0 -107 21.5t-85 58t-56 85t-20 103.5v2q0 55 20 104t56 86t85.5 58.5t108.5 21.5q58 0 107.5 -21.5t85.5 -58t56 -85t20 -103.5v-2q0 -55 -20.5 -104t-56.5 -86t-86 -58.5t-108 -21.5zM324 57q42 0 77 16t60 43t39 63t14 77v2q0 42 -14.5 78.5t-40.5 64
t-61 43.5t-76 16q-42 0 -77 -16t-59.5 -43t-38.5 -63.5t-14 -77.5v-2q0 -42 14.5 -78.5t40 -63.5t60.5 -43t76 -16zM323 593q-92 0 -132 73q-5 8 -7.5 17.5t-2.5 17.5q0 13 7.5 21.5t20.5 8.5q11 0 17 -5.5t11 -13.5q10 -24 30.5 -39.5t55.5 -15.5t55.5 15.5t30.5 39.5
q5 8 11 13.5t17 5.5q13 0 20.5 -8.5t7.5 -21.5q0 -8 -2.5 -17.5t-7.5 -17.5q-40 -73 -132 -73z" />
    <glyph glyph-name="Ocircumflex" unicode="&#xd4;" horiz-adv-x="850" 
d="M365 787q-13 -12 -23.5 -15.5t-24.5 -3.5q-18 0 -18 14q0 5 7 17l70 86q8 10 17 16t23 6h18q14 0 23 -6t17 -16l70 -86q7 -12 7 -17q0 -14 -19 -14q-14 0 -25 3.5t-24 15.5l-59 52zM424 -12q-80 0 -145.5 29t-112.5 78.5t-72.5 115t-25.5 137.5v2q0 72 26 138t73 115.5
t113 79t146 29.5t145.5 -29t112.5 -78.5t72.5 -115t25.5 -137.5v-2q0 -72 -26 -138t-73 -115.5t-113 -79t-146 -29.5zM426 61q60 0 110.5 22.5t86.5 61.5t56.5 91t20.5 112v2q0 60 -20.5 112.5t-57.5 91.5t-87.5 62t-110.5 23t-110.5 -22.5t-86.5 -61.5t-56.5 -91
t-20.5 -112v-2q0 -60 20.5 -112.5t57.5 -91.5t87.5 -62t110.5 -23z" />
    <glyph glyph-name="ocircumflex" unicode="&#xf4;" horiz-adv-x="646" 
d="M263 610q-13 -12 -23.5 -15.5t-24.5 -3.5q-18 0 -18 14q0 5 7 17l70 86q8 10 17 16t23 6h18q14 0 23 -6t17 -16l70 -86q7 -12 7 -17q0 -14 -19 -14q-14 0 -25 3.5t-24 15.5l-59 52zM322 -12q-58 0 -107 21.5t-85 58t-56 85t-20 103.5v2q0 55 20 104t56 86t85.5 58.5
t108.5 21.5q58 0 107.5 -21.5t85.5 -58t56 -85t20 -103.5v-2q0 -55 -20.5 -104t-56.5 -86t-86 -58.5t-108 -21.5zM324 57q42 0 77 16t60 43t39 63t14 77v2q0 42 -14.5 78.5t-40.5 64t-61 43.5t-76 16q-42 0 -77 -16t-59.5 -43t-38.5 -63.5t-14 -77.5v-2q0 -42 14.5 -78.5
t40 -63.5t60.5 -43t76 -16z" />
    <glyph glyph-name="Odieresis" unicode="&#xd6;" horiz-adv-x="850" 
d="M514 872q20 0 33.5 -12.5t13.5 -32.5v-15q0 -20 -13.5 -32.5t-33.5 -12.5t-33.5 12.5t-13.5 32.5v15q0 20 13.5 32.5t33.5 12.5zM336 872q20 0 33.5 -12.5t13.5 -32.5v-15q0 -20 -13.5 -32.5t-33.5 -12.5t-33.5 12.5t-13.5 32.5v15q0 20 13.5 32.5t33.5 12.5zM424 -12
q-80 0 -145.5 29t-112.5 78.5t-72.5 115t-25.5 137.5v2q0 72 26 138t73 115.5t113 79t146 29.5t145.5 -29t112.5 -78.5t72.5 -115t25.5 -137.5v-2q0 -72 -26 -138t-73 -115.5t-113 -79t-146 -29.5zM426 61q60 0 110.5 22.5t86.5 61.5t56.5 91t20.5 112v2q0 60 -20.5 112.5
t-57.5 91.5t-87.5 62t-110.5 23t-110.5 -22.5t-86.5 -61.5t-56.5 -91t-20.5 -112v-2q0 -60 20.5 -112.5t57.5 -91.5t87.5 -62t110.5 -23z" />
    <glyph glyph-name="odieresis" unicode="&#xf6;" horiz-adv-x="646" 
d="M412 695q20 0 33.5 -12.5t13.5 -32.5v-15q0 -20 -13.5 -32.5t-33.5 -12.5t-33.5 12.5t-13.5 32.5v15q0 20 13.5 32.5t33.5 12.5zM234 695q20 0 33.5 -12.5t13.5 -32.5v-15q0 -20 -13.5 -32.5t-33.5 -12.5t-33.5 12.5t-13.5 32.5v15q0 20 13.5 32.5t33.5 12.5zM322 -12
q-58 0 -107 21.5t-85 58t-56 85t-20 103.5v2q0 55 20 104t56 86t85.5 58.5t108.5 21.5q58 0 107.5 -21.5t85.5 -58t56 -85t20 -103.5v-2q0 -55 -20.5 -104t-56.5 -86t-86 -58.5t-108 -21.5zM324 57q42 0 77 16t60 43t39 63t14 77v2q0 42 -14.5 78.5t-40.5 64t-61 43.5
t-76 16q-42 0 -77 -16t-59.5 -43t-38.5 -63.5t-14 -77.5v-2q0 -42 14.5 -78.5t40 -63.5t60.5 -43t76 -16z" />
    <glyph glyph-name="OE" unicode="&#x152;" horiz-adv-x="1131" 
d="M440 0q-83 0 -151 26.5t-117.5 73t-76.5 110.5t-27 138v2q0 74 27 138t76.5 111t117.5 74t151 27h594q15 0 25.5 -10.5t10.5 -25.5t-10.5 -25.5t-25.5 -10.5h-377v-239h332q15 0 25.5 -11t10.5 -25q0 -15 -10.5 -25.5t-25.5 -10.5h-332v-245h382q15 0 25.5 -10.5
t10.5 -25.5t-10.5 -25.5t-25.5 -10.5h-599zM578 73v554h-138q-66 0 -120 -21t-91.5 -58t-58 -87.5t-20.5 -108.5v-2q0 -58 20.5 -108.5t58 -88t91.5 -59t120 -21.5h138z" />
    <glyph glyph-name="oe" unicode="&#x153;" horiz-adv-x="1049" 
d="M922 287q-3 35 -14.5 67t-32 56t-50 38.5t-67.5 14.5q-34 0 -63.5 -13.5t-51.5 -37t-36 -55.5t-18 -70h333zM323 57q42 0 76.5 16t59 43t38.5 63t14 77v2q0 42 -14.5 78.5t-40 64t-60.5 43.5t-75 16q-42 0 -76.5 -16t-59 -43t-38.5 -63.5t-14 -77.5v-2q0 -42 14.5 -78.5
t40 -63.5t60 -43t75.5 -16zM965 66q-38 -35 -83.5 -56.5t-111.5 -21.5q-72 0 -131.5 37t-91.5 102q-32 -61 -91.5 -100t-136.5 -39q-56 0 -104.5 21.5t-84 58t-56 85t-20.5 103.5v2q0 55 20.5 104t56.5 86t85 58.5t106 21.5q76 0 135 -38t91 -99q29 62 84.5 99.5t127.5 37.5
q57 0 101.5 -21.5t75.5 -58t47 -84t16 -98.5q0 -16 -11.5 -26t-25.5 -10h-373q4 -42 20 -74.5t40.5 -55t55.5 -34t65 -11.5q49 0 85 17t65 43q5 4 9.5 6.5t11.5 2.5q14 0 24 -9.5t10 -23.5t-11 -25z" />
    <glyph glyph-name="Ograve" unicode="&#xd2;" horiz-adv-x="850" 
d="M424 -12q-80 0 -145.5 29t-112.5 78.5t-72.5 115t-25.5 137.5v2q0 72 26 138t73 115.5t113 79t146 29.5t145.5 -29t112.5 -78.5t72.5 -115t25.5 -137.5v-2q0 -72 -26 -138t-73 -115.5t-113 -79t-146 -29.5zM426 61q60 0 110.5 22.5t86.5 61.5t56.5 91t20.5 112v2
q0 60 -20.5 112.5t-57.5 91.5t-87.5 62t-110.5 23t-110.5 -22.5t-86.5 -61.5t-56.5 -91t-20.5 -112v-2q0 -60 20.5 -112.5t57.5 -91.5t87.5 -62t110.5 -23zM427 768q-14 0 -24.5 3.5t-22.5 15.5l-75 71q-6 6 -10 11.5t-4 11.5q0 11 18 20.5t36 9.5q21 0 36 -23l60 -91
q5 -7 5 -15q0 -14 -19 -14z" />
    <glyph glyph-name="ograve" unicode="&#xf2;" horiz-adv-x="646" 
d="M322 -12q-58 0 -107 21.5t-85 58t-56 85t-20 103.5v2q0 55 20 104t56 86t85.5 58.5t108.5 21.5q58 0 107.5 -21.5t85.5 -58t56 -85t20 -103.5v-2q0 -55 -20.5 -104t-56.5 -86t-86 -58.5t-108 -21.5zM324 57q42 0 77 16t60 43t39 63t14 77v2q0 42 -14.5 78.5t-40.5 64
t-61 43.5t-76 16q-42 0 -77 -16t-59.5 -43t-38.5 -63.5t-14 -77.5v-2q0 -42 14.5 -78.5t40 -63.5t60.5 -43t76 -16zM325 591q-14 0 -24.5 3.5t-22.5 15.5l-75 71q-6 6 -10 11.5t-4 11.5q0 11 18 20.5t36 9.5q21 0 36 -23l60 -91q5 -7 5 -15q0 -14 -19 -14z" />
    <glyph glyph-name="Ohungarumlaut" unicode="&#x150;" horiz-adv-x="850" 
d="M493 768q-20 0 -20 14q0 7 6 15l61 92q14 22 34 22q17 0 34 -9t17 -20q0 -10 -12 -22l-74 -73q-13 -12 -22.5 -15.5t-23.5 -3.5zM329 768q-8 0 -14 4t-6 10q0 7 6 15l61 92q14 22 34 22q17 0 34 -9t17 -20q0 -10 -12 -22l-74 -73q-13 -12 -22.5 -15.5t-23.5 -3.5z
M424 -12q-80 0 -145.5 29t-112.5 78.5t-72.5 115t-25.5 137.5v2q0 72 26 138t73 115.5t113 79t146 29.5t145.5 -29t112.5 -78.5t72.5 -115t25.5 -137.5v-2q0 -72 -26 -138t-73 -115.5t-113 -79t-146 -29.5zM426 61q60 0 110.5 22.5t86.5 61.5t56.5 91t20.5 112v2
q0 60 -20.5 112.5t-57.5 91.5t-87.5 62t-110.5 23t-110.5 -22.5t-86.5 -61.5t-56.5 -91t-20.5 -112v-2q0 -60 20.5 -112.5t57.5 -91.5t87.5 -62t110.5 -23z" />
    <glyph glyph-name="ohungarumlaut" unicode="&#x151;" horiz-adv-x="646" 
d="M392 591q-20 0 -20 14q0 7 6 15l61 92q14 22 34 22q17 0 34 -9t17 -20q0 -10 -12 -22l-74 -73q-13 -12 -22.5 -15.5t-23.5 -3.5zM228 591q-8 0 -14 4t-6 10q0 7 6 15l61 92q14 22 34 22q17 0 34 -9t17 -20q0 -10 -12 -22l-74 -73q-13 -12 -22.5 -15.5t-23.5 -3.5z
M322 -12q-58 0 -107 21.5t-85 58t-56 85t-20 103.5v2q0 55 20 104t56 86t85.5 58.5t108.5 21.5q58 0 107.5 -21.5t85.5 -58t56 -85t20 -103.5v-2q0 -55 -20.5 -104t-56.5 -86t-86 -58.5t-108 -21.5zM324 57q42 0 77 16t60 43t39 63t14 77v2q0 42 -14.5 78.5t-40.5 64
t-61 43.5t-76 16q-42 0 -77 -16t-59.5 -43t-38.5 -63.5t-14 -77.5v-2q0 -42 14.5 -78.5t40 -63.5t60.5 -43t76 -16z" />
    <glyph glyph-name="Omacron" unicode="&#x14c;" horiz-adv-x="850" 
d="M293 792q-14 0 -23 9.5t-9 22.5t9 22.5t23 9.5h264q14 0 23 -9.5t9 -22.5t-9 -22.5t-23 -9.5h-264zM424 -12q-80 0 -145.5 29t-112.5 78.5t-72.5 115t-25.5 137.5v2q0 72 26 138t73 115.5t113 79t146 29.5t145.5 -29t112.5 -78.5t72.5 -115t25.5 -137.5v-2
q0 -72 -26 -138t-73 -115.5t-113 -79t-146 -29.5zM426 61q60 0 110.5 22.5t86.5 61.5t56.5 91t20.5 112v2q0 60 -20.5 112.5t-57.5 91.5t-87.5 62t-110.5 23t-110.5 -22.5t-86.5 -61.5t-56.5 -91t-20.5 -112v-2q0 -60 20.5 -112.5t57.5 -91.5t87.5 -62t110.5 -23z" />
    <glyph glyph-name="omacron" unicode="&#x14d;" horiz-adv-x="646" 
d="M191 615q-14 0 -23 9.5t-9 22.5t9 22.5t23 9.5h264q14 0 23 -9.5t9 -22.5t-9 -22.5t-23 -9.5h-264zM322 -12q-58 0 -107 21.5t-85 58t-56 85t-20 103.5v2q0 55 20 104t56 86t85.5 58.5t108.5 21.5q58 0 107.5 -21.5t85.5 -58t56 -85t20 -103.5v-2q0 -55 -20.5 -104
t-56.5 -86t-86 -58.5t-108 -21.5zM324 57q42 0 77 16t60 43t39 63t14 77v2q0 42 -14.5 78.5t-40.5 64t-61 43.5t-76 16q-42 0 -77 -16t-59.5 -43t-38.5 -63.5t-14 -77.5v-2q0 -42 14.5 -78.5t40 -63.5t60.5 -43t76 -16z" />
    <glyph glyph-name="Oslash" unicode="&#xd8;" horiz-adv-x="850" 
d="M424 -12q-67 0 -123 20.5t-101 55.5l-60 -62q-12 -12 -25 -12q-14 0 -22 8.5t-8 20.5q0 14 10 24l60 64q-42 48 -64.5 110t-22.5 131v2q0 72 26 138t73 115.5t113 79t146 29.5q66 0 122.5 -20.5t101.5 -56.5l60 63q12 12 25 12q14 0 22 -8.5t8 -20.5q0 -14 -10 -24
l-61 -65q42 -48 65 -109.5t23 -130.5v-2q0 -72 -26 -138t-73 -115.5t-113 -79t-146 -29.5zM150 350q0 -53 16 -99.5t45 -84.5l387 411q-35 29 -79 46t-95 17q-60 0 -110.5 -22.5t-86.5 -61.5t-56.5 -91.5t-20.5 -112.5v-2zM426 60q60 0 110.5 22.5t86.5 61.5t56.5 91.5
t20.5 112.5v2q0 52 -16 99t-45 85l-387 -412q35 -29 79 -45.5t95 -16.5z" />
    <glyph glyph-name="oslash" unicode="&#xf8;" horiz-adv-x="646" 
d="M322 -12q-48 0 -90 14.5t-76 40.5l-40 -41q-12 -12 -25 -12q-11 0 -19.5 7.5t-8.5 18.5q0 14 11 23l42 43q-30 35 -46 79.5t-16 94.5v2q0 55 20 104t56 86t85.5 58.5t108.5 21.5q48 0 89.5 -14.5t75.5 -40.5l41 43q12 12 26 12q11 0 19 -7.5t8 -18.5q0 -13 -10 -23
l-43 -45q30 -35 46.5 -79.5t16.5 -94.5v-2q0 -55 -20.5 -104t-56.5 -86t-86 -58.5t-108 -21.5zM132 258q0 -69 37 -121l272 282q-24 20 -54 31t-65 11q-42 0 -77 -16t-60 -43.5t-39 -64t-14 -77.5v-2zM324 56q42 0 77.5 16t60.5 43t39 63.5t14 77.5v2q0 34 -10 64.5
t-28 56.5l-271 -281q24 -20 54 -31t64 -11z" />
    <glyph glyph-name="Oslashacute" unicode="&#x1fe;" horiz-adv-x="850" 
d="M424 -12q-67 0 -123 20.5t-101 55.5l-60 -62q-12 -12 -25 -12q-14 0 -22 8.5t-8 20.5q0 14 10 24l60 64q-42 48 -64.5 110t-22.5 131v2q0 72 26 138t73 115.5t113 79t146 29.5q66 0 122.5 -20.5t101.5 -56.5l60 63q12 12 25 12q14 0 22 -8.5t8 -20.5q0 -14 -10 -24
l-61 -65q42 -48 65 -109.5t23 -130.5v-2q0 -72 -26 -138t-73 -115.5t-113 -79t-146 -29.5zM150 350q0 -53 16 -99.5t45 -84.5l387 411q-35 29 -79 46t-95 17q-60 0 -110.5 -22.5t-86.5 -61.5t-56.5 -91.5t-20.5 -112.5v-2zM426 60q60 0 110.5 22.5t86.5 61.5t56.5 91.5
t20.5 112.5v2q0 52 -16 99t-45 85l-387 -412q35 -29 79 -45.5t95 -16.5zM422 768q-19 0 -19 14q0 8 5 15l60 91q15 23 36 23q18 0 36 -9.5t18 -20.5q0 -6 -4 -11.5t-10 -11.5l-75 -71q-12 -12 -22.5 -15.5t-24.5 -3.5z" />
    <glyph glyph-name="oslashacute" unicode="&#x1ff;" horiz-adv-x="646" 
d="M322 -12q-48 0 -90 14.5t-76 40.5l-40 -41q-12 -12 -25 -12q-11 0 -19.5 7.5t-8.5 18.5q0 14 11 23l42 43q-30 35 -46 79.5t-16 94.5v2q0 55 20 104t56 86t85.5 58.5t108.5 21.5q48 0 89.5 -14.5t75.5 -40.5l41 43q12 12 26 12q11 0 19 -7.5t8 -18.5q0 -13 -10 -23
l-43 -45q30 -35 46.5 -79.5t16.5 -94.5v-2q0 -55 -20.5 -104t-56.5 -86t-86 -58.5t-108 -21.5zM132 258q0 -69 37 -121l272 282q-24 20 -54 31t-65 11q-42 0 -77 -16t-60 -43.5t-39 -64t-14 -77.5v-2zM324 56q42 0 77.5 16t60.5 43t39 63.5t14 77.5v2q0 34 -10 64.5
t-28 56.5l-271 -281q24 -20 54 -31t64 -11zM321 591q-19 0 -19 14q0 8 5 15l60 91q15 23 36 23q18 0 36 -9.5t18 -20.5q0 -6 -4 -11.5t-10 -11.5l-75 -71q-12 -12 -22.5 -15.5t-24.5 -3.5z" />
    <glyph glyph-name="Otilde" unicode="&#xd5;" horiz-adv-x="850" 
d="M424 -12q-80 0 -145.5 29t-112.5 78.5t-72.5 115t-25.5 137.5v2q0 72 26 138t73 115.5t113 79t146 29.5t145.5 -29t112.5 -78.5t72.5 -115t25.5 -137.5v-2q0 -72 -26 -138t-73 -115.5t-113 -79t-146 -29.5zM426 61q60 0 110.5 22.5t86.5 61.5t56.5 91t20.5 112v2
q0 60 -20.5 112.5t-57.5 91.5t-87.5 62t-110.5 23t-110.5 -22.5t-86.5 -61.5t-56.5 -91t-20.5 -112v-2q0 -60 20.5 -112.5t57.5 -91.5t87.5 -62t110.5 -23zM317 777q-3 -6 -8.5 -11.5t-14.5 -5.5q-11 0 -18.5 7t-7.5 17q0 3 1 8t2 8q15 44 35.5 62.5t52.5 18.5q17 0 35 -6.5
t36 -14t34 -13.5t29 -6q17 0 27 8t19 27q3 6 9 11.5t14 5.5q11 0 18.5 -7t7.5 -17q0 -3 -1 -7.5t-2 -8.5q-15 -44 -35.5 -62.5t-52.5 -18.5q-17 0 -35 6t-36 13.5t-34 14t-29 6.5q-17 0 -27 -8t-19 -27z" />
    <glyph glyph-name="otilde" unicode="&#xf5;" horiz-adv-x="646" 
d="M322 -12q-58 0 -107 21.5t-85 58t-56 85t-20 103.5v2q0 55 20 104t56 86t85.5 58.5t108.5 21.5q58 0 107.5 -21.5t85.5 -58t56 -85t20 -103.5v-2q0 -55 -20.5 -104t-56.5 -86t-86 -58.5t-108 -21.5zM324 57q42 0 77 16t60 43t39 63t14 77v2q0 42 -14.5 78.5t-40.5 64
t-61 43.5t-76 16q-42 0 -77 -16t-59.5 -43t-38.5 -63.5t-14 -77.5v-2q0 -42 14.5 -78.5t40 -63.5t60.5 -43t76 -16zM215 600q-3 -6 -8.5 -11.5t-14.5 -5.5q-11 0 -18.5 7t-7.5 17q0 3 1 8t2 8q15 44 35.5 62.5t52.5 18.5q17 0 35 -6.5t36 -14t34 -13.5t29 -6q17 0 27 8
t19 27q3 6 9 11.5t14 5.5q11 0 18.5 -7t7.5 -17q0 -3 -1 -7.5t-2 -8.5q-15 -44 -35.5 -62.5t-52.5 -18.5q-17 0 -35 6t-36 13.5t-34 14t-29 6.5q-17 0 -27 -8t-19 -27z" />
    <glyph glyph-name="Racute" unicode="&#x154;" horiz-adv-x="723" 
d="M99 660q0 17 11.5 28.5t27.5 11.5h262q65 0 115.5 -18.5t83.5 -51.5q26 -26 40 -61t14 -77v-2q0 -43 -14 -77t-38.5 -59.5t-59 -42t-75.5 -24.5l174 -224q13 -15 13 -29q0 -16 -12.5 -27.5t-27.5 -11.5q-12 0 -21 6t-16 15l-197 256h-201v-237q0 -17 -11.5 -28.5
t-28.5 -11.5q-16 0 -27.5 11.5t-11.5 28.5v625zM393 343q39 0 72 10t57 28.5t37.5 45t13.5 60.5v2q0 65 -47 101.5t-132 36.5h-216v-284h215zM355 758q-19 0 -19 14q0 8 5 15l60 91q15 23 36 23q18 0 36 -9.5t18 -20.5q0 -6 -4 -11.5t-10 -11.5l-75 -71q-12 -12 -22.5 -15.5
t-24.5 -3.5z" />
    <glyph glyph-name="racute" unicode="&#x155;" horiz-adv-x="405" 
d="M213 591q-19 0 -19 14q0 8 5 15l60 91q15 23 36 23q18 0 36 -9.5t18 -20.5q0 -6 -4 -11.5t-10 -11.5l-75 -71q-12 -12 -22.5 -15.5t-24.5 -3.5zM86 483q0 16 11 27.5t27 11.5q17 0 28 -11t11 -28v-97q14 32 34.5 57.5t44.5 43.5t49.5 27.5t49.5 9.5q17 0 27.5 -11
t10.5 -28q0 -16 -9.5 -26.5t-24.5 -12.5q-38 -5 -71 -21t-57.5 -45.5t-39 -71.5t-14.5 -98v-176q0 -16 -10.5 -27.5t-27.5 -11.5t-28 11t-11 28v449z" />
    <glyph glyph-name="Rcaron" unicode="&#x158;" horiz-adv-x="723" 
d="M99 660q0 17 11.5 28.5t27.5 11.5h262q65 0 115.5 -18.5t83.5 -51.5q26 -26 40 -61t14 -77v-2q0 -43 -14 -77t-38.5 -59.5t-59 -42t-75.5 -24.5l174 -224q13 -15 13 -29q0 -16 -12.5 -27.5t-27.5 -11.5q-12 0 -21 6t-16 15l-197 256h-201v-237q0 -17 -11.5 -28.5
t-28.5 -11.5q-16 0 -27.5 11.5t-11.5 28.5v625zM393 343q39 0 72 10t57 28.5t37.5 45t13.5 60.5v2q0 65 -47 101.5t-132 36.5h-216v-284h215zM417 879q13 11 23.5 14.5t24.5 3.5q18 0 18 -14q0 -6 -7 -16l-70 -86q-8 -11 -17 -17t-23 -6h-18q-14 0 -23 6t-17 17l-70 86
q-7 10 -7 16q0 14 19 14q14 0 25 -3.5t24 -14.5l59 -53z" />
    <glyph glyph-name="rcaron" unicode="&#x159;" horiz-adv-x="405" 
d="M276 712q13 11 23.5 14.5t24.5 3.5q18 0 18 -14q0 -6 -7 -16l-70 -86q-8 -11 -17 -17t-23 -6h-18q-14 0 -23 6t-17 17l-70 86q-7 10 -7 16q0 14 19 14q14 0 25 -3.5t24 -14.5l59 -53zM86 483q0 16 11 27.5t27 11.5q17 0 28 -11t11 -28v-97q14 32 34.5 57.5t44.5 43.5
t49.5 27.5t49.5 9.5q17 0 27.5 -11t10.5 -28q0 -16 -9.5 -26.5t-24.5 -12.5q-38 -5 -71 -21t-57.5 -45.5t-39 -71.5t-14.5 -98v-176q0 -16 -10.5 -27.5t-27.5 -11.5t-28 11t-11 28v449z" />
    <glyph glyph-name="Rcommaaccent" unicode="&#x156;" horiz-adv-x="723" 
d="M99 660q0 17 11.5 28.5t27.5 11.5h262q65 0 115.5 -18.5t83.5 -51.5q26 -26 40 -61t14 -77v-2q0 -43 -14 -77t-38.5 -59.5t-59 -42t-75.5 -24.5l174 -224q13 -15 13 -29q0 -16 -12.5 -27.5t-27.5 -11.5q-12 0 -21 6t-16 15l-197 256h-201v-237q0 -17 -11.5 -28.5
t-28.5 -11.5q-16 0 -27.5 11.5t-11.5 28.5v625zM393 343q39 0 72 10t57 28.5t37.5 45t13.5 60.5v2q0 65 -47 101.5t-132 36.5h-216v-284h215zM351 -149q-17 3 -28.5 13t-11.5 28v5q0 18 13 30.5t33 12.5t33.5 -14t13.5 -38v-5q0 -33 -7.5 -54t-24.5 -36q-14 -14 -36 -22
t-36 -8q-9 0 -14 4.5t-5 9.5q0 13 17 17q29 8 41.5 21t11.5 36z" />
    <glyph glyph-name="rcommaaccent" unicode="&#x157;" horiz-adv-x="405" 
d="M126 -154q-17 3 -28.5 13t-11.5 28v5q0 18 13 30.5t33 12.5t33.5 -14t13.5 -38v-5q0 -33 -7.5 -54t-24.5 -36q-14 -14 -36 -22t-36 -8q-9 0 -14 4.5t-5 9.5q0 13 17 17q29 8 41.5 21t11.5 36zM86 483q0 16 11 27.5t27 11.5q17 0 28 -11t11 -28v-97q14 32 34.5 57.5
t44.5 43.5t49.5 27.5t49.5 9.5q17 0 27.5 -11t10.5 -28q0 -16 -9.5 -26.5t-24.5 -12.5q-38 -5 -71 -21t-57.5 -45.5t-39 -71.5t-14.5 -98v-176q0 -16 -10.5 -27.5t-27.5 -11.5t-28 11t-11 28v449z" />
    <glyph glyph-name="Sacute" unicode="&#x15a;" horiz-adv-x="640" 
d="M324 768q-19 0 -19 14q0 8 5 15l60 91q15 23 36 23q18 0 36 -9.5t18 -20.5q0 -6 -4 -11.5t-10 -11.5l-75 -71q-12 -12 -22.5 -15.5t-24.5 -3.5zM339 -10q-77 0 -141.5 23.5t-123.5 70.5q-15 10 -15 30q0 17 11 28t27 11q15 0 24 -9q50 -42 102 -62.5t119 -20.5
q71 0 113.5 33.5t42.5 85.5v2q0 24 -8 43.5t-28 35.5t-55.5 29t-90.5 25q-60 13 -104.5 30t-73.5 41t-43 56t-14 75v2q0 41 17 76t48 60.5t73 40t92 14.5q69 0 122 -17t101 -52q6 -5 11.5 -13t5.5 -19q0 -16 -11 -27t-27 -11q-13 0 -23 7q-45 32 -88.5 46.5t-92.5 14.5
q-69 0 -109 -32.5t-40 -80.5v-2q0 -25 8 -44.5t29 -36t58 -30t95 -25.5q117 -26 172.5 -72t55.5 -126v-2q0 -45 -18 -81.5t-49.5 -62.5t-75.5 -40t-96 -14z" />
    <glyph glyph-name="sacute" unicode="&#x15b;" horiz-adv-x="498" 
d="M250 591q-19 0 -19 14q0 8 5 15l60 91q15 23 36 23q18 0 36 -9.5t18 -20.5q0 -6 -4 -11.5t-10 -11.5l-75 -71q-12 -12 -22.5 -15.5t-24.5 -3.5zM257 -10q-51 0 -104 17.5t-95 47.5q-5 4 -9.5 11t-4.5 17q0 14 10 23.5t24 9.5q11 0 19 -6q81 -55 164 -55q47 0 77 22t30 60
v2q0 19 -10.5 33t-28.5 24.5t-41.5 18.5t-48.5 15q-30 9 -60.5 19.5t-55 26.5t-40 40t-15.5 60v2q0 33 13 60.5t36.5 47t56 30t70.5 10.5q42 0 84.5 -12t80.5 -32q8 -5 13.5 -13t5.5 -19q0 -14 -10 -23.5t-24 -9.5q-9 0 -17 4q-33 19 -67.5 29.5t-67.5 10.5q-46 0 -73 -21.5
t-27 -53.5v-2q0 -18 11 -31.5t29.5 -23.5t42.5 -18t50 -16q30 -9 59.5 -20t53.5 -28t38.5 -41t14.5 -59v-2q0 -37 -14.5 -65.5t-39 -48.5t-58 -30.5t-72.5 -10.5z" />
    <glyph glyph-name="Scaron" unicode="&#x160;" horiz-adv-x="640" 
d="M386 889q13 11 23.5 14.5t24.5 3.5q18 0 18 -14q0 -6 -7 -16l-70 -86q-8 -11 -17 -17t-23 -6h-18q-14 0 -23 6t-17 17l-70 86q-7 10 -7 16q0 14 19 14q14 0 25 -3.5t24 -14.5l59 -53zM339 -10q-77 0 -141.5 23.5t-123.5 70.5q-15 10 -15 30q0 17 11 28t27 11q15 0 24 -9
q50 -42 102 -62.5t119 -20.5q71 0 113.5 33.5t42.5 85.5v2q0 24 -8 43.5t-28 35.5t-55.5 29t-90.5 25q-60 13 -104.5 30t-73.5 41t-43 56t-14 75v2q0 41 17 76t48 60.5t73 40t92 14.5q69 0 122 -17t101 -52q6 -5 11.5 -13t5.5 -19q0 -16 -11 -27t-27 -11q-13 0 -23 7
q-45 32 -88.5 46.5t-92.5 14.5q-69 0 -109 -32.5t-40 -80.5v-2q0 -25 8 -44.5t29 -36t58 -30t95 -25.5q117 -26 172.5 -72t55.5 -126v-2q0 -45 -18 -81.5t-49.5 -62.5t-75.5 -40t-96 -14z" />
    <glyph glyph-name="scaron" unicode="&#x161;" horiz-adv-x="498" 
d="M312 712q13 11 23.5 14.5t24.5 3.5q18 0 18 -14q0 -6 -7 -16l-70 -86q-8 -11 -17 -17t-23 -6h-18q-14 0 -23 6t-17 17l-70 86q-7 10 -7 16q0 14 19 14q14 0 25 -3.5t24 -14.5l59 -53zM257 -10q-51 0 -104 17.5t-95 47.5q-5 4 -9.5 11t-4.5 17q0 14 10 23.5t24 9.5
q11 0 19 -6q81 -55 164 -55q47 0 77 22t30 60v2q0 19 -10.5 33t-28.5 24.5t-41.5 18.5t-48.5 15q-30 9 -60.5 19.5t-55 26.5t-40 40t-15.5 60v2q0 33 13 60.5t36.5 47t56 30t70.5 10.5q42 0 84.5 -12t80.5 -32q8 -5 13.5 -13t5.5 -19q0 -14 -10 -23.5t-24 -9.5q-9 0 -17 4
q-33 19 -67.5 29.5t-67.5 10.5q-46 0 -73 -21.5t-27 -53.5v-2q0 -18 11 -31.5t29.5 -23.5t42.5 -18t50 -16q30 -9 59.5 -20t53.5 -28t38.5 -41t14.5 -59v-2q0 -37 -14.5 -65.5t-39 -48.5t-58 -30.5t-72.5 -10.5z" />
    <glyph glyph-name="Scedilla" unicode="&#x15e;" horiz-adv-x="640" 
d="M578 188q0 -42 -16 -77t-44.5 -60.5t-68 -41t-87.5 -18.5l-54 -117q-5 -11 -11.5 -17t-19.5 -6q-7 0 -15.5 3t-15.5 7.5t-12 10t-5 11.5q0 7 6 18l62 91q-63 6 -117.5 28.5t-105.5 63.5q-15 10 -15 30q0 17 11 28t27 11q15 0 24 -9q50 -42 102 -62.5t119 -20.5
q71 0 113.5 33.5t42.5 85.5v2q0 24 -8 43.5t-28 35.5t-55.5 29t-90.5 25q-60 13 -104.5 30t-73.5 41t-43 56t-14 75v2q0 41 17 76t48 60.5t73 40t92 14.5q69 0 122 -17t101 -52q6 -5 11.5 -13t5.5 -19q0 -16 -11 -27t-27 -11q-13 0 -23 7q-45 32 -88.5 46.5t-92.5 14.5
q-69 0 -109 -32.5t-40 -80.5v-2q0 -25 8 -44.5t29 -36t58 -30t95 -25.5q117 -26 172.5 -72t55.5 -126v-2v0z" />
    <glyph glyph-name="scedilla" unicode="&#x15f;" horiz-adv-x="498" 
d="M441 145q0 -35 -12.5 -62t-34.5 -46.5t-52 -31t-65 -14.5l-54 -117q-5 -11 -11.5 -17t-19.5 -6q-7 0 -15.5 3t-15.5 7.5t-12 10t-5 11.5q0 7 6 18l63 92q-42 6 -82 22t-73 40q-5 4 -9.5 11t-4.5 17q0 14 10 23.5t24 9.5q11 0 19 -6q81 -55 164 -55q47 0 77 22t30 60v2
q0 19 -10.5 33t-28.5 24.5t-41.5 18.5t-48.5 15q-30 9 -60.5 19.5t-55 26.5t-40 40t-15.5 60v2q0 33 13 60.5t36.5 47t56 30t70.5 10.5q42 0 84.5 -12t80.5 -32q8 -5 13.5 -13t5.5 -19q0 -14 -10 -23.5t-24 -9.5q-9 0 -17 4q-33 19 -67.5 29.5t-67.5 10.5q-46 0 -73 -21.5
t-27 -53.5v-2q0 -18 11 -31.5t29.5 -23.5t42.5 -18t50 -16q30 -9 59.5 -20t53.5 -28t38.5 -41t14.5 -59v-2v0z" />
    <glyph glyph-name="Scommaaccent" unicode="&#x218;" horiz-adv-x="640" 
d="M320 -155q-17 3 -28.5 13t-11.5 28v5q0 18 13 30.5t33 12.5t33.5 -14t13.5 -38v-5q0 -33 -7.5 -54t-24.5 -36q-14 -14 -36 -22t-36 -8q-9 0 -14 4.5t-5 9.5q0 13 17 17q29 8 41.5 21t11.5 36zM339 -10q-77 0 -141.5 23.5t-123.5 70.5q-15 10 -15 30q0 17 11 28t27 11
q15 0 24 -9q50 -42 102 -62.5t119 -20.5q71 0 113.5 33.5t42.5 85.5v2q0 24 -8 43.5t-28 35.5t-55.5 29t-90.5 25q-60 13 -104.5 30t-73.5 41t-43 56t-14 75v2q0 41 17 76t48 60.5t73 40t92 14.5q69 0 122 -17t101 -52q6 -5 11.5 -13t5.5 -19q0 -16 -11 -27t-27 -11
q-13 0 -23 7q-45 32 -88.5 46.5t-92.5 14.5q-69 0 -109 -32.5t-40 -80.5v-2q0 -25 8 -44.5t29 -36t58 -30t95 -25.5q117 -26 172.5 -72t55.5 -126v-2q0 -45 -18 -81.5t-49.5 -62.5t-75.5 -40t-96 -14z" />
    <glyph glyph-name="scommaaccent" unicode="&#x219;" horiz-adv-x="498" 
d="M245 -154q-17 3 -28.5 13t-11.5 28v5q0 18 13 30.5t33 12.5t33.5 -14t13.5 -38v-5q0 -33 -7.5 -54t-24.5 -36q-14 -14 -36 -22t-36 -8q-9 0 -14 4.5t-5 9.5q0 13 17 17q29 8 41.5 21t11.5 36zM257 -10q-51 0 -104 17.5t-95 47.5q-5 4 -9.5 11t-4.5 17q0 14 10 23.5
t24 9.5q11 0 19 -6q81 -55 164 -55q47 0 77 22t30 60v2q0 19 -10.5 33t-28.5 24.5t-41.5 18.5t-48.5 15q-30 9 -60.5 19.5t-55 26.5t-40 40t-15.5 60v2q0 33 13 60.5t36.5 47t56 30t70.5 10.5q42 0 84.5 -12t80.5 -32q8 -5 13.5 -13t5.5 -19q0 -14 -10 -23.5t-24 -9.5
q-9 0 -17 4q-33 19 -67.5 29.5t-67.5 10.5q-46 0 -73 -21.5t-27 -53.5v-2q0 -18 11 -31.5t29.5 -23.5t42.5 -18t50 -16q30 -9 59.5 -20t53.5 -28t38.5 -41t14.5 -59v-2q0 -37 -14.5 -65.5t-39 -48.5t-58 -30.5t-72.5 -10.5z" />
    <glyph glyph-name="Tcaron" unicode="&#x164;" horiz-adv-x="648" 
d="M384 879q13 11 23.5 14.5t24.5 3.5q18 0 18 -14q0 -6 -7 -16l-70 -86q-8 -11 -17 -17t-23 -6h-18q-14 0 -23 6t-17 17l-70 86q-7 10 -7 16q0 14 19 14q14 0 25 -3.5t24 -14.5l59 -53zM284 627h-203q-15 0 -26 10.5t-11 25.5t11 26t26 11h486q15 0 26 -11t11 -26
t-11 -25.5t-26 -10.5h-203v-592q0 -17 -11.5 -28.5t-28.5 -11.5t-28.5 11.5t-11.5 28.5v592z" />
    <glyph glyph-name="tcaron" unicode="&#x165;" horiz-adv-x="404" 
d="M304 718q3 32 34 32h15q22 0 22 -21q0 -9 -5 -24l-35 -106q-6 -20 -22 -20q-8 0 -14 5t-4 18zM259 -9q-31 0 -58 8t-46.5 25.5t-30.5 45.5t-11 67v312h-42q-14 0 -24 10t-10 24t10 24t24 10h42v122q0 16 10.5 27.5t27.5 11.5q16 0 27.5 -11.5t11.5 -27.5v-122h134
q14 0 24.5 -10t10.5 -24t-10.5 -24t-24.5 -10h-134v-302q0 -48 24 -67t63 -19q20 0 31 3.5t16 3.5q14 0 23.5 -9.5t9.5 -23.5q0 -22 -22 -30q-17 -7 -35 -10.5t-41 -3.5z" />
    <glyph glyph-name="Tcommaaccent" unicode="&#x162;" horiz-adv-x="648" 
d="M317 -154q-17 3 -28.5 13t-11.5 28v5q0 18 13 30.5t33 12.5t33.5 -14t13.5 -38v-5q0 -33 -7.5 -54t-24.5 -36q-14 -14 -36 -22t-36 -8q-9 0 -14 4.5t-5 9.5q0 13 17 17q29 8 41.5 21t11.5 36zM284 627h-203q-15 0 -26 10.5t-11 25.5t11 26t26 11h486q15 0 26 -11t11 -26
t-11 -25.5t-26 -10.5h-203v-592q0 -17 -11.5 -28.5t-28.5 -11.5t-28.5 11.5t-11.5 28.5v592z" />
    <glyph glyph-name="tcommaaccent" unicode="&#x163;" horiz-adv-x="404" 
d="M219 -154q-17 3 -28.5 13t-11.5 28v5q0 18 13 30.5t33 12.5t33.5 -14t13.5 -38v-5q0 -33 -7.5 -54t-24.5 -36q-14 -14 -36 -22t-36 -8q-9 0 -14 4.5t-5 9.5q0 13 17 17q29 8 41.5 21t11.5 36zM259 -9q-31 0 -58 8t-46.5 25.5t-30.5 45.5t-11 67v312h-42q-14 0 -24 10
t-10 24t10 24t24 10h42v122q0 16 10.5 27.5t27.5 11.5q16 0 27.5 -11.5t11.5 -27.5v-122h134q14 0 24.5 -10t10.5 -24t-10.5 -24t-24.5 -10h-134v-302q0 -48 24 -67t63 -19q20 0 31 3.5t16 3.5q14 0 23.5 -9.5t9.5 -23.5q0 -22 -22 -30q-17 -7 -35 -10.5t-41 -3.5z" />
    <glyph glyph-name="Thorn" unicode="&#xde;" horiz-adv-x="673" 
d="M99 665q0 17 11.5 28.5t27.5 11.5q17 0 28.5 -11.5t11.5 -28.5v-85h183q59 0 107.5 -15.5t83 -44t53 -70t18.5 -92.5v-2q0 -57 -22 -100t-59.5 -72t-87.5 -43.5t-106 -14.5h-170v-91q0 -17 -11.5 -28.5t-28.5 -11.5q-16 0 -27.5 11.5t-11.5 28.5v630zM351 198
q43 0 78.5 11.5t61 31.5t39 48.5t13.5 63.5v2q0 75 -51.5 113.5t-136.5 38.5h-177v-309h173z" />
    <glyph glyph-name="thorn" unicode="&#xfe;" horiz-adv-x="664" 
d="M86 696q0 17 11 28t27 11q17 0 28 -11t11 -28v-283q16 23 35.5 44t43.5 36.5t53.5 25t65.5 9.5q46 0 90.5 -18t79.5 -52.5t56 -84t21 -113.5v-2q0 -63 -21 -113t-55.5 -84.5t-79 -53t-91.5 -18.5q-36 0 -66 9t-54 24t-43.5 35t-34.5 42v-225q0 -17 -10.5 -28t-27.5 -11
t-28 11t-11 28v822zM347 58q37 0 70.5 13.5t58 39t39 62.5t14.5 84v2q0 46 -14.5 83t-39.5 63t-58 40t-70 14q-36 0 -69.5 -14.5t-60 -41t-42 -63t-15.5 -80.5v-2q0 -45 15.5 -82t42 -63t60 -40.5t69.5 -14.5z" />
    <glyph glyph-name="Uacute" unicode="&#xda;" horiz-adv-x="759" 
d="M377 758q-19 0 -19 14q0 8 5 15l60 91q15 23 36 23q18 0 36 -9.5t18 -20.5q0 -6 -4 -11.5t-10 -11.5l-75 -71q-12 -12 -22.5 -15.5t-24.5 -3.5zM379 -11q-65 0 -118.5 19.5t-92 58t-59.5 95.5t-21 131v372q0 17 11.5 28.5t27.5 11.5q17 0 28.5 -11.5t11.5 -28.5v-367
q0 -114 57 -175t157 -61q97 0 154 58t57 173v372q0 17 11.5 28.5t28.5 11.5q16 0 27.5 -11.5t11.5 -28.5v-366q0 -77 -21 -135t-59.5 -97t-92 -58.5t-119.5 -19.5z" />
    <glyph glyph-name="uacute" unicode="&#xfa;" horiz-adv-x="616" 
d="M301 591q-19 0 -19 14q0 8 5 15l60 91q15 23 36 23q18 0 36 -9.5t18 -20.5q0 -6 -4 -11.5t-10 -11.5l-75 -71q-12 -12 -22.5 -15.5t-24.5 -3.5zM529 34q0 -16 -10.5 -27.5t-27.5 -11.5q-16 0 -27 11t-11 28v56q-26 -42 -68 -71.5t-109 -29.5q-47 0 -83.5 15t-62 42.5
t-39 65.5t-13.5 84v287q0 17 10.5 28t27.5 11q16 0 27.5 -11t11.5 -28v-268q0 -72 37 -114t106 -42q33 0 61.5 11.5t49 33t32.5 51.5t12 66v262q0 17 10.5 28t27.5 11q16 0 27 -11t11 -28v-449z" />
    <glyph glyph-name="Ubreve" unicode="&#x16c;" horiz-adv-x="759" 
d="M379 -11q-65 0 -118.5 19.5t-92 58t-59.5 95.5t-21 131v372q0 17 11.5 28.5t27.5 11.5q17 0 28.5 -11.5t11.5 -28.5v-367q0 -114 57 -175t157 -61q97 0 154 58t57 173v372q0 17 11.5 28.5t28.5 11.5q16 0 27.5 -11.5t11.5 -28.5v-366q0 -77 -21 -135t-59.5 -97t-92 -58.5
t-119.5 -19.5zM379 758q-92 0 -132 73q-5 8 -7.5 17.5t-2.5 17.5q0 13 7.5 21.5t20.5 8.5q11 0 17 -5.5t11 -13.5q10 -24 30.5 -39.5t55.5 -15.5t55.5 15.5t30.5 39.5q5 8 11 13.5t17 5.5q13 0 20.5 -8.5t7.5 -21.5q0 -8 -2.5 -17.5t-7.5 -17.5q-40 -73 -132 -73z" />
    <glyph glyph-name="ubreve" unicode="&#x16d;" horiz-adv-x="616" 
d="M529 34q0 -16 -10.5 -27.5t-27.5 -11.5q-16 0 -27 11t-11 28v56q-26 -42 -68 -71.5t-109 -29.5q-47 0 -83.5 15t-62 42.5t-39 65.5t-13.5 84v287q0 17 10.5 28t27.5 11q16 0 27.5 -11t11.5 -28v-268q0 -72 37 -114t106 -42q33 0 61.5 11.5t49 33t32.5 51.5t12 66v262
q0 17 10.5 28t27.5 11q16 0 27 -11t11 -28v-449zM303 593q-92 0 -132 73q-5 8 -7.5 17.5t-2.5 17.5q0 13 7.5 21.5t20.5 8.5q11 0 17 -5.5t11 -13.5q10 -24 30.5 -39.5t55.5 -15.5t55.5 15.5t30.5 39.5q5 8 11 13.5t17 5.5q13 0 20.5 -8.5t7.5 -21.5q0 -8 -2.5 -17.5
t-7.5 -17.5q-40 -73 -132 -73z" />
    <glyph glyph-name="Ucircumflex" unicode="&#xdb;" horiz-adv-x="759" 
d="M319 777q-13 -12 -23.5 -15.5t-24.5 -3.5q-18 0 -18 14q0 5 7 17l70 86q8 10 17 16t23 6h18q14 0 23 -6t17 -16l70 -86q7 -12 7 -17q0 -14 -19 -14q-14 0 -25 3.5t-24 15.5l-59 52zM379 -11q-65 0 -118.5 19.5t-92 58t-59.5 95.5t-21 131v372q0 17 11.5 28.5t27.5 11.5
q17 0 28.5 -11.5t11.5 -28.5v-367q0 -114 57 -175t157 -61q97 0 154 58t57 173v372q0 17 11.5 28.5t28.5 11.5q16 0 27.5 -11.5t11.5 -28.5v-366q0 -77 -21 -135t-59.5 -97t-92 -58.5t-119.5 -19.5z" />
    <glyph glyph-name="ucircumflex" unicode="&#xfb;" horiz-adv-x="616" 
d="M243 610q-13 -12 -23.5 -15.5t-24.5 -3.5q-18 0 -18 14q0 5 7 17l70 86q8 10 17 16t23 6h18q14 0 23 -6t17 -16l70 -86q7 -12 7 -17q0 -14 -19 -14q-14 0 -25 3.5t-24 15.5l-59 52zM529 34q0 -16 -10.5 -27.5t-27.5 -11.5q-16 0 -27 11t-11 28v56q-26 -42 -68 -71.5
t-109 -29.5q-47 0 -83.5 15t-62 42.5t-39 65.5t-13.5 84v287q0 17 10.5 28t27.5 11q16 0 27.5 -11t11.5 -28v-268q0 -72 37 -114t106 -42q33 0 61.5 11.5t49 33t32.5 51.5t12 66v262q0 17 10.5 28t27.5 11q16 0 27 -11t11 -28v-449z" />
    <glyph glyph-name="Udieresis" unicode="&#xdc;" horiz-adv-x="759" 
d="M468 862q20 0 33.5 -12.5t13.5 -32.5v-15q0 -20 -13.5 -32.5t-33.5 -12.5t-33.5 12.5t-13.5 32.5v15q0 20 13.5 32.5t33.5 12.5zM290 862q20 0 33.5 -12.5t13.5 -32.5v-15q0 -20 -13.5 -32.5t-33.5 -12.5t-33.5 12.5t-13.5 32.5v15q0 20 13.5 32.5t33.5 12.5zM379 -11
q-65 0 -118.5 19.5t-92 58t-59.5 95.5t-21 131v372q0 17 11.5 28.5t27.5 11.5q17 0 28.5 -11.5t11.5 -28.5v-367q0 -114 57 -175t157 -61q97 0 154 58t57 173v372q0 17 11.5 28.5t28.5 11.5q16 0 27.5 -11.5t11.5 -28.5v-366q0 -77 -21 -135t-59.5 -97t-92 -58.5
t-119.5 -19.5z" />
    <glyph glyph-name="udieresis" unicode="&#xfc;" horiz-adv-x="616" 
d="M392 695q20 0 33.5 -12.5t13.5 -32.5v-15q0 -20 -13.5 -32.5t-33.5 -12.5t-33.5 12.5t-13.5 32.5v15q0 20 13.5 32.5t33.5 12.5zM214 695q20 0 33.5 -12.5t13.5 -32.5v-15q0 -20 -13.5 -32.5t-33.5 -12.5t-33.5 12.5t-13.5 32.5v15q0 20 13.5 32.5t33.5 12.5zM529 34
q0 -16 -10.5 -27.5t-27.5 -11.5q-16 0 -27 11t-11 28v56q-26 -42 -68 -71.5t-109 -29.5q-47 0 -83.5 15t-62 42.5t-39 65.5t-13.5 84v287q0 17 10.5 28t27.5 11q16 0 27.5 -11t11.5 -28v-268q0 -72 37 -114t106 -42q33 0 61.5 11.5t49 33t32.5 51.5t12 66v262q0 17 10.5 28
t27.5 11q16 0 27 -11t11 -28v-449z" />
    <glyph glyph-name="Ugrave" unicode="&#xd9;" horiz-adv-x="759" 
d="M379 -11q-65 0 -118.5 19.5t-92 58t-59.5 95.5t-21 131v372q0 17 11.5 28.5t27.5 11.5q17 0 28.5 -11.5t11.5 -28.5v-367q0 -114 57 -175t157 -61q97 0 154 58t57 173v372q0 17 11.5 28.5t28.5 11.5q16 0 27.5 -11.5t11.5 -28.5v-366q0 -77 -21 -135t-59.5 -97t-92 -58.5
t-119.5 -19.5zM381 758q-14 0 -24.5 3.5t-22.5 15.5l-75 71q-6 6 -10 11.5t-4 11.5q0 11 18 20.5t36 9.5q21 0 36 -23l60 -91q5 -7 5 -15q0 -14 -19 -14z" />
    <glyph glyph-name="ugrave" unicode="&#xf9;" horiz-adv-x="616" 
d="M529 34q0 -16 -10.5 -27.5t-27.5 -11.5q-16 0 -27 11t-11 28v56q-26 -42 -68 -71.5t-109 -29.5q-47 0 -83.5 15t-62 42.5t-39 65.5t-13.5 84v287q0 17 10.5 28t27.5 11q16 0 27.5 -11t11.5 -28v-268q0 -72 37 -114t106 -42q33 0 61.5 11.5t49 33t32.5 51.5t12 66v262
q0 17 10.5 28t27.5 11q16 0 27 -11t11 -28v-449zM305 591q-14 0 -24.5 3.5t-22.5 15.5l-75 71q-6 6 -10 11.5t-4 11.5q0 11 18 20.5t36 9.5q21 0 36 -23l60 -91q5 -7 5 -15q0 -14 -19 -14z" />
    <glyph glyph-name="Uhungarumlaut" unicode="&#x170;" horiz-adv-x="759" 
d="M379 -11q-65 0 -118.5 19.5t-92 58t-59.5 95.5t-21 131v372q0 17 11.5 28.5t27.5 11.5q17 0 28.5 -11.5t11.5 -28.5v-367q0 -114 57 -175t157 -61q97 0 154 58t57 173v372q0 17 11.5 28.5t28.5 11.5q16 0 27.5 -11.5t11.5 -28.5v-366q0 -77 -21 -135t-59.5 -97t-92 -58.5
t-119.5 -19.5zM448 758q-20 0 -20 14q0 7 6 15l61 92q14 22 34 22q17 0 34 -9t17 -20q0 -10 -12 -22l-74 -73q-13 -12 -22.5 -15.5t-23.5 -3.5zM284 758q-8 0 -14 4t-6 10q0 7 6 15l61 92q14 22 34 22q17 0 34 -9t17 -20q0 -10 -12 -22l-74 -73q-13 -12 -22.5 -15.5
t-23.5 -3.5z" />
    <glyph glyph-name="uhungarumlaut" unicode="&#x171;" horiz-adv-x="616" 
d="M529 34q0 -16 -10.5 -27.5t-27.5 -11.5q-16 0 -27 11t-11 28v56q-26 -42 -68 -71.5t-109 -29.5q-47 0 -83.5 15t-62 42.5t-39 65.5t-13.5 84v287q0 17 10.5 28t27.5 11q16 0 27.5 -11t11.5 -28v-268q0 -72 37 -114t106 -42q33 0 61.5 11.5t49 33t32.5 51.5t12 66v262
q0 17 10.5 28t27.5 11q16 0 27 -11t11 -28v-449zM372 591q-20 0 -20 14q0 7 6 15l61 92q14 22 34 22q17 0 34 -9t17 -20q0 -10 -12 -22l-74 -73q-13 -12 -22.5 -15.5t-23.5 -3.5zM208 591q-8 0 -14 4t-6 10q0 7 6 15l61 92q14 22 34 22q17 0 34 -9t17 -20q0 -10 -12 -22
l-74 -73q-13 -12 -22.5 -15.5t-23.5 -3.5z" />
    <glyph glyph-name="Umacron" unicode="&#x16a;" horiz-adv-x="759" 
d="M379 -11q-65 0 -118.5 19.5t-92 58t-59.5 95.5t-21 131v372q0 17 11.5 28.5t27.5 11.5q17 0 28.5 -11.5t11.5 -28.5v-367q0 -114 57 -175t157 -61q97 0 154 58t57 173v372q0 17 11.5 28.5t28.5 11.5q16 0 27.5 -11.5t11.5 -28.5v-366q0 -77 -21 -135t-59.5 -97t-92 -58.5
t-119.5 -19.5zM247 782q-14 0 -23 9.5t-9 22.5t9 22.5t23 9.5h264q14 0 23 -9.5t9 -22.5t-9 -22.5t-23 -9.5h-264z" />
    <glyph glyph-name="umacron" unicode="&#x16b;" horiz-adv-x="616" 
d="M529 34q0 -16 -10.5 -27.5t-27.5 -11.5q-16 0 -27 11t-11 28v56q-26 -42 -68 -71.5t-109 -29.5q-47 0 -83.5 15t-62 42.5t-39 65.5t-13.5 84v287q0 17 10.5 28t27.5 11q16 0 27.5 -11t11.5 -28v-268q0 -72 37 -114t106 -42q33 0 61.5 11.5t49 33t32.5 51.5t12 66v262
q0 17 10.5 28t27.5 11q16 0 27 -11t11 -28v-449zM171 615q-14 0 -23 9.5t-9 22.5t9 22.5t23 9.5h264q14 0 23 -9.5t9 -22.5t-9 -22.5t-23 -9.5h-264z" />
    <glyph glyph-name="Uogonek" unicode="&#x172;" horiz-adv-x="759" 
d="M304 -84q0 21 9.5 39t27.5 36q-57 5 -103.5 27t-80 60t-51.5 92t-18 123v372q0 17 11.5 28.5t27.5 11.5q17 0 28.5 -11.5t11.5 -28.5v-367q0 -114 57 -175t157 -61q97 0 154 58t57 173v372q0 17 11.5 28.5t28.5 11.5q16 0 27.5 -11.5t11.5 -28.5v-366q0 -72 -19 -128
t-53.5 -95t-83 -60.5t-108.5 -25.5q-20 -17 -28.5 -31.5t-8.5 -31.5q0 -20 13.5 -29.5t36.5 -14.5q29 -6 29 -24q0 -23 -28 -23q-14 0 -33.5 3t-38.5 12t-32 24.5t-13 40.5z" />
    <glyph glyph-name="uogonek" unicode="&#x173;" horiz-adv-x="616" 
d="M529 31q0 -11 -3.5 -18.5t-13.5 -16.5q-23 -20 -33.5 -35.5t-10.5 -33.5q0 -20 13 -29.5t36 -14.5q17 -3 23 -9t6 -15q0 -23 -27 -23q-14 0 -34 3t-38.5 12t-31.5 24.5t-13 39.5q0 27 15 49t43 45q-2 1 -3.5 13t-2 26t-1 26t-0.5 14v2q-26 -42 -68 -71.5t-109 -29.5
q-47 0 -83.5 15t-62 42.5t-39 65.5t-13.5 84v287q0 17 10.5 28t27.5 11q16 0 27.5 -11t11.5 -28v-268q0 -72 37 -114t106 -42q33 0 61.5 11.5t49 33t32.5 51.5t12 66v262q0 17 10.5 28t27.5 11q16 0 27 -11t11 -28v-452z" />
    <glyph glyph-name="Uring" unicode="&#x16e;" horiz-adv-x="759" 
d="M379 748q-21 0 -39.5 8t-33 21.5t-23 31.5t-8.5 38v2q0 20 8.5 38t23 31.5t33 21.5t39.5 8t39.5 -8t33 -21.5t23 -31.5t8.5 -38v-2q0 -20 -8.5 -38t-23 -31.5t-33 -21.5t-39.5 -8zM379 786q25 0 43.5 18t18.5 43v2q0 25 -18 43t-44 18t-44 -18t-18 -43v-2q0 -25 18.5 -43
t43.5 -18zM379 -11q-65 0 -118.5 19.5t-92 58t-59.5 95.5t-21 131v372q0 17 11.5 28.5t27.5 11.5q17 0 28.5 -11.5t11.5 -28.5v-367q0 -114 57 -175t157 -61q97 0 154 58t57 173v372q0 17 11.5 28.5t28.5 11.5q16 0 27.5 -11.5t11.5 -28.5v-366q0 -77 -21 -135t-59.5 -97
t-92 -58.5t-119.5 -19.5z" />
    <glyph glyph-name="uring" unicode="&#x16f;" horiz-adv-x="616" 
d="M303 590q-21 0 -39.5 8t-33 21.5t-23 31.5t-8.5 38v2q0 20 8.5 38t23 31.5t33 21.5t39.5 8t39.5 -8t33 -21.5t23 -31.5t8.5 -38v-2q0 -20 -8.5 -38t-23 -31.5t-33 -21.5t-39.5 -8zM303 628q25 0 43.5 18t18.5 43v2q0 25 -18 43t-44 18t-44 -18t-18 -43v-2q0 -25 18.5 -43
t43.5 -18zM529 34q0 -16 -10.5 -27.5t-27.5 -11.5q-16 0 -27 11t-11 28v56q-26 -42 -68 -71.5t-109 -29.5q-47 0 -83.5 15t-62 42.5t-39 65.5t-13.5 84v287q0 17 10.5 28t27.5 11q16 0 27.5 -11t11.5 -28v-268q0 -72 37 -114t106 -42q33 0 61.5 11.5t49 33t32.5 51.5t12 66
v262q0 17 10.5 28t27.5 11q16 0 27 -11t11 -28v-449z" />
    <glyph glyph-name="Wacute" unicode="&#x1e82;" horiz-adv-x="1101" 
d="M548 758q-19 0 -19 14q0 8 5 15l60 91q15 23 36 23q18 0 36 -9.5t18 -20.5q0 -6 -4 -11.5t-10 -11.5l-75 -71q-12 -12 -22.5 -15.5t-24.5 -3.5zM57 647q-2 5 -3 9t-1 9q0 16 12 28t29 12q15 0 25.5 -9.5t15.5 -23.5l193 -556l183 558q5 14 14 22.5t25 8.5h5
q15 0 24.5 -8.5t14.5 -22.5l183 -558l194 558q5 14 14.5 22.5t23.5 8.5q16 0 28 -12t12 -27q0 -5 -1.5 -9.5t-3.5 -9.5l-224 -622q-5 -15 -15.5 -24.5t-25.5 -9.5h-6q-15 0 -25.5 9.5t-15.5 24.5l-182 538l-181 -538q-5 -15 -15.5 -24.5t-25.5 -9.5h-6q-30 0 -41 34z" />
    <glyph glyph-name="wacute" unicode="&#x1e83;" horiz-adv-x="858" 
d="M426 591q-19 0 -19 14q0 8 5 15l60 91q15 23 36 23q18 0 36 -9.5t18 -20.5q0 -6 -4 -11.5t-10 -11.5l-75 -71q-12 -12 -22.5 -15.5t-24.5 -3.5zM255 -8q-31 0 -43 35l-157 437q-2 5 -3.5 10.5t-1.5 10.5q0 14 11 25.5t28 11.5q15 0 24.5 -9t14.5 -23l130 -388l131 389
q5 14 14 22.5t24 8.5h4q16 0 25.5 -8.5t14.5 -22.5l130 -389l132 390q4 12 12.5 21t24.5 9q17 0 27.5 -11t10.5 -25q0 -5 -1.5 -10.5t-3.5 -10.5l-158 -438q-6 -17 -17 -26t-25 -9h-3q-31 0 -42 35l-129 377l-130 -377q-11 -35 -42 -35h-2z" />
    <glyph glyph-name="Wcircumflex" unicode="&#x174;" horiz-adv-x="1101" 
d="M490 777q-13 -12 -23.5 -15.5t-24.5 -3.5q-18 0 -18 14q0 5 7 17l70 86q8 10 17 16t23 6h18q14 0 23 -6t17 -16l70 -86q7 -12 7 -17q0 -14 -19 -14q-14 0 -25 3.5t-24 15.5l-59 52zM57 647q-2 5 -3 9t-1 9q0 16 12 28t29 12q15 0 25.5 -9.5t15.5 -23.5l193 -556l183 558
q5 14 14 22.5t25 8.5h5q15 0 24.5 -8.5t14.5 -22.5l183 -558l194 558q5 14 14.5 22.5t23.5 8.5q16 0 28 -12t12 -27q0 -5 -1.5 -9.5t-3.5 -9.5l-224 -622q-5 -15 -15.5 -24.5t-25.5 -9.5h-6q-15 0 -25.5 9.5t-15.5 24.5l-182 538l-181 -538q-5 -15 -15.5 -24.5t-25.5 -9.5
h-6q-30 0 -41 34z" />
    <glyph glyph-name="wcircumflex" unicode="&#x175;" horiz-adv-x="858" 
d="M368 610q-13 -12 -23.5 -15.5t-24.5 -3.5q-18 0 -18 14q0 5 7 17l70 86q8 10 17 16t23 6h18q14 0 23 -6t17 -16l70 -86q7 -12 7 -17q0 -14 -19 -14q-14 0 -25 3.5t-24 15.5l-59 52zM255 -8q-31 0 -43 35l-157 437q-2 5 -3.5 10.5t-1.5 10.5q0 14 11 25.5t28 11.5
q15 0 24.5 -9t14.5 -23l130 -388l131 389q5 14 14 22.5t24 8.5h4q16 0 25.5 -8.5t14.5 -22.5l130 -389l132 390q4 12 12.5 21t24.5 9q17 0 27.5 -11t10.5 -25q0 -5 -1.5 -10.5t-3.5 -10.5l-158 -438q-6 -17 -17 -26t-25 -9h-3q-31 0 -42 35l-129 377l-130 -377
q-11 -35 -42 -35h-2z" />
    <glyph glyph-name="Wdieresis" unicode="&#x1e84;" horiz-adv-x="1101" 
d="M639 862q20 0 33.5 -12.5t13.5 -32.5v-15q0 -20 -13.5 -32.5t-33.5 -12.5t-33.5 12.5t-13.5 32.5v15q0 20 13.5 32.5t33.5 12.5zM461 862q20 0 33.5 -12.5t13.5 -32.5v-15q0 -20 -13.5 -32.5t-33.5 -12.5t-33.5 12.5t-13.5 32.5v15q0 20 13.5 32.5t33.5 12.5zM57 647
q-2 5 -3 9t-1 9q0 16 12 28t29 12q15 0 25.5 -9.5t15.5 -23.5l193 -556l183 558q5 14 14 22.5t25 8.5h5q15 0 24.5 -8.5t14.5 -22.5l183 -558l194 558q5 14 14.5 22.5t23.5 8.5q16 0 28 -12t12 -27q0 -5 -1.5 -9.5t-3.5 -9.5l-224 -622q-5 -15 -15.5 -24.5t-25.5 -9.5h-6
q-15 0 -25.5 9.5t-15.5 24.5l-182 538l-181 -538q-5 -15 -15.5 -24.5t-25.5 -9.5h-6q-30 0 -41 34z" />
    <glyph glyph-name="wdieresis" unicode="&#x1e85;" horiz-adv-x="858" 
d="M517 695q20 0 33.5 -12.5t13.5 -32.5v-15q0 -20 -13.5 -32.5t-33.5 -12.5t-33.5 12.5t-13.5 32.5v15q0 20 13.5 32.5t33.5 12.5zM339 695q20 0 33.5 -12.5t13.5 -32.5v-15q0 -20 -13.5 -32.5t-33.5 -12.5t-33.5 12.5t-13.5 32.5v15q0 20 13.5 32.5t33.5 12.5zM255 -8
q-31 0 -43 35l-157 437q-2 5 -3.5 10.5t-1.5 10.5q0 14 11 25.5t28 11.5q15 0 24.5 -9t14.5 -23l130 -388l131 389q5 14 14 22.5t24 8.5h4q16 0 25.5 -8.5t14.5 -22.5l130 -389l132 390q4 12 12.5 21t24.5 9q17 0 27.5 -11t10.5 -25q0 -5 -1.5 -10.5t-3.5 -10.5l-158 -438
q-6 -17 -17 -26t-25 -9h-3q-31 0 -42 35l-129 377l-130 -377q-11 -35 -42 -35h-2z" />
    <glyph glyph-name="Wgrave" unicode="&#x1e80;" horiz-adv-x="1101" 
d="M57 647q-2 5 -3 9t-1 9q0 16 12 28t29 12q15 0 25.5 -9.5t15.5 -23.5l193 -556l183 558q5 14 14 22.5t25 8.5h5q15 0 24.5 -8.5t14.5 -22.5l183 -558l194 558q5 14 14.5 22.5t23.5 8.5q16 0 28 -12t12 -27q0 -5 -1.5 -9.5t-3.5 -9.5l-224 -622q-5 -15 -15.5 -24.5
t-25.5 -9.5h-6q-15 0 -25.5 9.5t-15.5 24.5l-182 538l-181 -538q-5 -15 -15.5 -24.5t-25.5 -9.5h-6q-30 0 -41 34zM552 758q-14 0 -24.5 3.5t-22.5 15.5l-75 71q-6 6 -10 11.5t-4 11.5q0 11 18 20.5t36 9.5q21 0 36 -23l60 -91q5 -7 5 -15q0 -14 -19 -14z" />
    <glyph glyph-name="wgrave" unicode="&#x1e81;" horiz-adv-x="858" 
d="M255 -8q-31 0 -43 35l-157 437q-2 5 -3.5 10.5t-1.5 10.5q0 14 11 25.5t28 11.5q15 0 24.5 -9t14.5 -23l130 -388l131 389q5 14 14 22.5t24 8.5h4q16 0 25.5 -8.5t14.5 -22.5l130 -389l132 390q4 12 12.5 21t24.5 9q17 0 27.5 -11t10.5 -25q0 -5 -1.5 -10.5t-3.5 -10.5
l-158 -438q-6 -17 -17 -26t-25 -9h-3q-31 0 -42 35l-129 377l-130 -377q-11 -35 -42 -35h-2zM430 591q-14 0 -24.5 3.5t-22.5 15.5l-75 71q-6 6 -10 11.5t-4 11.5q0 11 18 20.5t36 9.5q21 0 36 -23l60 -91q5 -7 5 -15q0 -14 -19 -14z" />
    <glyph glyph-name="Yacute" unicode="&#xdd;" horiz-adv-x="708" 
d="M314 275l-260 364q-9 14 -9 27q0 16 12 27.5t29 11.5q13 0 21.5 -6.5t16.5 -17.5l231 -333l233 333q8 11 16 17.5t21 6.5q17 0 28 -11.5t11 -27.5q0 -8 -3.5 -15.5t-7.5 -13.5l-259 -360v-242q0 -17 -11.5 -28.5t-28.5 -11.5t-28.5 11.5t-11.5 28.5v240zM352 758
q-19 0 -19 14q0 8 5 15l60 91q15 23 36 23q18 0 36 -9.5t18 -20.5q0 -6 -4 -11.5t-10 -11.5l-75 -71q-12 -12 -22.5 -15.5t-24.5 -3.5z" />
    <glyph glyph-name="yacute" unicode="&#xfd;" horiz-adv-x="587" 
d="M161 -163q-26 0 -45.5 4t-39.5 11q-9 4 -16.5 11.5t-7.5 21.5t10 23.5t23 9.5q5 0 9.5 -1t9.5 -3q11 -4 23.5 -6.5t32.5 -2.5q36 0 59.5 22t44.5 70l4 8l-216 458q-5 12 -5 21q0 16 11 27t28 11q16 0 25 -8.5t14 -21.5l180 -406l160 407q5 12 13.5 20.5t23.5 8.5
q16 0 27 -11t11 -27q0 -5 -1 -9.5t-3 -9.5l-202 -482q-34 -80 -74.5 -113t-98.5 -33zM294 591q-19 0 -19 14q0 8 5 15l60 91q15 23 36 23q18 0 36 -9.5t18 -20.5q0 -6 -4 -11.5t-10 -11.5l-75 -71q-12 -12 -22.5 -15.5t-24.5 -3.5z" />
    <glyph glyph-name="Ycircumflex" unicode="&#x176;" horiz-adv-x="708" 
d="M314 275l-260 364q-9 14 -9 27q0 16 12 27.5t29 11.5q13 0 21.5 -6.5t16.5 -17.5l231 -333l233 333q8 11 16 17.5t21 6.5q17 0 28 -11.5t11 -27.5q0 -8 -3.5 -15.5t-7.5 -13.5l-259 -360v-242q0 -17 -11.5 -28.5t-28.5 -11.5t-28.5 11.5t-11.5 28.5v240zM294 777
q-13 -12 -23.5 -15.5t-24.5 -3.5q-18 0 -18 14q0 5 7 17l70 86q8 10 17 16t23 6h18q14 0 23 -6t17 -16l70 -86q7 -12 7 -17q0 -14 -19 -14q-14 0 -25 3.5t-24 15.5l-59 52z" />
    <glyph glyph-name="ycircumflex" unicode="&#x177;" horiz-adv-x="587" 
d="M161 -163q-26 0 -45.5 4t-39.5 11q-9 4 -16.5 11.5t-7.5 21.5t10 23.5t23 9.5q5 0 9.5 -1t9.5 -3q11 -4 23.5 -6.5t32.5 -2.5q36 0 59.5 22t44.5 70l4 8l-216 458q-5 12 -5 21q0 16 11 27t28 11q16 0 25 -8.5t14 -21.5l180 -406l160 407q5 12 13.5 20.5t23.5 8.5
q16 0 27 -11t11 -27q0 -5 -1 -9.5t-3 -9.5l-202 -482q-34 -80 -74.5 -113t-98.5 -33zM236 610q-13 -12 -23.5 -15.5t-24.5 -3.5q-18 0 -18 14q0 5 7 17l70 86q8 10 17 16t23 6h18q14 0 23 -6t17 -16l70 -86q7 -12 7 -17q0 -14 -19 -14q-14 0 -25 3.5t-24 15.5l-59 52z" />
    <glyph glyph-name="Ydieresis" unicode="&#x178;" horiz-adv-x="708" 
d="M314 275l-260 364q-9 14 -9 27q0 16 12 27.5t29 11.5q13 0 21.5 -6.5t16.5 -17.5l231 -333l233 333q8 11 16 17.5t21 6.5q17 0 28 -11.5t11 -27.5q0 -8 -3.5 -15.5t-7.5 -13.5l-259 -360v-242q0 -17 -11.5 -28.5t-28.5 -11.5t-28.5 11.5t-11.5 28.5v240zM443 862
q20 0 33.5 -12.5t13.5 -32.5v-15q0 -20 -13.5 -32.5t-33.5 -12.5t-33.5 12.5t-13.5 32.5v15q0 20 13.5 32.5t33.5 12.5zM265 862q20 0 33.5 -12.5t13.5 -32.5v-15q0 -20 -13.5 -32.5t-33.5 -12.5t-33.5 12.5t-13.5 32.5v15q0 20 13.5 32.5t33.5 12.5z" />
    <glyph glyph-name="ydieresis" unicode="&#xff;" horiz-adv-x="587" 
d="M161 -163q-26 0 -45.5 4t-39.5 11q-9 4 -16.5 11.5t-7.5 21.5t10 23.5t23 9.5q5 0 9.5 -1t9.5 -3q11 -4 23.5 -6.5t32.5 -2.5q36 0 59.5 22t44.5 70l4 8l-216 458q-5 12 -5 21q0 16 11 27t28 11q16 0 25 -8.5t14 -21.5l180 -406l160 407q5 12 13.5 20.5t23.5 8.5
q16 0 27 -11t11 -27q0 -5 -1 -9.5t-3 -9.5l-202 -482q-34 -80 -74.5 -113t-98.5 -33zM385 695q20 0 33.5 -12.5t13.5 -32.5v-15q0 -20 -13.5 -32.5t-33.5 -12.5t-33.5 12.5t-13.5 32.5v15q0 20 13.5 32.5t33.5 12.5zM207 695q20 0 33.5 -12.5t13.5 -32.5v-15
q0 -20 -13.5 -32.5t-33.5 -12.5t-33.5 12.5t-13.5 32.5v15q0 20 13.5 32.5t33.5 12.5z" />
    <glyph glyph-name="Ygrave" unicode="&#x1ef2;" horiz-adv-x="708" 
d="M314 275l-260 364q-9 14 -9 27q0 16 12 27.5t29 11.5q13 0 21.5 -6.5t16.5 -17.5l231 -333l233 333q8 11 16 17.5t21 6.5q17 0 28 -11.5t11 -27.5q0 -8 -3.5 -15.5t-7.5 -13.5l-259 -360v-242q0 -17 -11.5 -28.5t-28.5 -11.5t-28.5 11.5t-11.5 28.5v240zM356 758
q-14 0 -24.5 3.5t-22.5 15.5l-75 71q-6 6 -10 11.5t-4 11.5q0 11 18 20.5t36 9.5q21 0 36 -23l60 -91q5 -7 5 -15q0 -14 -19 -14z" />
    <glyph glyph-name="ygrave" unicode="&#x1ef3;" horiz-adv-x="587" 
d="M161 -163q-26 0 -45.5 4t-39.5 11q-9 4 -16.5 11.5t-7.5 21.5t10 23.5t23 9.5q5 0 9.5 -1t9.5 -3q11 -4 23.5 -6.5t32.5 -2.5q36 0 59.5 22t44.5 70l4 8l-216 458q-5 12 -5 21q0 16 11 27t28 11q16 0 25 -8.5t14 -21.5l180 -406l160 407q5 12 13.5 20.5t23.5 8.5
q16 0 27 -11t11 -27q0 -5 -1 -9.5t-3 -9.5l-202 -482q-34 -80 -74.5 -113t-98.5 -33zM298 591q-14 0 -24.5 3.5t-22.5 15.5l-75 71q-6 6 -10 11.5t-4 11.5q0 11 18 20.5t36 9.5q21 0 36 -23l60 -91q5 -7 5 -15q0 -14 -19 -14z" />
    <glyph glyph-name="Zacute" unicode="&#x179;" horiz-adv-x="693" 
d="M352 758q-19 0 -19 14q0 8 5 15l60 91q15 23 36 23q18 0 36 -9.5t18 -20.5q0 -6 -4 -11.5t-10 -11.5l-75 -71q-12 -12 -22.5 -15.5t-24.5 -3.5zM104 0q-15 0 -26 10t-11 24v2q0 11 3.5 19t10.5 16l439 558h-406q-15 0 -25.5 10.5t-10.5 24.5q0 15 10.5 25.5t25.5 10.5
h477q14 0 25 -10t11 -24v-2q0 -11 -3.5 -19t-10.5 -16l-439 -558h422q15 0 25.5 -10.5t10.5 -24.5q0 -15 -10.5 -25.5t-25.5 -10.5h-492z" />
    <glyph glyph-name="zacute" unicode="&#x17a;" horiz-adv-x="556" 
d="M280 591q-19 0 -19 14q0 8 5 15l60 91q15 23 36 23q18 0 36 -9.5t18 -20.5q0 -6 -4 -11.5t-10 -11.5l-75 -71q-12 -12 -22.5 -15.5t-24.5 -3.5zM93 0q-15 0 -26 9t-11 22v2q0 18 16 35l327 384h-302q-14 0 -23.5 9t-9.5 23t9.5 23.5t23.5 9.5h369q16 0 26.5 -9t10.5 -22
v-2q0 -18 -16 -35l-327 -384h315q14 0 23.5 -9.5t9.5 -22.5q0 -14 -9.5 -23.5t-23.5 -9.5h-382z" />
    <glyph glyph-name="Zcaron" unicode="&#x17d;" horiz-adv-x="693" 
d="M414 879q13 11 23.5 14.5t24.5 3.5q18 0 18 -14q0 -6 -7 -16l-70 -86q-8 -11 -17 -17t-23 -6h-18q-14 0 -23 6t-17 17l-70 86q-7 10 -7 16q0 14 19 14q14 0 25 -3.5t24 -14.5l59 -53zM104 0q-15 0 -26 10t-11 24v2q0 11 3.5 19t10.5 16l439 558h-406q-15 0 -25.5 10.5
t-10.5 24.5q0 15 10.5 25.5t25.5 10.5h477q14 0 25 -10t11 -24v-2q0 -11 -3.5 -19t-10.5 -16l-439 -558h422q15 0 25.5 -10.5t10.5 -24.5q0 -15 -10.5 -25.5t-25.5 -10.5h-492z" />
    <glyph glyph-name="zcaron" unicode="&#x17e;" horiz-adv-x="556" 
d="M342 712q13 11 23.5 14.5t24.5 3.5q18 0 18 -14q0 -6 -7 -16l-70 -86q-8 -11 -17 -17t-23 -6h-18q-14 0 -23 6t-17 17l-70 86q-7 10 -7 16q0 14 19 14q14 0 25 -3.5t24 -14.5l59 -53zM93 0q-15 0 -26 9t-11 22v2q0 18 16 35l327 384h-302q-14 0 -23.5 9t-9.5 23t9.5 23.5
t23.5 9.5h369q16 0 26.5 -9t10.5 -22v-2q0 -18 -16 -35l-327 -384h315q14 0 23.5 -9.5t9.5 -22.5q0 -14 -9.5 -23.5t-23.5 -9.5h-382z" />
    <glyph glyph-name="Zdotaccent" unicode="&#x17b;" horiz-adv-x="693" 
d="M104 0q-15 0 -26 10t-11 24v2q0 11 3.5 19t10.5 16l439 558h-406q-15 0 -25.5 10.5t-10.5 24.5q0 15 10.5 25.5t25.5 10.5h477q14 0 25 -10t11 -24v-2q0 -11 -3.5 -19t-10.5 -16l-439 -558h422q15 0 25.5 -10.5t10.5 -24.5q0 -15 -10.5 -25.5t-25.5 -10.5h-492zM402 803
q0 -20 -14 -33t-34 -13t-34 13t-14 33v14q0 20 14 32.5t34 12.5t34 -12.5t14 -32.5v-14z" />
    <glyph glyph-name="zdotaccent" unicode="&#x17c;" horiz-adv-x="556" 
d="M93 0q-15 0 -26 9t-11 22v2q0 18 16 35l327 384h-302q-14 0 -23.5 9t-9.5 23t9.5 23.5t23.5 9.5h369q16 0 26.5 -9t10.5 -22v-2q0 -18 -16 -35l-327 -384h315q14 0 23.5 -9.5t9.5 -22.5q0 -14 -9.5 -23.5t-23.5 -9.5h-382zM330 636q0 -20 -14 -33t-34 -13t-34 13t-14 33
v14q0 20 14 32.5t34 12.5t34 -12.5t14 -32.5v-14z" />
    <glyph glyph-name="schwa" unicode="&#x259;" horiz-adv-x="592" 
d="M126 230q3 -35 14.5 -67t32 -56t50 -38.5t68.5 -14.5q34 0 63 13.5t51 37t36 55.5t18 70h-333zM84 451q37 35 83 56.5t112 21.5q53 0 100 -19.5t82 -55t55.5 -85t20.5 -109.5v-2q0 -56 -18.5 -105t-51.5 -85.5t-78.5 -57.5t-99.5 -21q-57 0 -102 21.5t-75.5 58t-46.5 84
t-16 98.5q0 16 11 26t25 10h374q-4 42 -20 74.5t-40.5 55t-56 34t-65.5 11.5q-48 0 -84 -17t-65 -43q-11 -9 -22 -9q-14 0 -24 9.5t-10 23.5t12 25z" />
    <glyph glyph-name="germandbls" unicode="&#xdf;" horiz-adv-x="620" 
d="M287 30q0 13 8.5 22t21.5 11q36 3 66.5 12t52.5 24.5t34.5 38.5t12.5 54v2q0 29 -12.5 51t-35 38.5t-52.5 27t-64 16.5q-14 3 -23 11t-9 24q0 13 6.5 21t16.5 13q27 11 51 26t41.5 33.5t27.5 42t10 52.5v2q0 52 -36 84.5t-95 32.5q-64 0 -105 -45t-41 -122v-469
q0 -16 -11 -27t-28 -11t-27.5 11t-10.5 27v468q0 53 16 96.5t45.5 74.5t71.5 48t94 17q47 0 85 -14t65 -38t41.5 -57t14.5 -71v-2q0 -36 -12 -64.5t-31.5 -51t-44.5 -39.5t-51 -28q35 -8 68 -22t58.5 -36t40.5 -51.5t15 -68.5v-2q0 -47 -19 -83t-51.5 -60t-76.5 -37t-94 -14
q-15 0 -24.5 9t-9.5 23z" />
    <glyph glyph-name="f_f" unicode="&#xfb00;" horiz-adv-x="735" 
d="M115 449h-42q-14 0 -23.5 10t-9.5 24t9.5 23.5t23.5 9.5h42v45q0 88 45 133q40 40 111 40q35 0 61 -6q11 -2 19.5 -11t8.5 -22q0 -15 -11 -25t-26 -8q-10 2 -20.5 3.5t-21.5 1.5q-90 0 -90 -110v-42h134q14 0 24 -9.5t10 -23.5t-10 -23.5t-24 -9.5h-133v-415
q0 -16 -10.5 -27.5t-27.5 -11.5t-28 11.5t-11 27.5v415zM482 449h-42q-14 0 -23.5 10t-9.5 24t9.5 23.5t23.5 9.5h42v45q0 88 45 133q40 40 111 40q35 0 61 -6q11 -2 19.5 -11t8.5 -22q0 -15 -11 -25t-26 -8q-10 2 -20.5 3.5t-21.5 1.5q-90 0 -90 -110v-42h134q14 0 24 -9.5
t10 -23.5t-10 -23.5t-24 -9.5h-133v-415q0 -16 -10.5 -27.5t-27.5 -11.5t-28 11.5t-11 27.5v415z" />
    <glyph glyph-name="fi" unicode="&#xfb01;" horiz-adv-x="631" 
d="M453 679q0 19 13 30t32 11q20 0 33 -11t13 -30v-13q0 -18 -13 -29.5t-33 -11.5q-19 0 -32 11.5t-13 29.5v13zM460 483q0 16 11 27.5t27 11.5q17 0 28 -11t11 -28v-449q0 -17 -10.5 -28t-27.5 -11t-28 11t-11 28v449zM115 449h-42q-14 0 -23.5 10t-9.5 24t9.5 23.5
t23.5 9.5h42v45q0 88 45 133q40 40 111 40q35 0 61 -6q11 -2 19.5 -11t8.5 -22q0 -15 -11 -25t-26 -8q-10 2 -20.5 3.5t-21.5 1.5q-90 0 -90 -110v-42h134q14 0 24 -9.5t10 -23.5t-10 -23.5t-24 -9.5h-133v-415q0 -16 -10.5 -27.5t-27.5 -11.5t-28 11.5t-11 27.5v415z" />
    <glyph glyph-name="fl" unicode="&#xfb02;" horiz-adv-x="631" 
d="M460 696q0 16 11 27.5t27 11.5q17 0 28 -11.5t11 -27.5v-662q0 -17 -10.5 -28t-27.5 -11t-28 11t-11 28v662zM115 449h-42q-14 0 -23.5 10t-9.5 24t9.5 23.5t23.5 9.5h42v45q0 88 45 133q40 40 111 40q35 0 61 -6q11 -2 19.5 -11t8.5 -22q0 -15 -11 -25t-26 -8
q-10 2 -20.5 3.5t-21.5 1.5q-90 0 -90 -110v-42h134q14 0 24 -9.5t10 -23.5t-10 -23.5t-24 -9.5h-133v-415q0 -16 -10.5 -27.5t-27.5 -11.5t-28 11.5t-11 27.5v415z" />
    <glyph glyph-name="f_f_i" unicode="&#xfb03;" horiz-adv-x="998" 
d="M820 679q0 19 13 30t32 11q20 0 33 -11t13 -30v-13q0 -18 -13 -29.5t-33 -11.5q-19 0 -32 11.5t-13 29.5v13zM827 483q0 16 11 27.5t27 11.5q17 0 28 -11t11 -28v-449q0 -17 -10.5 -28t-27.5 -11t-28 11t-11 28v449zM115 449h-42q-14 0 -23.5 10t-9.5 24t9.5 23.5
t23.5 9.5h42v45q0 88 45 133q40 40 111 40q35 0 61 -6q11 -2 19.5 -11t8.5 -22q0 -15 -11 -25t-26 -8q-10 2 -20.5 3.5t-21.5 1.5q-90 0 -90 -110v-42h134q14 0 24 -9.5t10 -23.5t-10 -23.5t-24 -9.5h-133v-415q0 -16 -10.5 -27.5t-27.5 -11.5t-28 11.5t-11 27.5v415z
M482 449h-42q-14 0 -23.5 10t-9.5 24t9.5 23.5t23.5 9.5h42v45q0 88 45 133q40 40 111 40q35 0 61 -6q11 -2 19.5 -11t8.5 -22q0 -15 -11 -25t-26 -8q-10 2 -20.5 3.5t-21.5 1.5q-90 0 -90 -110v-42h134q14 0 24 -9.5t10 -23.5t-10 -23.5t-24 -9.5h-133v-415
q0 -16 -10.5 -27.5t-27.5 -11.5t-28 11.5t-11 27.5v415z" />
    <glyph glyph-name="f_f_l" unicode="&#xfb04;" horiz-adv-x="997" 
d="M115 449h-42q-14 0 -23.5 10t-9.5 24t9.5 23.5t23.5 9.5h42v45q0 88 45 133q40 40 111 40q35 0 61 -6q11 -2 19.5 -11t8.5 -22q0 -15 -11 -25t-26 -8q-10 2 -20.5 3.5t-21.5 1.5q-90 0 -90 -110v-42h134q14 0 24 -9.5t10 -23.5t-10 -23.5t-24 -9.5h-133v-415
q0 -16 -10.5 -27.5t-27.5 -11.5t-28 11.5t-11 27.5v415zM482 449h-42q-14 0 -23.5 10t-9.5 24t9.5 23.5t23.5 9.5h42v45q0 88 45 133q40 40 111 40q35 0 61 -6q11 -2 19.5 -11t8.5 -22q0 -15 -11 -25t-26 -8q-10 2 -20.5 3.5t-21.5 1.5q-90 0 -90 -110v-42h134q14 0 24 -9.5
t10 -23.5t-10 -23.5t-24 -9.5h-133v-415q0 -16 -10.5 -27.5t-27.5 -11.5t-28 11.5t-11 27.5v415zM827 696q0 16 11 27.5t27 11.5q17 0 28 -11.5t11 -27.5v-662q0 -17 -10.5 -28t-27.5 -11t-28 11t-11 28v662z" />
    <glyph glyph-name="zero" unicode="0" horiz-adv-x="715" 
d="M357 -12q-68 0 -122.5 28.5t-93 78t-59 114.5t-20.5 139v2q0 73 21 139t60 115.5t93.5 78.5t122.5 29q67 0 121.5 -28.5t93 -78t59 -115t20.5 -138.5v-2q0 -74 -21 -139.5t-59.5 -115t-93.5 -78.5t-122 -29zM359 60q49 0 88.5 23.5t67 63t42 92t14.5 109.5v2
q0 57 -15 109.5t-43 92.5t-67.5 64t-88.5 24t-88.5 -23.5t-67 -63t-42.5 -91.5t-15 -110v-2q0 -57 15 -109.5t43 -92.5t68 -64t89 -24z" />
    <glyph glyph-name="one" unicode="1" horiz-adv-x="358" 
d="M179 626l-98 -32q-9 -3 -17 -3q-14 0 -24 10t-10 24q0 24 28 34l115 40q12 4 22.5 6.5t20.5 2.5h2q17 0 28 -11.5t11 -27.5v-634q0 -17 -11 -28.5t-28 -11.5q-16 0 -27.5 11.5t-11.5 28.5v591z" />
    <glyph glyph-name="two" unicode="2" horiz-adv-x="599" 
d="M44 37q0 21 19 37l239 211q40 36 68 65t45.5 54.5t25 50t7.5 50.5q0 31 -11.5 55.5t-30.5 42t-45 27t-54 9.5q-56 0 -96 -26t-78 -76q-5 -6 -12 -10t-17 -4q-15 0 -25.5 10.5t-10.5 25.5q0 12 8 22q22 30 45.5 54t51.5 40.5t62.5 25.5t77.5 9q47 0 87 -15t69 -41.5
t45 -62.5t16 -79v-2q0 -38 -10.5 -70.5t-32 -64t-55 -64.5t-79.5 -73l-187 -166h339q15 0 26 -10.5t11 -25.5t-11 -25.5t-26 -10.5h-421q-17 0 -28.5 10t-11.5 27z" />
    <glyph glyph-name="three" unicode="3" horiz-adv-x="613" 
d="M311 -12q-81 0 -141.5 29t-102.5 77q-5 5 -9 12.5t-4 15.5q0 16 11.5 27.5t27.5 11.5q10 0 17 -3.5t12 -8.5q38 -44 84 -66.5t106 -22.5q32 0 60 9.5t48.5 27.5t32.5 43t12 56v2q0 33 -14.5 58t-40.5 42t-62 26t-79 9h-25q-14 0 -24.5 10t-10.5 24q0 15 16 31l204 231
h-310q-15 0 -26 10t-11 25t11 25.5t26 10.5h382q17 0 27.5 -9.5t10.5 -24.5q0 -12 -5.5 -21t-13.5 -18l-206 -229q46 -4 87.5 -17t73.5 -37t51 -59.5t19 -83.5v-2q0 -47 -18.5 -86t-50 -66.5t-74 -43t-91.5 -15.5z" />
    <glyph glyph-name="three.alt" horiz-adv-x="604" 
d="M306 -12q-76 0 -137 28.5t-105 75.5q-13 13 -13 30q0 16 11 26.5t27 10.5q17 0 28 -12q37 -42 84 -64.5t107 -22.5q34 0 63 9t50 26t33 41t12 54v2q0 60 -49 93.5t-138 33.5h-42q-14 0 -24 10t-10 24t10 24t24 10h44q36 0 66.5 9t52.5 25.5t34.5 40.5t12.5 54v2
q0 53 -40.5 87.5t-109.5 34.5q-54 0 -94 -21.5t-73 -61.5q-5 -6 -11.5 -10t-16.5 -4q-15 0 -25.5 10.5t-10.5 25.5q0 14 10 26q40 49 94 78t129 29q50 0 92 -14t72 -39t47 -59.5t17 -74.5v-2q0 -35 -10.5 -61.5t-27.5 -46t-39 -33.5t-45 -23q30 -10 56 -24.5t44.5 -35
t29.5 -47.5t11 -60v-2q0 -42 -17.5 -79t-49 -64t-75.5 -43t-98 -16z" />
    <glyph glyph-name="four" unicode="4" horiz-adv-x="671" 
d="M432 166h-348q-17 0 -28.5 10.5t-11.5 27.5q0 11 3.5 19.5t11.5 18.5l364 444q9 11 18.5 17.5t25.5 6.5q18 0 30 -12t12 -29v-437h79q14 0 24 -10t10 -24t-10 -23t-24 -9h-79v-133q0 -16 -11 -27t-28 -11q-16 0 -27 11t-11 27v133zM432 232v361l-294 -361h294z" />
    <glyph glyph-name="five" unicode="5" horiz-adv-x="612" 
d="M304 -12q-69 0 -127 26.5t-101 64.5q-16 13 -16 33q0 14 11 25.5t27 11.5q15 0 27 -10q42 -38 86.5 -58.5t93.5 -20.5q37 0 67.5 11.5t53 32t35 49t12.5 62.5v2q0 33 -13 60t-36 46.5t-55 30t-70 10.5q-31 0 -54.5 -5.5t-40.5 -11.5t-28.5 -11.5t-18.5 -5.5q-11 0 -20 4
t-20 11q-10 7 -14 18t-3 25l16 274q1 18 12 28t26 10h336q15 0 25.5 -10.5t10.5 -26.5q0 -15 -10.5 -25.5t-25.5 -10.5h-302l-15 -224q31 14 62.5 22.5t75.5 8.5q51 0 95 -14.5t77 -42t51.5 -67.5t18.5 -90v-2q0 -51 -18.5 -93t-51.5 -72.5t-79 -47.5t-100 -17z" />
    <glyph glyph-name="six" unicode="6" horiz-adv-x="647" 
d="M333 -12q-58 0 -104.5 19t-79.5 52q-21 21 -37.5 46t-27.5 57t-17 73t-6 95v2q0 80 19.5 149.5t57 120.5t91.5 80.5t123 29.5q55 0 99 -16.5t83 -45.5q19 -13 19 -33q0 -16 -11 -27t-27 -11q-12 0 -22 7q-35 26 -69 40t-76 14q-48 0 -86 -23t-64.5 -64t-40.5 -97.5
t-14 -124.5q14 21 32.5 40.5t43 34t55 23.5t68.5 9q49 0 93 -15t77 -43t52.5 -68t19.5 -89v-2q0 -51 -19.5 -93.5t-53 -73.5t-79.5 -48.5t-99 -17.5zM334 58q39 0 70 12.5t53 34t34 51t12 62.5v2q0 32 -12.5 59.5t-35 47.5t-54 31.5t-69.5 11.5q-39 0 -71.5 -13t-55.5 -34.5
t-35.5 -49t-12.5 -56.5v-2q0 -33 13 -62t36.5 -50t56 -33t71.5 -12z" />
    <glyph glyph-name="seven" unicode="7" horiz-adv-x="596" 
d="M157 32q0 5 2 12t4 12l290 572h-353q-15 0 -26 10t-11 26q0 15 11 25.5t26 10.5h410q17 0 27.5 -9t10.5 -26q0 -8 -3 -17.5t-8 -17.5l-302 -607q-13 -28 -38 -28q-16 0 -28 10t-12 27z" />
    <glyph glyph-name="eight" unicode="8" horiz-adv-x="630" 
d="M315 -10q-56 0 -104 14.5t-83.5 40.5t-55.5 62.5t-20 80.5v2q0 63 40.5 106t103.5 66q-24 11 -46 26.5t-38.5 35t-26 44.5t-9.5 55v2q0 40 19.5 74t52 59t76 38.5t91.5 13.5t91.5 -13.5t76 -38.5t52 -59t19.5 -74v-2q0 -30 -9.5 -55t-26 -44.5t-38.5 -35t-46 -26.5
q62 -23 103 -66t41 -105v-2q0 -45 -20 -81.5t-55.5 -62.5t-83.5 -40.5t-104 -14.5zM315 390q33 0 62.5 9.5t51 26t34 40t12.5 52.5v2q0 26 -12 48t-33.5 38.5t-51 25.5t-63.5 9t-63.5 -9t-51 -25t-33.5 -38.5t-12 -48.5v-2q0 -29 12.5 -52.5t34 -40t51 -26t62.5 -9.5z
M315 59q43 0 77 10.5t57.5 28.5t36 41.5t12.5 50.5v2q0 29 -14.5 53.5t-39 42t-58 27.5t-71.5 10t-71.5 -10t-58.5 -27.5t-39 -42t-14 -53.5v-2q0 -26 12.5 -50t36 -42t57.5 -28.5t77 -10.5z" />
    <glyph glyph-name="nine" unicode="9" horiz-adv-x="647" 
d="M295 -12q-60 0 -107.5 20t-87.5 50q-18 13 -18 32q0 16 11 27t27 11q12 0 25 -8q37 -30 73.5 -45t78.5 -15q47 0 86 23t66.5 63.5t42 97t13.5 123.5q-29 -46 -77 -79t-121 -33q-54 0 -99 16t-77 45t-50 69t-18 87v2q0 50 18.5 93.5t51.5 75.5t79.5 50.5t102.5 18.5
q60 0 105 -19t79 -53q40 -40 63.5 -103t23.5 -168v-2q0 -83 -21 -153t-59.5 -120t-92 -78t-118.5 -28zM316 323q40 0 72.5 13.5t55 35.5t34.5 50.5t12 58.5v2q0 33 -13 62t-36.5 50.5t-56.5 34t-72 12.5t-70.5 -13.5t-53 -36t-33 -52t-11.5 -62.5v-2q0 -33 12.5 -61.5
t35 -48.5t54.5 -31.5t70 -11.5z" />
    <glyph glyph-name="period" unicode="." horiz-adv-x="245" 
d="M75 63q0 20 13.5 33.5t34.5 13.5q20 0 33.5 -13.5t13.5 -33.5v-20q0 -20 -13.5 -34t-33.5 -14q-21 0 -34.5 14t-13.5 34v20v0z" />
    <glyph glyph-name="comma" unicode="," horiz-adv-x="245" 
d="M45 -100q0 13 13 18q59 26 56 82q-16 4 -27.5 16t-11.5 32v16q0 20 13 33t33 13q22 0 35.5 -15t13.5 -40v-19q0 -45 -9.5 -74t-26.5 -46q-16 -16 -36 -26t-32 -10q-21 0 -21 20z" />
    <glyph glyph-name="colon" unicode=":" horiz-adv-x="255" 
d="M80 475q0 20 13.5 33.5t34.5 13.5q20 0 33.5 -13.5t13.5 -33.5v-21q0 -20 -13.5 -33.5t-33.5 -13.5q-21 0 -34.5 13.5t-13.5 33.5v21zM80 63q0 20 13.5 33.5t34.5 13.5q20 0 33.5 -13.5t13.5 -33.5v-20q0 -20 -13.5 -34t-33.5 -14q-21 0 -34.5 14t-13.5 34v20z" />
    <glyph glyph-name="semicolon" unicode=";" horiz-adv-x="255" 
d="M80 475q0 20 13.5 33.5t34.5 13.5q20 0 33.5 -13.5t13.5 -33.5v-21q0 -20 -13.5 -33.5t-33.5 -13.5q-21 0 -34.5 13.5t-13.5 33.5v21zM50 -100q0 13 13 18q59 26 56 82q-16 4 -27.5 16t-11.5 32v16q0 20 13 33t33 13q22 0 35.5 -15t13.5 -40v-19q0 -45 -9.5 -74
t-26.5 -46q-16 -16 -36 -26t-32 -10q-21 0 -21 20z" />
    <glyph glyph-name="ellipsis" unicode="&#x2026;" horiz-adv-x="723" 
d="M556 63q0 20 13 33.5t33 13.5t33 -13.5t13 -33.5v-20q0 -20 -13 -34t-33 -14t-33 14t-13 34v20zM315 63q0 20 13 33.5t34 13.5q20 0 33 -13.5t13 -33.5v-20q0 -20 -13 -34t-33 -14q-21 0 -34 14t-13 34v20zM75 63q0 20 13 33.5t33 13.5q21 0 34 -13.5t13 -33.5v-20
q0 -20 -13 -34t-34 -14q-20 0 -33 14t-13 34v20z" />
    <glyph glyph-name="periodcentered" unicode="&#xb7;" horiz-adv-x="245" 
d="M75 311q0 20 14 33.5t34 13.5t33.5 -13.5t13.5 -33.5v-20q0 -20 -13.5 -33.5t-33.5 -13.5t-34 13.5t-14 33.5v20v0z" />
    <glyph glyph-name="bullet" unicode="&#x2022;" horiz-adv-x="478" 
d="M239 221q-27 0 -51 10t-41.5 28t-28 41.5t-10.5 50.5v2q0 27 10.5 50.5t28.5 41.5t42 28t50 10t49.5 -10t41.5 -28t29 -41.5t11 -50.5v-2q0 -27 -10.5 -50.5t-28 -41.5t-41.5 -28t-51 -10z" />
    <glyph glyph-name="ampersand" unicode="&#x26;" horiz-adv-x="696" 
d="M618 -9q-11 0 -17.5 3.5t-14.5 10.5l-91 95q-48 -52 -104.5 -81t-125.5 -29q-47 0 -87.5 14t-70 40t-46 62t-16.5 80v2q0 70 44 120t125 82q-36 42 -53 77t-17 77v2q0 34 13.5 64.5t37.5 53t58 35.5t76 13q37 0 68 -12.5t53.5 -34t35.5 -50t13 -61.5v-2q0 -67 -44 -111
t-121 -71l160 -163q20 29 38 62.5t35 70.5q3 6 10.5 13.5t21.5 7.5q15 0 25.5 -10.5t10.5 -25.5q0 -8 -5 -18q-20 -42 -41.5 -79.5t-45.5 -69.5l97 -99q7 -8 11 -14t4 -17q0 -16 -10.5 -26.5t-26.5 -10.5zM290 415q67 23 101 55t34 78v2q0 42 -28 69.5t-71 27.5
q-48 0 -77 -29t-29 -72v-2q0 -15 3.5 -29.5t11.5 -29.5t21.5 -32t33.5 -38zM271 57q51 0 94.5 24.5t81.5 67.5l-188 192q-70 -26 -102 -65.5t-32 -84.5v-2q0 -28 10.5 -52t30 -42t46.5 -28t59 -10z" />
    <glyph glyph-name="exclam" unicode="!" horiz-adv-x="271" 
d="M89 671q-1 14 7.5 23t21.5 9h35q14 0 22 -9t7 -23l-23 -454q-1 -10 -7.5 -16.5t-15.5 -6.5q-10 0 -16.5 6.5t-7.5 16.5zM88 63q0 20 13.5 33.5t34.5 13.5q20 0 33.5 -13.5t13.5 -33.5v-20q0 -20 -13.5 -34t-33.5 -14q-21 0 -34.5 14t-13.5 34v20z" />
    <glyph glyph-name="exclamdown" unicode="&#xa1;" horiz-adv-x="271" 
d="M182 29q1 -14 -7 -23t-22 -9h-35q-13 0 -21.5 9t-7.5 23l23 454q1 10 7.5 16.5t16.5 6.5q9 0 15.5 -6.5t7.5 -16.5zM183 637q0 -20 -13.5 -33.5t-33.5 -13.5q-21 0 -34.5 13.5t-13.5 33.5v21q0 20 13.5 33.5t34.5 13.5q20 0 33.5 -13.5t13.5 -33.5v-21z" />
    <glyph glyph-name="question" unicode="?" horiz-adv-x="537" 
d="M244 193q-10 0 -17 7.5t-9 19.5l-11 112q-2 14 6.5 23.5t22.5 11.5q80 6 126.5 41t46.5 98v2q0 27 -10 50.5t-29 41.5t-46 28t-61 10q-51 0 -91 -20.5t-74 -57.5q-5 -5 -12 -8t-15 -3q-15 0 -25.5 10t-10.5 25t12 27q40 44 92.5 71t125.5 27q51 0 92 -15t70.5 -41.5
t45.5 -62.5t16 -79v-2q0 -47 -16.5 -82.5t-45 -60t-66 -39.5t-80.5 -21l-7 -86q-2 -12 -8.5 -19.5t-17.5 -7.5h-4zM197 63q0 20 14 33.5t34 13.5t34 -13.5t14 -33.5v-20q0 -20 -14 -34t-34 -14t-34 14t-14 34v20z" />
    <glyph glyph-name="questiondown" unicode="&#xbf;" horiz-adv-x="537" 
d="M292 507q11 0 18 -7.5t9 -19.5l10 -112q2 -14 -6 -23.5t-23 -11.5q-79 -6 -125.5 -41t-46.5 -98v-2q0 -27 10 -50.5t29 -41.5t46 -28t61 -10q51 0 90.5 20.5t74.5 57.5q5 5 12 8t15 3q14 0 24.5 -10t10.5 -25q0 -16 -11 -27q-40 -44 -92.5 -71t-125.5 -27q-51 0 -92.5 15
t-70.5 41.5t-45 62.5t-16 79v2q0 47 16.5 82.5t45 60t66 39.5t80.5 21l7 86q1 12 8 19.5t18 7.5h3zM339 637q0 -20 -13.5 -33.5t-33.5 -13.5q-21 0 -34.5 13.5t-13.5 33.5v21q0 20 13.5 33.5t34.5 13.5q20 0 33.5 -13.5t13.5 -33.5v-21z" />
    <glyph glyph-name="quotedblleft" unicode="&#x201c;" horiz-adv-x="445" 
d="M396 683q0 -13 -14 -18q-30 -14 -43.5 -33.5t-11.5 -48.5q15 -4 26.5 -16t11.5 -32v-15q0 -20 -13 -33.5t-33 -13.5q-22 0 -35 15.5t-13 39.5v19q0 46 9 74.5t26 45.5q16 16 36 26.5t32 10.5q22 0 22 -21zM196 683q0 -13 -14 -18q-30 -14 -43.5 -33.5t-11.5 -48.5
q15 -4 26.5 -16t11.5 -32v-15q0 -20 -13 -33.5t-33 -13.5q-22 0 -35 15.5t-13 39.5v19q0 46 9 74.5t26 45.5q16 16 36 26.5t32 10.5q22 0 22 -21z" />
    <glyph glyph-name="quotedblright" unicode="&#x201d;" horiz-adv-x="445" 
d="M50 494q0 14 13 19q59 26 56 82q-16 4 -27.5 15.5t-11.5 31.5v16q0 20 13 33.5t33 13.5q22 0 35.5 -15.5t13.5 -39.5v-19q0 -46 -9.5 -74.5t-26.5 -45.5q-16 -17 -36 -27t-32 -10q-21 0 -21 20zM250 494q0 14 13 19q59 26 56 82q-16 4 -27.5 15.5t-11.5 31.5v16
q0 20 13 33.5t33 13.5q22 0 35.5 -15.5t13.5 -39.5v-19q0 -46 -9.5 -74.5t-26.5 -45.5q-16 -17 -36 -27t-32 -10q-21 0 -21 20z" />
    <glyph glyph-name="quoteleft" unicode="&#x2018;" horiz-adv-x="245" 
d="M196 683q0 -13 -14 -18q-30 -14 -43.5 -33.5t-11.5 -48.5q15 -4 26.5 -16t11.5 -32v-15q0 -20 -13 -33.5t-33 -13.5q-22 0 -35 15.5t-13 39.5v19q0 46 9 74.5t26 45.5q16 16 36 26.5t32 10.5q22 0 22 -21z" />
    <glyph glyph-name="quoteright" unicode="&#x2019;" horiz-adv-x="245" 
d="M50 494q0 14 13 19q59 26 56 82q-16 4 -27.5 15.5t-11.5 31.5v16q0 20 13 33.5t33 13.5q22 0 35.5 -15.5t13.5 -39.5v-19q0 -46 -9.5 -74.5t-26.5 -45.5q-16 -17 -36 -27t-32 -10q-21 0 -21 20z" />
    <glyph glyph-name="quotedblbase" unicode="&#x201e;" horiz-adv-x="445" 
d="M45 -100q0 13 13 18q59 26 56 82q-16 4 -27.5 16t-11.5 32v16q0 20 13 33t33 13q22 0 35.5 -15t13.5 -40v-19q0 -45 -9.5 -74t-26.5 -46q-16 -16 -36 -26t-32 -10q-21 0 -21 20zM245 -100q0 13 13 18q59 26 56 82q-16 4 -27.5 16t-11.5 32v16q0 19 13 32.5t33 13.5
q22 0 35.5 -15.5t13.5 -39.5v-19q0 -45 -9.5 -74t-26.5 -46q-16 -16 -36 -26t-32 -10q-21 0 -21 20z" />
    <glyph glyph-name="quotesinglbase" unicode="&#x201a;" horiz-adv-x="245" 
d="M45 -100q0 13 13 18q59 26 56 82q-16 4 -27.5 16t-11.5 32v16q0 20 13 33t33 13q22 0 35.5 -15t13.5 -40v-19q0 -45 -9.5 -74t-26.5 -46q-16 -16 -36 -26t-32 -10q-21 0 -21 20z" />
    <glyph glyph-name="guillemotleft" unicode="&#xab;" horiz-adv-x="550" 
d="M450 42q-10 0 -16.5 4.5t-11.5 11.5l-134 173q-12 15 -12 28q0 12 12 27l133 172q11 16 29 16q14 0 23 -9t9 -23q0 -6 -2.5 -12.5t-6.5 -11.5l-118 -158l119 -162q8 -11 8 -23q0 -14 -9 -23.5t-23 -9.5zM227 42q-9 0 -16 4.5t-12 11.5l-133 173q-12 15 -12 28q0 12 12 27
l132 172q11 16 29 16q14 0 23.5 -9t9.5 -23q0 -6 -2.5 -12.5t-6.5 -11.5l-118 -158l119 -162q8 -11 8 -23q0 -14 -9.5 -23.5t-23.5 -9.5z" />
    <glyph glyph-name="guillemotright" unicode="&#xbb;" horiz-adv-x="550" 
d="M323 474q16 0 28 -15l134 -174q5 -8 8 -13.5t3 -13.5q0 -11 -11 -27l-133 -172q-12 -17 -29 -17q-14 0 -23.5 9.5t-9.5 23.5q0 12 9 23l119 159l-119 162q-9 10 -9 23q0 14 9.5 23t23.5 9zM101 474q17 0 27 -15l134 -174q6 -8 9 -13.5t3 -13.5q0 -12 -12 -27l-132 -172
q-6 -8 -13.5 -12.5t-16.5 -4.5q-14 0 -23 9.5t-9 23.5q0 12 9 23l118 159l-119 162q-4 6 -6.5 11t-1.5 12q0 14 9.5 23t23.5 9z" />
    <glyph glyph-name="guilsinglleft" unicode="&#x2039;" horiz-adv-x="328" 
d="M227 42q-9 0 -16 4.5t-12 11.5l-133 173q-12 15 -12 28q0 12 12 27l132 172q11 16 29 16q14 0 23.5 -9t9.5 -23q0 -6 -2.5 -12.5t-6.5 -11.5l-118 -158l119 -162q8 -11 8 -23q0 -14 -9.5 -23.5t-23.5 -9.5z" />
    <glyph glyph-name="guilsinglright" unicode="&#x203a;" horiz-adv-x="328" 
d="M101 474q17 0 27 -15l134 -174q6 -8 9 -13.5t3 -13.5q0 -12 -12 -27l-132 -172q-6 -8 -13.5 -12.5t-16.5 -4.5q-14 0 -23 9.5t-9 23.5q0 12 9 23l118 159l-119 162q-4 6 -6.5 11t-1.5 12q0 14 9.5 23t23.5 9z" />
    <glyph glyph-name="hyphen" unicode="-" horiz-adv-x="408" 
d="M100 260q-17 0 -28.5 12t-11.5 29q0 16 11.5 28t28.5 12h208q17 0 28.5 -12t11.5 -28q0 -17 -11.5 -29t-28.5 -12h-208v0z" />
    <glyph glyph-name="endash" unicode="&#x2013;" horiz-adv-x="528" 
d="M98 262q-16 0 -27 11.5t-11 27.5q0 15 11 26.5t27 11.5h332q16 0 27 -11.5t11 -26.5q0 -16 -11 -27.5t-27 -11.5h-332v0z" />
    <glyph glyph-name="emdash" unicode="&#x2014;" horiz-adv-x="898" 
d="M98 262q-16 0 -27 11.5t-11 27.5q0 15 11 26.5t27 11.5h702q16 0 27 -11.5t11 -26.5q0 -16 -11 -27.5t-27 -11.5h-702v0z" />
    <glyph glyph-name="underscore" unicode="_" horiz-adv-x="600" 
d="M-2 -160q-13 0 -22.5 9t-9.5 23q0 13 9.5 22t22.5 9h604q13 0 22.5 -9t9.5 -22q0 -14 -9.5 -23t-22.5 -9h-604v0z" />
    <glyph glyph-name="slash" unicode="/" horiz-adv-x="508" 
d="M-4 -102q0 10 5 17l435 868q10 20 30 20q13 0 22 -9t9 -22q0 -9 -4 -17l-436 -868q-10 -20 -29 -20q-14 0 -23 9t-9 22z" />
    <glyph glyph-name="backslash" unicode="\" horiz-adv-x="508" 
d="M512 -102q0 -13 -9 -22t-23 -9q-19 0 -29 20l-436 868q-4 8 -4 17q0 13 9 22t22 9q20 0 30 -20l436 -868q4 -8 4 -17z" />
    <glyph glyph-name="bar" unicode="|" horiz-adv-x="303" 
d="M119 770q0 14 9.5 23.5t23.5 9.5q13 0 22.5 -9.5t9.5 -23.5v-870q0 -14 -9.5 -23.5t-22.5 -9.5q-14 0 -23.5 9.5t-9.5 23.5v870z" />
    <glyph glyph-name="parenleft" unicode="(" horiz-adv-x="434" 
d="M349 -137q-14 0 -18 4q-127 75 -195 179.5t-68 240.5t68 240.5t195 179.5q4 4 18 4q12 0 21 -9t9 -21q0 -17 -15 -27q-107 -70 -162.5 -160t-55.5 -207q0 -118 55.5 -207.5t162.5 -159.5q15 -10 15 -27q0 -12 -9 -21t-21 -9z" />
    <glyph glyph-name="parenright" unicode=")" horiz-adv-x="434" 
d="M85 -137q-12 0 -21 9t-9 21q0 17 15 27q107 70 162.5 160t55.5 207q0 118 -55.5 207.5t-162.5 159.5q-15 10 -15 27q0 12 9 21t21 9q14 0 18 -4q127 -75 195 -179.5t68 -240.5t-68 -240.5t-195 -179.5q-4 -4 -18 -4z" />
    <glyph glyph-name="bracketleft" unicode="[" horiz-adv-x="439" 
d="M94 661q0 16 11.5 27.5t27.5 11.5h222q12 0 21 -9t9 -21t-9 -21t-21 -9h-188v-710h188q12 0 21 -9t9 -21t-9 -21t-21 -9h-222q-16 0 -27.5 11.5t-11.5 27.5v752z" />
    <glyph glyph-name="bracketright" unicode="]" horiz-adv-x="439" 
d="M346 -91q0 -16 -11.5 -27.5t-27.5 -11.5h-222q-13 0 -22 9t-9 21t9 21t22 9h188v710h-188q-13 0 -22 9t-9 21t9 21t22 9h222q16 0 27.5 -11.5t11.5 -27.5v-752z" />
    <glyph glyph-name="braceleft" unicode="{" horiz-adv-x="483" 
d="M398 -137q-62 13 -100.5 31t-60.5 42.5t-30 55.5t-8 69v16t0.5 21t0.5 22v17q0 57 -23.5 88t-90.5 32q-35 2 -35 30t35 30q67 1 90.5 32t23.5 88v16.5t-0.5 22t-0.5 21.5v16q0 38 8 69t30 55.5t60.5 42.5t100.5 31q14 3 24 -4t10 -21q0 -11 -6 -17.5t-12 -8.5
q-48 -13 -76 -27t-42.5 -32t-19 -41.5t-4.5 -56.5q0 -15 0.5 -37t0.5 -38q0 -63 -28 -94.5t-76 -46.5q25 -8 44.5 -19.5t32.5 -28t20 -39.5t7 -54q0 -16 -0.5 -38t-0.5 -37q0 -33 4.5 -56.5t19 -41.5t42.5 -32t76 -27q6 -2 12 -8.5t6 -17.5q0 -14 -10 -21t-24 -4z" />
    <glyph glyph-name="braceright" unicode="}" horiz-adv-x="483" 
d="M85 711q61 -13 100 -31t61 -42.5t30 -55.5t8 -69v-16t-0.5 -21.5t-0.5 -22v-16.5q0 -29 5 -51t18 -37t35 -23.5t56 -8.5q34 -2 34 -30t-34 -30q-34 0 -56 -8.5t-35 -23.5t-18 -37.5t-5 -50.5v-17t0.5 -22t0.5 -21v-16q0 -38 -8 -69t-30 -55.5t-61 -42.5t-100 -31
q-14 -3 -24 4t-10 21q0 11 6 17.5t12 8.5q47 13 75 27t43 32t19.5 41.5t4.5 56.5q0 15 -0.5 37t-0.5 38q0 63 28 94.5t76 46.5q-50 16 -77 47t-27 94q0 16 0.5 38t0.5 37q0 33 -4.5 56.5t-19.5 41.5t-43 32t-75 27q-6 2 -12 8.5t-6 17.5q0 14 10 21t24 4z" />
    <glyph glyph-name="at" unicode="@" horiz-adv-x="980" 
d="M499 -162q-96 0 -177.5 34.5t-141.5 94t-93.5 138.5t-33.5 169t34 169.5t93 139t139 94.5t172 35t171.5 -32.5t138.5 -87t92.5 -126.5t33.5 -150q0 -64 -16.5 -110t-42.5 -76t-60 -44.5t-68 -14.5q-55 0 -90.5 23t-49.5 61q-29 -35 -69 -59.5t-96 -24.5q-37 0 -69.5 13
t-57 37t-38.5 57.5t-14 74.5q0 53 20 98.5t53 79t74.5 52.5t83.5 19q29 0 52 -7t41 -18.5t31 -26.5t22 -31l8 43q6 34 35 34q16 0 26 -12.5t7 -29.5l-36 -202q-4 -21 -5.5 -37t-1.5 -24q0 -38 22 -59.5t63 -21.5q27 0 52 12t44.5 37.5t31.5 64.5t12 92q0 69 -30.5 134
t-84 116t-126.5 81.5t-159 30.5t-159.5 -32t-127.5 -87t-84.5 -128.5t-30.5 -156.5q0 -84 30.5 -157t84.5 -127.5t129.5 -86t165.5 -31.5q73 0 129.5 16t111.5 48q4 2 10 2t10.5 -5t4.5 -11q0 -5 -3 -8.5t-5 -5.5q-56 -32 -119 -51t-139 -19zM450 133q32 0 62 15t52.5 40
t36 57.5t13.5 67.5q0 27 -9 50.5t-25.5 40.5t-39 26.5t-48.5 9.5q-32 0 -61.5 -14t-52 -38.5t-36.5 -57.5t-14 -72q0 -60 34 -92.5t88 -32.5z" />
    <glyph glyph-name="copyright" unicode="&#xa9;" horiz-adv-x="830" 
d="M414 -12q-76 0 -142 28.5t-114.5 77.5t-76.5 114.5t-28 139.5v2q0 74 28 139.5t77 115t115.5 78.5t142.5 29t142 -28.5t114.5 -77.5t76.5 -114.5t28 -139.5v-2q0 -74 -28 -139.5t-77 -115t-115.5 -78.5t-142.5 -29zM414 19q70 0 130.5 26.5t105 71.5t69.5 105t25 128v2
q0 68 -25 128t-69 104.5t-104 70.5t-130 26q-71 0 -131 -26.5t-104.5 -71.5t-69.5 -105t-25 -128v-2q0 -68 25 -128t69 -104.5t104 -70.5t130 -26zM419 163q-40 0 -74 15t-59 41t-39 61t-14 74v2q0 39 14 73.5t39.5 61t59.5 41.5t75 15q45 0 75 -13.5t54 -33.5
q5 -4 8.5 -9.5t3.5 -13.5q0 -11 -8.5 -19t-19.5 -8q-5 0 -9.5 2.5t-9.5 5.5q-20 17 -43 28t-52 11q-28 0 -52 -11t-41.5 -30.5t-27.5 -45t-10 -53.5v-2q0 -29 10 -54.5t28 -45t42 -30.5t52 -11q32 0 54.5 10.5t45.5 30.5q3 2 7 4t10 2q11 0 18.5 -7t7.5 -18q0 -12 -9 -19
q-28 -24 -59 -39t-77 -15z" />
    <glyph glyph-name="published" unicode="&#x2117;" horiz-adv-x="830" 
d="M414 -12q-76 0 -142 28.5t-114.5 77.5t-76.5 114.5t-28 139.5v2q0 74 28 139.5t77 115t115.5 78.5t142.5 29t142 -28.5t114.5 -77.5t76.5 -114.5t28 -139.5v-2q0 -74 -28 -139.5t-77 -115t-115.5 -78.5t-142.5 -29zM414 19q70 0 130.5 26.5t105 71.5t69.5 105t25 128v2
q0 68 -25 128t-69 104.5t-104 70.5t-130 26q-71 0 -131 -26.5t-104.5 -71.5t-69.5 -105t-25 -128v-2q0 -68 25 -128t69 -104.5t104 -70.5t130 -26zM292 515q0 12 8.5 20t19.5 8h118q66 0 105 -31.5t39 -88.5v-2q0 -31 -12.5 -54.5t-33 -39t-48 -23t-57.5 -7.5h-83v-102
q0 -11 -8.5 -19.5t-19.5 -8.5t-19.5 8.5t-8.5 19.5v320zM432 347q43 0 68.5 19t25.5 54v2q0 36 -25 53.5t-68 17.5h-85v-146h84z" />
    <glyph glyph-name="registered.alt" horiz-adv-x="830" 
d="M414 -12q-76 0 -142 28.5t-114.5 77.5t-76.5 114.5t-28 139.5v2q0 74 28 139.5t77 115t115.5 78.5t142.5 29t142 -28.5t114.5 -77.5t76.5 -114.5t28 -139.5v-2q0 -74 -28 -139.5t-77 -115t-115.5 -78.5t-142.5 -29zM414 19q70 0 130.5 26.5t105 71.5t69.5 105t25 128v2
q0 68 -25 128t-69 104.5t-104 70.5t-130 26q-71 0 -131 -26.5t-104.5 -71.5t-69.5 -105t-25 -128v-2q0 -68 25 -128t69 -104.5t104 -70.5t130 -26zM273 519q0 11 8 19t19 8h139q35 0 63.5 -10.5t46.5 -28.5q14 -13 22 -31t8 -41v-2q0 -44 -26.5 -71t-68.5 -37l88 -109
q3 -5 5 -9.5t2 -10.5q0 -11 -8 -18.5t-19 -7.5q-14 0 -23 12l-105 133h-96v-118q0 -11 -8.5 -19t-19.5 -8t-19 8t-8 19v322zM434 364q39 0 63.5 17t24.5 49v2q0 29 -22.5 46.5t-62.5 17.5h-109v-132h106z" />
    <glyph glyph-name="registered" unicode="&#xae;" horiz-adv-x="403" 
d="M202 360q-37 0 -68.5 14t-55 37.5t-37 55t-13.5 67.5v1q0 36 13.5 67.5t37 55.5t55.5 38t68 14q37 0 68.5 -14t55 -37.5t37 -55t13.5 -67.5v-1q0 -36 -13.5 -67.5t-37 -55.5t-55.5 -38t-68 -14zM202 379q33 0 61 12.5t48.5 33.5t32.5 49.5t12 60.5v1q0 32 -11.5 60
t-32.5 49t-49 33.5t-61 12.5t-61 -12.5t-48.5 -33.5t-32.5 -49.5t-12 -60.5v-1q0 -32 11.5 -60t32.5 -49t49 -33.5t61 -12.5zM134 610q0 7 4.5 12t12.5 5h63q29 0 48.5 -14t19.5 -42q0 -20 -10.5 -34t-28.5 -21l34 -40q5 -6 5 -13t-4.5 -12t-11.5 -5q-9 0 -16 9l-46 56h-36
v-47q0 -8 -5 -13t-12 -5q-8 0 -12.5 5t-4.5 13v146zM211 539q17 0 26.5 8t9.5 21q0 29 -36 29h-43v-58h43z" />
    <glyph glyph-name="servicemark" unicode="&#x2120;" horiz-adv-x="707" 
d="M353 679q0 10 6 16t15 6h6q14 0 20 -11l109 -168l109 168q8 11 20 11h5q9 0 15.5 -6.5t6.5 -15.5v-270q0 -9 -6.5 -15.5t-16.5 -6.5q-9 0 -15 6.5t-6 15.5v208l-93 -139q-7 -13 -19 -13t-20 13l-93 139v-208q0 -9 -6.5 -15.5t-15.5 -6.5q-8 0 -14.5 6.5t-6.5 15.5v270z
M35 445q0 20 19 20q8 0 15 -5q23 -17 46.5 -26t51.5 -9q31 0 49.5 13.5t18.5 34.5v1q0 20 -17 31.5t-63 22.5q-52 11 -80 30t-28 59v1q0 38 30.5 62.5t79.5 24.5q29 0 54.5 -7.5t45.5 -21.5q11 -7 11 -19q0 -8 -5.5 -14t-13.5 -6q-7 0 -15 5q-17 11 -36.5 18t-42.5 7
q-30 0 -47 -13t-17 -33t16.5 -32t64.5 -23q51 -11 79 -30.5t28 -57.5v-1q0 -42 -32.5 -66t-80.5 -24q-34 0 -65 10.5t-55 29.5q-11 7 -11 18z" />
    <glyph glyph-name="trademark" unicode="&#x2122;" horiz-adv-x="690" 
d="M125 658h-83q-8 0 -14.5 6.5t-6.5 14.5t6.5 14.5t14.5 6.5h209q9 0 15 -6.5t6 -14.5t-6 -14.5t-15 -6.5h-82v-249q0 -9 -6.5 -15.5t-16.5 -6.5q-9 0 -15 6.5t-6 15.5v249zM336 679q0 22 22 22h6q12 0 20 -11l108 -168l110 168q8 11 19 11h6q8 0 14.5 -6.5t6.5 -15.5v-270
q0 -9 -6.5 -15.5t-15.5 -6.5t-15 6.5t-6 15.5v208l-93 -139q-8 -13 -20 -13t-20 13l-92 139v-208q0 -9 -6.5 -15.5t-15.5 -6.5t-15.5 6.5t-6.5 15.5v270z" />
    <glyph glyph-name="asterisk" unicode="*" horiz-adv-x="430" 
d="M199 522l-84 -59q-11 -8 -20 -8q-11 0 -18 7.5t-7 18.5q0 8 5.5 14.5t12.5 8.5l97 45l-97 45q-8 4 -13 10t-5 14q0 11 7.5 18t17.5 8q6 0 10.5 -2t9.5 -6l84 -59l-8 101q-2 12 5.5 20.5t18.5 8.5t18.5 -8.5t5.5 -19.5l-8 -102l84 59q11 8 20 8q11 0 18 -7.5t7 -18.5
q0 -10 -5.5 -15.5t-12.5 -8.5l-97 -45l97 -45q7 -2 12.5 -8t5.5 -15q0 -11 -7.5 -18.5t-17.5 -7.5q-6 0 -10.5 2t-9.5 6l-84 59l8 -102q2 -11 -5.5 -19.5t-18.5 -8.5t-18.5 8.5t-5.5 19.5z" />
    <glyph glyph-name="dagger" unicode="&#x2020;" horiz-adv-x="410" 
d="M184 520l-100 -7q-11 -1 -19.5 7t-8.5 19t8.5 19.5t19.5 7.5l99 -7l-7 114q-1 14 7.5 23t21.5 9t21.5 -9t7.5 -23l-7 -114l99 7q11 1 19.5 -7.5t8.5 -19.5t-8.5 -19t-19.5 -7l-100 7l6 -258q0 -13 -8 -21t-19 -8t-19 8t-8 21z" />
    <glyph glyph-name="daggerdbl" unicode="&#x2021;" horiz-adv-x="430" 
d="M193 141l-99 -7q-11 -1 -19.5 7.5t-8.5 19.5t8.5 19t19.5 7l100 -7l-6 170l6 170l-100 -7q-11 -1 -19.5 7t-8.5 19t8.5 19.5t19.5 7.5l99 -7l-7 114q-1 14 7.5 23t21.5 9t21.5 -9t7.5 -23l-7 -114l99 7q11 1 19.5 -7.5t8.5 -19.5t-8.5 -19t-19.5 -7l-100 7l6 -170
l-6 -170l100 7q11 1 19.5 -7t8.5 -19t-8.5 -19.5t-19.5 -7.5l-99 7l7 -114q1 -14 -7.5 -23t-21.5 -9t-21.5 9t-7.5 23z" />
    <glyph glyph-name="dollar" unicode="$" horiz-adv-x="636" 
d="M292 731q0 13 9.5 22.5t22.5 9.5t22.5 -9.5t9.5 -22.5v-33q50 -5 90.5 -21.5t78.5 -42.5q8 -6 14 -14t6 -19q0 -16 -11 -26t-27 -10q-5 0 -10.5 1t-11.5 6q-66 48 -132 58v-247q114 -26 165 -72t51 -122q0 -40 -15.5 -73.5t-44 -58t-67.5 -39.5t-86 -18v-71
q0 -13 -9.5 -22.5t-22.5 -9.5t-22.5 9.5t-9.5 22.5v73q-62 5 -115 28t-102 61q-17 12 -17 32q0 15 11 25.5t26 10.5q8 0 13.5 -2.5t9.5 -5.5q40 -34 82.5 -55t94.5 -27v251q-111 26 -162 71t-51 124q0 39 15.5 71.5t43.5 57t66.5 39.5t84.5 17v31zM492 184q0 22 -6.5 40
t-22 33t-42.5 27t-68 23v-241q65 4 102 36t37 82zM159 520q0 -22 6 -39.5t21 -32.5t41.5 -27.5t67.5 -23.5v236q-64 -3 -100 -35t-36 -78z" />
    <glyph glyph-name="sterling" unicode="&#xa3;" horiz-adv-x="644" 
d="M63 25q0 19 20 25l68 17v228h-53q-14 0 -24.5 10t-10.5 24t10.5 24.5t24.5 10.5h53v108q0 56 16 101.5t47 76.5q29 29 68.5 44.5t89.5 15.5q36 0 65 -6.5t53 -18.5t43 -28t36 -35q5 -6 8.5 -13t3.5 -16q0 -17 -11 -27.5t-28 -10.5q-11 0 -17.5 4t-11.5 9q-27 31 -59.5 50
t-82.5 19q-59 0 -98 -37q-43 -45 -43 -128v-108h249q14 0 24.5 -10.5t10.5 -24.5t-10.5 -24t-24.5 -10h-249v-225h324q14 0 25 -10.5t11 -24.5q0 -15 -11 -25t-25 -10h-465q-11 0 -18.5 7t-7.5 18z" />
    <glyph glyph-name="Euro" unicode="&#x20ac;" horiz-adv-x="720" 
d="M663 137q0 -6 -2.5 -11.5t-5.5 -10.5q-40 -55 -93.5 -91t-131.5 -36q-53 0 -99 18t-82.5 51t-62.5 78.5t-39 101.5h-64q-13 0 -22 9t-9 22q0 14 9 23t22 9h54q-1 12 -1.5 24t-0.5 25q0 30 3 59h-55q-13 0 -22 9t-9 22t9 22t22 9h67q14 52 40 96.5t61 77t79 50.5t95 18
q40 0 73.5 -8.5t60.5 -24t49.5 -37t42.5 -46.5q4 -5 7 -11.5t3 -14.5q0 -15 -11 -26t-26 -11q-11 0 -18 4.5t-12 9.5q-35 46 -74 70t-98 24q-68 0 -118 -47t-73 -124h230q13 0 22.5 -9t9.5 -22t-9.5 -22t-22.5 -9h-244q-3 -29 -3 -57v-26.5t2 -24.5h245q13 0 22.5 -9
t9.5 -23q0 -13 -9.5 -22t-22.5 -9h-233q23 -81 76.5 -129.5t128.5 -48.5q55 0 94.5 27t71.5 72q10 14 28 14q15 0 25.5 -10t10.5 -25z" />
    <glyph glyph-name="yen" unicode="&#xa5;" horiz-adv-x="686" 
d="M381 178h179q12 0 21.5 -9t9.5 -22t-9.5 -22t-21.5 -9h-179v-82q0 -17 -11 -28t-27 -11t-27 11t-11 28v82h-179q-12 0 -21.5 9t-9.5 22t9.5 22t21.5 9h179v88h-179q-12 0 -21.5 9t-9.5 22t9.5 22t21.5 9h154l-219 311q-9 15 -9 28q0 15 11 26.5t28 11.5q23 0 37 -24
l216 -322l217 323q7 10 16 16.5t21 6.5q15 0 26 -10.5t11 -26.5q0 -8 -3 -15t-7 -14l-221 -311h156q12 0 21.5 -9t9.5 -22t-9.5 -22t-21.5 -9h-179v-88z" />
    <glyph glyph-name="cent" unicode="&#xa2;" horiz-adv-x="581" 
d="M233 100q-39 14 -71 39t-55.5 58t-36 72.5t-12.5 83.5v2q0 55 20.5 104t56 86t84 58.5t104.5 21.5h13l11 60q2 10 10.5 18t21.5 8q15 0 24.5 -11.5t5.5 -28.5l-11 -56q36 -10 64 -27.5t52 -38.5q5 -5 9 -12t4 -16q0 -16 -10.5 -26.5t-25.5 -10.5t-25 10q-19 17 -39.5 31
t-45.5 22l-76 -392q5 -1 10.5 -1h10.5q44 0 79.5 17t65.5 46q10 10 24 10t23.5 -10t9.5 -24q0 -15 -11 -24q-36 -37 -83 -60.5t-112 -23.5h-13.5t-13.5 1l-14 -71q-2 -10 -10 -18t-21 -8q-15 0 -25 11.5t-6 28.5zM136 355q0 -63 31 -113t83 -73l74 387h-3q-39 0 -73 -15.5
t-58.5 -42.5t-39 -63t-14.5 -78v-2z" />
    <glyph glyph-name="florin" unicode="&#x192;" horiz-adv-x="514" 
d="M99 -6q-24 0 -36.5 9.5t-12.5 23.5q0 15 10.5 23.5t28.5 9.5q61 2 74 76l44 237h-69q-14 0 -24 9.5t-10 23.5t10 24t24 10h80l23 120q14 75 50.5 110.5t105.5 35.5q16 0 29 -1t27 -4q13 -2 21.5 -11t8.5 -23t-9.5 -23.5t-23.5 -9.5q-5 0 -16 2.5t-25 2.5q-39 0 -60 -21
t-30 -70l-20 -108h115q14 0 24 -10t10 -24t-10 -23.5t-24 -9.5h-127l-45 -245q-14 -70 -49 -102t-94 -32z" />
    <glyph glyph-name="numbersign" unicode="#" horiz-adv-x="700" 
d="M155 177h-80q-14 0 -24 10t-10 24t10 24.5t24 10.5h92l37 212h-90q-14 0 -24.5 10t-10.5 24t10.5 24.5t24.5 10.5h102l25 147q2 14 11.5 22.5t23.5 8.5q17 0 26.5 -13t7.5 -29l-24 -136h188l25 147q2 14 11.5 22.5t23.5 8.5q17 0 26.5 -13t7.5 -29l-23 -136h79
q14 0 24.5 -10t10.5 -24t-10.5 -24.5t-24.5 -10.5h-91l-37 -212h89q14 0 24.5 -10t10.5 -24t-10.5 -24.5t-24.5 -10.5h-101l-26 -151q-2 -14 -11.5 -22.5t-23.5 -8.5q-17 0 -26.5 13t-7.5 29l25 140h-188l-26 -151q-2 -13 -11.5 -22t-23.5 -9q-17 0 -26.5 12.5t-7.5 29.5z
M425 246l37 212h-187l-37 -212h187z" />
    <glyph glyph-name="paragraph" unicode="&#xb6;" horiz-adv-x="510" 
d="M338 264h-11q-59 0 -110 14t-88.5 42t-59 68t-21.5 93v2q0 51 19.5 91.5t54.5 68t83.5 42.5t106.5 15h66q17 0 28.5 -11.5t11.5 -28.5v-625q0 -17 -11 -28.5t-28 -11.5t-29 11.5t-12 28.5v229z" />
    <glyph glyph-name="section" unicode="&#xa7;" horiz-adv-x="632" 
d="M328 -10q-63 0 -117 21.5t-95 56.5q-12 10 -12 27q0 15 10.5 25t24.5 10q8 0 14 -2.5t11 -7.5q32 -29 74.5 -46.5t91.5 -17.5q53 0 78 19t25 47v2q0 14 -8 26t-27 23t-50.5 21.5t-77.5 21.5q-57 13 -96.5 27.5t-64.5 31.5t-36 37t-11 46v2q0 46 36.5 75t95.5 39
q-34 17 -54 43t-20 58v2q0 60 50 96.5t134 36.5q63 0 117 -21.5t95 -56.5q12 -10 12 -27q0 -15 -10.5 -25t-24.5 -10q-8 0 -14 2.5t-11 7.5q-32 29 -74.5 46.5t-91.5 17.5q-52 0 -77.5 -18.5t-25.5 -47.5v-2q0 -14 8 -26t26.5 -23t50 -21.5t78.5 -21.5q57 -14 96.5 -28
t64.5 -30.5t36 -37t11 -46.5v-2q0 -45 -36.5 -74.5t-95.5 -39.5q34 -17 54 -43t20 -58v-2q0 -60 -50 -96.5t-134 -36.5zM387 263q49 0 79 20.5t30 48.5v2q0 12 -6.5 23.5t-23 22t-44 21t-68.5 20.5q-37 9 -63 12.5t-46 3.5q-49 0 -79 -20.5t-30 -48.5v-2q0 -12 6.5 -23.5
t23 -22t44 -21t68.5 -20.5q36 -9 62.5 -12.5t46.5 -3.5z" />
    <glyph glyph-name="ordfeminine" unicode="&#xaa;" horiz-adv-x="390" 
d="M168 408q-20 0 -39 5.5t-34 17t-24.5 28t-9.5 39.5v2q0 45 34.5 69t88.5 24q26 0 44.5 -3t35.5 -8v5q0 35 -20.5 53t-57.5 18q-20 0 -37 -5t-31 -10q-8 -3 -13 -3q-9 0 -15.5 6t-6.5 16q0 14 15 21q22 10 43.5 15t49.5 5q59 0 93 -32q29 -29 29 -84v-154q0 -10 -7.5 -17
t-17.5 -7t-17 6.5t-7 16.5v20q-17 -20 -40.5 -32t-55.5 -12zM177 450q35 0 61 19t26 51v24q-15 5 -33.5 8t-42.5 3q-35 0 -55 -15t-20 -38v-2q0 -24 19 -37t45 -13zM77 289q-9 0 -16 6.5t-7 16.5t7 17t16 7h222q9 0 16 -7t7 -17t-7 -16.5t-16 -6.5h-222z" />
    <glyph glyph-name="ordmasculine" unicode="&#xba;" horiz-adv-x="390" 
d="M194 407q-32 0 -58.5 11.5t-46 32t-30.5 47t-11 56.5v2q0 30 11 57.5t31 47.5t47 32t59 12q31 0 58 -11.5t46.5 -32t30.5 -47t11 -56.5v-2q0 -30 -11 -57.5t-31 -47.5t-47 -32t-59 -12zM70 289q-10 0 -17 6.5t-7 16.5t7 17t17 7h250q10 0 17 -7t7 -17t-7 -16.5t-17 -6.5
h-250zM196 455q42 0 67 29t25 70v2q0 21 -7 39.5t-19.5 32t-30 21.5t-37.5 8q-42 0 -67 -29t-25 -70v-2q0 -42 26.5 -71.5t67.5 -29.5z" />
    <glyph glyph-name="degree" unicode="&#xb0;" horiz-adv-x="458" 
d="M229 400q-31 0 -59.5 12.5t-50 33.5t-34.5 48.5t-13 57.5v2q0 31 13 58.5t34.5 48.5t50 33t59.5 12t59 -12t50 -33t35 -48.5t13 -58.5v-2q0 -30 -13 -57.5t-35 -48.5t-50 -33.5t-59 -12.5zM229 452q21 0 39.5 8.5t31.5 22t20.5 31.5t7.5 38v2q0 19 -7.5 37.5t-20.5 32
t-31.5 22t-39.5 8.5t-39.5 -8.5t-31.5 -22t-20.5 -32t-7.5 -37.5v-2q0 -20 7.5 -38t20.5 -31.5t31.5 -22t39.5 -8.5z" />
    <glyph glyph-name="percent" unicode="%" horiz-adv-x="834" 
d="M210 350q-36 0 -65 14.5t-49.5 39t-32 56.5t-11.5 67v2q0 36 11.5 68t32.5 57t50.5 39.5t65.5 14.5q35 0 64 -14.5t49.5 -39t32 -56.5t11.5 -67v-2q0 -36 -11.5 -68t-32.5 -57t-50 -39.5t-65 -14.5zM149 23q0 10 6 19l476 649q10 14 25 14q12 0 20.5 -8.5t8.5 -19.5
q0 -10 -6 -19l-476 -649q-5 -6 -11 -10t-14 -4q-12 0 -20.5 8.5t-8.5 19.5zM622 -8q-35 0 -64 14.5t-49.5 39t-32 56.5t-11.5 67v2q0 36 11.5 68t32.5 57t50 39.5t65 14.5t65 -14.5t49.5 -39t31.5 -56.5t11 -67v-2q0 -36 -11.5 -68t-32 -57t-50 -39.5t-65.5 -14.5zM212 406
q20 0 37 9.5t29 26t18.5 38.5t6.5 47v2q0 26 -7.5 48.5t-20 39t-29.5 26t-36 9.5q-21 0 -37.5 -9.5t-28.5 -26t-18.5 -38.5t-6.5 -47v-2q0 -26 7 -48.5t20 -39t29.5 -26t36.5 -9.5zM624 48q21 0 37.5 9.5t28.5 26t18.5 38.5t6.5 47v2q0 26 -7 48.5t-20 39t-30 26t-36 9.5
q-20 0 -37 -9.5t-29 -26t-18.5 -38.5t-6.5 -47v-2q0 -26 7 -48.5t20 -39t29.5 -26t36.5 -9.5z" />
    <glyph glyph-name="quotedbl" unicode="&#x22;" horiz-adv-x="440" 
d="M287 665q2 17 12.5 27.5t27.5 10.5h26q10 0 16.5 -6t6.5 -18q0 -5 -1.5 -10.5t-3.5 -12.5l-63 -209q-8 -23 -24 -23q-10 0 -17 6t-5 20zM92 665q2 17 12.5 27.5t27.5 10.5h26q10 0 16.5 -6t6.5 -18q0 -5 -1.5 -10.5t-3.5 -12.5l-63 -209q-8 -23 -24 -23q-10 0 -17 6
t-5 20z" />
    <glyph glyph-name="quotesingle" unicode="'" horiz-adv-x="245" 
d="M92 665q2 17 12.5 27.5t27.5 10.5h26q10 0 16.5 -6t6.5 -18q0 -5 -1 -10.5t-3 -12.5l-64 -209q-4 -11 -9 -17t-15 -6q-11 0 -17.5 6t-4.5 20z" />
    <glyph glyph-name="plus" unicode="+" horiz-adv-x="625" 
d="M275 316h-175q-15 0 -26 10.5t-11 25.5t11 25.5t26 10.5h175v173q0 16 11 26.5t27 10.5q15 0 26 -10.5t11 -26.5v-173h176q15 0 25.5 -10.5t10.5 -25.5t-10.5 -25.5t-25.5 -10.5h-176v-173q0 -16 -11 -26.5t-26 -10.5q-16 0 -27 10.5t-11 26.5v173z" />
    <glyph glyph-name="minus" unicode="&#x2212;" horiz-adv-x="625" 
d="M101 315q-16 0 -27 10.5t-11 26.5q0 15 11 26t27 11h424q15 0 26 -11t11 -26q0 -16 -11 -26.5t-26 -10.5h-424z" />
    <glyph glyph-name="divide" unicode="&#xf7;" horiz-adv-x="625" 
d="M98 317q-14 0 -24.5 10.5t-10.5 24.5t10.5 24.5t24.5 10.5h429q14 0 24.5 -10.5t10.5 -24.5t-10.5 -24.5t-24.5 -10.5h-429zM313 607q21 0 36 -15t15 -35v-13q0 -20 -15 -35t-36 -15q-22 0 -37 15t-15 35v13q0 20 15 35t37 15zM313 210q21 0 36 -15t15 -35v-13
q0 -20 -15 -35t-36 -15q-22 0 -37 15t-15 35v13q0 20 15 35t37 15z" />
    <glyph glyph-name="equal" unicode="=" horiz-adv-x="625" 
d="M113 198q-15 0 -26 10.5t-11 26.5q0 15 11 26t26 11h399q16 0 27 -11t11 -26q0 -16 -11 -26.5t-27 -10.5h-399zM113 432q-15 0 -26 10.5t-11 26.5q0 15 11 26t26 11h399q16 0 27 -11t11 -26q0 -16 -11 -26.5t-27 -10.5h-399z" />
    <glyph glyph-name="multiply" unicode="&#xd7;" horiz-adv-x="625" 
d="M361 353l154 -151q12 -12 12 -28q0 -15 -10.5 -25.5t-25.5 -10.5q-16 0 -28 12l-151 154l-152 -155q-13 -11 -27 -11t-24.5 10.5t-10.5 24.5t12 26l154 152l-154 151q-12 12 -12 28q0 15 11 25.5t26 10.5t27 -12l152 -154l152 155q11 11 26 11q14 0 24.5 -10.5
t10.5 -24.5t-12 -26z" />
    <glyph glyph-name="less" unicode="&#x3c;" horiz-adv-x="625" 
d="M504 101q-5 0 -10 1.5t-9 3.5l-395 201q-29 14 -29 43v4q0 28 29 43l395 201q10 5 21 5q14 1 23 -9.5t9 -24.5q0 -23 -23 -34l-367 -182l367 -184q23 -12 23 -34q0 -14 -9.5 -24t-24.5 -10z" />
    <glyph glyph-name="greater" unicode="&#x3e;" horiz-adv-x="625" 
d="M121 603q5 0 10 -1.5t10 -3.5l394 -201q30 -15 30 -43v-4q0 -28 -30 -43l-394 -201q-12 -5 -21 -5q-14 -1 -23.5 9.5t-9.5 24.5q0 12 6.5 20.5t16.5 13.5l367 182l-367 184q-10 5 -16.5 13.5t-6.5 20.5q0 14 10 24t24 10z" />
    <glyph glyph-name="plusminus" unicode="&#xb1;" horiz-adv-x="625" 
d="M276 364h-169q-14 0 -24.5 10.5t-10.5 24.5t10.5 24.5t24.5 10.5h169v164q0 15 10.5 26t26.5 11q15 0 25.5 -11t10.5 -26v-164h169q14 0 24.5 -10.5t10.5 -24.5t-10.5 -24.5t-24.5 -10.5h-169v-164q0 -15 -10.5 -26t-25.5 -11q-16 0 -26.5 11t-10.5 26v164zM107 0
q-14 0 -24.5 10.5t-10.5 24.5t10.5 24t24.5 10h412q14 0 24 -10t10 -24t-10 -24.5t-24 -10.5h-412z" />
    <glyph glyph-name="C" unicode="C" horiz-adv-x="738" 
d="M419 -12q-76 0 -140 28t-111 76.5t-73.5 114.5t-26.5 141v2q0 74 26.5 140t73.5 115.5t112 78t142 28.5q85 0 143 -25t107 -66q6 -5 11 -13t5 -19q0 -16 -12 -27.5t-28 -11.5q-8 0 -14.5 3t-11.5 6q-41 36 -88.5 58t-112.5 22q-58 0 -107.5 -22t-86 -61t-57 -91.5
t-20.5 -112.5v-2q0 -61 20.5 -113.5t57 -91.5t86 -61.5t107.5 -22.5q66 0 114.5 21.5t93.5 63.5q11 11 25 11q15 0 26.5 -11.5t11.5 -26.5q0 -9 -4 -16t-9 -12q-26 -24 -53.5 -43t-59 -32.5t-68 -20.5t-79.5 -7z" />
    <glyph glyph-name="uni00A0" unicode="&#xa0;" horiz-adv-x="300" 
 />
    <glyph glyph-name="emspace" unicode="&#x2003;" horiz-adv-x="1000" 
 />
    <glyph glyph-name="enspace" unicode="&#x2002;" horiz-adv-x="500" 
 />
    <glyph glyph-name="threeperemspace" unicode="&#x2004;" horiz-adv-x="333" 
 />
    <glyph glyph-name="fourperemspace" unicode="&#x2005;" horiz-adv-x="250" 
 />
    <glyph glyph-name="thinspace" unicode="&#x2009;" horiz-adv-x="133" 
 />
    <glyph glyph-name="hairspace" unicode="&#x200a;" horiz-adv-x="75" 
 />
    <glyph glyph-name="A" unicode="A" horiz-adv-x="784" 
d="M51 31q0 11 5 21l284 621q8 17 19.5 26t30.5 9h4q35 0 49 -35l284 -620q5 -12 5 -20q0 -16 -11 -27t-27 -11q-14 0 -24 8.5t-15 20.5l-73 161h-384l-73 -163q-11 -27 -38 -27q-15 0 -25.5 10.5t-10.5 25.5zM551 257l-161 358l-161 -358h322z" />
    <glyph glyph-name="hfjslug" horiz-adv-x="694" 
d="M436 -200l-8 14h-163l-8 -14h-207v303q14 0 23 9t9 23q0 13 -9 22.5t-23 9.5v554h100l30 79h334l29 -79h101v-921h-208zM400 391h15v78h38v14h-38v66h43v14h-58v-172zM184 391h15v79h47v-79h15v172h-15v-79h-47v79h-15v-172zM460 394q10 -4 21 -4q31 0 31 36v137h-16
v-137q0 -22 -16 -22q-5 0 -10.5 1.5t-9.5 3.5v-15zM358 468q-2 -7 -4 -15t-4 -15h-1l-16 31q10 9 16.5 19.5t6.5 22.5q0 13 -6.5 22t-20.5 9q-13 0 -20.5 -9t-7.5 -22q0 -11 4 -19.5t10 -19.5q-23 -18 -23 -47q0 -17 8 -27t21 -10q19 0 29 24h1l12 -24l12 6l-17 32
q4 9 7 18.5t6 20.5zM523 277h8v12l8 8l15 -20h10l-20 26l18 20h-10l-20 -24h-1v24h-8v-46zM498 277h9l-12 17q10 4 10 14q0 15 -17 15h-20v-46h8v15h12zM426 276q11 0 17.5 7t6.5 17q0 9 -6.5 16.5t-17.5 7.5t-17.5 -7.5t-6.5 -16.5q0 -10 6.5 -17t17.5 -7zM357 323h-9
l18 -29v-17h8v17l18 29h-9l-13 -22zM193 277h34v7h-26v13h23v7h-23v12h26v7h-34v-46zM132 277h8v32l25 -32h7v46h-8v-32l-25 32h-7v-46zM255 276h8l11 34h1l11 -34h8l14 47h-8l-10 -35h-1l-11 35h-7l-11 -35h-1l-10 35h-8zM327 479l-8.5 17t-3.5 15q0 19 14 19q13 0 13 -19
q0 -16 -15 -32zM342 423q-8 -21 -20 -21q-16 0 -16 25q0 10 4.5 19t11.5 16zM476 299v17h11q10 0 10 -8q0 -9 -10 -9h-11zM426 283q-8 0 -12 5t-4 12q0 6 4 11.5t12 5.5t12 -5.5t4 -11.5q0 -7 -4 -12t-12 -5z" />
    <glyph glyph-name="i.dot" horiz-adv-x="263" 
d="M86 679q0 19 13 30t32 11q20 0 33 -11t13 -30v-13q0 -18 -13 -29.5t-33 -11.5q-19 0 -32 11.5t-13 29.5v13zM93 483q0 16 11 27.5t27 11.5q17 0 28 -11t11 -28v-449q0 -17 -10.5 -28t-27.5 -11t-28 11t-11 28v449z" />
    <glyph glyph-name="acute" unicode="&#xb4;" horiz-adv-x="500" 
d="M211 591q-19 0 -19 14q0 8 5 15l60 91q15 23 36 23q18 0 36 -9.5t18 -20.5q0 -6 -4 -11.5t-10 -11.5l-75 -71q-12 -12 -22.5 -15.5t-24.5 -3.5z" />
    <glyph glyph-name="hungarumlaut" unicode="&#x2dd;" horiz-adv-x="500" 
d="M278 591q-20 0 -20 14q0 7 6 15l61 92q14 22 34 22q17 0 34 -9t17 -20q0 -10 -12 -22l-74 -73q-13 -12 -22.5 -15.5t-23.5 -3.5zM114 591q-8 0 -14 4t-6 10q0 7 6 15l61 92q14 22 34 22q17 0 34 -9t17 -20q0 -10 -12 -22l-74 -73q-13 -12 -22.5 -15.5t-23.5 -3.5z" />
    <glyph glyph-name="caron.alt" horiz-adv-x="500" 
d="M219 700q3 32 34 32h15q22 0 22 -21q0 -9 -5 -24l-35 -106q-6 -20 -22 -20q-8 0 -14 5t-4 18z" />
    <glyph glyph-name="grave" unicode="`" horiz-adv-x="500" 
d="M289 591q-14 0 -24.5 3.5t-22.5 15.5l-75 71q-6 6 -10 11.5t-4 11.5q0 11 18 20.5t36 9.5q21 0 36 -23l60 -91q5 -7 5 -15q0 -14 -19 -14z" />
    <glyph glyph-name="circumflex" unicode="&#x2c6;" horiz-adv-x="500" 
d="M190 610q-13 -12 -23.5 -15.5t-24.5 -3.5q-18 0 -18 14q0 5 7 17l70 86q8 10 17 16t23 6h18q14 0 23 -6t17 -16l70 -86q7 -12 7 -17q0 -14 -19 -14q-14 0 -25 3.5t-24 15.5l-59 52z" />
    <glyph glyph-name="caron" unicode="&#x2c7;" horiz-adv-x="500" 
d="M310 712q13 11 23.5 14.5t24.5 3.5q18 0 18 -14q0 -6 -7 -16l-70 -86q-8 -11 -17 -17t-23 -6h-18q-14 0 -23 6t-17 17l-70 86q-7 10 -7 16q0 14 19 14q14 0 25 -3.5t24 -14.5l59 -53z" />
    <glyph glyph-name="breve" unicode="&#x2d8;" horiz-adv-x="500" 
d="M250 593q-92 0 -132 73q-5 8 -7.5 17.5t-2.5 17.5q0 13 7.5 21.5t20.5 8.5q11 0 17 -5.5t11 -13.5q10 -24 30.5 -39.5t55.5 -15.5t55.5 15.5t30.5 39.5q5 8 11 13.5t17 5.5q13 0 20.5 -8.5t7.5 -21.5q0 -8 -2.5 -17.5t-7.5 -17.5q-40 -73 -132 -73z" />
    <glyph glyph-name="tilde" unicode="&#x2dc;" horiz-adv-x="500" 
d="M139 600q-3 -6 -8.5 -11.5t-14.5 -5.5q-11 0 -18.5 7t-7.5 17q0 3 1 8t2 8q15 44 35.5 62.5t52.5 18.5q17 0 35 -6.5t36 -14t34 -13.5t29 -6q17 0 27 8t19 27q3 6 9 11.5t14 5.5q11 0 18.5 -7t7.5 -17q0 -3 -1 -7.5t-2 -8.5q-15 -44 -35.5 -62.5t-52.5 -18.5q-17 0 -35 6
t-36 13.5t-34 14t-29 6.5q-17 0 -27 -8t-19 -27z" />
    <glyph glyph-name="macron" unicode="&#xaf;" horiz-adv-x="500" 
d="M118 615q-14 0 -23 9.5t-9 22.5t9 22.5t23 9.5h264q14 0 23 -9.5t9 -22.5t-9 -22.5t-23 -9.5h-264z" />
    <glyph glyph-name="dieresis" unicode="&#xa8;" horiz-adv-x="500" 
d="M339 695q20 0 33.5 -12.5t13.5 -32.5v-15q0 -20 -13.5 -32.5t-33.5 -12.5t-33.5 12.5t-13.5 32.5v15q0 20 13.5 32.5t33.5 12.5zM161 695q20 0 33.5 -12.5t13.5 -32.5v-15q0 -20 -13.5 -32.5t-33.5 -12.5t-33.5 12.5t-13.5 32.5v15q0 20 13.5 32.5t33.5 12.5z" />
    <glyph glyph-name="dotaccent" unicode="&#x2d9;" horiz-adv-x="500" 
d="M298 636q0 -20 -14 -33t-34 -13t-34 13t-14 33v14q0 20 14 32.5t34 12.5t34 -12.5t14 -32.5v-14z" />
    <glyph glyph-name="ring" unicode="&#x2da;" horiz-adv-x="500" 
d="M250 593q-21 0 -39.5 8t-33 21.5t-23 31.5t-8.5 38v2q0 20 8.5 38t23 31.5t33 21.5t39.5 8t39.5 -8t33 -21.5t23 -31.5t8.5 -38v-2q0 -20 -8.5 -38t-23 -31.5t-33 -21.5t-39.5 -8zM250 631q25 0 43.5 18t18.5 43v2q0 25 -18 43t-44 18t-44 -18t-18 -43v-2q0 -25 18.5 -43
t43.5 -18z" />
    <glyph glyph-name="asciicircum" unicode="^" horiz-adv-x="500" 
d="M148 514q-12 -15 -23.5 -20t-26.5 -5q-8 0 -13.5 4.5t-5.5 9.5q0 9 7 19l119 159q9 11 18 18t23 7h8q14 0 23 -7t18 -18l118 -159q8 -9 8 -19q0 -5 -5.5 -9.5t-14.5 -4.5q-17 0 -28 5t-23 20l-101 133z" />
    <glyph glyph-name="asciitilde" unicode="~" horiz-adv-x="474" 
d="M126 251q-3 -6 -8.5 -11t-15.5 -5t-17.5 6.5t-7.5 16.5q0 3 0.5 8t2.5 8q15 44 35.5 63t52.5 19q16 0 34.5 -6.5t36 -14t34 -14t29.5 -6.5q17 0 26.5 8.5t18.5 27.5q4 6 10 11t14 5q11 0 18 -6.5t7 -16.5q0 -8 -2 -16q-15 -44 -35.5 -63t-52.5 -19q-17 0 -35 6.5t-36 14
t-34 14t-29 6.5q-17 0 -27 -8.5t-19 -27.5z" />
    <glyph glyph-name="commaaccent" unicode="&#x326;" horiz-adv-x="500" 
d="M244 -154q-17 3 -28.5 13t-11.5 28v5q0 18 13 30.5t33 12.5t33.5 -14t13.5 -38v-5q0 -33 -7.5 -54t-24.5 -36q-14 -14 -36 -22t-36 -8q-9 0 -14 4.5t-5 9.5q0 13 17 17q29 8 41.5 21t11.5 36z" />
    <glyph glyph-name="cedilla" unicode="&#xb8;" horiz-adv-x="500" 
d="M238 -126q-5 -11 -11.5 -17t-19.5 -6q-7 0 -15.5 3t-15.5 7.5t-12 10t-5 11.5q0 7 6 18l75 109h61z" />
    <glyph glyph-name="ogonek" unicode="&#x2db;" horiz-adv-x="500" 
d="M190 -84q0 28 17 51t48 49l53 -13q-27 -23 -39.5 -39.5t-12.5 -36.5t13.5 -29.5t36.5 -14.5q29 -6 29 -24q0 -23 -28 -23q-14 0 -33.5 3t-38.5 12t-32 24.5t-13 40.5z" />
    <glyph glyph-name="fraction" unicode="&#x2044;" horiz-adv-x="429" 
d="M-48 -71q0 11 5 19l434 795q12 20 31 20q14 0 23.5 -9t9.5 -23q0 -11 -5 -19l-435 -795q-10 -20 -30 -20q-14 0 -23.5 9t-9.5 23z" />
    <glyph glyph-name="perthousand" unicode="&#x2030;" horiz-adv-x="1211" 
d="M210 350q-36 0 -65 14.5t-49.5 39t-32 56.5t-11.5 67v2q0 36 11.5 68t32.5 57t50.5 39.5t65.5 14.5q35 0 64 -14.5t49.5 -39t32 -56.5t11.5 -67v-2q0 -36 -11.5 -68t-32.5 -57t-50 -39.5t-65 -14.5zM149 23q0 10 6 19l476 649q10 14 25 14q12 0 20.5 -8.5t8.5 -19.5
q0 -10 -6 -19l-476 -649q-5 -6 -11 -10t-14 -4q-12 0 -20.5 8.5t-8.5 19.5zM999 -8q-35 0 -64 14.5t-49.5 39t-32 56.5t-11.5 67v2q0 36 11.5 68t32.5 57t50 39.5t65 14.5t65 -14.5t49.5 -39t32 -56.5t11.5 -67v-2q0 -36 -11.5 -68t-32.5 -57t-50.5 -39.5t-65.5 -14.5z
M622 -8q-35 0 -64 14.5t-49.5 39t-32 56.5t-11.5 67v2q0 36 11.5 68t32.5 57t50 39.5t65 14.5t65 -14.5t49.5 -39t31.5 -56.5t11 -67v-2q0 -36 -11.5 -68t-32 -57t-50 -39.5t-65.5 -14.5zM212 406q20 0 37 9.5t29 26t18.5 38.5t6.5 47v2q0 26 -7.5 48.5t-20 39t-29.5 26
t-36 9.5q-21 0 -37.5 -9.5t-28.5 -26t-18.5 -38.5t-6.5 -47v-2q0 -26 7 -48.5t20 -39t29.5 -26t36.5 -9.5zM1001 48q21 0 37.5 9.5t28.5 26t18.5 38.5t6.5 47v2q0 26 -7 48.5t-20 39t-30 26t-36 9.5q-20 0 -37 -9.5t-29 -26t-18.5 -38.5t-6.5 -47v-2q0 -26 7.5 -48.5t20 -39
t29.5 -26t36 -9.5zM624 48q21 0 37.5 9.5t28.5 26t18.5 38.5t6.5 47v2q0 26 -7 48.5t-20 39t-30 26t-36 9.5q-20 0 -37 -9.5t-29 -26t-18.5 -38.5t-6.5 -47v-2q0 -26 7 -48.5t20 -39t29.5 -26t36.5 -9.5z" />
    <glyph glyph-name="Itilde" unicode="&#x128;" horiz-adv-x="291" 
d="M106 665q0 17 11.5 28.5t27.5 11.5q17 0 28.5 -11.5t11.5 -28.5v-630q0 -17 -11.5 -28.5t-28.5 -11.5q-16 0 -27.5 11.5t-11.5 28.5v630zM36 783q-3 -6 -8.5 -11.5t-14.5 -5.5q-11 0 -18.5 7t-7.5 17q0 3 1 8t2 8q15 44 35.5 62.5t52.5 18.5q17 0 35 -6.5t36 -14
t34 -13.5t29 -6q17 0 27 8t19 27q3 6 9 11.5t14 5.5q11 0 18.5 -7t7.5 -17q0 -3 -1 -7.5t-2 -8.5q-15 -44 -35.5 -62.5t-52.5 -18.5q-17 0 -35 6t-36 13.5t-34 14t-29 6.5q-17 0 -27 -8t-19 -27z" />
    <glyph glyph-name="itilde" unicode="&#x129;" horiz-adv-x="263" 
d="M93 483q0 16 11 27.5t27 11.5q17 0 28 -11t11 -28v-449q0 -17 -10.5 -28t-27.5 -11t-28 11t-11 28v449zM22 600q-3 -6 -8.5 -11.5t-14.5 -5.5q-11 0 -18.5 7t-7.5 17q0 3 1 8t2 8q15 44 35.5 62.5t52.5 18.5q17 0 35 -6.5t36 -14t34 -13.5t29 -6q17 0 27 8t19 27
q3 6 9 11.5t14 5.5q11 0 18.5 -7t7.5 -17q0 -3 -1 -7.5t-2 -8.5q-15 -44 -35.5 -62.5t-52.5 -18.5q-17 0 -35 6t-36 13.5t-34 14t-29 6.5q-17 0 -27 -8t-19 -27z" />
    <glyph glyph-name="Utilde" unicode="&#x168;" horiz-adv-x="759" 
d="M379 -11q-65 0 -118.5 19.5t-92 58t-59.5 95.5t-21 131v372q0 17 11.5 28.5t27.5 11.5q17 0 28.5 -11.5t11.5 -28.5v-367q0 -114 57 -175t157 -61q97 0 154 58t57 173v372q0 17 11.5 28.5t28.5 11.5q16 0 27.5 -11.5t11.5 -28.5v-366q0 -77 -21 -135t-59.5 -97t-92 -58.5
t-119.5 -19.5zM268 783q-3 -6 -8.5 -11.5t-14.5 -5.5q-11 0 -18.5 7t-7.5 17q0 3 1 8t2 8q15 44 35.5 62.5t52.5 18.5q17 0 35 -6.5t36 -14t34 -13.5t29 -6q17 0 27 8t19 27q3 6 9 11.5t14 5.5q11 0 18.5 -7t7.5 -17q0 -3 -1 -7.5t-2 -8.5q-15 -44 -35.5 -62.5t-52.5 -18.5
q-17 0 -35 6t-36 13.5t-34 14t-29 6.5q-17 0 -27 -8t-19 -27z" />
    <glyph glyph-name="utilde" unicode="&#x169;" horiz-adv-x="616" 
d="M529 34q0 -16 -10.5 -27.5t-27.5 -11.5q-16 0 -27 11t-11 28v56q-26 -42 -68 -71.5t-109 -29.5q-47 0 -83.5 15t-62 42.5t-39 65.5t-13.5 84v287q0 17 10.5 28t27.5 11q16 0 27.5 -11t11.5 -28v-268q0 -72 37 -114t106 -42q33 0 61.5 11.5t49 33t32.5 51.5t12 66v262
q0 17 10.5 28t27.5 11q16 0 27 -11t11 -28v-449zM197 600q-3 -6 -8.5 -11.5t-14.5 -5.5q-11 0 -18.5 7t-7.5 17q0 3 1 8t2 8q15 44 35.5 62.5t52.5 18.5q17 0 35 -6.5t36 -14t34 -13.5t29 -6q17 0 27 8t19 27q3 6 9 11.5t14 5.5q11 0 18.5 -7t7.5 -17q0 -3 -1 -7.5t-2 -8.5
q-15 -44 -35.5 -62.5t-52.5 -18.5q-17 0 -35 6t-36 13.5t-34 14t-29 6.5q-17 0 -27 -8t-19 -27z" />
    <glyph glyph-name="Ohorn" unicode="&#x1a0;" horiz-adv-x="850" 
d="M672 617q53 -51 81.5 -119t28.5 -146v-2q0 -72 -26 -138t-73 -115.5t-113 -79t-146 -29.5t-145.5 29t-112.5 78.5t-72.5 115t-25.5 137.5v2q0 72 26 138t73 115.5t113 79t146 29.5q65 0 119.5 -18.5t98.5 -52.5q20 15 19 43q-17 3 -28.5 13t-11.5 28v5q0 18 13 30.5
t33 12.5t33.5 -14t13.5 -38v-5q0 -33 -7.5 -54t-24.5 -36q-5 -5 -12 -9zM700 350q0 60 -20.5 112.5t-57.5 91.5t-87.5 62t-110.5 23t-110.5 -22.5t-86.5 -61.5t-56.5 -91t-20.5 -112v-2q0 -60 20.5 -112.5t57.5 -91.5t87.5 -62t110.5 -23t110.5 22.5t86.5 61.5t56.5 91
t20.5 112v2z" />
    <glyph glyph-name="ohorn" unicode="&#x1a1;" horiz-adv-x="646" 
d="M503 462q42 -37 66 -89.5t24 -112.5v-2q0 -55 -20.5 -104t-56.5 -86t-86 -58.5t-108 -21.5t-107 21.5t-85 58t-56 85t-20 103.5v2q0 55 20 104t56 86t85.5 58.5t108.5 21.5q85 0 148 -43q15 14 14 39q-17 3 -28.5 13t-11.5 28v5q0 18 13 30.5t33 12.5t33.5 -14t13.5 -38
v-5q0 -33 -7.5 -54t-24.5 -36q-1 -2 -2 -2.5t-2 -1.5zM514 258q0 42 -14.5 78.5t-40.5 64t-61 43.5t-76 16q-42 0 -77 -16t-59.5 -43t-38.5 -63.5t-14 -77.5v-2q0 -42 14.5 -78.5t40 -63.5t60.5 -43t76 -16q42 0 77 16t60 43t39 63t14 77v2z" />
    <glyph glyph-name="Uhorn" unicode="&#x1af;" horiz-adv-x="759" 
d="M701 802q20 0 33.5 -14t13.5 -38v-5q0 -33 -7.5 -54t-24.5 -36q-9 -9 -21 -15.5t-24 -10.5v-330q0 -77 -21 -135t-59.5 -97t-92 -58.5t-119.5 -19.5q-65 0 -118.5 19.5t-92 58t-59.5 95.5t-21 131v372q0 17 11.5 28.5t27.5 11.5q17 0 28.5 -11.5t11.5 -28.5v-367
q0 -114 57 -175t157 -61q97 0 154 58t57 173v372q0 17 11.5 28.5t28.5 11.5q15 0 26.5 -11t12.5 -27q24 14 24 46q-17 3 -28.5 13t-11.5 28v5q0 18 13 30.5t33 12.5z" />
    <glyph glyph-name="uhorn" unicode="&#x1b0;" horiz-adv-x="616" 
d="M558 619q20 0 33.5 -14t13.5 -38v-5q0 -33 -7.5 -54t-24.5 -36q-19 -17 -44 -25v-413q0 -16 -10.5 -27.5t-27.5 -11.5q-16 0 -27 11t-11 28v56q-26 -42 -68 -71.5t-109 -29.5q-47 0 -83.5 15t-62 42.5t-39 65.5t-13.5 84v287q0 17 10.5 28t27.5 11q16 0 27.5 -11
t11.5 -28v-268q0 -72 37 -114t106 -42q33 0 61.5 11.5t49 33t32.5 51.5t12 66v262q0 17 10.5 28t27.5 11q15 0 26 -10.5t12 -26.5q23 14 23 45q-17 3 -28.5 13t-11.5 28v5q0 18 13 30.5t33 12.5z" />
    <glyph glyph-name="uni1EA0" unicode="&#x1ea0;" horiz-adv-x="784" 
d="M345 -77q0 20 13 33.5t33 13.5t33 -13.5t13 -33.5v-20q0 -20 -13 -34t-33 -14t-33 14t-13 34v20zM51 31q0 11 5 21l284 621q8 17 19.5 26t30.5 9h4q35 0 49 -35l284 -620q5 -12 5 -20q0 -16 -11 -27t-27 -11q-14 0 -24 8.5t-15 20.5l-73 161h-384l-73 -163
q-11 -27 -38 -27q-15 0 -25.5 10.5t-10.5 25.5zM551 257l-161 358l-161 -358h322z" />
    <glyph glyph-name="uni1EA1" unicode="&#x1ea1;" 
d="M230 -88q0 20 13 33.5t33 13.5t33 -13.5t13 -33.5v-20q0 -20 -13 -34t-33 -14t-33 14t-13 34v20zM240 -11q-36 0 -70.5 10t-62 30.5t-44 50.5t-16.5 70v2q0 41 16 72t45.5 52t70 32t89.5 11q50 0 87 -6t72 -16v18q0 70 -40.5 105.5t-113.5 35.5q-39 0 -72 -8t-62 -21
q-8 -3 -14 -3q-14 0 -24 9.5t-10 23.5q0 12 6.5 20.5t14.5 11.5q38 17 78.5 26t90.5 9q110 0 167 -57q53 -53 53 -151v-283q0 -17 -10.5 -27.5t-26.5 -10.5q-17 0 -27 10.5t-10 25.5v47q-27 -35 -72.5 -62t-114.5 -27zM255 50q36 0 67.5 10.5t55 29t37 44t13.5 56.5v50
q-29 8 -66.5 15t-85.5 7q-73 0 -112 -29t-39 -78v-2q0 -24 10.5 -43.5t28.5 -32.5t41.5 -20t49.5 -7z" />
    <glyph glyph-name="uni1EA2" unicode="&#x1ea2;" horiz-adv-x="784" 
d="M410 763q0 -4 -5 -9q-4 -2 -10 -4q-5 -2 -11 0q-6 1 -9 6v1q0 1 -0.5 2t-0.5 3v14v16q0 5 0.5 8.5t0.5 7.5q0 11 11 22q1 1 5 3q2 1 8 5l15 6q34 14 35 27q2 13 -6 19q-4 3 -7.5 5.5t-7.5 4.5t-7.5 3t-8.5 2q-7 0 -11 -1q-5 0 -11 -3q-3 -2 -5.5 -3.5t-5.5 -3.5t-6 -3.5
t-6 -3.5q-16 -9 -23 1q-12 15 2 29q16 15 35 21q21 7 35 4q29 -3 48 -19q27 -23 24 -55q-5 -44 -57 -60q-4 -2 -7.5 -2.5t-5.5 -1.5q-4 -1 -4 -2zM51 31q0 -15 10.5 -25.5t25.5 -10.5q27 0 38 27l73 163h384l73 -161q5 -12 15 -20.5t24 -8.5q16 0 27 11t11 27q0 8 -5 20
l-284 620q-14 35 -49 35h-4q-19 0 -30.5 -9t-19.5 -26l-284 -621q-5 -10 -5 -21zM229 257l161 358l161 -358h-322z" />
    <glyph glyph-name="uni1EA3" unicode="&#x1ea3;" 
d="M291 583q0 -4 -5 -9q-4 -2 -10 -4q-5 -2 -11 0q-6 1 -9 6v1q0 1 -0.5 2t-0.5 3v14v16q0 5 0.5 8.5t0.5 7.5q0 11 11 22q1 1 5 3q2 1 8 5l15 6q34 14 35 27q2 13 -6 19q-4 3 -7.5 5.5t-7.5 4.5t-7.5 3t-8.5 2q-7 0 -11 -1q-5 0 -11 -3q-3 -2 -5.5 -3.5t-5.5 -3.5t-6 -3.5
t-6 -3.5q-16 -9 -23 1q-12 15 2 29q16 15 35 21q21 7 35 4q29 -3 48 -19q27 -23 24 -55q-5 -44 -57 -60q-4 -2 -7.5 -2.5t-5.5 -1.5q-4 -1 -4 -2zM240 -11q69 0 114.5 27t72.5 62v-47q0 -15 10 -25.5t27 -10.5q16 0 26.5 10.5t10.5 27.5v283q0 98 -53 151q-57 57 -167 57
q-50 0 -90.5 -9t-78.5 -26q-8 -3 -14.5 -11.5t-6.5 -20.5q0 -14 10 -23.5t24 -9.5q6 0 14 3q29 13 62 21t72 8q73 0 113.5 -35.5t40.5 -105.5v-18q-35 10 -72 16t-87 6q-49 0 -89.5 -11t-70 -32t-45.5 -52t-16 -72v-2q0 -40 16.5 -70t44 -50.5t62 -30.5t70.5 -10zM255 50
q-26 0 -49.5 7t-41.5 20t-28.5 32.5t-10.5 43.5v2q0 49 39 78t112 29q48 0 85.5 -7t66.5 -15v-50q0 -31 -13.5 -56.5t-37 -44t-55 -29t-67.5 -10.5z" />
    <glyph glyph-name="uni1EA4" unicode="&#x1ea4;" horiz-adv-x="784" 
d="M51 31q0 11 5 21l284 621q8 17 19.5 26t30.5 9h4q35 0 49 -35l284 -620q5 -12 5 -20q0 -16 -11 -27t-27 -11q-14 0 -24 8.5t-15 20.5l-73 161h-384l-73 -163q-11 -27 -38 -27q-15 0 -25.5 10.5t-10.5 25.5zM551 257l-161 358l-161 -358h322zM331 787q-13 -12 -23.5 -15.5
t-24.5 -3.5q-18 0 -18 14q0 5 7 17l70 86q8 10 17 16t23 6h18q14 0 23 -6t17 -16l70 -86q7 -12 7 -17q0 -14 -19 -14q-14 0 -25 3.5t-24 15.5l-59 52zM468 900q-19 0 -19 14q0 8 5 15l60 91q15 23 36 23q18 0 36 -9.5t18 -20.5q0 -6 -4 -11.5t-10 -11.5l-75 -71
q-12 -12 -22.5 -15.5t-24.5 -3.5z" />
    <glyph glyph-name="uni1EA5" unicode="&#x1ea5;" 
d="M240 -11q-36 0 -70.5 10t-62 30.5t-44 50.5t-16.5 70v2q0 41 16 72t45.5 52t70 32t89.5 11q50 0 87 -6t72 -16v18q0 70 -40.5 105.5t-113.5 35.5q-39 0 -72 -8t-62 -21q-8 -3 -14 -3q-14 0 -24 9.5t-10 23.5q0 12 6.5 20.5t14.5 11.5q38 17 78.5 26t90.5 9q110 0 167 -57
q53 -53 53 -151v-283q0 -17 -10.5 -27.5t-26.5 -10.5q-17 0 -27 10.5t-10 25.5v47q-27 -35 -72.5 -62t-114.5 -27zM255 50q36 0 67.5 10.5t55 29t37 44t13.5 56.5v50q-29 8 -66.5 15t-85.5 7q-73 0 -112 -29t-39 -78v-2q0 -24 10.5 -43.5t28.5 -32.5t41.5 -20t49.5 -7z
M229 610q-13 -12 -23.5 -15.5t-24.5 -3.5q-18 0 -18 14q0 5 7 17l70 86q8 10 17 16t23 6h18q14 0 23 -6t17 -16l70 -86q7 -12 7 -17q0 -14 -19 -14q-14 0 -25 3.5t-24 15.5l-59 52zM368 719q-19 0 -19 14q0 8 5 15l60 91q15 23 36 23q18 0 36 -9.5t18 -20.5q0 -6 -4 -11.5
t-10 -11.5l-75 -71q-12 -12 -22.5 -15.5t-24.5 -3.5z" />
    <glyph glyph-name="uni1EA6" unicode="&#x1ea6;" horiz-adv-x="784" 
d="M51 31q0 11 5 21l284 621q8 17 19.5 26t30.5 9h4q35 0 49 -35l284 -620q5 -12 5 -20q0 -16 -11 -27t-27 -11q-14 0 -24 8.5t-15 20.5l-73 161h-384l-73 -163q-11 -27 -38 -27q-15 0 -25.5 10.5t-10.5 25.5zM551 257l-161 358l-161 -358h322zM331 787q-13 -12 -23.5 -15.5
t-24.5 -3.5q-18 0 -18 14q0 5 7 17l70 86q8 10 17 16t23 6h18q14 0 23 -6t17 -16l70 -86q7 -12 7 -17q0 -14 -19 -14q-14 0 -25 3.5t-24 15.5l-59 52zM512 883q-14 0 -24.5 3.5t-22.5 15.5l-75 71q-6 6 -10 11.5t-4 11.5q0 11 18 20.5t36 9.5q21 0 36 -23l60 -91q5 -7 5 -15
q0 -14 -19 -14z" />
    <glyph glyph-name="uni1EA7" unicode="&#x1ea7;" 
d="M240 -11q-36 0 -70.5 10t-62 30.5t-44 50.5t-16.5 70v2q0 41 16 72t45.5 52t70 32t89.5 11q50 0 87 -6t72 -16v18q0 70 -40.5 105.5t-113.5 35.5q-39 0 -72 -8t-62 -21q-8 -3 -14 -3q-14 0 -24 9.5t-10 23.5q0 12 6.5 20.5t14.5 11.5q38 17 78.5 26t90.5 9q110 0 167 -57
q53 -53 53 -151v-283q0 -17 -10.5 -27.5t-26.5 -10.5q-17 0 -27 10.5t-10 25.5v47q-27 -35 -72.5 -62t-114.5 -27zM255 50q36 0 67.5 10.5t55 29t37 44t13.5 56.5v50q-29 8 -66.5 15t-85.5 7q-73 0 -112 -29t-39 -78v-2q0 -24 10.5 -43.5t28.5 -32.5t41.5 -20t49.5 -7z
M229 610q-13 -12 -23.5 -15.5t-24.5 -3.5q-18 0 -18 14q0 5 7 17l70 86q8 10 17 16t23 6h18q14 0 23 -6t17 -16l70 -86q7 -12 7 -17q0 -14 -19 -14q-14 0 -25 3.5t-24 15.5l-59 52zM406 702q-14 0 -24.5 3.5t-22.5 15.5l-75 71q-6 6 -10 11.5t-4 11.5q0 11 18 20.5t36 9.5
q21 0 36 -23l60 -91q5 -7 5 -15q0 -14 -19 -14z" />
    <glyph glyph-name="uni1EA8" unicode="&#x1ea8;" horiz-adv-x="784" 
d="M503 900q0 -4 -5 -9q-4 -2 -10 -4q-5 -2 -11 0q-6 1 -9 6v1q0 1 -0.5 2t-0.5 3v14v16q0 5 0.5 8.5t0.5 7.5q0 11 11 22q1 1 5 3q2 1 8 5l15 6q34 14 35 27q2 13 -6 19q-4 3 -7.5 5.5t-7.5 4.5t-7.5 3t-8.5 2q-7 0 -11 -1q-5 0 -11 -3q-3 -2 -5.5 -3.5t-5.5 -3.5t-6 -3.5
t-6 -3.5q-16 -9 -23 1q-12 15 2 29q16 15 35 21q21 7 35 4q29 -3 48 -19q27 -23 24 -55q-5 -44 -57 -60q-4 -2 -7.5 -2.5t-5.5 -1.5q-4 -1 -4 -2zM51 31q0 -15 10.5 -25.5t25.5 -10.5q27 0 38 27l73 163h384l73 -161q5 -12 15 -20.5t24 -8.5q16 0 27 11t11 27q0 8 -5 20
l-284 620q-14 35 -49 35h-4q-19 0 -30.5 -9t-19.5 -26l-284 -621q-5 -10 -5 -21zM229 257l161 358l161 -358h-322zM390 839l59 -52q13 -12 24 -15.5t25 -3.5q19 0 19 14q0 5 -7 17l-70 86q-8 10 -17 16t-23 6h-18q-14 0 -23 -6t-17 -16l-70 -86q-7 -12 -7 -17q0 -14 18 -14
q14 0 24.5 3.5t23.5 15.5z" />
    <glyph glyph-name="uni1EA9" unicode="&#x1ea9;" 
d="M399 733q0 -4 -5 -9q-4 -2 -10 -4q-5 -2 -11 0q-6 1 -9 6v1q0 1 -0.5 2t-0.5 3v14v16q0 5 0.5 8.5t0.5 7.5q0 11 11 22q1 1 5 3q2 1 8 5l15 6q34 14 35 27q2 13 -6 19q-4 3 -7.5 5.5t-7.5 4.5t-7.5 3t-8.5 2q-7 0 -11 -1q-5 0 -11 -3q-3 -2 -5.5 -3.5t-5.5 -3.5t-6 -3.5
t-6 -3.5q-16 -9 -23 1q-12 15 2 29q16 15 35 21q21 7 35 4q29 -3 48 -19q27 -23 24 -55q-5 -44 -57 -60q-4 -2 -7.5 -2.5t-5.5 -1.5q-4 -1 -4 -2zM240 -11q69 0 114.5 27t72.5 62v-47q0 -15 10 -25.5t27 -10.5q16 0 26.5 10.5t10.5 27.5v283q0 98 -53 151q-57 57 -167 57
q-50 0 -90.5 -9t-78.5 -26q-8 -3 -14.5 -11.5t-6.5 -20.5q0 -14 10 -23.5t24 -9.5q6 0 14 3q29 13 62 21t72 8q73 0 113.5 -35.5t40.5 -105.5v-18q-35 10 -72 16t-87 6q-49 0 -89.5 -11t-70 -32t-45.5 -52t-16 -72v-2q0 -40 16.5 -70t44 -50.5t62 -30.5t70.5 -10zM255 50
q-26 0 -49.5 7t-41.5 20t-28.5 32.5t-10.5 43.5v2q0 49 39 78t112 29q48 0 85.5 -7t66.5 -15v-50q0 -31 -13.5 -56.5t-37 -44t-55 -29t-67.5 -10.5zM288 662l59 -52q13 -12 24 -15.5t25 -3.5q19 0 19 14q0 5 -7 17l-70 86q-8 10 -17 16t-23 6h-18q-14 0 -23 -6t-17 -16
l-70 -86q-7 -12 -7 -17q0 -14 18 -14q14 0 24.5 3.5t23.5 15.5z" />
    <glyph glyph-name="uni1EAA" unicode="&#x1eaa;" horiz-adv-x="784" 
d="M51 31q0 11 5 21l284 621q8 17 19.5 26t30.5 9h4q35 0 49 -35l284 -620q5 -12 5 -20q0 -16 -11 -27t-27 -11q-14 0 -24 8.5t-15 20.5l-73 161h-384l-73 -163q-11 -27 -38 -27q-15 0 -25.5 10.5t-10.5 25.5zM551 257l-161 358l-161 -358h322zM331 787q-13 -12 -23.5 -15.5
t-24.5 -3.5q-18 0 -18 14q0 5 7 17l70 86q8 10 17 16t23 6h18q14 0 23 -6t17 -16l70 -86q7 -12 7 -17q0 -14 -19 -14q-14 0 -25 3.5t-24 15.5l-59 52zM281 933q-3 -6 -8.5 -11.5t-14.5 -5.5q-11 0 -18.5 7t-7.5 17q0 3 1 8t2 8q15 44 35.5 62.5t52.5 18.5q17 0 35 -6.5
t36 -14t34 -13.5t29 -6q17 0 27 8t19 27q3 6 9 11.5t14 5.5q11 0 18.5 -7t7.5 -17q0 -3 -1 -7.5t-2 -8.5q-15 -44 -35.5 -62.5t-52.5 -18.5q-17 0 -35 6t-36 13.5t-34 14t-29 6.5q-17 0 -27 -8t-19 -27z" />
    <glyph glyph-name="uni1EAB" unicode="&#x1eab;" 
d="M240 -11q-36 0 -70.5 10t-62 30.5t-44 50.5t-16.5 70v2q0 41 16 72t45.5 52t70 32t89.5 11q50 0 87 -6t72 -16v18q0 70 -40.5 105.5t-113.5 35.5q-39 0 -72 -8t-62 -21q-8 -3 -14 -3q-14 0 -24 9.5t-10 23.5q0 12 6.5 20.5t14.5 11.5q38 17 78.5 26t90.5 9q110 0 167 -57
q53 -53 53 -151v-283q0 -17 -10.5 -27.5t-26.5 -10.5q-17 0 -27 10.5t-10 25.5v47q-27 -35 -72.5 -62t-114.5 -27zM255 50q36 0 67.5 10.5t55 29t37 44t13.5 56.5v50q-29 8 -66.5 15t-85.5 7q-73 0 -112 -29t-39 -78v-2q0 -24 10.5 -43.5t28.5 -32.5t41.5 -20t49.5 -7z
M229 610q-13 -12 -23.5 -15.5t-24.5 -3.5q-18 0 -18 14q0 5 7 17l70 86q8 10 17 16t23 6h18q14 0 23 -6t17 -16l70 -86q7 -12 7 -17q0 -14 -19 -14q-14 0 -25 3.5t-24 15.5l-59 52zM178 758q-3 -6 -8.5 -11.5t-14.5 -5.5q-11 0 -18.5 7t-7.5 17q0 3 1 8t2 8q15 44 35.5 62.5
t52.5 18.5q17 0 35 -6.5t36 -14t34 -13.5t29 -6q17 0 27 8t19 27q3 6 9 11.5t14 5.5q11 0 18.5 -7t7.5 -17q0 -3 -1 -7.5t-2 -8.5q-15 -44 -35.5 -62.5t-52.5 -18.5q-17 0 -35 6t-36 13.5t-34 14t-29 6.5q-17 0 -27 -8t-19 -27z" />
    <glyph glyph-name="uni1EAC.001" horiz-adv-x="784" 
d="M332 793q-13 -12 -23.5 -15.5t-24.5 -3.5q-18 0 -18 14q0 5 7 17l70 86q8 10 17 16t23 6h18q14 0 23 -6t17 -16l70 -86q7 -12 7 -17q0 -14 -19 -14q-14 0 -25 3.5t-24 15.5l-59 52z" />
    <glyph glyph-name="uni1EAC" unicode="&#x1eac;" horiz-adv-x="784" 
d="M345 -77q0 20 13 33.5t33 13.5t33 -13.5t13 -33.5v-20q0 -20 -13 -34t-33 -14t-33 14t-13 34v20zM51 31q0 11 5 21l284 621q8 17 19.5 26t30.5 9h4q35 0 49 -35l284 -620q5 -12 5 -20q0 -16 -11 -27t-27 -11q-14 0 -24 8.5t-15 20.5l-73 161h-384l-73 -163
q-11 -27 -38 -27q-15 0 -25.5 10.5t-10.5 25.5zM551 257l-161 358l-161 -358h322zM331 787q-13 -12 -23.5 -15.5t-24.5 -3.5q-18 0 -18 14q0 5 7 17l70 86q8 10 17 16t23 6h18q14 0 23 -6t17 -16l70 -86q7 -12 7 -17q0 -14 -19 -14q-14 0 -25 3.5t-24 15.5l-59 52z" />
    <glyph glyph-name="uni1EAD.001" 
d="M229 610q-13 -12 -23.5 -15.5t-24.5 -3.5q-18 0 -18 14q0 5 7 17l70 86q8 10 17 16t23 6h18q14 0 23 -6t17 -16l70 -86q7 -12 7 -17q0 -14 -19 -14q-14 0 -25 3.5t-24 15.5l-59 52z" />
    <glyph glyph-name="uni1EAD" unicode="&#x1ead;" 
d="M230 -88q0 20 13 33.5t33 13.5t33 -13.5t13 -33.5v-20q0 -20 -13 -34t-33 -14t-33 14t-13 34v20zM240 -11q-36 0 -70.5 10t-62 30.5t-44 50.5t-16.5 70v2q0 41 16 72t45.5 52t70 32t89.5 11q50 0 87 -6t72 -16v18q0 70 -40.5 105.5t-113.5 35.5q-39 0 -72 -8t-62 -21
q-8 -3 -14 -3q-14 0 -24 9.5t-10 23.5q0 12 6.5 20.5t14.5 11.5q38 17 78.5 26t90.5 9q110 0 167 -57q53 -53 53 -151v-283q0 -17 -10.5 -27.5t-26.5 -10.5q-17 0 -27 10.5t-10 25.5v47q-27 -35 -72.5 -62t-114.5 -27zM255 50q36 0 67.5 10.5t55 29t37 44t13.5 56.5v50
q-29 8 -66.5 15t-85.5 7q-73 0 -112 -29t-39 -78v-2q0 -24 10.5 -43.5t28.5 -32.5t41.5 -20t49.5 -7zM229 610q-13 -12 -23.5 -15.5t-24.5 -3.5q-18 0 -18 14q0 5 7 17l70 86q8 10 17 16t23 6h18q14 0 23 -6t17 -16l70 -86q7 -12 7 -17q0 -14 -19 -14q-14 0 -25 3.5
t-24 15.5l-59 52z" />
    <glyph glyph-name="uni1EAE" unicode="&#x1eae;" horiz-adv-x="784" 
d="M51 31q0 11 5 21l284 621q8 17 19.5 26t30.5 9h4q35 0 49 -35l284 -620q5 -12 5 -20q0 -16 -11 -27t-27 -11q-14 0 -24 8.5t-15 20.5l-73 161h-384l-73 -163q-11 -27 -38 -27q-15 0 -25.5 10.5t-10.5 25.5zM551 257l-161 358l-161 -358h322zM391 770q-92 0 -132 73
q-5 8 -7.5 17.5t-2.5 17.5q0 13 7.5 21.5t20.5 8.5q11 0 17 -5.5t11 -13.5q10 -24 30.5 -39.5t55.5 -15.5t55.5 15.5t30.5 39.5q5 8 11 13.5t17 5.5q13 0 20.5 -8.5t7.5 -21.5q0 -8 -2.5 -17.5t-7.5 -17.5q-40 -73 -132 -73zM368 906q-19 0 -19 14q0 8 5 15l60 91
q15 23 36 23q18 0 36 -9.5t18 -20.5q0 -6 -4 -11.5t-10 -11.5l-75 -71q-12 -12 -22.5 -15.5t-24.5 -3.5z" />
    <glyph glyph-name="uni1EAF" unicode="&#x1eaf;" 
d="M240 -11q-36 0 -70.5 10t-62 30.5t-44 50.5t-16.5 70v2q0 41 16 72t45.5 52t70 32t89.5 11q50 0 87 -6t72 -16v18q0 70 -40.5 105.5t-113.5 35.5q-39 0 -72 -8t-62 -21q-8 -3 -14 -3q-14 0 -24 9.5t-10 23.5q0 12 6.5 20.5t14.5 11.5q38 17 78.5 26t90.5 9q110 0 167 -57
q53 -53 53 -151v-283q0 -17 -10.5 -27.5t-26.5 -10.5q-17 0 -27 10.5t-10 25.5v47q-27 -35 -72.5 -62t-114.5 -27zM255 50q36 0 67.5 10.5t55 29t37 44t13.5 56.5v50q-29 8 -66.5 15t-85.5 7q-73 0 -112 -29t-39 -78v-2q0 -24 10.5 -43.5t28.5 -32.5t41.5 -20t49.5 -7z
M289 593q-92 0 -132 73q-5 8 -7.5 17.5t-2.5 17.5q0 13 7.5 21.5t20.5 8.5q11 0 17 -5.5t11 -13.5q10 -24 30.5 -39.5t55.5 -15.5t55.5 15.5t30.5 39.5q5 8 11 13.5t17 5.5q13 0 20.5 -8.5t7.5 -21.5q0 -8 -2.5 -17.5t-7.5 -17.5q-40 -73 -132 -73zM277 730q-19 0 -19 14
q0 8 5 15l60 91q15 23 36 23q18 0 36 -9.5t18 -20.5q0 -6 -4 -11.5t-10 -11.5l-75 -71q-12 -12 -22.5 -15.5t-24.5 -3.5z" />
    <glyph glyph-name="uni1EB0" unicode="&#x1eb0;" horiz-adv-x="784" 
d="M51 31q0 11 5 21l284 621q8 17 19.5 26t30.5 9h4q35 0 49 -35l284 -620q5 -12 5 -20q0 -16 -11 -27t-27 -11q-14 0 -24 8.5t-15 20.5l-73 161h-384l-73 -163q-11 -27 -38 -27q-15 0 -25.5 10.5t-10.5 25.5zM551 257l-161 358l-161 -358h322zM391 770q-92 0 -132 73
q-5 8 -7.5 17.5t-2.5 17.5q0 13 7.5 21.5t20.5 8.5q11 0 17 -5.5t11 -13.5q10 -24 30.5 -39.5t55.5 -15.5t55.5 15.5t30.5 39.5q5 8 11 13.5t17 5.5q13 0 20.5 -8.5t7.5 -21.5q0 -8 -2.5 -17.5t-7.5 -17.5q-40 -73 -132 -73zM403 906q-14 0 -24.5 3.5t-22.5 15.5l-75 71
q-6 6 -10 11.5t-4 11.5q0 11 18 20.5t36 9.5q21 0 36 -23l60 -91q5 -7 5 -15q0 -14 -19 -14z" />
    <glyph glyph-name="uni1EB1" unicode="&#x1eb1;" 
d="M240 -11q-36 0 -70.5 10t-62 30.5t-44 50.5t-16.5 70v2q0 41 16 72t45.5 52t70 32t89.5 11q50 0 87 -6t72 -16v18q0 70 -40.5 105.5t-113.5 35.5q-39 0 -72 -8t-62 -21q-8 -3 -14 -3q-14 0 -24 9.5t-10 23.5q0 12 6.5 20.5t14.5 11.5q38 17 78.5 26t90.5 9q110 0 167 -57
q53 -53 53 -151v-283q0 -17 -10.5 -27.5t-26.5 -10.5q-17 0 -27 10.5t-10 25.5v47q-27 -35 -72.5 -62t-114.5 -27zM255 50q36 0 67.5 10.5t55 29t37 44t13.5 56.5v50q-29 8 -66.5 15t-85.5 7q-73 0 -112 -29t-39 -78v-2q0 -24 10.5 -43.5t28.5 -32.5t41.5 -20t49.5 -7z
M289 593q-92 0 -132 73q-5 8 -7.5 17.5t-2.5 17.5q0 13 7.5 21.5t20.5 8.5q11 0 17 -5.5t11 -13.5q10 -24 30.5 -39.5t55.5 -15.5t55.5 15.5t30.5 39.5q5 8 11 13.5t17 5.5q13 0 20.5 -8.5t7.5 -21.5q0 -8 -2.5 -17.5t-7.5 -17.5q-40 -73 -132 -73zM304 723q-14 0 -24.5 3.5
t-22.5 15.5l-75 71q-6 6 -10 11.5t-4 11.5q0 11 18 20.5t36 9.5q21 0 36 -23l60 -91q5 -7 5 -15q0 -14 -19 -14z" />
    <glyph glyph-name="uni1EB2" unicode="&#x1eb2;" horiz-adv-x="784" 
d="M413 905q0 -4 -5 -9q-4 -2 -10 -4q-5 -2 -11 0q-6 1 -9 6v1q0 1 -0.5 2t-0.5 3v14v16q0 5 0.5 8.5t0.5 7.5q0 11 11 22q1 1 5 3q2 1 8 5l15 6q34 14 35 27q2 13 -6 19q-4 3 -7.5 5.5t-7.5 4.5t-7.5 3t-8.5 2q-7 0 -11 -1q-5 0 -11 -3q-3 -2 -5.5 -3.5t-5.5 -3.5t-6 -3.5
t-6 -3.5q-16 -9 -23 1q-12 15 2 29q16 15 35 21q21 7 35 4q29 -3 48 -19q27 -23 24 -55q-5 -44 -57 -60q-4 -2 -7.5 -2.5t-5.5 -1.5q-4 -1 -4 -2zM51 31q0 -15 10.5 -25.5t25.5 -10.5q27 0 38 27l73 163h384l73 -161q5 -12 15 -20.5t24 -8.5q16 0 27 11t11 27q0 8 -5 20
l-284 620q-14 35 -49 35h-4q-19 0 -30.5 -9t-19.5 -26l-284 -621q-5 -10 -5 -21zM229 257l161 358l161 -358h-322zM391 770q92 0 132 73q5 8 7.5 17.5t2.5 17.5q0 13 -7.5 21.5t-20.5 8.5q-11 0 -17 -5.5t-11 -13.5q-10 -24 -30.5 -39.5t-55.5 -15.5t-55.5 15.5t-30.5 39.5
q-5 8 -11 13.5t-17 5.5q-13 0 -20.5 -8.5t-7.5 -21.5q0 -8 2.5 -17.5t7.5 -17.5q40 -73 132 -73z" />
    <glyph glyph-name="uni1EB3" unicode="&#x1eb3;" 
d="M310 723q0 -4 -5 -9q-4 -2 -10 -4q-5 -2 -11 0q-6 1 -9 6v1q0 1 -0.5 2t-0.5 3v14v16q0 5 0.5 8.5t0.5 7.5q0 11 11 22q1 1 5 3q2 1 8 5l15 6q34 14 35 27q2 13 -6 19q-4 3 -7.5 5.5t-7.5 4.5t-7.5 3t-8.5 2q-7 0 -11 -1q-5 0 -11 -3q-3 -2 -5.5 -3.5t-5.5 -3.5t-6 -3.5
t-6 -3.5q-16 -9 -23 1q-12 15 2 29q16 15 35 21q21 7 35 4q29 -3 48 -19q27 -23 24 -55q-5 -44 -57 -60q-4 -2 -7.5 -2.5t-5.5 -1.5q-4 -1 -4 -2zM240 -11q69 0 114.5 27t72.5 62v-47q0 -15 10 -25.5t27 -10.5q16 0 26.5 10.5t10.5 27.5v283q0 98 -53 151q-57 57 -167 57
q-50 0 -90.5 -9t-78.5 -26q-8 -3 -14.5 -11.5t-6.5 -20.5q0 -14 10 -23.5t24 -9.5q6 0 14 3q29 13 62 21t72 8q73 0 113.5 -35.5t40.5 -105.5v-18q-35 10 -72 16t-87 6q-49 0 -89.5 -11t-70 -32t-45.5 -52t-16 -72v-2q0 -40 16.5 -70t44 -50.5t62 -30.5t70.5 -10zM255 50
q-26 0 -49.5 7t-41.5 20t-28.5 32.5t-10.5 43.5v2q0 49 39 78t112 29q48 0 85.5 -7t66.5 -15v-50q0 -31 -13.5 -56.5t-37 -44t-55 -29t-67.5 -10.5zM289 593q92 0 132 73q5 8 7.5 17.5t2.5 17.5q0 13 -7.5 21.5t-20.5 8.5q-11 0 -17 -5.5t-11 -13.5q-10 -24 -30.5 -39.5
t-55.5 -15.5t-55.5 15.5t-30.5 39.5q-5 8 -11 13.5t-17 5.5q-13 0 -20.5 -8.5t-7.5 -21.5q0 -8 2.5 -17.5t7.5 -17.5q40 -73 132 -73z" />
    <glyph glyph-name="uni1EB4" unicode="&#x1eb4;" horiz-adv-x="784" 
d="M51 31q0 11 5 21l284 621q8 17 19.5 26t30.5 9h4q35 0 49 -35l284 -620q5 -12 5 -20q0 -16 -11 -27t-27 -11q-14 0 -24 8.5t-15 20.5l-73 161h-384l-73 -163q-11 -27 -38 -27q-15 0 -25.5 10.5t-10.5 25.5zM551 257l-161 358l-161 -358h322zM391 770q-92 0 -132 73
q-5 8 -7.5 17.5t-2.5 17.5q0 13 7.5 21.5t20.5 8.5q11 0 17 -5.5t11 -13.5q10 -24 30.5 -39.5t55.5 -15.5t55.5 15.5t30.5 39.5q5 8 11 13.5t17 5.5q13 0 20.5 -8.5t7.5 -21.5q0 -8 -2.5 -17.5t-7.5 -17.5q-40 -73 -132 -73zM281 947q-3 -6 -8.5 -11.5t-14.5 -5.5
q-11 0 -18.5 7t-7.5 17q0 3 1 8t2 8q15 44 35.5 62.5t52.5 18.5q17 0 35 -6.5t36 -14t34 -13.5t29 -6q17 0 27 8t19 27q3 6 9 11.5t14 5.5q11 0 18.5 -7t7.5 -17q0 -3 -1 -7.5t-2 -8.5q-15 -44 -35.5 -62.5t-52.5 -18.5q-17 0 -35 6t-36 13.5t-34 14t-29 6.5q-17 0 -27 -8
t-19 -27z" />
    </font>
</defs>
</svg>
